<svg width="33" height="32" viewBox="0 0 33 32" fill="none" xmlns="http://www.w3.org/2000/svg">
<path d="M5.31677 28.4328C5.19934 28.3161 5.04067 28.2504 4.87514 28.25C4.70962 28.2505 4.55097 28.3162 4.4335 28.4328C4.3169 28.5502 4.25124 28.7089 4.25073 28.8744C4.25124 29.0399 4.3169 29.1985 4.4335 29.316C4.55085 29.4329 4.70951 29.4988 4.87514 29.4995C5.04078 29.4989 5.19947 29.433 5.31677 29.316C5.43365 29.1987 5.49961 29.04 5.50032 28.8744C5.49961 28.7088 5.43365 28.5501 5.31677 28.4328V28.4328Z" fill="#185F2E"/>
<path d="M29.3456 11.4333C29.2282 11.3165 29.0695 11.2508 28.904 11.2505C28.7385 11.251 28.5798 11.3167 28.4623 11.4333C28.3457 11.5507 28.28 11.7094 28.2795 11.8749C28.28 12.0404 28.3457 12.199 28.4623 12.3165C28.5797 12.4334 28.7383 12.4993 28.904 12.5C29.0696 12.4995 29.2284 12.4335 29.3456 12.3165C29.4627 12.1993 29.5287 12.0405 29.5291 11.8749C29.5286 11.7092 29.4626 11.5505 29.3456 11.4333V11.4333Z" fill="#185F2E"/>
<path d="M31.8172 0.182764C31.7591 0.124735 31.6901 0.0787361 31.6142 0.047376C31.5383 0.016016 31.4569 -8.67637e-05 31.3748 3.51585e-07H16C15.8342 3.51585e-07 15.6752 0.0658694 15.5579 0.183106C15.4407 0.300342 15.3748 0.459352 15.3748 0.62515V2.41552L9.45062 4.00298C9.2906 4.04599 9.15418 4.15075 9.07137 4.29427C8.98856 4.43779 8.96614 4.60831 9.00899 4.76837L12.0796 16.2268L9.42303 18.8833C9.25139 18.6307 9.02061 18.4239 8.75081 18.2809C8.48102 18.1379 8.18038 18.063 7.87502 18.0627H1.87476C1.37773 18.0633 0.901187 18.261 0.549729 18.6124C0.198271 18.9638 0.000592297 19.4403 0 19.9373V30.1246C0.000592297 30.6216 0.198271 31.0981 0.549729 31.4495C0.901187 31.801 1.37773 31.9987 1.87476 31.9993H7.87502C8.29331 31.9984 8.69935 31.8579 9.02871 31.6C9.35806 31.3422 9.59188 30.9818 9.69309 30.5759L10.4391 31.2242C11.0127 31.7245 11.7482 32.0001 12.5094 32H31.3763C31.5421 32 31.7011 31.9341 31.8183 31.8169C31.9356 31.6997 32.0015 31.5407 32.0015 31.3749V0.62515C32.0013 0.542924 31.985 0.461535 31.9534 0.385631C31.9217 0.309726 31.8755 0.240783 31.8172 0.182764V0.182764ZM8.49947 30.1246C8.49927 30.2903 8.4333 30.4492 8.3161 30.5664C8.1989 30.6836 8.04003 30.7495 7.87429 30.7497H1.87399C1.70824 30.7495 1.54937 30.6836 1.43217 30.5664C1.31497 30.4492 1.24905 30.2903 1.24885 30.1246V19.9373C1.24905 19.7716 1.31497 19.6127 1.43217 19.4955C1.54937 19.3783 1.70824 19.3124 1.87399 19.3122H4.24935V26.5118C4.24935 26.6775 4.3152 26.8366 4.43244 26.9538C4.54968 27.071 4.70872 27.1369 4.87452 27.1369C5.04033 27.1369 5.19932 27.071 5.31657 26.9538C5.43381 26.8366 5.4997 26.6775 5.4997 26.5118V19.3122H7.87502C8.04076 19.3124 8.19968 19.3783 8.31688 19.4955C8.43408 19.6127 8.5 19.7716 8.5002 19.9373V30.1246H8.49947ZM10.3772 5.04588L15.3756 3.70682V6.0194L14.9563 6.13129C14.877 6.15245 14.8026 6.18904 14.7375 6.23896C14.6723 6.28888 14.6176 6.35115 14.5766 6.42223C14.5355 6.4933 14.5087 6.57181 14.498 6.65322C14.4872 6.73463 14.4926 6.81736 14.5139 6.89668C14.6289 7.32828 14.5677 7.78789 14.3439 8.17442C14.1201 8.56095 13.7519 8.84274 13.3203 8.95785C13.2409 8.97913 13.1665 9.01585 13.1014 9.0659C13.0362 9.11594 12.9816 9.17835 12.9406 9.24954C12.8995 9.32078 12.8729 9.39942 12.8622 9.48096C12.8516 9.5625 12.8572 9.64534 12.8786 9.72473L15.3151 18.746H14.0603L13.4142 16.2171C13.3942 16.1378 13.3587 16.0633 13.3098 15.9978L10.3772 5.04588ZM15.3756 8.88922V14.1626L14.2356 9.94181C14.7031 9.69975 15.0967 9.33613 15.3748 8.88922H15.3756ZM24.3547 30.7467H12.5086C12.0497 30.7467 11.6064 30.5806 11.2605 30.279L9.75128 28.9631V20.3193L12.4803 17.5905L12.9748 19.53C13.0093 19.6645 13.0875 19.7837 13.1972 19.8688C13.3069 19.9539 13.4418 20 13.5806 20H25.8684C26.1004 20.0002 26.3229 20.0925 26.487 20.2565C26.6511 20.4206 26.7433 20.643 26.7435 20.875C26.7433 21.1071 26.6511 21.3295 26.487 21.4936C26.3229 21.6576 26.1004 21.7499 25.8684 21.7501H19.572C19.4062 21.7501 19.2471 21.816 19.1299 21.9332C19.0126 22.0504 18.9468 22.2094 18.9468 22.3752C18.9468 22.541 19.0126 22.7 19.1299 22.8173C19.2471 22.9345 19.4062 23.0004 19.572 23.0004H27.8215C28.0533 23 28.2758 23.0915 28.4402 23.2548C28.6046 23.4181 28.6976 23.6399 28.6988 23.8717C28.6986 24.1037 28.6064 24.3262 28.4423 24.4902C28.2782 24.6543 28.0557 24.7465 27.8237 24.7467H19.5705C19.4046 24.7467 19.2457 24.8126 19.1284 24.9298C19.0112 25.0471 18.9453 25.2061 18.9453 25.3719C18.9453 25.5377 19.0112 25.6967 19.1284 25.8139C19.2457 25.9312 19.4046 25.997 19.5705 25.997H26.4861C26.7181 25.9972 26.9406 26.0895 27.1047 26.2535C27.2688 26.4176 27.361 26.6401 27.3612 26.8721C27.361 27.1041 27.2688 27.3265 27.1047 27.4906C26.9406 27.6547 26.7181 27.7469 26.4861 27.7471H19.5705C19.4046 27.7471 19.2457 27.813 19.1284 27.9302C19.0112 28.0474 18.9453 28.2065 18.9453 28.3723C18.9453 28.5381 19.0112 28.6971 19.1284 28.8143C19.2457 28.9315 19.4046 28.9974 19.5705 28.9974H24.354C24.586 28.9976 24.8085 29.0898 24.9725 29.2539C25.1366 29.418 25.2289 29.6404 25.2291 29.8724C25.2293 29.9875 25.2068 30.1015 25.1629 30.2079C25.119 30.3143 25.0546 30.4109 24.9733 30.4924C24.892 30.5739 24.7955 30.6386 24.6893 30.6827C24.583 30.7268 24.469 30.7496 24.354 30.7497L24.3547 30.7467ZM30.7504 30.7467H26.2899C26.4149 30.472 26.4795 30.1736 26.4794 29.8717C26.4795 29.5698 26.4149 29.2714 26.2899 28.9966H26.4861C27.0494 28.9959 27.5893 28.7718 27.9876 28.3735C28.3859 27.9752 28.61 27.4353 28.6108 26.8721C28.6116 26.5419 28.5349 26.2161 28.387 25.9209C28.8355 25.797 29.231 25.5295 29.513 25.1594C29.795 24.7893 29.9479 24.337 29.9484 23.8717C29.9494 23.4148 29.8023 22.9698 29.5291 22.6035V14.6826C29.5291 14.5168 29.4633 14.3578 29.346 14.2405C29.2288 14.1233 29.0698 14.0574 28.904 14.0574C28.7382 14.0574 28.5792 14.1233 28.4619 14.2405C28.3447 14.3578 28.2788 14.5168 28.2788 14.6826V21.7941C28.1291 21.7611 27.9763 21.7443 27.823 21.7441H27.8021C27.9271 21.4693 27.9917 21.171 27.9916 20.8691C27.9908 20.3059 27.7667 19.7659 27.3684 19.3676C26.9701 18.9694 26.4302 18.7453 25.8669 18.7445H24.862C25.4005 18.5138 25.8595 18.1303 26.1823 17.6415C26.505 17.1526 26.6773 16.5798 26.6779 15.994C26.6771 15.201 26.3617 14.4407 25.801 13.8799C25.2403 13.3191 24.4801 13.0036 23.687 13.0026C22.8939 13.0034 22.1334 13.3188 21.5725 13.8796C21.0117 14.4405 20.6962 15.2009 20.6955 15.994C20.696 16.5798 20.8683 17.1526 21.191 17.6415C21.5138 18.1303 21.9728 18.5138 22.5113 18.7445H19.0945V6.86311C19.642 6.74211 20.1436 6.46718 20.5401 6.07069C20.9366 5.6742 21.2116 5.17266 21.3326 4.62515H26.0325C26.1535 5.17266 26.4285 5.6742 26.825 6.07069C27.2215 6.46718 27.723 6.74211 28.2706 6.86311V8.80269C28.2706 8.96849 28.3365 9.1275 28.4537 9.24473C28.571 9.36197 28.73 9.42783 28.8958 9.42783C29.0616 9.42783 29.2206 9.36197 29.3379 9.24473C29.4551 9.1275 29.5209 8.96849 29.5209 8.80269V6.30139C29.5209 6.13559 29.4551 5.97658 29.3379 5.85934C29.2206 5.74211 29.0616 5.67624 28.8958 5.67624C28.4495 5.67584 28.0216 5.49842 27.7061 5.18289C27.3906 4.86736 27.2131 4.43951 27.2127 3.99328C27.2127 3.91119 27.1966 3.82991 27.1652 3.75406C27.1337 3.67822 27.0877 3.60929 27.0296 3.55124C26.9716 3.49319 26.9027 3.44715 26.8268 3.41574C26.751 3.38432 26.6697 3.36816 26.5876 3.36816H20.7686C20.6865 3.36816 20.6052 3.38432 20.5293 3.41574C20.4535 3.44715 20.3845 3.49319 20.3265 3.55124C20.2684 3.60929 20.2224 3.67822 20.191 3.75406C20.1596 3.82991 20.1434 3.91119 20.1434 3.99328C20.143 4.43951 19.9655 4.86736 19.65 5.18289C19.3345 5.49842 18.9066 5.67584 18.4604 5.67624C18.2946 5.67624 18.1355 5.74211 18.0183 5.85934C17.9011 5.97658 17.8352 6.13559 17.8352 6.30139V18.743H16.6147V1.24356H30.7399L30.7504 30.7467ZM23.6878 17.7382C23.2261 17.7378 22.7834 17.5542 22.457 17.2277C22.1305 16.9013 21.9469 16.4587 21.9465 15.997C21.9471 15.5354 22.1308 15.0929 22.4572 14.7665C22.7836 14.4401 23.2261 14.2565 23.6878 14.2559C24.1494 14.2565 24.5919 14.4401 24.9183 14.7665C25.2448 15.0929 25.4284 15.5354 25.429 15.997C25.4292 16.4591 25.2459 16.9024 24.9194 17.2295C24.5929 17.5565 24.1499 17.7405 23.6878 17.7411V17.7382Z" fill="#185F2E"/>
</svg>
