<?xml version="1.0" encoding="utf-8"?>
<!-- Generator: Adobe Illustrator 23.0.1, SVG Export Plug-In . SVG Version: 6.00 Build 0)  -->
<svg version="1.1" id="Layer_1" xmlns="http://www.w3.org/2000/svg" xmlns:xlink="http://www.w3.org/1999/xlink" x="0px" y="0px"
	 viewBox="0 0 200 61.6" style="enable-background:new 0 0 200 61.6;" xml:space="preserve">
<style type="text/css">
	.st0{fill:#F6891F;}
	.st1{fill:#0675A3;}
	.st2{fill:#FFCE2F;}
	.st3{fill:#059AD7;}
</style>
<g>
	<path class="st0" d="M43,43.7c-1.5-22.3-15.7-30.1-17.2-30.1c-0.2,0-0.2,0-0.2,0.2c5.7,15.2,1.4,35.7,1.4,35.7
		C32.3,46.4,39.1,43,43,43.7z"/>
	<path class="st0" d="M24.7,50.4c2.2-9.6,2.4-18.3,1.9-24.3c-0.2-1.4-0.3-1.9-0.7-1.9c-2,0-8.1,22.8-16.1,29.2
		c1.2,0.3,2.4,0.3,3.6,0.3C19.6,53.8,24.7,50.4,24.7,50.4z"/>
	<g>
		<path class="st1" d="M78.1,21.3c0,1,0.2,1.9,0.5,2.5c0.3,0.7,0.7,1.4,1.2,1.9c0.5,0.5,1,0.8,1.7,1.2c0.7,0.3,1.2,0.3,1.9,0.3
			c0.5,0,1-0.2,1.5-0.3c0.5-0.2,0.8-0.3,1.2-0.7c0.3-0.3,0.7-0.7,1-1c0.3-0.3,0.7-0.8,1-1.2l1.5,1.2c-0.3,0.5-0.7,1-1.2,1.5
			c-0.5,0.5-1,0.8-1.5,1.4c-0.5,0.3-1.2,0.7-1.9,0.8c-0.7,0.2-1.4,0.3-2.2,0.3c-1.2,0-2.4-0.2-3.6-0.5c-1-0.3-2-0.8-2.7-1.5
			c-0.8-0.7-1.4-1.5-1.9-2.4c-0.5-1-0.7-2-0.7-3.2c0-1.2,0.2-2.2,0.7-3c0.3-1,1-1.7,1.7-2.4c0.7-0.7,1.7-1.2,2.7-1.5
			c1-0.3,2.2-0.5,3.4-0.5c0.8,0,1.7,0.2,2.4,0.3c0.7,0.2,1.4,0.5,1.9,0.8c0.5,0.3,1,0.8,1.5,1.2c0.5,0.5,0.8,1,1.2,1.5l-1.5,0.5
			c-0.3-0.5-0.7-0.8-1-1.2c-0.3-0.3-0.7-0.7-1.2-1c-0.3-0.3-0.8-0.5-1.4-0.7c-0.5-0.2-0.8-0.3-1.4-0.3c-0.7,0-1.4,0.2-1.9,0.3
			c-0.7,0.3-1.2,0.7-1.5,1.2c-0.5,0.5-0.8,1.2-1,1.9C78.3,19.5,78.1,20.3,78.1,21.3z"/>
		<path class="st1" d="M100.8,28.6h-3.4v-0.8c-0.2,0.2-0.3,0.3-0.5,0.5c-0.2,0.2-0.3,0.2-0.5,0.3c-0.2,0.2-0.5,0.2-0.7,0.2
			c-0.3,0-0.7,0-1,0c-0.5,0-1,0-1.4-0.2c-0.3-0.2-0.7-0.3-1-0.7c-0.3-0.3-0.5-0.5-0.7-0.8c-0.3-0.3-0.3-0.7-0.3-1.2
			c0-0.5,0-0.8,0.2-1.2c0.2-0.3,0.3-0.7,0.7-0.8c0.3-0.3,0.7-0.5,1-0.7s0.8-0.3,1.2-0.7c0.5-0.2,0.8-0.3,1.4-0.5
			c0.5-0.2,0.8-0.3,1.4-0.5h0.3v-1c0-0.7-0.2-1.2-0.3-1.5c-0.3-0.3-0.7-0.5-1-0.5s-0.5,0-0.7,0.2c-0.2,0-0.3,0.2-0.5,0.3
			c-0.2,0.2-0.2,0.3-0.2,0.3c0,0.2,0,0.3,0,0.5c0,0.2,0,0.3,0,0.7c0,0.2-0.2,0.3-0.2,0.5c-0.2,0.2-0.3,0.3-0.5,0.3
			c-0.2,0.2-0.5,0.2-0.7,0.2c-0.5,0-0.8-0.2-1.2-0.3c-0.3-0.3-0.5-0.7-0.5-1c0-0.3,0.2-0.7,0.3-1c0.3-0.3,0.7-0.7,1-0.8
			c0.5-0.2,1-0.3,1.5-0.5c0.5-0.2,1.2-0.2,1.9-0.2c0.8,0,1.5,0,2,0.2c0.5,0.2,1,0.3,1.4,0.7c0.3,0.3,0.7,0.5,0.8,1
			c0.2,0.3,0.3,0.8,0.3,1.2v7.9H100.8z M97.4,22.9c-0.3,0.2-0.7,0.3-1,0.5c-0.3,0.2-0.7,0.3-0.8,0.7c-0.3,0.2-0.5,0.5-0.7,0.7
			c-0.2,0.2-0.2,0.3-0.2,0.7c0,0.2,0,0.3,0.2,0.7c0,0.2,0.2,0.3,0.2,0.5c0.2,0.2,0.2,0.3,0.3,0.3c0.2,0.2,0.2,0.2,0.3,0.2
			c0.3,0,0.5-0.2,0.8-0.3c0.3-0.2,0.7-0.3,1-0.7v-3.2H97.4z"/>
		<path class="st1" d="M107,28.6h-3.4V13.2l3.4-1V28.6z"/>
		<path class="st1" d="M115,28.8c-0.8,0-1.5-0.2-2.2-0.5c-0.7-0.3-1.4-0.7-1.9-1.2c-0.5-0.5-0.8-1-1.2-1.7c-0.3-0.7-0.5-1.4-0.5-2
			c0-0.8,0.2-1.7,0.3-2.4c0.3-0.7,0.7-1.4,1.2-1.9c0.5-0.5,1.2-1,1.9-1.4c0.7-0.3,1.5-0.5,2.4-0.5c0.8,0,1.5,0.2,2.2,0.3
			c0.7,0.2,1.2,0.5,1.7,1c0.5,0.5,0.8,0.8,1,1.5c0.2,0.5,0.3,1.2,0.3,1.9h-7.6c0,0.7,0.2,1.2,0.3,1.7s0.3,1,0.7,1.5
			c0.3,0.3,0.5,0.7,0.8,1c0.3,0.2,0.7,0.3,1.2,0.3c0.3,0,0.7,0,1-0.2s0.7-0.3,1-0.5c0.3-0.2,0.5-0.5,0.8-0.8c0.2-0.3,0.3-0.7,0.5-1
			l1.7,0.3c-0.2,0.7-0.5,1.2-0.8,1.7s-0.8,1-1.4,1.4c-0.5,0.3-1,0.7-1.7,0.8C116.2,28.8,115.5,28.8,115,28.8z M116.3,20.8
			c0-0.3-0.2-0.7-0.2-0.8c-0.2-0.3-0.3-0.5-0.5-0.7c-0.2-0.2-0.3-0.3-0.7-0.5c-0.2-0.2-0.5-0.2-0.7-0.2s-0.3,0-0.7,0.2
			c-0.2,0.2-0.3,0.2-0.5,0.5c-0.2,0.2-0.3,0.3-0.3,0.7c-0.2,0.3-0.2,0.5-0.2,0.8H116.3z"/>
		<path class="st1" d="M121.7,19v-1.2c0.3,0,0.8-0.2,1.2-0.3s0.7-0.5,1-0.8c0.3-0.3,0.5-0.7,0.7-1.2c0.2-0.5,0.3-1,0.5-1.5h1.9v3.6
			h2.7v1.4H127v7.1c0,0.2,0,0.3,0.2,0.5c0.2,0.2,0.3,0.2,0.5,0.2c0.2,0,0.2,0,0.3-0.2c0.2,0,0.3-0.2,0.3-0.3
			c0.2-0.2,0.2-0.2,0.3-0.3c0.2-0.2,0.2-0.2,0.2-0.2l1.2,0.8c-0.2,0.3-0.3,0.5-0.7,0.8c-0.2,0.2-0.5,0.5-0.8,0.7s-0.7,0.3-1,0.5
			c-0.3,0.2-0.8,0.2-1.4,0.2s-0.8,0-1.2-0.2s-0.7-0.3-0.8-0.5c-0.2-0.2-0.3-0.5-0.5-0.8c-0.2-0.3-0.2-0.7-0.2-1.2v-7.3h-1.7V19z"/>
		<path class="st1" d="M140.3,28.6H137v-0.8c-0.2,0.2-0.3,0.3-0.5,0.5c-0.2,0.2-0.3,0.2-0.5,0.3c-0.2,0.2-0.5,0.2-0.7,0.2
			c-0.3,0-0.7,0-1,0c-0.5,0-1,0-1.4-0.2c-0.3-0.2-0.7-0.3-1-0.7c-0.3-0.3-0.5-0.5-0.7-0.8c-0.2-0.3-0.2-0.7-0.2-1.2
			c0-0.5,0-0.8,0.2-1.2c0.2-0.3,0.3-0.7,0.7-0.8c0.3-0.3,0.7-0.5,1-0.7s0.8-0.3,1.2-0.7c0.5-0.2,0.8-0.3,1.4-0.5
			c0.5-0.2,0.8-0.3,1.4-0.5h0.3v-1c0-0.7-0.2-1.2-0.3-1.5c-0.3-0.3-0.7-0.5-1-0.5s-0.5,0-0.7,0.2c-0.2,0-0.3,0.2-0.5,0.3
			c-0.2,0.2-0.2,0.3-0.2,0.3c0,0.2,0,0.3,0,0.5c0,0.2,0,0.3,0,0.7c0,0.2-0.2,0.3-0.2,0.5c-0.2,0.2-0.3,0.3-0.5,0.3
			c-0.2,0.2-0.5,0.2-0.7,0.2c-0.5,0-0.8-0.2-1.2-0.3c-0.3-0.3-0.5-0.7-0.5-1c0-0.3,0.2-0.7,0.3-1c0.3-0.3,0.7-0.7,1-0.8
			c0.5-0.2,1-0.3,1.5-0.5c0.5-0.2,1.2-0.2,1.9-0.2c0.8,0,1.5,0,2,0.2c0.5,0.2,1,0.3,1.4,0.7c0.3,0.3,0.7,0.5,0.8,1
			c0.2,0.3,0.3,0.8,0.3,1.2v7.9H140.3z M137,22.9c-0.3,0.2-0.7,0.3-1,0.5c-0.3,0.2-0.7,0.3-0.8,0.7c-0.3,0.2-0.5,0.5-0.7,0.7
			c-0.2,0.2-0.2,0.5-0.2,0.8c0,0.2,0,0.3,0.2,0.7c0,0.2,0.2,0.3,0.2,0.5c0.2,0.2,0.2,0.3,0.3,0.3c0.2,0.2,0.2,0.2,0.3,0.2
			c0.3,0,0.5-0.2,0.8-0.3s0.5-0.3,0.8-0.7C137,26.3,137,22.9,137,22.9z"/>
		<path class="st1" d="M79.8,46.7c-0.8,0-1.7-0.2-2.4-0.3c-0.7-0.2-1.2-0.5-1.7-0.8c-0.5-0.3-0.8-0.8-1-1.4c-0.3-0.5-0.5-1-0.5-1.7
			h2.5c0.2,0.3,0.2,0.7,0.3,1c0.2,0.3,0.3,0.5,0.7,0.8c0.3,0.2,0.5,0.5,0.8,0.5C79,45,79.3,45,79.8,45c0.3,0,0.7,0,0.8-0.2
			c0.3,0,0.5-0.2,0.8-0.3c0.2-0.2,0.5-0.3,0.5-0.5c0.2-0.2,0.2-0.5,0.2-0.8c0-0.5-0.2-0.8-0.3-1.2c-0.2-0.3-0.5-0.7-0.8-0.8
			c-0.3-0.3-0.8-0.5-1.2-0.8c-0.5-0.2-1-0.5-1.4-0.7c-0.5-0.2-1-0.5-1.5-0.7c-0.5-0.3-0.8-0.5-1.2-0.8c-0.3-0.3-0.7-0.7-0.8-1.2
			c-0.2-0.3-0.3-0.8-0.3-1.4s0.2-1.2,0.3-1.7c0.3-0.5,0.7-0.8,1.2-1.4c0.5-0.3,1-0.7,1.9-0.8c0.7-0.2,1.5-0.3,2.4-0.3
			c0.7,0,1.4,0.2,2,0.3c0.7,0.2,1.2,0.5,1.5,0.8c0.5,0.3,0.8,0.8,1.2,1.2c0.3,0.5,0.5,1,0.7,1.5h-2.2c-0.2-0.3-0.3-0.7-0.5-1
			c-0.2-0.3-0.3-0.7-0.7-0.8c-0.3-0.2-0.5-0.5-0.8-0.5c-0.3-0.2-0.8-0.2-1.4-0.2c-0.5,0-0.8,0-1.2,0.2s-0.5,0.3-0.8,0.5
			c-0.2,0.2-0.3,0.3-0.5,0.7c-0.2,0.2-0.2,0.5-0.2,0.7c0,0.3,0.2,0.7,0.3,1c0.2,0.3,0.5,0.7,0.8,0.8c0.3,0.3,0.8,0.5,1.4,0.8
			c0.5,0.2,1,0.5,1.5,0.7c0.5,0.2,1,0.5,1.5,0.8c0.5,0.3,0.8,0.5,1.4,0.8c0.3,0.3,0.7,0.7,0.8,1c0.2,0.3,0.3,0.8,0.3,1.4
			c0,0.7-0.2,1.2-0.3,1.7s-0.7,1-1,1.4c-0.5,0.3-1,0.7-1.9,0.8C81.5,46.5,80.7,46.7,79.8,46.7z"/>
		<path class="st1" d="M96.7,46.4h-3.4v-0.8c-0.2,0.2-0.3,0.3-0.5,0.5c-0.2,0.2-0.3,0.2-0.5,0.3c-0.2,0.2-0.5,0.2-0.7,0.2
			c-0.3,0-0.7,0.2-1,0.2c-0.5,0-1,0-1.4-0.2c-0.3-0.2-0.7-0.3-1-0.7c-0.3-0.3-0.5-0.5-0.7-0.8c-0.2-0.3-0.2-0.7-0.2-1.2
			c0-0.5,0-0.8,0.2-1.2c0.2-0.3,0.3-0.7,0.7-0.8c0.3-0.3,0.7-0.5,1-0.7c0.3-0.2,0.8-0.3,1.2-0.7c0.5-0.2,0.8-0.3,1.4-0.5
			c0.5-0.2,0.8-0.3,1.4-0.5l0.3-0.2v-1c0-0.7-0.2-1.2-0.3-1.5c-0.3-0.3-0.7-0.5-1-0.5s-0.5,0-0.7,0.2c-0.2,0-0.3,0.2-0.5,0.3
			c-0.2,0.2-0.2,0.3-0.2,0.3c0,0.2,0,0.3,0,0.5c0,0.2,0,0.3,0,0.7c0,0.2-0.2,0.3-0.2,0.5c-0.2,0.2-0.3,0.3-0.5,0.3
			c-0.2,0.2-0.5,0.2-0.7,0.2c-0.5,0-0.8-0.2-1.2-0.3c-0.3-0.3-0.5-0.7-0.5-1s0.2-0.7,0.3-1c0.3-0.3,0.7-0.7,1-0.8
			c0.5-0.2,1-0.5,1.5-0.5c0.5-0.2,1.2-0.2,1.9-0.2c0.8,0,1.5,0,2,0.2c0.5,0.2,1,0.3,1.4,0.7c0.3,0.3,0.7,0.5,0.8,1
			c0.2,0.3,0.3,0.8,0.3,1.2v7.9H96.7z M93.3,40.8c-0.3,0.2-0.7,0.3-1,0.5c-0.3,0.2-0.7,0.3-0.8,0.7c-0.3,0.2-0.5,0.5-0.7,0.7
			s-0.2,0.5-0.2,0.8c0,0.2,0,0.3,0.2,0.7c0,0.2,0.2,0.3,0.2,0.5c0.2,0.2,0.2,0.3,0.3,0.3c0.2,0.2,0.2,0.2,0.3,0.2
			c0.3,0,0.5-0.2,0.8-0.2c0.3-0.2,0.5-0.3,0.8-0.7C93.3,44.3,93.3,40.8,93.3,40.8z"/>
		<path class="st1" d="M106.5,38.9c0-0.5-0.2-1-0.3-1.4c-0.2-0.3-0.5-0.5-0.8-0.5c-0.2,0-0.3,0-0.5,0.2c-0.2,0-0.3,0.2-0.5,0.2
			c-0.2,0.2-0.3,0.2-0.7,0.3c-0.2,0.2-0.3,0.3-0.7,0.5v8.1h-3.4v-11h3.4v0.8c0.5-0.3,1-0.7,1.7-0.8c0.7-0.2,1.2-0.3,1.7-0.3
			c0.5,0,0.8,0.2,1.4,0.3c0.3,0.2,0.8,0.3,1,0.7c0.3,0.3,0.5,0.7,0.7,1s0.3,0.8,0.3,1.4v7.9h-3.4v-7.4H106.5z"/>
		<path class="st1" d="M124.5,31.5l6.8,14.9h-3.7l-1.9-4.1h-5.7l-1.9,4.1h-2.4l7.1-14.9H124.5z M120.9,41.1h4.4l-2.2-4.7L120.9,41.1
			z"/>
		<path class="st1" d="M139.5,38.9c0-0.5-0.2-1-0.3-1.4c-0.2-0.3-0.5-0.5-0.8-0.5c-0.2,0-0.3,0-0.5,0.2c-0.2,0-0.3,0.2-0.5,0.2
			c-0.2,0.2-0.3,0.2-0.7,0.3c-0.2,0.2-0.3,0.3-0.7,0.5v8.1h-3.4v-11h3.4v0.8c0.5-0.3,1-0.7,1.7-0.8c0.5-0.2,1.2-0.3,1.7-0.3
			c0.5,0,0.8,0.2,1.4,0.3c0.3,0.2,0.8,0.3,1,0.7c0.3,0.3,0.5,0.7,0.7,1s0.3,0.8,0.3,1.4v7.9h-3.4v-7.4H139.5z"/>
		<path class="st1" d="M144.6,36.7v-1c0.3,0,0.8-0.2,1.2-0.3s0.7-0.5,1-0.8s0.5-0.7,0.7-1.2c0.2-0.5,0.3-1,0.5-1.5h1.9v3.6h2.7v1.4
			h-2.7v7.1c0,0.2,0,0.3,0.2,0.5c0.2,0.2,0.3,0.2,0.5,0.2s0.2,0,0.3-0.2c0.2,0,0.3-0.2,0.3-0.3c0.2-0.2,0.2-0.2,0.3-0.3
			c0.2-0.2,0.2-0.2,0.2-0.2l1.2,0.8c-0.2,0.3-0.3,0.5-0.7,0.8c-0.2,0.2-0.5,0.5-0.8,0.7s-0.7,0.3-1,0.5c-0.3,0.2-0.8,0.2-1.4,0.2
			s-0.8,0-1.2-0.2s-0.7-0.3-0.8-0.5c-0.2-0.2-0.3-0.5-0.5-0.8c-0.2-0.3-0.2-0.7-0.2-1.2v-7.3h-1.7V36.7z"/>
		<path class="st1" d="M159.8,46.7c-0.8,0-1.7-0.2-2.4-0.5c-0.7-0.3-1.4-0.7-1.9-1.2c-0.5-0.5-1-1-1.2-1.9c-0.3-0.7-0.5-1.4-0.5-2.2
			c0-0.8,0.2-1.7,0.5-2.4s0.7-1.4,1.2-1.9c0.5-0.5,1.2-0.8,1.9-1.2c0.7-0.3,1.5-0.5,2.4-0.5s1.7,0.2,2.4,0.5
			c0.7,0.3,1.4,0.7,1.9,1.2c0.5,0.5,1,1,1.4,1.7s0.5,1.4,0.5,2.2c0,0.8-0.2,1.5-0.5,2.4c-0.3,0.7-0.7,1.4-1.4,1.9
			c-0.5,0.5-1.2,1-1.9,1.4C161.5,46.5,160.6,46.7,159.8,46.7z M160.1,45.4c0.3,0,0.5-0.2,0.8-0.3s0.5-0.5,0.7-0.8
			c0.2-0.3,0.3-0.7,0.5-1.2c0.2-0.5,0.2-0.8,0.2-1.4c0-0.7,0-1.4-0.2-2c-0.2-0.7-0.3-1.2-0.5-1.7c-0.2-0.5-0.5-0.8-0.8-1.2
			s-0.8-0.3-1.4-0.3c-0.3,0-0.5,0.2-0.7,0.3c-0.2,0.2-0.5,0.5-0.7,0.8c-0.2,0.3-0.3,0.7-0.5,1.2c-0.2,0.5-0.2,0.8-0.2,1.4
			c0,0.7,0,1.4,0.2,2c0.2,0.7,0.3,1.2,0.5,1.7s0.5,0.8,0.8,1.2C159.3,45.2,159.8,45.4,160.1,45.4z"/>
		<path class="st1" d="M174.8,38.9c0-0.5-0.2-1-0.3-1.4c-0.2-0.3-0.5-0.5-0.8-0.5c-0.2,0-0.3,0-0.5,0.2c-0.2,0-0.3,0.2-0.5,0.2
			c-0.2,0.2-0.3,0.2-0.7,0.3c-0.2,0.2-0.3,0.3-0.7,0.5v8.1h-3.4v-11h3.4v0.8c0.5-0.3,1-0.7,1.7-0.8c0.5-0.2,1.2-0.3,1.7-0.3
			s0.8,0.2,1.4,0.3c0.3,0.2,0.8,0.3,1,0.7c0.3,0.3,0.5,0.7,0.7,1s0.3,0.8,0.3,1.4v7.9h-3.4v-7.4H174.8z"/>
		<path class="st1" d="M180.8,31.8c0-0.2,0-0.5,0.2-0.7c0.2-0.2,0.2-0.3,0.3-0.5c0.2-0.2,0.3-0.3,0.5-0.3s0.5-0.2,0.7-0.2
			c0.2,0,0.5,0,0.7,0.2c0.2,0.2,0.3,0.2,0.5,0.3s0.3,0.3,0.3,0.5c0.2,0.2,0.2,0.3,0.2,0.7c0,0.2,0,0.5-0.2,0.7s-0.2,0.3-0.3,0.5
			c-0.2,0.2-0.3,0.3-0.5,0.3c-0.2,0.2-0.5,0.2-0.7,0.2c-0.2,0-0.5,0-0.7-0.2c-0.2-0.2-0.3-0.2-0.5-0.3c-0.2-0.2-0.3-0.3-0.3-0.5
			C180.8,32.3,180.8,32.2,180.8,31.8z M180.9,36.1l3.4-0.8v11.3h-3.4V36.1z"/>
		<path class="st1" d="M192.6,46.7c-0.8,0-1.7-0.2-2.4-0.5c-0.7-0.3-1.4-0.7-1.9-1.2c-0.5-0.5-1-1-1.4-1.9c-0.3-0.7-0.5-1.4-0.5-2.2
			c0-0.8,0.2-1.7,0.5-2.4s0.7-1.4,1.2-1.9c0.5-0.5,1.2-0.8,1.9-1.2c0.7-0.3,1.5-0.5,2.4-0.5c0.8,0,1.7,0.2,2.4,0.5
			c0.7,0.3,1.4,0.7,1.9,1.2c0.5,0.5,1,1,1.4,1.7s0.5,1.4,0.5,2.2c0,0.8-0.2,1.5-0.5,2.4c-0.3,0.7-0.7,1.4-1.4,1.9
			c-0.5,0.5-1.2,1-1.9,1.4C194.3,46.5,193.4,46.7,192.6,46.7z M192.9,45.4c0.3,0,0.5-0.2,0.8-0.3s0.5-0.5,0.7-0.8
			c0.2-0.3,0.3-0.7,0.5-1.2c0.2-0.5,0.2-0.8,0.2-1.4c0-0.7,0-1.4-0.2-2c-0.2-0.7-0.3-1.2-0.5-1.7s-0.5-0.8-0.8-1.2s-0.8-0.3-1.4-0.3
			c-0.3,0-0.5,0.2-0.8,0.3c-0.2,0.2-0.5,0.5-0.7,0.8c-0.2,0.3-0.3,0.7-0.5,1.2c-0.2,0.5-0.2,0.8-0.2,1.4c0,0.7,0,1.4,0.2,2
			c0.2,0.7,0.3,1.2,0.5,1.7s0.5,0.8,0.8,1.2C192.1,45.2,192.6,45.4,192.9,45.4z"/>
	</g>
	<g>
		<path class="st2" d="M61.2,26.9c0-14-11.3-25.4-25.4-25.4S10.5,12.9,10.5,26.9c0,5.9,2,11.2,5.2,15.6c1.9-3.7,3.6-7.8,4.9-11
			c2.9-6.8,3.7-8.6,5.2-8.6l0,0l0,0c0.2,0,0.5,0,0.7,0.2c-0.5-3-1.2-6.1-2.2-8.8c-0.2-0.5-0.2-0.8,0.2-1.4c0.3-0.3,0.7-0.7,1.2-0.7
			l0,0c2.4,0,17.1,8.6,18.6,31.4c0.8,0,1.7,0.2,2.5,0.5c1,0.3,2,1,2.7,1.9c0.3,0.5,0.8,1,1,1.7C57,43,61.2,35.4,61.2,26.9z"/>
	</g>
	<path class="st3" d="M45.8,45.5c-4.9-1.7-12.8,3-16.7,5.1c-3.7,2-9.5,4.9-16.7,4.7c0,0-6.4,0-8.3-5.9c-0.5-1.9-0.3-3.4-0.2-4.1
		c0.3-1.9,1.5-4.2,4.9-4.7c0.3,0,0.8,0,1.4,0c0.5,0.2,1,0.3,1.4,1c0,0,0.2,0.2,0.3,0.2s0-0.3,0-0.3s-0.5-1.4-2.2-1.7l0,0l0,0l0,0
		c-0.5-0.2-1-0.2-1.4-0.2c-1.5,0-5.4,0.7-6.9,6.6c-0.2,0.5-0.2,1-0.2,1.5l0,0c0,0-0.3,8.1,7.6,11c0.7,0.3,1.5,0.5,2.5,0.7l0,0l0,0
		c3.9,0.7,9.8,0,18.8-4.4c2.7-1.4,11.2-5.7,11.2-5.7s3.9-2.2,5.9,0.2c0,0,1,1,1.5,2.5l0,0c0,0,0,0.2,0.2,0.2l0,0l0,0c0,0,0,0,0.2,0
		l0,0l0,0l0,0c0,0,0.2,0,0.3-0.2l0,0C49.6,52.1,50.7,47,45.8,45.5z"/>
</g>
</svg>
