<?xml version="1.0" encoding="utf-8"?>
<!-- Generator: Adobe Illustrator 22.1.0, SVG Export Plug-In . SVG Version: 6.00 Build 0)  -->
<svg version="1.1" id="Capa_1" xmlns="http://www.w3.org/2000/svg" xmlns:xlink="http://www.w3.org/1999/xlink" x="0px" y="0px"
	 viewBox="0 0 92 89" style="enable-background:new 0 0 92 89;" xml:space="preserve">
<style type="text/css">
	.st0{fill:#3C8C2C;}
</style>
<g id="_x31_20CY5_1_">
	<g>
		<path class="st0" d="M39.8,81.5c-0.9,0.7-1.5,1.3-2.2,1.8c-4.4-5.3-9.7-9.4-15.9-12.4c-1,1.5-2,3-3,4.5c-0.8-0.5-1.4-1-2.2-1.5
			c0.4-0.5,0.7-1.1,1-1.6c7.6-11.5,12.5-24,14.7-37.5c0.4-2.1,0.5-4.3,0.9-6.5c0.2-1-0.2-1.7-1.1-2.2c-0.8,0.7-1.5,1.4-1.6,2.7
			c-1.4,15.3-6.9,28.9-16.6,40.7c-0.1,0.2-0.3,0.3-0.5,0.5c-0.1-0.1-0.2-0.1-0.2-0.1c-0.6-0.5-1.1-0.9-1.7-1.5
			c0.2-0.3,0.4-0.6,0.7-1c-1.6-0.3-3.1-0.6-4.7-0.9c0.1-0.8,0.2-1.7,0.3-2.7c1.8,0.4,3.5,0.7,5.2,1.1c0.7,0.2,1.1,0,1.6-0.6
			c5.9-8.1,9.9-17.1,12-26.9c0.5-2.3,0.8-4.6,1.1-7c-0.2,0.2-0.4,0.4-0.6,0.6C23.5,34.6,20,38,16.6,41.4c-1.2,1.2-2,1-2.7-0.5
			c-2.1-4.6-1.2-10.3,2.3-14c0.4-0.4,0.8-0.8,1.3-1.4c-0.4,0-0.7,0-1,0c-2.6,0-5.2,0-7.8,0c-1.5,0-2-0.7-1.5-2.1
			c1.7-5,6.5-8.3,12-8.4c0.5,0,1,0,1.6,0c-0.3-0.3-0.4-0.5-0.6-0.7c-1.8-1.9-3.7-3.7-5.5-5.6c-1.1-1.1-0.9-2.1,0.5-2.7
			c4.6-2.1,10.2-1.2,13.9,2.2c1,0.9,2,1.8,3.1,2.7c0.9-0.9,2-2.3,3.3-3.2C39.7,4.5,44.3,4,49,6.1c1.2,0.5,1.4,1.5,0.4,2.4
			c-2.1,2.1-4.2,4.1-6.2,6.1c0,0.1,0.1,0.2,0.1,0.3c0.4,0,0.9,0,1.3,0c5.5,0.1,9.4,2.7,11.9,7.5c0.1,0.2,0.2,0.4,0.2,0.6
			c0.6,1.7,0.2,2.4-1.6,2.4c-2.8,0-5.6,0-8.5,0c0.5,0.5,0.8,0.9,1.1,1.3c3.8,4.2,4.5,8.9,2.5,14.1c-0.6,1.6-1.5,1.7-2.7,0.6
			c-3.7-3.7-7.4-7.4-11.1-11.1c-0.2-0.2-0.4-0.5-0.7-0.7C34.1,43.5,29.9,56.4,23,68.6c2,0.7,3.5,2.1,5.8,2.1c18.7-0.1,37.4,0,56.1,0
			c0.3,0,0.7,0,1.1,0c0,0.9,0,1.7,0,2.7c-18.3,0-36.6,0-54.7,0C34.1,76,36.9,78.7,39.8,81.5z M34.9,24.5c4.4,4.5,9,9.1,13.5,13.6
			c1-4.5-0.6-8.1-4-11.1C41.5,24.5,38.3,23.7,34.9,24.5z M29.4,24.6c-3.1-1-7.3-0.3-11.1,4c-2.8,3.1-3.3,7.5-2.3,9.7
			C20.5,33.7,24.9,29.2,29.4,24.6z M32.3,20.2c1.5-1.2,2.9-2.6,4.5-3.5c1.6-0.9,3-2,4.2-3.3c0.8-0.8,1.6-1.6,2.4-2.4
			c1-0.9,1.9-1.9,3-2.9c-4.6-1.2-8.1,0.3-11.1,3.4C33,13.9,31.9,16.8,32.3,20.2z M53.8,22.9c-2.1-3.5-5.1-5.1-8.9-5.3
			c-4-0.2-7.5,0.8-10,4.2c0.2,0,0.3,0.1,0.3,0.1c2.6-0.4,5.1-0.1,7.5,1c0.2,0.1,0.3,0.1,0.5,0.1C46.6,22.9,50.1,22.9,53.8,22.9z
			 M29.4,21.9c-3-3.9-7-4.7-11.3-4.2c-3.3,0.4-5.9,2.1-7.6,5.2c3,0,5.8,0,8.6,0c1.2,0,2.4,0,3.6-0.5C24.8,21.5,27,21.5,29.4,21.9z
			 M29.5,17.9c0.3-1.3,0.7-2.6,1-3.9c0.1-0.2,0-0.6-0.2-0.8c-1.1-1.2-2.2-2.6-3.5-3.6C24.2,7.6,21.2,7,17.7,8
			c1.8,1.8,3.7,3.4,5.2,5.2C24.8,15.3,27.3,16.5,29.5,17.9z"/>
		<path class="st0" d="M78.1,55c-0.1,7.3-6.1,13.2-13.3,13c-7.4-0.1-13.1-6.1-13-13.5c0.1-7.2,6.2-12.9,13.5-12.8
			C72.4,41.9,78.2,47.9,78.1,55z M75.5,55c0-5.9-4.6-10.6-10.4-10.6c-5.8,0-10.5,4.6-10.6,10.4c-0.1,5.9,4.6,10.6,10.4,10.6
			C70.7,65.5,75.5,60.8,75.5,55z"/>
		<path class="st0" d="M78.1,76c0,0.9,0,1.7,0,2.5c-8.7,0-17.4,0-26.2,0c0-0.8,0-1.6,0-2.5C60.6,76,69.3,76,78.1,76z"/>
		<path class="st0" d="M72.5,81.3c0,0.9,0,1.7,0,2.5c-5,0-9.9,0-14.9,0c0-0.8,0-1.7,0-2.5C62.5,81.3,67.4,81.3,72.5,81.3z"/>
		<path class="st0" d="M25.5,76c0,0.9,0,1.7,0,2.5c-0.8,0-1.7,0-2.5,0c0-0.8,0-1.7,0-2.5C23.8,76,24.6,76,25.5,76z"/>
		<path class="st0" d="M17.6,78.7c0,0.9,0,1.7,0,2.5c-0.8,0-1.6,0-2.5,0c0-0.8,0-1.6,0-2.5C15.9,78.7,16.7,78.7,17.6,78.7z"/>
	</g>
</g>
</svg>
