<svg width="415" height="126" viewBox="0 0 415 126" fill="none" xmlns="http://www.w3.org/2000/svg">
<path d="M52.0754 68.5751C54.6558 60.2237 62.0615 54.5003 70.543 54.303L375.119 47.2163C384.208 47.0048 392.322 53.1755 394.857 62.228L403.571 93.3435C407.306 106.679 397.568 119.895 384.173 119.668L65.132 114.253C51.6991 114.025 42.2389 100.412 46.3243 87.189L52.0754 68.5751Z" fill="#D93C4D"/>
<path d="M390.714 87.4064L390.731 87.4712L390.757 87.5332C394.342 96.3355 392.924 102.547 389.361 106.544C385.737 110.61 379.704 112.6 373.683 112.49L77.5558 107.099C71.5108 106.989 65.7109 104.862 62.2718 100.708C58.8809 96.6122 57.597 90.3119 61.0278 81.4035L61.0435 81.3627L61.0556 81.3207L66.396 62.7064C68.69 54.7107 75.2323 49.3334 82.6124 49.1479L365.315 42.0384C373.216 41.8397 380.379 47.6251 382.63 56.2915L390.714 87.4064Z" stroke="white" stroke-width="2"/>
<path d="M406.35 15.6443C403.072 7.47925 394.306 1.97693 384.491 1.9234L32.0163 0.000395091C21.4977 -0.0569884 12.3324 6.14185 9.71948 15.0805L0.737885 45.8047C-3.11268 58.9731 8.61473 71.7999 24.0967 71.3547L392.859 60.7519C408.385 60.3055 418.846 46.7701 413.656 33.8426L406.35 15.6443Z" fill="#E5893B"/>
<path fill-rule="evenodd" clip-rule="evenodd" d="M34.1024 7.46881L382.712 10.0053C388.715 10.0491 394.155 13.2294 396.545 18.0933L405.095 35.4936C409.29 44.0311 402.488 53.5115 391.96 53.8005L24.3281 63.8908C13.9723 64.175 6.2884 55.3718 9.31525 46.6924L19.7878 16.6654C21.7117 11.1496 27.5157 7.42091 34.1024 7.46881ZM382.704 7.97453C389.631 8.02487 395.907 11.6946 398.665 17.3068L407.215 34.707C412.055 44.558 404.207 55.4969 392.059 55.8304L24.4275 65.9207C12.4785 66.2486 3.61185 56.0912 7.10463 46.0765L17.5772 16.0495C19.7971 9.68502 26.4936 5.38272 34.0942 5.43803L382.704 7.97453Z" fill="white"/>
<path d="M49.9623 48.8818L49.3503 31.8818H45.3043L44.6923 48.8818H49.9623ZM49.9283 28.8898V23.8918H44.7603V28.8898H49.9283Z" fill="white"/>
<path d="M66.6626 18.7578C69.6546 18.7578 72.1366 19.5285 74.1086 21.0698C76.0806 22.6111 77.384 24.7078 78.0186 27.3598H72.9866C72.4653 26.0678 71.6493 25.0478 70.5386 24.2998C69.4506 23.5518 68.136 23.1778 66.5946 23.1778C65.3253 23.1778 64.1806 23.4951 63.1606 24.1298C62.1406 24.7645 61.3473 25.6711 60.7806 26.8498C60.214 28.0285 59.9306 29.4111 59.9306 30.9978C59.9306 32.5618 60.214 33.9331 60.7806 35.1118C61.3473 36.2905 62.1406 37.1971 63.1606 37.8318C64.1806 38.4665 65.3253 38.7838 66.5946 38.7838C68.136 38.7838 69.4506 38.4098 70.5386 37.6618C71.6493 36.9138 72.4653 35.8938 72.9866 34.6018H78.0186C77.384 37.2538 76.0806 39.3505 74.1086 40.8918C72.1366 42.4331 69.6546 43.2038 66.6626 43.2038C64.3733 43.2038 62.3446 42.6938 60.5766 41.6738C58.8313 40.6311 57.4713 39.1805 56.4966 37.3218C55.5446 35.4631 55.0686 33.3551 55.0686 30.9978C55.0686 28.6178 55.5446 26.4985 56.4966 24.6398C57.4713 22.7811 58.8313 21.3418 60.5766 20.3218C62.322 19.2791 64.3506 18.7578 66.6626 18.7578Z" fill="white"/>
<path d="M90.3195 23.9258C92.1555 23.9258 93.7988 24.3111 95.2495 25.0818C96.7228 25.8525 97.8788 26.9745 98.7175 28.4478C99.5561 29.8985 99.9755 31.6098 99.9755 33.5818C99.9755 35.5538 99.5561 37.2651 98.7175 38.7158C97.8788 40.1665 96.7228 41.2885 95.2495 42.0818C93.7988 42.8525 92.1555 43.2378 90.3195 43.2378C88.4835 43.2378 86.8288 42.8525 85.3555 42.0818C83.9048 41.2885 82.7601 40.1665 81.9215 38.7158C81.0828 37.2651 80.6635 35.5538 80.6635 33.5818C80.6635 31.6098 81.0828 29.8985 81.9215 28.4478C82.7601 26.9745 83.9048 25.8525 85.3555 25.0818C86.8288 24.3111 88.4835 23.9258 90.3195 23.9258ZM90.3195 28.0738C88.9821 28.0738 87.8488 28.5498 86.9195 29.5018C85.9901 30.4311 85.5255 31.7911 85.5255 33.5818C85.5255 35.3725 85.9901 36.7438 86.9195 37.6958C87.8488 38.6251 88.9821 39.0898 90.3195 39.0898C91.6568 39.0898 92.7901 38.6251 93.7195 37.6958C94.6488 36.7438 95.1135 35.3725 95.1135 33.5818C95.1135 31.7911 94.6488 30.4311 93.7195 29.5018C92.7901 28.5498 91.6568 28.0738 90.3195 28.0738Z" fill="white"/>
<path d="M127.334 23.8918C129.623 23.8918 131.425 24.6058 132.74 26.0338C134.077 27.4391 134.746 29.4451 134.746 32.0518V42.9998H129.986V32.5958C129.986 31.1451 129.612 30.0345 128.864 29.2638C128.138 28.4705 127.13 28.0738 125.838 28.0738C124.5 28.0738 123.435 28.4931 122.642 29.3318C121.848 30.1705 121.452 31.3945 121.452 33.0038V42.9998H116.692V32.5958C116.692 31.1451 116.318 30.0345 115.57 29.2638C114.844 28.4705 113.836 28.0738 112.544 28.0738C111.206 28.0738 110.141 28.4931 109.348 29.3318C108.554 30.1705 108.158 31.3945 108.158 33.0038V42.9998H103.364V24.1638H108.158V27.7338C108.656 26.5098 109.438 25.5691 110.504 24.9118C111.592 24.2318 112.85 23.8918 114.278 23.8918C115.796 23.8918 117.111 24.2545 118.222 24.9798C119.355 25.7051 120.205 26.7478 120.772 28.1078C121.361 26.8158 122.234 25.7958 123.39 25.0478C124.568 24.2771 125.883 23.8918 127.334 23.8918Z" fill="white"/>
<path d="M150.211 23.9258C151.798 23.9258 153.226 24.3111 154.495 25.0818C155.765 25.8525 156.751 26.9745 157.453 28.4478C158.179 29.8985 158.541 31.6098 158.541 33.5818C158.541 35.5538 158.179 37.2765 157.453 38.7498C156.751 40.2005 155.765 41.3111 154.495 42.0818C153.226 42.8525 151.798 43.2378 150.211 43.2378C148.625 43.2378 147.265 42.8638 146.131 42.1158C145.021 41.3451 144.227 40.3251 143.751 39.0558V51.9758H138.957V24.1638H143.751V28.0738C144.227 26.8045 145.021 25.7958 146.131 25.0478C147.265 24.2998 148.625 23.9258 150.211 23.9258ZM148.715 28.1078C147.265 28.1078 146.063 28.6065 145.111 29.6038C144.182 30.5785 143.717 31.9045 143.717 33.5818C143.717 35.2365 144.182 36.5625 145.111 37.5598C146.063 38.5345 147.265 39.0218 148.715 39.0218C150.211 39.0218 151.413 38.5458 152.319 37.5938C153.226 36.6191 153.679 35.2818 153.679 33.5818C153.679 31.8818 153.226 30.5445 152.319 29.5698C151.413 28.5951 150.211 28.1078 148.715 28.1078Z" fill="white"/>
<path d="M166.728 27.7678C167.43 26.5665 168.36 25.6258 169.516 24.9458C170.672 24.2431 171.964 23.8918 173.392 23.8918V29.0258H171.998C168.484 29.0258 166.728 30.6578 166.728 33.9218V42.9998H161.934V24.1638H166.728V27.7678Z" fill="white"/>
<path d="M183.423 23.9258C185.01 23.9258 186.37 24.2998 187.503 25.0478C188.636 25.7958 189.441 26.8045 189.917 28.0738V24.1638H194.677V42.9998H189.917V39.0558C189.441 40.3251 188.636 41.3451 187.503 42.1158C186.37 42.8638 185.01 43.2378 183.423 43.2378C181.836 43.2378 180.408 42.8525 179.139 42.0818C177.87 41.3111 176.872 40.2005 176.147 38.7498C175.444 37.2765 175.093 35.5538 175.093 33.5818C175.093 31.6098 175.444 29.8985 176.147 28.4478C176.872 26.9745 177.87 25.8525 179.139 25.0818C180.408 24.3111 181.836 23.9258 183.423 23.9258ZM184.919 28.1078C183.423 28.1078 182.222 28.5951 181.315 29.5698C180.408 30.5445 179.955 31.8818 179.955 33.5818C179.955 35.2818 180.408 36.6191 181.315 37.5938C182.222 38.5458 183.423 39.0218 184.919 39.0218C186.37 39.0218 187.56 38.5345 188.489 37.5598C189.441 36.5625 189.917 35.2365 189.917 33.5818C189.917 31.9045 189.441 30.5785 188.489 29.6038C187.56 28.6065 186.37 28.1078 184.919 28.1078Z" fill="white"/>
<path d="M216.49 38.8858V42.9998H213.974C211.866 42.9998 210.245 42.4898 209.112 41.4698C208.001 40.4498 207.446 38.7498 207.446 36.3698V28.2098H204.828V24.1638H207.446V19.5058H212.24V24.1638H216.456V28.2098H212.24V36.4378C212.24 37.3445 212.421 37.9791 212.784 38.3418C213.147 38.7045 213.759 38.8858 214.62 38.8858H216.49Z" fill="white"/>
<path d="M237.96 24.1638V42.9998H233.166V39.1918C232.667 40.4611 231.84 41.4585 230.684 42.1838C229.55 42.8865 228.236 43.2378 226.74 43.2378C224.564 43.2378 222.83 42.5238 221.538 41.0958C220.246 39.6678 219.6 37.6731 219.6 35.1118V24.1638H224.36V34.5678C224.36 36.0638 224.745 37.2311 225.516 38.0698C226.286 38.8858 227.329 39.2938 228.644 39.2938C230.026 39.2938 231.126 38.8518 231.942 37.9678C232.758 37.0838 233.166 35.8145 233.166 34.1598V24.1638H237.96Z" fill="white"/>
<path d="M259.787 38.8858V42.9998H257.271C255.163 42.9998 253.542 42.4898 252.409 41.4698C251.298 40.4498 250.743 38.7498 250.743 36.3698V28.2098H248.125V24.1638H250.743V19.5058H255.537V24.1638H259.753V28.2098H255.537V36.4378C255.537 37.3445 255.718 37.9791 256.081 38.3418C256.444 38.7045 257.056 38.8858 257.917 38.8858H259.787Z" fill="white"/>
<path d="M280.951 32.8678C280.951 33.3438 280.894 33.8878 280.781 34.4998H266.977C267.045 36.1771 267.498 37.4125 268.337 38.2058C269.175 38.9991 270.218 39.3958 271.465 39.3958C272.575 39.3958 273.493 39.1238 274.219 38.5798C274.967 38.0358 275.443 37.2991 275.647 36.3698H280.713C280.463 37.6845 279.931 38.8631 279.115 39.9058C278.299 40.9485 277.245 41.7645 275.953 42.3538C274.683 42.9431 273.267 43.2378 271.703 43.2378C269.867 43.2378 268.235 42.8525 266.807 42.0818C265.379 41.2885 264.268 40.1665 263.475 38.7158C262.681 37.2651 262.285 35.5538 262.285 33.5818C262.285 31.6098 262.681 29.8985 263.475 28.4478C264.268 26.9745 265.379 25.8525 266.807 25.0818C268.235 24.3111 269.867 23.9258 271.703 23.9258C273.561 23.9258 275.182 24.3111 276.565 25.0818C277.97 25.8525 279.047 26.9178 279.795 28.2778C280.565 29.6151 280.951 31.1451 280.951 32.8678ZM276.123 32.3918C276.191 30.8505 275.783 29.6831 274.899 28.8898C274.037 28.0965 272.972 27.6998 271.703 27.6998C270.411 27.6998 269.323 28.0965 268.439 28.8898C267.555 29.6831 267.067 30.8505 266.977 32.3918H276.123Z" fill="white"/>
<path d="M289.148 27.7678C289.85 26.5665 290.78 25.6258 291.936 24.9458C293.092 24.2431 294.384 23.8918 295.812 23.8918V29.0258H294.418C290.904 29.0258 289.148 30.6578 289.148 33.9218V42.9998H284.354V24.1638H289.148V27.7678Z" fill="white"/>
<path d="M303.259 27.7678C303.962 26.5665 304.891 25.6258 306.047 24.9458C307.203 24.2431 308.495 23.8918 309.923 23.8918V29.0258H308.529C305.016 29.0258 303.259 30.6578 303.259 33.9218V42.9998H298.465V24.1638H303.259V27.7678Z" fill="white"/>
<path d="M330.29 32.8678C330.29 33.3438 330.234 33.8878 330.12 34.4998H316.316C316.384 36.1771 316.838 37.4125 317.676 38.2058C318.515 38.9991 319.558 39.3958 320.804 39.3958C321.915 39.3958 322.833 39.1238 323.558 38.5798C324.306 38.0358 324.782 37.2991 324.986 36.3698H330.052C329.803 37.6845 329.27 38.8631 328.454 39.9058C327.638 40.9485 326.584 41.7645 325.292 42.3538C324.023 42.9431 322.606 43.2378 321.042 43.2378C319.206 43.2378 317.574 42.8525 316.146 42.0818C314.718 41.2885 313.608 40.1665 312.814 38.7158C312.021 37.2651 311.624 35.5538 311.624 33.5818C311.624 31.6098 312.021 29.8985 312.814 28.4478C313.608 26.9745 314.718 25.8525 316.146 25.0818C317.574 24.3111 319.206 23.9258 321.042 23.9258C322.901 23.9258 324.522 24.3111 325.904 25.0818C327.31 25.8525 328.386 26.9178 329.134 28.2778C329.905 29.6151 330.29 31.1451 330.29 32.8678ZM325.462 32.3918C325.53 30.8505 325.122 29.6831 324.238 28.8898C323.377 28.0965 322.312 27.6998 321.042 27.6998C319.75 27.6998 318.662 28.0965 317.778 28.8898C316.894 29.6831 316.407 30.8505 316.316 32.3918H325.462Z" fill="white"/>
<path d="M344.914 23.8918C347.09 23.8918 348.824 24.6058 350.116 26.0338C351.408 27.4618 352.054 29.4678 352.054 32.0518V42.9998H347.294V32.5958C347.294 31.0998 346.908 29.9438 346.138 29.1278C345.367 28.2891 344.313 27.8698 342.976 27.8698C341.616 27.8698 340.528 28.3118 339.712 29.1958C338.896 30.0798 338.488 31.3491 338.488 33.0038V42.9998H333.694V24.1638H338.488V27.9378C338.986 26.6685 339.802 25.6825 340.936 24.9798C342.092 24.2545 343.418 23.8918 344.914 23.8918Z" fill="white"/>
<path d="M364.976 23.9258C366.812 23.9258 368.455 24.3111 369.906 25.0818C371.379 25.8525 372.535 26.9745 373.374 28.4478C374.212 29.8985 374.632 31.6098 374.632 33.5818C374.632 35.5538 374.212 37.2651 373.374 38.7158C372.535 40.1665 371.379 41.2885 369.906 42.0818C368.455 42.8525 366.812 43.2378 364.976 43.2378C363.14 43.2378 361.485 42.8525 360.012 42.0818C358.561 41.2885 357.416 40.1665 356.578 38.7158C355.739 37.2651 355.32 35.5538 355.32 33.5818C355.32 31.6098 355.739 29.8985 356.578 28.4478C357.416 26.9745 358.561 25.8525 360.012 25.0818C361.485 24.3111 363.14 23.9258 364.976 23.9258ZM364.976 28.0738C363.638 28.0738 362.505 28.5498 361.576 29.5018C360.646 30.4311 360.182 31.7911 360.182 33.5818C360.182 35.3725 360.646 36.7438 361.576 37.6958C362.505 38.6251 363.638 39.0898 364.976 39.0898C366.313 39.0898 367.446 38.6251 368.376 37.6958C369.305 36.7438 369.77 35.3725 369.77 33.5818C369.77 31.7911 369.305 30.4311 368.376 29.5018C367.446 28.5498 366.313 28.0738 364.976 28.0738Z" fill="white"/>
<path d="M146.715 91.234C146.715 92.5033 146.386 93.6706 145.729 94.736C145.094 95.8013 144.142 96.6513 142.873 97.286C141.626 97.9206 140.107 98.238 138.317 98.238C135.619 98.238 133.398 97.5806 131.653 96.266C129.907 94.9513 128.955 93.1153 128.797 90.758H134.985C135.075 91.6646 135.393 92.3786 135.937 92.9C136.503 93.4213 137.217 93.682 138.079 93.682C138.827 93.682 139.416 93.478 139.847 93.07C140.277 92.662 140.493 92.118 140.493 91.438C140.493 90.826 140.289 90.316 139.881 89.908C139.495 89.5 139.008 89.1713 138.419 88.922C137.829 88.65 137.013 88.3326 135.971 87.97C134.452 87.4486 133.205 86.95 132.231 86.474C131.279 85.9753 130.451 85.25 129.749 84.298C129.069 83.3233 128.729 82.0653 128.729 80.524C128.729 79.096 129.091 77.8606 129.817 76.818C130.542 75.7753 131.539 74.982 132.809 74.438C134.101 73.8713 135.574 73.588 137.229 73.588C139.903 73.588 142.023 74.2226 143.587 75.492C145.173 76.7613 146.069 78.5066 146.273 80.728H139.983C139.869 79.9346 139.575 79.3113 139.099 78.858C138.645 78.382 138.022 78.144 137.229 78.144C136.549 78.144 135.993 78.3253 135.563 78.688C135.155 79.0506 134.951 79.5833 134.951 80.286C134.951 80.8526 135.132 81.34 135.495 81.748C135.88 82.1333 136.356 82.4506 136.923 82.7C137.489 82.9493 138.305 83.2666 139.371 83.652C140.912 84.1733 142.17 84.6946 143.145 85.216C144.119 85.7146 144.958 86.4513 145.661 87.426C146.363 88.4006 146.715 89.67 146.715 91.234Z" fill="white"/>
<path d="M155.743 73.962V98H149.929V73.962H155.743Z" fill="white"/>
<path d="M181.109 98H175.295L165.571 83.244V98H159.757V73.962H165.571L175.295 88.854V73.962H181.109V98Z" fill="white"/>
<path d="M197.745 73.962V98H191.931V73.962H197.745Z" fill="white"/>
<path d="M223.111 98H217.297L207.573 83.244V98H201.759V73.962H207.573L217.297 88.854V73.962H223.111V98Z" fill="white"/>
<path d="M232.94 73.962V98H227.126V73.962H232.94Z" fill="white"/>
<path d="M247.936 73.724C250.996 73.724 253.524 74.5286 255.518 76.138C257.536 77.7473 258.839 79.9233 259.428 82.666H253.274C252.821 81.5553 252.118 80.6826 251.166 80.048C250.237 79.4133 249.126 79.096 247.834 79.096C246.134 79.096 244.763 79.7193 243.72 80.966C242.678 82.2126 242.156 83.8786 242.156 85.964C242.156 88.0493 242.678 89.7153 243.72 90.962C244.763 92.186 246.134 92.798 247.834 92.798C249.126 92.798 250.237 92.4806 251.166 91.846C252.118 91.2113 252.821 90.35 253.274 89.262H259.428C258.839 91.982 257.536 94.158 255.518 95.79C253.524 97.3993 250.996 98.204 247.936 98.204C245.602 98.204 243.55 97.694 241.782 96.674C240.014 95.6313 238.643 94.1806 237.668 92.322C236.716 90.4633 236.24 88.344 236.24 85.964C236.24 83.584 236.716 81.4646 237.668 79.606C238.643 77.7473 240.014 76.308 241.782 75.288C243.55 74.2453 245.602 73.724 247.936 73.724Z" fill="white"/>
<path d="M268.501 73.962V98H262.687V73.962H268.501Z" fill="white"/>
<path d="M287.407 93.614H278.397L276.901 98H270.781L279.587 74.132H286.285L295.091 98H288.903L287.407 93.614ZM285.911 89.194L282.919 80.354L279.893 89.194H285.911Z" fill="white"/>
<path d="M303.165 93.546H310.917V98H297.351V73.962H303.165V93.546Z" fill="white"/>
<path d="M321.543 72.772L320.829 89.398H315.899L315.185 72.772H321.543ZM321.407 92.186V98H315.355V92.186H321.407Z" fill="white"/>
</svg>
