<?xml version="1.0" encoding="utf-8"?>
<!-- Generator: Adobe Illustrator 22.1.0, SVG Export Plug-In . SVG Version: 6.00 Build 0)  -->
<svg version="1.1" id="Capa_1" xmlns="http://www.w3.org/2000/svg" xmlns:xlink="http://www.w3.org/1999/xlink" x="0px" y="0px"
	 viewBox="0 0 30 26.6" style="enable-background:new 0 0 30 26.6;" xml:space="preserve">
<style type="text/css">
	.st0{fill:#158A2F ;}
	.st1{fill:#FCCF00;}
	.st2{fill:#158A2F;}
</style>
<g id="N4TupC_1_">

		<image style="overflow:visible;enable-background:new    ;" width="97" height="63" id="N4TupC" xlink:href="F47AD525EAA903C2.html"  transform="matrix(3.2573 0 0 3.2573 -730.2582 -36.32)">
	</image>
</g>
<g>

		<image style="overflow:visible;opacity:0.2;enable-background:new    ;" width="530" height="573" xlink:href="F47AD525EAA903C6.html"  transform="matrix(1 0 0 1 -827 -228.7164)">
	</image>
	<g>
		<path class="st0" d="M-407.5,160.5c29.7-35.6,47.5-81.3,47.5-131.2c0-113.2-91.8-205-205-205s-205,91.8-205,205s91.8,205,205,205
			c24.6,0,48.1-4.3,70-12.3l96.6,55.1L-407.5,160.5z"/>
	</g>
</g>
<g id="logo-elolivar" transform="translate(-0.076 0)">
	<g id="Grupo_194" transform="translate(0.075 0)">
		<path id="Trazado_242" class="st1" d="M-655.7-33.9c-15.6,1.4-30.1,8.8-40.4,20.6l0,0c-0.2,0.2-0.3,0.3-0.4,0.5
			c-1.4,1.7-2.8,3.6-4.2,5.6h0.2c8.9-2.3,17.6-5.3,26-9.1c0,0,27.1-11.8,48.7-6c0,0,4,1.2,1.6,2.4s-7.7,3.4-23.9,4.7
			c0,0-10.3,0.1-18.3-0.5c6.3-2.1,12.8-3.4,19.4-3.9c0,0,1.4,0,0.7-0.4c0,0-5.5-1.3-26,4.3c0,0-3.5,1.3-6.7,2.6
			c13.6-0.5,27.2,1.1,40.4,4.8c0,0,34.5,10.5,41.2,26.3v2.2c-0.5,0.7-2.1,1.1-5.6,0.5c0,0-12.3-0.7-32.1-14.1l-16.4-10.9
			c0,0-1-0.9,0.8-0.4c0,0,25.1,9.2,31.7,12.6c0,0,1.5,0.7,0.8-0.3c0,0-8.8-5.6-26-11.8c0,0-7.5-3.1-24.4-6.7c0,0-4.2-0.8-2.2,0.2
			c0,0,20.7,12.3,27.7,24.6c0,0,10.3,15.1,9.5,23.3c-0.1,0.8-0.9,1.3-1.6,1.2c-0.2,0-0.4-0.1-0.5-0.2c0,0-5.2-1.8-12.9-16.9
			c0,0-5.5-12-6.4-14.7c0,0-0.8-1.8,0-1.6c0,0,0.2,0,1.1,1.3c3.8,4.3,7.2,8.8,10.2,13.7c0,0,0.9,1,0.4-0.2c0,0,0.3-1.4-10.6-15.5
			c-2.7-3-5.6-5.8-8.8-8.2c0,0-1.3-0.7-0.7,0.5c0,0,2.1,6.4,0.9,11.1c0,0-0.4,1.2,0.4,1.5c0,0,6.1,1.8,5.9,9.8
			c-0.5,8.6-4.7,16.5-11.4,21.8c0,0-3.8,3.1-7.2-1.6c0,0-4.8-7.2-2.7-19c0,0,2-12.2,10.7-12h2.6c0.2,0,0.9-0.4,0.1-6.8
			c-0.5-2.6-1.5-5-2.9-7.2c0,0-1.5-2.3-8-3.4h-1.6c0.4,2.6-0.8,5.2-3,6.6c0,0,4.9,5,0.1,12.5c0,0-7.1,11.2-16.3,10
			c0,0-3.3-1-2.2-7.2c0,0,1.6-17.3,12.8-17.5c0,0,3.3,0.1,4,1c2.2-1,3.5-3.3,3.1-5.8c0,0-6.5-2.1-24.1,8.4c-1.1,0.7-2,1.6-2.7,2.7
			c-0.9,1.2-1.5,2.6-1.7,4.1c0,0-5,18.7,0.3,35.5c0,0,4.4,11,6.4,13.2c0,0,0.5,1.5,2.9,0.8c0,0,13.4-7.8,43.9-10.2
			c17.1-1.2,34.2,1.1,50.3,6.7c0,0,15.2-18.6,4.3-50.2C-598.4,1.2-611.5-35.5-655.7-33.9z"/>
		<path id="Trazado_243" class="st2" d="M-586.4,10.9c-1.4-7-4.2-13.7-8.1-19.6c-6.3-9.5-18.6-22.4-41.6-28.9
			c-0.3-0.1-37.2-8.9-64.6,18.8c-5.9,6.1-10.6,13.3-13.7,21.2c-4.9,12.3-8.5,31.9,2.8,56c0.2,0.9,1.2,3.9,3.9,4h0.3l0.3-0.1
			c0.5-0.2,56.1-21.2,108,2.3c0.7,0.5,1.5,0.8,2.4,0.9h0.3c0.9-0.2,1.6-0.7,2.1-1.4C-585.1,47.9-582.3,28.9-586.4,10.9z
			 M-596.8,62.2c-0.2,0-0.3-0.1-0.4-0.2l-0.2-0.1l-0.2-0.1c-21.8-9.9-44.1-12-61.9-11.4c-4.9,0.2-9.3,0.5-13.4,1.1
			c-11.8,1.2-23.4,3.9-34.6,7.8c-0.5-0.5-0.8-1.1-1-1.7l-0.1-0.3c-8.7-18.6-9.7-36.6-2.8-53.6c3-7.5,7.4-14.4,13-20.3
			c26.1-26.5,61.3-18.1,61.6-18c21.9,6.2,33.7,18.3,39.7,27.5c3.8,5.6,6.5,11.9,7.8,18.6v0.1C-585.6,28.7-588.2,46.8-596.8,62.2z"/>
		<path id="Trazado_244" class="st2" d="M-702.2,64.9c-10.1,1.3-20,3.5-29.6,6.6c-0.5,0.2-0.8,0.7-0.8,1.3c0.3,1.1,2,0.7,2,0.7
			C-653.3,61.7-621.3,91-621.3,91c3.5-3.9,6.8-7.9,9.8-12.2c-21.9-11.9-45.4-15.6-65.6-15.6c44.2-2.9,72.3,15.3,72.3,15.3
			c2.6-3,5.1-6.2,7.4-9.4C-642.3,46.7-694.6,62.4-702.2,64.9z"/>
	</g>
	<path id="Trazado_245" class="st2" d="M-551.5,28.8H-567V2.7h15.5v5.6h-8.5v4.1h7.8v5.6h-7.8v5h8.5V28.8z"/>
	<rect id="Rectángulo_1506" x="-547.4" y="0.9" class="st2" width="6.9" height="27.8"/>
	<path id="Trazado_246" class="st2" d="M-501.1,15.7c0.3,3.6-0.9,7.2-3.3,10c-5.4,4.6-13.4,4.6-18.9,0c-2.3-2.8-3.5-6.4-3.3-10
		c-0.3-3.6,0.9-7.2,3.3-10c5.4-4.6,13.4-4.6,18.9-0.1C-502,8.4-500.9,12-501.1,15.7 M-519.1,15.7c0,5.1,1.7,7.6,5.3,7.6
		c1.6,0.1,3.1-0.6,4-1.8c1-1.7,1.5-3.7,1.3-5.8c0.2-2-0.3-4-1.3-5.8c-0.9-1.2-2.4-1.9-3.9-1.8C-517.4,8-519.1,10.6-519.1,15.7"/>
	<rect id="Rectángulo_1507" x="-496.9" y="0.9" class="st2" width="6.9" height="27.8"/>
	<path id="Trazado_247" class="st2" d="M-485.2,3.5c-0.1-0.9,0.3-1.7,0.9-2.4c1.7-1,3.9-1,5.6,0c0.6,0.6,0.9,1.4,0.9,2.3
		c0,2.1-1.2,3-3.7,3C-484,6.6-485.2,5.6-485.2,3.5 M-478,28.8h-6.9V8.5h6.9V28.8z"/>
	<path id="Trazado_248" class="st2" d="M-467.8,28.8l-7.7-20.2h7.3l3.5,11.9c0,0.1,0,0.1,0.1,0.3c0,0.2,0.1,0.4,0.1,0.5
		c0,0.2,0.1,0.4,0.1,0.7v0.7h0.1c0-0.7,0.1-1.4,0.3-2.1l3.6-12h7.3l-7.7,20.2H-467.8L-467.8,28.8z"/>
	<path id="Trazado_249" class="st2" d="M-437.7,28.8l-1.3-2.7h-0.1c-0.8,1-1.7,1.8-2.8,2.4c-1.2,0.5-2.5,0.7-3.8,0.7
		c-1.7,0.1-3.3-0.5-4.4-1.7c-1.1-1.3-1.7-3-1.6-4.8c-0.1-1.9,0.7-3.7,2.3-4.8c2-1.2,4.2-1.8,6.5-1.7l3.4-0.1v-0.3
		c0.1-1.2-0.7-2.3-2-2.5c-0.2,0-0.4,0-0.5,0c-2,0.1-3.9,0.7-5.6,1.5l-2.1-4.6c2.8-1.3,5.8-1.9,8.9-1.8c2.2-0.1,4.4,0.6,6.1,2
		c1.5,1.4,2.3,3.4,2.2,5.4v13.2h-5L-437.7,28.8z M-442.9,24.1c0.8,0,1.6-0.2,2.2-0.8c0.6-0.5,0.9-1.3,0.9-2.1v-1.5l-1.6,0.1
		c-2.3,0.1-3.5,1-3.5,2.5C-444.8,23.6-444.2,24.1-442.9,24.1"/>
	<path id="Trazado_250" class="st2" d="M-415.8,8.2c0.6,0,1.2,0,1.7,0.1l0.4,0.1l-0.7,6.6c-0.8-0.1-1.6-0.2-2.4-0.2
		c-1.2-0.1-2.4,0.3-3.4,1.1c-0.7,0.8-1.1,1.9-1.1,3v10h-6.9V8.5h5.2l1.1,3.3h0.3c0.6-1.1,1.4-2,2.4-2.6
		C-418.1,8.6-417,8.2-415.8,8.2"/>
	<path id="Trazado_251" class="st2" d="M-554.2,46.5c0.2,2.4-0.7,4.9-2.4,6.6c-1.9,1.6-4.4,2.4-6.9,2.3h-4.9V37.9h5.4
		c2.4-0.2,4.7,0.7,6.5,2.3C-554.9,41.9-554.1,44.2-554.2,46.5 M-557.2,46.6c0-4.2-2-6.3-5.9-6.3h-2.5V53h2.1
		C-559.3,53-557.2,50.8-557.2,46.6"/>
	<path id="Trazado_252" class="st2" d="M-533.1,55.4h-10V37.9h10v2.4h-7.1v4.8h6.5v2.4h-6.5V53h7.1L-533.1,55.4z"/>
	<path id="Trazado_253" class="st2" d="M-496.8,43.2c0.1,1.6-0.6,3.2-1.8,4.2c-1.5,1-3.3,1.5-5.1,1.4h-1.8v6.5h-2.8V37.9h5
		c1.7-0.1,3.4,0.3,4.9,1.3C-497.3,40.2-496.7,41.7-496.8,43.2 M-505.5,46.5h1.5c1.1,0.1,2.3-0.2,3.3-0.8c0.7-0.6,1-1.5,1-2.4
		c0-0.8-0.3-1.7-0.9-2.3c-0.8-0.6-1.8-0.9-2.8-0.8h-2v6.2L-505.5,46.5z"/>
	<rect id="Rectángulo_1508" x="-485.9" y="37.9" class="st2" width="2.8" height="17.5"/>
	<path id="Trazado_254" class="st2" d="M-461,50.6c0.1,1.4-0.6,2.8-1.7,3.7c-1.4,0.9-3,1.4-4.7,1.3c-1.7,0-3.3-0.3-4.9-0.9V52
		c0.8,0.4,1.6,0.6,2.5,0.9c0.8,0.2,1.7,0.3,2.5,0.3c0.9,0.1,1.8-0.2,2.5-0.7c0.5-0.4,0.8-1.1,0.8-1.7c0-0.6-0.3-1.2-0.8-1.6
		c-0.9-0.7-2-1.2-3-1.6c-1.3-0.4-2.4-1.2-3.4-2.2c-0.7-0.9-1-1.9-1-3c0-1.3,0.5-2.6,1.5-3.5c1.2-0.9,2.6-1.4,4.1-1.3
		c1.7,0,3.4,0.4,5,1.1l-0.9,2.3c-1.3-0.6-2.7-0.9-4.1-1c-0.7-0.1-1.5,0.2-2.1,0.7c-0.5,0.4-0.7,1-0.8,1.6c0,0.4,0.1,0.8,0.3,1.2
		c0.2,0.4,0.6,0.7,1,0.9c0.7,0.5,1.5,0.8,2.4,1.1c1,0.4,1.9,0.9,2.8,1.5c0.6,0.4,1,0.9,1.3,1.5C-461.2,49.1-461,49.8-461,50.6"/>
	<path id="Trazado_255" class="st2" d="M-442.9,40.1c-1.5-0.1-3,0.6-3.9,1.7c-1,1.4-1.5,3.1-1.4,4.8c-0.1,1.7,0.4,3.5,1.4,4.9
		c1,1.1,2.4,1.7,3.9,1.6c0.7,0,1.5-0.1,2.2-0.2c0.7-0.1,1.5-0.3,2.2-0.5v2.5c-1.5,0.5-3.1,0.8-4.7,0.8c-2.2,0.2-4.4-0.7-5.9-2.3
		c-1.5-1.9-2.2-4.2-2.1-6.6c0-1.6,0.3-3.3,1-4.8c0.6-1.3,1.6-2.4,2.9-3.1c1.4-0.8,2.9-1.1,4.4-1.1c1.7,0,3.4,0.3,5,1.1l-1,2.4
		c-0.6-0.3-1.2-0.6-1.8-0.8C-441.3,40.2-442.1,40.1-442.9,40.1"/>
	<path id="Trazado_256" class="st2" d="M-411.9,46.6c0.1,2.4-0.6,4.8-2.2,6.6c-3.4,3.2-8.7,3.2-12.2,0c-1.5-1.9-2.3-4.3-2.2-6.7
		c-0.2-2.4,0.6-4.8,2.2-6.6c1.6-1.6,3.8-2.4,6.1-2.3c2.3-0.1,4.5,0.7,6.1,2.4C-412.5,41.8-411.8,44.2-411.9,46.6 M-425.3,46.6
		c-0.1,1.7,0.3,3.4,1.3,4.9c1,1.1,2.4,1.7,3.9,1.6c1.5,0.1,2.9-0.5,3.8-1.6c1.7-3,1.7-6.7,0-9.8c-0.9-1.1-2.3-1.7-3.8-1.6
		c-1.5-0.1-2.9,0.5-3.9,1.6C-424.9,43.2-425.4,44.9-425.3,46.6"/>
</g>
<g>
	<rect x="0" y="11.8" transform="matrix(0.7071 0.7071 -0.7071 0.7071 13.7863 -6.7159)" class="st0" width="30" height="3"/>
	<rect x="0" y="11.8" transform="matrix(-0.7071 0.7071 -0.7071 -0.7071 34.9995 12.0698)" class="st0" width="30" height="3"/>
</g>
</svg>
