<svg xmlns="http://www.w3.org/2000/svg" width="24" height="24.035" viewBox="0 0 24 24.035">
  <g id="contacto_phone" transform="translate(-552.345 101.732)">
    <g id="Grupo_93" data-name="Grupo 93" transform="translate(552.344 -101.732)">
      <path id="Trazado_109" data-name="Trazado 109" d="M576.394,22.953a2.373,2.373,0,0,0-1.721-.789,2.454,2.454,0,0,0-1.741.784l-1.609,1.6c-.132-.071-.265-.137-.392-.2-.183-.092-.356-.178-.5-.27a17.489,17.489,0,0,1-4.191-3.818,10.314,10.314,0,0,1-1.375-2.169c.418-.382.8-.779,1.181-1.161.143-.143.285-.29.428-.433a2.336,2.336,0,0,0,0-3.523l-1.39-1.39c-.158-.158-.321-.321-.474-.484-.305-.316-.626-.641-.957-.947a2.411,2.411,0,0,0-1.706-.748,2.5,2.5,0,0,0-1.731.748l-.01.01-1.731,1.746a3.724,3.724,0,0,0-1.1,2.367,8.924,8.924,0,0,0,.652,3.778,21.923,21.923,0,0,0,3.9,6.5,23.963,23.963,0,0,0,7.979,6.247,12.435,12.435,0,0,0,4.481,1.324c.107.005.219.01.321.01a3.837,3.837,0,0,0,2.938-1.263c.005-.01.015-.015.021-.025a11.571,11.571,0,0,1,.891-.921c.219-.209.443-.428.662-.657a2.54,2.54,0,0,0,.769-1.762,2.447,2.447,0,0,0-.784-1.746Zm1.823,5.361c-.005,0-.005.005,0,0-.2.214-.4.407-.621.621a13.415,13.415,0,0,0-.983,1.018,2.455,2.455,0,0,1-1.915.809c-.076,0-.158,0-.234-.005a11.047,11.047,0,0,1-3.972-1.191,22.622,22.622,0,0,1-7.516-5.885,20.671,20.671,0,0,1-3.666-6.1,7.267,7.267,0,0,1-.57-3.187,2.337,2.337,0,0,1,.7-1.512l1.736-1.736a1.157,1.157,0,0,1,.774-.361,1.089,1.089,0,0,1,.743.356l.015.015c.311.29.606.591.917.911.158.163.321.326.484.494l1.39,1.39a.972.972,0,0,1,0,1.578c-.148.148-.29.3-.438.438-.428.438-.835.845-1.278,1.242-.01.01-.02.015-.025.025a1.039,1.039,0,0,0-.265,1.156l.015.046a11.16,11.16,0,0,0,1.645,2.683l.005.005a18.686,18.686,0,0,0,4.522,4.114,6.933,6.933,0,0,0,.626.341c.183.092.357.178.5.27.02.01.041.025.061.036a1.1,1.1,0,0,0,.5.127,1.089,1.089,0,0,0,.774-.351l1.741-1.741a1.152,1.152,0,0,1,.769-.382,1.038,1.038,0,0,1,.733.372l.01.01,2.806,2.805A1.006,1.006,0,0,1,578.217,28.314Z" transform="translate(-557.344 -8.098)" fill="#acd313"/>
      <path id="Trazado_110" data-name="Trazado 110" d="M802.474,69.2a6.144,6.144,0,0,1,5,5,.641.641,0,0,0,.635.535.853.853,0,0,0,.11-.01.645.645,0,0,0,.53-.745,7.429,7.429,0,0,0-6.053-6.053.648.648,0,0,0-.745.525A.638.638,0,0,0,802.474,69.2Z" transform="translate(-789.22 -63.456)" fill="#acd313"/>
      <path id="Trazado_111" data-name="Trazado 111" d="M816.492-8.022a12.113,12.113,0,0,0-3.4-6.564,12.113,12.113,0,0,0-6.564-3.4.642.642,0,0,0-.74.525.648.648,0,0,0,.53.745,10.847,10.847,0,0,1,5.867,3.041,10.815,10.815,0,0,1,3.041,5.867.64.64,0,0,0,.635.535.853.853,0,0,0,.11-.01A.632.632,0,0,0,816.492-8.022Z" transform="translate(-792.502 18)" fill="#acd313"/>
    </g>
  </g>
</svg>
