<svg xmlns="http://www.w3.org/2000/svg" width="25" height="28.032" viewBox="0 0 25 28.032">
  <g id="contacto_location" transform="translate(-37.6 -11)">
    <g id="Grupo_35" data-name="Grupo 35" transform="translate(37.6 11)">
      <path id="Trazado_50" data-name="Trazado 50" d="M53.407,31.921c2.363-3.919,5.349-9.428,5.349-12.26a8.661,8.661,0,1,0-17.323,0c0,2.832,2.986,8.341,5.349,12.26-2.8.212-9.182.973-9.182,3.5,0,2.483,6.476,3.616,12.5,3.616S62.6,37.9,62.6,35.416c-.006-2.523-6.39-3.284-9.193-3.5ZM42.629,19.661a7.469,7.469,0,1,1,14.937,0c0,3.6-5.732,12.626-7.471,15.28-1.739-2.654-7.466-11.682-7.466-15.28Zm7.466,18.175c-7.317,0-11.3-1.6-11.3-2.426,0-.635,2.632-2,8.7-2.351,1.138,1.836,2,3.135,2.117,3.289a.611.611,0,0,0,.99,0c.12-.143.978-1.453,2.117-3.289,6.064.349,8.7,1.711,8.7,2.351-.006.83-3.993,2.426-11.31,2.426Z" transform="translate(-37.6 -11)" fill="#acd313"/>
      <path id="Trazado_51" data-name="Trazado 51" d="M197.185,100.042a3.542,3.542,0,1,0-3.542,3.542A3.542,3.542,0,0,0,197.185,100.042Zm-5.967,0a2.424,2.424,0,1,1,2.424,2.424A2.425,2.425,0,0,1,191.218,100.042Z" transform="translate(-181.148 -91.5)" fill="#acd313"/>
    </g>
  </g>
</svg>
