<?xml version="1.0" encoding="utf-8"?>
<!-- Generator: Adobe Illustrator 23.0.1, SVG Export Plug-In . SVG Version: 6.00 Build 0)  -->
<svg version="1.1" id="contacto_clock" xmlns="http://www.w3.org/2000/svg" xmlns:xlink="http://www.w3.org/1999/xlink" x="0px"
	 y="0px" viewBox="0 0 24 24" style="enable-background:new 0 0 24 24;" xml:space="preserve">
<style type="text/css">
	.st0{fill:#FFFFFF;}
</style>
<g id="Grupo_96">
	<g id="Grupo_95">
		<path id="Trazado_112" class="st0" d="M12,0C5.4,0,0,5.4,0,12s5.4,12,12,12s12-5.4,12-12S18.6,0,12,0z M12.5,22.9v-2.1
			c0-0.3-0.2-0.5-0.5-0.5s-0.5,0.2-0.5,0.5c0,0,0,0,0,0v2.1C5.8,22.7,1.3,18.2,1.1,12.5h2.1c0.3,0,0.5-0.2,0.5-0.5
			c0-0.3-0.2-0.5-0.5-0.5c0,0,0,0,0,0H1.1C1.3,5.8,5.8,1.3,11.5,1.1v2.1c0,0.3,0.2,0.5,0.5,0.5c0.3,0,0.5-0.2,0.5-0.5c0,0,0,0,0,0
			V1.1c5.6,0.3,10.2,4.8,10.4,10.4h-2.1c-0.3,0-0.5,0.2-0.5,0.5s0.2,0.5,0.5,0.5c0,0,0,0,0,0H23C22.7,18.2,18.2,22.7,12.5,22.9z"/>
	</g>
</g>
<g id="Grupo_98" transform="translate(11.757 6.474)">
	<g id="Grupo_97">
		<path id="Trazado_113" class="st0" d="M5.5,10L1,5.3V0.5C1,0.2,0.7,0,0.5,0C0.2,0,0,0.2,0,0.5c0,0,0,0,0,0v5
			c0,0.1,0.1,0.2,0.1,0.3l4.7,4.8c0.2,0.2,0.5,0.2,0.7,0C5.7,10.5,5.7,10.2,5.5,10L5.5,10z"/>
	</g>
</g>
</svg>
