<?xml version="1.0" encoding="utf-8"?>
<!-- Generator: Adobe Illustrator 23.0.1, SVG Export Plug-In . SVG Version: 6.00 Build 0)  -->
<svg version="1.1" id="Capa_1" xmlns="http://www.w3.org/2000/svg" xmlns:xlink="http://www.w3.org/1999/xlink" x="0px" y="0px"
	 viewBox="0 0 25 28" style="enable-background:new 0 0 25 28;" xml:space="preserve">
<style type="text/css">
	.st0{fill:#FFFFFF;}
</style>
<g id="contacto_location" transform="translate(-37.6 -11)">
	<g id="Grupo_35" transform="translate(37.6 11)">
		<path id="Trazado_50" class="st0" d="M15.8,20.9c2.4-3.9,5.3-9.4,5.3-12.3c0-4.8-3.9-8.7-8.7-8.7S3.8,3.9,3.8,8.7l0,0
			c0,2.8,3,8.3,5.3,12.3c-2.8,0.2-9.2,1-9.2,3.5C0,26.9,6.5,28,12.5,28S25,26.9,25,24.4C25,21.9,18.6,21.1,15.8,20.9L15.8,20.9z
			 M5,8.7c0-4.1,3.3-7.5,7.4-7.6c4.1,0,7.5,3.3,7.6,7.4c0,0.1,0,0.1,0,0.2c0,3.6-5.7,12.6-7.5,15.3C10.8,21.3,5,12.3,5,8.7z
			 M12.5,26.8c-7.3,0-11.3-1.6-11.3-2.4c0-0.6,2.6-2,8.7-2.4c1.1,1.8,2,3.1,2.1,3.3c0.2,0.3,0.6,0.3,0.9,0.1c0.1,0,0.1-0.1,0.1-0.1
			c0.1-0.1,1-1.5,2.1-3.3c6.1,0.3,8.7,1.7,8.7,2.4C23.8,25.2,19.8,26.8,12.5,26.8L12.5,26.8z"/>
		<path id="Trazado_51" class="st0" d="M16,8.5c0-2-1.6-3.5-3.5-3.5C10.5,5,9,6.6,9,8.5s1.6,3.5,3.5,3.5S16,10.5,16,8.5L16,8.5z
			 M10.1,8.5c0-1.3,1.1-2.4,2.4-2.4c1.3,0,2.4,1.1,2.4,2.4c0,1.3-1.1,2.4-2.4,2.4l0,0C11.2,11,10.1,9.9,10.1,8.5z"/>
	</g>
</g>
</svg>
