<?xml version="1.0" encoding="utf-8"?>
<!-- Generator: Adobe Illustrator 23.0.4, SVG Export Plug-In . SVG Version: 6.00 Build 0)  -->
<svg version="1.1" id="Capa_1" xmlns="http://www.w3.org/2000/svg" xmlns:xlink="http://www.w3.org/1999/xlink" x="0px" y="0px"
	 viewBox="0 0 50 50" style="enable-background:new 0 0 50 50;" xml:space="preserve">
<style type="text/css">
	.st0{fill:#FFFFFF;}
</style>
<path class="st0" d="M37.9,45H10.1C7.3,45,5,42.7,5,39.9V13.1C5,10.3,7.3,8,10.1,8H19c1.1,0,2,0.9,2,2s-0.9,2-2,2h-8.9
	C9.5,12,9,12.5,9,13.1v26.8c0,0.6,0.5,1.1,1.1,1.1h27.8c0.6,0,1.1-0.5,1.1-1.1V31c0-1.1,0.9-2,2-2s2,0.9,2,2v8.9
	C43,42.7,40.7,45,37.9,45z"/>
<path class="st0" d="M17,34.5c-0.4,0-0.8-0.2-1.1-0.4c-0.4-0.4-0.5-0.9-0.4-1.4l2-8c0.1-0.3,0.2-0.5,0.4-0.7L33.9,8
	c0.4-0.5,2.3-2.7,4.9-2.8c1.1-0.1,2.7,0.2,4.2,1.8c1.6,1.6,1.8,3.2,1.8,4.2c-0.2,2.6-2.3,4.5-2.8,4.9L26.1,32.1
	c-0.2,0.2-0.4,0.3-0.7,0.4l-8,2C17.2,34.5,17.1,34.5,17,34.5z M20.4,25.8l-1.3,5.2l5.2-1.3l15.7-15.7c0,0,0.1-0.1,0.1-0.1
	c0.5-0.4,1.7-1.6,1.8-2.8c0-0.7-0.3-1.3-0.9-1.9c-0.6-0.6-1.3-0.9-1.9-0.9c-1.2,0.1-2.5,1.3-2.8,1.8c0,0-0.1,0.1-0.1,0.1L20.4,25.8z
	"/>
<path class="st0" d="M26.5,30c-0.4,0-0.8-0.1-1.1-0.4l-5-5c-0.6-0.6-0.6-1.5,0-2.1c0.6-0.6,1.5-0.6,2.1,0l5,5c0.6,0.6,0.6,1.5,0,2.1
	C27.3,29.9,26.9,30,26.5,30z"/>
<path class="st0" d="M40,17.5c-0.4,0-0.8-0.1-1.1-0.4l-6-6c-0.6-0.6-0.6-1.5,0-2.1c0.6-0.6,1.5-0.6,2.1,0l6,6c0.6,0.6,0.6,1.5,0,2.1
	C40.8,17.4,40.4,17.5,40,17.5z"/>
</svg>
