<?xml version="1.0" encoding="utf-8"?>
<!-- Generator: Adobe Illustrator 23.0.1, SVG Export Plug-In . SVG Version: 6.00 Build 0)  -->
<svg version="1.1" id="Capa_1" xmlns="http://www.w3.org/2000/svg" xmlns:xlink="http://www.w3.org/1999/xlink" x="0px" y="0px"
	 viewBox="0 0 24 24" style="enable-background:new 0 0 24 24;" xml:space="preserve">
<style type="text/css">
	.st0{fill:#FFFFFF;}
</style>
<g id="contacto_phone" transform="translate(-552.345 101.732)">
	<g id="Grupo_93" transform="translate(552.344 -101.732)">
		<path id="Trazado_109" class="st0" d="M19,14.9c-0.4-0.5-1.1-0.8-1.7-0.8c-0.7,0-1.3,0.3-1.7,0.8L14,16.5
			c-0.1-0.1-0.3-0.1-0.4-0.2c-0.2-0.1-0.4-0.2-0.5-0.3c-1.6-1-3-2.3-4.2-3.8c-0.5-0.7-1-1.4-1.4-2.2c0.4-0.4,0.8-0.8,1.2-1.2
			C8.8,8.7,9,8.5,9.1,8.4c1-0.8,1.1-2.3,0.2-3.3C9.3,5,9.2,4.9,9.1,4.9L7.7,3.5C7.6,3.3,7.4,3.2,7.3,3C7,2.7,6.6,2.4,6.3,2.1
			C5.9,1.6,5.2,1.3,4.6,1.3C4,1.3,3.3,1.6,2.9,2.1l0,0L1.1,3.8C0.5,4.4,0.1,5.3,0,6.2C0,7.5,0.2,8.8,0.7,10c0.9,2.4,2.2,4.6,3.9,6.5
			c2.2,2.6,4.9,4.8,8,6.2c1.4,0.7,2.9,1.2,4.5,1.3c0.1,0,0.2,0,0.3,0c1.1,0,2.2-0.4,2.9-1.3c0,0,0,0,0,0c0.3-0.3,0.6-0.6,0.9-0.9
			c0.2-0.2,0.4-0.4,0.7-0.7c0.5-0.5,0.8-1.1,0.8-1.8c0-0.7-0.3-1.3-0.8-1.7L19,14.9z M20.9,20.2C20.9,20.2,20.9,20.2,20.9,20.2
			c-0.2,0.2-0.4,0.4-0.6,0.6c-0.3,0.3-0.7,0.7-1,1c-0.5,0.5-1.2,0.8-1.9,0.8c-0.1,0-0.2,0-0.2,0c-1.4-0.1-2.7-0.5-4-1.2
			c-2.9-1.4-5.5-3.4-7.5-5.9C4.1,13.8,2.8,11.7,2,9.5c-0.4-1-0.6-2.1-0.6-3.2c0-0.6,0.3-1.1,0.7-1.5L3.8,3C4,2.8,4.3,2.7,4.6,2.7
			c0.3,0,0.6,0.1,0.7,0.4l0,0C5.7,3.3,6,3.6,6.3,4c0.2,0.2,0.3,0.3,0.5,0.5l1.4,1.4c0.4,0.3,0.5,0.9,0.2,1.4
			C8.3,7.3,8.2,7.4,8.2,7.4C8,7.6,7.9,7.7,7.7,7.9C7.3,8.3,6.9,8.7,6.4,9.1c0,0,0,0,0,0C6.1,9.4,6,9.9,6.1,10.3l0,0
			c0.4,1,1,1.9,1.6,2.7l0,0c1.3,1.6,2.8,3,4.5,4.1c0.2,0.1,0.4,0.2,0.6,0.3c0.2,0.1,0.4,0.2,0.5,0.3c0,0,0,0,0.1,0
			c0.2,0.1,0.3,0.1,0.5,0.1c0.3,0,0.6-0.1,0.8-0.4l1.7-1.7c0.2-0.2,0.5-0.4,0.8-0.4c0.3,0,0.6,0.2,0.7,0.4l0,0l2.8,2.8
			c0.4,0.3,0.5,1,0.2,1.4C21,20.1,20.9,20.2,20.9,20.2z"/>
		<path id="Trazado_110" class="st0" d="M13.3,5.7c2.6,0.4,4.6,2.4,5,5c0.1,0.3,0.3,0.5,0.6,0.5c0,0,0.1,0,0.1,0
			c0.4-0.1,0.6-0.4,0.5-0.7c0,0,0,0,0,0c-0.5-3.1-3-5.5-6.1-6.1c-0.4-0.1-0.7,0.2-0.7,0.5C12.7,5.3,12.9,5.7,13.3,5.7
			C13.2,5.7,13.2,5.7,13.3,5.7z"/>
		<path id="Trazado_111" class="st0" d="M24,10c-0.4-2.5-1.6-4.8-3.4-6.6c-1.8-1.8-4.1-3-6.6-3.4c-0.3-0.1-0.7,0.2-0.7,0.5
			c-0.1,0.4,0.2,0.7,0.5,0.7c2.2,0.4,4.3,1.4,5.9,3c1.6,1.6,2.7,3.6,3,5.9c0.1,0.3,0.3,0.5,0.6,0.5c0,0,0.1,0,0.1,0
			C23.8,10.7,24,10.3,24,10C24,10,24,10,24,10z"/>
	</g>
</g>
</svg>
