<?xml version="1.0" encoding="utf-8"?>
<!-- Generator: Adobe Illustrator 24.1.0, SVG Export Plug-In . SVG Version: 6.00 Build 0)  -->
<svg version="1.1" id="Layer_1" xmlns="http://www.w3.org/2000/svg" xmlns:xlink="http://www.w3.org/1999/xlink" x="0px" y="0px"
	 viewBox="0 0 412.7 130.6" style="enable-background:new 0 0 412.7 130.6;" xml:space="preserve">
<style type="text/css">
	.st0{fill:none;}
	.st1{clip-path:url(#SVGID_4_);}
	.st2{fill:#008F3E;}
	.st3{fill:#EC1848;}
	.st4{fill:#F9B719;}
	.st5{fill:#FFFFFF;}
	.st6{fill:#005C2F;}
</style>
<g>
	
		<image style="overflow:visible;opacity:0.65;" width="1490" height="168" xlink:href="4F9E8115558513BE.html"  transform="matrix(0.24 0 0 0.24 36.5398 15.5603)">
	</image>
	<g>
		<g>
			<path class="st4" d="M52.9,46.3h-5.8V23.9h-7.4v-4.8h20.6v4.8h-7.4V46.3z"/>
			<path class="st4" d="M86.7,19.1v17.6c0,2-0.5,3.8-1.4,5.3s-2.2,2.7-3.9,3.5c-1.7,0.8-3.7,1.2-6,1.2c-3.5,0-6.2-0.9-8.2-2.7
				s-2.9-4.3-2.9-7.4V19.1H70v16.7c0,2.1,0.4,3.6,1.3,4.6c0.8,1,2.2,1.5,4.2,1.5c1.9,0,3.3-0.5,4.1-1.5s1.3-2.5,1.3-4.7V19.1H86.7z"
				/>
			<path class="st4" d="M128,32.7c0,4.5-1.1,8-3.4,10.4c-2.2,2.4-5.4,3.6-9.6,3.6s-7.4-1.2-9.6-3.6c-2.2-2.4-3.4-5.9-3.4-10.4
				c0-4.5,1.1-8,3.4-10.4c2.2-2.4,5.5-3.6,9.6-3.6c4.2,0,7.4,1.2,9.6,3.6C126.9,24.7,128,28.1,128,32.7z M108.1,32.7
				c0,3,0.6,5.3,1.7,6.9s2.9,2.3,5.2,2.3c4.6,0,6.9-3.1,6.9-9.2c0-6.1-2.3-9.2-6.9-9.2c-2.3,0-4,0.8-5.2,2.3
				C108.7,27.3,108.1,29.6,108.1,32.7z"/>
			<path class="st4" d="M152.5,27.6c0,2.9-0.9,5.2-2.8,6.7c-1.8,1.6-4.4,2.3-7.8,2.3h-2.5v9.7h-5.8V19.1h8.7c3.3,0,5.8,0.7,7.5,2.1
				C151.6,22.6,152.5,24.7,152.5,27.6z M139.4,31.9h1.9c1.8,0,3.1-0.4,4-1.1c0.9-0.7,1.3-1.7,1.3-3.1c0-1.4-0.4-2.4-1.1-3
				c-0.7-0.6-1.9-1-3.5-1h-2.6V31.9z"/>
			<path class="st4" d="M182.4,32.7c0,4.5-1.1,8-3.4,10.4c-2.2,2.4-5.4,3.6-9.6,3.6s-7.4-1.2-9.6-3.6c-2.2-2.4-3.4-5.9-3.4-10.4
				c0-4.5,1.1-8,3.4-10.4c2.2-2.4,5.5-3.6,9.6-3.6c4.2,0,7.4,1.2,9.6,3.6C181.3,24.7,182.4,28.1,182.4,32.7z M162.5,32.7
				c0,3,0.6,5.3,1.7,6.9s2.9,2.3,5.2,2.3c4.6,0,6.9-3.1,6.9-9.2c0-6.1-2.3-9.2-6.9-9.2c-2.3,0-4,0.8-5.2,2.3
				C163.1,27.3,162.5,29.6,162.5,32.7z"/>
			<path class="st4" d="M193.8,35.9v10.5H188V19.1h7.9c3.7,0,6.4,0.7,8.2,2c1.8,1.3,2.7,3.4,2.7,6.1c0,1.6-0.4,3-1.3,4.3
				c-0.9,1.2-2.1,2.2-3.7,2.9c4.1,6.1,6.8,10.1,8,11.9h-6.4l-6.5-10.5H193.8z M193.8,31.2h1.9c1.8,0,3.2-0.3,4-0.9
				c0.9-0.6,1.3-1.6,1.3-2.9c0-1.3-0.4-2.2-1.3-2.8s-2.3-0.8-4.1-0.8h-1.8V31.2z"/>
			<path class="st4" d="M223.7,46.3H218V23.9h-7.4v-4.8h20.6v4.8h-7.4V46.3z"/>
			<path class="st4" d="M257.5,19.1v17.6c0,2-0.5,3.8-1.4,5.3s-2.2,2.7-3.9,3.5c-1.7,0.8-3.7,1.2-6,1.2c-3.5,0-6.2-0.9-8.2-2.7
				s-2.9-4.3-2.9-7.4V19.1h5.8v16.7c0,2.1,0.4,3.6,1.3,4.6c0.8,1,2.2,1.5,4.2,1.5c1.9,0,3.3-0.5,4.1-1.5s1.3-2.5,1.3-4.7V19.1H257.5
				z"/>
			<path class="st4" d="M288.4,46.3H281l-11.9-20.6H269c0.2,3.6,0.4,6.2,0.4,7.8v12.8h-5.2V19.1h7.3l11.8,20.4h0.1
				c-0.2-3.5-0.3-6-0.3-7.5V19.1h5.2V46.3z"/>
			<path class="st4" d="M295.2,46.3V19.1h5.8v27.3H295.2z"/>
			<path class="st4" d="M330.5,32.4c0,4.5-1.3,7.9-3.8,10.3s-6.2,3.6-11.1,3.6h-7.7V19.1h8.6c4.5,0,7.9,1.2,10.4,3.5
				C329.3,24.9,330.5,28.2,330.5,32.4z M324.5,32.6c0-5.9-2.6-8.8-7.8-8.8h-3.1v17.8h2.5C321.7,41.6,324.5,38.6,324.5,32.6z"/>
			<path class="st4" d="M352.8,46.3l-2-6.5h-9.9l-2,6.5h-6.2l9.6-27.4h7.1l9.7,27.4H352.8z M349.5,35c-1.8-5.9-2.9-9.2-3.1-10
				s-0.4-1.4-0.5-1.8c-0.4,1.6-1.6,5.5-3.5,11.8H349.5z"/>
			<path class="st4" d="M385.1,32.4c0,4.5-1.3,7.9-3.8,10.3s-6.2,3.6-11.1,3.6h-7.7V19.1h8.6c4.5,0,7.9,1.2,10.4,3.5
				C383.9,24.9,385.1,28.2,385.1,32.4z M379.1,32.6c0-5.9-2.6-8.8-7.8-8.8h-3.1v17.8h2.5C376.3,41.6,379.1,38.6,379.1,32.6z"/>
		</g>
	</g>
</g>
<g>
	
		<image style="overflow:visible;opacity:0.65;" width="1474" height="255" xlink:href="4F9E8115558513C2.html"  transform="matrix(0.24 0 0 0.24 38.4598 59.2403)">
	</image>
	<g>
		<g>
			<path class="st5" d="M83.9,81.1c0,6.1-1.1,11.3-3.2,15.8s-5.3,7.9-9.3,10.2c-4.1,2.4-8.9,3.5-14.5,3.5H41.5l10-47.5H65
				c6,0,10.6,1.6,13.9,4.7C82.2,71,83.9,75.4,83.9,81.1z M58.7,100.1c2.4,0,4.5-0.8,6.4-2.3c1.9-1.5,3.3-3.7,4.4-6.5
				c1-2.8,1.6-6,1.6-9.6c0-2.7-0.6-4.8-1.8-6.2s-2.8-2.1-4.9-2.1H62l-5.6,26.6H58.7z"/>
			<path class="st5" d="M115.2,110.7H87l10-47.5h28.2l-2.1,10.3h-15.5l-1.5,7.5h14.4l-2.3,10.3h-14.4l-1.9,9h15.5L115.2,110.7z"/>
			<path class="st5" d="M169.3,73c-2.3,0-4.5,0.8-6.3,2.5c-1.9,1.7-3.4,4-4.4,7c-1.1,3-1.6,6.2-1.6,9.7c0,2.9,0.6,5.1,1.8,6.5
				c1.2,1.4,3,2.1,5.2,2.1c1.8,0,3.6-0.2,5.5-0.7c1.8-0.4,4-1.2,6.5-2.3v10.5c-4.4,2-9.2,2.9-14.3,2.9c-5.6,0-10-1.6-13-4.8
				s-4.6-7.8-4.6-13.7c0-5.8,1.1-11.1,3.3-15.9c2.2-4.8,5.2-8.4,9-10.9c3.8-2.4,8.1-3.7,13-3.7c5.7,0,11,1.4,15.6,4.3l-4.8,9.9
				c-2-1.2-3.9-2.1-5.6-2.7C172.9,73.3,171.1,73,169.3,73z"/>
			<path class="st5" d="M200,93.4l-3.7,17.3h-12.7l10-47.5h12.6c5.5,0,9.6,1.1,12.5,3.3c2.9,2.2,4.4,5.4,4.4,9.8
				c0,3.4-0.8,6.3-2.3,8.8c-1.5,2.5-3.8,4.4-6.9,5.8l7.3,16.8l1.3,3.1h-13.8l-6.3-17.3H200z M202.1,83.7h1.7c2.1,0,3.7-0.6,4.9-1.8
				c1.2-1.2,1.8-2.8,1.8-5c0-1.3-0.4-2.4-1.1-3.1c-0.7-0.7-1.8-1.1-3.3-1.1h-1.7L202.1,83.7z"/>
			<path class="st5" d="M255.1,110.7h-28.2l10-47.5h28.2l-2.1,10.3h-15.5l-1.5,7.5h14.4l-2.3,10.3h-14.4l-1.9,9h15.5L255.1,110.7z"
				/>
			<path class="st5" d="M291.9,73c-2.3,0-4.5,0.8-6.3,2.5c-1.9,1.7-3.4,4-4.4,7c-1.1,3-1.6,6.2-1.6,9.7c0,2.9,0.6,5.1,1.8,6.5
				c1.2,1.4,3,2.1,5.2,2.1c1.8,0,3.6-0.2,5.5-0.7c1.8-0.4,4-1.2,6.5-2.3v10.5c-4.4,2-9.2,2.9-14.3,2.9c-5.6,0-10-1.6-13-4.8
				s-4.6-7.8-4.6-13.7c0-5.8,1.1-11.1,3.3-15.9c2.2-4.8,5.2-8.4,9-10.9c3.8-2.4,8.1-3.7,13-3.7c5.7,0,11,1.4,15.6,4.3l-4.8,9.9
				c-2-1.2-3.9-2.1-5.6-2.7C295.5,73.3,293.7,73,291.9,73z"/>
			<path class="st5" d="M334.5,110.7h-28.2l10-47.5h28.2l-2.1,10.3h-15.5l-1.5,7.5h14.4l-2.3,10.3H323l-1.9,9h15.5L334.5,110.7z"/>
			<path class="st5" d="M360,93.4l-3.7,17.3h-12.7l10-47.5h12.6c5.5,0,9.6,1.1,12.5,3.3c2.9,2.2,4.4,5.4,4.4,9.8
				c0,3.4-0.8,6.3-2.3,8.8c-1.5,2.5-3.8,4.4-6.9,5.8l7.3,16.8l1.3,3.1h-13.8l-6.3-17.3H360z M362.1,83.7h1.7c2.1,0,3.7-0.6,4.9-1.8
				c1.2-1.2,1.8-2.8,1.8-5c0-1.3-0.4-2.4-1.1-3.1c-0.7-0.7-1.8-1.1-3.3-1.1h-1.7L362.1,83.7z"/>
		</g>
	</g>
</g>
</svg>
