<?xml version="1.0" encoding="utf-8"?>
<!-- Generator: Adobe Illustrator 24.1.0, SVG Export Plug-In . SVG Version: 6.00 Build 0)  -->
<svg version="1.1" id="Capa_1" xmlns="http://www.w3.org/2000/svg" xmlns:xlink="http://www.w3.org/1999/xlink" x="0px" y="0px"
	 viewBox="0 0 104.7 48.4" style="enable-background:new 0 0 104.7 48.4;" xml:space="preserve">
<style type="text/css">
	.st0{fill:#FFFFFF;}
	.st1{fill:#085B31;}
	.st2{fill:#138F42;}
</style>
<path class="st0" d="M80.5,48.4H0V0h80.5c13.4,0,24.2,10.8,24.2,24.2v0C104.7,37.6,93.9,48.4,80.5,48.4z"/>
<path class="st1" d="M73.6,28.7c0,0.7,0.5,1.2,1.2,1.2c0.7,0,1.2-0.5,1.2-1.2c0-0.7-0.5-1.2-1.2-1.2C74.2,27.6,73.6,28.1,73.6,28.7
	L73.6,28.7L73.6,28.7z M74.8,26.1c2,0,2.9,1.3,2.9,2.6c0,1.3-1,2.6-2.9,2.6c-2,0-3-1.3-3-2.7C71.8,27.4,72.8,26.1,74.8,26.1z"/>
<path class="st1" d="M65.8,26.2h1.4l0.3,0.6l0,0c0.5-0.5,0.9-0.7,1.6-0.7c1.2,0,1.9,0.7,1.9,1.9v3.2h-1.8v-2.6
	c0-0.6-0.1-1.2-0.8-1.2c-0.6,0-0.9,0.4-0.9,1v2.8h-1.8V26.2z"/>
<path class="st1" d="M49.9,31.3l1.2-6.8h2l1.3,3.2l0.1,0.4l0.1-0.4l1.3-3.2h2l1.2,6.8h-1.9l-0.6-4.2l-0.1,0.4l-1.6,3.8h-0.8
	l-1.6-3.8l-0.1-0.4l-0.6,4.2H49.9z"/>
<path class="st1" d="M90.4,29.5v-0.4l-0.4,0c-0.6,0-1,0.2-1,0.6c0,0.3,0.3,0.5,0.5,0.5C90,30.2,90.4,29.9,90.4,29.5z M90.9,31.3
	l-0.3-0.6h0c-0.5,0.6-1.1,0.7-1.8,0.7c-1,0-1.5-0.7-1.5-1.6c0-1.3,1.2-1.6,2.3-1.6c0.3,0,0.6,0,0.8,0c0-0.4-0.2-0.7-0.6-0.7
	c-0.4,0-0.8,0.1-1.4,0.4l-0.5-1.1c0.6-0.3,1.3-0.4,2.2-0.4c1.2,0,2,0.6,2,1.8v3.3L90.9,31.3z"/>
<path class="st1" d="M84.9,31.4c-1.7,0-2.6-1-2.6-2.6c0-1.7,1-2.6,2.7-2.6c0.6,0,1.2,0.1,1.7,0.4l-0.5,1.3c-0.2-0.1-0.4-0.2-0.6-0.2
	c-0.2-0.1-0.4-0.1-0.6-0.1c-1.2,0-1.3,2.5,0,2.5c0.5,0,1-0.1,1.5-0.4v1.4C86.1,31.2,85.5,31.4,84.9,31.4z"/>
<path class="st1" d="M81.6,26.1c0.2,0,0.4,0,0.5,0.1L82,27.8c-0.1,0-0.3-0.1-0.6-0.1c-0.4,0-0.7,0.1-0.8,0.3
	c-0.2,0.2-0.3,0.4-0.3,0.7v2.5h-1.8v-5h1.3l0.3,0.8h0.1C80.5,26.5,81,26.1,81.6,26.1z"/>
<path class="st1" d="M63.4,28c-0.1-0.5-0.5-0.8-1-0.8c-0.5,0-0.9,0.3-1,0.8H63.4z M65.1,29.1h-3.7c0,0.7,0.4,1.1,1.1,1.1
	c0.4,0,0.7-0.2,0.9-0.5H65c-0.3,1.2-1.4,1.7-2.5,1.7c-1.6,0-2.9-0.9-2.9-2.6c0-1.7,1.2-2.7,2.9-2.7C64.2,26.1,65.1,27.4,65.1,29.1z"
	/>
<path class="st2" d="M57.3,21.6c0.2,0,0.4,0.1,0.5,0.2c0.1,0.1,0.2,0.3,0.2,0.5c0,0.2-0.1,0.4-0.2,0.5c-0.1,0.1-0.3,0.2-0.5,0.2
	h-3.1c-0.2,0-0.3-0.1-0.5-0.2c-0.1-0.1-0.2-0.3-0.2-0.5V17c0-0.2,0.1-0.3,0.2-0.5c0.1-0.1,0.3-0.2,0.5-0.2h3.1
	c0.2,0,0.4,0.1,0.5,0.2c0.1,0.1,0.2,0.3,0.2,0.5c0,0.2-0.1,0.4-0.2,0.5c-0.1,0.1-0.3,0.2-0.5,0.2H55v1.2h1.6c0.2,0,0.4,0.1,0.5,0.2
	s0.2,0.3,0.2,0.5s-0.1,0.4-0.2,0.5s-0.3,0.2-0.5,0.2H55v1.3L57.3,21.6L57.3,21.6z"/>
<path class="st2" d="M62.2,17.9c0.2,0,0.4,0.1,0.5,0.2c0.1,0.1,0.2,0.3,0.2,0.5c0,0.2-0.1,0.3-0.2,0.5c-0.1,0.1-0.3,0.2-0.5,0.2
	h-1.8c-0.1,0-0.2,0-0.2,0.1c-0.1,0.1-0.1,0.1-0.1,0.2c0,0.1,0,0.2,0.1,0.2c0.1,0.1,0.1,0.1,0.2,0.1h1.2c0.2,0,0.4,0,0.6,0.1
	c0.2,0.1,0.4,0.2,0.5,0.4c0.1,0.2,0.2,0.3,0.3,0.5c0.1,0.2,0.1,0.4,0.1,0.6c0,0.2,0,0.4-0.1,0.7c-0.1,0.2-0.2,0.4-0.4,0.5
	c-0.1,0.1-0.3,0.2-0.5,0.3C61.9,23,61.7,23,61.5,23h-2c-0.2,0-0.3-0.1-0.5-0.2c-0.1-0.1-0.2-0.3-0.2-0.5c0-0.2,0.1-0.3,0.2-0.5
	c0.1-0.1,0.3-0.2,0.5-0.2h2c0.2,0,0.3-0.1,0.3-0.3c0-0.2-0.1-0.3-0.3-0.3h-1.2c-0.2,0-0.4,0-0.6-0.1c-0.2-0.1-0.4-0.2-0.5-0.4
	c-0.1-0.2-0.2-0.3-0.3-0.5c-0.1-0.2-0.1-0.4-0.1-0.6s0-0.4,0.1-0.6c0.1-0.2,0.2-0.4,0.3-0.5c0.1-0.1,0.3-0.3,0.5-0.4
	c0.2-0.1,0.4-0.1,0.6-0.1H62.2z"/>
<path class="st2" d="M66.3,17.9c0.7,0,1.3,0.2,1.8,0.7c0.1,0.1,0.2,0.3,0.2,0.5c0,0.2-0.1,0.3-0.2,0.5c-0.1,0.1-0.3,0.2-0.5,0.2
	c-0.2,0-0.4-0.1-0.5-0.2c-0.2-0.2-0.5-0.3-0.8-0.3c-0.2,0-0.3,0-0.5,0.1c-0.1,0.1-0.3,0.2-0.4,0.3c-0.1,0.1-0.2,0.2-0.3,0.4
	c-0.1,0.1-0.1,0.3-0.1,0.4c0,0.2,0,0.3,0.1,0.5c0.1,0.1,0.2,0.3,0.3,0.4c0.1,0.1,0.2,0.2,0.4,0.3c0.1,0.1,0.3,0.1,0.5,0.1
	c0.3,0,0.6-0.1,0.8-0.3c0.1-0.1,0.3-0.2,0.5-0.2c0.2,0,0.4,0.1,0.5,0.2c0.1,0.1,0.1,0.1,0.1,0.2c0,0.1,0.1,0.2,0.1,0.2
	c0,0.1,0,0.2,0,0.2c0,0.1-0.1,0.2-0.1,0.2c-0.2,0.2-0.5,0.4-0.8,0.6c-0.3,0.1-0.6,0.2-1,0.2c-0.4,0-0.7-0.1-1-0.2
	c-0.3-0.1-0.6-0.3-0.8-0.6c-0.2-0.2-0.4-0.5-0.6-0.8c-0.1-0.3-0.2-0.6-0.2-1c0-0.3,0.1-0.7,0.2-1c0.1-0.3,0.3-0.6,0.6-0.8
	c0.2-0.2,0.5-0.4,0.8-0.6C65.6,18,65.9,17.9,66.3,17.9z"/>
<path class="st2" d="M69.6,17.9c0.2,0,0.3,0.1,0.5,0.2c0.1,0.1,0.2,0.3,0.2,0.5v1.9c0,0.2,0,0.3,0.1,0.5c0.1,0.1,0.1,0.3,0.3,0.4
	c0.1,0.1,0.2,0.2,0.4,0.3c0.1,0.1,0.3,0.1,0.5,0.1c0.2,0,0.3,0,0.5-0.1c0.1-0.1,0.3-0.1,0.4-0.2c0.1-0.1,0.2-0.2,0.3-0.4
	c0.1-0.1,0.1-0.3,0.1-0.5v-1.9c0-0.2,0.1-0.3,0.2-0.5c0.1-0.1,0.3-0.2,0.5-0.2c0.2,0,0.4,0.1,0.5,0.2c0.1,0.1,0.2,0.3,0.2,0.5v1.9
	c0,0.4-0.1,0.7-0.2,1c-0.1,0.3-0.3,0.6-0.6,0.8c-0.2,0.2-0.5,0.4-0.8,0.5c-0.3,0.1-0.7,0.2-1,0.2c-0.3,0-0.7,0-1-0.2
	c-0.3-0.1-0.6-0.3-0.8-0.5c-0.2-0.2-0.4-0.5-0.6-0.8c-0.1-0.3-0.2-0.6-0.2-1v-1.9c0-0.2,0.1-0.3,0.2-0.5
	C69.2,18,69.4,17.9,69.6,17.9z"/>
<path class="st2" d="M77.2,17.9c0.3,0,0.7,0.1,1,0.2c0.3,0.1,0.6,0.3,0.8,0.6c0.2,0.2,0.4,0.5,0.6,0.8c0.1,0.3,0.2,0.6,0.2,1
	c0,0.2-0.1,0.3-0.2,0.4C79.5,21,79.3,21,79.1,21h-2.8c0.2,0.4,0.6,0.6,1,0.6c0.1,0,0.2,0,0.3,0c0.1,0,0.1,0,0.2-0.1
	c0.1,0,0.1-0.1,0.2-0.1c0.1,0,0.1,0,0.2,0c0.1,0,0.3,0,0.4,0.1c0.1,0.1,0.2,0.2,0.2,0.3c0.1,0.1,0.1,0.2,0.1,0.4
	c0,0.1-0.1,0.3-0.2,0.4c-0.2,0.2-0.4,0.3-0.6,0.3S77.5,23,77.2,23c-0.3,0-0.7,0-1-0.2c-0.3-0.1-0.6-0.3-0.8-0.6
	c-0.2-0.2-0.4-0.5-0.6-0.8c-0.1-0.3-0.2-0.6-0.2-1c0-0.3,0.1-0.6,0.2-1c0.1-0.3,0.3-0.6,0.6-0.8c0.2-0.2,0.5-0.4,0.8-0.6
	C76.6,18,76.9,17.9,77.2,17.9z M78.2,19.9c-0.1-0.2-0.3-0.4-0.4-0.5c-0.2-0.1-0.3-0.1-0.5-0.1c-0.2,0-0.4,0-0.6,0.1
	c-0.2,0.1-0.3,0.2-0.4,0.5H78.2z"/>
<path class="st2" d="M81.1,16.3c0.2,0,0.4,0.1,0.5,0.2c0.1,0.1,0.2,0.3,0.2,0.5v4.2c0,0.1,0,0.3,0.1,0.4c0.1,0.1,0.2,0.1,0.4,0.1
	c0.2,0,0.3,0.1,0.5,0.2c0.1,0.1,0.2,0.3,0.2,0.5c0,0.2-0.1,0.3-0.2,0.4c-0.1,0.1-0.3,0.2-0.5,0.2h-0.1c-0.2,0-0.5-0.1-0.7-0.2
	c-0.2-0.1-0.4-0.2-0.6-0.4c-0.2-0.2-0.3-0.4-0.4-0.6c-0.1-0.2-0.1-0.5-0.1-0.7v-4.2c0-0.2,0.1-0.3,0.2-0.5
	C80.7,16.4,80.9,16.3,81.1,16.3z"/>
<path class="st2" d="M86.3,17.9c0.3,0,0.6,0.1,0.9,0.3c0.3,0.1,0.5,0.3,0.7,0.6c0.2,0.2,0.4,0.5,0.5,0.8c0.1,0.3,0.2,0.6,0.2,0.9
	v1.9c0,0.2-0.1,0.4-0.2,0.5S88,23,87.8,23c-0.2,0-0.5-0.1-0.6-0.3c0,0-0.1,0-0.1,0c0,0-0.1,0-0.1,0c-0.2,0.1-0.3,0.1-0.5,0.2
	C86.4,23,86.2,23,86,23c-0.5,0-1-0.1-1.4-0.4c-0.4-0.3-0.7-0.7-0.9-1.1c-0.1-0.2-0.1-0.3-0.2-0.5c0-0.2-0.1-0.3-0.1-0.5
	c0-0.2,0-0.4,0.1-0.5c0-0.2,0.1-0.3,0.2-0.5c0.2-0.5,0.5-0.8,0.9-1.1c0.4-0.3,0.9-0.4,1.4-0.4c0.1,0,0.1,0,0.2,0
	C86.2,17.9,86.2,17.9,86.3,17.9z M85.9,21.6c0.2,0,0.3,0,0.5-0.1c0.1-0.1,0.3-0.1,0.4-0.2s0.2-0.2,0.3-0.4c0.1-0.1,0.1-0.3,0.1-0.5
	c0-0.2,0-0.3-0.1-0.4c-0.1-0.1-0.2-0.3-0.3-0.4c-0.1-0.1-0.2-0.2-0.4-0.3c-0.1-0.1-0.3-0.1-0.5-0.1c-0.2,0-0.3,0-0.5,0.1
	c-0.1,0.1-0.3,0.2-0.4,0.3c-0.1,0.1-0.2,0.2-0.3,0.4c-0.1,0.1-0.1,0.3-0.1,0.4c0,0.2,0,0.3,0.1,0.5c0.1,0.1,0.2,0.3,0.3,0.4
	c0.1,0.1,0.2,0.2,0.4,0.3C85.6,21.6,85.8,21.6,85.9,21.6z"/>
<path class="st1" d="M28.5,42.9c11.2,0,20.3-9,20.3-20s-9.1-20-20.3-20c-11.2,0-20.3,9-20.3,20S17.2,42.9,28.5,42.9z"/>
<path class="st0" d="M43.1,33.5H31.8l-4.7-5.2C27,28.2,26.4,27.5,26,26c-0.5-2-0.5-4.4,0-7.4l0.2-0.8l0.8,0.2c0.1,0,1.8,0.4,3.4,2
	c1.5,1.5,3.1,4.3,2.6,9.3l-1.6-0.1c0.3-3.5-0.5-6.3-2.2-8.1c-0.7-0.7-1.3-1.1-1.8-1.3c-0.4,2.7-0.2,4.5,0.1,5.6
	c0.3,1.2,0.7,1.7,0.8,1.8l0,0l4.2,4.7h9V21.7L30.9,9.8c-2.1-1.3-3.6-0.2-3.8,0L15.4,22.2v10.5h-1.6V21.6L26,8.6l0,0
	c0.1-0.1,0.7-0.6,1.7-0.8c1-0.2,2.4-0.3,4.1,0.8L32,8.6l0.1,0.1l11.1,12.4V33.5z"/>
</svg>
