<svg width="108" height="80" viewBox="0 0 108 80" fill="none" xmlns="http://www.w3.org/2000/svg">
<g clip-path="url(#clip0)">
<path d="M22.6519 28.7906C19.5148 26.6129 17.4553 22.974 17.4553 18.8607C17.4553 12.2109 22.838 6.8009 29.4541 6.8009C36.0703 6.8009 41.4528 12.2109 41.4528 18.8607C41.4528 22.9742 39.3933 26.6131 36.2562 28.7906C39.0594 29.9212 41.4091 31.947 42.9489 34.512C44.0478 32.3332 45.8538 30.5695 48.0633 29.524C45.853 27.7615 44.4331 25.0395 44.4331 21.9904C44.4331 16.6895 48.7248 12.3768 54 12.3768C59.2752 12.3768 63.5667 16.6895 63.5667 21.9904C63.5667 25.0395 62.1469 27.7615 59.9366 29.524C62.1461 30.5695 63.952 32.3332 65.0509 34.512C66.5909 31.9472 68.9405 29.9214 71.7436 28.7906C68.6066 26.6129 66.547 22.974 66.547 18.8607C66.547 12.2109 71.9297 6.8009 78.5458 6.8009C85.1619 6.8009 90.5445 12.2109 90.5445 18.8607C90.5445 22.9742 88.485 26.6131 85.348 28.7906C90.415 30.8343 94 35.8028 94 41.5928V49.3143C94 50.1773 93.3005 50.8768 92.4375 50.8768H72.0636C72.1158 51.3522 72.1427 51.8368 72.1427 52.3293C72.1427 64.5437 55.3875 72.7045 54.6742 73.0459C54.4634 73.1467 54.233 73.199 53.9997 73.199C53.9841 73.199 53.9684 73.1989 53.9528 73.1984L53.8791 73.1962C53.6606 73.1897 53.4459 73.1373 53.2489 73.0426C52.5387 72.7012 35.8575 64.5422 35.8575 52.3295C35.8575 51.837 35.8844 51.3523 35.9366 50.877H35.4844C34.6214 50.877 33.9219 50.1775 33.9219 49.3145C33.9219 48.4515 34.6214 47.752 35.4844 47.752H36.6877C37.6742 45.1706 39.4805 43.0673 41.7831 41.7845V41.5929C41.7831 35.7082 36.9955 30.9206 31.1108 30.9206H27.7972C21.9125 30.9206 17.1248 35.7082 17.1248 41.5929V47.752H21.3572C22.2202 47.752 22.9197 48.4515 22.9197 49.3145C22.9197 50.1775 22.2202 50.877 21.3572 50.877H15.5625C14.6995 50.877 14 50.1775 14 49.3145V41.5929C14 35.8028 17.585 30.8343 22.6519 28.7906ZM54 15.5017C50.448 15.5017 47.5581 18.4125 47.5581 21.9903C47.5581 25.5681 50.448 28.4789 54 28.4789C57.552 28.4789 60.4417 25.5681 60.4417 21.9903C60.4417 18.4125 57.552 15.5017 54 15.5017ZM55.2706 31.6039H52.7292C48.4166 31.6039 44.908 35.1125 44.908 39.4251V40.6309C45.6153 40.4882 46.3481 40.4137 47.1005 40.4137C49.7072 40.4137 52.065 41.2901 54 42.964C55.5486 41.6272 57.8063 40.4137 60.8991 40.4137C61.6514 40.4137 62.3842 40.4882 63.0916 40.6309V39.4251C63.0919 35.1125 59.5833 31.6039 55.2706 31.6039ZM87.4197 18.8607C87.4197 13.934 83.4389 9.9259 78.5459 9.9259C73.653 9.9259 69.6722 13.934 69.6722 18.8607C69.6722 23.7875 73.653 27.7956 78.5459 27.7956C83.4391 27.7956 87.4197 23.7873 87.4197 18.8607ZM90.875 47.7518V41.5928C90.875 35.7081 86.0873 30.9204 80.2027 30.9204H76.8891C71.0044 30.9204 66.2167 35.7081 66.2167 41.5928V41.7843C68.5194 43.0672 70.3256 45.1704 71.3122 47.7518H90.875ZM38.9823 52.3293C38.9823 61.3756 51.0333 68.3382 53.9661 69.8981C56.9173 68.335 69.0175 61.3715 69.0175 52.3293C69.0175 47.4 65.4516 43.5387 60.8992 43.5387C58.0788 43.5387 56.2313 44.9815 55.1783 46.1922C54.8775 46.5378 54.4398 46.7248 53.9797 46.7262C53.5245 46.7211 53.092 46.515 52.7991 46.1668C52.7847 46.1518 52.7706 46.1367 52.7567 46.1212C51.2366 44.4078 49.3334 43.5389 47.1005 43.5389C42.5484 43.5387 38.9823 47.4 38.9823 52.3293ZM38.3278 18.8607C38.3278 13.934 34.347 9.9259 29.4541 9.9259C24.5611 9.9259 20.5803 13.934 20.5803 18.8607C20.5803 23.7875 24.5611 27.7956 29.4541 27.7956C34.347 27.7956 38.3278 23.7873 38.3278 18.8607Z" fill="white"/>
<path d="M26.9502 48.7172C27.2019 48.1026 27.8411 47.7084 28.5035 47.7565C29.1525 47.8037 29.7139 48.2603 29.8931 48.8854C30.073 49.5128 29.8321 50.2036 29.3019 50.5845C28.78 50.9595 28.0594 50.9704 27.525 50.614C26.9125 50.2054 26.6672 49.3961 26.9502 48.7172Z" fill="white"/>
</g>
<path d="M107.271 51C107.655 51 107.976 50.6767 107.984 50.2598C107.984 50.2513 107.984 50.2513 107.984 50.2428C108.008 49.2049 108.024 47.2566 107.856 45.419C107.856 45.419 107.559 43.2496 106.854 42.084C106.06 40.6888 104.858 39.5828 103.423 38.9702C105.034 37.7877 106.092 35.8054 106.092 33.5594C106.084 29.9436 103.319 27 99.9279 27C96.5371 27 93.7715 29.9436 93.7715 33.5679C93.7715 35.8054 94.8297 37.7877 96.4409 38.9787C93.8357 40.0847 92 42.7901 92 45.9465V50.1492C92 50.6172 92.3607 51 92.8016 51H103.255H107.271ZM95.3747 33.5679C95.3747 30.888 97.4188 28.7015 99.9279 28.7015C102.437 28.7015 104.481 30.888 104.481 33.5679C104.481 36.2478 102.437 38.4342 99.9279 38.4342C97.4188 38.4342 95.3747 36.2478 95.3747 33.5679ZM93.6032 49.2985V45.9465C93.6032 42.7391 96.0561 40.1358 99.0782 40.1358H100.778C103.8 40.1358 105.836 42.0755 106.405 45.9635C106.405 45.9635 106.613 47.6905 106.477 49.2985H93.6032Z" fill="white"/>
<path d="M15.2705 51C15.6553 51 15.976 50.6767 15.984 50.2598C15.984 50.2513 15.984 50.2513 15.984 50.2428C16.008 49.2049 16.024 47.2566 15.8557 45.419C15.8557 45.419 15.5591 43.2496 14.8537 42.084C14.0601 40.6888 12.8577 39.5828 11.4228 38.9702C13.0341 37.7877 14.0922 35.8054 14.0922 33.5594C14.0842 29.9436 11.3186 27 7.92786 27C4.53707 27 1.77154 29.9436 1.77154 33.5679C1.77154 35.8054 2.82966 37.7877 4.44088 38.9787C1.83567 40.0847 0 42.7901 0 45.9465V50.1492C0 50.6172 0.360721 51 0.801603 51H11.2545H15.2705ZM3.37475 33.5679C3.37475 30.888 5.41884 28.7015 7.92786 28.7015C10.4369 28.7015 12.481 30.888 12.481 33.5679C12.481 36.2478 10.4369 38.4342 7.92786 38.4342C5.41884 38.4342 3.37475 36.2478 3.37475 33.5679ZM1.60321 49.2985V45.9465C1.60321 42.7391 4.05611 40.1358 7.07816 40.1358H8.77756C11.7996 40.1358 13.8357 42.0755 14.4048 45.9635C14.4048 45.9635 14.6132 47.6905 14.477 49.2985H1.60321Z" fill="white"/>
<defs>
<clipPath id="clip0">
<rect width="80" height="80" fill="white" transform="matrix(-1 0 0 1 94 0)"/>
</clipPath>
</defs>
</svg>
