<svg width="80" height="80" viewBox="0 0 80 80" fill="none" xmlns="http://www.w3.org/2000/svg">
<g clip-path="url(#clip0)">
<path d="M8.65188 28.7906C5.51485 26.6129 3.45531 22.974 3.45531 18.8607C3.45531 12.2109 8.83797 6.8009 15.4541 6.8009C22.0703 6.8009 27.4528 12.2109 27.4528 18.8607C27.4528 22.9742 25.3933 26.6131 22.2562 28.7906C25.0594 29.9212 27.4091 31.947 28.9489 34.512C30.0478 32.3332 31.8538 30.5695 34.0633 29.524C31.853 27.7615 30.4331 25.0395 30.4331 21.9904C30.4331 16.6895 34.7248 12.3768 40 12.3768C45.2752 12.3768 49.5667 16.6895 49.5667 21.9904C49.5667 25.0395 48.1469 27.7615 45.9366 29.524C48.1461 30.5695 49.952 32.3332 51.0509 34.512C52.5909 31.9472 54.9405 29.9214 57.7436 28.7906C54.6066 26.6129 52.547 22.974 52.547 18.8607C52.547 12.2109 57.9297 6.8009 64.5458 6.8009C71.1619 6.8009 76.5445 12.2109 76.5445 18.8607C76.5445 22.9742 74.485 26.6131 71.348 28.7906C76.415 30.8343 80 35.8028 80 41.5928V49.3143C80 50.1773 79.3005 50.8768 78.4375 50.8768H58.0636C58.1158 51.3522 58.1427 51.8368 58.1427 52.3293C58.1427 64.5437 41.3875 72.7045 40.6742 73.0459C40.4634 73.1467 40.233 73.199 39.9997 73.199C39.9841 73.199 39.9684 73.1989 39.9528 73.1984L39.8791 73.1962C39.6606 73.1897 39.4459 73.1373 39.2489 73.0426C38.5387 72.7012 21.8575 64.5422 21.8575 52.3295C21.8575 51.837 21.8844 51.3523 21.9366 50.877H21.4844C20.6214 50.877 19.9219 50.1775 19.9219 49.3145C19.9219 48.4515 20.6214 47.752 21.4844 47.752H22.6877C23.6742 45.1706 25.4805 43.0673 27.7831 41.7845V41.5929C27.7831 35.7082 22.9955 30.9206 17.1108 30.9206H13.7972C7.9125 30.9206 3.12484 35.7082 3.12484 41.5929V47.752H7.35719C8.22015 47.752 8.91969 48.4515 8.91969 49.3145C8.91969 50.1775 8.22015 50.877 7.35719 50.877H1.5625C0.699532 50.877 0 50.1775 0 49.3145V41.5929C0 35.8028 3.585 30.8343 8.65188 28.7906ZM40 15.5017C36.448 15.5017 33.5581 18.4125 33.5581 21.9903C33.5581 25.5681 36.448 28.4789 40 28.4789C43.552 28.4789 46.4417 25.5681 46.4417 21.9903C46.4417 18.4125 43.552 15.5017 40 15.5017ZM41.2706 31.6039H38.7292C34.4166 31.6039 30.908 35.1125 30.908 39.4251V40.6309C31.6153 40.4882 32.3481 40.4137 33.1005 40.4137C35.7072 40.4137 38.065 41.2901 40 42.964C41.5486 41.6272 43.8063 40.4137 46.8991 40.4137C47.6514 40.4137 48.3842 40.4882 49.0916 40.6309V39.4251C49.0919 35.1125 45.5833 31.6039 41.2706 31.6039ZM73.4197 18.8607C73.4197 13.934 69.4389 9.9259 64.5459 9.9259C59.653 9.9259 55.6722 13.934 55.6722 18.8607C55.6722 23.7875 59.653 27.7956 64.5459 27.7956C69.4391 27.7956 73.4197 23.7873 73.4197 18.8607ZM76.875 47.7518V41.5928C76.875 35.7081 72.0873 30.9204 66.2027 30.9204H62.8891C57.0044 30.9204 52.2167 35.7081 52.2167 41.5928V41.7843C54.5194 43.0672 56.3256 45.1704 57.3122 47.7518H76.875ZM24.9823 52.3293C24.9823 61.3756 37.0333 68.3382 39.9661 69.8981C42.9173 68.335 55.0175 61.3715 55.0175 52.3293C55.0175 47.4 51.4516 43.5387 46.8992 43.5387C44.0788 43.5387 42.2313 44.9815 41.1783 46.1922C40.8775 46.5378 40.4398 46.7248 39.9797 46.7262C39.5245 46.7211 39.092 46.515 38.7991 46.1668C38.7847 46.1518 38.7706 46.1367 38.7567 46.1212C37.2366 44.4078 35.3334 43.5389 33.1005 43.5389C28.5484 43.5387 24.9823 47.4 24.9823 52.3293ZM24.3278 18.8607C24.3278 13.934 20.347 9.9259 15.4541 9.9259C10.5611 9.9259 6.58031 13.934 6.58031 18.8607C6.58031 23.7875 10.5611 27.7956 15.4541 27.7956C20.347 27.7956 24.3278 23.7873 24.3278 18.8607Z" fill="white"/>
<path d="M12.9502 48.7172C13.2019 48.1026 13.8411 47.7084 14.5035 47.7565C15.1525 47.8037 15.7139 48.2603 15.8931 48.8854C16.073 49.5128 15.8321 50.2036 15.3019 50.5845C14.78 50.9595 14.0594 50.9704 13.525 50.614C12.9125 50.2054 12.6672 49.3961 12.9502 48.7172Z" fill="white"/>
</g>
<defs>
<clipPath id="clip0">
<rect width="80" height="80" fill="white" transform="matrix(-1 0 0 1 80 0)"/>
</clipPath>
</defs>
</svg>
