<?xml version="1.0" encoding="utf-8"?>
<!-- Generator: Adobe Illustrator 24.1.0, SVG Export Plug-In . SVG Version: 6.00 Build 0)  -->
<svg version="1.1" id="Capa_1" xmlns="http://www.w3.org/2000/svg" xmlns:xlink="http://www.w3.org/1999/xlink" x="0px" y="0px"
	 viewBox="0 0 1918.3 960" style="enable-background:new 0 0 1918.3 960;" xml:space="preserve">
<style type="text/css">
	.st0{fill:#333333;}
	.st1{fill:#829F0F;}
	.st2{fill:#171717;}
	.st3{fill:#E6E6E6;}
	.st4{fill:#9E9E9E;}
	.st5{fill:#FFFFFF;}
	.st6{fill:#6B3BFB;}
	.st7{fill:none;stroke:#A5E671;stroke-miterlimit:10;}
	.st8{fill:#A5E671;}
	.st9{fill:#8ACC56;}
	.st10{fill:#7A5B32;}
	.st11{fill:#FFDA1F;}
	.st12{fill:#FCB57E;}
	.st13{fill:#FCA562;}
	.st14{fill:#F2F2F2;}
	.st15{fill:#FFB81F;}
	.st16{fill:none;}
	.st17{fill:#4BBFCC;}
	.st18{fill:#FC9547;}
	.st19{fill:#27AE60;}
	.st20{fill:#C55BE3;}
	.st21{fill:none;stroke:#5E5566;stroke-width:0.5;stroke-miterlimit:10;}
	.st22{fill:none;stroke:#E6CCD1;stroke-width:0.5;stroke-miterlimit:10;}
	.st23{opacity:0.3;fill:#333333;enable-background:new    ;}
	.st24{fill:#A87645;}
	.st25{opacity:0.2;fill:#333333;enable-background:new    ;}
	.st26{fill:#3E9EA8;}
	.st27{fill:#F8E7A9;}
	.st28{fill:#8C6239;}
	.st29{fill:#FAD16E;}
	.st30{fill:#4D4D4D;}
</style>
<path class="st0" d="M0,667.7V960h1857.9c33.6,0,62.3,0,62.3,0l1-292.3H0z"/>
<path class="st1" d="M1642,167h-290.9v395.5H1642V167z"/>
<path class="st1" d="M1284.1,167H993.2v395.5h290.9V167z"/>
<path class="st2" d="M1518.7,783.5c112.5,0,203.8-9.5,203.8-21.3c0-11.8-91.2-21.3-203.8-21.3s-203.8,9.5-203.8,21.3
	C1314.9,774,1406.1,783.5,1518.7,783.5z"/>
<path class="st3" d="M1793.1,639.2h-554.1c-9.4,0-16.8-7.6-16.8-16.7V265.6c0-9.4,7.6-16.7,16.8-16.7h553.8
	c9.4,0,16.8,7.6,16.8,16.7v356.8C1809.9,631.6,1802.3,639.2,1793.1,639.2z"/>
<path class="st4" d="M1809.9,585.9h-587.6V263.5c0-8.2,6.7-14.6,14.6-14.6h558.3c8.2,0,14.6,6.7,14.6,14.6V585.9z"/>
<path class="st4" d="M1529.3,616.7h-23.5c-3.7,0-6.7-3-6.7-6.7c0-3.7,3-6.7,6.7-6.7h23.5c3.7,0,6.7,3,6.7,6.7
	C1536,613.6,1533,616.7,1529.3,616.7z"/>
<path class="st3" d="M1556.7,701.3v-62.1h-80.1v62.1c0,17.7-14.3,31.7-31.7,31.7v26.5h145.6V733h-2.1
	C1570.8,733,1556.7,718.7,1556.7,701.3z"/>
<path class="st4" d="M1556.7,639.2h-80.1v18h80.1V639.2z"/>
<path class="st5" d="M1786.4,270.2h-542.5v287.7h542.5V270.2z"/>
<path class="st6" d="M1382.8,268.4h-138.9v289.8h138.9V268.4z"/>
<path class="st7" d="M1604.9,558.2c0,0,0-69.1,39.6-84.9"/>
<path class="st8" d="M1618.3,498c0,0-9.7-69.4,48.1-69.4c57.9-0.3,72.8-0.3,72.8-0.3s-23.4,48.4-55.7,57.5
	C1651.2,494.6,1618.3,498,1618.3,498z"/>
<path class="st9" d="M1685,474.2c-18.6,4.6-28.9-3-46.3,6.1c-8.5,4.3-15.2,10.7-20.4,17.7c0,0,32.9-3.3,65.2-12.5
	c32.3-8.8,55.7-57.5,55.7-57.5s-0.6,0-1.8,0C1726.4,445.3,1711.2,468.1,1685,474.2z"/>
<path class="st9" d="M1624.1,479.4c0-7.9,2.7-15.8,7.9-22.2c2.7-3,6.1-5.5,10-7.3c0.9-0.3,1.8-0.9,2.7-1.2l3.1-0.6
	c2.1-0.6,4-0.6,5.8-1.2c7.9-1.2,15.5-2.4,23.4-3.3l11.6-1.5c4-0.3,7.9-0.9,11.9-1.2c-4,0.9-7.6,1.8-11.6,2.7l-11.6,2.4
	c-7.6,1.5-15.5,2.7-23.2,4.3c-4,0.6-7.6,1.2-11.3,2.4c-3.4,1.2-6.7,3.3-9.4,6.1c-2.7,2.7-4.9,6.1-6.4,9.4
	C1625.9,471.8,1625,475.4,1624.1,479.4z"/>
<path class="st7" d="M1605.8,544.8c0,0-5.5-74.9-46.6-90.1"/>
<path class="st8" d="M1586.9,477.9c0,0,5.2-69.7-52.7-66.1c-57.9,3.7-72.5,4.6-72.5,4.6s26.5,46.9,59.4,53.6
	C1553.7,476.6,1586.9,477.9,1586.9,477.9z"/>
<path class="st9" d="M1518.7,458.7c18.9,3.3,28.6-4.9,46.6,3c8.8,3.7,15.8,9.7,21.3,16.1c0,0-33.2-1.2-65.8-7.9
	c-32.9-6.7-59.4-53.6-59.4-53.6s0.6,0,1.8,0C1475.4,432.5,1492.5,454.1,1518.7,458.7z"/>
<path class="st9" d="M1579.6,459.6c-0.9-4-2.1-7.6-4.3-11c-1.8-3.3-4-6.4-7-9.1c-2.7-2.4-6.1-4.3-9.7-5.5c-3.7-1.2-7.3-1.5-11.3-1.8
	c-7.9-0.9-15.5-1.5-23.5-2.7l-11.6-1.5c-4-0.6-7.9-1.2-11.6-1.8c4,0,7.9,0.3,11.9,0.3l11.9,0.6c7.9,0.6,15.8,1.2,23.5,1.8
	c1.8,0.3,4,0.3,5.8,0.6l3,0.6c0.9,0.3,1.8,0.6,3,0.9c4,1.5,7.6,3.7,10.4,6.7C1575.9,443.8,1579.3,451.7,1579.6,459.6z"/>
<path class="st7" d="M1605.8,538.1c0,0,16.1-98.3-13.1-129.7"/>
<path class="st8" d="M1604.6,427c0,0,15.8-39.3-18.3-48.1c-34.1-8.5-42.6-10.7-42.6-10.7s6.7,32,24.4,42
	C1585.7,420,1604.6,427,1604.6,427z"/>
<path class="st9" d="M1568.6,403.3c10.4,5.2,17.4,2.4,26.5,10.4c4.6,4,7.3,8.5,9.4,13.4c0,0-18.9-7-36.6-16.7
	c-17.7-10-24.4-42-24.4-42s0.3,0,1.2,0.3C1548.5,380.1,1554.3,396,1568.6,403.3z"/>
<path class="st9" d="M1603.7,415.1c0-4.9-0.9-9.4-3-13.4c-1.2-1.8-2.7-3.7-4.6-4.9c-1.8-1.2-4-2.1-6.1-3c-8.8-4-17.4-7.9-25.6-12.8
	c9.1,2.7,18.3,6.1,26.8,10c2.1,0.9,4.6,1.8,6.7,3.7c2.1,1.5,3.7,3.7,4.9,5.8C1604.9,405.4,1605.2,410.6,1603.7,415.1z"/>
<path class="st10" d="M1344.7,508.9c24.1,27.1,54.8,29.2,94.1,29.2c36.9,0,70.1-15.2,93.8-39.9c-5.2-21-6.1-38.7-11.9-46.9
	c-7-10-18-16.7-21.3-27.7c-4.9-16.1-3-21.3,0-41.7c3.4-23.4-6.1-52.1-28.3-64.2c-20.1-11-41.1-8.5-49.7-5.5
	c-7.9,2.7-22.2,9.7-31.7,20.1c-19.2,21.6-1.2,41.1-18.6,76.1c-8.8,18-18.6,23.4-18.6,39.6c0,13.7,7,17.7,4.9,27.7
	C1355.7,484.9,1352.7,505,1344.7,508.9z"/>
<path class="st11" d="M1529.6,484.2c-57-34.4-151.7-16.4-178.2-1.5c-14.6,8.2-28.9,75.5-28.9,75.5h234.2
	C1556.7,558.2,1544.6,493.1,1529.6,484.2z"/>
<path class="st12" d="M1440.4,489.7c-11,0-19.8-9.4-18.9-20.4l4-56.3h30.2l4,56.3C1460.2,480.3,1451.4,489.7,1440.4,489.7z"/>
<path class="st13" d="M1443.4,434.9c-2.4-9.1-13.4-10-18.6-17.4l-3.4,48.7c-0.9,13.1,9.4,24.1,22.5,24.1c0.9,0,1.8-0.3,2.7-0.3
	c-4.6-7.9-13.4-18.6-11.3-32.3C1437.3,446.2,1445.6,443.1,1443.4,434.9z"/>
<path class="st13" d="M1406.3,386.2c0,6.1-4,11.3-8.8,11.3s-8.8-4.9-8.8-11.3c0-6.1,4-11.3,8.8-11.3
	C1402.3,375.3,1406.3,380.1,1406.3,386.2z"/>
<path class="st12" d="M1397.7,380.1c0,0-1.2,63,42.3,63c43.3,0,39.9-62.4,39.9-62.4s7-47.8-39.9-47.8
	C1392.9,332.9,1397.7,380.1,1397.7,380.1z"/>
<path class="st12" d="M1486.7,386.2c0,6.1-4,11.3-8.8,11.3c-4.9,0-8.8-4.9-8.8-11.3c0-6.1,4-11.3,8.8-11.3
	C1482.7,374.9,1486.7,380.1,1486.7,386.2z"/>
<path class="st10" d="M1459.6,345.4c0,0-4.3,30.8,23.1,29.5c0,0,11.3-49.6-43.9-49.6c-55.7,0.3-41.4,49.6-41.4,49.6
	S1454.1,366.7,1459.6,345.4z"/>
<path class="st14" d="M1396.2,403.6c3,0,5.5-2.5,5.5-5.5c0-3-2.5-5.5-5.5-5.5s-5.5,2.5-5.5,5.5
	C1390.7,401.1,1393.2,403.6,1396.2,403.6z"/>
<path class="st14" d="M1485.8,398.1c0,3-2.4,5.5-5.5,5.5s-5.5-2.4-5.5-5.5c0-3,2.4-5.5,5.5-5.5C1483,392.6,1485.8,395,1485.8,398.1z
	"/>
<path class="st15" d="M1376.4,511.3l-12.8,46.9h12.8V511.3z"/>
<path class="st15" d="M1498.9,511.3l12.5,46.9h-12.5V511.3z"/>
<rect x="1633.8" y="247.8" class="st16" width="185.8" height="185.7"/>
<path class="st5" d="M1762.7,290.6h-74v73.7h74V290.6z"/>
<path class="st17" d="M1728.2,299.7h-33.8v55.1h33.8V299.7z"/>
<path class="st6" d="M1759.3,364.3c-1.5-5.5-3.7-12.5-6.1-14c-16.8-10-44.8-4.9-52.7-0.6c-2.4,1.5-4.9,8.5-6.4,14.3h65.2V364.3z"/>
<path class="st12" d="M1726.7,352.1c-3.3,0-5.8-2.7-5.5-6.1l1.2-16.7h8.8l1.2,16.7C1732.5,349.4,1730.1,352.1,1726.7,352.1z"/>
<path class="st13" d="M1726.7,338.4c-0.6-2.1-3.3-2.4-4.6-4.3l-0.9,12.2c-0.3,3.3,2.4,6.1,5.5,6.1c0.3,0,0.3,0,0.6,0
	c-1.2-1.8-3.3-4.6-2.7-7.9S1727,340.5,1726.7,338.4z"/>
<path class="st13" d="M1715.4,322c0,2.1-1.2,3.7-3,3.7c-1.5,0-3-1.8-3-3.7c0-1.8,1.2-3.7,3-3.7
	C1713.9,318.3,1715.4,319.8,1715.4,322z"/>
<path class="st12" d="M1712.4,319.8c0,0-0.3,21,14,21c14.6,0,13.4-21,13.4-21s2.4-16.1-13.4-16.1
	C1710.9,304,1712.4,319.8,1712.4,319.8z"/>
<path class="st12" d="M1742.3,322c0,2.1-1.2,3.7-3.1,3.7c-1.5,0-3-1.8-3-3.7c0-1.8,1.2-3.7,3-3.7
	C1741,318.3,1742.3,319.8,1742.3,322z"/>
<path class="st15" d="M1712.4,318.3c0,0,3.4,1.5,4.3-7.3c0,0,34.4,14.6,24.7-13.7c0,0-28.3-1.2-31.1,6.4
	C1709.4,306.1,1710,315.3,1712.4,318.3z"/>
<path class="st18" d="M1727,318.6c0,0,1.2,6.1,4.3,7.3c0,0-0.9,1.2-4.3,0.9V318.6z"/>
<path class="st0" d="M1721.2,321.4c0,0.3-0.3,0.9-0.9,0.9c-0.3,0-0.9-0.3-0.9-0.9c0-0.6,0.3-0.9,0.9-0.9
	C1720.9,320.4,1721.2,320.8,1721.2,321.4z"/>
<path class="st0" d="M1734.3,322.3c0.5,0,0.9-0.4,0.9-0.9c0-0.5-0.4-0.9-0.9-0.9c-0.5,0-0.9,0.4-0.9,0.9
	C1733.4,321.9,1733.8,322.3,1734.3,322.3z"/>
<path class="st14" d="M1721.5,329.6h9.4c0,0-1.5,4-4.9,4C1723.1,333.5,1721.5,329.6,1721.5,329.6z"/>
<path class="st18" d="M1440.4,378.3c0,0,3.7,18,12.5,21c0,0-3,4-12.5,2.1V378.3z"/>
<path class="st0" d="M1424.2,385.3c0,1.2-0.9,2.1-2.1,2.1c-1.2,0-2.1-0.9-2.1-2.1c0-1.2,0.9-2.1,2.1-2.1
	C1423.3,383.2,1424.2,384.1,1424.2,385.3z"/>
<path class="st0" d="M1463.5,385.3c0,1.2-0.9,2.1-2.1,2.1c-1.2,0-2.1-0.9-2.1-2.1c0-1.2,0.9-2.1,2.1-2.1
	C1462.6,383.2,1463.5,384.1,1463.5,385.3z"/>
<path class="st14" d="M1424.6,409.7h27.1c0,0-4.3,11.3-13.7,11.3C1428.8,420.9,1424.6,409.7,1424.6,409.7z"/>
<path class="st15" d="M1421.5,465.4l-45.1,16.7l35.9,7.6l-10.4,13.4l38.4,23.7v-37.1L1421.5,465.4z"/>
<path class="st15" d="M1459.3,465.4l45.1,16.7l-36.2,7.6l10.7,13.4l-38.4,23.7l-0.3-37.1L1459.3,465.4z"/>
<rect x="1487.6" y="464" class="st16" width="112.7" height="112.7"/>
<path class="st19" d="M1547.9,541.8c15.1,0,27.4-12.3,27.4-27.4c0-15.1-12.3-27.4-27.4-27.4c-15.1,0-27.4,12.3-27.4,27.4
	C1520.5,529.5,1532.8,541.8,1547.9,541.8z"/>
<path class="st5" d="M1556.4,502.8h-19.8c-2.4,0-4.3,1.8-4.3,4.3v14.3c0,2.4,1.8,4.3,4.3,4.3h19.8c2.4,0,4.3-1.8,4.3-4.3v-14.3
	C1560.7,505,1558.6,502.8,1556.4,502.8z M1555.2,508.6h-2.1c-0.6,0-1.2-0.6-1.2-1.2c0-0.6,0.6-1.2,1.2-1.2h2.1
	c0.6,0,1.2,0.6,1.2,1.2C1556.4,508,1555.8,508.6,1555.2,508.6z"/>
<path class="st5" d="M1569.2,510.4v9.4c0,1.2-1.2,1.8-1.8,1.2l-6.4-5.2c-0.6-0.6-0.6-1.8,0-2.4l6.4-4.3
	C1568.3,508.6,1569.2,509.2,1569.2,510.4z"/>
<rect x="1630.8" y="415.3" class="st16" width="185.8" height="185.7"/>
<path class="st5" d="M1761.7,458.7h-74v73.7h74V458.7z"/>
<path class="st11" d="M1725.5,458.7h-37.8v47.5h37.8V458.7z"/>
<path class="st17" d="M1759.3,532.4c-1.5-4.9-3.4-9.7-5.5-11c-18-11-48.1-5.2-56.6-0.6c-2.1,1.2-4.3,6.4-5.8,11.6H1759.3z"/>
<path class="st12" d="M1725.5,523.2c-3.3,0-6.4-3-6.1-6.4l1.2-18h9.4l1.2,18C1731.6,520.2,1728.8,523.2,1725.5,523.2z"/>
<path class="st13" d="M1725.2,508.3c-0.6-2.4-3.7-2.7-4.9-4.6l-0.9,13.1c-0.3,3.3,2.4,6.4,6.1,6.4c0.3,0,0.6,0,0.6,0
	c-1.2-2.1-3.7-4.9-3-8.5C1723.7,511.3,1725.8,510.7,1725.2,508.3z"/>
<path class="st0" d="M1715.8,498.6c0,0-4.6,11-1.2,20.4c3.3,9.4-2.7,11.6-2.7,11.6s16.8-2.7,9.4-22.8
	C1721.2,507.7,1720,503.1,1715.8,498.6z"/>
<path class="st13" d="M1714.5,490.3c0,1.8-1.2,3.7-2.7,3.7c-1.5,0-2.8-1.5-2.8-3.7c0-1.8,1.2-3.7,2.8-3.7
	C1713.3,486.7,1714.5,488.5,1714.5,490.3z"/>
<path class="st12" d="M1711.8,488.5c0,0-0.3,19.8,13.4,19.8c13.7,0,12.5-19.8,12.5-19.8s2.1-15.2-12.5-15.2
	C1710.3,473.6,1711.8,488.5,1711.8,488.5z"/>
<path class="st12" d="M1740.1,490.3c0,1.8-1.2,3.7-2.7,3.7c-1.5,0-2.7-1.5-2.7-3.7c0-1.8,1.2-3.7,2.7-3.7
	C1738.9,486.7,1740.1,488.5,1740.1,490.3z"/>
<path class="st0" d="M1719.4,476.9c0,0,5.8,11,19.5,10c0,0,3.7-15.8-14-15.8c-17.7,0-13.1,15.8-13.1,15.8S1717.6,483.6,1719.4,476.9
	z"/>
<path class="st14" d="M1738,495.8c1,0,1.8-0.8,1.8-1.8s-0.8-1.8-1.8-1.8s-1.8,0.8-1.8,1.8S1737,495.8,1738,495.8z"/>
<path class="st14" d="M1711.5,495.8c1,0,1.8-0.8,1.8-1.8s-0.8-1.8-1.8-1.8s-1.8,0.8-1.8,1.8S1710.5,495.8,1711.5,495.8z"/>
<path class="st18" d="M1725.5,489.1c0,0,1.2,5.5,3.7,6.4c0,0-0.9,1.2-3.7,0.6V489.1z"/>
<path class="st0" d="M1720.6,491.3c0,0.3-0.3,0.6-0.6,0.6c-0.3,0-0.6-0.3-0.6-0.6c0-0.3,0.3-0.6,0.6-0.6
	C1720.3,490.6,1720.6,490.9,1720.6,491.3z"/>
<path class="st0" d="M1732.2,491.3c0,0.3-0.3,0.6-0.6,0.6c-0.3,0-0.6-0.3-0.6-0.6c0-0.3,0.3-0.6,0.6-0.6
	C1731.9,490.6,1732.2,490.9,1732.2,491.3z"/>
<path class="st14" d="M1720.6,498.6h8.2c0,0-1.2,3.3-4,3.3C1721.8,501.9,1720.6,498.6,1720.6,498.6z"/>
<rect x="1709.9" y="488.3" class="st16" width="73.1" height="73.1"/>
<path class="st20" d="M1757.5,519c0,4.6-3.7,8.2-8.2,8.2c-4.6,0-8.2-3.7-8.2-8.2s3.6-8.2,8.2-8.2
	C1753.8,510.7,1757.5,514.4,1757.5,519z"/>
<path class="st5" d="M1754.4,513.5c0,0-0.3,0-0.6,0l-2.7,2.7v-0.6c0-1.2-0.9-2.1-2.1-2.1c-1.2,0-2.1,0.9-2.1,2.1v3.7
	c0,0.3,0,0.6,0.3,0.9l-0.6,0.6c-0.3-0.3-0.3-0.9-0.3-1.2c0-0.3,0-0.3-0.3-0.3c-0.3,0-0.3,0-0.3,0.3c0,0.6,0.3,1.2,0.6,1.8l-2.8,2.7
	c0,0,0,0.3,0,0.6c0,0,0,0,0.3,0h0.3l2.7-2.7c0.6,0.6,1.2,0.9,2.1,0.9v1.8h-0.9c-0.3,0-0.3,0-0.3,0.3c0,0.3,0,0.3,0.3,0.3h2.1
	c0.3,0,0.3,0,0.3-0.3c0-0.3,0-0.3-0.3-0.3h-0.9v-1.8c1.8-0.3,3.1-1.5,3.1-3.3c0-0.3,0-0.3-0.3-0.3c-0.3,0-0.3,0-0.3,0.3
	c0,1.5-1.2,2.7-2.7,2.7c-0.6,0-1.5-0.3-1.8-0.9l7-7C1754.7,513.8,1754.7,513.8,1754.4,513.5z M1748,519.3v-3.7
	c0-0.6,0.6-1.2,1.2-1.2s1.2,0.6,1.2,1.2v1.2L1748,519.3C1748,519.6,1748,519.3,1748,519.3z"/>
<path class="st5" d="M1750.5,518.7v0.6c0,0.6-0.6,1.2-1.2,1.2h-0.3c-0.3,0-0.3,0-0.3,0.3c0,0.3,0,0.3,0.3,0.3c0.3,0,0.3,0,0.6,0
	c1.2,0,2.1-0.9,2.1-2.1v-0.6c0-0.3,0-0.3-0.3-0.3C1750.8,518.3,1750.5,518.7,1750.5,518.7z"/>
<rect x="1630.8" y="330" class="st16" width="185.8" height="185.7"/>
<path class="st5" d="M1761.7,374.6h-74v73.7h74V374.6z"/>
<path class="st20" d="M1741.3,380.1h-37.8V416h37.8V380.1z"/>
<path class="st20" d="M1758.4,380.1h-14.6v17h14.6V380.1z"/>
<path class="st20" d="M1758.4,399h-14.6v17h14.6V399z"/>
<path class="st8" d="M1759.3,448.3c-1.5-4.9-3.4-9.7-5.5-11c-18-11-48.1-5.2-56.6-0.6c-2.1,1.2-4.3,6.4-5.8,11.6H1759.3z"/>
<path class="st12" d="M1725.5,439.2c-3.3,0-6.4-3-6.1-6.4l1.2-18h9.4l1.2,18C1731.6,436.1,1728.8,439.2,1725.5,439.2z"/>
<path class="st13" d="M1725.2,424.3c-0.6-2.4-3.7-2.7-4.9-4.6l-0.9,13.1c-0.3,3.3,2.4,6.4,6.1,6.4c0.3,0,0.6,0,0.6,0
	c-1.2-2.1-3.7-4.9-3-8.5C1723.7,427.3,1725.8,426.4,1725.2,424.3z"/>
<path class="st13" d="M1714.5,406.3c0,1.8-1.2,3.7-2.7,3.7c-1.5,0-2.8-1.5-2.8-3.7c0-1.8,1.2-3.7,2.8-3.7
	C1713.3,402.7,1714.5,404.5,1714.5,406.3z"/>
<path class="st12" d="M1711.8,404.5c0,0-0.3,19.8,13.4,19.8c13.7,0,12.5-19.8,12.5-19.8s2.1-15.2-12.5-15.2
	C1710.3,389.3,1711.8,404.5,1711.8,404.5z"/>
<path class="st12" d="M1740.1,406.3c0,1.8-1.2,3.7-2.7,3.7c-1.5,0-2.7-1.5-2.7-3.7c0-1.8,1.2-3.7,2.7-3.7
	C1738.9,402.7,1740.1,404.5,1740.1,406.3z"/>
<path class="st0" d="M1719.4,392.9c0,0,5.8,11,19.5,10c0,0,3.7-15.8-14-15.8c-17.7,0-13.1,15.8-13.1,15.8S1717.6,399.6,1719.4,392.9
	z"/>
<path class="st14" d="M1738,411.8c1,0,1.8-0.8,1.8-1.8s-0.8-1.8-1.8-1.8s-1.8,0.8-1.8,1.8S1737,411.8,1738,411.8z"/>
<path class="st0" d="M1721.2,388.3c0,3.7-3.1,6.7-6.7,6.7c-3.7,0-6.7-3-6.7-6.7s3-6.7,6.7-6.7
	C1718.2,381.6,1721.2,384.7,1721.2,388.3z"/>
<path class="st14" d="M1711.5,411.8c1,0,1.8-0.8,1.8-1.8s-0.8-1.8-1.8-1.8s-1.8,0.8-1.8,1.8S1710.5,411.8,1711.5,411.8z"/>
<path class="st18" d="M1725.5,405.1c0,0,1.2,5.5,3.7,6.4c0,0-0.9,1.2-3.7,0.6V405.1z"/>
<path class="st0" d="M1720.6,407.2c0,0.3-0.3,0.6-0.6,0.6c-0.3,0-0.6-0.3-0.6-0.6c0-0.3,0.3-0.6,0.6-0.6
	C1720.3,406.6,1720.6,406.9,1720.6,407.2z"/>
<path class="st0" d="M1732.2,407.2c0,0.3-0.3,0.6-0.6,0.6c-0.3,0-0.6-0.3-0.6-0.6c0-0.3,0.3-0.6,0.6-0.6
	C1731.9,406.6,1732.2,406.9,1732.2,407.2z"/>
<path class="st14" d="M1720.6,414.5h8.2c0,0-1.2,3.3-4,3.3C1721.8,417.9,1720.6,414.5,1720.6,414.5z"/>
<rect x="1709.9" y="403.1" class="st16" width="73.1" height="76.1"/>
<path class="st20" d="M1757.5,434.9c0,4.6-3.7,8.2-8.2,8.2c-4.6,0-8.2-3.7-8.2-8.2c0-4.6,3.6-8.2,8.2-8.2
	C1753.8,426.7,1757.5,430.4,1757.5,434.9z"/>
<path class="st5" d="M1754.4,429.4c0,0-0.3,0-0.6,0l-2.7,2.7v-0.6c0-1.2-0.9-2.1-2.1-2.1c-1.2,0-2.1,0.9-2.1,2.1v3.7
	c0,0.3,0,0.6,0.3,0.9l-0.6,0.6c-0.3-0.3-0.3-0.9-0.3-1.2c0-0.3,0-0.3-0.3-0.3c-0.3,0-0.3,0-0.3,0.3c0,0.6,0.3,1.2,0.6,1.8l-2.8,2.7
	c0,0,0,0.3,0,0.6c0,0,0,0,0.3,0h0.3l2.7-2.7c0.6,0.6,1.2,0.9,2.1,0.9v1.8h-0.9c-0.3,0-0.3,0-0.3,0.3c0,0.3,0,0.3,0.3,0.3h2.1
	c0.3,0,0.3,0,0.3-0.3c0-0.3,0-0.3-0.3-0.3h-0.9v-1.8c1.8-0.3,3.1-1.5,3.1-3.3c0-0.3,0-0.3-0.3-0.3c-0.3,0-0.3,0-0.3,0.3
	c0,1.5-1.2,2.7-2.7,2.7c-0.6,0-1.5-0.3-1.8-0.9l7-7C1754.7,429.8,1754.7,429.8,1754.4,429.4z M1748,435.2v-3.7
	c0-0.6,0.6-1.2,1.2-1.2s1.2,0.6,1.2,1.2v1.2L1748,435.2C1748,435.5,1748,435.2,1748,435.2z"/>
<path class="st5" d="M1750.5,434.6v0.6c0,0.6-0.6,1.2-1.2,1.2h-0.3c-0.3,0-0.3,0-0.3,0.3c0,0.3,0,0.3,0.3,0.3c0.3,0,0.3,0,0.6,0
	c1.2,0,2.1-0.9,2.1-2.1v-0.6c0-0.3,0-0.3-0.3-0.3C1750.8,434.3,1750.5,434.6,1750.5,434.6z"/>
<rect x="1709.9" y="317.8" class="st16" width="76.1" height="76.1"/>
<path class="st20" d="M1758.7,350.3c0,4.6-3.6,8.2-8.2,8.2c-4.6,0-8.2-3.7-8.2-8.2c0-4.6,3.7-8.2,8.2-8.2
	C1755,342.1,1758.7,345.7,1758.7,350.3z"/>
<path class="st5" d="M1750.5,352.4c1.2,0,2.1-0.9,2.1-2.1v-3.7c0-1.2-0.9-2.1-2.1-2.1s-2.1,0.9-2.1,2.1v3.7
	C1748.6,351.5,1749.6,352.4,1750.5,352.4z"/>
<path class="st5" d="M1753.8,350.6c0-0.3,0-0.3-0.3-0.3c-0.3,0-0.3,0-0.3,0.3c0,1.5-1.2,2.7-2.7,2.7s-2.7-1.2-2.7-2.7
	c0-0.3,0-0.3-0.3-0.3c-0.3,0-0.3,0-0.3,0.3c0,1.8,1.2,3,3.1,3.3v1.8h-0.9c-0.3,0-0.3,0-0.3,0.3c0,0.3,0,0.3,0.3,0.3h2.1
	c0.3,0,0.3,0,0.3-0.3c0-0.3,0-0.3-0.3-0.3h-0.9v-1.8C1752.6,353.6,1753.8,352.4,1753.8,350.6z"/>
<rect x="1423.6" y="464" class="st16" width="112.7" height="112.7"/>
<path class="st19" d="M1484,541.8c15.1,0,27.4-12.3,27.4-27.4c0-15.1-12.3-27.4-27.4-27.4s-27.4,12.3-27.4,27.4
	C1456.5,529.5,1468.8,541.8,1484,541.8z"/>
<path class="st5" d="M1484.6,521.7c3.7,0,6.7-3,6.7-6.7v-12.2c0-3.7-3-6.7-6.7-6.7s-6.7,3-6.7,6.7V515
	C1478.2,518.7,1480.9,521.7,1484.6,521.7z"/>
<path class="st5" d="M1495.5,515c0-0.6-0.6-1.2-1.2-1.2c-0.6,0-1.2,0.6-1.2,1.2c0,4.9-4,8.8-8.8,8.8c-4.9,0-8.8-4-8.8-8.8
	c0-0.6-0.6-1.2-1.2-1.2c-0.6,0-1.2,0.6-1.2,1.2c0,5.8,4.3,10.4,10.1,11v6.4h-2.7c-0.6,0-1.2,0.6-1.2,1.2c0,0.6,0.6,1.2,1.2,1.2h7.3
	c0.6,0,1.2-0.6,1.2-1.2c0-0.6-0.6-1.2-1.2-1.2h-2.7V526C1491.3,525.4,1495.5,520.8,1495.5,515z"/>
<path class="st5" d="M1312.8,484.6h-21.3v36.5h21.3V484.6z"/>
<path class="st21" d="M1302.1,511.7v3"/>
<path class="st21" d="M1303.9,508.3l2.4,2.4"/>
<path class="st21" d="M1300.3,508.3l-2.4,2.4"/>
<path class="st22" d="M1310.6,486.7h-17.1v31.7h17.1V486.7z"/>
<path class="st22" d="M1293.6,502.5h17.1"/>
<path class="st21" d="M1307.3,494.9h-2.7"/>
<path class="st23" d="M1291.4,520.8h21.3l-21.3,1.5V520.8z"/>
<path class="st23" d="M1291.4,459.3h-47.5v4L1291.4,459.3z"/>
<path class="st24" d="M1291.4,299.1h-47.5v160.1h47.5V299.1z"/>
<path class="st8" d="M1284.1,306.1h-40.2v147.1h40.2V306.1z"/>
<path class="st25" d="M1284.4,453.3V306.2h-4.3v147.1H1284.4z"/>
<path class="st2" d="M1798.3,759.2c0,3.4-11.6,5.8-25.6,5.8c-14,0-25.6-2.7-25.6-5.8c0-3,11.6-5.8,25.6-5.8
	C1786.7,753.1,1798.3,755.8,1798.3,759.2z"/>
<path class="st2" d="M1205.9,863c28.4,0,51.5-5.3,51.5-11.9c0-6.6-23-11.9-51.5-11.9c-28.4,0-51.5,5.3-51.5,11.9
	C1154.4,857.7,1177.4,863,1205.9,863z"/>
<path class="st17" d="M1288.7,774.7c-2.4-0.9-5.2-0.9-7.6,0c-3,0.9-6.1-1.8-5.5-5.2l2.4-10.4h-134.9l15.5,68.8
	c3.4,14.9,16.8,25.6,32.3,25.6h39.6c13.7,0,25.9-8.5,30.8-21.3c0.6-1.8,2.4-2.7,4.3-2.7c12.5,0.6,33.5-11,36.2-28
	C1303,791.8,1298.5,778.1,1288.7,774.7z M1291.4,802.1c-1.8,10-13.1,17.7-21.6,18.6c-3,0.3-5.2-2.4-4.6-5.2l6.1-26.5
	c0.3-0.9,0.9-1.8,1.5-2.4c3-2.1,6.7-3.7,10.4-2.4C1289.6,786,1292.7,795.1,1291.4,802.1z"/>
<path class="st17" d="M1278,759.2c0,6.4-30.2,11.6-67.6,11.6c-37.5,0-67.6-5.2-67.6-11.6c0-6.4,30.2-11.6,67.6-11.6
	C1247.6,747.6,1278,752.8,1278,759.2z"/>
<path class="st10" d="M1149.5,758.6c-2.7,0.9-2.7,4.6,0,5.8c11,4.3,34.1,7.6,60.9,7.6c26.8,0,50-3.3,60.9-7.6c2.7-0.9,2.7-4.9,0-5.8
	c-11-4-34.1-6.4-60.6-6.4S1160.5,754.9,1149.5,758.6z"/>
<path class="st26" d="M1230.2,853.9c3,0,5.8-0.3,8.5-1.2c-6.4-1.8-13.4-4.6-19.8-9.4c-1.2-0.9-22.2-17.1-19.2-34.1
	c3-16.7,27.4-21.6,25.3-26.8c-1.8-5.2-52.4-8.2-62.7-9.7c-5.2-0.9-13.1-3-17.7-5.2l13.7,60.6c3.3,14.9,16.8,25.6,32.3,25.6h39.6
	V853.9z"/>
<path class="st27" d="M1271,758.6c-11-4-34.1-6.4-60.6-6.4s-49.6,2.7-60.6,6.4c-0.6,0.3-0.9,0.6-1.2,0.9c2.4,0.9,4.9,1.5,7,1.8
	c5.5,0.6,10.7-0.6,12.5-0.9c5.8-1.5,6.4-3,10.4-3.3c5.2-0.3,6.1,2.4,11.6,3.3c7.3,1.5,8.5-2.7,19.5-3.7c6.7-0.6,6.4,1.2,15.8,0.9
	c7.6-0.3,8.2-1.5,12.5-0.9c7,0.9,7.6,4.3,14,4.6c5.2,0.3,6.1-1.5,11.6-2.1c3.7-0.3,7,0.3,9.7,1.2
	C1272.6,759.5,1272,758.9,1271,758.6z"/>
<path class="st10" d="M1159.6,759.2c0,0.6-1.5,1.2-3.3,1.2c-1.8,0-3.4-0.6-3.4-1.2s1.5-1.2,3.4-1.2
	C1158,758,1159.6,758.6,1159.6,759.2z"/>
<path class="st10" d="M1195.2,758.3c0,0.6-1.5,1.2-3.3,1.2c-1.8,0-3.4-0.6-3.4-1.2s1.5-1.2,3.4-1.2
	C1193.7,757,1195.2,757.7,1195.2,758.3z"/>
<path class="st10" d="M1221.1,756.7c1.9,0,3.4-0.5,3.4-1.2c0-0.7-1.5-1.2-3.4-1.2c-1.8,0-3.3,0.5-3.3,1.2
	C1217.7,756.2,1219.2,756.7,1221.1,756.7z"/>
<path class="st10" d="M1168.1,759.2c0,0.3-0.9,0.9-2.4,0.9c-1.2,0-2.4-0.3-2.4-0.9c0-0.3,0.9-0.9,2.4-0.9
	C1167.2,758.3,1168.1,758.6,1168.1,759.2z"/>
<path class="st10" d="M1200.1,756.1c0,0.3-0.9,0.9-2.4,0.9c-1.2,0-2.4-0.3-2.4-0.9c0-0.3,0.9-0.9,2.4-0.9
	C1199.2,755.5,1200.1,755.8,1200.1,756.1z"/>
<path class="st10" d="M1227.8,756.7c1.3,0,2.4-0.4,2.4-0.9c0-0.5-1.1-0.9-2.4-0.9c-1.3,0-2.4,0.4-2.4,0.9
	C1225.3,756.3,1226.4,756.7,1227.8,756.7z"/>
<path class="st10" d="M1255.5,759.2c0,0.3-0.9,0.9-2.4,0.9c-1.2,0-2.4-0.3-2.4-0.9c0-0.3,0.9-0.9,2.4-0.9
	C1254.6,758.6,1255.5,758.9,1255.5,759.2z"/>
<path class="st10" d="M1252.2,757.4c0,0.3-0.9,0.9-2.4,0.9c-1.5,0-2.4-0.3-2.4-0.9c0-0.3,0.9-0.9,2.4-0.9
	C1251.2,756.4,1252.2,757,1252.2,757.4z"/>
<path class="st10" d="M1162.9,760.1c0,0.3-0.6,0.3-1.2,0.3c-0.6,0-1.2-0.3-1.2-0.3c0-0.3,0.6-0.3,1.2-0.3
	C1162.3,759.5,1162.9,759.8,1162.9,760.1z"/>
<path class="st10" d="M1166,757c0,0.3-0.6,0.3-1.2,0.3c-0.6,0-1.2-0.3-1.2-0.3c0-0.3,0.6-0.3,1.2-0.3
	C1165.3,756.7,1166,757,1166,757z"/>
<path class="st10" d="M1170.2,758c0.7,0,1.2-0.1,1.2-0.3c0-0.2-0.5-0.3-1.2-0.3c-0.7,0-1.2,0.1-1.2,0.3
	C1169,757.8,1169.5,758,1170.2,758z"/>
<path class="st10" d="M1198.8,758c0,0.3-0.6,0.3-1.2,0.3s-1.2-0.3-1.2-0.3c0-0.3,0.6-0.3,1.2-0.3S1198.8,758,1198.8,758z"/>
<path class="st10" d="M1204.6,756.4c0.7,0,1.2-0.1,1.2-0.3c0-0.2-0.5-0.3-1.2-0.3c-0.7,0-1.2,0.1-1.2,0.3
	C1203.4,756.3,1204,756.4,1204.6,756.4z"/>
<path class="st10" d="M1225.3,754.9c0.5,0,0.9-0.1,0.9-0.3c0-0.2-0.4-0.3-0.9-0.3c-0.5,0-0.9,0.1-0.9,0.3
	C1224.4,754.8,1224.8,754.9,1225.3,754.9z"/>
<path class="st10" d="M1249.1,759.8c0.5,0,0.9-0.1,0.9-0.3c0-0.2-0.4-0.3-0.9-0.3s-0.9,0.1-0.9,0.3
	C1248.2,759.7,1248.6,759.8,1249.1,759.8z"/>
<path class="st10" d="M1248.2,758.9c0,0.3-0.3,0.3-0.9,0.3c-0.6,0-0.9,0-0.9-0.3c0-0.3,0.3-0.3,0.9-0.3
	C1247.9,758.6,1248.2,758.6,1248.2,758.9z"/>
<path class="st10" d="M1245.1,757c0,0.3-0.3,0.3-0.9,0.3c-0.6,0-0.9,0-0.9-0.3c0-0.3,0.3-0.3,0.9-0.3
	C1244.8,756.7,1245.1,757,1245.1,757z"/>
<path class="st10" d="M1254.6,757.4c0,0.3-0.3,0.3-0.9,0.3s-0.9,0-0.9-0.3c0-0.3,0.3-0.3,0.9-0.3S1254.6,757.4,1254.6,757.4z"/>
<path class="st10" d="M1257.6,759.8c0.5,0,0.9-0.1,0.9-0.3c0-0.2-0.4-0.3-0.9-0.3c-0.5,0-0.9,0.1-0.9,0.3
	C1256.7,759.7,1257.1,759.8,1257.6,759.8z"/>
<path class="st10" d="M1190.3,755.8c0,0.3-0.6,0.3-1.2,0.3c-0.6,0-1.2-0.3-1.2-0.3s0.6-0.3,1.2-0.3
	C1189.7,755.5,1190.3,755.5,1190.3,755.8z"/>
<path class="st10" d="M1186.4,755.5c0,0.3-0.6,0.3-1.2,0.3c-0.6,0-1.2-0.3-1.2-0.3s0.6-0.3,1.2-0.3
	C1185.7,754.9,1186.4,755.2,1186.4,755.5z"/>
<path class="st10" d="M1187.3,757c0,0.3-0.6,0.3-1.2,0.3s-1.2-0.3-1.2-0.3c0-0.3,0.6-0.3,1.2-0.3
	C1186.7,756.4,1187.3,756.7,1187.3,757z"/>
<path class="st10" d="M1162.3,758.6c0,0.3-0.3,0.3-0.9,0.3s-0.9,0-0.9-0.3c0-0.3,0.3-0.3,0.9-0.3
	C1161.7,758.3,1162.3,758.3,1162.3,758.6z"/>
<path class="st9" d="M1697.3,727.5c0,0,30.8-74.6,63.7-43.8C1761,683.7,1719.2,682.5,1697.3,727.5z"/>
<path class="st9" d="M1694.6,689.8c0,0-8.8-80.1,34.7-69.1C1729.3,620.6,1692.1,639.5,1694.6,689.8z"/>
<path class="st9" d="M1775.8,726.9c0,0-11.3-79.8-50.9-58.2C1724.9,668.8,1765.7,677.9,1775.8,726.9z"/>
<path class="st9" d="M1778.8,726.9c0,0-26.8-46.6-46-23.4C1732.8,703.5,1760.5,698.9,1778.8,726.9z"/>
<path class="st9" d="M1773.9,736.3c0,0,18.3-131.2-53.9-115.1C1720,621.3,1780.3,654.1,1773.9,736.3z"/>
<path class="st9" d="M1774.5,719c0,0,16.1-151.3-34.7-137.3C1739.5,581.7,1780.6,636.8,1774.5,719z"/>
<path class="st9" d="M1692.7,726.9c0,0,15.2-129.1,69.4-101.4C1762.2,625.5,1704.9,660.5,1692.7,726.9z"/>
<path class="st8" d="M1762.2,625.5c-11.9-6.1-21.9-4.6-30.2,1.5c2.1-0.3,4.3-0.3,5.5,0.9c1.8,1.8,1.2,5.5,0.6,7.9
	c-4.9,18.6-24.1,31.4-22.5,34.1c0,0.3,0.6,0.3,1.2,0.6C1737.2,640.7,1762.2,625.5,1762.2,625.5z"/>
<path class="st9" d="M1694.9,733c0,0,12.8-108.1,66.7-80.4C1761.6,652.9,1706.7,666.6,1694.9,733z"/>
<path class="st8" d="M1761.6,652.9c-13.7-7-24.7-5.5-33.8,1.2c2.1-0.6,4.6-0.6,7-0.6c1.5,0,5.5,0.6,6.1,2.1
	c0.6,2.7-7.9,5.5-15.8,12.2c-1.5,1.2-15.2,12.2-13.1,16.7c0.3,0.9,1.5,1.5,3.1,1.8C1734.8,659.6,1761.6,652.9,1761.6,652.9z"/>
<path class="st8" d="M1729.6,681.5c-4.9,5.5-7.6,11.6-7.6,15.8c19.5-14.3,39-13.7,39-13.7C1750,673.3,1739.3,674.8,1729.6,681.5z"/>
<path class="st24" d="M1795.6,759.5h-42.3l-7.3-37.4h57.3L1795.6,759.5z"/>
<path class="st28" d="M1748.6,736.3l53.3-8.8l0.3-0.9l-56.3-3.7L1748.6,736.3z"/>
<path class="st24" d="M1808.3,727.5H1741c-1.8,0-3.1-1.5-3.1-3v-5.8c0-1.8,1.5-3,3.1-3h67.3c1.8,0,3.1,1.5,3.1,3v5.8
	C1811.7,726,1810.2,727.5,1808.3,727.5z"/>
<path class="st8" d="M1743.5,580.8c2.1,2.7,4.9,6.1,7.9,9.4c10.1,11.9,11,12.5,13.7,16.7c5.5,8.2,7.6,14.6,9.1,18.9
	C1770.3,599.6,1761.7,578.6,1743.5,580.8z"/>
<path class="st2" d="M1638.4,835.9c37,0,67-4.2,67-9.4c0-5.2-30-9.4-67-9.4c-37,0-67,4.2-67,9.4
	C1571.4,831.7,1601.4,835.9,1638.4,835.9z"/>
<path class="st11" d="M1582.7,802.6l-1.8,20.6l112.6,9.7l1.8-20.6L1582.7,802.6z"/>
<path class="st29" d="M1717.9,824.9l-24.1,8.2l1.5-20.7L1717.9,824.9z"/>
<path class="st20" d="M1573.8,810.3l-0.3,4c-0.3,4.6,3,8.5,7.6,8.8l1.8-20.4C1578.4,802.4,1574.1,805.8,1573.8,810.3z"/>
<path class="st30" d="M1706.6,828.6l11.3-3.7l-10.7-5.8L1706.6,828.6z"/>
</svg>
