<svg xmlns="http://www.w3.org/2000/svg" width="100" height="100" viewBox="0 0 100 100">
  <g id="Grupo_2421" data-name="Grupo 2421" transform="translate(-448 -4000)">
    <g id="Elipse_71" data-name="Elipse 71" transform="translate(448 4000)" fill="#fff" stroke="#acd313" stroke-width="4">
      <circle cx="50" cy="50" r="50" stroke="none"/>
      <circle cx="50" cy="50" r="48" fill="none"/>
    </g>
    <g id="Grupo_105" data-name="Grupo 105" transform="translate(471 4024)">
      <g id="Grupo_100" data-name="Grupo 100">
        <path id="Trazado_116" data-name="Trazado 116" d="M797.866,63.59H784.207a1.138,1.138,0,0,1-1.138-1.138v-14.8h-9.106v14.8a1.138,1.138,0,0,1-1.138,1.138H759.165a1.138,1.138,0,0,1-1.138-1.138V39.687a1.138,1.138,0,0,1,2.277,0V61.313h11.382v-14.8a1.138,1.138,0,0,1,1.138-1.138h11.383a1.138,1.138,0,0,1,1.138,1.138v14.8h11.382V40.825a1.138,1.138,0,0,1,2.277,0V62.452A1.138,1.138,0,0,1,797.866,63.59Zm6.829-23.9a1.135,1.135,0,0,1-.8-.333L778.515,13.979,753.141,39.353a1.138,1.138,0,0,1-1.609-1.61l26.18-26.18a1.138,1.138,0,0,1,1.61,0l26.18,26.18a1.138,1.138,0,0,1-.8,1.943Zm-9.106-15.935a1.138,1.138,0,0,1-1.138-1.138V15.784h-6.83a1.138,1.138,0,0,1,0-2.277h7.968a1.138,1.138,0,0,1,1.138,1.138v7.968A1.138,1.138,0,0,1,795.589,23.751Z" transform="translate(-751.198 -11.231)" fill="#158a2f"/>
      </g>
    </g>
  </g>
</svg>
