<svg xmlns="http://www.w3.org/2000/svg" width="100" height="100" viewBox="0 0 100 100">
  <g id="Grupo_2500" data-name="Grupo 2500" transform="translate(-1297 -3625)">
    <g id="Elipse_74" data-name="Elipse 74" transform="translate(1297 3625)" fill="#fff" stroke="#acd313" stroke-width="4">
      <circle cx="50" cy="50" r="50" stroke="none"/>
      <circle cx="50" cy="50" r="48" fill="none"/>
    </g>
    <g id="sanantonio" transform="translate(1323.009 3651)">
      <path id="Trazado_6244" data-name="Trazado 6244" d="M81.026,57.944C79.752,39.8,68.176,33.4,66.962,33.4q-.133,0-.089.089c4.678,12.405,1.066,29.1,1.066,29.1,4.382-2.487,9.889-5.152,13.086-4.648" transform="translate(-47.073 -23.511)" fill="#158a2f"/>
      <path id="Trazado_6245" data-name="Trazado 6245" d="M35.709,84.035a67,67,0,0,0,1.54-19.866c-.089-1.1-.266-1.569-.533-1.569-1.688,0-6.661,18.652-13.116,23.8a12.529,12.529,0,0,0,2.931.326,18.924,18.924,0,0,0,9.178-2.694" transform="translate(-16.619 -44.066)" fill="#158a2f"/>
      <path id="Trazado_6262" data-name="Trazado 6262" d="M66.549,20.725a20.725,20.725,0,0,0-41.449,0,20.46,20.46,0,0,0,4.323,12.642c1.569-3.049,2.961-6.336,4.056-9,2.309-5.536,2.99-6.987,4.293-6.987h0a1.383,1.383,0,0,1,.5.089,35.357,35.357,0,0,0-1.806-7.224,1.16,1.16,0,0,1,.118-1.036,1.119,1.119,0,0,1,.977-.5c1.984,0,13.885,7.076,15.159,25.639a7.39,7.39,0,0,1,2.013.444,5.468,5.468,0,0,1,2.191,1.54,5.145,5.145,0,0,1,.859,1.332,20.654,20.654,0,0,0,8.764-16.935" transform="translate(-17.675)" fill="#158a2f"/>
      <path id="Trazado_6263" data-name="Trazado 6263" d="M36.321,109.9c-4-1.332-10.51,2.428-13.678,4.175-3.049,1.688-7.727,4.056-13.589,3.878,0,0-5.181-.03-6.691-4.767a7.236,7.236,0,0,1-.207-3.257,4.574,4.574,0,0,1,3.967-3.878,3.308,3.308,0,0,1,1.066.03,1.56,1.56,0,0,1,1.066.8s.148.178.3.089.089-.326.089-.326a2.523,2.523,0,0,0-1.747-1.392h-.03a2.767,2.767,0,0,0-1.036-.089c-1.184.059-4.471.622-5.684,5.329a5.5,5.5,0,0,0-.148,1.243h0A9.383,9.383,0,0,0,6.181,120.7a8.978,8.978,0,0,0,2.1.563h.059c3.138.5,7.994.03,15.277-3.523,2.22-1.1,9.089-4.678,9.089-4.678s3.138-1.806,4.885.089a5.611,5.611,0,0,1,1.184,2.043.092.092,0,0,0,.03.059.838.838,0,0,0,.089.178h0a.029.029,0,0,1,.03.03.109.109,0,0,0,.089.03h.03a.207.207,0,0,0,.207-.178h0c0,.059,1.066-4.086-2.931-5.418" transform="translate(0 -74.015)" fill="#158a2f"/>
    </g>
  </g>
</svg>
