<svg xmlns="http://www.w3.org/2000/svg" width="100" height="100" viewBox="0 0 100 100">
  <g id="Grupo_2422" data-name="Grupo 2422" transform="translate(-709 -3776)">
    <g id="Elipse_72" data-name="Elipse 72" transform="translate(709 3776)" fill="#fff" stroke="#acd313" stroke-width="4">
      <circle cx="50" cy="50" r="50" stroke="none"/>
      <circle cx="50" cy="50" r="48" fill="none"/>
    </g>
    <g id="Grupo_107" data-name="Grupo 107" transform="translate(729 3804)">
      <path id="Trazado_155" data-name="Trazado 155" d="M9897.1,3698.208s5.368-7.832,18.2-7.544a12.371,12.371,0,0,1,0-2.514s-5.647-2.216-4.909-7.6,6.453-12.351,6.453-12.351,7.116,8.082,6.954,12.351-5.132,7.6-5.132,7.6v2.514s30.374,1.18,30.311,7.544-17.884,7.718-17.884,7.718-9.155-8.447-18.17-9.455A35.685,35.685,0,0,0,9897.1,3698.208Z" transform="translate(-9888.505 -3668.195)" fill="#158a2f"/>
      <path id="Trazado_156" data-name="Trazado 156" d="M9949.781,3672.75l1.924-2.927,2.873,1.519,2.348-1.519,1.878,2.927h2.979v3.964l1.946,1.823-2.57,2.449.624,3.3H9958.8l-1.878,3.264-2.348-2.243-2.873,2.243-1.924-3.726H9947.3l.719-2.834-2.756-2.449,2.756-2.446-.719-3.341Z" transform="translate(-9907.52 -3668.838)" fill="#158a2f"/>
      <path id="Trazado_157" data-name="Trazado 157" d="M9882.9,3724.618a27.815,27.815,0,0,0,10.137-3.294c4.64-2.755,11.693-1.418,11.693-1.418s-6.652.713-9.21,2.707a16.523,16.523,0,0,1-8.66,3.258A7.665,7.665,0,0,1,9882.9,3724.618Z" transform="translate(-9882.897 -3688.482)" fill="#158a2f"/>
      <path id="Trazado_158" data-name="Trazado 158" d="M9882.9,3724.618a27.815,27.815,0,0,0,10.137-3.294c4.64-2.755,11.693-1.418,11.693-1.418s-6.652.713-9.21,2.707a16.523,16.523,0,0,1-8.66,3.258A7.665,7.665,0,0,1,9882.9,3724.618Z" transform="translate(-9872.004 -3684.851)" fill="#158a2f"/>
      <path id="Trazado_159" data-name="Trazado 159" d="M9882.9,3724.618a27.815,27.815,0,0,0,10.137-3.294c4.64-2.755,11.693-1.418,11.693-1.418s-6.652.713-9.21,2.707a16.523,16.523,0,0,1-8.66,3.258A7.665,7.665,0,0,1,9882.9,3724.618Z" transform="translate(-9864.741 -3681.22)" fill="#158a2f"/>
    </g>
  </g>
</svg>
