<svg xmlns="http://www.w3.org/2000/svg" width="100" height="100" viewBox="0 0 100 100">
  <g id="Grupo_2420" data-name="Grupo 2420" transform="translate(-143 -3776)">
    <g id="Elipse_70" data-name="Elipse 70" transform="translate(143 3776)" fill="#fff" stroke="#acd313" stroke-width="4">
      <circle cx="50" cy="50" r="50" stroke="none"/>
      <circle cx="50" cy="50" r="48" fill="none"/>
    </g>
    <g id="handshake" transform="translate(164 3801)">
      <path id="Trazado_154" data-name="Trazado 154" d="M56.932,30.543,45.107,18.718a3.963,3.963,0,0,0-5.605,0L36.723,21.5a3.935,3.935,0,0,0-.924,1.466l-13-2.328h0a10.849,10.849,0,0,0-12.733,8.487l-.6,2.975a6.077,6.077,0,0,0,11.915,2.4l.367-1.819,5.83.51L42.8,48.414l2.76,2.76A1.433,1.433,0,0,1,43.534,53.2l-7.392-7.392a1.318,1.318,0,1,0-1.865,1.865l7.392,7.392a1.433,1.433,0,0,1-2.027,2.027L32.25,49.7a1.318,1.318,0,0,0-1.865,1.865l7.392,7.392a1.433,1.433,0,0,1-2.027,2.027l-7.392-7.392a1.318,1.318,0,1,0-1.865,1.865l7.392,7.392a1.433,1.433,0,1,1-2.027,2.027L5.705,38.721,2.251,35.267A1.318,1.318,0,1,0,.387,37.131l3.454,3.454L7.6,44.344,5.528,46.416a3.592,3.592,0,0,0,0,5.08l.676.676a3.565,3.565,0,0,0,2.181,1.034,3.564,3.564,0,0,0,1.034,2.181l.676.676A3.574,3.574,0,0,0,12.276,57.1a3.564,3.564,0,0,0,1.035,2.183l.676.676a3.565,3.565,0,0,0,2.181,1.034A3.565,3.565,0,0,0,17.2,63.17l.676.676a3.6,3.6,0,0,0,5.08,0l2.072-2.072L30,66.739a4.065,4.065,0,0,0,6.94-2.707,4.049,4.049,0,0,0,3.89-3.893,4.046,4.046,0,0,0,3.891-3.891,4.063,4.063,0,0,0,2.709-6.938L45.6,47.482,52.283,40.8l4.649-4.649a3.968,3.968,0,0,0,0-5.605ZM7.392,49.631a.956.956,0,0,1,0-1.351l1.943-1.943,2.027,2.027L9.419,50.307a.956.956,0,0,1-1.351,0Zm3.891,3.891a.956.956,0,0,1,0-1.351l1.943-1.943,2.027,2.027L13.311,54.2a.956.956,0,0,1-1.351,0l-.676-.676Zm3.891,3.891a.955.955,0,0,1,0-1.351l1.943-1.943,2.027,2.027L17.2,58.09a.956.956,0,0,1-1.351,0Zm5.918,4.568a.956.956,0,0,1-1.351,0l-.676-.676a.956.956,0,0,1,0-1.351l1.943-1.943,2.027,2.027-1.943,1.943Zm22.64-16.364L29.1,30.984a1.317,1.317,0,0,0-.817-.381L20.8,29.949c-.039,0-.078-.005-.116-.005A1.319,1.319,0,0,0,19.392,31l-.6,2.975a3.44,3.44,0,1,1-6.745-1.36l.6-2.974a8.207,8.207,0,0,1,9.658-6.417l.028.005,12.812,2.294L36.723,27.1,49.486,39.865ZM55.067,34.283,51.351,38,38.588,25.237a1.327,1.327,0,0,1,0-1.876l2.779-2.779a1.327,1.327,0,0,1,1.876,0L55.067,32.407a1.327,1.327,0,0,1,0,1.876Z" transform="translate(-0.001 -17.557)" fill="#158a2f"/>
      <circle id="Elipse_4" data-name="Elipse 4" cx="1.318" cy="1.318" r="1.318" transform="translate(50.557 14.993)" fill="#158a2f"/>
    </g>
  </g>
</svg>
