<svg xmlns="http://www.w3.org/2000/svg" width="100" height="100" viewBox="0 0 100 100">
  <g id="Grupo_2431" data-name="Grupo 2431" transform="translate(-1291 -3776)">
    <g id="Elipse_74" data-name="Elipse 74" transform="translate(1291 3776)" fill="#fff" stroke="#acd313" stroke-width="4">
      <circle cx="50" cy="50" r="50" stroke="none"/>
      <circle cx="50" cy="50" r="48" fill="none"/>
    </g>
    <g id="Grupo_109" data-name="Grupo 109" transform="translate(1312 3807)">
      <path id="Trazado_27" data-name="Trazado 27" d="M785.158,299.157l-9.251,9.383,6.018,6.1a4.548,4.548,0,0,0,6.467,0l6.02-6.1Z" transform="translate(-774.764 -291.624)" fill="#158a2f" fill-rule="evenodd"/>
      <path id="Trazado_28" data-name="Trazado 28" d="M882.068,299.74l-9.252,9.38,6.018,6.106a4.551,4.551,0,0,0,6.472,0l6.013-6.1Z" transform="translate(-853.044 -292.095)" fill="#158a2f" fill-rule="evenodd"/>
      <path id="Trazado_29" data-name="Trazado 29" d="M978.828,299.125l-9.274,9.4,6.033,6.118a4.567,4.567,0,0,0,3.194,1.353,4.511,4.511,0,0,0,3.287-1.356l6.027-6.115Z" transform="translate(-931.185 -291.599)" fill="#158a2f" fill-rule="evenodd"/>
      <path id="Trazado_30" data-name="Trazado 30" d="M930.2,276.8l-9.253-9.375,6.02-6.1a4.543,4.543,0,0,1,6.468,0l6.016,6.1Z" transform="translate(-891.919 -259.972)" fill="#158a2f" fill-rule="evenodd"/>
      <path id="Trazado_31" data-name="Trazado 31" d="M833.931,276.8l-9.251-9.375,6.013-6.1a4.555,4.555,0,0,1,6.477,0l6.015,6.1Z" transform="translate(-814.161 -259.975)" fill="#158a2f" fill-rule="evenodd"/>
      <g id="Grupo_27" data-name="Grupo 27" transform="translate(0 27.523)">
        <path id="Trazado_32" data-name="Trazado 32" d="M930.842,415.319a3.757,3.757,0,1,1-4.1,3.7,3.739,3.739,0,0,1,4.1-3.7Zm-1.653,3.708a1.649,1.649,0,1,0,3.3.017,1.649,1.649,0,1,0-3.3,0Z" transform="translate(-896.6 -412.979)" fill="#158a2f"/>
        <path id="Trazado_33" data-name="Trazado 33" d="M883.855,415.478h1.954l.434.879.042,0a2.622,2.622,0,0,1,2.231-1.013,2.438,2.438,0,0,1,2.593,2.694v4.6h-2.426v-3.714c0-.837-.134-1.63-1.126-1.63a1.266,1.266,0,0,0-1.276,1.432v3.913h-2.425Z" transform="translate(-861.96 -412.996)" fill="#158a2f"/>
        <path id="Trazado_34" data-name="Trazado 34" d="M769.96,412.789l1.708-9.641h2.746l1.778,4.526.1.507.1-.507,1.778-4.526h2.742l1.71,9.641h-2.608l-.863-5.89-.146.545-2.18,5.344h-1.068l-2.178-5.344-.146-.545-.866,5.89Z" transform="translate(-769.96 -403.149)" fill="#158a2f"/>
        <path id="Trazado_35" data-name="Trazado 35" d="M1041.928,423.147l-.45-.913h-.051a2.858,2.858,0,0,1-2.442,1.062,2.058,2.058,0,0,1-2.119-2.285c0-1.839,1.687-2.262,3.191-2.319.387-.017.775-.013,1.143-.022,0-.589-.207-.973-.851-.973a4.939,4.939,0,0,0-1.935.525l-.7-1.611a6.616,6.616,0,0,1,3.075-.641,2.5,2.5,0,0,1,2.814,2.562v4.614Zm-.715-2.589v-.545l-.553.023c-.791.034-1.333.326-1.333.885,0,.467.359.651.753.651A1.038,1.038,0,0,0,1041.212,420.558Z" transform="translate(-985.557 -413.506)" fill="#158a2f"/>
        <path id="Trazado_36" data-name="Trazado 36" d="M1005.33,422.9c-2.279,0-3.524-1.4-3.524-3.677a3.442,3.442,0,0,1,3.711-3.742,5.088,5.088,0,0,1,2.316.544l-.719,1.827a8.107,8.107,0,0,0-.815-.312,2.576,2.576,0,0,0-.782-.12c-1.646,0-1.758,3.509.018,3.509a3.759,3.759,0,0,0,2.056-.628v1.964A3.96,3.96,0,0,1,1005.33,422.9Z" transform="translate(-957.237 -413.11)" fill="#158a2f"/>
        <path id="Trazado_37" data-name="Trazado 37" d="M978.63,415.481a3.913,3.913,0,0,1,.741.077l-.216,2.332a3.521,3.521,0,0,0-.834-.076,1.56,1.56,0,0,0-1.158.372,1.476,1.476,0,0,0-.361,1.066v3.5h-2.438v-7.144h1.812l.382,1.147h.118A2.354,2.354,0,0,1,978.63,415.481Z" transform="translate(-935.071 -413.11)" fill="#158a2f"/>
        <path id="Trazado_38" data-name="Trazado 38" d="M846.611,419.47h-5.15c.018,1,.5,1.6,1.511,1.6a1.36,1.36,0,0,0,1.236-.667H846.5a3.323,3.323,0,0,1-3.5,2.4c-2.245,0-4.017-1.324-4.017-3.717,0-2.446,1.687-3.764,4-3.764,2.441,0,3.624,1.834,3.624,4.151Zm-2.276-1.439a1.4,1.4,0,0,0-1.392-1.116,1.34,1.34,0,0,0-1.421,1.116Z" transform="translate(-825.717 -412.979)" fill="#158a2f"/>
      </g>
    </g>
  </g>
</svg>
