<svg xmlns="http://www.w3.org/2000/svg" width="100" height="100" viewBox="0 0 100 100">
  <g id="Grupo_2423" data-name="Grupo 2423" transform="translate(-1005 -3999)">
    <g id="Elipse_73" data-name="Elipse 73" transform="translate(1005 3999)" fill="#fff" stroke="#acd313" stroke-width="4">
      <circle cx="50" cy="50" r="50" stroke="none"/>
      <circle cx="50" cy="50" r="48" fill="none"/>
    </g>
    <g id="Grupo_108" data-name="Grupo 108" transform="translate(1026 4035)">
      <path id="Trazado_165" data-name="Trazado 165" d="M10086.4,4402.464s1.084-6.408,8.1-11.283a206.054,206.054,0,0,1,18.034-10.609s-17.022,1.989-23.376,6.26-6.447,8.75-5.562,11.288A12.26,12.26,0,0,0,10086.4,4402.464Z" transform="translate(-10083.201 -4380.572)" fill="#158a2f"/>
      <path id="Trazado_166" data-name="Trazado 166" d="M10097.167,4405.369s8.276-19.709,27.7-23.164c-3.254,2.159-17.353,9.669-23.35,24.89C10099.412,4406.319,10097.167,4405.369,10097.167,4405.369Z" transform="translate(-10088.239 -4381.161)" fill="#158a2f"/>
      <path id="Trazado_167" data-name="Trazado 167" d="M10114.429,4409.011s5.04-20.142,21.84-24.445c-2.083,2.256-14.748,11.1-17.6,24.445C10116.787,4408.992,10114.429,4409.011,10114.429,4409.011Z" transform="translate(-10094.467 -4382.013)" fill="#158a2f"/>
      <path id="Trazado_168" data-name="Trazado 168" d="M10130.036,4410.117s4.729-17.279,16.225-22.485c-1.665,2.633-10.755,12.064-11.263,22.485C10133.026,4410.146,10130.036,4410.117,10130.036,4410.117Z" transform="translate(-10100.097 -4383.119)" fill="#158a2f"/>
      <path id="Trazado_169" data-name="Trazado 169" d="M10146.617,4409.139s2.76-14.708,8.666-19.1c1.206.982,9.314,6.553,8.81,11.4s-11.21,7.074-12.659,7.226S10146.617,4409.139,10146.617,4409.139Z" transform="translate(-10106.078 -4383.986)" fill="#158a2f"/>
    </g>
  </g>
</svg>
