<?xml version="1.0" encoding="utf-8"?>
<!-- Generator: Adobe Illustrator 24.1.0, SVG Export Plug-In . SVG Version: 6.00 Build 0)  -->
<svg version="1.1" id="Capa_1" xmlns="http://www.w3.org/2000/svg" xmlns:xlink="http://www.w3.org/1999/xlink" x="0px" y="0px"
	 viewBox="0 0 458 393.7" style="enable-background:new 0 0 458 393.7;" xml:space="preserve">
<style type="text/css">
	.st0{fill:#365D32;}
	.st1{fill:#4B8142;}
	.st2{fill:#5B5B5F;}
	.st3{opacity:0.8;}
	.st4{fill:#9BB337;}
	.st5{fill:#508946;}
	.st6{opacity:0.4;}
	.st7{fill:#9EBB32;}
	.st8{fill:#FFFFFF;}
	.st9{fill:#DC1D3C;}
	.st10{fill:#D4802E;}
	.st11{fill:#91542F;}
	.st12{fill:#DB8000;}
	.st13{clip-path:url(#SVGID_2_);}
	.st14{fill:#005C24;}
	.st15{fill-rule:evenodd;clip-rule:evenodd;fill:#015F22;}
	.st16{fill-rule:evenodd;clip-rule:evenodd;fill:#26852C;}
	.st17{fill:#015F22;}
	.st18{clip-path:url(#SVGID_4_);}
	.st19{fill:#47600E;}
	.st20{fill:#8CB520;}
	.st21{fill:#184425;}
	.st22{fill:#00813A;}
	.st23{opacity:0.59;fill:#53631F;}
	.st24{fill:#F5C10D;}
	.st25{fill:#2E462B;}
	.st26{enable-background:new    ;}
	.st27{fill:#801E32;}
	.st28{fill:#191814;}
	.st29{fill:#6A1D17;stroke:#7E2931;stroke-width:8.6296;stroke-linecap:round;stroke-linejoin:round;stroke-miterlimit:10;}
	.st30{fill:none;stroke:#801E32;stroke-width:19.2079;stroke-linecap:round;stroke-linejoin:round;stroke-miterlimit:10;}
	.st31{fill:none;stroke:#DC1D3C;stroke-width:19.2079;stroke-linecap:round;stroke-linejoin:round;stroke-miterlimit:10;}
	.st32{fill:#B61230;stroke:#DC1D3C;stroke-width:8.6296;stroke-linecap:round;stroke-linejoin:round;stroke-miterlimit:10;}
	.st33{clip-path:url(#SVGID_6_);}
	.st34{clip-path:url(#SVGID_8_);}
	.st35{fill:#020302;}
	.st36{fill:none;stroke:#020302;stroke-width:23.7377;stroke-linecap:round;stroke-linejoin:round;stroke-miterlimit:10;}
	.st37{fill:none;stroke:#345C35;stroke-width:23.7377;stroke-linecap:round;stroke-linejoin:round;stroke-miterlimit:10;}
	.st38{clip-path:url(#SVGID_10_);}
	.st39{clip-path:url(#SVGID_12_);}
	.st40{clip-path:url(#SVGID_14_);}
	.st41{clip-path:url(#SVGID_16_);}
	.st42{opacity:0.59;fill:#54642C;}
	.st43{fill:#801D33;}
	.st44{clip-path:url(#SVGID_18_);}
	.st45{clip-path:url(#SVGID_20_);}
	.st46{clip-path:url(#SVGID_22_);}
	.st47{clip-path:url(#SVGID_24_);}
	.st48{clip-path:url(#SVGID_26_);}
	.st49{clip-path:url(#SVGID_28_);}
	.st50{clip-path:url(#SVGID_30_);}
	.st51{clip-path:url(#SVGID_32_);}
	.st52{clip-path:url(#SVGID_34_);}
	.st53{clip-path:url(#SVGID_36_);}
	.st54{clip-path:url(#SVGID_38_);}
	.st55{clip-path:url(#SVGID_40_);}
	.st56{fill:#385E32;}
	.st57{fill:#6A1D17;}
	.st58{fill:#7F2932;}
	.st59{fill:#B52031;}
	.st60{fill:#7C1816;}
	.st61{fill:#8C242E;}
	.st62{fill:#8F1A30;}
	.st63{fill:#DA1D41;}
	.st64{fill:#D41E2F;}
	.st65{clip-path:url(#SVGID_42_);}
	.st66{clip-path:url(#SVGID_44_);}
	.st67{fill:#2F462B;}
	.st68{fill:#008847;}
	.st69{fill:#6A1D17;stroke:#7F2932;stroke-width:8.6296;stroke-linecap:round;stroke-linejoin:round;stroke-miterlimit:10;}
	.st70{fill:none;stroke:#801D33;stroke-width:19.2079;stroke-linecap:round;stroke-linejoin:round;stroke-miterlimit:10;}
	.st71{fill:#B52031;stroke:#DC1D3C;stroke-width:8.6296;stroke-linecap:round;stroke-linejoin:round;stroke-miterlimit:10;}
	.st72{fill:#FFFFFF;stroke:#FFFFFF;stroke-width:29;stroke-linecap:round;stroke-linejoin:round;stroke-miterlimit:10;}
	.st73{fill:#243259;}
	.st74{opacity:0.3;}
	.st75{fill:#162E5A;}
	.st76{fill:#414D6F;}
	.st77{fill:#EDC913;}
	.st78{fill:#0099DC;}
	.st79{fill:#D6802E;}
	.st80{fill:#93542F;}
	.st81{fill:#E57800;}
	.st82{fill:none;stroke:#0099DC;stroke-width:23.7377;stroke-linecap:round;stroke-linejoin:round;stroke-miterlimit:10;}
	.st83{clip-path:url(#SVGID_46_);fill:#243359;}
	.st84{clip-path:url(#SVGID_48_);fill:#068CCE;}
	.st85{opacity:0.2;fill:#444444;}
	.st86{fill:#42210B;}
	.st87{fill:#EC8000;}
	.st88{fill:#FFCA18;}
	.st89{opacity:0.45;}
	.st90{clip-path:url(#SVGID_50_);fill:#454243;}
	.st91{fill:none;stroke:#FFFFFF;stroke-width:0.975;stroke-miterlimit:10;}
	.st92{opacity:0.7;clip-path:url(#SVGID_52_);}
	.st93{clip-path:url(#SVGID_54_);fill:#FFFFFF;}
	.st94{clip-path:url(#SVGID_52_);fill:#FFFFFF;}
	.st95{clip-path:url(#SVGID_52_);fill:#273E6A;}
	.st96{clip-path:url(#SVGID_52_);fill-rule:evenodd;clip-rule:evenodd;fill:#273E6A;}
	.st97{fill:none;stroke:#42210B;stroke-width:19.285;stroke-linecap:round;stroke-linejoin:round;stroke-miterlimit:10;}
	.st98{fill:none;stroke:#EC8000;stroke-width:19.285;stroke-linecap:round;stroke-linejoin:round;stroke-miterlimit:10;}
</style>
<g>
	<g>
		<g>
			<g>
				<polygon class="st2" points="407,207.9 423.1,177.9 431.6,197.5 				"/>
				<path class="st2" d="M423.1,177.9l8.5,19.6L407,207.9L423.1,177.9 M423.1,173.7c-1.5,0-2.9,0.8-3.6,2.2l-16.1,30
					c-0.8,1.5-0.6,3.4,0.6,4.7c0.8,0.9,1.9,1.4,3.1,1.4c0.5,0,1.1-0.1,1.6-0.3l24.6-10.4c1-0.4,1.8-1.2,2.2-2.3c0.4-1,0.4-2.2,0-3.2
					l-8.5-19.6c-0.6-1.5-2-2.4-3.6-2.5C423.2,173.8,423.2,173.7,423.1,173.7L423.1,173.7z"/>
			</g>
			<g>
				<polygon class="st2" points="400,221.3 441.7,240.4 451.3,216 				"/>
				<path class="st2" d="M451.3,216L451.3,216 M451.3,216l-9.6,24.4L400,221.3L451.3,216 M451.3,211.9c0,0-0.1,0-0.1,0
					c-0.1,0-0.2,0-0.4,0l-51.2,5.3c-1.9,0.2-3.4,1.6-3.7,3.4c-0.3,1.8,0.7,3.7,2.4,4.4l41.7,19.1c0.5,0.3,1.1,0.4,1.7,0.4
					c0.5,0,1.1-0.1,1.5-0.3c1.1-0.4,1.9-1.3,2.3-2.3l9.5-24.3c0.2-0.5,0.3-1.1,0.3-1.7C455.5,213.8,453.6,211.9,451.3,211.9
					C451.3,211.9,451.3,211.9,451.3,211.9L451.3,211.9z M451.3,220.2L451.3,220.2L451.3,220.2L451.3,220.2z"/>
			</g>
			<g>
				<polygon class="st2" points="388.2,234.7 421,248.5 404,268 				"/>
				<path class="st2" d="M388.2,234.7l32.8,13.8L404,268L388.2,234.7 M388.2,230.6c-1.1,0-2.2,0.4-3,1.3c-1.2,1.2-1.5,3.1-0.7,4.6
					l15.8,33.3c0.6,1.3,1.8,2.1,3.2,2.3c0.2,0,0.4,0,0.6,0c1.2,0,2.3-0.5,3.1-1.4l16.9-19.5c0.9-1,1.2-2.4,0.9-3.7
					c-0.3-1.3-1.2-2.4-2.4-2.9l-32.8-13.8C389.3,230.7,388.7,230.6,388.2,230.6L388.2,230.6z"/>
			</g>
		</g>
		<g>
			<g>
				<polygon class="st2" points="42,126.6 4.1,130.5 17,110.3 				"/>
				<path class="st2" d="M17,110.3L42,126.6l-37.9,3.9L17,110.3 M17,106.2c-0.3,0-0.6,0-0.9,0.1c-1.1,0.2-2,0.9-2.6,1.8L0.6,128.3
					c-0.9,1.3-0.9,3,0,4.4c0.8,1.2,2.1,2,3.5,2c0.1,0,0.3,0,0.4,0l37.9-3.9c1.7-0.2,3.2-1.4,3.6-3.1s-0.3-3.5-1.8-4.4l-25.1-16.3
					C18.5,106.4,17.8,106.2,17,106.2L17,106.2z"/>
			</g>
			<g>
				<polygon class="st2" points="55.1,116.3 32,84 59.5,75.4 				"/>
				<path class="st2" d="M59.5,75.4l-4.4,41L32,84L59.5,75.4 M59.5,71.2c-0.4,0-0.8,0.1-1.2,0.2L30.8,80c-1.3,0.4-2.3,1.4-2.7,2.6
					c-0.4,1.3-0.2,2.6,0.6,3.7l23.1,32.4c0.8,1.1,2.1,1.7,3.4,1.7c0.3,0,0.7,0,1.1-0.1c1.7-0.4,2.9-1.9,3.1-3.6l4.4-41
					c0.1-1.4-0.4-2.8-1.5-3.6C61.4,71.5,60.5,71.2,59.5,71.2L59.5,71.2z M59.5,79.5L59.5,79.5L59.5,79.5L59.5,79.5z"/>
			</g>
		</g>
		<g class="st3">
			<path class="st2" d="M367.2,137.4C347.9,70.7,289.3,19.5,216,13.1C120.7,4.7,36.7,75.1,28.3,170.4c-0.5,6-0.7,11.9-0.7,17.8
				c-7.2,11.6-11.8,25.1-13.1,39.6c-4.1,46.4,27.5,87.7,72,97l35.7,61c3.1,5.3,7.4,4.9,9.4-0.9l12.7-35.6
				c13.1,4.5,26.8,7.9,41.2,8.8c125.5,7.3,164.5-84.8,164.5-84.8c3.4-5.8,6.5-11.9,9.3-18.1c25.4-7.5,44.2-30.7,45-58.6
				C405.2,170.4,389.8,147.5,367.2,137.4z"/>
			<path class="st2" d="M200.6,12.4c5.1,0,10.2,0.2,15.4,0.7c73.3,6.4,131.9,57.7,151.2,124.4c22.5,10.1,38,33,37.2,59.2
				c-0.8,27.9-19.6,51.1-45,58.6c-2.7,6.3-5.8,12.3-9.3,18.1c0,0-36,85.2-150.5,85.2c-4.5,0-9.2-0.1-14-0.4
				c-14.4-0.8-28.2-4.3-41.2-8.8l-12.7,35.6c-1.1,3.1-2.8,4.6-4.6,4.6c-1.6,0-3.3-1.2-4.8-3.7l-35.7-61c-44.5-9.3-76.1-50.6-72-97
				c1.3-14.5,5.9-28,13.1-39.6c-0.1-5.9,0.1-11.8,0.7-17.8C36.2,80.3,111.8,12.4,200.6,12.4 M200.6,8.3
				c-44.1,0-86.5,16.4-119.2,46.3c-33,30-53.2,71-57.2,115.5c-0.5,5.7-0.7,11.4-0.7,17.1c-7.4,12.4-11.8,26-13.1,40.4
				c-4.2,47.4,27.3,90.5,73.4,101l34.8,59.4c2.9,5,6.5,5.8,8.4,5.8c1.8,0,6.1-0.7,8.5-7.4l11.4-31.8c13.8,4.5,26.5,7,38.5,7.7
				c4.8,0.3,9.6,0.4,14.2,0.4c26.6,0,51.3-4.6,73.4-13.6c17.7-7.3,33.7-17.4,47.6-30.1c22.6-20.6,32-41.1,33.2-43.8
				c3.1-5.4,6-11,8.6-16.6c26.9-8.8,45.3-33.4,46.1-61.8c0.7-26.6-14.1-50.8-37.9-62.2c-10-33.2-29.4-62.6-56.1-85
				C286.6,26.2,252.7,12.2,216.3,9C211.1,8.5,205.8,8.3,200.6,8.3L200.6,8.3z"/>
		</g>
	</g>
	<g>
		<g>
			<circle class="st4" cx="346.1" cy="184" r="63.4"/>
			<g>
				<path class="st4" d="M219.5,0.7c-96-8.4-180.7,62.6-189.2,158.6c-0.5,6-0.7,12-0.7,18c-7.2,11.7-11.9,25.3-13.2,39.9
					C12.4,264,44.2,305.6,89.1,315l36,61.4c3.1,5.4,7.4,5,9.5-0.9l12.8-35.9c13.2,4.5,27.1,7.6,41.5,8.8
					c96,8.4,180.7-62.6,189.2-158.6C386.6,93.8,315.6,9.1,219.5,0.7z"/>
				<g>
					<g>
						<path class="st5" d="M89.5,87.8c-0.9-0.1-1.7-0.4-2.5-1c-2.4-1.7-3-5.1-1.3-7.6c0.6-0.8,56.6-78.3,149.9-52.2
							c2.9,0.8,4.6,3.8,3.8,6.7c-0.8,2.9-3.8,4.6-6.7,3.8c-85.8-24-136,45-138.1,48C93.4,87.2,91.4,88,89.5,87.8z"/>
					</g>
					<path class="st5" d="M266.5,40.9c-0.5,3.9-4,6.6-7.8,6.1c-3.9-0.5-6.6-4-6.1-7.8c0.5-3.9,4-6.6,7.8-6.1S267,37,266.5,40.9z"/>
				</g>
			</g>
			<g>
				<g class="st6">
					<path class="st35" d="M161.4,78.4l-12.1,2.2l-1.9-10.4l35.3-6.5l1.9,10.4l-12,2.2l6.6,35.9l-11.1,2L161.4,78.4z"/>
					<path class="st35" d="M218.8,68l6.6,35.9l-10.2,1.9l-0.7-3.8c-1.8,3.4-4.8,5.5-8.2,6.1c-7.5,1.4-13.9-2.7-15.9-14l-3.7-20
						l10.7-2l3.3,18c1,5.6,3.3,7.4,6.5,6.8c3.1-0.6,5.3-3.5,4.2-9.5L208.2,70L218.8,68z"/>
					<path class="st35" d="M110.5,162.6l3.8,20.5l-10.7,2l-3.4-18.5c-0.9-5.2-3.1-7-6-6.5c-3.1,0.6-4.9,3.4-3.9,9l3.3,17.8l-10.7,2
						l-3.4-18.5c-0.9-5.2-3.1-7-6-6.5c-3.1,0.6-4.9,3.4-3.9,9l3.3,17.8l-10.7,2l-6.6-35.9l10.2-1.9l0.7,3.8c1.8-3.3,4.7-5.4,8.3-6
						c4.2-0.8,8,0.4,10.9,3.8c1.8-4,5.2-6.8,9.5-7.6C102.4,147.6,108.5,151.5,110.5,162.6z"/>
					<path class="st35" d="M115.4,164.3c-2-10.8,3.9-19.8,13.8-21.6c10.1-1.8,18.6,4.5,20.6,15.3c2,10.8-3.7,19.9-13.8,21.7
						C126.1,181.5,117.4,175.1,115.4,164.3z M139,160c-1-5.4-4.3-8-8-7.3c-3.6,0.7-5.9,4.2-4.9,9.6c1,5.5,4.4,8.1,8,7.4
						C137.8,169.1,140,165.5,139,160z"/>
					<path class="st35" d="M205.5,145.2l3.8,20.5l-10.7,2l-3.4-18.5c-0.9-5.2-3.1-7-6-6.5c-3.1,0.6-4.9,3.4-3.9,9l3.3,17.8l-10.7,2
						l-3.4-18.5c-0.9-5.2-3.1-7-6-6.5c-3.1,0.6-4.9,3.4-3.9,9l3.3,17.8l-10.7,2l-6.6-35.9l10.2-1.9l0.7,3.8c1.8-3.3,4.7-5.4,8.3-6
						c4.2-0.8,8,0.4,10.9,3.8c1.8-4,5.2-6.8,9.5-7.6C197.3,130.2,203.4,134.1,205.5,145.2z"/>
					<path class="st35" d="M243.9,144.1l-22.2,4.1c1.6,3.5,4.6,5.1,8.5,4.4c3-0.5,4.8-1.9,6.5-4.4l6.9,5.9
						c-2.2,4.4-6.1,7.1-11.9,8.2c-10.9,2-19.3-4.6-21.3-15.3c-2-10.8,3.8-19.8,13.4-21.5c9-1.6,17.5,3.8,19.7,15.6
						C243.6,141.9,243.7,143.1,243.9,144.1z M220.3,141.6l12.5-2.3c-1.3-3.7-4-5.6-7.4-5C222.1,134.9,220.3,137.7,220.3,141.6z"/>
					<path class="st35" d="M279.5,131.7l3.8,20.5l-10.7,2l-3.4-18.5c-0.9-5.2-3.3-7-6.3-6.4c-3.4,0.6-5.6,3.6-4.5,9.6l3.2,17.3
						l-10.7,2l-6.6-35.9l10.2-1.9l0.7,3.9c1.9-3.4,5-5.6,8.8-6.3C271.2,116.7,277.5,120.5,279.5,131.7z"/>
					<path class="st35" d="M309.9,145.8c-1.6,1.7-4.2,2.9-7,3.4c-7.8,1.4-13.2-2.2-14.9-11.4l-2.2-12l-4.4,0.8l-1.7-9.4l4.4-0.8
						l-1.7-9.3l10.7-2l1.7,9.3l7-1.3l1.7,9.4l-7,1.3l2.2,11.9c0.5,2.6,2,3.9,4,3.5c1.2-0.2,2.3-0.8,3.1-1.7L309.9,145.8z"/>
					<path class="st35" d="M307.3,129.2c-2-10.8,3.9-19.8,13.8-21.6c10.1-1.8,18.6,4.5,20.6,15.3c2,10.8-3.7,19.9-13.8,21.7
						C318,146.4,309.3,140,307.3,129.2z M330.9,124.8c-1-5.4-4.3-8-8-7.3c-3.6,0.7-5.9,4.2-4.9,9.6c1,5.5,4.4,8.1,8,7.4
						C329.8,133.9,331.9,130.3,330.9,124.8z"/>
					<path class="st35" d="M67.5,206.9l10.7,58.5l-12.1,2.2l-0.8-4.3c-1.8,3.8-5.1,6.1-9.7,6.9c-9.9,1.8-19.5-5.2-21.9-18.9
						c-2.5-13.6,4-23.5,13.9-25.3c4.2-0.8,7.9,0,10.9,2.6l-3.6-19.5L67.5,206.9z M61.8,246.3c-1.2-6.5-5.1-9.5-9.4-8.7
						c-4.4,0.8-7,5-5.8,11.5c1.2,6.5,5.2,9.6,9.5,8.9C60.4,257.1,63,252.8,61.8,246.3z"/>
					<path class="st35" d="M119.1,239.8l-26.4,4.8c1.9,4.1,5.5,6.1,10.2,5.2c3.6-0.7,5.7-2.3,7.7-5.2l8.2,7
						c-2.6,5.2-7.3,8.5-14.2,9.8c-12.9,2.4-23-5.5-25.4-18.3c-2.4-12.9,4.5-23.6,15.9-25.7c10.7-2,20.9,4.5,23.5,18.6
						C118.9,237.2,119,238.6,119.1,239.8z M91.1,236.8l14.9-2.7c-1.5-4.4-4.8-6.7-8.8-6C93.2,228.8,91,232.1,91.1,236.8z"/>
					<path class="st35" d="M134.4,197.9c-0.8-4.5,1.6-8.5,6.3-9.4c4.7-0.9,8.4,1.8,9.2,6.3c0.9,4.7-1.6,8.8-6.3,9.6
						C138.9,205.3,135.2,202.4,134.4,197.9z M138.1,210.3l12.7-2.3l7.8,42.7l-12.7,2.3L138.1,210.3z"/>
					<path class="st35" d="M200.1,217.9l4.5,24.4l-12.7,2.3l-4-22c-1.1-6.1-3.9-8.3-7.6-7.7c-4.1,0.7-6.7,4.3-5.4,11.4l3.8,20.7
						l-12.7,2.3l-7.8-42.7l12.1-2.2l0.9,4.7c2.2-4.1,6-6.6,10.5-7.5C190.1,200.1,197.7,204.6,200.1,217.9z"/>
					<path class="st35" d="M241.3,191.4l-7.2,45.5l-13.1,2.4l-22.8-40l13.1-2.4l13.5,24.5l4.4-27.8L241.3,191.4z"/>
					<path class="st35" d="M284.1,209.6l-26.4,4.8c1.9,4.1,5.5,6.1,10.2,5.2c3.6-0.7,5.7-2.3,7.7-5.2l8.2,7
						c-2.6,5.2-7.3,8.5-14.2,9.8c-12.9,2.4-23-5.5-25.4-18.3c-2.4-12.9,4.5-23.6,15.9-25.7c10.7-2,20.9,4.5,23.5,18.6
						C283.8,207,284,208.4,284.1,209.6z M256.1,206.6l14.9-2.7c-1.5-4.4-4.8-6.7-8.8-6S256,202,256.1,206.6z"/>
					<path class="st35" d="M308.8,178.4l2.5,13.5c-1.2,0.1-2,0.1-2.9,0.3c-5.2,0.9-8.1,4.7-6.8,12.2l3.6,19.6l-12.7,2.3l-7.8-42.7
						l12.1-2.2l0.9,5.1C299.6,182.1,303.4,179.3,308.8,178.4z"/>
					<path class="st35" d="M346.9,214.5c-1.9,2.1-5,3.5-8.4,4.1c-9.3,1.7-15.7-2.7-17.7-13.6l-2.6-14.4l-5.3,1l-2-11.2l5.3-1
						l-2-11.1l12.7-2.3l2,11.1l8.3-1.5l2,11.2l-8.3,1.5l2.6,14.2c0.6,3.2,2.4,4.6,4.7,4.2c1.4-0.3,2.7-1,3.6-2.1L346.9,214.5z"/>
					<path class="st35" d="M339.5,160.4c-0.8-4.5,1.6-8.5,6.3-9.4c4.7-0.9,8.4,1.8,9.2,6.3c0.9,4.7-1.6,8.8-6.3,9.6
						C344.1,167.8,340.3,164.8,339.5,160.4z M343.2,172.8l12.7-2.3l7.8,42.7l-12.7,2.3L343.2,172.8z"/>
					<path class="st35" d="M387.4,164l2.5,13.5c-1.2,0.1-2,0.1-2.9,0.3c-5.2,0.9-8.1,4.7-6.8,12.2l3.6,19.6l-12.7,2.3l-7.8-42.7
						l12.1-2.2l0.9,5.1C378.2,167.7,382.1,165,387.4,164z"/>
					<path class="st36" d="M161.4,78.4l-12.1,2.2l-1.9-10.4l35.3-6.5l1.9,10.4l-12,2.2l6.6,35.9l-11.1,2L161.4,78.4z"/>
					<path class="st36" d="M218.8,68l6.6,35.9l-10.2,1.9l-0.7-3.8c-1.8,3.4-4.8,5.5-8.2,6.1c-7.5,1.4-13.9-2.7-15.9-14l-3.7-20
						l10.7-2l3.3,18c1,5.6,3.3,7.4,6.5,6.8c3.1-0.6,5.3-3.5,4.2-9.5L208.2,70L218.8,68z"/>
					<path class="st36" d="M110.5,162.6l3.8,20.5l-10.7,2l-3.4-18.5c-0.9-5.2-3.1-7-6-6.5c-3.1,0.6-4.9,3.4-3.9,9l3.3,17.8l-10.7,2
						l-3.4-18.5c-0.9-5.2-3.1-7-6-6.5c-3.1,0.6-4.9,3.4-3.9,9l3.3,17.8l-10.7,2l-6.6-35.9l10.2-1.9l0.7,3.8c1.8-3.3,4.7-5.4,8.3-6
						c4.2-0.8,8,0.4,10.9,3.8c1.8-4,5.2-6.8,9.5-7.6C102.4,147.6,108.5,151.5,110.5,162.6z"/>
					<path class="st36" d="M115.4,164.3c-2-10.8,3.9-19.8,13.8-21.6c10.1-1.8,18.6,4.5,20.6,15.3c2,10.8-3.7,19.9-13.8,21.7
						C126.1,181.5,117.4,175.1,115.4,164.3z M139,160c-1-5.4-4.3-8-8-7.3c-3.6,0.7-5.9,4.2-4.9,9.6c1,5.5,4.4,8.1,8,7.4
						C137.8,169.1,140,165.5,139,160z"/>
					<path class="st36" d="M205.5,145.2l3.8,20.5l-10.7,2l-3.4-18.5c-0.9-5.2-3.1-7-6-6.5c-3.1,0.6-4.9,3.4-3.9,9l3.3,17.8l-10.7,2
						l-3.4-18.5c-0.9-5.2-3.1-7-6-6.5c-3.1,0.6-4.9,3.4-3.9,9l3.3,17.8l-10.7,2l-6.6-35.9l10.2-1.9l0.7,3.8c1.8-3.3,4.7-5.4,8.3-6
						c4.2-0.8,8,0.4,10.9,3.8c1.8-4,5.2-6.8,9.5-7.6C197.3,130.2,203.4,134.1,205.5,145.2z"/>
					<path class="st36" d="M243.9,144.1l-22.2,4.1c1.6,3.5,4.6,5.1,8.5,4.4c3-0.5,4.8-1.9,6.5-4.4l6.9,5.9
						c-2.2,4.4-6.1,7.1-11.9,8.2c-10.9,2-19.3-4.6-21.3-15.3c-2-10.8,3.8-19.8,13.4-21.5c9-1.6,17.5,3.8,19.7,15.6
						C243.6,141.9,243.7,143.1,243.9,144.1z M220.3,141.6l12.5-2.3c-1.3-3.7-4-5.6-7.4-5C222.1,134.9,220.3,137.7,220.3,141.6z"/>
					<path class="st36" d="M279.5,131.7l3.8,20.5l-10.7,2l-3.4-18.5c-0.9-5.2-3.3-7-6.3-6.4c-3.4,0.6-5.6,3.6-4.5,9.6l3.2,17.3
						l-10.7,2l-6.6-35.9l10.2-1.9l0.7,3.9c1.9-3.4,5-5.6,8.8-6.3C271.2,116.7,277.5,120.5,279.5,131.7z"/>
					<path class="st36" d="M309.9,145.8c-1.6,1.7-4.2,2.9-7,3.4c-7.8,1.4-13.2-2.2-14.9-11.4l-2.2-12l-4.4,0.8l-1.7-9.4l4.4-0.8
						l-1.7-9.3l10.7-2l1.7,9.3l7-1.3l1.7,9.4l-7,1.3l2.2,11.9c0.5,2.6,2,3.9,4,3.5c1.2-0.2,2.3-0.8,3.1-1.7L309.9,145.8z"/>
					<path class="st36" d="M307.3,129.2c-2-10.8,3.9-19.8,13.8-21.6c10.1-1.8,18.6,4.5,20.6,15.3c2,10.8-3.7,19.9-13.8,21.7
						C318,146.4,309.3,140,307.3,129.2z M330.9,124.8c-1-5.4-4.3-8-8-7.3c-3.6,0.7-5.9,4.2-4.9,9.6c1,5.5,4.4,8.1,8,7.4
						C329.8,133.9,331.9,130.3,330.9,124.8z"/>
					<path class="st36" d="M67.5,206.9l10.7,58.5l-12.1,2.2l-0.8-4.3c-1.8,3.8-5.1,6.1-9.7,6.9c-9.9,1.8-19.5-5.2-21.9-18.9
						c-2.5-13.6,4-23.5,13.9-25.3c4.2-0.8,7.9,0,10.9,2.6l-3.6-19.5L67.5,206.9z M61.8,246.3c-1.2-6.5-5.1-9.5-9.4-8.7
						c-4.4,0.8-7,5-5.8,11.5c1.2,6.5,5.2,9.6,9.5,8.9C60.4,257.1,63,252.8,61.8,246.3z"/>
					<path class="st36" d="M119.1,239.8l-26.4,4.8c1.9,4.1,5.5,6.1,10.2,5.2c3.6-0.7,5.7-2.3,7.7-5.2l8.2,7
						c-2.6,5.2-7.3,8.5-14.2,9.8c-12.9,2.4-23-5.5-25.4-18.3c-2.4-12.9,4.5-23.6,15.9-25.7c10.7-2,20.9,4.5,23.5,18.6
						C118.9,237.2,119,238.6,119.1,239.8z M91.1,236.8l14.9-2.7c-1.5-4.4-4.8-6.7-8.8-6C93.2,228.8,91,232.1,91.1,236.8z"/>
					<path class="st36" d="M134.4,197.9c-0.8-4.5,1.6-8.5,6.3-9.4c4.7-0.9,8.4,1.8,9.2,6.3c0.9,4.7-1.6,8.8-6.3,9.6
						C138.9,205.3,135.2,202.4,134.4,197.9z M138.1,210.3l12.7-2.3l7.8,42.7l-12.7,2.3L138.1,210.3z"/>
					<path class="st36" d="M200.1,217.9l4.5,24.4l-12.7,2.3l-4-22c-1.1-6.1-3.9-8.3-7.6-7.7c-4.1,0.7-6.7,4.3-5.4,11.4l3.8,20.7
						l-12.7,2.3l-7.8-42.7l12.1-2.2l0.9,4.7c2.2-4.1,6-6.6,10.5-7.5C190.1,200.1,197.7,204.6,200.1,217.9z"/>
					<path class="st36" d="M241.3,191.4l-7.2,45.5l-13.1,2.4l-22.8-40l13.1-2.4l13.5,24.5l4.4-27.8L241.3,191.4z"/>
					<path class="st36" d="M284.1,209.6l-26.4,4.8c1.9,4.1,5.5,6.1,10.2,5.2c3.6-0.7,5.7-2.3,7.7-5.2l8.2,7
						c-2.6,5.2-7.3,8.5-14.2,9.8c-12.9,2.4-23-5.5-25.4-18.3c-2.4-12.9,4.5-23.6,15.9-25.7c10.7-2,20.9,4.5,23.5,18.6
						C283.8,207,284,208.4,284.1,209.6z M256.1,206.6l14.9-2.7c-1.5-4.4-4.8-6.7-8.8-6S256,202,256.1,206.6z"/>
					<path class="st36" d="M308.8,178.4l2.5,13.5c-1.2,0.1-2,0.1-2.9,0.3c-5.2,0.9-8.1,4.7-6.8,12.2l3.6,19.6l-12.7,2.3l-7.8-42.7
						l12.1-2.2l0.9,5.1C299.6,182.1,303.4,179.3,308.8,178.4z"/>
					<path class="st36" d="M346.9,214.5c-1.9,2.1-5,3.5-8.4,4.1c-9.3,1.7-15.7-2.7-17.7-13.6l-2.6-14.4l-5.3,1l-2-11.2l5.3-1
						l-2-11.1l12.7-2.3l2,11.1l8.3-1.5l2,11.2l-8.3,1.5l2.6,14.2c0.6,3.2,2.4,4.6,4.7,4.2c1.4-0.3,2.7-1,3.6-2.1L346.9,214.5z"/>
					<path class="st36" d="M339.5,160.4c-0.8-4.5,1.6-8.5,6.3-9.4c4.7-0.9,8.4,1.8,9.2,6.3c0.9,4.7-1.6,8.8-6.3,9.6
						C344.1,167.8,340.3,164.8,339.5,160.4z M343.2,172.8l12.7-2.3l7.8,42.7l-12.7,2.3L343.2,172.8z"/>
					<path class="st36" d="M387.4,164l2.5,13.5c-1.2,0.1-2,0.1-2.9,0.3c-5.2,0.9-8.1,4.7-6.8,12.2l3.6,19.6l-12.7,2.3l-7.8-42.7
						l12.1-2.2l0.9,5.1C378.2,167.7,382.1,165,387.4,164z"/>
					<path class="st35" d="M161.4,78.4l-12.1,2.2l-1.9-10.4l35.3-6.5l1.9,10.4l-12,2.2l6.6,35.9l-11.1,2L161.4,78.4z"/>
					<path class="st35" d="M218.8,68l6.6,35.9l-10.2,1.9l-0.7-3.8c-1.8,3.4-4.8,5.5-8.2,6.1c-7.5,1.4-13.9-2.7-15.9-14l-3.7-20
						l10.7-2l3.3,18c1,5.6,3.3,7.4,6.5,6.8c3.1-0.6,5.3-3.5,4.2-9.5L208.2,70L218.8,68z"/>
					<path class="st35" d="M110.5,162.6l3.8,20.5l-10.7,2l-3.4-18.5c-0.9-5.2-3.1-7-6-6.5c-3.1,0.6-4.9,3.4-3.9,9l3.3,17.8l-10.7,2
						l-3.4-18.5c-0.9-5.2-3.1-7-6-6.5c-3.1,0.6-4.9,3.4-3.9,9l3.3,17.8l-10.7,2l-6.6-35.9l10.2-1.9l0.7,3.8c1.8-3.3,4.7-5.4,8.3-6
						c4.2-0.8,8,0.4,10.9,3.8c1.8-4,5.2-6.8,9.5-7.6C102.4,147.6,108.5,151.5,110.5,162.6z"/>
					<path class="st35" d="M115.4,164.3c-2-10.8,3.9-19.8,13.8-21.6c10.1-1.8,18.6,4.5,20.6,15.3c2,10.8-3.7,19.9-13.8,21.7
						C126.1,181.5,117.4,175.1,115.4,164.3z M139,160c-1-5.4-4.3-8-8-7.3c-3.6,0.7-5.9,4.2-4.9,9.6c1,5.5,4.4,8.1,8,7.4
						C137.8,169.1,140,165.5,139,160z"/>
					<path class="st35" d="M205.5,145.2l3.8,20.5l-10.7,2l-3.4-18.5c-0.9-5.2-3.1-7-6-6.5c-3.1,0.6-4.9,3.4-3.9,9l3.3,17.8l-10.7,2
						l-3.4-18.5c-0.9-5.2-3.1-7-6-6.5c-3.1,0.6-4.9,3.4-3.9,9l3.3,17.8l-10.7,2l-6.6-35.9l10.2-1.9l0.7,3.8c1.8-3.3,4.7-5.4,8.3-6
						c4.2-0.8,8,0.4,10.9,3.8c1.8-4,5.2-6.8,9.5-7.6C197.3,130.2,203.4,134.1,205.5,145.2z"/>
					<path class="st35" d="M243.9,144.1l-22.2,4.1c1.6,3.5,4.6,5.1,8.5,4.4c3-0.5,4.8-1.9,6.5-4.4l6.9,5.9
						c-2.2,4.4-6.1,7.1-11.9,8.2c-10.9,2-19.3-4.6-21.3-15.3c-2-10.8,3.8-19.8,13.4-21.5c9-1.6,17.5,3.8,19.7,15.6
						C243.6,141.9,243.7,143.1,243.9,144.1z M220.3,141.6l12.5-2.3c-1.3-3.7-4-5.6-7.4-5C222.1,134.9,220.3,137.7,220.3,141.6z"/>
					<path class="st35" d="M279.5,131.7l3.8,20.5l-10.7,2l-3.4-18.5c-0.9-5.2-3.3-7-6.3-6.4c-3.4,0.6-5.6,3.6-4.5,9.6l3.2,17.3
						l-10.7,2l-6.6-35.9l10.2-1.9l0.7,3.9c1.9-3.4,5-5.6,8.8-6.3C271.2,116.7,277.5,120.5,279.5,131.7z"/>
					<path class="st35" d="M309.9,145.8c-1.6,1.7-4.2,2.9-7,3.4c-7.8,1.4-13.2-2.2-14.9-11.4l-2.2-12l-4.4,0.8l-1.7-9.4l4.4-0.8
						l-1.7-9.3l10.7-2l1.7,9.3l7-1.3l1.7,9.4l-7,1.3l2.2,11.9c0.5,2.6,2,3.9,4,3.5c1.2-0.2,2.3-0.8,3.1-1.7L309.9,145.8z"/>
					<path class="st35" d="M307.3,129.2c-2-10.8,3.9-19.8,13.8-21.6c10.1-1.8,18.6,4.5,20.6,15.3c2,10.8-3.7,19.9-13.8,21.7
						C318,146.4,309.3,140,307.3,129.2z M330.9,124.8c-1-5.4-4.3-8-8-7.3c-3.6,0.7-5.9,4.2-4.9,9.6c1,5.5,4.4,8.1,8,7.4
						C329.8,133.9,331.9,130.3,330.9,124.8z"/>
					<path class="st35" d="M67.5,206.9l10.7,58.5l-12.1,2.2l-0.8-4.3c-1.8,3.8-5.1,6.1-9.7,6.9c-9.9,1.8-19.5-5.2-21.9-18.9
						c-2.5-13.6,4-23.5,13.9-25.3c4.2-0.8,7.9,0,10.9,2.6l-3.6-19.5L67.5,206.9z M61.8,246.3c-1.2-6.5-5.1-9.5-9.4-8.7
						c-4.4,0.8-7,5-5.8,11.5c1.2,6.5,5.2,9.6,9.5,8.9C60.4,257.1,63,252.8,61.8,246.3z"/>
					<path class="st35" d="M119.1,239.8l-26.4,4.8c1.9,4.1,5.5,6.1,10.2,5.2c3.6-0.7,5.7-2.3,7.7-5.2l8.2,7
						c-2.6,5.2-7.3,8.5-14.2,9.8c-12.9,2.4-23-5.5-25.4-18.3c-2.4-12.9,4.5-23.6,15.9-25.7c10.7-2,20.9,4.5,23.5,18.6
						C118.9,237.2,119,238.6,119.1,239.8z M91.1,236.8l14.9-2.7c-1.5-4.4-4.8-6.7-8.8-6C93.2,228.8,91,232.1,91.1,236.8z"/>
					<path class="st35" d="M134.4,197.9c-0.8-4.5,1.6-8.5,6.3-9.4c4.7-0.9,8.4,1.8,9.2,6.3c0.9,4.7-1.6,8.8-6.3,9.6
						C138.9,205.3,135.2,202.4,134.4,197.9z M138.1,210.3l12.7-2.3l7.8,42.7l-12.7,2.3L138.1,210.3z"/>
					<path class="st35" d="M200.1,217.9l4.5,24.4l-12.7,2.3l-4-22c-1.1-6.1-3.9-8.3-7.6-7.7c-4.1,0.7-6.7,4.3-5.4,11.4l3.8,20.7
						l-12.7,2.3l-7.8-42.7l12.1-2.2l0.9,4.7c2.2-4.1,6-6.6,10.5-7.5C190.1,200.1,197.7,204.6,200.1,217.9z"/>
					<path class="st35" d="M241.3,191.4l-7.2,45.5l-13.1,2.4l-22.8-40l13.1-2.4l13.5,24.5l4.4-27.8L241.3,191.4z"/>
					<path class="st35" d="M284.1,209.6l-26.4,4.8c1.9,4.1,5.5,6.1,10.2,5.2c3.6-0.7,5.7-2.3,7.7-5.2l8.2,7
						c-2.6,5.2-7.3,8.5-14.2,9.8c-12.9,2.4-23-5.5-25.4-18.3c-2.4-12.9,4.5-23.6,15.9-25.7c10.7-2,20.9,4.5,23.5,18.6
						C283.8,207,284,208.4,284.1,209.6z M256.1,206.6l14.9-2.7c-1.5-4.4-4.8-6.7-8.8-6S256,202,256.1,206.6z"/>
					<path class="st35" d="M308.8,178.4l2.5,13.5c-1.2,0.1-2,0.1-2.9,0.3c-5.2,0.9-8.1,4.7-6.8,12.2l3.6,19.6l-12.7,2.3l-7.8-42.7
						l12.1-2.2l0.9,5.1C299.6,182.1,303.4,179.3,308.8,178.4z"/>
					<path class="st35" d="M346.9,214.5c-1.9,2.1-5,3.5-8.4,4.1c-9.3,1.7-15.7-2.7-17.7-13.6l-2.6-14.4l-5.3,1l-2-11.2l5.3-1
						l-2-11.1l12.7-2.3l2,11.1l8.3-1.5l2,11.2l-8.3,1.5l2.6,14.2c0.6,3.2,2.4,4.6,4.7,4.2c1.4-0.3,2.7-1,3.6-2.1L346.9,214.5z"/>
					<path class="st35" d="M339.5,160.4c-0.8-4.5,1.6-8.5,6.3-9.4c4.7-0.9,8.4,1.8,9.2,6.3c0.9,4.7-1.6,8.8-6.3,9.6
						C344.1,167.8,340.3,164.8,339.5,160.4z M343.2,172.8l12.7-2.3l7.8,42.7l-12.7,2.3L343.2,172.8z"/>
					<path class="st35" d="M387.4,164l2.5,13.5c-1.2,0.1-2,0.1-2.9,0.3c-5.2,0.9-8.1,4.7-6.8,12.2l3.6,19.6l-12.7,2.3l-7.8-42.7
						l12.1-2.2l0.9,5.1C378.2,167.7,382.1,165,387.4,164z"/>
				</g>
				<g>
					<g>
						<path class="st8" d="M164.4,74.7l-12.1,2.2l-1.9-10.4l35.3-6.5l1.9,10.4l-12,2.2l6.6,35.9l-11.1,2L164.4,74.7z"/>
						<path class="st8" d="M221.9,64.2l6.6,35.9l-10.2,1.9l-0.7-3.8c-1.8,3.4-4.8,5.5-8.2,6.1c-7.5,1.4-13.9-2.7-15.9-14l-3.7-20
							l10.7-2l3.3,18c1,5.6,3.3,7.4,6.5,6.8c3.1-0.6,5.3-3.5,4.2-9.5l-3.2-17.3L221.9,64.2z"/>
						<path class="st8" d="M113.5,158.8l3.8,20.5l-10.7,2l-3.4-18.5c-0.9-5.2-3.1-7-6-6.5c-3.1,0.6-4.9,3.4-3.9,9l3.3,17.8L86,185
							l-3.4-18.5c-0.9-5.2-3.1-7-6-6.5c-3.1,0.6-4.9,3.4-3.9,9l3.3,17.8l-10.7,2L58.7,153l10.2-1.9l0.7,3.8c1.8-3.3,4.7-5.4,8.3-6
							c4.2-0.8,8,0.4,10.9,3.8c1.8-4,5.2-6.8,9.5-7.6C105.4,143.8,111.5,147.7,113.5,158.8z"/>
						<path class="st8" d="M118.4,160.5c-2-10.8,3.9-19.8,13.8-21.6c10.1-1.8,18.6,4.5,20.6,15.3c2,10.8-3.7,19.9-13.8,21.7
							C129.1,177.8,120.4,171.4,118.4,160.5z M142,156.2c-1-5.4-4.3-8-8-7.3c-3.6,0.7-5.9,4.2-4.9,9.6c1,5.5,4.4,8.1,8,7.4
							C140.9,165.3,143,161.7,142,156.2z"/>
						<path class="st8" d="M208.5,141.4l3.8,20.5l-10.7,2l-3.4-18.5c-0.9-5.2-3.1-7-6-6.5c-3.1,0.6-4.9,3.4-3.9,9l3.3,17.8l-10.7,2
							l-3.4-18.5c-0.9-5.2-3.1-7-6-6.5c-3.1,0.6-4.9,3.4-3.9,9l3.3,17.8l-10.7,2l-6.6-35.9l10.2-1.9l0.7,3.8c1.8-3.3,4.7-5.4,8.3-6
							c4.2-0.8,8,0.4,10.9,3.8c1.8-4,5.2-6.8,9.5-7.6C200.3,126.4,206.5,130.3,208.5,141.4z"/>
						<path class="st8" d="M246.9,140.4l-22.2,4.1c1.6,3.5,4.6,5.1,8.5,4.4c3-0.5,4.8-1.9,6.5-4.4l6.9,5.9
							c-2.2,4.4-6.1,7.1-11.9,8.2c-10.9,2-19.3-4.6-21.3-15.3c-2-10.8,3.8-19.8,13.4-21.5c9-1.6,17.5,3.8,19.7,15.6
							C246.7,138.1,246.8,139.4,246.9,140.4z M223.4,137.8l12.5-2.3c-1.3-3.7-4-5.6-7.4-5C225.2,131.1,223.3,133.9,223.4,137.8z"/>
						<path class="st8" d="M282.6,127.9l3.8,20.5l-10.7,2l-3.4-18.5c-0.9-5.2-3.3-7-6.3-6.4c-3.4,0.6-5.6,3.6-4.5,9.6l3.2,17.3
							l-10.7,2l-6.6-35.9l10.2-1.9l0.7,3.9c1.9-3.4,5-5.6,8.8-6.3C274.2,112.9,280.5,116.8,282.6,127.9z"/>
						<path class="st8" d="M312.9,142c-1.6,1.7-4.2,2.9-7,3.4c-7.8,1.4-13.2-2.2-14.9-11.4l-2.2-12l-4.4,0.8l-1.7-9.4l4.4-0.8
							l-1.7-9.3l10.7-2l1.7,9.3l7-1.3l1.7,9.4l-7,1.3l2.2,11.9c0.5,2.6,2,3.9,4,3.5c1.2-0.2,2.3-0.8,3.1-1.7L312.9,142z"/>
						<path class="st8" d="M310.3,125.4c-2-10.8,3.9-19.8,13.8-21.6c10.1-1.8,18.6,4.5,20.6,15.3c2,10.8-3.7,19.9-13.8,21.7
							C321,142.7,312.3,136.2,310.3,125.4z M334,121.1c-1-5.4-4.3-8-8-7.3c-3.6,0.7-5.9,4.2-4.9,9.6c1,5.5,4.4,8.1,8,7.4
							C332.8,130.2,335,126.6,334,121.1z"/>
						<path class="st8" d="M70.6,203.2l10.7,58.5l-12.1,2.2l-0.8-4.3c-1.8,3.8-5.1,6.1-9.7,6.9c-9.9,1.8-19.5-5.2-21.9-18.9
							c-2.5-13.6,4-23.5,13.9-25.3c4.2-0.8,7.9,0,10.9,2.6l-3.6-19.5L70.6,203.2z M64.8,242.5c-1.2-6.5-5.1-9.5-9.4-8.7
							c-4.4,0.8-7,5-5.8,11.5c1.2,6.5,5.2,9.6,9.5,8.9C63.4,253.4,66,249.1,64.8,242.5z"/>
						<path class="st8" d="M122.1,236l-26.4,4.8c1.9,4.1,5.5,6.1,10.2,5.2c3.6-0.7,5.7-2.3,7.7-5.2l8.2,7c-2.6,5.2-7.3,8.5-14.2,9.8
							c-12.9,2.4-23-5.5-25.4-18.3c-2.4-12.9,4.5-23.6,15.9-25.7c10.7-2,20.9,4.5,23.5,18.6C121.9,233.4,122,234.8,122.1,236z
							 M94.1,233l14.9-2.7c-1.5-4.4-4.8-6.7-8.8-6C96.2,225,94,228.4,94.1,233z"/>
						<path class="st8" d="M137.4,194.1c-0.8-4.5,1.6-8.5,6.3-9.4c4.7-0.9,8.4,1.8,9.2,6.3c0.9,4.7-1.6,8.8-6.3,9.6
							C141.9,201.5,138.2,198.6,137.4,194.1z M141.1,206.6l12.7-2.3l7.8,42.7l-12.7,2.3L141.1,206.6z"/>
						<path class="st8" d="M203.1,214.1l4.5,24.4l-12.7,2.3l-4-22c-1.1-6.1-3.9-8.3-7.6-7.7c-4.1,0.7-6.7,4.3-5.4,11.4l3.8,20.7
							l-12.7,2.3l-7.8-42.7l12.1-2.2l0.9,4.7c2.2-4.1,6-6.6,10.5-7.5C193.1,196.3,200.7,200.9,203.1,214.1z"/>
						<path class="st8" d="M244.3,187.7l-7.2,45.5l-13.1,2.4l-22.8-40l13.1-2.4l13.5,24.5l4.4-27.8L244.3,187.7z"/>
						<path class="st8" d="M287.1,205.8l-26.4,4.8c1.9,4.1,5.5,6.1,10.2,5.2c3.6-0.7,5.7-2.3,7.7-5.2l8.2,7
							c-2.6,5.2-7.3,8.5-14.2,9.8c-12.9,2.4-23-5.5-25.4-18.3c-2.4-12.9,4.5-23.6,15.9-25.7c10.7-2,20.9,4.5,23.5,18.6
							C286.9,203.2,287,204.6,287.1,205.8z M259.1,202.8l14.9-2.7c-1.5-4.4-4.8-6.7-8.8-6S259,198.2,259.1,202.8z"/>
						<path class="st8" d="M311.8,174.6l2.5,13.5c-1.2,0.1-2,0.1-2.9,0.3c-5.2,0.9-8.1,4.7-6.8,12.2l3.6,19.6l-12.7,2.3l-7.8-42.7
							l12.1-2.2l0.9,5.1C302.6,178.3,306.5,175.6,311.8,174.6z"/>
						<path class="st8" d="M349.9,210.7c-1.9,2.1-5,3.5-8.4,4.1c-9.3,1.7-15.7-2.7-17.7-13.6l-2.6-14.4l-5.3,1l-2-11.2l5.3-1
							l-2-11.1l12.7-2.3l2,11.1l8.3-1.5l2,11.2l-8.3,1.5l2.6,14.2c0.6,3.2,2.4,4.6,4.7,4.2c1.4-0.3,2.7-1,3.6-2.1L349.9,210.7z"/>
						<path class="st8" d="M342.5,156.6c-0.8-4.5,1.6-8.5,6.3-9.4c4.7-0.9,8.4,1.8,9.2,6.3c0.9,4.7-1.6,8.8-6.3,9.6
							C347.1,164,343.4,161.1,342.5,156.6z M346.3,169l12.7-2.3l7.8,42.7l-12.7,2.3L346.3,169z"/>
						<path class="st8" d="M390.4,160.2l2.5,13.5c-1.2,0.1-2,0.1-2.9,0.3c-5.2,0.9-8.1,4.7-6.8,12.2l3.6,19.6l-12.7,2.3l-7.8-42.7
							l12.1-2.2l0.9,5.1C381.2,163.9,385.1,161.2,390.4,160.2z"/>
					</g>
					<g>
						<path class="st37" d="M164.4,74.7l-12.1,2.2l-1.9-10.4l35.3-6.5l1.9,10.4l-12,2.2l6.6,35.9l-11.1,2L164.4,74.7z"/>
						<path class="st37" d="M221.9,64.2l6.6,35.9l-10.2,1.9l-0.7-3.8c-1.8,3.4-4.8,5.5-8.2,6.1c-7.5,1.4-13.9-2.7-15.9-14l-3.7-20
							l10.7-2l3.3,18c1,5.6,3.3,7.4,6.5,6.8c3.1-0.6,5.3-3.5,4.2-9.5l-3.2-17.3L221.9,64.2z"/>
						<path class="st37" d="M113.5,158.8l3.8,20.5l-10.7,2l-3.4-18.5c-0.9-5.2-3.1-7-6-6.5c-3.1,0.6-4.9,3.4-3.9,9l3.3,17.8L86,185
							l-3.4-18.5c-0.9-5.2-3.1-7-6-6.5c-3.1,0.6-4.9,3.4-3.9,9l3.3,17.8l-10.7,2L58.7,153l10.2-1.9l0.7,3.8c1.8-3.3,4.7-5.4,8.3-6
							c4.2-0.8,8,0.4,10.9,3.8c1.8-4,5.2-6.8,9.5-7.6C105.4,143.8,111.5,147.7,113.5,158.8z"/>
						<path class="st37" d="M118.4,160.5c-2-10.8,3.9-19.8,13.8-21.6c10.1-1.8,18.6,4.5,20.6,15.3c2,10.8-3.7,19.9-13.8,21.7
							C129.1,177.8,120.4,171.4,118.4,160.5z M142,156.2c-1-5.4-4.3-8-8-7.3c-3.6,0.7-5.9,4.2-4.9,9.6c1,5.5,4.4,8.1,8,7.4
							C140.9,165.3,143,161.7,142,156.2z"/>
						<path class="st37" d="M208.5,141.4l3.8,20.5l-10.7,2l-3.4-18.5c-0.9-5.2-3.1-7-6-6.5c-3.1,0.6-4.9,3.4-3.9,9l3.3,17.8l-10.7,2
							l-3.4-18.5c-0.9-5.2-3.1-7-6-6.5c-3.1,0.6-4.9,3.4-3.9,9l3.3,17.8l-10.7,2l-6.6-35.9l10.2-1.9l0.7,3.8c1.8-3.3,4.7-5.4,8.3-6
							c4.2-0.8,8,0.4,10.9,3.8c1.8-4,5.2-6.8,9.5-7.6C200.3,126.4,206.5,130.3,208.5,141.4z"/>
						<path class="st37" d="M246.9,140.4l-22.2,4.1c1.6,3.5,4.6,5.1,8.5,4.4c3-0.5,4.8-1.9,6.5-4.4l6.9,5.9
							c-2.2,4.4-6.1,7.1-11.9,8.2c-10.9,2-19.3-4.6-21.3-15.3c-2-10.8,3.8-19.8,13.4-21.5c9-1.6,17.5,3.8,19.7,15.6
							C246.7,138.1,246.8,139.4,246.9,140.4z M223.4,137.8l12.5-2.3c-1.3-3.7-4-5.6-7.4-5C225.2,131.1,223.3,133.9,223.4,137.8z"/>
						<path class="st37" d="M282.6,127.9l3.8,20.5l-10.7,2l-3.4-18.5c-0.9-5.2-3.3-7-6.3-6.4c-3.4,0.6-5.6,3.6-4.5,9.6l3.2,17.3
							l-10.7,2l-6.6-35.9l10.2-1.9l0.7,3.9c1.9-3.4,5-5.6,8.8-6.3C274.2,112.9,280.5,116.8,282.6,127.9z"/>
						<path class="st37" d="M312.9,142c-1.6,1.7-4.2,2.9-7,3.4c-7.8,1.4-13.2-2.2-14.9-11.4l-2.2-12l-4.4,0.8l-1.7-9.4l4.4-0.8
							l-1.7-9.3l10.7-2l1.7,9.3l7-1.3l1.7,9.4l-7,1.3l2.2,11.9c0.5,2.6,2,3.9,4,3.5c1.2-0.2,2.3-0.8,3.1-1.7L312.9,142z"/>
						<path class="st37" d="M310.3,125.4c-2-10.8,3.9-19.8,13.8-21.6c10.1-1.8,18.6,4.5,20.6,15.3c2,10.8-3.7,19.9-13.8,21.7
							C321,142.7,312.3,136.2,310.3,125.4z M334,121.1c-1-5.4-4.3-8-8-7.3c-3.6,0.7-5.9,4.2-4.9,9.6c1,5.5,4.4,8.1,8,7.4
							C332.8,130.2,335,126.6,334,121.1z"/>
						<path class="st37" d="M70.6,203.2l10.7,58.5l-12.1,2.2l-0.8-4.3c-1.8,3.8-5.1,6.1-9.7,6.9c-9.9,1.8-19.5-5.2-21.9-18.9
							c-2.5-13.6,4-23.5,13.9-25.3c4.2-0.8,7.9,0,10.9,2.6l-3.6-19.5L70.6,203.2z M64.8,242.5c-1.2-6.5-5.1-9.5-9.4-8.7
							c-4.4,0.8-7,5-5.8,11.5c1.2,6.5,5.2,9.6,9.5,8.9C63.4,253.4,66,249.1,64.8,242.5z"/>
						<path class="st37" d="M122.1,236l-26.4,4.8c1.9,4.1,5.5,6.1,10.2,5.2c3.6-0.7,5.7-2.3,7.7-5.2l8.2,7
							c-2.6,5.2-7.3,8.5-14.2,9.8c-12.9,2.4-23-5.5-25.4-18.3c-2.4-12.9,4.5-23.6,15.9-25.7c10.7-2,20.9,4.5,23.5,18.6
							C121.9,233.4,122,234.8,122.1,236z M94.1,233l14.9-2.7c-1.5-4.4-4.8-6.7-8.8-6C96.2,225,94,228.4,94.1,233z"/>
						<path class="st37" d="M137.4,194.1c-0.8-4.5,1.6-8.5,6.3-9.4c4.7-0.9,8.4,1.8,9.2,6.3c0.9,4.7-1.6,8.8-6.3,9.6
							C141.9,201.5,138.2,198.6,137.4,194.1z M141.1,206.6l12.7-2.3l7.8,42.7l-12.7,2.3L141.1,206.6z"/>
						<path class="st37" d="M203.1,214.1l4.5,24.4l-12.7,2.3l-4-22c-1.1-6.1-3.9-8.3-7.6-7.7c-4.1,0.7-6.7,4.3-5.4,11.4l3.8,20.7
							l-12.7,2.3l-7.8-42.7l12.1-2.2l0.9,4.7c2.2-4.1,6-6.6,10.5-7.5C193.1,196.3,200.7,200.9,203.1,214.1z"/>
						<path class="st37" d="M244.3,187.7l-7.2,45.5l-13.1,2.4l-22.8-40l13.1-2.4l13.5,24.5l4.4-27.8L244.3,187.7z"/>
						<path class="st37" d="M287.1,205.8l-26.4,4.8c1.9,4.1,5.5,6.1,10.2,5.2c3.6-0.7,5.7-2.3,7.7-5.2l8.2,7
							c-2.6,5.2-7.3,8.5-14.2,9.8c-12.9,2.4-23-5.5-25.4-18.3c-2.4-12.9,4.5-23.6,15.9-25.7c10.7-2,20.9,4.5,23.5,18.6
							C286.9,203.2,287,204.6,287.1,205.8z M259.1,202.8l14.9-2.7c-1.5-4.4-4.8-6.7-8.8-6S259,198.2,259.1,202.8z"/>
						<path class="st37" d="M311.8,174.6l2.5,13.5c-1.2,0.1-2,0.1-2.9,0.3c-5.2,0.9-8.1,4.7-6.8,12.2l3.6,19.6l-12.7,2.3l-7.8-42.7
							l12.1-2.2l0.9,5.1C302.6,178.3,306.5,175.6,311.8,174.6z"/>
						<path class="st37" d="M349.9,210.7c-1.9,2.1-5,3.5-8.4,4.1c-9.3,1.7-15.7-2.7-17.7-13.6l-2.6-14.4l-5.3,1l-2-11.2l5.3-1
							l-2-11.1l12.7-2.3l2,11.1l8.3-1.5l2,11.2l-8.3,1.5l2.6,14.2c0.6,3.2,2.4,4.6,4.7,4.2c1.4-0.3,2.7-1,3.6-2.1L349.9,210.7z"/>
						<path class="st37" d="M342.5,156.6c-0.8-4.5,1.6-8.5,6.3-9.4c4.7-0.9,8.4,1.8,9.2,6.3c0.9,4.7-1.6,8.8-6.3,9.6
							C347.1,164,343.4,161.1,342.5,156.6z M346.3,169l12.7-2.3l7.8,42.7l-12.7,2.3L346.3,169z"/>
						<path class="st37" d="M390.4,160.2l2.5,13.5c-1.2,0.1-2,0.1-2.9,0.3c-5.2,0.9-8.1,4.7-6.8,12.2l3.6,19.6l-12.7,2.3l-7.8-42.7
							l12.1-2.2l0.9,5.1C381.2,163.9,385.1,161.2,390.4,160.2z"/>
					</g>
					<g>
						<path class="st8" d="M164.4,74.7l-12.1,2.2l-1.9-10.4l35.3-6.5l1.9,10.4l-12,2.2l6.6,35.9l-11.1,2L164.4,74.7z"/>
						<path class="st8" d="M221.9,64.2l6.6,35.9l-10.2,1.9l-0.7-3.8c-1.8,3.4-4.8,5.5-8.2,6.1c-7.5,1.4-13.9-2.7-15.9-14l-3.7-20
							l10.7-2l3.3,18c1,5.6,3.3,7.4,6.5,6.8c3.1-0.6,5.3-3.5,4.2-9.5l-3.2-17.3L221.9,64.2z"/>
						<path class="st8" d="M113.5,158.8l3.8,20.5l-10.7,2l-3.4-18.5c-0.9-5.2-3.1-7-6-6.5c-3.1,0.6-4.9,3.4-3.9,9l3.3,17.8L86,185
							l-3.4-18.5c-0.9-5.2-3.1-7-6-6.5c-3.1,0.6-4.9,3.4-3.9,9l3.3,17.8l-10.7,2L58.7,153l10.2-1.9l0.7,3.8c1.8-3.3,4.7-5.4,8.3-6
							c4.2-0.8,8,0.4,10.9,3.8c1.8-4,5.2-6.8,9.5-7.6C105.4,143.8,111.5,147.7,113.5,158.8z"/>
						<path class="st8" d="M118.4,160.5c-2-10.8,3.9-19.8,13.8-21.6c10.1-1.8,18.6,4.5,20.6,15.3c2,10.8-3.7,19.9-13.8,21.7
							C129.1,177.8,120.4,171.4,118.4,160.5z M142,156.2c-1-5.4-4.3-8-8-7.3c-3.6,0.7-5.9,4.2-4.9,9.6c1,5.5,4.4,8.1,8,7.4
							C140.9,165.3,143,161.7,142,156.2z"/>
						<path class="st8" d="M208.5,141.4l3.8,20.5l-10.7,2l-3.4-18.5c-0.9-5.2-3.1-7-6-6.5c-3.1,0.6-4.9,3.4-3.9,9l3.3,17.8l-10.7,2
							l-3.4-18.5c-0.9-5.2-3.1-7-6-6.5c-3.1,0.6-4.9,3.4-3.9,9l3.3,17.8l-10.7,2l-6.6-35.9l10.2-1.9l0.7,3.8c1.8-3.3,4.7-5.4,8.3-6
							c4.2-0.8,8,0.4,10.9,3.8c1.8-4,5.2-6.8,9.5-7.6C200.3,126.4,206.5,130.3,208.5,141.4z"/>
						<path class="st8" d="M246.9,140.4l-22.2,4.1c1.6,3.5,4.6,5.1,8.5,4.4c3-0.5,4.8-1.9,6.5-4.4l6.9,5.9
							c-2.2,4.4-6.1,7.1-11.9,8.2c-10.9,2-19.3-4.6-21.3-15.3c-2-10.8,3.8-19.8,13.4-21.5c9-1.6,17.5,3.8,19.7,15.6
							C246.7,138.1,246.8,139.4,246.9,140.4z M223.4,137.8l12.5-2.3c-1.3-3.7-4-5.6-7.4-5C225.2,131.1,223.3,133.9,223.4,137.8z"/>
						<path class="st8" d="M282.6,127.9l3.8,20.5l-10.7,2l-3.4-18.5c-0.9-5.2-3.3-7-6.3-6.4c-3.4,0.6-5.6,3.6-4.5,9.6l3.2,17.3
							l-10.7,2l-6.6-35.9l10.2-1.9l0.7,3.9c1.9-3.4,5-5.6,8.8-6.3C274.2,112.9,280.5,116.8,282.6,127.9z"/>
						<path class="st8" d="M312.9,142c-1.6,1.7-4.2,2.9-7,3.4c-7.8,1.4-13.2-2.2-14.9-11.4l-2.2-12l-4.4,0.8l-1.7-9.4l4.4-0.8
							l-1.7-9.3l10.7-2l1.7,9.3l7-1.3l1.7,9.4l-7,1.3l2.2,11.9c0.5,2.6,2,3.9,4,3.5c1.2-0.2,2.3-0.8,3.1-1.7L312.9,142z"/>
						<path class="st8" d="M310.3,125.4c-2-10.8,3.9-19.8,13.8-21.6c10.1-1.8,18.6,4.5,20.6,15.3c2,10.8-3.7,19.9-13.8,21.7
							C321,142.7,312.3,136.2,310.3,125.4z M334,121.1c-1-5.4-4.3-8-8-7.3c-3.6,0.7-5.9,4.2-4.9,9.6c1,5.5,4.4,8.1,8,7.4
							C332.8,130.2,335,126.6,334,121.1z"/>
						<path class="st8" d="M70.6,203.2l10.7,58.5l-12.1,2.2l-0.8-4.3c-1.8,3.8-5.1,6.1-9.7,6.9c-9.9,1.8-19.5-5.2-21.9-18.9
							c-2.5-13.6,4-23.5,13.9-25.3c4.2-0.8,7.9,0,10.9,2.6l-3.6-19.5L70.6,203.2z M64.8,242.5c-1.2-6.5-5.1-9.5-9.4-8.7
							c-4.4,0.8-7,5-5.8,11.5c1.2,6.5,5.2,9.6,9.5,8.9C63.4,253.4,66,249.1,64.8,242.5z"/>
						<path class="st8" d="M122.1,236l-26.4,4.8c1.9,4.1,5.5,6.1,10.2,5.2c3.6-0.7,5.7-2.3,7.7-5.2l8.2,7c-2.6,5.2-7.3,8.5-14.2,9.8
							c-12.9,2.4-23-5.5-25.4-18.3c-2.4-12.9,4.5-23.6,15.9-25.7c10.7-2,20.9,4.5,23.5,18.6C121.9,233.4,122,234.8,122.1,236z
							 M94.1,233l14.9-2.7c-1.5-4.4-4.8-6.7-8.8-6C96.2,225,94,228.4,94.1,233z"/>
						<path class="st8" d="M137.4,194.1c-0.8-4.5,1.6-8.5,6.3-9.4c4.7-0.9,8.4,1.8,9.2,6.3c0.9,4.7-1.6,8.8-6.3,9.6
							C141.9,201.5,138.2,198.6,137.4,194.1z M141.1,206.6l12.7-2.3l7.8,42.7l-12.7,2.3L141.1,206.6z"/>
						<path class="st8" d="M203.1,214.1l4.5,24.4l-12.7,2.3l-4-22c-1.1-6.1-3.9-8.3-7.6-7.7c-4.1,0.7-6.7,4.3-5.4,11.4l3.8,20.7
							l-12.7,2.3l-7.8-42.7l12.1-2.2l0.9,4.7c2.2-4.1,6-6.6,10.5-7.5C193.1,196.3,200.7,200.9,203.1,214.1z"/>
						<path class="st8" d="M244.3,187.7l-7.2,45.5l-13.1,2.4l-22.8-40l13.1-2.4l13.5,24.5l4.4-27.8L244.3,187.7z"/>
						<path class="st8" d="M287.1,205.8l-26.4,4.8c1.9,4.1,5.5,6.1,10.2,5.2c3.6-0.7,5.7-2.3,7.7-5.2l8.2,7
							c-2.6,5.2-7.3,8.5-14.2,9.8c-12.9,2.4-23-5.5-25.4-18.3c-2.4-12.9,4.5-23.6,15.9-25.7c10.7-2,20.9,4.5,23.5,18.6
							C286.9,203.2,287,204.6,287.1,205.8z M259.1,202.8l14.9-2.7c-1.5-4.4-4.8-6.7-8.8-6S259,198.2,259.1,202.8z"/>
						<path class="st8" d="M311.8,174.6l2.5,13.5c-1.2,0.1-2,0.1-2.9,0.3c-5.2,0.9-8.1,4.7-6.8,12.2l3.6,19.6l-12.7,2.3l-7.8-42.7
							l12.1-2.2l0.9,5.1C302.6,178.3,306.5,175.6,311.8,174.6z"/>
						<path class="st8" d="M349.9,210.7c-1.9,2.1-5,3.5-8.4,4.1c-9.3,1.7-15.7-2.7-17.7-13.6l-2.6-14.4l-5.3,1l-2-11.2l5.3-1
							l-2-11.1l12.7-2.3l2,11.1l8.3-1.5l2,11.2l-8.3,1.5l2.6,14.2c0.6,3.2,2.4,4.6,4.7,4.2c1.4-0.3,2.7-1,3.6-2.1L349.9,210.7z"/>
						<path class="st8" d="M342.5,156.6c-0.8-4.5,1.6-8.5,6.3-9.4c4.7-0.9,8.4,1.8,9.2,6.3c0.9,4.7-1.6,8.8-6.3,9.6
							C347.1,164,343.4,161.1,342.5,156.6z M346.3,169l12.7-2.3l7.8,42.7l-12.7,2.3L346.3,169z"/>
						<path class="st8" d="M390.4,160.2l2.5,13.5c-1.2,0.1-2,0.1-2.9,0.3c-5.2,0.9-8.1,4.7-6.8,12.2l3.6,19.6l-12.7,2.3l-7.8-42.7
							l12.1-2.2l0.9,5.1C381.2,163.9,385.1,161.2,390.4,160.2z"/>
					</g>
				</g>
			</g>
		</g>
		<g>
			<g>
				<polygon class="st7" points="408.8,202 425,172 433.4,191.6 				"/>
				<path class="st8" d="M425,172l8.5,19.6L408.8,202L425,172 M425,167.6c-1.6,0-3.1,0.9-3.9,2.3l-16.1,30c-0.9,1.7-0.6,3.7,0.6,5.1
					c0.9,0.9,2.1,1.5,3.3,1.5c0.6,0,1.2-0.1,1.7-0.3l24.6-10.4c1.1-0.5,2-1.3,2.4-2.4c0.4-1.1,0.4-2.3,0-3.4l-8.5-19.6
					c-0.7-1.6-2.2-2.6-3.9-2.7C425.1,167.6,425,167.6,425,167.6L425,167.6z"/>
			</g>
			<g>
				<polygon class="st9" points="403.1,219.1 446.5,233.9 453.6,208.7 				"/>
				<path class="st8" d="M453.6,208.7L453.6,208.7 M453.6,208.7l-7.1,25.2l-43.4-14.8L453.6,208.7 M453.6,204.3c-0.1,0-0.1,0-0.2,0
					c-0.3,0-0.5,0-0.8,0.1l-50.4,10.4c-2,0.4-3.4,2.1-3.5,4.1c-0.1,2,1.1,3.8,3,4.5l43.4,14.8c0.5,0.2,1,0.2,1.4,0.2
					c0.7,0,1.4-0.2,2.1-0.5c1.1-0.6,1.9-1.6,2.2-2.7l7-25.1c0.1-0.4,0.2-0.9,0.2-1.4C458,206.3,456.1,204.3,453.6,204.3
					C453.7,204.3,453.6,204.3,453.6,204.3L453.6,204.3z M453.6,213.1L453.6,213.1L453.6,213.1L453.6,213.1z"/>
			</g>
			<g>
				<polygon class="st10" points="392.6,231.3 425.3,245.1 408.4,264.6 				"/>
				<path class="st8" d="M392.6,231.3l32.8,13.8l-16.9,19.5L392.6,231.3 M392.6,226.9c-1.2,0-2.4,0.5-3.2,1.4
					c-1.3,1.3-1.6,3.3-0.8,5l15.8,33.3c0.6,1.4,1.9,2.3,3.4,2.5c0.2,0,0.4,0,0.6,0c1.3,0,2.5-0.5,3.3-1.5l16.9-19.5
					c0.9-1.1,1.3-2.5,1-3.9c-0.3-1.4-1.3-2.5-2.6-3.1l-32.8-13.8C393.7,227,393.2,226.9,392.6,226.9L392.6,226.9z"/>
			</g>
		</g>
		<g>
			<g>
				<polygon class="st7" points="44.8,118.6 6.9,122.6 19.8,102.4 				"/>
				<path class="st8" d="M19.8,102.4l25.1,16.3l-37.9,3.9L19.8,102.4 M19.8,97.4c-0.4,0-0.7,0-1.1,0.1c-1.3,0.3-2.4,1.1-3.1,2.2
					L2.7,119.9c-1,1.6-1,3.7,0,5.3c0.9,1.5,2.5,2.4,4.2,2.4c0.2,0,0.3,0,0.5,0l37.9-3.9c2.1-0.2,3.8-1.7,4.3-3.8
					c0.5-2-0.4-4.2-2.1-5.3L22.5,98.2C21.6,97.7,20.7,97.4,19.8,97.4L19.8,97.4z"/>
			</g>
			<g>
				<polygon class="st10" points="54.5,105.6 31.3,73.3 58.9,64.6 				"/>
				<path class="st8" d="M58.9,64.6l-4.4,41L31.3,73.3L58.9,64.6 M58.9,59.7c-0.5,0-1,0.1-1.5,0.2l-27.5,8.6
					c-1.5,0.5-2.7,1.6-3.2,3.2c-0.5,1.5-0.3,3.2,0.7,4.5l23.1,32.4c0.9,1.3,2.5,2.1,4,2.1c0.4,0,0.8-0.1,1.3-0.2
					c2-0.5,3.5-2.2,3.7-4.3l4.4-41c0.2-1.7-0.5-3.3-1.8-4.4C61.1,60.1,60,59.7,58.9,59.7L58.9,59.7z M58.9,69.6L58.9,69.6L58.9,69.6
					L58.9,69.6z"/>
			</g>
		</g>
		<g>
			<g>
				<path class="st11" d="M122,299.9c-3.8-5.4-1.5-12.5,5-15.4c14.6-6.6,36.1-14.1,81.6-23.1c41.7-8.3,109.2-17.6,123.5-17
					c6.9,0.3,11.6,8.8,11.2,14.8l-0.6,28.8c-0.4,5.3-5.1,9.6-11.2,10.2c-21.4,2.2-68.5,3.5-185.5,32.4c-5.5,1.4-11.4-0.3-14.4-4.5
					L122,299.9z"/>
				<path class="st12" d="M116.6,296.8c-3.8-5.4-1.5-12.5,5-15.4c14.6-6.6,29.6-11.2,75.1-20.2c41.7-8.3,115.7-20.6,130-19.9
					c6.9,0.3,12.1,5.4,11.6,11.4l-1.1,32.2c-0.4,5.3-5.1,9.6-11.2,10.2c-21.4,2.2-76,2.6-185.5,32.4c-5.5,1.5-11.4-0.3-14.4-4.5
					L116.6,296.8z"/>
			</g>
			<g>
				<g class="st6">
					<path class="st35" d="M139.4,296.9c0.3,1.3,0.2,2.3-0.3,3.2s-1.5,1.5-3,1.9c-1.4,0.4-2.6,0.3-3.5-0.2c-0.9-0.5-1.5-1.4-1.9-2.7
						c-0.3-1.2-0.2-2.3,0.3-3.2c0.6-0.9,1.5-1.5,2.9-1.9c1.4-0.4,2.6-0.3,3.5,0.2C138.4,294.9,139,295.7,139.4,296.9z M133.5,306.3
						l6.8-1.8l6.3,19.3l-8.9,2.4L133.5,306.3z"/>
					<path class="st35" d="M166.1,312c-3.9,0.9-7.2,0.6-9.9-1c-2.7-1.6-4.5-4.3-5.4-8.2c-0.9-4-0.6-7.3,0.9-9.9
						c1.5-2.6,4.1-4.3,7.9-5.2c3.6-0.8,6.5-0.5,8.9,0.9c2.4,1.4,4,3.9,4.8,7.3l0.9,3.6l-14.6,3.4c0.4,1.3,1.1,2.2,2.2,2.8
						c1.1,0.5,2.4,0.6,4,0.3c1.4-0.3,2.7-0.8,3.9-1.3c1.1-0.6,2.3-1.3,3.6-2.3l1.4,5.9c-1.1,1-2.3,1.7-3.6,2.3
						C169.6,311.1,168,311.6,166.1,312z M161.2,293.2c-1,0.2-1.7,0.7-2.2,1.5c-0.5,0.8-0.7,1.8-0.5,3.1l7-1.6
						c-0.3-1.1-0.8-2-1.6-2.5C163.2,293.1,162.2,293,161.2,293.2z"/>
					<path class="st35" d="M196.5,297.5c0.5,2.5,0,4.7-1.4,6.3c-1.5,1.7-3.8,2.8-7.1,3.5c-1.8,0.4-3.3,0.6-4.7,0.6s-2.7,0-4.2-0.2
						l-1.3-6.6c1.4,0.3,2.9,0.5,4.5,0.5c1.6,0.1,3,0,4.2-0.3c1.8-0.4,2.6-0.9,2.4-1.8c-0.1-0.4-0.4-0.7-1-1c-0.6-0.2-2.1-0.6-4.7-1
						c-2.4-0.5-4.1-1.2-5.2-2.1s-1.8-2.3-2.2-4.1c-0.4-2.2,0.1-4.1,1.5-5.7c1.5-1.6,3.7-2.7,6.9-3.3c1.6-0.3,3.1-0.4,4.5-0.4
						c1.4,0.1,3,0.3,4.6,0.6l-1.2,5.7c-1.2-0.3-2.4-0.5-3.7-0.5s-2.3-0.1-3.1,0.1c-1.3,0.3-1.9,0.7-1.8,1.4c0.1,0.4,0.4,0.7,0.9,0.9
						c0.5,0.2,2,0.5,4.4,0.9c1.8,0.3,3.2,0.8,4.1,1.3c1,0.5,1.7,1.1,2.3,2C195.9,295.2,196.3,296.2,196.5,297.5z"/>
					<path class="st35" d="M240.5,297.9l-9.1,1.4l-2.1-13.7l-10.5,1.6l2.1,13.7l-9.1,1.4l-5.1-33.6l9.1-1.4l1.9,12.5l10.5-1.6
						l-1.9-12.5l9.1-1.4L240.5,297.9z"/>
					<path class="st35" d="M275.8,276.5c0.7,5.7-0.2,10.2-2.6,13.4c-2.4,3.3-6.3,5.3-11.7,5.9c-5.3,0.6-9.5-0.4-12.7-3
						c-3.2-2.6-5.1-6.8-5.8-12.5c-0.7-5.6,0.2-10.1,2.7-13.4c2.4-3.3,6.4-5.3,11.7-5.9c5.4-0.6,9.6,0.3,12.7,2.9
						C273.2,266.6,275.1,270.8,275.8,276.5z M252.6,279.3c0.8,6.5,3.5,9.5,8,9c2.3-0.3,3.9-1.3,4.8-3c0.9-1.7,1.2-4.3,0.8-7.6
						c-0.4-3.4-1.3-5.8-2.6-7.3c-1.3-1.5-3.1-2.1-5.4-1.8C253.7,269.1,251.8,272.7,252.6,279.3z"/>
					<path class="st35" d="M292.5,270.5l4.7-13.1l9.9-0.9l-9.2,21.7l1.2,13.2l-9.2,0.9l-1.2-12.9l-13.1-19.9l10-0.9L292.5,270.5z"/>
					<path class="st35" d="M324.9,278.5l-7.1,0.4l-2.2-20.2l9.2-0.5L324.9,278.5z M317.3,286.4c-0.1-1.3,0.3-2.3,1-3.1
						c0.7-0.8,1.8-1.2,3.3-1.3c1.5-0.1,2.6,0.2,3.4,0.9c0.8,0.7,1.2,1.7,1.3,3c0.1,1.3-0.3,2.3-1,3.1c-0.7,0.8-1.8,1.2-3.2,1.3
						c-1.4,0.1-2.5-0.2-3.4-0.9C317.8,288.7,317.4,287.7,317.3,286.4z"/>
				</g>
				<g>
					<g>
						<path class="st8" d="M142.3,294c0.3,1.3,0.2,2.3-0.3,3.2s-1.5,1.5-3,1.9c-1.4,0.4-2.6,0.3-3.5-0.2c-0.9-0.5-1.5-1.4-1.9-2.7
							c-0.3-1.2-0.2-2.3,0.3-3.2c0.6-0.9,1.5-1.5,2.9-1.9c1.4-0.4,2.6-0.3,3.5,0.2C141.4,291.9,142,292.8,142.3,294z M136.5,303.3
							l6.8-1.8l6.3,19.3l-8.9,2.4L136.5,303.3z"/>
						<path class="st8" d="M169.1,309.1c-3.9,0.9-7.2,0.6-9.9-1c-2.7-1.6-4.5-4.3-5.4-8.2c-0.9-4-0.6-7.3,0.9-9.9
							c1.5-2.6,4.1-4.3,7.9-5.2c3.6-0.8,6.5-0.5,8.9,0.9c2.4,1.4,4,3.9,4.8,7.3l0.9,3.6l-14.6,3.4c0.4,1.3,1.1,2.2,2.2,2.8
							c1.1,0.5,2.4,0.6,4,0.3c1.4-0.3,2.7-0.8,3.9-1.3c1.1-0.6,2.3-1.3,3.6-2.3l1.4,5.9c-1.1,1-2.3,1.7-3.6,2.3
							C172.6,308.1,171,308.6,169.1,309.1z M164.2,290.3c-1,0.2-1.7,0.7-2.2,1.5c-0.5,0.8-0.7,1.8-0.5,3.1l7-1.6
							c-0.3-1.1-0.8-2-1.6-2.5C166.1,290.2,165.2,290,164.2,290.3z"/>
						<path class="st8" d="M199.5,294.5c0.5,2.5,0,4.7-1.4,6.3c-1.5,1.7-3.8,2.8-7.1,3.5c-1.8,0.4-3.3,0.6-4.7,0.6s-2.7,0-4.2-0.2
							l-1.3-6.6c1.4,0.3,2.9,0.5,4.5,0.5c1.6,0.1,3,0,4.2-0.3c1.8-0.4,2.6-0.9,2.4-1.8c-0.1-0.4-0.4-0.7-1-1c-0.6-0.2-2.1-0.6-4.7-1
							c-2.4-0.5-4.1-1.2-5.2-2.1s-1.8-2.3-2.2-4.1c-0.4-2.2,0.1-4.1,1.5-5.7c1.5-1.6,3.7-2.7,6.9-3.3c1.6-0.3,3.1-0.4,4.5-0.4
							c1.4,0.1,3,0.3,4.6,0.6l-1.2,5.7c-1.2-0.3-2.4-0.5-3.7-0.5s-2.3-0.1-3.1,0.1c-1.3,0.3-1.9,0.7-1.8,1.4
							c0.1,0.4,0.4,0.7,0.9,0.9c0.5,0.2,2,0.5,4.4,0.9c1.8,0.3,3.2,0.8,4.1,1.3c1,0.5,1.7,1.1,2.3,2
							C198.8,292.2,199.2,293.2,199.5,294.5z"/>
						<path class="st8" d="M243.5,294.9l-9.1,1.4l-2.1-13.7l-10.5,1.6l2.1,13.7l-9.1,1.4l-5.1-33.6l9.1-1.4l1.9,12.5l10.5-1.6
							l-1.9-12.5l9.1-1.4L243.5,294.9z"/>
						<path class="st8" d="M278.8,273.5c0.7,5.7-0.2,10.2-2.6,13.4c-2.4,3.3-6.3,5.3-11.7,5.9c-5.3,0.6-9.5-0.4-12.7-3
							c-3.2-2.6-5.1-6.8-5.8-12.5c-0.7-5.6,0.2-10.1,2.7-13.4c2.4-3.3,6.4-5.3,11.7-5.9c5.4-0.6,9.6,0.3,12.7,2.9
							C276.2,263.7,278.1,267.8,278.8,273.5z M255.6,276.3c0.8,6.5,3.5,9.5,8,9c2.3-0.3,3.9-1.3,4.8-3c0.9-1.7,1.2-4.3,0.8-7.6
							c-0.4-3.4-1.3-5.8-2.6-7.3c-1.3-1.5-3.1-2.1-5.4-1.8C256.7,266.2,254.8,269.7,255.6,276.3z"/>
						<path class="st8" d="M295.5,267.5l4.7-13.1l9.9-0.9l-9.2,21.7l1.2,13.2l-9.2,0.9l-1.2-12.9l-13.1-19.9l10-0.9L295.5,267.5z"/>
						<path class="st8" d="M327.9,275.5l-7.1,0.4l-2.2-20.2l9.2-0.5L327.9,275.5z M320.3,283.4c-0.1-1.3,0.3-2.3,1-3.1
							c0.7-0.8,1.8-1.2,3.3-1.3c1.5-0.1,2.6,0.2,3.4,0.9c0.8,0.7,1.2,1.7,1.3,3c0.1,1.3-0.3,2.3-1,3.1c-0.7,0.8-1.8,1.2-3.2,1.3
							c-1.4,0.1-2.5-0.2-3.4-0.9C320.8,285.7,320.3,284.7,320.3,283.4z"/>
					</g>
				</g>
			</g>
		</g>
	</g>
</g>
</svg>
