<?xml version="1.0" encoding="utf-8"?>
<!-- Generator: Adobe Illustrator 24.1.0, SVG Export Plug-In . SVG Version: 6.00 Build 0)  -->
<svg version="1.1" id="Capa_1" xmlns="http://www.w3.org/2000/svg" xmlns:xlink="http://www.w3.org/1999/xlink" x="0px" y="0px"
	 viewBox="0 0 683.5 247.9" style="enable-background:new 0 0 683.5 247.9;" xml:space="preserve">
<style type="text/css">
	.st0{fill:#365D32;}
	.st1{fill:#4B8142;}
	.st2{fill:#5B5B5F;}
	.st3{opacity:0.8;}
	.st4{fill:#9BB337;}
	.st5{fill:#508946;}
	.st6{opacity:0.4;}
	.st7{fill:#9EBB32;}
	.st8{fill:#FFFFFF;}
	.st9{fill:#DC1D3C;}
	.st10{fill:#D4802E;}
	.st11{fill:#91542F;}
	.st12{fill:#DB8000;}
	.st13{clip-path:url(#SVGID_2_);}
	.st14{fill:#005C24;}
	.st15{fill-rule:evenodd;clip-rule:evenodd;fill:#015F22;}
	.st16{fill-rule:evenodd;clip-rule:evenodd;fill:#26852C;}
	.st17{fill:#015F22;}
	.st18{clip-path:url(#SVGID_4_);}
	.st19{fill:#47600E;}
	.st20{fill:#8CB520;}
	.st21{fill:#184425;}
	.st22{fill:#00813A;}
	.st23{opacity:0.59;fill:#53631F;}
	.st24{fill:#F5C10D;}
	.st25{fill:#2E462B;}
	.st26{enable-background:new    ;}
	.st27{fill:#801E32;}
	.st28{fill:#191814;}
	.st29{fill:#6A1D17;stroke:#7E2931;stroke-width:8.6296;stroke-linecap:round;stroke-linejoin:round;stroke-miterlimit:10;}
	.st30{fill:none;stroke:#801E32;stroke-width:19.2079;stroke-linecap:round;stroke-linejoin:round;stroke-miterlimit:10;}
	.st31{fill:none;stroke:#DC1D3C;stroke-width:19.2079;stroke-linecap:round;stroke-linejoin:round;stroke-miterlimit:10;}
	.st32{fill:#B61230;stroke:#DC1D3C;stroke-width:8.6296;stroke-linecap:round;stroke-linejoin:round;stroke-miterlimit:10;}
	.st33{clip-path:url(#SVGID_6_);}
	.st34{clip-path:url(#SVGID_8_);}
	.st35{fill:#020302;}
	.st36{fill:none;stroke:#020302;stroke-width:23.7377;stroke-linecap:round;stroke-linejoin:round;stroke-miterlimit:10;}
	.st37{fill:none;stroke:#345C35;stroke-width:23.7377;stroke-linecap:round;stroke-linejoin:round;stroke-miterlimit:10;}
	.st38{clip-path:url(#SVGID_10_);}
	.st39{clip-path:url(#SVGID_12_);}
	.st40{clip-path:url(#SVGID_14_);}
	.st41{clip-path:url(#SVGID_16_);}
	.st42{opacity:0.59;fill:#54642C;}
	.st43{fill:#801D33;}
	.st44{clip-path:url(#SVGID_18_);}
	.st45{clip-path:url(#SVGID_20_);}
	.st46{clip-path:url(#SVGID_22_);}
	.st47{clip-path:url(#SVGID_24_);}
	.st48{clip-path:url(#SVGID_26_);}
	.st49{clip-path:url(#SVGID_28_);}
	.st50{clip-path:url(#SVGID_30_);}
	.st51{clip-path:url(#SVGID_32_);}
	.st52{clip-path:url(#SVGID_34_);}
	.st53{clip-path:url(#SVGID_36_);}
	.st54{clip-path:url(#SVGID_38_);}
	.st55{clip-path:url(#SVGID_40_);}
	.st56{fill:#385E32;}
	.st57{fill:#6A1D17;}
	.st58{fill:#7F2932;}
	.st59{fill:#B52031;}
	.st60{fill:#7C1816;}
	.st61{fill:#8C242E;}
	.st62{fill:#8F1A30;}
	.st63{fill:#DA1D41;}
	.st64{fill:#D41E2F;}
	.st65{clip-path:url(#SVGID_42_);}
	.st66{clip-path:url(#SVGID_44_);}
	.st67{fill:#2F462B;}
	.st68{fill:#008847;}
	.st69{fill:#6A1D17;stroke:#7F2932;stroke-width:8.6296;stroke-linecap:round;stroke-linejoin:round;stroke-miterlimit:10;}
	.st70{fill:none;stroke:#801D33;stroke-width:19.2079;stroke-linecap:round;stroke-linejoin:round;stroke-miterlimit:10;}
	.st71{fill:#B52031;stroke:#DC1D3C;stroke-width:8.6296;stroke-linecap:round;stroke-linejoin:round;stroke-miterlimit:10;}
	.st72{fill:#FFFFFF;stroke:#FFFFFF;stroke-width:29;stroke-linecap:round;stroke-linejoin:round;stroke-miterlimit:10;}
	.st73{fill:#243259;}
	.st74{opacity:0.3;}
	.st75{fill:#162E5A;}
	.st76{fill:#414D6F;}
	.st77{fill:#EDC913;}
	.st78{fill:#0099DC;}
	.st79{fill:#D6802E;}
	.st80{fill:#93542F;}
	.st81{fill:#E57800;}
	.st82{fill:none;stroke:#0099DC;stroke-width:23.7377;stroke-linecap:round;stroke-linejoin:round;stroke-miterlimit:10;}
	.st83{clip-path:url(#SVGID_46_);fill:#243359;}
	.st84{clip-path:url(#SVGID_48_);fill:#068CCE;}
	.st85{opacity:0.2;fill:#444444;}
	.st86{fill:#42210B;}
	.st87{fill:#EC8000;}
	.st88{fill:#FFCA18;}
	.st89{opacity:0.45;}
	.st90{clip-path:url(#SVGID_50_);fill:#454243;}
	.st91{fill:none;stroke:#FFFFFF;stroke-width:0.975;stroke-miterlimit:10;}
	.st92{opacity:0.7;clip-path:url(#SVGID_52_);}
	.st93{clip-path:url(#SVGID_54_);fill:#FFFFFF;}
	.st94{clip-path:url(#SVGID_52_);fill:#FFFFFF;}
	.st95{clip-path:url(#SVGID_52_);fill:#273E6A;}
	.st96{clip-path:url(#SVGID_52_);fill-rule:evenodd;clip-rule:evenodd;fill:#273E6A;}
	.st97{fill:none;stroke:#42210B;stroke-width:19.285;stroke-linecap:round;stroke-linejoin:round;stroke-miterlimit:10;}
	.st98{fill:none;stroke:#EC8000;stroke-width:19.285;stroke-linecap:round;stroke-linejoin:round;stroke-miterlimit:10;}
</style>
<g>
	<g>
		<path class="st42" d="M639.5,238.2l-597,9.6c-17.3,0.3-31.6-11.7-31.9-27L0,160.5c-0.3-15.2,13.5-27.8,30.8-28.2l601.7-23.1
			c17.3-0.3,31.6,11.7,31.9,27l5.9,73.9C670.6,225.3,656.8,237.9,639.5,238.2z"/>
		<path class="st24" d="M652.7,226.9l-597,9.6c-17.3,0.3-31.6-11.7-31.9-27l-10.6-60.4c-0.3-15.2,13.5-27.8,30.8-28.2l601.7-23.1
			c17.3-0.3,31.6,11.7,31.9,27l5.9,73.9C683.8,214,670,226.6,652.7,226.9z"/>
	</g>
	<g>
		<path class="st56" d="M412,167.6l-0.4-34.9l8.2-0.1l0,2.1c1.4-1.9,3.3-2.7,5.2-2.8c4.6-0.1,7,3.9,7,8.4l0.1,10.3
			c0.1,4.7-1.5,9.1-6.9,9.2c-1.9,0-4.1-0.6-5.2-2.4l0.1,10L412,167.6z M424,151.4l-0.1-11.2c0-1-0.7-1.8-2.2-1.8
			c-1.2,0-1.9,0.9-1.9,1.9l0.1,11.2c0,1.2,1,1.8,2,1.8C423,153.3,424,152.6,424,151.4z"/>
		<path class="st56" d="M455.6,140l0.1,10.8c0.1,4.7-3.3,8.6-9.8,8.7c-6.5,0.1-9.9-3.7-10-8.5l-0.1-10.8c-0.1-4.7,3.3-8.6,9.8-8.7
			S455.5,135.2,455.6,140z M447.6,152l-0.2-13.1c0-1.1-1-1.4-1.7-1.4c-0.7,0-1.7,0.3-1.7,1.4l0.2,13.1c0,1.1,1,1.4,1.7,1.4
			C446.6,153.5,447.6,153.2,447.6,152z"/>
		<path class="st56" d="M476.8,145.8l-6.4,0.1l-0.1-6.8c0-0.6-0.7-0.9-1.1-0.9c-0.4,0-1,0.3-1,0.9l0.2,19.4l-8.1,0.1l-0.3-26.5
			l7.1-0.1l0,1.9c1.4-1.9,2.4-2.7,4.9-2.7c3.7,0,4.7,2.6,4.7,5.8L476.8,145.8z"/>
		<path class="st56" d="M498.2,166.5l-0.4-34.9l8.2-0.1l0,2.1c1.4-1.9,3.3-2.7,5.2-2.8c4.6-0.1,7,3.9,7,8.4l0.1,10.3
			c0.1,4.7-1.5,9.1-6.9,9.2c-1.9,0-4.1-0.6-5.2-2.4l0.1,10L498.2,166.5z M510.2,150.3l-0.1-11.2c0-1-0.7-1.8-2.2-1.8
			c-1.2,0-1.9,0.9-1.9,1.9l0.1,11.2c0,1.2,1,1.8,2,1.8C509.2,152.2,510.2,151.6,510.2,150.3z"/>
		<path class="st56" d="M522.7,139.4c-0.1-6.1,3.8-8.9,9.7-9c4.8-0.1,9.5,1.7,9.6,6.2l0.2,17.1c0,1.2,0.7,3.2,1,3.9l-7.7,0.1
			c-0.5-0.6-0.8-1.5-1-2.2c-1.4,1.7-3.6,3-6,3.1c-5.3,0.1-6.3-4-6.3-7.6c-0.1-9.4,6.7-7.2,10.1-8.3c1-0.3,2-1,2-2l0-2.4
			c0-1.4-1.1-2.1-1.9-2.1s-1.9,0.7-1.9,2.1l0,3.3l-7.8,0.1L522.7,139.4z M534.4,147c-2.4,0.7-4.4,0.2-4.4,3.3c0,1.1,0.6,1.7,1.7,1.7
			c1.2,0,2.7-0.8,2.7-2.5L534.4,147z"/>
		<path class="st56" d="M567.1,160.1c0.1,5.5-5.3,8-10.2,8c-4.8,0.1-9.7-2.2-9.8-7.8l0-2.9l7.6-0.1c0,2.6,0.3,4.1,2.1,4
			c1.6,0,2.1-0.8,2.1-1.9l-0.1-6c-1.4,1.1-3.2,1.6-5,1.6c-3.5,0-7.2-3.3-7.3-6.8l-0.1-9.6c-0.1-4.5,2.2-8.5,6.8-8.6
			c1.9,0,3.8,0.8,5.2,2.6l0-2.1l8.2-0.1L567.1,160.1z M556.9,148.3c1,0,1.9-0.8,1.9-1.9l-0.1-8c0-1-0.8-1.8-2-1.8
			c-1.4,0-2.1,0.9-2.1,1.9l0.1,8C554.7,147.5,555.9,148.3,556.9,148.3z"/>
		<path class="st56" d="M591.1,138.3l0.1,10.8c0.1,4.7-3.3,8.6-9.8,8.7c-6.5,0.1-9.9-3.7-10-8.5l-0.1-10.8c-0.1-4.7,3.3-8.6,9.8-8.7
			S591.1,133.5,591.1,138.3z M583.2,150.3l-0.2-13.1c0-1.1-1-1.4-1.7-1.4c-0.7,0-1.7,0.3-1.7,1.4l0.2,13.1c0,1.1,1,1.4,1.7,1.4
			C582.2,151.8,583.2,151.4,583.2,150.3z"/>
		<path class="st56" d="M412.1,186.1c-0.1-6.1,3.8-8.9,9.7-9c4.8-0.1,9.5,1.7,9.6,6.2l0.2,17.1c0,1.2,0.7,3.2,1,3.9l-7.7,0.1
			c-0.5-0.6-0.8-1.5-1-2.2c-1.4,1.7-3.6,3-6,3.1c-5.3,0.1-6.3-4-6.3-7.6c-0.1-9.4,6.7-7.2,10.1-8.3c1-0.3,2-1,2-2l0-2.4
			c0-1.4-1.1-2.1-1.9-2.1c-0.8,0-1.9,0.7-1.9,2.1l0,3.3l-7.8,0.1L412.1,186.1z M423.8,193.8c-2.4,0.7-4.4,0.2-4.4,3.3
			c0,1.1,0.6,1.7,1.7,1.7c1.2,0,2.7-0.8,2.7-2.5L423.8,193.8z"/>
		<path class="st56" d="M445.2,204.1l-8.1,0.1l-0.4-33.3l8.1-0.1L445.2,204.1z"/>
		<path class="st56" d="M476.2,204.5c-7.5,0.1-9.9-5.7-10-12.3l-0.1-4.1c-0.1-6.1,1.9-11.6,9.7-11.7c7.4-0.1,9.6,3.6,10,10l-8.1,0.1
			l0-2.1c0-1.2-0.6-2-1.8-2c-1.1,0-1.7,0.8-1.7,2l0.2,12c0,1.1,0.7,2,1.8,2c1.1,0,1.7-0.9,1.7-2l0-2.6l8.2-0.1
			c0,2.6-0.1,4.4-0.4,5.2C484.4,202.4,481.1,204.4,476.2,204.5z"/>
		<path class="st56" d="M508.7,184.6l0.1,10.8c0.1,4.7-3.3,8.6-9.8,8.7c-6.5,0.1-9.9-3.7-10-8.5l-0.1-10.8c-0.1-4.7,3.3-8.6,9.8-8.7
			C505.1,176.1,508.6,179.9,508.7,184.6z M500.7,196.7l-0.2-13.1c0-1.1-1-1.4-1.7-1.4c-0.7,0-1.7,0.3-1.7,1.4l0.2,13.1
			c0,1.1,1,1.4,1.7,1.4C499.7,198.2,500.7,197.8,500.7,196.7z"/>
		<path class="st56" d="M525.8,203.1l-0.2-17.6c0-1.2-1.3-1.8-2.1-1.8c-0.8,0-2.1,0.7-2.1,1.9l0.2,17.6l-8.1,0.1l-0.3-26.5l7.8-0.1
			l0,2.5c1.4-1.9,3.6-3,6.1-3.1c3.7,0,6.6,2.4,6.6,5.6l0.3,21.3L525.8,203.1z"/>
		<path class="st56" d="M548,182.8l0.2,13.1c0,0.6,0.5,0.9,0.9,0.9c0.4,0,0.9-0.3,0.9-0.9l-0.1-6.9l7-0.1l0.1,7.2
			c0.1,4.9-3.9,7.4-8.3,7.5c-5,0.1-8.6-2.4-8.6-7.3l-0.2-13.4l-2.8,0l-0.1-6.5l2.8,0l-0.1-4.8l8.1-0.1l0.1,4.8l8.8-0.1l0.1,6.5
			L548,182.8z"/>
		<path class="st56" d="M561.2,184.2c-0.1-6.1,3.8-8.9,9.7-9c4.8-0.1,9.5,1.7,9.6,6.2l0.2,17.1c0,1.2,0.7,3.2,1,3.9l-7.7,0.1
			c-0.5-0.6-0.8-1.5-1-2.2c-1.4,1.7-3.6,3-6,3.1c-5.3,0.1-6.3-4-6.3-7.6c-0.1-9.4,6.7-7.2,10.1-8.3c1-0.3,2-1,2-2l0-2.4
			c0-1.4-1.1-2.1-1.9-2.1c-0.8,0-1.9,0.7-1.9,2.1l0,3.3l-7.8,0.1L561.2,184.2z M572.9,191.9c-2.4,0.7-4.4,0.2-4.4,3.3
			c0,1.1,0.6,1.7,1.7,1.7c1.2,0,2.7-0.8,2.7-2.5L572.9,191.9z"/>
		<path class="st56" d="M605,168.8l0.4,33.3l-8.2,0.1l0-2.1c-1.4,1.9-3.3,2.7-5.2,2.8c-4.6,0.1-7-3.9-7-8.4l-0.1-10.3
			c-0.1-4.7,1.5-9.1,6.9-9.2c1.9,0,4.1,0.6,5.2,2.4l-0.1-8.5L605,168.8z M593,183.4l0.1,11.2c0,1,0.7,1.8,2.2,1.8
			c1.2,0,1.9-0.9,1.9-1.9l-0.1-11.2c0-1.2-1-1.8-2-1.8C594,181.5,593,182.2,593,183.4z"/>
		<path class="st56" d="M629.5,183.1l0.1,10.8c0.1,4.7-3.3,8.6-9.8,8.7c-6.5,0.1-9.9-3.7-10-8.5l-0.1-10.8c-0.1-4.7,3.3-8.6,9.8-8.7
			C626,174.6,629.5,178.4,629.5,183.1z M621.5,195.2l-0.2-13.1c0-1.1-1-1.4-1.7-1.4c-0.7,0-1.7,0.3-1.7,1.4l0.2,13.1
			c0,1.1,1,1.4,1.7,1.4C620.5,196.6,621.6,196.3,621.5,195.2z"/>
	</g>
	<g>
		<g>
			<g>
				<g class="st26">
					<g>
						<path class="st43" d="M92.4,49.7c-0.9,0-1.7-0.3-2.4-0.9c-0.8-0.6-1.3-1.6-1.4-2.6l-3.1-33.6c-0.2-2.1,1.3-3.9,3.4-4.1
							l8.2-0.8c1-0.1,2,0.2,2.8,0.9c0.8,0.6,1.3,1.6,1.4,2.6l0.9,9.3l0.4,0l-0.9-9.3c-0.2-2.1,1.3-3.9,3.4-4.1l8.2-0.8
							c1-0.1,2,0.2,2.8,0.9c0.8,0.6,1.3,1.6,1.4,2.6l3.1,33.6c0.2,2.1-1.3,3.9-3.4,4.1l-8.2,0.8c-1,0.1-2-0.2-2.8-0.9
							c-0.8-0.6-1.3-1.6-1.4-2.6l-0.9-9.4l-0.4,0l0.9,9.4c0.2,2.1-1.3,3.9-3.4,4.1l-8.2,0.8C92.6,49.7,92.5,49.7,92.4,49.7z
							 M93.4,15.7l2.4,26l0.7-0.1l-0.9-9.4c-0.2-1.8,0.9-3.4,2.6-4c-0.7-0.1-1.3-0.4-1.9-0.8C95.5,26.9,95,26,95,25l-0.9-9.3
							L93.4,15.7z M108,27.5c0.7,0.1,1.3,0.4,1.9,0.8c0.8,0.6,1.3,1.6,1.4,2.6l0.9,9.4l0.7-0.1l-2.4-26l-0.7,0.1l0.9,9.3
							C110.7,25.3,109.6,27,108,27.5z"/>
					</g>
					<g>
						<path class="st43" d="M125.1,45.4c-3,0-5.5-1.2-7.1-3.4c-1.2-1.6-1.9-3.7-2.1-6.5c-0.2-2.6,0.1-4.7,0.8-6.2
							c-0.5-0.6-0.9-1.4-0.9-2.2l-0.2-2c-0.4-4.8,1.4-7.7,2.9-9.3c2-2.1,4.9-3.3,8.6-3.6c2.1-0.2,5.2-0.2,8,1.1c3.1,1.4,5,4,5.3,7.3
							l1.4,15.3c0.1,0.4,0.5,1.6,0.7,2c0.6,1.1,0.6,2.5,0,3.6c-0.6,1.1-1.7,1.9-3,2l-6.9,0.6c-0.6,0.1-1.2,0-1.8-0.3
							c-1.4,0.8-2.9,1.4-4.5,1.5C125.8,45.4,125.4,45.4,125.1,45.4z M133.8,35.8c0.1,0.1,0.1,0.1,0.2,0.2l-0.1-0.6
							C133.9,35.6,133.8,35.7,133.8,35.8z M132.8,27.9c0.2,0.2,0.4,0.3,0.5,0.5l-0.1-1.3C133.1,27.4,132.9,27.7,132.8,27.9z"/>
					</g>
					<g>
						<path class="st43" d="M148.7,43.2c-3.2,0-5.7-0.7-7.7-2.1c-2.6-1.9-4.2-5-4.6-9.1l0-0.3c-0.1-1,0.2-2,0.9-2.8
							c0,0,0.1-0.1,0.1-0.1c-1-1.4-1.7-3.2-1.9-5.6c-0.3-3.5,0.7-6.6,2.9-8.9c2.2-2.2,5.4-3.6,9.5-4c3.4-0.3,6.4,0.4,8.8,1.9
							c2,1.3,4.4,3.9,4.9,8.8l0.1,1c0.1,1-0.2,2-0.9,2.8c0,0,0,0,0,0.1c0.9,1.3,1.6,3.1,1.8,5.3c0.7,7.4-3.7,12.2-11.6,12.9
							C150.2,43.2,149.4,43.2,148.7,43.2z M148.4,19.4L148.4,19.4L148.4,19.4z"/>
					</g>
					<g>
						<path class="st43" d="M170.1,41.3c-6.1,0-10.4-3.7-11-9.4l-0.8-8.5c-1.5-0.4-2.7-1.7-2.8-3.3l-0.5-5.9c-0.1-1,0.2-2,0.9-2.8
							c0.4-0.4,0.8-0.8,1.3-1L157,9.6c-0.2-2.1,1.4-4,3.4-4.1l7.3-0.7c1-0.1,2,0.2,2.8,0.9c0.8,0.6,1.3,1.6,1.4,2.6l0.1,0.6l4.1-0.4
							c2.1-0.2,3.9,1.3,4.1,3.4l0.5,5.9c0.1,1-0.2,2-0.9,2.8c0,0-0.1,0.1-0.1,0.1c0,0,0.1,0.1,0.1,0.1c0.8,0.6,1.3,1.6,1.4,2.6
							l0.6,6.5c0.6,6-3.8,10.9-10.4,11.5C171,41.3,170.5,41.3,170.1,41.3z M163.9,16.3c0.1,0.1,0.2,0.1,0.3,0.2
							c0.5,0.4,0.9,1,1.1,1.6c0.1-0.8,0.5-1.5,1.1-2.1c-0.1-0.1-0.2-0.1-0.3-0.2c-0.5-0.4-0.9-1-1.1-1.6
							C164.9,15,164.5,15.7,163.9,16.3z"/>
					</g>
					<g>
						<path class="st43" d="M185.7,39.9c-3,0-5.5-1.2-7.1-3.4c-1.2-1.6-1.9-3.7-2.1-6.5c-0.2-2.6,0.1-4.7,0.8-6.2
							c-0.5-0.6-0.9-1.4-0.9-2.2l-0.2-2c-0.4-4.8,1.4-7.7,2.9-9.3c2-2.1,4.9-3.3,8.6-3.6c2.1-0.2,5.2-0.2,8,1.1c3.1,1.4,5,4,5.3,7.3
							l1.4,15.3c0.1,0.4,0.5,1.6,0.7,2c0.6,1.1,0.6,2.5,0,3.6c-0.6,1.1-1.7,1.9-3,2l-6.9,0.6c-0.6,0.1-1.2,0-1.8-0.3
							c-1.4,0.8-2.9,1.4-4.5,1.5C186.5,39.8,186.1,39.9,185.7,39.9z M194.5,30.2c0.1,0.1,0.1,0.1,0.2,0.2l-0.1-0.6
							C194.6,30,194.5,30.1,194.5,30.2z M193.5,22.4c0.2,0.2,0.4,0.3,0.5,0.5l-0.1-1.3C193.7,21.9,193.6,22.1,193.5,22.4z"/>
					</g>
				</g>
			</g>
			<g>
				<g class="st26">
					<g>
						<path class="st9" d="M96.2,45.7c-0.9,0-1.7-0.3-2.4-0.9c-0.8-0.6-1.3-1.6-1.4-2.6L89.3,8.6c-0.2-2.1,1.3-3.9,3.4-4.1l8.2-0.8
							c1-0.1,2,0.2,2.8,0.9s1.3,1.6,1.4,2.6l0.9,9.3l0.4,0l-0.9-9.3C105.4,5,106.9,3.2,109,3l8.2-0.8c1-0.1,2,0.2,2.8,0.9
							c0.8,0.6,1.3,1.6,1.4,2.6l3.1,33.6c0.2,2.1-1.3,3.9-3.4,4.1l-8.2,0.8c-1,0.1-2-0.2-2.8-0.9c-0.8-0.6-1.3-1.6-1.4-2.6l-0.9-9.4
							l-0.4,0l0.9,9.4c0.2,2.1-1.3,3.9-3.4,4.1l-8.2,0.8C96.5,45.7,96.3,45.7,96.2,45.7z M97.3,11.7l2.4,26l0.7-0.1l-0.9-9.4
							c-0.1-1,0.2-2,0.9-2.8c0.5-0.5,1-0.9,1.7-1.2c-1.7-0.2-3.1-1.6-3.2-3.4l-0.9-9.3L97.3,11.7z M111.8,23.5
							c1.7,0.2,3.1,1.6,3.2,3.4l0.9,9.4l0.7-0.1l-2.4-26l-0.7,0.1l0.9,9.3c0.1,1-0.2,2-0.9,2.8C113.1,22.8,112.5,23.2,111.8,23.5z"
							/>
					</g>
					<g>
						<path class="st9" d="M128.9,41.4c-3,0-5.5-1.2-7.1-3.4c-1.2-1.6-1.9-3.7-2.1-6.5c-0.2-2.6,0.1-4.7,0.8-6.2
							c-0.5-0.6-0.9-1.4-0.9-2.2l-0.2-2c-0.7-7.3,3.8-12.2,11.6-12.9c2.1-0.2,5.2-0.2,8,1.1c3.1,1.4,5,4,5.3,7.3l1.4,15.3
							c0.1,0.4,0.5,1.6,0.7,2c0.6,1.1,0.6,2.5,0,3.6c-0.6,1.1-1.7,1.9-3,2l-6.9,0.6c-0.6,0.1-1.2,0-1.8-0.3
							c-1.4,0.8-2.9,1.4-4.5,1.5C129.6,41.4,129.2,41.4,128.9,41.4z M137.6,31.8c0.1,0.1,0.1,0.1,0.2,0.2l0-0.5
							C137.7,31.5,137.7,31.6,137.6,31.8z M136.6,23.9c0.2,0.2,0.4,0.3,0.5,0.5l-0.1-1.3C136.9,23.4,136.8,23.6,136.6,23.9z"/>
					</g>
					<g>
						<path class="st9" d="M152.6,39.2c-3.2,0-5.7-0.7-7.7-2.1c-2.6-1.9-4.2-5-4.6-9.1l0-0.3c-0.1-1,0.2-2,0.9-2.8
							c0,0,0.1-0.1,0.1-0.1c-1-1.4-1.7-3.2-1.9-5.6c-0.5-5.6,2.5-11.9,12.4-12.8c3.4-0.3,6.4,0.4,8.8,1.9c2,1.3,4.4,3.9,4.9,8.8
							l0.1,1c0.1,1-0.2,2-0.9,2.8c0,0,0,0,0,0.1c0.9,1.3,1.6,3.1,1.8,5.3c0.7,7.4-3.7,12.2-11.6,12.9
							C154,39.1,153.3,39.2,152.6,39.2z"/>
					</g>
					<g>
						<path class="st9" d="M173.9,37.2c-6.1,0-10.4-3.7-11-9.4l-0.8-8.5c-1.5-0.4-2.7-1.7-2.8-3.3l-0.5-5.9c-0.1-1,0.2-2,0.9-2.8
							c0.4-0.4,0.8-0.8,1.3-1l-0.1-0.8c-0.2-2.1,1.3-3.9,3.4-4.1l7.3-0.7c1-0.1,2,0.2,2.8,0.9c0.8,0.6,1.3,1.6,1.4,2.6l0.1,0.6
							l4.1-0.4c2.1-0.2,3.9,1.3,4.1,3.4l0.5,5.9c0.1,1-0.2,2-0.9,2.8c0,0-0.1,0.1-0.1,0.1c0,0,0.1,0.1,0.1,0.1
							c0.8,0.6,1.3,1.6,1.4,2.6l0.6,6.5c0.6,6-3.8,10.9-10.4,11.5C174.9,37.2,174.4,37.2,173.9,37.2z M167.7,12.2
							c0.6,0.4,1.2,1.1,1.4,1.8c0.1-0.7,0.4-1.3,0.8-1.8c0.1-0.1,0.2-0.2,0.3-0.3c-0.1-0.1-0.2-0.1-0.3-0.2c-0.5-0.4-0.9-1-1.1-1.6
							c-0.1,0.7-0.4,1.3-0.8,1.8C167.9,12.1,167.8,12.2,167.7,12.2z"/>
					</g>
					<g>
						<path class="st9" d="M189.6,35.8c-3,0-5.5-1.2-7.1-3.4c-1.2-1.6-1.9-3.7-2.1-6.5c-0.2-2.6,0.1-4.7,0.8-6.2
							c-0.5-0.6-0.9-1.4-0.9-2.2l-0.2-2c-0.4-4.8,1.4-7.7,2.9-9.3c2-2.1,4.9-3.3,8.6-3.6c2.1-0.2,5.2-0.2,8,1.1c3.1,1.4,5,4,5.3,7.3
							l1.4,15.3c0.1,0.4,0.5,1.6,0.7,2c0.6,1.1,0.6,2.5,0,3.6c-0.6,1.1-1.7,1.9-3,2l-6.9,0.6c-0.6,0.1-1.2,0-1.8-0.3
							c-1.4,0.8-2.9,1.4-4.5,1.5C190.3,35.8,189.9,35.8,189.6,35.8z M198.3,26.2c0.1,0.1,0.1,0.1,0.2,0.2l0-0.5
							C198.4,26,198.4,26.1,198.3,26.2z M197.3,18.3c0.2,0.2,0.4,0.3,0.5,0.5l-0.1-1.3C197.6,17.8,197.4,18.1,197.3,18.3z"/>
					</g>
				</g>
			</g>
			<g>
				<g class="st26">
					<g>
						<path class="st8" d="M120.6,39.6l-8.2,0.8l-1.2-13.1l-8,0.7l1.2,13.1l-8.2,0.8L93.1,8.4l8.2-0.8l1.2,13l8-0.7l-1.2-13l8.2-0.8
							L120.6,39.6z"/>
					</g>
					<g>
						<path class="st8" d="M122.9,20.9c-0.5-5.5,2.7-8.2,8.1-8.7c4.3-0.4,8.7,0.9,9,4.9l1.4,15.3c0.1,1,0.9,2.9,1.1,3.4l-6.9,0.6
							c-0.5-0.5-0.8-1.3-1-1.9c-1.1,1.6-3,3-5.2,3.2c-4.8,0.4-5.9-3.2-6.2-6.4c-0.8-8.4,5.5-6.9,8.5-8.1c0.8-0.4,1.7-1.1,1.7-1.9
							l-0.2-2.1c-0.1-1.3-1.2-1.8-1.9-1.7c-0.7,0.1-1.6,0.7-1.5,2l0.3,2.9l-7,0.6L122.9,20.9z M133.9,26.9c-2.1,0.8-4,0.5-3.7,3.3
							c0.1,1,0.7,1.5,1.6,1.4c1.1-0.1,2.4-1,2.3-2.4L133.9,26.9z"/>
					</g>
					<g>
						<path class="st8" d="M151.9,15.5c-1.2,0.1-1.9,1-1.8,2.2c0.4,3.9,11.3-0.1,12.1,8.9c0.5,5.6-2.8,8.2-8.1,8.7
							c-6.3,0.6-9.7-1.5-10.3-7.6l0-0.3l6.8-0.6c0.2,2,0.7,3.7,2.6,3.5c1.5-0.1,2-0.7,1.9-2.5c-0.4-4-11.4,0.6-12.2-8.8
							c-0.4-4.6,2.3-8,8.9-8.6c4.7-0.4,8.9,1.4,9.4,7.3l0.1,1l-6.8,0.6C154.3,17.3,154.1,15.3,151.9,15.5z"/>
					</g>
					<g>
						<path class="st8" d="M172.5,14.9l1.1,11.7c0.1,0.5,0.5,0.8,0.9,0.7c0.3,0,0.8-0.3,0.7-0.9l-0.6-6.2l6.2-0.6l0.6,6.5
							c0.4,4.4-2.9,6.9-6.9,7.3c-4.5,0.4-7.9-1.5-8.3-5.9l-1.1-12l-2.5,0.2l-0.5-5.8l2.5-0.2l-0.4-4.3l7.3-0.7l0.4,4.3l7.9-0.7
							l0.5,5.8L172.5,14.9z"/>
					</g>
					<g>
						<path class="st8" d="M183.2,15.3c-0.5-5.5,2.7-8.2,8.1-8.7c4.3-0.4,8.7,0.9,9,4.9l1.4,15.3c0.1,1,0.9,2.9,1.1,3.4l-6.9,0.6
							c-0.5-0.5-0.8-1.3-1-1.9c-1.1,1.6-3,3-5.2,3.2c-4.8,0.4-5.9-3.2-6.2-6.4c-0.8-8.4,5.5-6.9,8.5-8.1c0.8-0.4,1.7-1.1,1.7-1.9
							l-0.2-2.1c-0.1-1.3-1.2-1.8-1.9-1.7c-0.7,0.1-1.6,0.7-1.5,2l0.3,2.9l-7,0.6L183.2,15.3z M194.2,21.3c-2.1,0.8-4,0.5-3.7,3.3
							c0.1,1,0.7,1.5,1.6,1.4c1.1-0.1,2.4-1,2.3-2.4L194.2,21.3z"/>
					</g>
				</g>
			</g>
		</g>
		<g>
			<g>
				<g>
					<g class="st26">
						<path class="st43" d="M67.5,167.1c-2.2,0-4.4-0.8-6.2-2.2c-2-1.6-3.2-4-3.4-6.5l-5.2-57c-5.2,0.4-9.8-3.5-10.2-8.7l-1.5-15.9
							c-0.5-5.1,3.1-9.6,8.1-10.4c3.4-0.5,4.2-1.5,5.8-3.7c1.6-2.3,4.2-3.7,6.9-3.9l19-1.7c2.5-0.2,5.1,0.6,7,2.2
							c2,1.6,3.2,4,3.4,6.5l8.2,88.8c0.5,5.3-3.4,10-8.7,10.5l-22.4,2.1C68,167.1,67.7,167.1,67.5,167.1z M63,81.4
							c4.2,0.7,7.5,4.2,7.9,8.6l5.2,57l3.2-0.3l-6.4-69.6l-5.4,0.5C66.3,79,64.8,80.3,63,81.4z"/>
						<path class="st43" d="M129.2,163.2c-6.9,0-12.7-1.1-17.7-3.3c-6.9-3.1-15.5-10-16.9-25.1l-0.7-7.6c-0.1-1.5,0.1-3.1,0.7-4.5
							c-0.8-1.3-1.3-2.7-1.5-4.3L88.3,66c-0.2-2.5,0.6-5.1,2.2-7c1.6-2,4-3.2,6.5-3.4l55.9-5.1c2.5-0.2,5.1,0.6,7,2.2
							c2,1.6,3.2,4,3.4,6.5l1.8,19.7c0.4,4.3-2.1,8.3-6,9.8c6.2,5.1,9.9,12.6,10.8,21.3l1.6,17.8c1.4,15.1-5.8,23.5-12,27.8
							c-5.9,4.1-13.6,6.5-23.6,7.4C133.6,163.1,131.4,163.2,129.2,163.2z M114.1,135c0.6,3.8,2.6,8.4,12.9,8.9
							c-1.2-0.5-2.3-1-3.3-1.8c-2.7-1.9-4.8-4.5-5.9-7.5L114.1,135z M137.3,100.6c5.3,2,9.9,6.7,10.5,13.2l1.3,14
							c0.4,4.6-1.2,9.1-4.6,12.4c-0.9,0.9-1.9,1.7-2.9,2.3c2.9-0.7,5.3-1.7,7.1-2.9c2.2-1.5,4.4-3.9,3.8-10.2l-1.6-17.8
							c-0.4-4.1-1.9-6.9-4.6-8.8C143.8,101.3,140.6,100.5,137.3,100.6z M108.4,73.8l3,33.1l7-0.6c0.5-0.7,1.1-1.4,1.8-2.1
							c-0.4-0.1-0.8-0.3-1.2-0.5c-3-1.5-5.1-4.4-5.4-7.8l-1.1-12.3c-0.5-5.3,3.4-10,8.7-10.5l23.9-2.2l0-0.5L108.4,73.8z"/>
						<path class="st43" d="M200.6,154.9c-2.9,0-5.6-1.3-7.4-3.5c-2-2.4-2.7-5.7-1.8-8.8l6-20.8c-1.7,0.4-3.6,0.7-5.5,0.9
							c-20.1,1.8-30.5-11.2-31.7-24.1l-2.2-23.6c-1.2-12.9,6.7-27.7,26.8-29.5c8.6-0.8,16.3,1.2,22.1,5.7c3.4,2.7,6.1,6.2,7.8,10.2
							l3-10.7c1.1-3.8,4.4-6.6,8.4-7l17.6-1.6c3.2-0.3,6.3,1,8.3,3.5c2,2.5,2.7,5.7,1.8,8.8l-6,20.8c1.7-0.4,3.5-0.7,5.3-0.9
							c17.3-1.6,30.4,8.3,31.9,24.1l0,0l2.2,23.6c0.7,7.5-1.5,14.6-6.3,19.9c-4.9,5.5-12,8.8-20.6,9.6c-15.9,1.5-25.7-6.4-29.7-16.1
							l-3.1,10.9c-1.1,3.8-4.4,6.6-8.4,6.9l-17.5,1.6C201.2,154.9,200.9,154.9,200.6,154.9z M251.9,127.5
							C251.9,127.5,251.9,127.5,251.9,127.5L251.9,127.5z M183.5,98.7L183.5,98.7L183.5,98.7z M183.5,98.7
							C183.5,98.7,183.5,98.7,183.5,98.7C183.5,98.7,183.5,98.7,183.5,98.7L183.5,98.7z"/>
					</g>
				</g>
				<g>
					<g class="st26">
						<path class="st9" d="M78.8,155.1c-2.2,0-4.4-0.8-6.2-2.2c-2-1.6-3.2-4-3.4-6.5l-5.2-57c-5.2,0.4-9.8-3.5-10.2-8.7l-1.5-15.9
							c-0.5-5.1,3.1-9.6,8.1-10.4c3.4-0.5,4.2-1.5,5.8-3.7c1.6-2.3,4.2-3.7,6.9-3.9l19-1.7c5.3-0.5,10,3.4,10.5,8.7l8.2,88.8
							c0.5,5.3-3.4,10-8.7,10.5l-22.4,2.1C79.4,155.1,79.1,155.1,78.8,155.1z M74.4,69.4c4.2,0.7,7.5,4.2,7.9,8.6l5.2,57l3.2-0.3
							l-6.4-69.6l-5.4,0.5C77.6,67,76.1,68.3,74.4,69.4z"/>
						<path class="st9" d="M140.5,151.3c-6.9,0-12.7-1.1-17.7-3.3c-6.9-3.1-15.5-10-16.9-25.1l-0.7-7.6c-0.1-1.5,0.1-3.1,0.7-4.5
							c-0.8-1.3-1.3-2.7-1.5-4.3L99.7,54c-0.2-2.5,0.6-5.1,2.2-7c1.6-2,4-3.2,6.5-3.4l55.9-5.1c2.5-0.2,5.1,0.6,7,2.2
							c2,1.6,3.2,4,3.4,6.5l1.8,19.7c0.4,4.4-2.2,8.3-6,9.8c5.8,4.7,9.9,11.8,10.8,21.3l1.6,17.8c1.4,15.1-5.8,23.5-12,27.8
							c-5.9,4.1-13.6,6.5-23.6,7.4C145,151.1,142.7,151.3,140.5,151.3z M125.4,123c0.6,3.8,2.6,8.4,12.9,8.9
							c-4.1-1.6-7.7-4.8-9.3-9.3L125.4,123z M148.7,88.6c1.3,0.5,2.5,1.1,3.7,1.9c3.9,2.6,6.3,6.8,6.8,11.4l1.3,14
							c0.4,4.6-1.2,9.1-4.6,12.4c-0.9,0.9-1.9,1.7-2.9,2.3c2.9-0.7,5.3-1.7,7.1-2.9c2.2-1.5,4.4-3.9,3.8-10.2l-1.6-17.8
							C161.2,89.5,152.6,88.5,148.7,88.6z M119.7,61.9l3,33.1l7-0.6c0.5-0.7,1.1-1.4,1.8-2.1c-0.4-0.1-0.8-0.3-1.2-0.5
							c-3-1.5-5.1-4.4-5.4-7.8l-1.1-12.3c-0.5-5.3,3.4-10,8.7-10.5l23.9-2.2l0-0.5L119.7,61.9z"/>
						<path class="st9" d="M211.9,142.9c-2.9,0-5.6-1.3-7.4-3.5c-2-2.4-2.7-5.7-1.8-8.8l6-20.8c-1.7,0.4-3.6,0.7-5.5,0.9
							c-20.1,1.8-30.5-11.2-31.7-24.1l-2.2-23.6c-0.7-7.5,1.5-14.5,6.3-19.9c4.9-5.5,12-8.8,20.5-9.6c8.6-0.8,16.3,1.2,22.1,5.7
							c3.4,2.7,6.1,6.2,7.8,10.2l3-10.7c1.1-3.8,4.4-6.6,8.4-7l17.6-1.6c3.2-0.3,6.3,1,8.3,3.5c2,2.5,2.7,5.7,1.8,8.8l-6,20.8
							c1.7-0.4,3.5-0.7,5.3-0.9c17.3-1.6,30.4,8.3,31.9,24.1l0,0l2.2,23.6c0.7,7.5-1.5,14.6-6.3,19.9c-4.9,5.5-12,8.8-20.6,9.6
							c-15.9,1.5-25.7-6.4-29.7-16.1l-3.1,10.9c-1.1,3.8-4.4,6.6-8.4,6.9l-17.5,1.6C212.5,142.9,212.2,142.9,211.9,142.9z
							 M263.2,115.5C263.2,115.5,263.2,115.5,263.2,115.5L263.2,115.5z M194.8,86.7C194.8,86.7,194.8,86.7,194.8,86.7
							C194.8,86.7,194.8,86.7,194.8,86.7L194.8,86.7z"/>
					</g>
				</g>
				<g>
					<g class="st26">
						<path class="st8" d="M75.8,78.3l-9.3,0.9L65,63.4c6.7-1,9.6-4,12.1-7.5L96,54.1l8.1,88.3l-22.2,2L75.8,78.3z"/>
						<path class="st8" d="M137.3,82.4c3.5-2.2,7.7-3.6,12-4c11.3-1,23.5,4.6,24.9,19.6l1.6,17.7c1.7,18.7-13.7,23.4-26.7,24.6
							s-29-0.6-30.7-19.3l-0.7-7.5l22.2-2l0.5,5.7c0.3,3.8,4.2,5.7,7,5.5c2.8-0.3,6.3-2.9,5.9-6.7l-1.3-13.9c-0.3-3.8-4.2-5.7-7-5.5
							c-2.7,0.2-6,2.6-6,6.1l-22.2,2l-4.8-52l55.5-5.1l1.8,19.5l-33.3,3.1L137.3,82.4z"/>
						<path class="st8" d="M220.5,57.9l2.2,23.4c0.9,9.4-5.2,17.7-18.1,18.9c-12.8,1.2-20.2-5.9-21.1-15.3l-2.2-23.4
							c-0.9-9.4,5.2-17.7,18-18.9C212.2,41.4,219.7,48.5,220.5,57.9z M206.7,85.1l-2.6-28c-0.2-2.2-2.3-2.6-3.8-2.5
							c-1.3,0.1-3.3,1-3.1,3.1l2.6,28c0.2,2.2,2.3,2.6,3.6,2.5C205,88.1,206.9,87.3,206.7,85.1z M240.3,40.9l17.5-1.6l-26.2,91.4
							l-17.4,1.6L240.3,40.9z M288.5,86.6l2.2,23.4c0.9,9.4-5.2,17.7-18.1,18.9c-12.8,1.2-20.2-5.9-21.1-15.3l-2.2-23.4
							c-0.9-9.4,5.2-17.7,18-18.9C280.2,70.1,287.7,77.1,288.5,86.6z M274.7,113.8l-2.6-28c-0.2-2.2-2.3-2.6-3.8-2.5
							c-1.3,0.1-3.3,1-3.1,3.1l2.6,28c0.2,2.2,2.3,2.6,3.6,2.5C273,116.8,274.9,115.9,274.7,113.8z"/>
					</g>
				</g>
			</g>
			<g>
				<g>
					<g class="st26">
						<g>
							<path class="st43" d="M50.7,234.1c-10.5,0-18.7-8.4-19.9-20.7l-1.7-18.1c-2-21.8,13-24.9,17.7-25.3c0.6-0.1,1.1-0.1,1.6-0.1
								l-0.3-3.3c-0.4-4.1,2.6-7.7,6.8-8.1l14.5-1.3c4.1-0.4,7.7,2.6,8.1,6.8l5.4,58.9c0.2,2-0.4,3.9-1.7,5.5
								c-1.3,1.5-3.1,2.5-5.1,2.7l-14.6,1.3c-0.7,0.1-1.5,0-2.1-0.1c-2.1,1.1-4.4,1.8-6.9,2C51.9,234.1,51.3,234.1,50.7,234.1z
								 M66.3,216.2c0.1,0.2,0.3,0.3,0.4,0.5l0.7-0.1l-0.3-2.8C66.9,214.6,66.6,215.4,66.3,216.2z M60.1,211.2L60.1,211.2
								L60.1,211.2z M58.3,191.3C58.3,191.3,58.3,191.3,58.3,191.3L58.3,191.3C58.3,191.3,58.3,191.3,58.3,191.3z M63.2,185
								c0.6,0.7,1.1,1.6,1.5,2.5l-0.4-4.8C64,183.5,63.7,184.3,63.2,185z"/>
						</g>
						<g>
							<path class="st43" d="M96.7,230.1c-6.6,0-11.9-1.7-16-5.2c-4.8-4.1-7.7-10.4-8.4-18.8l-1-11.1c-0.8-8.2,0.5-14.5,3.9-19.5
								c3.9-5.8,10.4-9.1,19.3-9.9c9.7-0.9,15.9,2.6,19.4,5.6c4.3,3.8,7,9.2,7.6,15.1l1.1,12.1c0.1,0.7,0,1.4-0.1,2
								c0.2,0.6,0.4,1.3,0.4,2c0.7,7.7-0.8,14-4.6,18.8c-4,5.1-10,8.1-17.9,8.8C99.2,230,97.9,230.1,96.7,230.1z M86.4,196.2
								l0.3,2.8c0.1-0.5,0.3-1,0.6-1.4C86.9,197.1,86.6,196.6,86.4,196.2z"/>
						</g>
						<g>
							<path class="st43" d="M159.6,224.1c-10.5,0-18.7-8.4-19.9-20.7l-1.7-18.1c-2-21.8,13-24.9,17.7-25.3c0.6-0.1,1.1-0.1,1.6-0.1
								l-0.3-3.3c-0.4-4.1,2.6-7.7,6.8-8.1l14.5-1.3c2-0.2,3.9,0.4,5.5,1.7c1.5,1.3,2.5,3.1,2.7,5.1l5.4,58.9c0.2,2-0.4,3.9-1.7,5.5
								s-3.1,2.5-5.1,2.7l-14.6,1.3c-0.7,0.1-1.4,0-2.1-0.1c-2.1,1.1-4.4,1.8-6.9,2C160.8,224.1,160.2,224.1,159.6,224.1z
								 M175.2,206.2c0.1,0.2,0.3,0.3,0.4,0.5l0.7-0.1l-0.3-2.8C175.8,204.6,175.5,205.4,175.2,206.2z M169,201.2L169,201.2
								L169,201.2z M167.2,181.3C167.2,181.3,167.2,181.3,167.2,181.3L167.2,181.3C167.2,181.3,167.2,181.3,167.2,181.3z M172.1,175
								c0.6,0.7,1.1,1.6,1.5,2.5l-0.4-4.8C172.9,173.5,172.6,174.3,172.1,175z"/>
						</g>
						<g>
							<path class="st43" d="M205.7,220.1c-18.1,0-23.1-11.8-24.1-22l-0.1-0.6c-0.2-2,0.4-3.9,1.7-5.5c0.1-0.1,0.2-0.2,0.2-0.3
								c-1.9-2.7-3.3-6.3-3.8-11c-0.6-6.9,1.3-12.9,5.7-17.4c4.3-4.4,10.5-7,18.6-7.8c6.7-0.6,12.6,0.7,17.2,3.8
								c3.9,2.6,8.6,7.7,9.5,17.3l0.2,1.9c0.2,2-0.4,3.9-1.7,5.5c0,0-0.1,0.1-0.1,0.1c1.8,2.6,3.1,6,3.5,10.5
								c1.3,14.5-7.2,23.9-22.8,25.4C208.4,220,207,220.1,205.7,220.1z M205,173.3L205,173.3L205,173.3z"/>
						</g>
						<g>
							<path class="st43" d="M246.5,216.4c-9.2,0-14.8-4.4-17.9-8.2c-3.8-4.7-6.1-11.1-6.8-19l-0.7-7.2
								c-2.3-25.1,14.8-29.4,22.3-30.1c15.7-1.4,24.8,6.2,27.2,22.7c0.3,2-0.3,4.1-1.5,5.7c-0.4,0.5-0.9,1-1.4,1.4
								c2.3,1.1,4,3.3,4.2,6.1c0.7,7.4,0.3,10.2-0.2,11.9c-2.5,9.5-10.6,15.6-22.4,16.7C248.3,216.3,247.4,216.4,246.5,216.4z"/>
						</g>
						<g>
							<path class="st43" d="M285.5,212.8c-12,0-20.5-7.2-21.5-18.5l-1.5-16.6c-3-0.8-5.3-3.3-5.6-6.6l-1.1-11.5
								c-0.2-2,0.4-3.9,1.7-5.5c0.7-0.9,1.6-1.5,2.6-2l-0.1-1.5c-0.4-4.1,2.6-7.7,6.8-8.1l14.4-1.3c2-0.2,3.9,0.4,5.5,1.7
								c1.5,1.3,2.5,3.1,2.7,5.1l0.1,1.1l8.1-0.7c4.1-0.4,7.7,2.6,8.1,6.8l1.1,11.5c0.2,2-0.4,3.9-1.7,5.5c-0.1,0.1-0.1,0.1-0.2,0.2
								c0.1,0.1,0.1,0.1,0.2,0.2c1.5,1.3,2.5,3.1,2.7,5.1l1.2,12.8c1.1,11.9-7.5,21.3-20.4,22.5
								C287.4,212.7,286.4,212.8,285.5,212.8z M273.4,163.7c0.2,0.1,0.4,0.3,0.6,0.4c1,0.8,1.8,1.9,2.2,3.2c0.2-1.3,0.8-2.5,1.6-3.5
								c0.2-0.2,0.3-0.4,0.5-0.5c-0.2-0.1-0.4-0.3-0.6-0.4c-1-0.8-1.8-1.9-2.2-3.2C275.3,161.3,274.5,162.7,273.4,163.7z"/>
						</g>
						<g>
							<path class="st43" d="M321.8,209.4c-13.1,0-22.8-8.1-23.9-20.5l-1.8-19.1c-0.6-6.3,1.3-12.3,5.3-16.8
								c4.1-4.7,10.2-7.5,17.5-8.1c7.3-0.7,13.8,1,18.7,4.8c4.8,3.7,7.7,9.2,8.3,15.5l1.8,19.1c0.6,6.3-1.3,12.3-5.3,16.8
								c-4.1,4.7-10.2,7.5-17.5,8.1C323.8,209.4,322.8,209.4,321.8,209.4z M318.6,189C318.6,189,318.6,189,318.6,189
								C318.6,189,318.6,189,318.6,189L318.6,189z"/>
						</g>
						<g>
							<path class="st43" d="M347.3,205.8c-1.7,0-3.4-0.6-4.8-1.7c-1.5-1.3-2.5-3.1-2.7-5.1l-1.3-14.4c-0.4-4.1,2.6-7.7,6.8-8.1
								l14.4-1.3c4.1-0.4,7.7,2.6,8.1,6.8l1.3,14.4c0.4,4.1-2.6,7.7-6.8,8.1l-14.4,1.3C347.8,205.8,347.6,205.8,347.3,205.8z"/>
						</g>
					</g>
				</g>
				<g>
					<g class="st26">
						<g>
							<path class="st9" d="M58.2,226.2c-10.5,0-18.7-8.4-19.9-20.7l-1.7-18.2c-2-21.8,13-24.9,17.7-25.3c0.6-0.1,1.1-0.1,1.6-0.1
								l-0.3-3.3c-0.4-4.1,2.6-7.7,6.8-8.1l14.5-1.3c2-0.2,3.9,0.4,5.5,1.7c1.5,1.3,2.5,3.1,2.7,5.1l5.4,58.9
								c0.4,4.1-2.6,7.7-6.8,8.1l-14.6,1.3c-0.7,0.1-1.4,0-2.1-0.1c-2.1,1.1-4.4,1.8-6.9,2C59.4,226.2,58.8,226.2,58.2,226.2z
								 M73.8,208.2c0.1,0.2,0.3,0.3,0.4,0.5l0.7-0.1l-0.3-2.8C74.4,206.7,74.1,207.5,73.8,208.2z M70.7,177
								c0.6,0.7,1.1,1.6,1.5,2.5l-0.4-4.8C71.5,175.5,71.2,176.3,70.7,177z"/>
						</g>
						<g>
							<path class="st9" d="M104.2,222.2c-6.6,0-11.9-1.7-16-5.2c-4.8-4.1-7.7-10.4-8.4-18.8l-1-11.1c-0.8-8.2,0.5-14.5,3.9-19.5
								c3.9-5.8,10.4-9.1,19.3-9.9c9.7-0.9,15.9,2.6,19.4,5.6c4.3,3.8,7,9.2,7.6,15.1l1.1,12.1c0.1,0.7,0,1.4-0.1,2
								c0.2,0.6,0.4,1.3,0.4,2c1.5,15.9-6.9,26.2-22.5,27.6C106.7,222.1,105.4,222.2,104.2,222.2z M93.9,188.2l0.3,2.8
								c0.1-0.5,0.3-1,0.6-1.4C94.4,189.1,94.1,188.7,93.9,188.2z M99.5,179C99.5,179,99.5,179,99.5,179L99.5,179z"/>
						</g>
						<g>
							<path class="st9" d="M167.1,216.2c-10.5,0-18.7-8.4-19.9-20.7l-1.7-18.2c-2-21.8,13-24.9,17.7-25.3c0.6-0.1,1.1-0.1,1.6-0.1
								l-0.3-3.3c-0.2-2,0.4-3.9,1.7-5.5c1.3-1.5,3.1-2.5,5.1-2.7l14.5-1.3c4.1-0.4,7.7,2.6,8.1,6.8l5.4,58.9
								c0.4,4.1-2.6,7.7-6.8,8.1l-14.6,1.3c-0.7,0.1-1.5,0-2.1-0.1c-2.1,1.1-4.4,1.8-6.9,2C168.3,216.2,167.7,216.2,167.1,216.2z
								 M182.7,198.2c0.1,0.2,0.3,0.3,0.4,0.5l0.7-0.1l-0.3-2.8C183.3,196.7,183,197.5,182.7,198.2z M174.7,173.4L174.7,173.4
								C174.7,173.4,174.7,173.4,174.7,173.4L174.7,173.4z M179.6,167c0.6,0.7,1.1,1.6,1.5,2.5l-0.4-4.8
								C180.4,165.5,180.1,166.3,179.6,167z"/>
						</g>
						<g>
							<path class="st9" d="M213.1,212.1c-6.2,0-11.1-1.4-15-4.2c-5.2-3.7-8.2-9.7-8.9-17.9l-0.1-0.6c-0.2-2,0.4-3.9,1.7-5.5
								c0.1-0.1,0.2-0.2,0.2-0.3c-1.9-2.7-3.3-6.3-3.8-11c-1-11,4.8-23.4,24.3-25.1c6.7-0.6,12.6,0.7,17.2,3.8
								c3.9,2.6,8.6,7.7,9.5,17.3l0.2,1.9c0.2,2-0.4,3.9-1.7,5.5c0,0-0.1,0.1-0.1,0.1c1.8,2.6,3.1,6,3.5,10.5
								c1.3,14.4-7.2,23.9-22.8,25.4C215.9,212.1,214.5,212.1,213.1,212.1z"/>
						</g>
						<g>
							<path class="st9" d="M254,208.4c-9.2,0-14.8-4.4-17.9-8.2c-3.8-4.7-6.1-11.1-6.8-19l-0.7-7.2c-2.3-25.1,14.8-29.4,22.3-30.1
								c15.7-1.4,24.8,6.2,27.2,22.7c0.3,2-0.3,4.1-1.5,5.7c-0.4,0.5-0.9,1-1.4,1.4c2.3,1.1,4,3.3,4.2,6.1
								c0.7,7.4,0.3,10.2-0.2,11.9c-2.5,9.5-10.6,15.6-22.4,16.7C255.8,208.4,254.9,208.4,254,208.4z"/>
						</g>
						<g>
							<path class="st9" d="M293,204.8c-12,0-20.5-7.2-21.5-18.5l-1.5-16.6c-3-0.8-5.3-3.3-5.6-6.6l-1.1-11.5
								c-0.2-2,0.4-3.9,1.7-5.5c0.7-0.9,1.6-1.5,2.6-2l-0.1-1.5c-0.4-4.1,2.6-7.7,6.8-8.1l14.4-1.3c2-0.2,3.9,0.4,5.5,1.7
								c1.5,1.3,2.5,3.1,2.7,5.1l0.1,1.1l8.1-0.7c4.1-0.4,7.7,2.6,8.1,6.8l1.1,11.5c0.2,2-0.4,3.9-1.7,5.5c-0.1,0.1-0.1,0.1-0.2,0.2
								c0.1,0.1,0.1,0.1,0.2,0.2c1.5,1.3,2.5,3.1,2.7,5.1l1.2,12.8c0.6,6.3-1.5,12.1-5.8,16.2c-3.7,3.5-8.8,5.8-14.5,6.3
								C294.9,204.8,294,204.8,293,204.8z M281,155.8c0.2,0.1,0.4,0.3,0.6,0.4c1,0.8,1.8,1.9,2.2,3.2c0.2-1.3,0.8-2.5,1.6-3.5
								c0.2-0.2,0.3-0.4,0.5-0.5c-0.2-0.1-0.4-0.3-0.6-0.4c-1-0.8-1.8-1.9-2.2-3.2C282.8,153.3,282,154.7,281,155.8z"/>
						</g>
						<g>
							<path class="st9" d="M329.3,201.5c-13.1,0-22.8-8.1-23.9-20.5l-1.8-19.1c-1.2-13.3,8.1-23.6,22.8-24.9
								c7.3-0.7,13.8,1,18.7,4.8c4.8,3.7,7.7,9.2,8.3,15.5l1.8,19.1c0.6,6.3-1.3,12.3-5.3,16.8c-4.1,4.7-10.2,7.5-17.5,8.1
								C331.3,201.4,330.3,201.5,329.3,201.5z M326.1,181.1C326.1,181.1,326.1,181.1,326.1,181.1
								C326.1,181.1,326.1,181.1,326.1,181.1L326.1,181.1z"/>
						</g>
						<g>
							<path class="st9" d="M354.8,197.9c-3.8,0-7.1-2.9-7.4-6.8l-1.3-14.4c-0.2-2,0.4-3.9,1.7-5.5c1.3-1.5,3.1-2.5,5.1-2.7
								l14.4-1.3c4.1-0.4,7.7,2.6,8.1,6.8l1.3,14.4c0.2,2-0.4,3.9-1.7,5.5c-1.3,1.5-3.1,2.5-5.1,2.7l-14.4,1.3
								C355.3,197.9,355.1,197.9,354.8,197.9z"/>
						</g>
					</g>
				</g>
				<g>
					<g class="st26">
						<g>
							<path class="st8" d="M77.4,156.9l5.4,58.5l-14.5,1.3l-0.3-3.7c-2.2,3.5-5.4,5.3-8.7,5.6c-8,0.7-12.8-5.9-13.5-13.8l-1.7-18
								c-0.8-8.3,1.3-16.2,10.9-17.1c3.4-0.3,7.3,0.5,9.4,3.5L63,158.3L77.4,156.9z M58.3,184.3l1.8,19.7c0.2,1.7,1.5,3.1,4,2.9
								c2.1-0.2,3.3-1.8,3.1-3.5l-1.8-19.7c-0.2-2.1-2.1-3.1-3.7-2.9C59.8,180.9,58.1,182.1,58.3,184.3z"/>
						</g>
						<g>
							<path class="st8" d="M106.9,214.6c-12.3,1.1-18.8-4.2-19.9-17l-1-11.1c-1.1-11.7,2.6-19.9,16.3-21.1
								c12.2-1.1,18.1,6.5,18.7,13.9l1.1,12.1l-21.2,1.9l0.8,8.6c0.2,2.1,2.5,2.7,3.9,2.6c1.5-0.1,3.4-1.3,3.2-3.3l-0.4-4.6l14-1.3
								C123.5,206.4,118.6,213.5,106.9,214.6z M106.6,178.6c-0.1-1.4-1.8-3.2-3.6-3c-2.1,0.2-3.4,2.2-3.3,3.6l0.5,5.9l6.9-0.6
								L106.6,178.6z"/>
						</g>
						<g>
							<path class="st8" d="M185.6,147l5.4,58.5l-14.5,1.3l-0.3-3.7c-2.2,3.5-5.4,5.3-8.7,5.6c-8,0.7-12.8-5.9-13.5-13.8l-1.7-18
								c-0.8-8.3,1.3-16.2,10.9-17.1c3.4-0.3,7.3,0.5,9.4,3.5l-1.4-14.9L185.6,147z M166.5,174.3l1.8,19.7c0.2,1.7,1.5,3.1,4,2.9
								c2.1-0.2,3.3-1.8,3.1-3.5l-1.8-19.7c-0.2-2.1-2.1-3.1-3.7-2.9C168,170.9,166.3,172.2,166.5,174.3z"/>
						</g>
						<g>
							<path class="st8" d="M211.5,165.7c-2.3,0.2-3.8,2-3.6,4.3c0.7,7.7,22.1-0.2,23.8,17.4c1,10.9-5.4,16.2-15.9,17.1
								c-12.4,1.1-19-3-20.1-15l-0.1-0.6l13.4-1.2c0.5,4,1.4,7.2,5.1,6.8c2.9-0.3,4-1.4,3.7-4.9c-0.7-7.9-22.3,1.2-24-17.3
								c-0.8-9.1,4.6-15.7,17.4-16.9c9.2-0.8,17.5,2.8,18.5,14.2l0.2,1.9l-13.4,1.2C216.2,169.3,215.8,165.3,211.5,165.7z"/>
						</g>
						<g>
							<path class="st8" d="M254.9,201c-13.1,1.2-18.3-8.7-19.3-20.2l-0.7-7.1c-1-10.6,1.8-20.6,15.5-21.9
								c12.9-1.2,17.4,5.1,19,16.2l-14.3,1.3l-0.3-3.8c-0.2-2.1-1.4-3.4-3.4-3.2c-1.9,0.2-2.9,1.6-2.7,3.8l1.9,21
								c0.2,2,1.6,3.4,3.4,3.2c1.9-0.2,2.9-1.8,2.7-3.8l-0.4-4.6l14.4-1.3c0.4,4.6,0.4,7.8,0,9.3C269,196.1,263.5,200.2,254.9,201z"
								/>
						</g>
						<g>
							<path class="st8" d="M289.7,161l2.1,23c0.1,1.1,1,1.5,1.8,1.5c0.6-0.1,1.6-0.7,1.5-1.8l-1.1-12.1l12.2-1.1l1.2,12.7
								c0.8,8.6-5.8,13.6-13.5,14.3c-8.8,0.8-15.4-3-16.2-11.6l-2.2-23.5l-4.9,0.5l-1.1-11.4l4.9-0.5l-0.8-8.5l14.3-1.3l0.8,8.5
								l15.4-1.4l1.1,11.4L289.7,161z"/>
						</g>
						<g>
							<path class="st8" d="M344.2,158.4l1.7,19c0.8,8.3-4.6,15.6-15.9,16.7c-11.3,1-17.9-5.2-18.7-13.5l-1.7-19
								c-0.8-8.3,4.6-15.6,15.9-16.7C336.8,143.8,343.4,150,344.2,158.4z M331.8,180.7l-2.1-23c-0.2-2-2-2.3-3.3-2.2
								c-1.3,0.1-3,0.8-2.8,2.8l2.1,23c0.2,2,2,2.3,3.3,2.2C330.3,183.3,332,182.6,331.8,180.7z"/>
						</g>
						<g>
							<path class="st8" d="M367.3,189.3l-14.3,1.3l-1.3-14.3L366,175L367.3,189.3z"/>
						</g>
					</g>
				</g>
			</g>
		</g>
		<g>
			<g>
				<g>
					<g>
						<path class="st57" d="M361.2,136.2l0,4.9l4.7-1.9l0.9,4l-4.3,0.7l3.2,3.5l-3.4,2.2L360,146l-1.3,4l-3.9-1.5l2.4-4.1l-4.3,0.1
							l0.2-4l4.9,0.9l-1-4.8L361.2,136.2z"/>
						<path class="st58" d="M358.7,154.2c-0.5,0-1-0.1-1.5-0.3l-3.9-1.5c-1.2-0.4-2.1-1.4-2.5-2.6c-0.2-0.6-0.3-1.2-0.2-1.9
							c-0.3-0.2-0.5-0.4-0.7-0.6c-0.8-0.8-1.3-2-1.2-3.2l0.2-4c0.1-1.2,0.6-2.4,1.6-3.1c0.7-0.5,1.5-0.8,2.3-0.9
							c0.1-0.8,0.3-1.5,0.8-2.1c0.7-1,1.8-1.6,3-1.7l4.1-0.4c1.2-0.1,2.4,0.3,3.3,1.1c0.6,0.5,1,1.2,1.2,1.9c0.9-0.1,1.8,0,2.6,0.4
							c1.1,0.6,1.9,1.6,2.2,2.8l0.9,4c0.3,1.1,0,2.3-0.6,3.3c-0.2,0.2-0.3,0.4-0.5,0.6c0.2,0.6,0.2,1.2,0.2,1.8
							c-0.1,1.2-0.8,2.3-1.9,3l-3.4,2.2c-0.9,0.6-2.1,0.9-3.2,0.6c-0.2,0-0.4-0.1-0.6-0.2c-0.1,0.1-0.2,0.1-0.3,0.2
							C360,154.1,359.4,154.2,358.7,154.2z"/>
					</g>
				</g>
			</g>
			<g>
				<g>
					<g>
						<g>
							<path class="st59" d="M363.4,133.1l0,4.9l4.7-1.9l0.9,4l-4.3,0.7l3.2,3.5l-3.4,2.2l-2.4-3.7l-1.3,4l-3.9-1.5l2.4-4.1
								l-4.3,0.1l0.2-4l4.9,0.9l-1-4.8L363.4,133.1z"/>
							<path class="st9" d="M360.9,151.2c-0.5,0-1-0.1-1.5-0.3l-3.9-1.5c-1.2-0.4-2.1-1.4-2.5-2.6c-0.2-0.6-0.3-1.2-0.2-1.9
								c-0.3-0.2-0.5-0.4-0.7-0.6c-0.8-0.8-1.3-2-1.2-3.2l0.2-4c0.1-1.2,0.6-2.4,1.6-3.1c0.7-0.5,1.5-0.8,2.3-0.9
								c0.1-0.8,0.3-1.5,0.8-2.1c0.7-1,1.8-1.6,3-1.7l4.1-0.4c1.2-0.1,2.4,0.3,3.3,1.1c0.6,0.5,1,1.2,1.2,1.9c0.9-0.1,1.8,0,2.6,0.4
								c1.1,0.6,1.9,1.6,2.2,2.8l0.9,4c0.3,1.1,0,2.3-0.6,3.3c-0.2,0.2-0.3,0.4-0.5,0.6c0.2,0.6,0.2,1.2,0.2,1.8
								c-0.1,1.2-0.8,2.3-1.9,3l-3.4,2.2c-0.9,0.6-2.1,0.9-3.2,0.6c-0.2,0-0.4-0.1-0.6-0.2c-0.1,0.1-0.2,0.1-0.3,0.2
								C362.2,151,361.6,151.2,360.9,151.2z"/>
						</g>
					</g>
				</g>
				<g>
					<g>
						<path class="st8" d="M363.8,133l0,4.9l4.7-1.9l0.9,4l-4.3,0.7l3.2,3.5l-3.4,2.2l-2.4-3.7l-1.3,4l-3.9-1.5l2.4-4.1l-4.3,0.1
							l0.2-4l4.9,0.9l-1-4.8L363.8,133z"/>
					</g>
				</g>
			</g>
		</g>
	</g>
</g>
</svg>
