<?xml version="1.0" encoding="utf-8"?>
<!-- Generator: Adobe Illustrator 24.1.0, SVG Export Plug-In . SVG Version: 6.00 Build 0)  -->
<svg version="1.1" id="Capa_1" xmlns="http://www.w3.org/2000/svg" xmlns:xlink="http://www.w3.org/1999/xlink" x="0px" y="0px"
	 viewBox="0 0 747.1 230.1" style="enable-background:new 0 0 747.1 230.1;" xml:space="preserve">
<style type="text/css">
	.st0{fill:#365D32;}
	.st1{fill:#4B8142;}
	.st2{fill:#5B5B5F;}
	.st3{opacity:0.8;}
	.st4{fill:#9BB337;}
	.st5{fill:#508946;}
	.st6{opacity:0.4;}
	.st7{fill:#9EBB32;}
	.st8{fill:#FFFFFF;}
	.st9{fill:#DC1D3C;}
	.st10{fill:#D4802E;}
	.st11{fill:#91542F;}
	.st12{fill:#DB8000;}
	.st13{clip-path:url(#SVGID_2_);}
	.st14{fill:#005C24;}
	.st15{fill-rule:evenodd;clip-rule:evenodd;fill:#015F22;}
	.st16{fill-rule:evenodd;clip-rule:evenodd;fill:#26852C;}
	.st17{fill:#015F22;}
	.st18{clip-path:url(#SVGID_4_);}
	.st19{fill:#47600E;}
	.st20{fill:#8CB520;}
	.st21{fill:#184425;}
	.st22{fill:#00813A;}
	.st23{opacity:0.59;fill:#53631F;}
	.st24{fill:#F5C10D;}
	.st25{fill:#2E462B;}
	.st26{enable-background:new    ;}
	.st27{fill:#801E32;}
	.st28{fill:#191814;}
	.st29{fill:#6A1D17;stroke:#7E2931;stroke-width:8.6296;stroke-linecap:round;stroke-linejoin:round;stroke-miterlimit:10;}
	.st30{fill:none;stroke:#801E32;stroke-width:19.2079;stroke-linecap:round;stroke-linejoin:round;stroke-miterlimit:10;}
	.st31{fill:none;stroke:#DC1D3C;stroke-width:19.2079;stroke-linecap:round;stroke-linejoin:round;stroke-miterlimit:10;}
	.st32{fill:#B61230;stroke:#DC1D3C;stroke-width:8.6296;stroke-linecap:round;stroke-linejoin:round;stroke-miterlimit:10;}
	.st33{clip-path:url(#SVGID_6_);}
	.st34{clip-path:url(#SVGID_8_);}
	.st35{fill:#020302;}
	.st36{fill:none;stroke:#020302;stroke-width:23.7377;stroke-linecap:round;stroke-linejoin:round;stroke-miterlimit:10;}
	.st37{fill:none;stroke:#345C35;stroke-width:23.7377;stroke-linecap:round;stroke-linejoin:round;stroke-miterlimit:10;}
	.st38{clip-path:url(#SVGID_10_);}
	.st39{clip-path:url(#SVGID_12_);}
	.st40{clip-path:url(#SVGID_14_);}
	.st41{clip-path:url(#SVGID_16_);}
	.st42{opacity:0.59;fill:#54642C;}
	.st43{fill:#801D33;}
	.st44{clip-path:url(#SVGID_18_);}
	.st45{clip-path:url(#SVGID_20_);}
	.st46{clip-path:url(#SVGID_22_);}
	.st47{clip-path:url(#SVGID_24_);}
	.st48{clip-path:url(#SVGID_26_);}
	.st49{clip-path:url(#SVGID_28_);}
	.st50{clip-path:url(#SVGID_30_);}
	.st51{clip-path:url(#SVGID_32_);}
	.st52{clip-path:url(#SVGID_34_);}
	.st53{clip-path:url(#SVGID_36_);}
	.st54{clip-path:url(#SVGID_38_);}
	.st55{clip-path:url(#SVGID_40_);}
	.st56{fill:#385E32;}
	.st57{fill:#6A1D17;}
	.st58{fill:#7F2932;}
	.st59{fill:#B52031;}
	.st60{fill:#7C1816;}
	.st61{fill:#8C242E;}
	.st62{fill:#8F1A30;}
	.st63{fill:#DA1D41;}
	.st64{fill:#D41E2F;}
	.st65{clip-path:url(#SVGID_42_);}
	.st66{clip-path:url(#SVGID_44_);}
	.st67{fill:#2F462B;}
	.st68{fill:#008847;}
	.st69{fill:#6A1D17;stroke:#7F2932;stroke-width:8.6296;stroke-linecap:round;stroke-linejoin:round;stroke-miterlimit:10;}
	.st70{fill:none;stroke:#801D33;stroke-width:19.2079;stroke-linecap:round;stroke-linejoin:round;stroke-miterlimit:10;}
	.st71{fill:#B52031;stroke:#DC1D3C;stroke-width:8.6296;stroke-linecap:round;stroke-linejoin:round;stroke-miterlimit:10;}
	.st72{fill:#FFFFFF;stroke:#FFFFFF;stroke-width:29;stroke-linecap:round;stroke-linejoin:round;stroke-miterlimit:10;}
	.st73{fill:#243259;}
	.st74{opacity:0.3;}
	.st75{fill:#162E5A;}
	.st76{fill:#414D6F;}
	.st77{fill:#EDC913;}
	.st78{fill:#0099DC;}
	.st79{fill:#D6802E;}
	.st80{fill:#93542F;}
	.st81{fill:#E57800;}
	.st82{fill:none;stroke:#0099DC;stroke-width:23.7377;stroke-linecap:round;stroke-linejoin:round;stroke-miterlimit:10;}
	.st83{clip-path:url(#SVGID_46_);fill:#243359;}
	.st84{clip-path:url(#SVGID_48_);fill:#068CCE;}
	.st85{opacity:0.2;fill:#444444;}
	.st86{fill:#42210B;}
	.st87{fill:#EC8000;}
	.st88{fill:#FFCA18;}
	.st89{opacity:0.45;}
	.st90{clip-path:url(#SVGID_50_);fill:#454243;}
	.st91{fill:none;stroke:#FFFFFF;stroke-width:0.975;stroke-miterlimit:10;}
	.st92{opacity:0.7;clip-path:url(#SVGID_52_);}
	.st93{clip-path:url(#SVGID_54_);fill:#FFFFFF;}
	.st94{clip-path:url(#SVGID_52_);fill:#FFFFFF;}
	.st95{clip-path:url(#SVGID_52_);fill:#273E6A;}
	.st96{clip-path:url(#SVGID_52_);fill-rule:evenodd;clip-rule:evenodd;fill:#273E6A;}
	.st97{fill:none;stroke:#42210B;stroke-width:19.285;stroke-linecap:round;stroke-linejoin:round;stroke-miterlimit:10;}
	.st98{fill:none;stroke:#EC8000;stroke-width:19.285;stroke-linecap:round;stroke-linejoin:round;stroke-miterlimit:10;}
</style>
<g>
	<g>
		<path class="st23" d="M706.3,211.7L74.2,221.7c-16,0.3-29.2-10.9-29.5-24.9L35,141c-0.3-14.1,12.5-25.7,28.5-26l636.4-22.5
			c16-0.3,29.2,10.9,29.5,24.9l5.5,68.3C735.1,199.7,722.3,211.4,706.3,211.7z"/>
		<path class="st24" d="M718.6,201.2L86.4,211.3c-16,0.3-29.2-10.9-29.5-24.9l-9.8-55.9c-0.3-14.1,12.5-25.7,28.5-26l636.4-22.5
			c16-0.3,29.2,10.9,29.5,24.9l5.5,68.3C747.3,189.3,734.6,200.9,718.6,201.2z"/>
	</g>
	<g>
		<g>
			<path class="st0" d="M459.8,121.2l-5.4,0.2l-0.2-5.4l5.4-0.2L459.8,121.2z M460.8,140.5l-6.3,0.2l0-17.5l5.4-0.2L460.8,140.5z"/>
			<path class="st0" d="M473.5,115.4c8.2-0.2,8.6,4,8.9,8.8l0,0.1c0,4.8-0.1,9-8.4,9.3l-2.4,0.1l0.2,6.6l-6.1,0.2l-0.7-24.7
				L473.5,115.4z M471.4,128.2l2.6-0.1c2.1-0.1,2.3-2.8,2.3-3.7c0-0.9-0.4-3.7-2.5-3.6l-2.6,0.1L471.4,128.2z"/>
			<path class="st0" d="M497.4,131.2l-5.5,0.2l0.2,8.3l-6.1,0.2l-0.5-18.5c-0.1-4.7,3.7-7,8.6-7.1c4.9-0.1,9,1.9,9.1,6.6l0.5,18.5
				l-6.1,0.2L497.4,131.2z M497.2,125.8l-0.1-4.2c0-0.6-1-1.7-2.8-1.6c-1.8,0.1-2.8,1.2-2.7,1.8l0.1,4.2L497.2,125.8z"/>
			<path class="st0" d="M506.7,114.4l10.4-0.3c5.5-0.2,6.9,2.8,7,6.3c0.1,2.4-0.1,4.7-2.5,6.3c2.7,1.3,2.9,3.4,2.9,5.9l0.2,6.1
				l-6.5,0.2l-0.2-7.1c0-1.5-0.4-2.6-1.6-2.5l-3.1,0.1l0.3,9.7l-6.1,0.2L506.7,114.4z M516.4,124.4c0.8,0,1.3-1.8,1.3-2.7
				c0-1.5-0.7-2.1-1.7-2.1l-3,0.1l0.1,4.8L516.4,124.4z"/>
			<path class="st0" d="M539.1,130l-5.5,0.2l0.2,8.3l-6.1,0.2l-0.5-18.5c-0.1-4.7,3.7-7,8.6-7.1c4.9-0.1,9,1.9,9.1,6.6l0.5,18.5
				l-6.1,0.2L539.1,130z M538.9,124.6l-0.1-4.2c0-0.6-1-1.7-2.8-1.6c-1.8,0.1-2.8,1.2-2.7,1.8l0.1,4.2L538.9,124.6z"/>
			<path class="st0" d="M566.1,137.4l-6.1,0.2l-0.7-24.7l14.7-0.4l0.2,5.4l-8.6,0.2l0.1,4.7l8.6-0.2l0.1,5.1l-8.6,0.2L566.1,137.4z"
				/>
			<path class="st0" d="M577.4,112.4l6.1-0.2l0.7,24.7l-6.1,0.2L577.4,112.4z"/>
			<path class="st0" d="M587.5,112.1l6.4-0.2l6.6,13l-0.4-13.2l6.1-0.2l0.7,24.7l-6.4,0.2l-6.6-12.7l0.4,12.9l-6.1,0.2L587.5,112.1z
				"/>
			<path class="st0" d="M621.1,127.6l-5.5,0.2l0.2,8.3l-6.1,0.2l-0.5-18.5c-0.1-4.7,3.7-7,8.6-7.1c4.9-0.1,9,1.9,9.1,6.6l0.5,18.5
				l-6.1,0.2L621.1,127.6z M621,122.2l-0.1-4.2c0-0.6-1-1.7-2.8-1.6c-1.8,0.1-2.8,1.2-2.7,1.8l0.1,4.2L621,122.2z"/>
			<path class="st0" d="M630.2,110.9l6.4-0.2l6.6,13l-0.4-13.2l6.1-0.2l0.7,24.7l-6.4,0.2l-6.6-12.7l0.4,12.9l-6.1,0.2L630.2,110.9z
				"/>
			<path class="st0" d="M652.9,126.3l-0.2-7.4c-0.1-5.1,2.4-9.3,8.7-9.5c7.2-0.2,8.7,4.8,9,9l-6.1,0.2c0-0.9-0.2-3.8-2.7-3.7
				c-2,0.1-3,2.2-2.9,4.6l0.2,6.1c0.1,2.4,1.1,4.5,3.2,4.5c2.4-0.1,2.5-3,2.4-3.9l6.1-0.2c-0.1,4.2-1.2,9.3-8.5,9.5
				C655.7,135.5,653,131.4,652.9,126.3z"/>
			<path class="st0" d="M673.5,109.6l6.1-0.2l0.7,24.7l-6.1,0.2L673.5,109.6z"/>
			<path class="st0" d="M695.3,125.4l-5.5,0.2l0.2,8.3L684,134l-0.5-18.5c-0.1-4.7,3.7-7,8.6-7.1c4.9-0.1,9,1.9,9.1,6.6l0.5,18.5
				l-6.1,0.2L695.3,125.4z M695.2,120l-0.1-4.2c0-0.6-1-1.7-2.8-1.6c-1.8,0.1-2.8,1.2-2.7,1.8l0.1,4.2L695.2,120z"/>
			<path class="st0" d="M704.6,108.7l10.4-0.3c5.5-0.2,6.9,2.8,7,6.3c0.1,2.4-0.1,4.7-2.5,6.3c2.7,1.3,2.9,3.4,2.9,5.9l0.2,6.1
				l-6.5,0.2l-0.2-7.1c0-1.5-0.4-2.6-1.6-2.5l-3.1,0.1l0.3,9.7l-6.1,0.2L704.6,108.7z M714.3,118.6c0.8,0,1.3-1.8,1.3-2.7
				c0-1.5-0.7-2.1-1.7-2.1l-3,0.1l0.1,4.8L714.3,118.6z"/>
			<path class="st0" d="M467.9,157.7l0.7,24.5l-7.7,0.2l-0.7-24.5l-7.1,0.2l-0.2-6.9l21.9-0.6l0.2,6.9L467.9,157.7z"/>
			<path class="st0" d="M490.1,175.1c2.3-0.1,3.5-1.5,3.5-2.3l-0.7-22.7l7.7-0.2l0.7,23.4c0.2,5.9-4.7,8.9-10.9,9
				c-6.2,0.2-11.4-2.5-11.5-8.4l-0.7-23.4l7.7-0.2l0.7,22.7C486.6,173.8,487.8,175.1,490.1,175.1z"/>
			<path class="st0" d="M519.6,169.8l-0.3-9.4c-0.2-6.5,3-11.8,11.1-12c9.2-0.3,11,6.1,11.4,11.4l-7.7,0.2c0-1.2-0.3-4.8-3.4-4.7
				c-2.6,0.1-3.8,2.8-3.7,5.8l0.2,7.7c0.1,3,1.4,5.7,4,5.7c3-0.1,3.1-3.8,3.1-5l7.7-0.2c-0.1,5.4-1.5,11.8-10.8,12.1
				C523.1,181.4,519.7,176.3,519.6,169.8z"/>
			<path class="st0" d="M560.4,169.1l-7,0.2l0.3,10.5L546,180l-0.7-23.4c-0.2-5.9,4.7-8.9,10.9-9c6.2-0.2,11.4,2.5,11.5,8.4
				l0.7,23.4l-7.7,0.2L560.4,169.1z M560.2,162.2l-0.2-5.3c0-0.8-1.3-2.1-3.5-2.1c-2.3,0.1-3.5,1.5-3.5,2.3l0.2,5.3L560.2,162.2z"/>
			<path class="st0" d="M579.1,155.9l0,1c0.1,3.8,13.9,2.2,14.2,11.9l0.1,1.8c0.2,5.9-4.5,8.9-10.4,9c-6,0.2-10.9-2.5-11.1-8.4
				l-0.1-2.4l7.7-0.2l0.1,2c0,0.8,1.1,2.1,3.1,2.1c2-0.1,3.1-1.5,3.1-2.3l0-1c-0.1-3.8-13.9-2.2-14.2-11.9l-0.1-1.8
				c-0.2-5.9,4.5-8.9,10.4-9c6-0.2,10.9,2.5,11.1,8.4l0.1,2.4l-7.7,0.2l-0.1-2c0-0.9-1.2-2.1-3.1-2.1
				C580.1,153.7,579,155.1,579.1,155.9z"/>
			<path class="st0" d="M611.6,167.6l-7,0.2l0.3,10.5l-7.7,0.2l-0.7-23.4c-0.2-5.9,4.7-8.9,10.9-9c6.2-0.2,11.4,2.5,11.5,8.4
				l0.7,23.4l-7.7,0.2L611.6,167.6z M611.4,160.7l-0.2-5.3c0-0.8-1.3-2.1-3.5-2.1c-2.3,0.1-3.5,1.5-3.5,2.3l0.2,5.3L611.4,160.7z"/>
			<path class="st0" d="M624.3,146.3l8-0.2l0,22.2l-6.8,0.2L624.3,146.3z M625.6,170.8l6.8-0.2l0.2,6.8l-6.8,0.2L625.6,170.8z"/>
		</g>
		<g>
			<g>
				<g>
					<path class="st29" d="M441.3,37.2l0,4.6l4.4-1.8l0.9,3.7l-4,0.7l3,3.3l-3.2,2.1l-2.2-3.5l-1.2,3.8l-3.7-1.4l2.3-3.8l-4.1,0.1
						l0.2-3.8l4.6,0.8l-1-4.5L441.3,37.2z"/>
				</g>
			</g>
			<g>
				<g>
					<g class="st26">
						<g>
							<path class="st27" d="M124.3,60.9c-1.1,0-2.2-0.4-3-1.1c-1-0.8-1.6-2-1.7-3.2l-3.8-41.8c-0.2-2.6,1.7-4.9,4.3-5.1l10.2-0.9
								c1.2-0.1,2.5,0.3,3.5,1.1c1,0.8,1.6,2,1.7,3.2l1.1,11.6l0.5,0L135.9,13c-0.2-2.6,1.7-4.9,4.3-5.1l10.2-0.9
								c1.2-0.1,2.5,0.3,3.5,1.1c1,0.8,1.6,2,1.7,3.2l3.8,41.8c0.2,2.6-1.7,4.9-4.3,5.1l-10.2,0.9c-1.3,0.1-2.5-0.3-3.5-1.1
								c-1-0.8-1.6-2-1.7-3.2l-1.1-11.6l-0.5,0l1.1,11.6c0.2,2.6-1.7,4.9-4.3,5.1l-10.2,0.9C124.6,60.9,124.4,60.9,124.3,60.9z
								 M125.6,18.7l3,32.4l0.8-0.1l-1.1-11.6c-0.2-2.2,1.2-4.2,3.2-4.9c-0.9-0.1-1.7-0.5-2.3-1c-1-0.8-1.6-2-1.7-3.2l-1.1-11.6
								L125.6,18.7z M143.7,33.3c0.9,0.1,1.7,0.5,2.3,1c1,0.8,1.6,2,1.7,3.2l1.1,11.6l0.8-0.1l-3-32.4l-0.8,0.1l1.1,11.6
								C147.1,30.6,145.7,32.6,143.7,33.3z"/>
						</g>
						<g>
							<path class="st27" d="M164.9,55.6c-3.7,0-6.8-1.5-8.9-4.3c-1.5-2-2.3-4.6-2.7-8c-0.3-3.3,0.1-5.8,0.9-7.7
								c-0.7-0.7-1.1-1.7-1.2-2.7l-0.2-2.5c-0.5-5.9,1.7-9.5,3.6-11.5c2.5-2.6,6.1-4.1,10.7-4.5c2.6-0.2,6.5-0.2,9.9,1.4
								c3.8,1.8,6.2,5,6.5,9l1.8,19.1c0.1,0.5,0.6,1.9,0.9,2.5c0.7,1.4,0.7,3.1,0,4.5c-0.8,1.4-2.1,2.3-3.7,2.5L174,54
								c-0.8,0.1-1.5,0-2.2-0.3c-1.7,1.1-3.6,1.7-5.6,1.9C165.8,55.6,165.4,55.6,164.9,55.6z M175.8,43.6c0.1,0.1,0.2,0.2,0.2,0.3
								l-0.1-0.7C175.9,43.3,175.8,43.5,175.8,43.6z M174.5,33.8c0.2,0.2,0.4,0.4,0.6,0.7l-0.1-1.6
								C174.8,33.2,174.7,33.6,174.5,33.8z"/>
						</g>
						<g>
							<path class="st27" d="M194.3,52.8c-3.9,0-7.1-0.9-9.5-2.6c-3.3-2.4-5.2-6.2-5.7-11.3l0-0.4c-0.1-1.3,0.3-2.5,1.1-3.5
								c0-0.1,0.1-0.1,0.2-0.2c-1.2-1.7-2.1-4-2.4-7c-0.4-4.4,0.8-8.2,3.6-11c2.7-2.8,6.7-4.4,11.8-4.9c4.2-0.4,8,0.4,10.9,2.4
								c2.4,1.6,5.5,4.9,6,11l0.1,1.2c0.1,1.3-0.3,2.5-1.1,3.5c0,0,0,0-0.1,0.1c1.2,1.7,2,3.8,2.2,6.6c0.8,9.2-4.5,15.2-14.4,16.1
								C196.1,52.8,195.2,52.8,194.3,52.8z M193.9,23.2L193.9,23.2L193.9,23.2z"/>
						</g>
						<g>
							<path class="st27" d="M220.8,50.5c-7.6,0-13-4.6-13.6-11.7l-1-10.5c-1.9-0.5-3.4-2.1-3.5-4.2l-0.7-7.3
								c-0.1-1.3,0.3-2.5,1.1-3.5c0.5-0.5,1-1,1.6-1.3l-0.1-1c-0.2-2.6,1.7-4.9,4.3-5.1l9.1-0.8c1.2-0.1,2.5,0.3,3.5,1.1
								c1,0.8,1.6,2,1.7,3.2l0.1,0.7l5.1-0.5c2.6-0.2,4.9,1.7,5.1,4.3l0.7,7.3c0.1,1.3-0.3,2.5-1.1,3.5c0,0-0.1,0.1-0.1,0.1
								c0,0,0.1,0.1,0.1,0.1c1,0.8,1.6,2,1.7,3.2l0.7,8.1c0.7,7.5-4.7,13.5-12.9,14.3C222.1,50.4,221.4,50.5,220.8,50.5z
								 M213.2,19.4c0.1,0.1,0.3,0.2,0.4,0.3c0.6,0.5,1.1,1.2,1.4,2c0.2-1,0.6-1.9,1.3-2.6c-0.1-0.1-0.3-0.2-0.4-0.3
								c-0.6-0.5-1.1-1.2-1.4-2C214.4,17.8,213.9,18.7,213.2,19.4z"/>
						</g>
						<g>
							<path class="st27" d="M240.3,48.7c-3.7,0-6.8-1.5-8.9-4.3c-1.5-2-2.3-4.6-2.7-8c-0.3-3.3,0.1-5.8,0.9-7.7
								c-0.7-0.7-1.1-1.7-1.2-2.7l-0.2-2.5c-0.5-5.9,1.7-9.5,3.6-11.5c2.5-2.6,6.1-4.1,10.7-4.5c2.6-0.2,6.5-0.2,9.9,1.4
								c3.8,1.8,6.2,5,6.5,9l1.8,19.1c0.1,0.5,0.6,1.9,0.9,2.5c0.7,1.4,0.7,3.1,0,4.5c-0.8,1.4-2.1,2.3-3.7,2.5l-8.6,0.8
								c-0.8,0.1-1.5,0-2.2-0.3c-1.7,1.1-3.6,1.7-5.6,1.9C241.2,48.7,240.8,48.7,240.3,48.7z M251.2,36.7c0.1,0.1,0.2,0.2,0.2,0.3
								l-0.1-0.7C251.3,36.4,251.2,36.5,251.2,36.7z M249.9,26.9c0.2,0.2,0.4,0.4,0.6,0.7l-0.1-1.6
								C250.3,26.3,250.1,26.6,249.9,26.9z"/>
						</g>
					</g>
				</g>
				<g>
					<g class="st26">
						<g>
							<path class="st9" d="M129.1,55.9c-1.1,0-2.2-0.4-3-1.1c-1-0.8-1.6-2-1.7-3.2l-3.8-41.8c-0.2-2.6,1.7-4.9,4.3-5.1L135,3.7
								c1.2-0.1,2.5,0.3,3.5,1.1c1,0.8,1.6,2,1.7,3.2l1.1,11.6l0.5,0L140.7,8c-0.2-2.6,1.7-4.9,4.3-5.1l10.2-0.9
								c1.2-0.1,2.5,0.3,3.5,1.1c1,0.8,1.6,2,1.7,3.2l3.8,41.8c0.2,2.6-1.7,4.9-4.3,5.1L149.7,54c-1.2,0.1-2.5-0.3-3.5-1.1
								c-1-0.8-1.6-2-1.7-3.2l-1.1-11.6l-0.5,0l1.1,11.6c0.2,2.6-1.7,4.9-4.3,5.1l-10.2,0.9C129.3,55.9,129.2,55.9,129.1,55.9z
								 M130.4,13.7l3,32.4l0.8-0.1l-1.1-11.6c-0.1-1.3,0.3-2.5,1.1-3.5c0.6-0.7,1.3-1.2,2.1-1.5c-2.1-0.3-3.8-2-4-4.3l-1.1-11.6
								L130.4,13.7z M148.5,28.3c2.1,0.3,3.8,2,4,4.3l1.1,11.6l0.8-0.1l-3-32.4l-0.8,0.1l1.1,11.6c0.1,1.3-0.3,2.5-1.1,3.5
								C150,27.5,149.3,28,148.5,28.3z"/>
						</g>
						<g>
							<path class="st9" d="M169.7,50.6c-3.7,0-6.8-1.5-8.9-4.3c-1.5-2-2.3-4.6-2.7-8c-0.3-3.3,0.1-5.8,0.9-7.7
								c-0.7-0.7-1.1-1.7-1.2-2.7l-0.2-2.5c-0.8-9,4.7-15.2,14.4-16.1c2.6-0.2,6.5-0.2,9.9,1.4c3.8,1.8,6.2,5,6.5,9l1.8,19.1
								c0.1,0.5,0.6,1.9,0.9,2.5c0.7,1.4,0.7,3.1,0,4.5s-2.1,2.3-3.7,2.5l-8.6,0.8c-0.8,0.1-1.5,0-2.2-0.3c-1.7,1.1-3.6,1.7-5.6,1.9
								C170.6,50.6,170.1,50.6,169.7,50.6z M180.5,38.6c0.1,0.1,0.2,0.2,0.2,0.3l-0.1-0.7C180.6,38.3,180.6,38.5,180.5,38.6z
								 M179.3,28.8c0.2,0.2,0.4,0.4,0.6,0.7l-0.1-1.6C179.6,28.2,179.4,28.5,179.3,28.8z"/>
						</g>
						<g>
							<path class="st9" d="M199.1,47.8c-3.9,0-7.1-0.9-9.5-2.6c-3.3-2.4-5.2-6.2-5.7-11.3l0-0.4c-0.1-1.3,0.3-2.5,1.1-3.5
								c0.1-0.1,0.1-0.1,0.2-0.2c-1.2-1.7-2.1-4-2.4-7c-0.6-7,3.1-14.8,15.4-15.9c4.2-0.4,8,0.4,10.9,2.4c2.4,1.6,5.5,4.9,6,11
								l0.1,1.2c0.1,1.3-0.3,2.5-1.1,3.5c0,0,0,0-0.1,0.1c1.2,1.7,2,3.8,2.2,6.6c0.8,9.2-4.5,15.2-14.4,16.1
								C200.9,47.8,200,47.8,199.1,47.8z"/>
						</g>
						<g>
							<path class="st9" d="M225.6,45.4c-7.6,0-13-4.6-13.6-11.7l-1-10.5c-1.9-0.5-3.4-2.1-3.5-4.2l-0.7-7.3
								c-0.1-1.3,0.3-2.5,1.1-3.5c0.5-0.5,1-1,1.6-1.3l-0.1-1c-0.2-2.6,1.7-4.9,4.3-5.1l9.1-0.8c1.3-0.1,2.5,0.3,3.5,1.1
								c1,0.8,1.6,2,1.7,3.2L228,5l5.1-0.5c2.6-0.2,4.9,1.7,5.1,4.3l0.7,7.3c0.1,1.3-0.3,2.5-1.1,3.5c0,0-0.1,0.1-0.1,0.1
								c0,0,0.1,0.1,0.1,0.1c1,0.8,1.6,2,1.7,3.2l0.7,8.1c0.7,7.5-4.7,13.5-12.9,14.3C226.8,45.4,226.2,45.4,225.6,45.4z M218,14.3
								c0.8,0.5,1.4,1.3,1.8,2.3c0.1-0.8,0.5-1.6,1-2.2c0.1-0.1,0.2-0.2,0.3-0.3c-0.1-0.1-0.3-0.2-0.4-0.3c-0.6-0.5-1.1-1.2-1.4-2
								c-0.1,0.8-0.5,1.6-1,2.2C218.2,14.1,218.1,14.2,218,14.3z"/>
						</g>
						<g>
							<path class="st9" d="M245.1,43.6c-3.7,0-6.8-1.5-8.9-4.3c-1.5-2-2.3-4.6-2.7-8c-0.3-3.3,0.1-5.8,0.9-7.7
								c-0.7-0.7-1.1-1.7-1.2-2.7l-0.2-2.5c-0.5-5.9,1.7-9.5,3.6-11.5c2.5-2.6,6.1-4.1,10.7-4.5c2.6-0.2,6.5-0.2,9.9,1.4
								c3.8,1.8,6.2,5,6.5,9l1.8,19.1c0.1,0.5,0.6,1.9,0.9,2.5c0.7,1.4,0.7,3.1,0,4.5c-0.8,1.4-2.1,2.3-3.7,2.5l-8.6,0.8
								c-0.8,0.1-1.5,0-2.2-0.3c-1.7,1.1-3.6,1.7-5.6,1.9C246,43.6,245.5,43.6,245.1,43.6z M255.9,31.7c0.1,0.1,0.2,0.2,0.2,0.3
								l-0.1-0.7C256.1,31.4,256,31.5,255.9,31.7z M254.7,21.9c0.2,0.2,0.4,0.4,0.6,0.7l-0.1-1.6C255,21.3,254.9,21.6,254.7,21.9z"
								/>
						</g>
					</g>
				</g>
				<g>
					<g class="st26">
						<g>
							<path class="st8" d="M159.3,48.4l-10.2,0.9l-1.5-16.2l-9.9,0.9l1.5,16.2L129,51.2l-3.8-41.5l10.2-0.9l1.5,16.2l9.9-0.9
								l-1.5-16.2l10.2-0.9L159.3,48.4z"/>
						</g>
						<g>
							<path class="st8" d="M162.2,25.1c-0.6-6.8,3.4-10.2,10-10.9c5.4-0.5,10.8,1.1,11.2,6.1l1.7,19c0.1,1.3,1.1,3.6,1.4,4.2
								l-8.5,0.8c-0.6-0.6-1-1.6-1.3-2.4c-1.4,2-3.8,3.7-6.4,4c-5.9,0.5-7.3-3.9-7.7-7.9c-1-10.4,6.9-8.6,10.5-10.1
								c1-0.4,2.2-1.3,2.1-2.4l-0.2-2.7c-0.1-1.6-1.5-2.2-2.3-2.1c-0.8,0.1-2,0.9-1.9,2.5l0.3,3.6l-8.7,0.8L162.2,25.1z M175.9,32.5
								c-2.6,1-4.9,0.6-4.6,4.1c0.1,1.2,0.9,1.9,2,1.8c1.4-0.1,3-1.2,2.8-3L175.9,32.5z"/>
						</g>
						<g>
							<path class="st8" d="M198.3,18.4c-1.5,0.1-2.4,1.2-2.3,2.7c0.4,4.9,14-0.1,15.1,11.1c0.6,6.9-3.5,10.2-10.1,10.9
								c-7.9,0.7-12-1.9-12.7-9.5l0-0.4l8.5-0.8c0.3,2.5,0.9,4.5,3.3,4.3c1.9-0.2,2.5-0.9,2.3-3.1c-0.5-5-14.1,0.7-15.2-11
								c-0.5-5.8,2.9-10,11.1-10.7c5.8-0.5,11.1,1.8,11.7,9L210,22l-8.5,0.8C201.3,20.7,201,18.1,198.3,18.4z"/>
						</g>
						<g>
							<path class="st8" d="M223.8,17.6l1.3,14.5c0.1,0.7,0.7,1,1.1,0.9c0.4,0,1-0.4,0.9-1.1l-0.7-7.7l7.8-0.7l0.7,8
								c0.5,5.4-3.7,8.6-8.6,9.1c-5.5,0.5-9.8-1.9-10.3-7.3l-1.4-14.9l-3.1,0.3l-0.7-7.2l3.1-0.3l-0.5-5.4l9.1-0.8l0.5,5.4l9.8-0.9
								l0.7,7.2L223.8,17.6z"/>
						</g>
						<g>
							<path class="st8" d="M237.2,18.2c-0.6-6.8,3.4-10.2,10-10.8c5.4-0.5,10.8,1.1,11.2,6.1l1.7,19c0.1,1.3,1.1,3.6,1.4,4.2
								l-8.5,0.8c-0.6-0.6-1-1.6-1.3-2.4c-1.4,2-3.8,3.7-6.4,4c-5.9,0.5-7.3-3.9-7.7-7.9c-1-10.4,6.9-8.6,10.5-10.1
								c1-0.4,2.2-1.3,2.1-2.4l-0.2-2.7c-0.1-1.6-1.5-2.2-2.3-2.1c-0.8,0.1-2,0.9-1.9,2.5l0.3,3.6l-8.7,0.8L237.2,18.2z M250.9,25.6
								c-2.6,1-4.9,0.6-4.6,4.1c0.1,1.2,0.9,1.9,2,1.8c1.4-0.1,3-1.2,2.8-3L250.9,25.6z"/>
						</g>
					</g>
				</g>
			</g>
			<g>
				<g>
					<g>
						<g class="st26">
							<path class="st30" d="M50.5,110.1c-3.3,0.3-5.3,2.8-5,6c1,10.8,31.2-0.3,33.5,24.6c1.4,15.4-7.7,22.8-22.4,24.1
								c-17.5,1.6-26.8-4.3-28.3-21.1l-0.1-0.9l18.9-1.7c0.6,5.7,1.9,10.1,7.2,9.6c4.2-0.4,5.7-1.9,5.2-7
								c-1-11.1-31.5,1.6-33.9-24.4c-1.2-12.8,6.5-22.2,24.6-23.8c13-1.2,24.6,4,26.1,20.1l0.2,2.6l-18.9,1.7
								C57.2,115.2,56.6,109.5,50.5,110.1z"/>
							<path class="st30" d="M109.1,70.3l16.4-1.5l-23.6,95.3l-16.2,1.5L109.1,70.3z"/>
							<path class="st30" d="M168.3,134.8l-31.6,2.9l-1.7-18.3l15.2-48.2l32.9-3l4.3,46.4l7.2-0.7l1.7,18.3l-7.2,0.7l1.6,17.7
								l-20.8,1.9L168.3,134.8z M166.6,116.5l-2.7-29.3l-9.1,30.4L166.6,116.5z"/>
							<path class="st30" d="M226.3,143.5c1,10.4-4.1,15.9-7.8,16.2l-8.4,0.8l4.1-12.1l-7.7,0.7l-1.9-20.1l20.1-1.9L226.3,143.5z"/>
							<path class="st30" d="M236.4,126.1c-1.4-14.7,30.6-25.9,29.7-36.2l-0.7-7.4c-0.3-3.5-3.9-5.5-6.6-5.2
								c-2.6,0.2-5.8,2.8-5.5,6.3l0.5,5.2L233,90.6l-0.8-8.3c-1.6-17.5,12.9-21.7,24.9-22.9c12.1-1.1,27.1,0.4,28.7,17.9l1.5,16.2
								c1.2,13.1-24.9,23-27.6,32.2l30.5-2.8l1.7,18.3l-53.6,4.9L236.4,126.1z"/>
							<path class="st30" d="M301.7,115.8l-3.2-34.9c-1.6-17.1,7.3-25.9,25.3-27.6c18.1-1.7,28.8,5.3,30.4,22.5l3.2,34.9
								c1.6,17.1-7.1,27.2-25.1,28.8C314.1,141.2,303.3,132.9,301.7,115.8z M325.7,70.3c-6.3,0.6-6.7,6.1-6.5,8l3.4,36.9
								c0.2,1.8,2.5,6.6,7.5,6.2c5.2-0.5,6.7-5.7,6.5-7.5L333.3,77C333.1,75.1,331.9,69.7,325.7,70.3z"/>
							<path class="st30" d="M368.4,109.6l-3.2-34.9c-1.6-17.1,7.3-25.9,25.3-27.6c18.1-1.7,28.8,5.3,30.4,22.5l3.2,34.9
								c1.6,17.1-7.1,27.2-25.1,28.8C380.8,135,370,126.8,368.4,109.6z M392.4,64.2c-6.3,0.6-6.7,6.1-6.5,8l3.4,36.9
								c0.2,1.8,2.5,6.6,7.5,6.2c5.2-0.5,6.7-5.7,6.5-7.5L400,70.8C399.8,68.9,398.6,63.6,392.4,64.2z"/>
						</g>
					</g>
					<g>
						<g class="st26">
							<path class="st31" d="M61,98.9c-3.3,0.3-5.3,2.8-5,6c1,10.8,31.2-0.3,33.5,24.6c1.4,15.4-7.7,22.8-22.4,24.1
								c-17.5,1.6-26.8-4.3-28.3-21.1l-0.1-0.9l18.9-1.7c0.6,5.7,1.9,10.1,7.2,9.6c4.2-0.4,5.7-1.9,5.2-7
								c-1-11.1-31.5,1.6-33.9-24.4C34.9,95.4,42.6,86,60.7,84.4c13-1.2,24.6,4,26.1,20.1l0.2,2.6l-18.9,1.7
								C67.7,104,67.2,98.4,61,98.9z"/>
							<path class="st31" d="M119.7,59.1l16.4-1.5L112.4,153l-16.2,1.5L119.7,59.1z"/>
							<path class="st31" d="M178.8,123.7l-31.6,2.9l-1.7-18.3l15.2-48.2l32.9-3l4.3,46.4l7.2-0.7l1.7,18.3l-7.2,0.7l1.6,17.7
								l-20.8,1.9L178.8,123.7z M177.1,105.4l-2.7-29.3l-9.1,30.4L177.1,105.4z"/>
							<path class="st31" d="M236.8,132.4c1,10.4-4.1,15.9-7.8,16.2l-8.4,0.8l4.1-12.1L217,138l-1.9-20.1l20.1-1.9L236.8,132.4z"/>
							<path class="st31" d="M246.9,115c-1.4-14.7,30.6-25.9,29.7-36.2l-0.7-7.4c-0.3-3.5-3.9-5.5-6.6-5.2s-5.8,2.8-5.5,6.3l0.5,5.2
								l-20.8,1.9l-0.8-8.3c-1.6-17.5,12.9-21.7,24.9-22.9c12.1-1.1,27.1,0.4,28.7,17.9l1.5,16.2c1.2,13.1-24.9,23-27.6,32.2
								l30.5-2.8l1.7,18.3l-53.6,4.9L246.9,115z"/>
							<path class="st31" d="M312.2,104.7L309,69.8c-1.6-17.1,7.3-25.9,25.3-27.6c18.1-1.7,28.8,5.3,30.4,22.5l3.2,34.9
								c1.6,17.1-7.1,27.2-25.1,28.8C324.6,130,313.8,121.8,312.2,104.7z M336.2,59.2c-6.3,0.6-6.7,6.1-6.5,8l3.4,36.9
								c0.2,1.8,2.5,6.6,7.5,6.2c5.2-0.5,6.7-5.7,6.5-7.5l-3.4-36.9C343.6,63.9,342.4,58.6,336.2,59.2z"/>
							<path class="st31" d="M378.9,98.5l-3.2-34.9c-1.6-17.1,7.3-25.9,25.3-27.6c18.1-1.7,28.8,5.3,30.4,22.5l3.2,34.9
								c1.6,17.1-7.1,27.2-25.1,28.8C391.3,123.9,380.5,115.6,378.9,98.5z M402.9,53c-6.3,0.6-6.7,6.1-6.5,8l3.4,36.9
								c0.2,1.8,2.5,6.6,7.5,6.2c5.2-0.5,6.7-5.7,6.5-7.5l-3.4-36.9C410.4,57.8,409.1,52.5,402.9,53z"/>
						</g>
					</g>
					<g>
						<g class="st26">
							<path class="st8" d="M60.9,99.3c-3.3,0.3-5.3,2.8-5,6c1,10.8,31-0.3,33.3,24.4c1.4,15.3-7.6,22.7-22.3,24
								c-17.4,1.6-26.6-4.2-28.2-21l-0.1-0.9l18.8-1.7c0.6,5.6,1.9,10,7.2,9.6c4.1-0.4,5.6-1.9,5.2-6.9c-1-11-31.3,1.6-33.7-24.3
								c-1.2-12.8,6.4-22,24.4-23.7c12.9-1.2,24.5,3.9,25.9,20l0.2,2.6L68,109.1C67.5,104.3,67,98.7,60.9,99.3z"/>
							<path class="st8" d="M119.2,59.7l16.3-1.5L112,153l-16.1,1.5L119.2,59.7z"/>
							<path class="st8" d="M177.9,123.8l-31.4,2.9l-1.7-18.1l15.2-48l32.7-3l4.2,46.2l7.1-0.7l1.7,18.1l-7.1,0.7l1.6,17.6
								l-20.6,1.9L177.9,123.8z M176.3,105.7l-2.7-29.2l-9.1,30.2L176.3,105.7z"/>
							<path class="st8" d="M235.7,132.5c1,10.4-4.1,15.8-7.7,16.1l-8.4,0.8l4.1-12l-7.6,0.7l-1.8-20l20-1.8L235.7,132.5z"/>
							<path class="st8" d="M245.7,115.2c-1.3-14.6,30.4-25.8,29.5-36l-0.7-7.4c-0.3-3.5-3.9-5.4-6.5-5.2c-2.6,0.2-5.8,2.8-5.5,6.3
								l0.5,5.1l-20.6,1.9l-0.8-8.3c-1.6-17.4,12.8-21.6,24.8-22.7s26.9,0.4,28.5,17.8l1.5,16.1c1.2,13-24.8,22.8-27.5,32.1
								l30.3-2.8l1.7,18.1l-53.3,4.9L245.7,115.2z"/>
							<path class="st8" d="M310.6,105l-3.2-34.7c-1.6-17,7.2-25.8,25.1-27.4c18-1.7,28.6,5.3,30.2,22.3l3.2,34.7
								c1.6,17-7.1,27-25,28.7C322.9,130.2,312.2,122,310.6,105z M334.4,59.7c-6.3,0.6-6.6,6-6.5,7.9l3.4,36.7
								c0.2,1.8,2.5,6.6,7.5,6.1c5.1-0.5,6.7-5.7,6.5-7.4L342,66.4C341.8,64.5,340.6,59.2,334.4,59.7z"/>
							<path class="st8" d="M376.9,98.9l-3.2-34.7c-1.6-17,7.2-25.8,25.1-27.4c18-1.7,28.6,5.3,30.2,22.3l3.2,34.7
								c1.6,17-7.1,27-25,28.7C389.2,124.1,378.5,115.9,376.9,98.9z M400.8,53.6c-6.3,0.6-6.6,6-6.5,7.9l3.4,36.7
								c0.2,1.8,2.5,6.6,7.5,6.1c5.1-0.5,6.7-5.7,6.5-7.4l-3.4-36.7C408.1,58.4,406.9,53.1,400.8,53.6z"/>
						</g>
					</g>
				</g>
				<g>
					<g>
						<g class="st26">
							<g>
								<path class="st27" d="M138,230.1c-9.8,0-17.4-7.8-18.5-19.2L118,194c-1.9-20.3,12.1-23.1,16.4-23.5c0.5,0,1-0.1,1.5-0.1
									l-0.3-3.1c-0.4-3.8,2.5-7.2,6.3-7.5l13.4-1.2c3.8-0.3,7.2,2.5,7.5,6.3l5,54.6c0.2,1.8-0.4,3.7-1.6,5.1
									c-1.2,1.4-2.9,2.3-4.7,2.5l-13.5,1.2c-0.7,0.1-1.3,0-2-0.1c-2,1-4.1,1.7-6.4,1.9C139.1,230.1,138.6,230.1,138,230.1z
									 M152.5,213.4c0.1,0.1,0.2,0.3,0.4,0.5l0.6-0.1l-0.2-2.6C153.1,212,152.8,212.7,152.5,213.4z M146.8,208.8L146.8,208.8
									L146.8,208.8z M145.1,190.3C145.1,190.3,145.1,190.3,145.1,190.3L145.1,190.3C145.1,190.3,145.1,190.3,145.1,190.3z
									 M149.6,184.4c0.6,0.7,1,1.5,1.4,2.3l-0.4-4.4C150.4,183.1,150.1,183.8,149.6,184.4z"/>
							</g>
							<g>
								<path class="st27" d="M180.8,226.4c-6.1,0-11.1-1.6-14.9-4.8c-4.5-3.8-7.1-9.7-7.8-17.5l-1-10.3c-0.7-7.6,0.5-13.5,3.6-18.1
									c3.7-5.4,9.7-8.5,17.9-9.2c9-0.8,14.8,2.4,18,5.2c4,3.5,6.5,8.5,7,14l1,11.3c0.1,0.6,0,1.3-0.1,1.9c0.2,0.6,0.4,1.2,0.4,1.8
									c0.7,7.1-0.8,13-4.3,17.5c-3.7,4.7-9.3,7.5-16.6,8.2C183,226.3,181.9,226.4,180.8,226.4z M171.1,194.9l0.2,2.6
									c0.1-0.5,0.3-0.9,0.5-1.3C171.6,195.7,171.4,195.3,171.1,194.9z"/>
							</g>
							<g>
								<path class="st27" d="M239.1,220.8c-9.8,0-17.4-7.8-18.5-19.2l-1.5-16.9c-1.9-20.3,12.1-23.1,16.4-23.5c0.5,0,1-0.1,1.5-0.1
									l-0.3-3.1c-0.4-3.8,2.5-7.2,6.3-7.5l13.4-1.2c1.8-0.2,3.7,0.4,5.1,1.6c1.4,1.2,2.3,2.9,2.5,4.7l5,54.6
									c0.2,1.8-0.4,3.7-1.6,5.1c-1.2,1.4-2.9,2.3-4.7,2.5l-13.5,1.2c-0.7,0.1-1.3,0-2-0.1c-2,1-4.1,1.7-6.4,1.9
									C240.3,220.8,239.7,220.8,239.1,220.8z M253.6,204.1c0.1,0.1,0.2,0.3,0.4,0.5l0.6-0.1l-0.2-2.6
									C254.2,202.7,253.9,203.4,253.6,204.1z M247.9,199.5L247.9,199.5L247.9,199.5z M246.2,181C246.2,181,246.2,181,246.2,181
									L246.2,181C246.2,181.1,246.2,181,246.2,181z M250.7,175.1c0.6,0.7,1,1.5,1.4,2.3l-0.4-4.4
									C251.5,173.8,251.2,174.5,250.7,175.1z"/>
							</g>
							<g>
								<path class="st27" d="M281.9,217c-16.8,0-21.5-10.9-22.3-20.5l-0.1-0.6c-0.2-1.8,0.4-3.7,1.6-5.1c0.1-0.1,0.1-0.2,0.2-0.3
									c-1.8-2.5-3.1-5.8-3.5-10.2c-0.6-6.4,1.2-12,5.3-16.1c4-4.1,9.8-6.5,17.3-7.2c6.2-0.6,11.7,0.6,16,3.5
									c3.6,2.4,8,7.1,8.8,16.1l0.2,1.8c0.2,1.8-0.4,3.7-1.6,5.1c0,0-0.1,0.1-0.1,0.1c1.7,2.4,2.9,5.6,3.3,9.7
									c1.2,13.4-6.7,22.2-21.1,23.6C284.5,217,283.2,217,281.9,217z M281.3,173.6L281.3,173.6L281.3,173.6z"/>
							</g>
							<g>
								<path class="st27" d="M319.8,213.6c-8.5,0-13.7-4-16.6-7.6c-3.5-4.3-5.6-10.3-6.3-17.6l-0.6-6.7
									c-2.1-23.3,13.8-27.3,20.7-28c14.6-1.3,23.1,5.7,25.2,21.1c0.3,1.9-0.3,3.8-1.4,5.3c-0.4,0.5-0.8,0.9-1.3,1.3
									c2.1,1,3.7,3.1,3.9,5.6c0.6,6.8,0.3,9.4-0.2,11.1c-2.3,8.8-9.9,14.5-20.8,15.5C321.5,213.6,320.6,213.6,319.8,213.6z"/>
							</g>
							<g>
								<path class="st27" d="M356,210.3c-11.1,0-19-6.7-20-17.2l-1.4-15.4c-2.8-0.7-4.9-3.1-5.2-6.1l-1-10.7
									c-0.2-1.8,0.4-3.7,1.6-5.1c0.7-0.8,1.5-1.4,2.4-1.9l-0.1-1.4c-0.4-3.8,2.5-7.2,6.3-7.5l13.3-1.2c1.8-0.2,3.7,0.4,5.1,1.6
									c1.4,1.2,2.3,2.9,2.5,4.7l0.1,1l7.5-0.7c3.8-0.4,7.2,2.5,7.5,6.3l1,10.7c0.2,1.8-0.4,3.7-1.6,5.1c0,0.1-0.1,0.1-0.2,0.2
									c0.1,0,0.1,0.1,0.2,0.1c1.4,1.2,2.3,2.9,2.5,4.7l1.1,11.8c1,11-6.9,19.8-18.9,20.9C357.8,210.2,356.9,210.3,356,210.3z
									 M344.8,164.7c0.2,0.1,0.4,0.3,0.5,0.4c0.9,0.8,1.7,1.8,2.1,2.9c0.2-1.2,0.7-2.3,1.5-3.3c0.1-0.2,0.3-0.3,0.5-0.5
									c-0.2-0.1-0.4-0.3-0.5-0.4c-0.9-0.8-1.7-1.8-2.1-2.9C346.6,162.4,345.9,163.7,344.8,164.7z"/>
							</g>
							<g>
								<path class="st27" d="M389.8,207.2c-12.2,0-21.1-7.5-22.2-19l-1.6-17.8c-0.5-5.9,1.2-11.4,4.9-15.6
									c3.8-4.3,9.4-6.9,16.2-7.6c6.8-0.6,12.8,0.9,17.3,4.5c4.4,3.4,7.1,8.6,7.7,14.4l1.6,17.8c0.5,5.9-1.2,11.4-4.9,15.6
									c-3.8,4.3-9.4,6.9-16.2,7.6C391.6,207.1,390.7,207.2,389.8,207.2z M386.8,188.2C386.8,188.2,386.8,188.2,386.8,188.2
									C386.8,188.2,386.8,188.2,386.8,188.2L386.8,188.2z"/>
							</g>
							<g>
								<path class="st27" d="M413.4,203.8c-1.6,0-3.2-0.6-4.4-1.6c-1.4-1.2-2.3-2.9-2.5-4.7l-1.2-13.3c-0.4-3.8,2.5-7.2,6.3-7.5
									l13.3-1.2c3.8-0.3,7.2,2.5,7.5,6.3l1.2,13.3c0.4,3.8-2.5,7.2-6.3,7.5l-13.3,1.2C413.9,203.8,413.7,203.8,413.4,203.8z"/>
							</g>
						</g>
					</g>
					<g>
						<g class="st26">
							<g>
								<path class="st9" d="M145,222.7c-9.8,0-17.4-7.8-18.5-19.2l-1.5-16.9c-1.9-20.3,12.1-23.1,16.4-23.5c0.5,0,1-0.1,1.5-0.1
									l-0.3-3.1c-0.4-3.8,2.5-7.2,6.3-7.5l13.4-1.2c1.8-0.2,3.7,0.4,5.1,1.6c1.4,1.2,2.3,2.9,2.5,4.7l5,54.6
									c0.4,3.8-2.5,7.2-6.3,7.5l-13.5,1.2c-0.7,0.1-1.3,0-2-0.1c-2,1-4.1,1.7-6.4,1.9C146.1,222.7,145.5,222.7,145,222.7z
									 M159.5,206c0.1,0.1,0.2,0.3,0.4,0.5l0.6-0.1l-0.2-2.6C160,204.6,159.8,205.4,159.5,206z M156.6,177.1
									c0.6,0.7,1,1.5,1.4,2.3l-0.4-4.4C157.4,175.7,157,176.4,156.6,177.1z"/>
							</g>
							<g>
								<path class="st9" d="M187.7,219c-6.1,0-11.1-1.6-14.9-4.8c-4.5-3.8-7.1-9.7-7.8-17.5l-1-10.3c-0.7-7.6,0.5-13.5,3.6-18.1
									c3.7-5.4,9.7-8.5,17.9-9.2c9-0.8,14.8,2.4,18,5.2c4,3.5,6.5,8.5,7,14l1,11.3c0.1,0.6,0,1.3-0.1,1.9c0.2,0.6,0.4,1.2,0.4,1.8
									c1.4,14.7-6.4,24.3-20.9,25.6C190,218.9,188.8,219,187.7,219z M178.1,187.5l0.2,2.6c0.1-0.5,0.3-0.9,0.5-1.3
									C178.6,188.3,178.3,187.9,178.1,187.5z M183.3,178.9C183.3,178.9,183.3,178.9,183.3,178.9L183.3,178.9z"/>
							</g>
							<g>
								<path class="st9" d="M246.1,213.4c-9.8,0-17.4-7.8-18.5-19.2l-1.6-16.9c-1.9-20.3,12.1-23.1,16.4-23.5c0.5,0,1-0.1,1.5-0.1
									l-0.3-3.1c-0.2-1.8,0.4-3.7,1.6-5.1c1.2-1.4,2.9-2.3,4.7-2.5l13.4-1.2c3.8-0.4,7.2,2.5,7.5,6.3l5,54.6
									c0.4,3.8-2.5,7.2-6.3,7.5l-13.5,1.2c-0.7,0.1-1.3,0-2-0.1c-2,1-4.1,1.7-6.4,1.9C247.2,213.4,246.7,213.4,246.1,213.4z
									 M260.6,196.7c0.1,0.1,0.2,0.3,0.4,0.5l0.6-0.1l-0.2-2.6C261.2,195.3,260.9,196.1,260.6,196.7z M253.1,173.7L253.1,173.7
									C253.1,173.7,253.1,173.7,253.1,173.7L253.1,173.7z M257.7,167.8c0.6,0.7,1,1.5,1.4,2.3l-0.4-4.4
									C258.5,166.4,258.1,167.1,257.7,167.8z"/>
							</g>
							<g>
								<path class="st9" d="M288.8,209.7c-5.7,0-10.3-1.3-14-3.9c-4.8-3.4-7.6-9-8.3-16.6l-0.1-0.6c-0.2-1.8,0.4-3.7,1.6-5.1
									c0.1-0.1,0.1-0.2,0.2-0.3c-1.8-2.5-3.1-5.8-3.5-10.2c-0.9-10.2,4.5-21.7,22.6-23.3c6.2-0.6,11.7,0.6,16,3.5
									c3.6,2.4,8,7.1,8.8,16.1l0.2,1.7c0.2,1.8-0.4,3.7-1.6,5.1c0,0-0.1,0.1-0.1,0.1c1.7,2.4,2.9,5.6,3.3,9.7
									c1.2,13.4-6.7,22.2-21.1,23.5C291.5,209.6,290.1,209.7,288.8,209.7z"/>
							</g>
							<g>
								<path class="st9" d="M326.8,206.2c-8.5,0-13.7-4-16.6-7.6c-3.5-4.3-5.6-10.3-6.3-17.6l-0.6-6.7c-2.1-23.3,13.8-27.3,20.7-28
									c14.6-1.3,23.1,5.7,25.2,21.1c0.3,1.9-0.3,3.8-1.4,5.3c-0.4,0.5-0.8,0.9-1.3,1.3c2.1,1,3.7,3.1,3.9,5.6
									c0.6,6.8,0.3,9.4-0.2,11.1c-2.3,8.8-9.9,14.5-20.8,15.5C328.5,206.2,327.6,206.2,326.8,206.2z"/>
							</g>
							<g>
								<path class="st9" d="M363,202.9c-11.1,0-19-6.7-20-17.2l-1.4-15.4c-2.8-0.7-4.9-3.1-5.2-6.1l-1-10.7
									c-0.2-1.8,0.4-3.7,1.6-5.1c0.7-0.8,1.5-1.4,2.4-1.9l-0.1-1.4c-0.4-3.8,2.5-7.2,6.3-7.5l13.3-1.2c1.8-0.2,3.7,0.4,5.1,1.6
									c1.4,1.2,2.3,2.9,2.5,4.7l0.1,1l7.5-0.7c3.8-0.4,7.2,2.5,7.5,6.3l1,10.7c0.2,1.8-0.4,3.7-1.6,5.1c0,0.1-0.1,0.1-0.2,0.2
									c0.1,0,0.1,0.1,0.2,0.1c1.4,1.2,2.3,2.9,2.5,4.7l1.1,11.8c0.5,5.8-1.4,11.2-5.4,15.1c-3.4,3.3-8.2,5.3-13.5,5.8
									C364.8,202.9,363.9,202.9,363,202.9z M351.8,157.4c0.2,0.1,0.4,0.3,0.5,0.4c0.9,0.8,1.7,1.8,2.1,2.9
									c0.2-1.2,0.7-2.3,1.5-3.3c0.1-0.2,0.3-0.3,0.5-0.5c-0.2-0.1-0.4-0.3-0.5-0.4c-0.9-0.8-1.7-1.8-2.1-2.9
									C353.5,155.1,352.8,156.4,351.8,157.4z"/>
							</g>
							<g>
								<path class="st9" d="M396.7,199.8c-12.2,0-21.1-7.5-22.2-19l-1.6-17.8c-1.1-12.4,7.6-21.9,21.2-23.1
									c6.8-0.6,12.8,0.9,17.3,4.5c4.4,3.4,7.1,8.6,7.7,14.4l1.6,17.8c0.5,5.9-1.2,11.4-4.9,15.6c-3.8,4.3-9.4,6.9-16.2,7.6
									C398.6,199.7,397.7,199.8,396.7,199.8z M393.7,180.9C393.7,180.9,393.7,180.9,393.7,180.9
									C393.7,180.9,393.7,180.9,393.7,180.9L393.7,180.9z"/>
							</g>
							<g>
								<path class="st9" d="M420.4,196.4c-3.5,0-6.6-2.7-6.9-6.3l-1.2-13.3c-0.2-1.8,0.4-3.7,1.6-5.1c1.2-1.4,2.9-2.3,4.7-2.5
									l13.3-1.2c3.8-0.4,7.2,2.5,7.5,6.3l1.2,13.3c0.2,1.8-0.4,3.7-1.6,5.1c-1.2,1.4-2.9,2.3-4.7,2.5l-13.3,1.2
									C420.8,196.4,420.6,196.4,420.4,196.4z"/>
							</g>
						</g>
					</g>
					<g>
						<g class="st26">
							<g>
								<path class="st8" d="M162.8,158.4l5,54.3l-13.4,1.2l-0.3-3.4c-2,3.3-5,4.9-8.1,5.2c-7.5,0.7-11.9-5.5-12.6-12.8l-1.5-16.8
									c-0.7-7.7,1.2-15.1,10.1-15.9c3.2-0.3,6.8,0.5,8.7,3.2l-1.3-13.8L162.8,158.4z M145.1,183.8l1.7,18.3
									c0.1,1.6,1.4,2.9,3.8,2.7c1.9-0.2,3-1.7,2.9-3.3l-1.7-18.3c-0.2-2-1.9-2.8-3.4-2.7C146.4,180.7,144.9,181.8,145.1,183.8z"/>
							</g>
							<g>
								<path class="st8" d="M190.2,211.9c-11.4,1.1-17.4-3.9-18.5-15.8l-0.9-10.3c-1-10.9,2.4-18.5,15.2-19.6
									c11.4-1,16.8,6.1,17.4,12.9l1,11.2l-19.7,1.8l0.7,8c0.2,1.9,2.3,2.5,3.7,2.4c1.4-0.1,3.2-1.2,3-3l-0.4-4.3l13-1.2
									C205.6,204.3,201.1,210.9,190.2,211.9z M189.9,178.5c-0.1-1.3-1.7-2.9-3.4-2.8c-2,0.2-3.2,2-3,3.4l0.5,5.5l6.4-0.6
									L189.9,178.5z"/>
							</g>
							<g>
								<path class="st8" d="M263.3,149.2l5,54.3l-13.4,1.2l-0.3-3.4c-2,3.3-5,4.9-8.1,5.2c-7.5,0.7-11.9-5.5-12.6-12.8l-1.5-16.8
									c-0.7-7.7,1.2-15.1,10.1-15.9c3.2-0.3,6.8,0.5,8.7,3.2l-1.3-13.8L263.3,149.2z M245.6,174.6l1.7,18.3
									c0.1,1.6,1.4,2.9,3.8,2.7c1.9-0.2,3-1.7,2.9-3.3l-1.7-18.3c-0.2-2-1.9-2.8-3.4-2.7C246.9,171.4,245.4,172.6,245.6,174.6z"/>
							</g>
							<g>
								<path class="st8" d="M287.3,166.5c-2.2,0.2-3.5,1.8-3.3,4c0.7,7.1,20.6-0.2,22.1,16.2c0.9,10.1-5.1,15-14.8,15.9
									c-11.5,1.1-17.7-2.8-18.7-13.9l-0.1-0.6L285,187c0.4,3.7,1.3,6.7,4.8,6.3c2.7-0.3,3.7-1.3,3.4-4.6
									c-0.7-7.3-20.7,1.1-22.3-16.1c-0.8-8.5,4.3-14.6,16.2-15.7c8.5-0.8,16.2,2.6,17.2,13.2l0.2,1.7l-12.4,1.1
									C291.7,169.9,291.4,166.2,287.3,166.5z"/>
							</g>
							<g>
								<path class="st8" d="M327.6,199.3c-12.2,1.1-17-8.1-17.9-18.8l-0.6-6.6c-0.9-9.9,1.7-19.1,14.4-20.3
									c12-1.1,16.2,4.7,17.6,15l-13.3,1.2l-0.3-3.5c-0.2-2-1.3-3.1-3.1-3c-1.7,0.2-2.7,1.5-2.5,3.5l1.8,19.5
									c0.2,1.8,1.5,3.1,3.1,3c1.7-0.2,2.7-1.7,2.5-3.5l-0.4-4.2l13.4-1.2c0.4,4.3,0.4,7.2,0,8.6
									C340.7,194.7,335.7,198.6,327.6,199.3z"/>
							</g>
							<g>
								<path class="st8" d="M359.9,162.2l2,21.3c0.1,1,1,1.4,1.6,1.4c0.6-0.1,1.4-0.6,1.4-1.6l-1-11.3l11.4-1l1.1,11.8
									c0.7,8-5.4,12.6-12.6,13.3c-8.1,0.7-14.3-2.8-15-10.7l-2-21.8l-4.6,0.4l-1-10.6l4.6-0.4l-0.7-7.9l13.3-1.2l0.7,7.9l14.3-1.3
									l1,10.6L359.9,162.2z"/>
							</g>
							<g>
								<path class="st8" d="M410.5,159.7l1.6,17.7c0.7,7.7-4.3,14.5-14.8,15.5c-10.5,1-16.7-4.8-17.4-12.5l-1.6-17.7
									c-0.7-7.7,4.3-14.5,14.8-15.5C403.7,146.2,409.8,152,410.5,159.7z M399,180.4l-2-21.3c-0.2-1.8-1.9-2.2-3-2.1
									c-1.2,0.1-2.8,0.8-2.6,2.6l2,21.3c0.2,1.8,1.9,2.2,3,2.1C397.6,182.9,399.2,182.3,399,180.4z"/>
							</g>
							<g>
								<path class="st8" d="M432,188.4l-13.3,1.2l-1.2-13.3l13.3-1.2L432,188.4z"/>
							</g>
						</g>
					</g>
				</g>
			</g>
			<g>
				<g>
					<g>
						<path class="st32" d="M443.3,34.3l0,4.6l4.4-1.8l0.9,3.7l-4,0.7l3,3.3l-3.2,2.1l-2.2-3.5l-1.2,3.8l-3.7-1.4l2.3-3.8l-4.1,0.1
							l0.2-3.8l4.6,0.8l-1-4.5L443.3,34.3z"/>
					</g>
				</g>
				<g>
					<g>
						<path class="st8" d="M443.3,34.3l0,4.6l4.4-1.8l0.9,3.7l-4,0.7l3,3.3l-3.2,2.1l-2.2-3.5l-1.2,3.8l-3.7-1.4l2.3-3.8l-4.1,0.1
							l0.2-3.8l4.6,0.8l-1-4.5L443.3,34.3z"/>
					</g>
				</g>
			</g>
		</g>
	</g>
</g>
</svg>
