<svg width="1900" height="110" viewBox="0 0 1900 110" fill="none" xmlns="http://www.w3.org/2000/svg">
<path d="M0 97H1900V110H0V97Z" fill="#265933"/>
<path d="M1600.23 74.6087V110H1745.58V73.6522L1687.45 14.5444C1679.59 6.55878 1666.71 6.57949 1658.89 14.5903L1600.23 74.6087Z" fill="white"/>
<g clip-path="url(#clip0)">
<path fill-rule="evenodd" clip-rule="evenodd" d="M1647.35 57.2328L1634.46 70.2747L1642.84 78.7597C1643.43 79.3541 1644.13 79.826 1644.91 80.1481C1645.68 80.4701 1646.51 80.6359 1647.35 80.6359C1648.19 80.6359 1649.02 80.4701 1649.79 80.1481C1650.56 79.826 1651.27 79.3541 1651.85 78.7597L1660.24 70.2773L1647.35 57.2328Z" fill="#005F27"/>
<path fill-rule="evenodd" clip-rule="evenodd" d="M1673.14 57.2311L1660.25 70.273L1668.64 78.7623C1669.23 79.357 1669.93 79.829 1670.7 80.1509C1671.48 80.4728 1672.31 80.6383 1673.15 80.6378C1673.99 80.6372 1674.82 80.4706 1675.59 80.1477C1676.37 79.8247 1677.07 79.3518 1677.66 78.7563L1686.04 70.273L1673.14 57.2311Z" fill="#005F27"/>
<path fill-rule="evenodd" clip-rule="evenodd" d="M1698.94 57.2311L1686.03 70.273L1694.43 78.7615C1695.6 79.9459 1697.2 80.6204 1698.87 80.6388C1699.72 80.6506 1700.56 80.4899 1701.35 80.1665C1702.13 79.843 1702.85 79.3635 1703.44 78.7572L1711.82 70.273L1698.94 57.2311Z" fill="#005F27"/>
<path fill-rule="evenodd" clip-rule="evenodd" d="M1686.04 70.2687L1673.14 57.2345L1681.53 48.7486C1682.12 48.1531 1682.82 47.6802 1683.6 47.3575C1684.37 47.0347 1685.2 46.8685 1686.04 46.8685C1686.88 46.8685 1687.71 47.0347 1688.48 47.3575C1689.26 47.6802 1689.96 48.1531 1690.55 48.7486L1698.93 57.2311L1686.04 70.2687Z" fill="#158C30"/>
<path fill-rule="evenodd" clip-rule="evenodd" d="M1660.24 70.2688L1647.35 57.2346L1655.73 48.7487C1656.32 48.1527 1657.03 47.6795 1657.8 47.3565C1658.58 47.0335 1659.41 46.8672 1660.25 46.8672C1661.09 46.8672 1661.92 47.0335 1662.69 47.3565C1663.47 47.6795 1664.17 48.1527 1664.76 48.7487L1673.15 57.2311L1660.24 70.2688Z" fill="#158C30"/>
<path d="M1680.42 88.1208C1684.17 88.1208 1686.05 90.7224 1686.05 93.3205C1686.05 95.9186 1684.19 98.5227 1680.42 98.5227C1676.58 98.5227 1674.67 95.8877 1674.7 93.2647C1674.72 90.6838 1676.63 88.1217 1680.42 88.1217V88.1208ZM1678.11 93.2759C1678.1 93.5831 1678.15 93.8896 1678.26 94.177C1678.37 94.4645 1678.54 94.727 1678.75 94.9491C1678.96 95.1711 1679.22 95.3482 1679.5 95.4696C1679.78 95.5911 1680.09 95.6544 1680.4 95.656C1680.71 95.6575 1681.01 95.5972 1681.29 95.4786C1681.58 95.3601 1681.84 95.1856 1682.05 94.9657C1682.27 94.7458 1682.44 94.485 1682.55 94.1986C1682.66 93.9123 1682.71 93.6064 1682.71 93.299C1682.71 92.9944 1682.66 92.6916 1682.54 92.4085C1682.43 92.1253 1682.26 91.8674 1682.05 91.6499C1681.84 91.4324 1681.58 91.2596 1681.3 91.1416C1681.02 91.0236 1680.71 90.9629 1680.41 90.9629C1680.1 90.9629 1679.8 91.0236 1679.52 91.1416C1679.24 91.2596 1678.98 91.4324 1678.77 91.6499C1678.55 91.8674 1678.39 92.1253 1678.27 92.4085C1678.16 92.6916 1678.11 92.9944 1678.11 93.299V93.2759Z" fill="#005F27"/>
<path d="M1663.21 88.3173H1665.93L1666.53 89.54L1666.59 89.534C1666.95 89.0645 1667.43 88.6907 1667.97 88.4452C1668.51 88.1997 1669.11 88.0898 1669.7 88.1251C1671.99 88.1251 1673.31 89.5769 1673.31 91.8704V98.2704H1669.93V93.106C1669.93 91.9425 1669.74 90.8399 1668.36 90.8399C1668.11 90.8358 1667.85 90.8862 1667.62 90.9878C1667.39 91.0895 1667.18 91.2399 1667.01 91.4288C1666.84 91.6177 1666.72 91.8407 1666.64 92.0826C1666.57 92.3245 1666.55 92.5796 1666.58 92.8305V98.2704H1663.2L1663.21 88.3173Z" fill="#005F27"/>
<path d="M1632.69 98.2712L1635.07 84.868H1638.9L1641.38 91.1599L1641.51 91.8652L1641.66 91.1599L1644.14 84.868H1647.96L1650.34 98.2712H1646.71L1645.5 90.0831L1645.3 90.8416L1642.26 98.2712H1640.77L1637.73 90.8416L1637.53 90.0831L1636.33 98.2712H1632.69Z" fill="#005F27"/>
<path d="M1711.26 98.273L1710.63 97.0031H1710.56C1710.15 97.5064 1709.63 97.9039 1709.04 98.1612C1708.45 98.4185 1707.8 98.5278 1707.15 98.4798C1705.26 98.4798 1704.2 97.1567 1704.2 95.3051C1704.2 92.749 1706.55 92.1604 1708.65 92.0815C1709.19 92.0583 1709.73 92.0635 1710.24 92.0506C1710.24 91.2312 1709.95 90.6975 1709.06 90.6975C1708.12 90.7544 1707.2 91.0029 1706.36 91.4277L1705.39 89.1882C1706.73 88.5526 1708.2 88.2471 1709.68 88.2976C1711.89 88.2976 1713.6 89.4783 1713.6 91.8593V98.273H1711.26ZM1710.26 94.6693V93.9108L1709.49 93.9434C1708.38 93.9906 1707.63 94.3965 1707.63 95.1738C1707.63 95.8234 1708.13 96.0782 1708.68 96.0782C1708.87 96.097 1709.07 96.0748 1709.26 96.0129C1709.45 95.951 1709.63 95.8508 1709.78 95.7185C1709.92 95.5863 1710.04 95.4248 1710.13 95.2442C1710.21 95.0637 1710.26 94.868 1710.26 94.6693V94.6693Z" fill="#005F27"/>
<path d="M1699.72 98.4763C1696.54 98.4763 1694.81 96.5251 1694.81 93.3642C1694.81 90.1165 1696.79 88.1611 1699.98 88.1611C1701.1 88.1551 1702.21 88.4142 1703.21 88.917L1702.2 91.4577C1701.83 91.2927 1701.46 91.1478 1701.07 91.0235C1700.72 90.9123 1700.35 90.8562 1699.98 90.857C1697.69 90.857 1697.53 95.7358 1700.01 95.7358C1701.03 95.729 1702.02 95.4254 1702.87 94.8623V97.5925C1701.93 98.1984 1700.84 98.5065 1699.72 98.4763V98.4763Z" fill="#005F27"/>
<path d="M1693.4 88.1637C1693.75 88.1663 1694.09 88.202 1694.43 88.2701L1694.13 91.5117C1693.75 91.4305 1693.36 91.3951 1692.97 91.4062C1692.68 91.3799 1692.39 91.4119 1692.11 91.5003C1691.83 91.5887 1691.58 91.7318 1691.36 91.921C1691 92.3296 1690.82 92.8627 1690.85 93.4037V98.2678H1687.46V88.3387H1689.98L1690.51 89.9329H1690.68C1690.94 89.4274 1691.33 88.9984 1691.8 88.6882C1692.28 88.378 1692.83 88.1972 1693.4 88.1637V88.1637Z" fill="#005F27"/>
<path d="M1661.81 93.8919H1654.64C1654.66 95.2836 1655.33 96.1099 1656.74 96.1099C1657.09 96.1263 1657.43 96.0487 1657.73 95.8854C1658.03 95.722 1658.29 95.4793 1658.46 95.1832H1661.66C1660.99 97.5085 1659.08 98.5227 1656.78 98.5227C1653.65 98.5227 1651.19 96.6822 1651.19 93.3539C1651.19 89.9527 1653.54 88.12 1656.76 88.12C1660.16 88.12 1661.81 90.67 1661.81 93.8911L1661.81 93.8919ZM1658.64 91.8919C1658.55 91.4483 1658.3 91.0506 1657.95 90.7666C1657.6 90.4826 1657.15 90.3302 1656.7 90.3354C1656.24 90.3015 1655.78 90.4419 1655.41 90.7291C1655.04 91.0162 1654.8 91.4294 1654.72 91.8876L1658.64 91.8919Z" fill="#005F27"/>
</g>
<path fill-rule="evenodd" clip-rule="evenodd" d="M1684.27 15.0762C1678.4 8.98797 1668.76 8.95658 1662.85 15.0064L1607.9 71.2315C1605.1 74.0988 1603.53 77.9768 1603.53 82.0189V110H1596V82.0189C1596 75.9557 1598.36 70.1387 1602.56 65.8378L1657.51 9.61271C1666.38 0.537964 1680.83 0.58506 1689.65 9.71741L1743.83 65.8709C1747.97 70.1627 1750.29 75.935 1750.29 81.9473V110H1742.76V81.9473C1742.76 77.9391 1741.21 74.0909 1738.45 71.2297L1684.27 15.0762Z" fill="#265933"/>
<defs>
<clipPath id="clip0">
<rect width="80.9066" height="51.6522" fill="white" transform="translate(1632.69 46.8696)"/>
</clipPath>
</defs>
</svg>
