<svg xmlns="http://www.w3.org/2000/svg" width="100" height="100" viewBox="0 0 100 100">
  <g id="Grupo_2825" data-name="Grupo 2825" transform="translate(-1706 -4042)">
    <g id="Elipse_74" data-name="Elipse 74" transform="translate(1706 4042)" fill="#fff" stroke="#acd313" stroke-width="4">
      <circle cx="50" cy="50" r="50" stroke="none"/>
      <circle cx="50" cy="50" r="48" fill="none"/>
    </g>
    <g id="Grupo_2502" data-name="Grupo 2502" transform="translate(866.851 4047.667)">
      <path id="Trazado_6267" data-name="Trazado 6267" d="M990.12,24.489a21.513,21.513,0,0,1,2.682-1.93,1.45,1.45,0,0,1,1.748.154q3.566,2.8,7.134,5.593,2.8,2.191,5.622,4.364a2.063,2.063,0,0,1,.726.787,1.329,1.329,0,0,1-1.143,2,7.187,7.187,0,0,1-2.816-.024,1.719,1.719,0,0,0-.826-1.165,18.908,18.908,0,0,0-2.663-1.886,3.718,3.718,0,0,0-1.015-.923q-3.033-2.342-6.072-4.672a2.888,2.888,0,0,0-1.026-.9c-.6-.394-1.039-1.053-1.819-1.158Z" transform="translate(-104.653)" fill="#38a9e0" fill-rule="evenodd"/>
      <path id="Trazado_6268" data-name="Trazado 6268" d="M951.736,33.584c.78.1,1.222.764,1.819,1.158a2.889,2.889,0,0,1,1.026.9c-.842.646-1.687,1.291-2.525,1.944q-2.073,1.609-4.143,3.227c-1.105.624-2.005,1.535-3.074,2.2a.911.911,0,0,0-.421.965c-.717,0-1.434.012-2.15-.021-.644-.029-1.274-.16-1.508-.878a1.54,1.54,0,0,1,.606-1.78c.891-.7,1.807-1.368,2.716-2.044q2.81-2.088,5.625-4.169c.259-.191.54-.353.811-.528A8.862,8.862,0,0,1,951.736,33.584Z" transform="translate(-65.739 -8.855)" fill="#88287d" fill-rule="evenodd"/>
      <path id="Trazado_6269" data-name="Trazado 6269" d="M958.239,70.695a.911.911,0,0,1,.421-.965c1.068-.669,1.969-1.58,3.074-2.2.268.133.3.359.3.633q-.013,5.317-.014,10.637L958.4,80.009c0-2.869-.006-5.736-.021-8.605C958.375,71.166,958.494,70.889,958.239,70.695Z" transform="translate(-79.559 -35.569)" fill="#ffcf00" fill-rule="evenodd"/>
      <path id="Trazado_6270" data-name="Trazado 6270" d="M951.38,118.322,955,117.11a3.044,3.044,0,0,0,.954-.185l1.244-.255,1.674-.229,1.489-.077c.21.033.422.091.607-.079l1.808-.055a4.61,4.61,0,0,0,1.381-.023.512.512,0,0,0,.413.049l2.343.178,1.387.227a15.22,15.22,0,0,1,3.574,1.261c.451.386,1.039.62,1.339,1.176.142.262.334.558.137.839a.831.831,0,0,1-.82.253,3.8,3.8,0,0,1-1.2-.319,24.576,24.576,0,0,0-8.633-1.78,36.912,36.912,0,0,0-13.16,1.351,1.032,1.032,0,0,1-.221-.016A16.927,16.927,0,0,1,951.38,118.322Z" transform="translate(-72.542 -73.882)" fill="#db3425" fill-rule="evenodd"/>
      <path id="Trazado_6271" data-name="Trazado 6271" d="M1041.991,81.179a15.22,15.22,0,0,0-3.574-1.261q0-4.729-.01-9.458a2.114,2.114,0,0,1,.18-.939,18.906,18.906,0,0,1,2.663,1.886,1.719,1.719,0,0,1,.826,1.165q-.025,3.3-.05,6.609C1042.02,79.848,1042,80.512,1041.991,81.179Z" transform="translate(-142.657 -37.14)" fill="#83ae3b" fill-rule="evenodd"/>
      <path id="Trazado_6272" data-name="Trazado 6272" d="M862.594,165.265a5.034,5.034,0,0,1-1.37.078c-.328.03-.428-.221-.546-.444-.515-.98-1.023-1.964-1.54-2.943-.1-.193-.146-.437-.48-.588,0,1.123-.041,2.194.015,3.26.037.693-.314.707-.84.733-.569.026-.692-.178-.684-.709q.043-2.98,0-5.961c-.007-.527.125-.664.676-.719a1.579,1.579,0,0,1,1.82,1.128,24.52,24.52,0,0,0,1.531,2.877,10.114,10.114,0,0,0,.118-2.738c-.072-1.176-.356-1.319,1.286-1.213Q862.587,161.644,862.594,165.265Z" transform="translate(0 -106.74)" fill="#3caae1" fill-rule="evenodd"/>
      <path id="Trazado_6273" data-name="Trazado 6273" d="M961.8,206.941c-.334.952-.7,1.893-.99,2.858-.142.47-.413.536-.82.517-.387-.017-.749.07-.914-.478a22.591,22.591,0,0,0-1.2-3.1c0,1-.023,2,.01,3,.016.463-.132.59-.584.588s-.6-.13-.589-.592c.025-1.6.019-3.193,0-4.789-.007-.441.107-.593.576-.593,1.376,0,1.374-.022,1.832,1.307.264.765.537,1.526.808,2.288a1.811,1.811,0,0,0,.093.192c.274-.088.277-.349.35-.551.312-.87.646-1.735.9-2.622.143-.506.4-.621.889-.612,1.248.025,1.252,0,1.255,1.276,0,1.389-.026,2.778.008,4.165.014.544-.276.545-.649.516s-.819.154-.79-.526c.04-.943.01-1.887.01-2.832Z" transform="translate(-78.358 -143.255)" fill="#726c6f" fill-rule="evenodd"/>
      <path id="Trazado_6274" data-name="Trazado 6274" d="M1079.158,161.667q0,1.318,0,2.636c0,1.013-.5,1.411-1.437,1a1.057,1.057,0,0,0-.82-.027c-1.581.437-2.587-.3-2.681-1.973a4.78,4.78,0,0,1,.177-2.328,2.072,2.072,0,0,1,2.227-1.293c.624.054.886-.114.807-.775-.033-.275-.168-.712.135-.825a2.681,2.681,0,0,1,1.436-.019c.226.043.15.308.151.481C1079.161,159.586,1079.158,160.626,1079.158,161.667Zm-1.739.7v-.693c0-.762-.078-.811-.829-.749-.395.032-.505.3-.577.585a4.086,4.086,0,0,0-.033,1.919.637.637,0,0,0,.794.564c.431-.053.671-.261.648-.725C1077.407,162.971,1077.419,162.67,1077.42,162.37Z" transform="translate(-170.799 -106.755)" fill="#3caae1" fill-rule="evenodd"/>
      <path id="Trazado_6275" data-name="Trazado 6275" d="M1006.66,162.918c0,.5-.013.909,0,1.316.011.265-.145.352-.35.44a4.6,4.6,0,0,1-2.645.3,2.566,2.566,0,0,1-2.12-1.76,5.874,5.874,0,0,1-.135-3.406,2.923,2.923,0,0,1,3.721-2.207c1.8.356,1.559.329,1.454,2.086-.306,0-.48-.242-.7-.384-1.327-.878-2.511-.362-2.74,1.179a6.017,6.017,0,0,0-.01,1.782c.206,1.415,1.03,1.527,2.147,1.317A8.5,8.5,0,0,0,1006.66,162.918Z" transform="translate(-113.394 -106.393)" fill="#3caae1" fill-rule="evenodd"/>
      <path id="Trazado_6276" data-name="Trazado 6276" d="M1050.815,169.179c-.324,0-.648-.018-.969.007-.174.013-.487-.133-.484.185a.593.593,0,0,0,.393.654,3.446,3.446,0,0,0,1.826-.152c.214-.044.539-.437.656.047.09.365.292.864-.229,1.1a4.5,4.5,0,0,1-2.835.306c-.94-.207-1.3-.935-1.556-1.757-.337-1.088-.05-2.863.793-3.43a2.861,2.861,0,0,1,2.894-.217,2.021,2.021,0,0,1,1.068,2.141C1052.346,169.179,1052.372,169.18,1050.815,169.179Zm-.773-1.228c.2-.156.69.2.668-.4-.015-.433-.286-.584-.687-.6-.459-.012-.705.213-.7.657C1049.339,168.141,1049.779,167.816,1050.042,167.951Z" transform="translate(-149.797 -112.777)" fill="#3caae1" fill-rule="evenodd"/>
      <path id="Trazado_6277" data-name="Trazado 6277" d="M917.084,169.179c-.324,0-.648-.018-.969.007-.174.013-.487-.133-.484.185a.592.592,0,0,0,.393.654,3.448,3.448,0,0,0,1.827-.152c.214-.044.538-.437.656.047.089.365.293.864-.228,1.1a4.5,4.5,0,0,1-2.836.306c-.939-.207-1.3-.935-1.555-1.757-.339-1.088-.051-2.863.793-3.43a2.859,2.859,0,0,1,2.893-.217,2.022,2.022,0,0,1,1.068,2.141C918.616,169.179,918.641,169.18,917.084,169.179Zm-.773-1.228c.2-.156.691.2.668-.4-.016-.433-.286-.584-.686-.6-.459-.012-.705.213-.7.657C915.608,168.141,916.049,167.816,916.311,167.951Z" transform="translate(-44.547 -112.777)" fill="#3caae1" fill-rule="evenodd"/>
      <path id="Trazado_6278" data-name="Trazado 6278" d="M1133.6,168.524c-.245-2.588,1.814-3.285,3.472-2.861a2.084,2.084,0,0,1,1.55,1.345,3.975,3.975,0,0,1-.126,3.218,2.743,2.743,0,0,1-3.1,1.085,2.215,2.215,0,0,1-1.8-2.163C1133.6,168.918,1133.6,168.686,1133.6,168.524Zm1.642-.062h.008a3.982,3.982,0,0,0,.009.829c.108.483.362.84.948.805a.807.807,0,0,0,.882-.841,11.646,11.646,0,0,0,.007-1.512c-.029-.637-.34-.848-.916-.858-.61-.009-.869.339-.934.884A5.658,5.658,0,0,0,1135.247,168.462Z" transform="translate(-217.565 -112.716)" fill="#3caae1" fill-rule="evenodd"/>
      <path id="Trazado_6279" data-name="Trazado 6279" d="M968.563,168.526c.143,2.6-2.1,3.1-3.79,2.546a2.353,2.353,0,0,1-1.531-2.4,2.822,2.822,0,0,1,1.038-2.777,2.951,2.951,0,0,1,3.16-.081C968.475,166.359,968.552,167.362,968.563,168.526Zm-1.67-.161h.006a4.459,4.459,0,0,0-.005-.624c-.074-.5-.24-.944-.864-.973-.6-.029-.959.175-1.02.835a7.049,7.049,0,0,0,.015,1.585c.077.585.408.772.936.788.594.018.805-.385.92-.851A3.194,3.194,0,0,0,966.893,168.365Z" transform="translate(-83.489 -112.594)" fill="#3caae1" fill-rule="evenodd"/>
      <path id="Trazado_6280" data-name="Trazado 6280" d="M963.682,129.508a37.737,37.737,0,0,1,16.642.82,7.844,7.844,0,0,1,2.958,1.466,3.225,3.225,0,0,1,.473.5.487.487,0,0,1,.084.522c-.106.22-.308.162-.485.163a1.917,1.917,0,0,1-.855-.26c-5.882-2.923-12.162-3.394-18.58-3.01C963.811,129.717,963.748,129.673,963.682,129.508Z" transform="translate(-83.846 -83.917)" fill="#dc3929" fill-rule="evenodd"/>
      <path id="Trazado_6281" data-name="Trazado 6281" d="M893.127,171.532a1.722,1.722,0,0,1-1.33-.084c-.238-.143-.456.015-.658.076a3.006,3.006,0,0,1-1.234.093c-.859-.1-1.318-.686-1.356-1.8-.038-1.133,0-2.267-.017-3.4-.005-.364.13-.471.482-.49,1.2-.062,1.2-.075,1.2,1.151,0,.878-.017,1.755.061,2.633.037.428.192.564.593.541s.762-.022.759-.566c-.005-.763,0-1.527,0-2.29,0-.208.013-.417,0-.625-.037-.62.176-.962.865-.84a5.006,5.006,0,0,0,.621.038Q893.121,168.751,893.127,171.532Z" transform="translate(-24.699 -113)" fill="#3caae1" fill-rule="evenodd"/>
      <path id="Trazado_6282" data-name="Trazado 6282" d="M940.56,169.259c.294-.906.6-1.807.871-2.722.071-.24.108-.454.381-.5a2.181,2.181,0,0,1,1.161.027c.166.064.035.241-.006.363q-.667,1.958-1.336,3.916a2.055,2.055,0,0,0-.183.446c-.044.722-.437.859-1.107.89-.793.035-1.079-.3-1.29-.992-.411-1.342-.887-2.665-1.375-3.983-.191-.514-.2-.8.466-.723.252.029.509,0,.762.017.33.025.488.172.585.54.245.923.589,1.819.892,2.725Z" transform="translate(-63.289 -113.047)" fill="#3caae1" fill-rule="evenodd"/>
      <path id="Trazado_6283" data-name="Trazado 6283" d="M1119.6,207.348q0,1.038,0,2.077c0,.84-.411,1.16-1.184.811a.826.826,0,0,0-.672-.028,1.677,1.677,0,0,1-2.385-1.639c-.015-.229-.013-.461-.01-.692.024-1.466.7-2.2,2.154-2.2.546,0,.782-.129.685-.677-.12-.673.289-.649.774-.672.533-.025.676.156.65.666C1119.573,205.778,1119.6,206.564,1119.6,207.348Zm-1.37.527c0-.16.01-.323,0-.483-.027-.311.157-.732-.415-.762-.477-.025-.889.052-1.006.6a3.654,3.654,0,0,0,0,1.573.561.561,0,0,0,.71.485c.339-.081.763-.114.718-.654C1118.216,208.383,1118.234,208.129,1118.234,207.876Z" transform="translate(-203.214 -143.236)" fill="#726c6f" fill-rule="evenodd"/>
      <path id="Trazado_6284" data-name="Trazado 6284" d="M1117.845,161.741c-.785-.027-.929.422-.841,1.087a4.92,4.92,0,0,1,0,.968c-.048.661.045,1.172.909,1.019.285-.051.369.139.343.379-.033.318.178.772-.3.881a2.437,2.437,0,0,1-2.062-.244,1.135,1.135,0,0,1-.539-.987c.02-.713-.1-1.422-.027-2.141.043-.407.148-.881-.507-1.028-.288-.066-.216-1.117.083-1.164.373-.06.418-.192.394-.536-.029-.423,1.2-1.173,1.582-.987.236.116.146.377.123.556-.085.669.084,1.069.855.949Q1117.851,161.117,1117.845,161.741Z" transform="translate(-202.654 -107.53)" fill="#3caae1" fill-rule="evenodd"/>
      <path id="Trazado_6285" data-name="Trazado 6285" d="M1143.373,213.329c0,.346,0,.693,0,1.039,0,.823-.4,1.139-1.131.775a.912.912,0,0,0-.814,0,1.485,1.485,0,0,1-2.093-1.737c.094-.693.476-1.027,1.346-1.136.319-.039.646-.023.969-.033.166,0,.33-.005.339-.24a.3.3,0,0,0-.31-.364,3.48,3.48,0,0,0-1.425.211c-.173.054-.457.377-.556,0-.076-.292-.2-.692.162-.946a3.483,3.483,0,0,1,2.941-.009,1.5,1.5,0,0,1,.573,1.47C1143.362,212.682,1143.373,213.006,1143.373,213.329Zm-2.087.8c.265-.1.707-.032.717-.585.008-.411-.242-.383-.5-.349-.34.045-.8-.065-.781.524C1140.73,214.052,1140.928,214.147,1141.286,214.124Z" transform="translate(-222.072 -148.149)" fill="#746e71" fill-rule="evenodd"/>
      <path id="Trazado_6286" data-name="Trazado 6286" d="M1072.764,213.9c.151.927.124.968-.755,1.183-.068.016-.135.032-.2.042-.928.141-1.9.3-2.559-.569a3.02,3.02,0,0,1-.261-2.917,1.947,1.947,0,0,1,2.124-1.1,1.756,1.756,0,0,1,1.778,1.453c.045.2.044.413.079.617.1.581-.073.859-.723.791a12.566,12.566,0,0,0-1.594-.009c-.145,0-.347-.086-.415.13a.489.489,0,0,0,.158.44.926.926,0,0,0,.958.253C1071.825,214.144,1072.293,214.013,1072.764,213.9Zm-1.871-1.455c.228-.127.676.2.671-.329a.587.587,0,0,0-.686-.6c-.39.01-.683.2-.667.62C1070.23,212.666,1070.674,212.308,1070.893,212.449Z" transform="translate(-166.527 -148.124)" fill="#726c6f" fill-rule="evenodd"/>
      <path id="Trazado_6287" data-name="Trazado 6287" d="M1091.932,212.944c0-.6.017-1.2-.007-1.8-.014-.365.116-.5.476-.47a9.016,9.016,0,0,0,2.158-.064,1.256,1.256,0,0,1,1.5,1.27c.059.99.035,1.986.021,2.98-.01.609-.5.311-.788.357-.3.05-.6.019-.588-.444.021-.785,0-1.572,0-2.357,0-.416-.019-.819-.608-.776-.482.035-.835.151-.795.773.047.76-.024,1.527.022,2.287.041.691-.433.484-.782.524-.408.046-.658-.033-.62-.543.043-.574.01-1.155.01-1.732Z" transform="translate(-184.77 -148.162)" fill="#726c6f" fill-rule="evenodd"/>
      <path id="Trazado_6288" data-name="Trazado 6288" d="M1037.285,213.692c.329-.9.6-1.655.885-2.408a.894.894,0,0,1,1.117-.454c.23.108.116.277.069.406-.464,1.277-.932,2.554-1.416,3.822-.2.521-.674.248-1.028.3-.271.04-.547.053-.676-.3-.5-1.383-1.015-2.761-1.523-4.134.079-.046.113-.084.151-.086,1.239-.067,1.226-.062,1.69,1.114A8.576,8.576,0,0,0,1037.285,213.692Z" transform="translate(-139.75 -148.306)" fill="#726c6f" fill-rule="evenodd"/>
      <path id="Trazado_6289" data-name="Trazado 6289" d="M1005.1,213.745a8.022,8.022,0,0,0,.832-1.964c.369-.95.357-.955,1.467-.807-.526,1.414-1.025,2.821-1.577,4.209-.211.53-.737.189-1.115.263a.463.463,0,0,1-.587-.337q-.668-1.9-1.38-3.774c-.141-.372.014-.4.335-.435.679-.07,1.118.08,1.295.84A17.385,17.385,0,0,0,1005.1,213.745Z" transform="translate(-114.541 -148.398)" fill="#726c6f" fill-rule="evenodd"/>
      <path id="Trazado_6290" data-name="Trazado 6290" d="M1033.282,166.064c.811-.109,1.619.079,2.442-.014.851-.1.37.64.465,1,.116.432-.188.4-.484.351a.976.976,0,0,0-1.005.3c-.409.015-.309.325-.31.556-.007,1.124,0,2.249,0,3.372a2.319,2.319,0,0,1-1.105.028Q1033.281,168.859,1033.282,166.064Z" transform="translate(-138.623 -113.094)" fill="#3caae1" fill-rule="evenodd"/>
      <path id="Trazado_6291" data-name="Trazado 6291" d="M1104.332,166.055c1.514-.086,1.514-.086,1.512,1.421,0,1.152-.036,2.308.016,3.459.027.612-.15.859-.766.764-.247-.039-.5-.034-.755-.048Q1104.334,168.853,1104.332,166.055Z" transform="translate(-194.542 -113.091)" fill="#3caae1" fill-rule="evenodd"/>
      <path id="Trazado_6292" data-name="Trazado 6292" d="M1027.816,213.254c0,.531.011,1.061,0,1.59-.007.213.124.531-.151.614a2.041,2.041,0,0,1-1.156-.01c-.165-.05-.107-.284-.108-.44,0-1.151.026-2.3-.017-3.455-.023-.589.273-.62.719-.6.4.017.788-.059.727.576C1027.772,212.1,1027.816,212.678,1027.816,213.254Z" transform="translate(-133.19 -148.447)" fill="#746e71" fill-rule="evenodd"/>
      <path id="Trazado_6293" data-name="Trazado 6293" d="M1060.164,213.2c0,.6-.03,1.2.008,1.8.035.577-.349.489-.681.479-.312-.011-.721.151-.711-.447.024-1.22.02-2.441,0-3.661-.008-.671.481-.386.784-.427.333-.046.642-.053.6.466C1060.13,212,1060.163,212.6,1060.164,213.2Z" transform="translate(-158.692 -148.42)" fill="#746e71" fill-rule="evenodd"/>
      <path id="Trazado_6294" data-name="Trazado 6294" d="M995.569,213.227c0,.6-.019,1.2.006,1.8.022.551-.362.428-.659.418s-.731.174-.723-.43c.017-1.244,0-2.489,0-3.733,0-.621.489-.327.768-.361.257-.032.633-.15.613.373-.022.644-.005,1.29-.005,1.935Z" transform="translate(-107.859 -148.392)" fill="#726c6f" fill-rule="evenodd"/>
      <path id="Trazado_6295" data-name="Trazado 6295" d="M1058.771,156.916c-.3-.063-.357-.31-.482-.493-.146-.212-.035-.351.135-.455.471-.29.946-.572,1.423-.851.452-.262.551.146.715.4.184.28.179.478-.2.63C1059.809,156.367,1059.286,156.663,1058.771,156.916Z" transform="translate(-158.251 -104.439)" fill="#3caae1" fill-rule="evenodd"/>
      <path id="Trazado_6296" data-name="Trazado 6296" d="M1103.922,157.906c-.626.04-.87-.321-.912-.836s.4-.854.969-.835c.552.018.847.257.844.855C1104.818,157.745,1104.469,157.939,1103.922,157.906Z" transform="translate(-193.5 -105.385)" fill="#3caae1" fill-rule="evenodd"/>
      <path id="Trazado_6297" data-name="Trazado 6297" d="M1031.742,166.129q0,2.8,0,5.59c-.383.11-.419-.123-.418-.412q.007-2.37.007-4.739C1031.333,166.291,1031.356,166.042,1031.742,166.129Z" transform="translate(-137.084 -113.159)" fill="#3caae1" fill-rule="evenodd"/>
      <path id="Trazado_6298" data-name="Trazado 6298" d="M882.664,165.518q-.007-3.621-.015-7.241c.325.049.218.309.219.49q.011,3.111,0,6.223C882.87,165.186,882.932,165.42,882.664,165.518Z" transform="translate(-20.07 -106.993)" fill="#4f98c8" fill-rule="evenodd"/>
      <path id="Trazado_6299" data-name="Trazado 6299" d="M1059.218,204.04c-.417-.052-.755-.29-.73-.739a.72.72,0,0,1,.8-.63.663.663,0,0,1,.739.667C1060.02,203.793,1059.718,204.039,1059.218,204.04Z" transform="translate(-158.461 -141.932)" fill="#746e71" fill-rule="evenodd"/>
      <path id="Trazado_6300" data-name="Trazado 6300" d="M993.83,203.369a.744.744,0,0,1,.805-.7.68.68,0,0,1,.734.678c0,.472-.339.684-.789.679A.708.708,0,0,1,993.83,203.369Z" transform="translate(-107.573 -141.93)" fill="#746e71" fill-rule="evenodd"/>
      <path id="Trazado_6301" data-name="Trazado 6301" d="M1027.02,204.033c-.44-.018-.766-.205-.779-.639a.683.683,0,0,1,.75-.729.66.66,0,0,1,.748.646C1027.759,203.8,1027.444,203.994,1027.02,204.033Z" transform="translate(-133.081 -141.929)" fill="#746e71" fill-rule="evenodd"/>
      <path id="Trazado_6302" data-name="Trazado 6302" d="M1038.447,177.794c0-1.124-.005-2.248,0-3.372,0-.232-.1-.541.31-.556.014,1.173.034,2.347.039,3.519C1038.8,177.6,1038.842,177.9,1038.447,177.794Z" transform="translate(-142.682 -119.261)" fill="#3caae1" fill-rule="evenodd"/>
      <path id="Trazado_6303" data-name="Trazado 6303" d="M1103.394,166.166q0,2.8.006,5.6c-.3.024-.257-.2-.258-.373q0-2.414,0-4.829C1103.143,166.381,1103.11,166.168,1103.394,166.166Z" transform="translate(-193.604 -113.202)" fill="#3caae1" fill-rule="evenodd"/>
      <path id="Trazado_6304" data-name="Trazado 6304" d="M910.064,171.752q-.006-2.779-.014-5.558c.3-.036.271.177.271.36q0,2.395,0,4.789C910.322,171.536,910.32,171.722,910.064,171.752Z" transform="translate(-41.635 -113.221)" fill="#3caae1" fill-rule="evenodd"/>
      <path id="Trazado_6305" data-name="Trazado 6305" d="M988.114,32.7a8.866,8.866,0,0,0-1.217.978c.291-.371-.014-1.078.686-1.218Z" transform="translate(-102.117 -7.968)" fill="#746e71" fill-rule="evenodd"/>
      <path id="Trazado_6306" data-name="Trazado 6306" d="M1129.7,167.409q.005-.623.011-1.248c.624-.015.356.464.392.747C1130.131,167.167,1130.168,167.514,1129.7,167.409Z" transform="translate(-214.506 -113.198)" fill="#3caae1" fill-rule="evenodd"/>
      <path id="Trazado_6307" data-name="Trazado 6307" d="M989.554,66.252c.22-.017.331-.116.312-.354-.022-.275-.023-.553-.031-.83-.03-1.032.033-1.132,1.054-1.28a3.756,3.756,0,0,1,2.142.367c.11,1.074-.232,2.136-.116,3.22,1.043-.289,1.2-.493,1.232-1.461a9.613,9.613,0,0,0-.141-1.366c.375.058.293.351.3.592.006.549,0,1.1,0,1.652.276.1.544-.346.819-.012-.29.029-.29.239-.29.456,0,.324.006.647-.011.97q-.187,3.372-.378,6.742L992.635,75c-.376.028-.448-.184-.444-.509.013-1.022,0-2.046,0-3.069h-.167v3.656l-1.489.077a15.046,15.046,0,0,0-.023-1.6c-.254-2.192-.426-4.39-.529-6.594A.84.84,0,0,0,989.554,66.252Zm4.913,1.341a4.907,4.907,0,0,0-1.953.676c-.077.043-.163.134-.1.223a.263.263,0,0,0,.226.1C993.275,68.326,994.006,68.243,994.467,67.594Zm-2.09,6.374a4.474,4.474,0,0,0,1.6.145.356.356,0,0,0,.26-.285.184.184,0,0,0-.122-.211A2.533,2.533,0,0,0,992.376,73.967Zm.178-4.573c.523-.173,1.035-.341,1.548-.512.2-.067.337-.219.245-.415s-.293-.045-.426-.006c-.352.1-.692.246-1.037.37C992.657,68.914,992.463,69.018,992.555,69.394Zm1.8,1.026c.016-.2-.059-.315-.178-.288-.53.127-1.056.277-1.576.435-.051.016-.087.148-.09.229a.147.147,0,0,0,.19.143c.511-.109,1.02-.226,1.525-.359C994.289,70.564,994.33,70.449,994.353,70.42Zm-1.55-.308c.446-.123.914-.248,1.379-.383a.23.23,0,0,0,.163-.326.216.216,0,0,0-.289-.119c-.465.136-.926.284-1.388.431a.214.214,0,0,0-.161.264C992.537,70.134,992.667,70.109,992.8,70.112Zm.314,3.177c.177,0,.293.007.407,0,.291-.022.713.016.668-.384-.034-.3-.424-.1-.652-.123a.862.862,0,0,0-.407.052c-.241.1-.721-.054-.7.263C992.465,73.5,992.928,73.192,993.117,73.288Zm-.087-1.627c.22-.038.6-.1.98-.168.152-.027.253-.11.245-.273-.01-.192-.142-.2-.292-.172-.4.074-.806.139-1.207.219-.138.027-.272.107-.255.27C992.528,71.8,992.721,71.688,993.03,71.661Zm.04.84.859-.146c.167-.028.333-.073.3-.29-.032-.187-.206-.155-.332-.142-.3.027-.589.068-.88.12-.2.035-.544-.064-.509.286C992.543,72.713,992.874,72.4,993.07,72.5Z" transform="translate(-104.208 -32.6)" fill="#4f98c8" fill-rule="evenodd"/>
      <path id="Trazado_6308" data-name="Trazado 6308" d="M1012.512,86.128q.189-3.371.379-6.742c.018-.323.012-.646.011-.97,0-.217,0-.427.29-.456,1.2.474,2.4.956,3.6,1.419a.517.517,0,0,1,.394.613c-.188,2.113-.361,4.226-.536,6.341l-2.343-.178c-.006-.158-.011-.316-.015-.474,0-.189-.011-.385-.273-.366s-.236.239-.227.41a1.758,1.758,0,0,0,.1.382A4.611,4.611,0,0,1,1012.512,86.128Zm2.037-5.186c.044-.259,0-.47-.27-.479-.3-.009-.187.256-.207.413-.027.211-.015.454.269.458S1014.5,81.062,1014.549,80.942Zm.037-1.587c.007-.207.018-.44-.233-.436-.3,0-.265.316-.311.5-.056.234.165.331.347.333C1014.7,79.759,1014.53,79.483,1014.585,79.356Zm-.162,4.858c.009-.233.027-.495-.244-.515-.323-.023-.193.3-.252.467-.082.23.063.335.286.355C1014.5,84.546,1014.4,84.329,1014.423,84.213Zm.031-1.671c.027-.251-.026-.471-.281-.464-.273.007-.14.267-.16.415-.027.2-.033.452.262.443S1014.409,82.664,1014.455,82.542Z" transform="translate(-122.277 -43.781)" fill="#0e6da8" fill-rule="evenodd"/>
      <path id="Trazado_6309" data-name="Trazado 6309" d="M986.427,75.349a.84.84,0,0,1,.433.717c.1,2.2.276,4.4.529,6.594a15.03,15.03,0,0,1,.023,1.6l-1.674.229c-.023-.8-.091-1.608-.119-2.409-.073-2.051-.016-4.105-.039-6.159,0-.45.134-.647.584-.6Z" transform="translate(-101.081 -41.697)" fill="#0e6da8" fill-rule="evenodd"/>
      <path id="Trazado_6310" data-name="Trazado 6310" d="M980.806,74.816c-.45-.05-.589.147-.584.6.023,2.053-.034,4.108.039,6.159.028.8.1,1.6.119,2.409l-1.244.255q-.182-3.3-.362-6.605a1.969,1.969,0,0,1,.272-1.054c.253-.463.528-.92.734-1.4C980.007,74.642,980.331,74.551,980.806,74.816Zm-1.068,2.608c-.2.295-.524.515-.542.967A1.073,1.073,0,0,0,979.738,77.424Z" transform="translate(-95.722 -41.193)" fill="#4f98c8" fill-rule="evenodd"/>
      <path id="Trazado_6311" data-name="Trazado 6311" d="M1001.175,103.431V99.775h.167c0,1.023.008,2.046,0,3.069,0,.325.068.537.444.509C1001.6,103.523,1001.385,103.464,1001.175,103.431Z" transform="translate(-113.354 -60.95)" fill="#b6727b" fill-rule="evenodd"/>
      <path id="Trazado_6312" data-name="Trazado 6312" d="M1018.6,113.276a1.769,1.769,0,0,1-.1-.382c-.008-.172-.037-.391.227-.41s.27.177.273.366c0,.159.009.316.015.474A.512.512,0,0,1,1018.6,113.276Z" transform="translate(-126.983 -70.951)" fill="#f1f8fc" fill-rule="evenodd"/>
      <path id="Trazado_6313" data-name="Trazado 6313" d="M1006.337,66.029a9.648,9.648,0,0,1,.141,1.366c-.037.967-.189,1.172-1.232,1.461-.116-1.084.226-2.146.116-3.22A2.623,2.623,0,0,1,1006.337,66.029Z" transform="translate(-116.539 -34.08)" fill="#0e6da8" fill-rule="evenodd"/>
      <path id="Trazado_6314" data-name="Trazado 6314" d="M1004.951,81.783c-.461.65-1.192.733-1.828.995a.263.263,0,0,1-.226-.1c-.062-.089.024-.18.1-.223A4.907,4.907,0,0,1,1004.951,81.783Z" transform="translate(-114.693 -46.789)" fill="#f1f8fc" fill-rule="evenodd"/>
      <path id="Trazado_6315" data-name="Trazado 6315" d="M1002.807,110.239a2.533,2.533,0,0,1,1.735-.35.184.184,0,0,1,.122.211.356.356,0,0,1-.26.285A4.475,4.475,0,0,1,1002.807,110.239Z" transform="translate(-114.639 -68.871)" fill="#f1f8fc" fill-rule="evenodd"/>
      <path id="Trazado_6316" data-name="Trazado 6316" d="M1003.559,86.431c-.092-.376.1-.48.331-.563.345-.124.685-.265,1.037-.37.133-.039.329-.2.426.006s-.043.348-.245.415C1004.594,86.09,1004.082,86.258,1003.559,86.431Z" transform="translate(-115.212 -49.636)" fill="#f1f8fc" fill-rule="evenodd"/>
      <path id="Trazado_6317" data-name="Trazado 6317" d="M1005.27,93.977c-.022.029-.063.144-.129.16-.5.132-1.014.249-1.525.359a.147.147,0,0,1-.19-.143c0-.08.039-.213.09-.229.52-.158,1.046-.308,1.576-.435C1005.21,93.661,1005.286,93.782,1005.27,93.977Z" transform="translate(-115.125 -56.157)" fill="#f1f8fc" fill-rule="evenodd"/>
      <path id="Trazado_6318" data-name="Trazado 6318" d="M1003.688,90.494c-.136,0-.266.022-.3-.134a.214.214,0,0,1,.161-.264c.462-.147.923-.295,1.388-.431a.216.216,0,0,1,.289.119.23.23,0,0,1-.162.326C1004.6,90.246,1004.133,90.371,1003.688,90.494Z" transform="translate(-115.093 -52.982)" fill="#f1f8fc" fill-rule="evenodd"/>
      <path id="Trazado_6319" data-name="Trazado 6319" d="M1003.762,106.479c-.189-.1-.652.212-.682-.193-.023-.317.457-.163.7-.263a.863.863,0,0,1,.407-.052c.228.023.618-.178.652.123.044.4-.378.362-.668.384C1004.054,106.486,1003.939,106.479,1003.762,106.479Z" transform="translate(-114.853 -65.791)" fill="#f1f8fc" fill-rule="evenodd"/>
      <path id="Trazado_6320" data-name="Trazado 6320" d="M1003.915,98.572c-.309.027-.5.135-.529-.126-.017-.163.118-.242.255-.27.4-.08.805-.145,1.207-.218.15-.027.281-.019.292.172.008.163-.093.246-.245.273C1004.516,98.47,1004.135,98.535,1003.915,98.572Z" transform="translate(-115.093 -59.511)" fill="#f1f8fc" fill-rule="evenodd"/>
      <path id="Trazado_6321" data-name="Trazado 6321" d="M1003.964,102.656c-.2-.107-.528.212-.566-.172-.035-.35.306-.251.509-.286.291-.052.585-.093.88-.12.125-.013.3-.045.332.142.038.217-.128.262-.295.29Z" transform="translate(-115.101 -62.754)" fill="#f1f8fc" fill-rule="evenodd"/>
      <path id="Trazado_6322" data-name="Trazado 6322" d="M1020.278,90.193c-.052.12.077.4-.208.391s-.3-.247-.269-.458c.02-.156-.089-.421.207-.413C1020.277,89.723,1020.322,89.934,1020.278,90.193Z" transform="translate(-128.006 -53.031)" fill="#f1f8fc" fill-rule="evenodd"/>
      <path id="Trazado_6323" data-name="Trazado 6323" d="M1020.208,82.9c-.055.128.114.4-.2.4-.182,0-.4-.1-.347-.333.045-.187.009-.5.311-.5C1020.226,82.46,1020.215,82.694,1020.208,82.9Z" transform="translate(-127.899 -47.325)" fill="#f1f8fc" fill-rule="evenodd"/>
      <path id="Trazado_6324" data-name="Trazado 6324" d="M1019.572,105.418c-.023.116.077.333-.209.308-.223-.02-.368-.125-.286-.355.058-.166-.071-.49.252-.467C1019.6,104.923,1019.581,105.184,1019.572,105.418Z" transform="translate(-127.425 -64.985)" fill="#f1f8fc" fill-rule="evenodd"/>
      <path id="Trazado_6325" data-name="Trazado 6325" d="M1019.946,97.762c-.046.122.106.386-.18.395s-.289-.242-.262-.443c.02-.148-.113-.408.16-.415C1019.921,97.291,1019.974,97.511,1019.946,97.762Z" transform="translate(-127.768 -59)" fill="#f1f8fc" fill-rule="evenodd"/>
      <path id="Trazado_6326" data-name="Trazado 6326" d="M981.307,87.594a1.073,1.073,0,0,1-.542.967C980.783,88.109,981.1,87.889,981.307,87.594Z" transform="translate(-97.291 -51.363)" fill="#f1f8fc" fill-rule="evenodd"/>
    </g>
  </g>
</svg>
