<?xml version="1.0" encoding="utf-8"?>
<!-- Generator: Adobe Illustrator 22.1.0, SVG Export Plug-In . SVG Version: 6.00 Build 0)  -->
<svg version="1.1" id="Capa_1" xmlns="http://www.w3.org/2000/svg" xmlns:xlink="http://www.w3.org/1999/xlink" x="0px" y="0px"
	 viewBox="0 0 94.1 60.2" style="enable-background:new 0 0 94.1 60.2;" xml:space="preserve">
<style type="text/css">
	.st0{fill:#FFFFFF;}
</style>
<g>
	<path class="st0" d="M12.2,36.6c1.3,1.3,3,2,4.8,2c0,0,0,0,0,0c1.8,0,3.5-0.7,4.8-2l9.5-9.6L17,12.5L2.8,27L12.2,36.6z"/>
	<path class="st0" d="M31.3,27l-9.5,9.6c-1.3,1.3-3,2-4.8,2c0,0,0,0,0,0c-1.8,0-3.6-0.7-4.8-2L2.8,27L17,12.5L31.3,27z"/>
	<path class="st0" d="M47,12.5l-4.2,4.3L32.7,27l9.4,9.5c1.3,1.3,3,2,4.9,2c0,0,0,0,0,0c1.8,0,3.5-0.7,4.8-2l9.4-9.6l0,0l0,0l-8.9-9
		L47,12.5z"/>
	<path class="st0" d="M62.7,27L62.7,27l9.4,9.5c1.3,1.3,3,2,4.8,2c0,0,0.1,0,0.1,0c1.8,0,3.6-0.7,4.9-2l9.4-9.5L77,12.5L67,22.7
		L62.7,27L62.7,27z"/>
	<rect x="62.7" y="27" transform="matrix(0.7071 -0.7071 0.7071 0.7071 -0.737 52.2653)" class="st0" width="0" height="0"/>
	<path class="st0" d="M62,26.3l3.8-3.8l10.5-10.6l-9.4-9.5c-2.8-2.7-7.1-2.7-9.8,0l-9.4,9.5l0,0l4.8,4.8L62,26.3z"/>
	<polygon class="st0" points="47.7,11.8 47.7,11.8 52.5,16.6 	"/>
	<polygon class="st0" points="62,26.3 65.8,22.5 62,26.3 	"/>
	<path class="st0" d="M36.9,2.3c-2.8-2.7-7.1-2.7-9.8,0l-9.4,9.5L32,26.3l9.8-10l4.4-4.5L36.9,2.3z"/>
	<polygon class="st0" points="46.3,11.8 46.3,11.8 46.3,11.8 41.9,16.3 46.3,11.8 	"/>
	<g id="Grupo_15" transform="translate(0 44.286)">
		<path id="Trazado_12" class="st0" d="M55.5,3.5c4.4,0,6.6,3,6.6,6.1s-2.2,6.1-6.6,6.1c-4.5,0-6.7-3.1-6.6-6.1
			C48.9,6.5,51.1,3.5,55.5,3.5L55.5,3.5z M52.8,9.5c-0.1,1.5,1.1,2.7,2.6,2.8s2.7-1.1,2.8-2.6c0-0.1,0-0.1,0-0.2
			c0-1.5-1.1-2.7-2.6-2.7C54.1,6.8,52.8,8,52.8,9.5C52.8,9.5,52.8,9.5,52.8,9.5L52.8,9.5z"/>
		<path id="Trazado_13" class="st0" d="M35.5,3.8h3.2l0.7,1.4l0.1,0c0.9-1.1,2.2-1.7,3.6-1.6c2.7,0,4.2,1.7,4.2,4.4v7.5h-3.9v-6
			c0-1.4-0.2-2.6-1.8-2.6c-1.1,0-2.1,0.9-2.1,2c0,0.1,0,0.2,0,0.3v6.3h-3.9L35.5,3.8z"/>
		<path id="Trazado_14" class="st0" d="M0,15.4L2.8-0.3h4.4l2.9,7.3l0.2,0.8l0.2-0.8l2.9-7.3h4.4l2.8,15.6h-4.2l-1.4-9.5l-0.2,0.9
			l-3.5,8.7H9.4L5.9,6.7L5.6,5.8l-1.4,9.5H0z"/>
		<path id="Trazado_15" class="st0" d="M91.3,15.4l-0.7-1.5h-0.1c-1,1.2-2.4,1.8-4,1.7c-2.2,0-3.4-1.5-3.4-3.7c0-3,2.7-3.7,5.2-3.8
			c0.6,0,1.3,0,1.9,0c0-1-0.3-1.6-1.4-1.6c-1.1,0.1-2.2,0.4-3.1,0.9l-1.1-2.6c1.6-0.7,3.3-1.1,5-1c2.6,0,4.6,1.4,4.6,4.2v7.5H91.3z
			 M90.2,11.2v-0.9l-0.9,0c-1.3,0.1-2.2,0.5-2.2,1.4c0,0.8,0.6,1.1,1.2,1.1c0.9,0.1,1.7-0.6,1.8-1.5C90.2,11.3,90.2,11.2,90.2,11.2z
			"/>
		<path id="Trazado_16" class="st0" d="M77.9,15.6c-3.7,0-5.7-2.3-5.7-6c0-3.8,2.3-6.1,6-6.1c1.3,0,2.6,0.3,3.8,0.9l-1.2,3
			c-0.4-0.2-0.9-0.4-1.3-0.5c-0.4-0.1-0.8-0.2-1.3-0.2c-2.7,0-2.8,5.7,0,5.7c1.2,0,2.3-0.4,3.3-1v3.2C80.5,15.3,79.2,15.6,77.9,15.6
			z"/>
		<path id="Trazado_17" class="st0" d="M70.6,3.6c0.4,0,0.8,0,1.2,0.1l-0.4,3.8c-0.4-0.1-0.9-0.1-1.4-0.1c-0.7-0.1-1.4,0.2-1.9,0.6
			c-0.4,0.5-0.6,1.1-0.6,1.7v5.7h-4V3.8h2.9l0.6,1.9h0.2C68,4.5,69.2,3.7,70.6,3.6z"/>
		<path id="Trazado_18" class="st0" d="M33.9,10.3h-8.3c0,1.6,0.8,2.6,2.4,2.6c0.8,0,1.6-0.4,2-1.1h3.7c-0.8,2.7-3,3.9-5.7,3.9
			c-3.6,0-6.5-2.1-6.5-6c0-4,2.7-6.1,6.5-6.1C31.9,3.5,33.9,6.5,33.9,10.3L33.9,10.3z M30.2,7.9c-0.2-1.1-1.2-1.8-2.3-1.8
			c-1.1-0.1-2.1,0.7-2.3,1.8L30.2,7.9z"/>
	</g>
</g>
</svg>
