<?xml version="1.0" encoding="utf-8"?>
<!-- Generator: Adobe Illustrator 23.0.1, SVG Export Plug-In . SVG Version: 6.00 Build 0)  -->
<svg version="1.1" id="Capa_1" xmlns="http://www.w3.org/2000/svg" xmlns:xlink="http://www.w3.org/1999/xlink" x="0px" y="0px"
	 viewBox="0 0 91.5 40.8" style="enable-background:new 0 0 91.5 40.8;" xml:space="preserve">
<style type="text/css">
	.st0{fill-rule:evenodd;clip-rule:evenodd;fill:#005F27;}
	.st1{fill-rule:evenodd;clip-rule:evenodd;fill:#158C30;}
</style>
<g id="logotipo" transform="translate(-210.761 -260.972)">
	<g id="Grupo_17" transform="translate(210.761 260.972)">
		<g id="Grupo_16" transform="translate(0 0)">
			<g id="Grupo_14" transform="translate(2.055)">
				<path id="Trazado_7" class="st0" d="M13.6,12.8L-1.3,28l9.7,9.9c2.9,2.9,7.5,2.9,10.4,0.1c0,0,0,0,0.1-0.1l9.8-9.9L13.6,12.8z"
					/>
				<path id="Trazado_8" class="st0" d="M43.6,12.8L28.6,28l9.8,9.9c2.9,2.9,7.5,2.9,10.4,0.1c0,0,0,0,0.1-0.1l9.7-9.9L43.6,12.8z"
					/>
				<path id="Trazado_9" class="st0" d="M73.6,12.8L58.6,28l9.8,9.9c1.4,1.4,3.2,2.2,5.2,2.2c2,0,3.9-0.8,5.3-2.2l9.7-9.9L73.6,12.8
					z"/>
				<path id="Trazado_10" class="st1" d="M58.6,28l-15-15.2l9.8-9.9C56.2,0,60.9,0,63.8,2.8c0,0,0,0,0.1,0.1l9.7,9.9L58.6,28z"/>
				<path id="Trazado_11" class="st1" d="M28.6,28l-15-15.2l9.7-9.9C26.3,0,30.9,0,33.8,2.8c0,0,0,0,0.1,0.1l9.7,9.9L28.6,28z"/>
			</g>
		</g>
	</g>
</g>
</svg>
