<?xml version="1.0" encoding="utf-8"?>
<!-- Generator: Adobe Illustrator 22.1.0, SVG Export Plug-In . SVG Version: 6.00 Build 0)  -->
<svg version="1.1" id="Capa_1" xmlns="http://www.w3.org/2000/svg" xmlns:xlink="http://www.w3.org/1999/xlink" x="0px" y="0px"
	 viewBox="0 0 500 500" style="enable-background:new 0 0 500 500;" xml:space="preserve">
<style type="text/css">
	.st0{fill:#FFFFFF;}
	.st1{fill:#005F27;}
	.st2{fill:#158C30;}
</style>
<g>
	
		<image style="overflow:visible;opacity:0.2;" width="554" height="554" xlink:href="C9C7FC2BAF6522BB.png"  transform="matrix(1 0 0 1 -24 -20)">
	</image>
	<g>
		<circle class="st0" cx="250" cy="250" r="217"/>
	</g>
</g>
<g id="logotipo" transform="translate(-210.761 -260.972)">
	<g id="Grupo_17" transform="translate(210.761 260.972)">
		<g id="Grupo_16" transform="translate(0 0)">
			<g id="Grupo_14" transform="translate(2.055)">
				<path id="Trazado_7" class="st1" d="M164.2,199.7l-41.9,42.5l27.2,27.6c8,8.1,21,8.2,29.1,0.2c0.1-0.1,0.1-0.1,0.2-0.2
					l27.2-27.6L164.2,199.7z"/>
				<path id="Trazado_8" class="st1" d="M247.9,199.6l-41.9,42.5l27.2,27.6c8,8.1,21,8.2,29.1,0.1c0.1-0.1,0.1-0.1,0.2-0.2
					l27.2-27.6L247.9,199.6z"/>
				<path id="Trazado_9" class="st1" d="M331.7,199.6l-41.9,42.5l27.3,27.6c3.8,3.9,9,6.1,14.4,6.1c5.6,0.1,10.9-2.1,14.9-6.1
					l27.2-27.6L331.7,199.6z"/>
				<path id="Trazado_10" class="st2" d="M289.8,242.1l-41.9-42.4l27.3-27.6c8-8.1,21-8.2,29.1-0.2c0.1,0.1,0.1,0.1,0.2,0.2
					l27.2,27.6L289.8,242.1z"/>
				<path id="Trazado_11" class="st2" d="M206,242.1l-41.9-42.4l27.2-27.6c8-8.1,21.1-8.2,29.2-0.2c0.1,0.1,0.1,0.1,0.2,0.2
					l27.2,27.6L206,242.1z"/>
			</g>
			<g id="Grupo_15" transform="translate(0 44.286)">
				<path id="Trazado_12" class="st1" d="M273.6,255.9c12.2,0,18.3,8.5,18.3,16.9c0,8.5-6.1,16.9-18.3,16.9
					c-12.5,0-18.7-8.6-18.6-17.1C255.1,264.3,261.3,255.9,273.6,255.9L273.6,255.9z M266.1,272.7c-0.2,4.1,3.1,7.6,7.2,7.7
					c4.1,0.2,7.6-3.1,7.7-7.2c0-0.2,0-0.3,0-0.5c0.1-4.1-3.2-7.5-7.3-7.6c-4.1-0.1-7.5,3.2-7.6,7.3
					C266.1,272.6,266.1,272.7,266.1,272.7L266.1,272.7z"/>
				<path id="Trazado_13" class="st1" d="M217.7,256.6h8.8l2,4l0.2,0c2.4-3.1,6.2-4.8,10.1-4.6c7.4,0,11.7,4.7,11.7,12.2V289h-11
					v-16.8c0-3.8-0.6-7.4-5.1-7.4c-3.2-0.1-5.8,2.5-5.8,5.6c0,0.3,0,0.6,0,0.8V289h-11L217.7,256.6z"/>
				<path id="Trazado_14" class="st1" d="M118.6,289l7.7-43.6h12.4l8,20.5l0.4,2.3l0.5-2.3l8-20.5h12.4l7.7,43.6h-11.8l-3.9-26.7
					l-0.7,2.5l-9.9,24.2h-4.8l-9.9-24.2l-0.7-2.5l-3.9,26.7H118.6z"/>
				<path id="Trazado_15" class="st1" d="M373.8,289l-2-4.1h-0.2c-2.7,3.3-6.8,5.1-11.1,4.8c-6.1,0-9.6-4.3-9.6-10.3
					c0-8.3,7.6-10.2,14.4-10.5c1.8-0.1,3.5-0.1,5.2-0.1c0-2.7-0.9-4.4-3.9-4.4c-3.1,0.2-6,1-8.8,2.4l-3.1-7.3
					c4.3-2.1,9.1-3.1,13.9-2.9c7.2,0,12.7,3.8,12.7,11.6V289H373.8z M370.6,277.3v-2.5l-2.5,0.1c-3.6,0.2-6,1.5-6,4
					c0,2.1,1.6,2.9,3.4,2.9c2.6,0.2,4.9-1.6,5.1-4.2C370.5,277.5,370.6,277.4,370.6,277.3z"/>
				<path id="Trazado_16" class="st1" d="M336.3,289.7c-10.3,0-16-6.4-16-16.6c0-10.6,6.4-16.9,16.8-16.9c3.6,0,7.2,0.8,10.5,2.5
					l-3.3,8.3c-1.2-0.5-2.4-1-3.7-1.4c-1.1-0.4-2.3-0.5-3.5-0.5c-7.5,0-8,15.9,0.1,15.9c3.3,0,6.5-1,9.3-2.8v8.9
					C343.5,288.8,339.9,289.8,336.3,289.7z"/>
				<path id="Trazado_17" class="st1" d="M315.8,256.1c1.1,0,2.2,0.1,3.4,0.3l-1,10.6c-1.2-0.3-2.5-0.4-3.8-0.3
					c-1.9-0.2-3.8,0.4-5.2,1.7c-1.2,1.3-1.7,3.1-1.6,4.8V289h-11v-32.3h8.2l1.7,5.2h0.5C308.7,258.5,312,256.3,315.8,256.1z"/>
				<path id="Trazado_18" class="st1" d="M213.2,274.7h-23.3c0.1,4.5,2.2,7.2,6.8,7.2c2.3,0.1,4.4-1.1,5.6-3h10.4
					c-2.2,7.6-8.4,10.9-15.8,10.9c-10.2,0-18.2-6-18.2-16.8c0-11.1,7.6-17,18.1-17C207.8,255.9,213.2,264.2,213.2,274.7L213.2,274.7
					z M202.9,268.2c-0.6-3-3.3-5.1-6.3-5.1c-3.1-0.2-5.9,2-6.4,5.1L202.9,268.2z"/>
			</g>
		</g>
	</g>
</g>
</svg>
