<svg width="81" height="68" viewBox="0 0 81 68" fill="none" xmlns="http://www.w3.org/2000/svg">
<g clip-path="url(#clip0)">
<path d="M49.7074 34.6482C48.9955 34.5041 48.252 34.4241 47.4926 34.4241C44.8506 34.4241 42.4617 35.3203 40.5 37.0327C38.9338 35.6564 36.6398 34.4241 33.5074 34.4241C32.748 34.4241 32.0045 34.5041 31.2926 34.6482C31.2926 34.6482 30.7072 30.5672 29.315 28.3747C27.7488 25.7501 25.3758 23.6696 22.5439 22.5173C25.7238 20.2928 27.8121 16.5639 27.8121 12.3389C27.7963 5.5373 22.3383 0 15.6463 0C8.9543 0 3.49629 5.5373 3.49629 12.3549C3.49629 16.5639 5.58457 20.2928 8.76445 22.5333C3.62285 24.6138 0 29.703 0 35.6404V43.5463C0 44.4265 0.711914 45.1466 1.58203 45.1466H22.2117C22.1643 45.6267 22.1326 46.1229 22.1326 46.635C22.1326 59.1499 39.092 67.5039 39.8197 67.856C40.0254 67.952 40.2627 68.016 40.5 68.016C40.5158 68.016 40.5316 68.016 40.5475 68.016H40.6266C40.848 68.016 41.0695 67.952 41.2594 67.856C41.9713 67.5039 58.8674 59.1499 58.8674 46.635C58.8674 46.1229 58.8357 45.6267 58.7883 45.1466H59.2471C60.1172 45.1466 60.8291 44.4265 60.8291 43.5463C60.8291 42.666 60.1172 41.9459 59.2471 41.9459H58.0289C57.0322 39.3053 55.1971 37.1447 52.8715 35.8324V35.6404C52.8715 29.607 57.7125 24.7098 63.6768 24.7098H67.0307C72.9949 24.7098 77.8359 29.607 77.8359 35.6404V41.9459H73.5486C72.6785 41.9459 71.9666 42.666 71.9666 43.5463C71.9666 44.4265 72.6785 45.1466 73.5486 45.1466H79.418C80.2881 45.1466 81 44.4265 81 43.5463V35.6404C81 29.703 77.3772 24.6138 72.2355 22.5333C75.4154 20.3088 77.5037 16.5799 77.5037 12.3549C77.5037 5.5373 72.0615 0 65.3537 0C58.6617 0 53.2037 5.5373 53.2037 12.3549C53.2037 16.5639 55.292 20.2928 58.4719 22.5333C55.64 23.6856 53.2512 25.7661 51.7008 28.3907C49.5492 31.8475 49.7074 34.6482 49.7074 34.6482ZM6.66035 12.3549C6.66035 7.31372 10.6945 3.20075 15.6463 3.20075C20.598 3.20075 24.6322 7.31372 24.6322 12.3549C24.6322 17.3961 20.598 21.5091 15.6463 21.5091C10.6945 21.5091 6.66035 17.3961 6.66035 12.3549ZM3.16406 41.9459V35.6404C3.16406 29.607 8.00508 24.7098 13.9693 24.7098H17.3232C23.2875 24.7098 28.1285 29.607 28.1285 35.6404V35.8324C25.8029 37.1447 23.9678 39.3053 22.9711 41.9459H3.16406ZM55.7033 46.635C55.7033 55.9012 43.5059 63.0388 40.5316 64.6232C37.5416 63.0228 25.2967 55.8852 25.2967 46.635C25.2967 41.5938 28.9037 37.6249 33.5232 37.6249C36.3867 37.6249 38.2535 39.0972 39.3135 40.3455C39.6141 40.6976 40.057 40.8896 40.5316 40.8896C40.9904 40.8896 41.4334 40.6656 41.734 40.3135C41.7498 40.2975 41.7656 40.2815 41.7814 40.2655C43.316 38.5051 45.2461 37.6249 47.5084 37.6249C52.0963 37.6249 55.7033 41.5778 55.7033 46.635ZM56.3678 12.3549C56.3678 7.31372 60.402 3.20075 65.3537 3.20075C70.3055 3.20075 74.3396 7.31372 74.3396 12.3549C74.3396 17.3961 70.3055 21.5091 65.3537 21.5091C60.402 21.5091 56.3678 17.3961 56.3678 12.3549Z" fill="white"/>
<path d="M67.885 42.938C67.6319 42.3139 66.9833 41.8978 66.3188 41.9618C65.6544 42.0098 65.1007 42.4739 64.9108 43.1141C64.721 43.7542 64.9741 44.4584 65.512 44.8585C66.0341 45.2426 66.7776 45.2586 67.3155 44.8905C67.9325 44.4584 68.1698 43.6262 67.885 42.938Z" fill="white"/>
</g>
<defs>
<clipPath id="clip0">
<rect width="81" height="68" fill="white"/>
</clipPath>
</defs>
</svg>
