<?xml version="1.0" encoding="utf-8"?>
<!-- Generator: Adobe Illustrator 23.0.1, SVG Export Plug-In . SVG Version: 6.00 Build 0)  -->
<svg version="1.1" id="Capa_1" xmlns="http://www.w3.org/2000/svg" xmlns:xlink="http://www.w3.org/1999/xlink" x="0px" y="0px"
	 viewBox="0 0 101 101" style="enable-background:new 0 0 101 101;" xml:space="preserve">
<style type="text/css">
	.st0{fill:#FFFFFF;}
</style>
<g id="Grupo_342" transform="translate(-1062 -3020)">
	<g id="Grupo_338" transform="translate(829.827 3041.75)">
		<path id="Trazado_361" class="st0" d="M298.6,15.3c-1.3,0-2.3,1-2.3,2.3s1,2.3,2.3,2.3s2.3-1,2.3-2.3l0,0
			C300.9,16.3,299.9,15.3,298.6,15.3z"/>
		<path id="Trazado_362" class="st0" d="M311.8,15.3c-1.3,0-2.3,1-2.3,2.3s1,2.3,2.3,2.3s2.3-1,2.3-2.3l0,0
			C314.1,16.3,313.1,15.3,311.8,15.3z"/>
		<path id="Trazado_363" class="st0" d="M252.3,15.3c-1.3,0-2.3,1-2.3,2.3s1,2.3,2.3,2.3s2.3-1,2.3-2.3l0,0
			C254.6,16.3,253.5,15.3,252.3,15.3z"/>
		<path id="Trazado_364" class="st0" d="M265.3,15.3c-1.3,0-2.3,1-2.3,2.3s1,2.3,2.3,2.3s2.3-1,2.3-2.3l0,0
			C267.6,16.3,266.6,15.3,265.3,15.3z"/>
		<path id="Trazado_365" class="st0" d="M329,47.5c-0.2-0.8-1-1.1-1.6-1c-0.8,0.2-1.1,1-1,1.6l0,0c0.3,1.3,0.5,2.8,0.7,4.1h-26.6
			c-0.3-0.2-0.8-0.3-1.1-0.3c0,0,0,0,0-0.2c0-6.1-3.1-11.7-8.2-14.9c2.1-1.8,4.6-3.1,7.2-4.1c1.3,3.8,5.6,5.7,9.4,4.4
			c2-0.7,3.6-2.3,4.4-4.3c5.3,1.8,9.7,5.4,12.3,10.3c0.3,0.7,1.1,1,2,0.7c0.7-0.3,1-1.1,0.7-2l0,0c-1.1-2-2.5-3.8-3.9-5.4
			c1.5-1.1,2.6-2.6,3.3-4.4c3.6-7.9,3.6-22.7,1.1-29.4C322.9-9.5,309.3-15.6,297-11c-2.6,1-5.1,2.5-7.2,4.3c-0.7,0.5-0.7,1.5-0.2,2
			c0.5,0.5,1.5,0.7,2,0.2c8.7-7.6,21.8-6.7,29.4,2c1.6,1.8,3,3.9,3.8,6.2c2.3,6.1,2.3,20.2-1,27.2c-0.7,1.5-1.6,2.8-3,3.6
			c-2.5-2-5.1-3.4-8-4.4c5.9-2.8,9.8-8.9,9.8-15.4v-2.8c0-0.7-0.5-1.3-1.1-1.3c-6.9-1.1-11.8-8.2-11.8-8.4c-0.5-0.7-1.3-0.8-2-0.3
			c-0.2,0.2-0.3,0.3-0.5,0.7c0,0-3.4,8-17.6,8c-0.8,0-1.5,0.7-1.5,1.5l0,0v2.8c0,6.6,3.8,12.6,9.8,15.4c-3,1-5.7,2.5-8,4.4
			c-1.3-0.8-2.3-2.1-3-3.6c-3.3-7.1-3.3-21.2-1-27.2c0.7-1.5,1.3-3,2.3-4.3c0.5-0.7,0.3-1.5-0.3-2c-0.7-0.5-1.5-0.3-2,0.3
			c-1,1.5-1.8,3.1-2.5,4.8c-2.6,6.7-2.6,21.7,1.1,29.4c0.5,1,1,1.8,1.5,2.6c-1.3-0.3-2.5-0.5-3.8-0.5c-0.2-1.3-0.2-2.6,0-3.9
			c0.2-0.8-0.3-1.5-1-1.6c-0.8-0.2-1.5,0.3-1.6,1c0,0,0,0,0,0.2c-0.2,1.1-0.3,2.5-0.2,3.6c-1.3-0.8-2.3-2.1-2.6-3.6
			c-0.2-0.8-0.8-1.3-1.6-1.1c-0.7,0.2-1.1,0.8-1.1,1.6c0.3,1.8,1.5,3.6,2.8,4.8c-0.5,0.2-0.8,0.3-1.3,0.5c-2.6-2.3-5.7-4.1-9-5.1
			c3-1.5,5.4-3.6,7.1-6.4c2.5,1.3,5.6,0.3,6.9-2.1c0.8-1.6,0.7-3.8-0.3-5.3c3.6-10.7,2-16.9,0-20.2c-2.1-3.4-5.6-5.6-9.5-6.1
			c-2.3-0.3-4.6,0-6.6,1c-2-2.3-4.1-3.6-8.7-3.6c-6.6,0.2-12.8,3.3-16.7,8.7c-4.4,6.7-2.8,14.4-0.5,20.2c-1.6,2.3-1,5.6,1.3,7.1
			c1.5,1,3.6,1.1,5.3,0.3c1.8,2.8,4.3,4.9,7.1,6.4c-3.9,1.3-7.6,3.4-10.3,6.4c-0.5,0.5-0.5,1.5,0,2c0.5,0.5,1.5,0.5,2,0l0,0
			c2.5-2.6,5.6-4.4,8.9-5.6c1.3,3.8,5.6,5.7,9.4,4.4c2-0.7,3.6-2.3,4.4-4.4c2.5,0.8,4.8,2.1,6.9,3.8c-5.4,3.1-8.7,9-8.7,15.3
			c0,0,0,0,0,0.2c-0.3,0-0.8,0.2-1.1,0.3h-25.6c0.2-3.3,1.1-6.6,2.8-9.5c0.3-0.7,0.2-1.5-0.5-2c-0.7-0.3-1.5-0.2-2,0.5
			c-2.1,3.8-3.3,8-3.3,12.3l0,0c0,0.8,0.7,1.5,1.5,1.5l0,0h24.3c-1,2.6,0.2,5.6,2.8,6.6c1.3,0.5,2.8,0.5,4.1-0.2
			c5.4,8.2,16.4,10.3,24.5,4.9c2-1.3,3.6-3,4.9-4.9c2.6,1.1,5.6,0,6.7-2.5c0.7-1.3,0.7-2.8,0.2-4.1h25.3c0.8,0,1.5-0.7,1.5-1.5l0,0
			l0,0C329.8,51.6,329.5,49.6,329,47.5z M275.6,21.7c-0.3,0-0.7-0.2-1-0.3c0.7-1.3,1-2.8,1.1-4.4c1.3,0,2.3,1.1,2.3,2.3
			C277.9,20.7,277,21.7,275.6,21.7L275.6,21.7z M240.5-2.3c3.3-4.6,8.7-7.4,14.4-7.6c4.4,0,5.7,1.3,7.2,3.4c0.5,0.7,1.3,0.8,2,0.3
			c1.8-1,3.8-1.5,5.9-1.1c3.1,0.3,5.9,2.1,7.6,4.8c2.3,3.9,2.3,9.7,0,16.9c-0.5-0.2-1-0.3-1.5-0.3v-2.3c0-0.7-0.5-1.3-1.1-1.3
			c-6.9-1.1-11.8-8.2-11.8-8.4c-0.5-0.7-1.3-0.8-2-0.3c-0.2,0.2-0.3,0.3-0.5,0.7c-0.8,1.6-2,3-3.4,3.9c-4.1,2.8-9,4.3-14.1,4.1
			c-0.8,0-1.5,0.7-1.5,1.5l0,0v2.3c-0.5,0-1.1,0.2-1.6,0.3C237.4,7.9,237.7,2.1,240.5-2.3z M242,21.7c-1.3,0-2.3-1-2.3-2.3
			c0-1.3,1-2.3,2.3-2.3c0.2,1.5,0.7,3,1.1,4.4C242.6,21.5,242.3,21.7,242,21.7L242,21.7z M244.4,15.6L244.4,15.6c0-0.3,0-0.7,0-1
			v-1.5c10.7-0.3,15.6-5.1,17.6-7.9c3,3.6,6.7,6.2,11.2,7.6v1.6c0,0.3,0,0.7,0,1l0,0c-0.5,7.9-7.4,14-15.3,13.3
			C250.7,28.6,244.9,22.8,244.4,15.6L244.4,15.6z M258.7,35c-1.8,0-3.4-1-4.1-2.6c2.8-0.5,5.6-0.5,8.2,0
			C262.2,33.8,260.5,35,258.7,35z M305.2,35c-1.8,0-3.4-1-4.1-2.6c1.3-0.3,2.8-0.3,4.1-0.3s2.8,0.2,4.1,0.3
			C308.6,33.8,307,35,305.2,35z M290.9,14.6v-1.5c10.7-0.3,15.6-5.1,17.6-7.9c3,3.6,6.7,6.2,11.2,7.6v1.6c0,7.9-6.4,14.4-14.4,14.4
			C297.3,29.1,290.9,22.7,290.9,14.6L290.9,14.6z M264.6,59.3c-1.3,0-2.3-1-2.3-2.3c0-1.1,0.7-2,1.8-2.3c0.3,1.5,0.7,3,1.3,4.4
			C265.1,59.3,265,59.3,264.6,59.3z M281.5,66.8c-8.2,0-14.9-6.7-14.9-14.9s6.7-14.9,14.9-14.9c8.2,0,14.9,6.7,14.9,14.9
			S289.8,66.8,281.5,66.8L281.5,66.8z M298.5,59.3c-0.3,0-0.5,0-0.8-0.2c0.7-1.5,1.1-3,1.3-4.4c1.3,0.3,2,1.5,1.6,2.8
			C300.4,58.6,299.6,59.4,298.5,59.3z"/>
		<path id="Trazado_366" class="st0" d="M275,51.2c-1.3,0-2.3,1-2.3,2.3s1,2.3,2.3,2.3s2.3-1,2.3-2.3l0,0
			C277.3,52.4,276.3,51.2,275,51.2z"/>
		<path id="Trazado_367" class="st0" d="M288.1,51.2c-1.3,0-2.3,1-2.3,2.3s1,2.3,2.3,2.3s2.3-1,2.3-2.3l0,0
			C290.4,52.4,289.3,51.2,288.1,51.2z"/>
	</g>
</g>
</svg>
