<?xml version="1.0" encoding="utf-8"?>
<!-- Generator: Adobe Illustrator 23.0.1, SVG Export Plug-In . SVG Version: 6.00 Build 0)  -->
<svg version="1.1" id="Capa_1" xmlns="http://www.w3.org/2000/svg" xmlns:xlink="http://www.w3.org/1999/xlink" x="0px" y="0px"
	 viewBox="0 0 101 101" style="enable-background:new 0 0 101 101;" xml:space="preserve">
<style type="text/css">
	.st0{fill:#FFFFFF;}
</style>
<g id="Grupo_343" transform="translate(-1335 -3020)">
	<g id="Grupo_339" transform="translate(1364 3048.74)">
		<g id="Grupo_333" transform="translate(0 0.26)">
			<g id="Grupo_332" transform="translate(0 0)">
				<path id="Trazado_368" class="st0" d="M59.8,36.2L59.8,36.2l-6.6,2.1c-0.6-2.1-2.4-3.6-4.3-4.3c-0.6-3.9-4.1-6.6-7.9-6.4
					c-2.6-4.1-7.1-6.4-12-6.2c-0.4-2.1-2.1-3.6-4.1-4.3c1.5-4.7,4.1-9,7.5-12.4c0.2,0.2,0.4,0.4,0.6,0.6c3,3.2,7.3,4.9,11.8,4.9
					c0.2,0,0.6,0,0.9,0c4.1-0.2,7.7-2.1,10.1-5.4c6.6-8.8,11.6-26.3,11.8-27.2c0.2-0.9-0.2-1.7-1.1-1.9h-0.2
					C65.4-24.4,44-27,33.3-18c-0.9,0.6-1.5,1.3-2.1,2.1c-4.3-1.1-8.6-1.5-12.8-1.1c-0.9,0-1.5,0.9-1.3,1.7v0.2
					c1.3,4.3,3.2,8.4,5.8,12.2c1.5,1.7,3.6,2.6,5.8,2.6c0.2,0,0.4,0,0.6,0c0.2,0.9,0.6,1.5,1.1,2.4c-4.1,4.1-7.3,9.2-8.8,14.8
					c-1.5,0.2-2.8,1.1-3.6,2.4c-4.3-1.9-9.2-0.9-12.2,2.6c-0.9-0.2-1.9-0.4-2.8-0.4c-4.5,0-8.4,3.2-9,7.7h-2.8c-1.3-1.9-3.4-3-5.8-3
					h-3c-3.9,0-6.9,3-6.9,6.9v27.6c0,3.9,3,6.9,6.9,6.9h3c1.5,0,3-0.6,4.3-1.5h39.8c2.1,0,4.5-0.6,6.4-1.7l28.7-17.6
					c2.8-1.7,3.6-5.1,1.9-7.9C65.2,36.4,62.4,35.3,59.8,36.2L59.8,36.2z M31.1-7.1c0-3.2,1.5-6.2,3.9-8.4c5.8-4.9,15.8-6,22.7-6
					c2.6,0,4.5,0.2,6,0.2C62.2-16.5,58.1-3.6,53,3.2C51,5.6,48.3,7.1,45,7.3C41.2,7.5,37.5,6,34.8,3.2c-0.2-0.2-0.4-0.4-0.6-0.6
					c3.2-3,6.9-5.4,10.5-7.5c0.9-0.4,1.1-1.3,0.6-2.1c-0.4-0.9-1.3-1.1-2.1-0.6C39-5.6,35.4-3,32.2-0.2C31.6-2.1,31.1-4.5,31.1-7.1z
					 M28.1-7.3c0,1.3,0,2.8,0.4,4.1c-1.3,0-2.6-0.6-3.2-1.5c-2.4-2.6-3.9-5.8-4.9-9c3-0.2,6,0.2,9,0.9C28.6-11.1,28.1-9.2,28.1-7.3
					L28.1-7.3z M-10.9,60.6c0,2.1-1.7,3.9-3.9,3.9h-3c-2.1,0-3.9-1.7-3.9-3.9V33c0-2.1,1.7-3.9,3.9-3.9h3c2.1,0,3.9,1.7,3.9,3.9
					L-10.9,60.6z M3.1,24.4c0.9,0,1.7,0.2,2.6,0.6c0.6,0.2,1.5,0.2,1.9-0.4c2.4-3.2,6.9-4.1,10.3-1.9c0.6,0.4,1.7,0.2,2.1-0.4
					c0,0,0-0.2,0.2-0.2c0.4-1.1,1.5-1.9,2.8-1.9c0,0,0,0,0.2,0c0.2,0,0,0,0.2,0c1.7,0,3,1.3,3,3v0.2c0,0.9,0.6,1.5,1.5,1.7
					c0.2,0,0.2,0,0.4,0c0.6-0.2,1.3-0.2,1.9-0.2c3.6,0,7.1,2.1,8.8,5.4c0.2,0.6,1.1,0.9,1.7,0.9c2.6-0.4,4.9,1.1,5.4,3.6
					c0,0.2,0,0.6,0,0.9c0,0,0,0,0,0.2c0,0.9,0.6,1.5,1.3,1.5c1.5,0.2,2.6,1.3,3,2.6L31.6,46c-0.4,0.2-0.9,0.2-1.5,0.2h-0.9
					c0.6-1.9,0.4-4.3-0.6-6l-0.2-0.2c-1.7-2.8-4.7-4.5-7.9-4.5h-7.9c-2.8,0-5.6-1.1-7.7-2.8c-2.1-1.7-4.9-2.8-7.7-3.2
					C-2.3,26.6,0.1,24.4,3.1,24.4z M64.3,42.2c-0.2,0.6-0.6,1.3-1.3,1.7L34.3,61.5c-1.5,0.9-3,1.3-4.7,1.3H-8.1
					c0.2-0.6,0.4-1.5,0.4-2.4V33c0-0.2,0-0.4,0-0.9h2.8c2.8,0,5.6,1.1,7.7,2.8c2.8,2.1,6.2,3.4,9.6,3.4h7.9c2.1,0,4.1,1.1,5.1,3
					l0.2,0.2c0.9,1.5,0.6,3.2-0.2,4.5h-9.2c-3,0-6,0.9-8.6,2.6l-1.1,0.6c-0.6,0.4-0.9,1.5-0.4,2.1s1.5,0.9,2.1,0.4l0,0l1.1-0.6
					c1.9-1.3,4.3-2.1,6.9-2.1h13.7c0.9,0,1.7-0.2,2.4-0.4l19.5-6.4l0,0c0.4,0,0.6-0.2,0.9-0.4l7.7-2.6c1.1-0.4,2.4,0,3,0.9
					C64.1,40.7,64.3,41.6,64.3,42.2z"/>
				<path id="Trazado_369" class="st0" d="M10.3,30.6c0.9,0.2,1.7-0.4,1.7-1.3c0.2-1.1,1.1-1.9,2.4-1.9c0.4,0,1.1,0.2,1.3,0.4
					c0.6,0.4,1.7,0.4,2.1-0.4c0.4-0.6,0.4-1.5-0.2-2.1c-0.9-0.6-2.1-1.1-3.2-1.1c-2.6,0-4.7,1.7-5.4,4.3
					C9.1,29.6,9.7,30.4,10.3,30.6L10.3,30.6z"/>
				<path id="Trazado_370" class="st0" d="M26.8,31.1c0.4,0.2,1.1,0.2,1.5,0l0,0c0.9-0.6,2.1-0.4,3,0.2c0.4,0.4,0.6,0.9,0.6,1.3
					c0.2,0.9,0.9,1.3,1.5,1.3h0.2c0.9-0.2,1.5-0.9,1.3-1.7c-0.4-3-3.2-4.9-6-4.5c-0.9,0.2-1.5,0.4-2.1,0.9c-0.6,0.4-0.9,1.5-0.4,2.1
					C26.4,30.8,26.6,31.1,26.8,31.1L26.8,31.1z"/>
			</g>
		</g>
	</g>
</g>
</svg>
