<?xml version="1.0" encoding="utf-8"?>
<!-- Generator: Adobe Illustrator 23.0.1, SVG Export Plug-In . SVG Version: 6.00 Build 0)  -->
<svg version="1.1" id="Capa_1" xmlns="http://www.w3.org/2000/svg" xmlns:xlink="http://www.w3.org/1999/xlink" x="0px" y="0px"
	 viewBox="0 0 101 101" style="enable-background:new 0 0 101 101;" xml:space="preserve">
<style type="text/css">
	.st0{fill:#FFFFFF;}
</style>
<g id="Grupo_341" transform="translate(-768 -3020)">
	<g id="Grupo_337" transform="translate(752 3041)">
		<path id="Trazado_325" class="st0" d="M80.4,6.1c-1.8-1.8-4.7-1.8-6.4,0c-1.8,1.8-1.8,4.7,0,6.4l0,0l7.7,7.7
			c1.8,1.8,4.7,1.8,6.4,0l0,0l16.4-16.5c1.8-1.8,1.8-4.7,0-6.4c-1.8-1.8-4.7-1.8-6.4,0l0,0l-1.8,1.9c-1.3-1-2.7-1.8-4.3-2.4v-2.1
			c0-2.6-2.1-4.5-4.5-4.5H73.3v-1.6c0-3.2-2.6-5.8-5.8-5.8H51.8c-3.2,0-5.8,2.6-5.8,5.8v6.6c0,1.8,1.4,3.2,3.2,3.2h20.8
			c1.8,0,3.2-1.4,3.2-3.2v-2.2h14.1c1,0,1.8,0.8,1.8,1.8V-4C79.7-5.9,70.6,0.2,68.6,9.6s4.2,18.6,13.6,20.5c2.2,0.5,4.7,0.5,6.9,0
			v41.7c0,1-0.8,1.8-1.8,1.8H31.8c-1,0-1.8-0.8-1.8-1.8V-5.3c0-1,0.8-1.8,1.8-1.8h9.1c0.8,0,1.4-0.6,1.4-1.4s-0.6-1.4-1.4-1.4h-9.1
			c-2.6,0-4.5,2.1-4.5,4.5v77.1c0,2.6,2.1,4.5,4.5,4.5h55.6c2.6,0,4.5-2.1,4.5-4.5V29.3c6.6-2.6,10.9-8.7,11.2-15.7
			c0-0.8-0.6-1.4-1.3-1.4c-0.8,0-1.4,0.6-1.4,1.3l0,0c-0.2,6.3-4.3,11.5-10.1,13.5h-0.2c-7.7,2.4-16-2.1-18.3-9.8
			c-2.4-7.7,2.1-16,9.8-18.3c1.4-0.5,2.9-0.6,4.3-0.6c3,0,6.1,1,8.7,2.7l-9.5,9.5L80.4,6.1z M70.4-4.8c0,0.3-0.2,0.5-0.5,0.5l0,0
			H49.1c-0.3,0-0.5-0.2-0.5-0.5v-6.6c0-1.6,1.3-3,3-3h15.7c1.6,0,3,1.3,3,3V-4.8z M100.1-0.6c0.6-0.6,1.8-0.6,2.6,0
			c0.6,0.6,0.6,1.8,0,2.6L86.1,18.3c-0.6,0.6-1.8,0.6-2.6,0l0,0l-7.7-7.7c-0.6-0.6-0.6-1.8,0-2.6c0.6-0.6,1.8-0.6,2.6,0l5.5,5.5
			c0.5,0.5,1.4,0.5,1.9,0L100.1-0.6z"/>
		<path id="Trazado_326" class="st0" d="M64.6,17.3H48c-0.8,0-1.3,0.6-1.3,1.4c0,0.6,0.6,1.3,1.3,1.3h16.7c0.8,0,1.4-0.6,1.4-1.3
			C66.1,18,65.4,17.3,64.6,17.3L64.6,17.3L64.6,17.3z"/>
		<path id="Trazado_327" class="st0" d="M45.2,3h-9.3c-0.8,0-1.4,0.6-1.4,1.4s0.6,1.4,1.4,1.4h9.3c0.8,0,1.4-0.6,1.4-1.4
			S46,3,45.2,3L45.2,3z"/>
		<path id="Trazado_328" class="st0" d="M48,26.5h16.7c0.8,0,1.4-0.6,1.4-1.3c0-0.8-0.6-1.4-1.3-1.4c0,0,0,0-0.2,0H48
			c-0.8,0-1.3,0.6-1.3,1.4C46.7,25.8,47.2,26.3,48,26.5z"/>
		<path id="Trazado_329" class="st0" d="M70.4,34H48c-0.8,0-1.4,0.6-1.4,1.4s0.6,1.4,1.4,1.4l0,0h22.4c0.8,0,1.4-0.6,1.4-1.4
			C71.9,34.5,71.2,34,70.4,34L70.4,34z"/>
		<path id="Trazado_330" class="st0" d="M48,43h11.2c0.8,0,1.4-0.6,1.4-1.4s-0.6-1.4-1.4-1.4H48c-0.8,0-1.4,0.6-1.4,1.4
			C46.5,42.5,47.2,43,48,43L48,43z"/>
		<path id="Trazado_331" class="st0" d="M48,53.4h16.7c0.8,0,1.4-0.6,1.4-1.4c0-0.8-0.6-1.4-1.4-1.4H48c-0.8,0-1.4,0.6-1.4,1.4
			C46.5,52.8,47.2,53.4,48,53.4L48,53.4z"/>
		<path id="Trazado_332" class="st0" d="M48,59.6h22.4c0.8,0,1.4-0.6,1.4-1.3c0-0.8-0.6-1.4-1.3-1.4c0,0,0,0-0.2,0H48
			c-0.8,0-1.3,0.6-1.3,1.4C46.7,59.2,47.2,59.6,48,59.6z"/>
		<path id="Trazado_333" class="st0" d="M39,16c-3,0-5.6,2.4-5.6,5.6c0,3,2.4,5.6,5.6,5.6c3.2,0,5.6-2.4,5.6-5.6
			C44.4,18.6,42,16,39,16z M39,24.4c-1.6,0-2.7-1.3-2.7-2.7c0-1.6,1.3-2.7,2.7-2.7s2.7,1.3,2.7,2.7l0,0C41.7,23.2,40.6,24.4,39,24.4
			L39,24.4z"/>
		<path id="Trazado_334" class="st0" d="M39,32.9c-3,0-5.6,2.4-5.6,5.6s2.4,5.6,5.6,5.6c3.2,0,5.6-2.4,5.6-5.6
			C44.4,35.4,42,32.9,39,32.9z M39,41.2c-1.6,0-2.7-1.3-2.7-2.7c0-1.6,1.3-2.7,2.7-2.7s2.7,1.3,2.7,2.7l0,0
			C41.7,40.1,40.6,41.2,39,41.2L39,41.2z"/>
		<path id="Trazado_335" class="st0" d="M39,49.5c-3,0-5.6,2.4-5.6,5.6c0,3.2,2.4,5.6,5.6,5.6c3.2,0,5.6-2.4,5.6-5.6
			C44.4,52.1,42,49.5,39,49.5z M39,57.9c-1.6,0-2.7-1.3-2.7-2.7c0-1.6,1.3-2.7,2.7-2.7s2.7,1.3,2.7,2.7l0,0
			C41.7,56.8,40.6,57.9,39,57.9L39,57.9z"/>
	</g>
</g>
</svg>
