<?xml version="1.0" encoding="utf-8"?>
<!-- Generator: Adobe Illustrator 23.0.1, SVG Export Plug-In . SVG Version: 6.00 Build 0)  -->
<svg version="1.1" id="Capa_1" xmlns="http://www.w3.org/2000/svg" xmlns:xlink="http://www.w3.org/1999/xlink" x="0px" y="0px"
	 viewBox="0 0 101 101" style="enable-background:new 0 0 101 101;" xml:space="preserve">
<style type="text/css">
	.st0{fill:#FFFFFF;}
</style>
<g id="Grupo_340" transform="translate(-484 -3019)">
	<g id="Grupo_335" transform="translate(367.576 3038.411)">
		<g id="Grupo_329" transform="translate(151.627 28.163)">
			<g id="Grupo_309">
				<g id="Grupo_303">
					<path id="Trazado_336" class="st0" d="M-8.5,0.5h-1.4c-0.7,0-1.4-0.7-1.4-1.4s0.7-1.4,1.4-1.4h1.4c0.9,0,1.4,0.7,1.4,1.6
						C-7.1,0-7.7,0.5-8.5,0.5z"/>
				</g>
				<g id="Grupo_304" transform="translate(5.765)">
					<path id="Trazado_337" class="st0" d="M-4.3,0.5h-1.4c-0.7,0-1.4-0.7-1.4-1.4s0.7-1.4,1.4-1.4h1.4c0.9,0,1.4,0.7,1.4,1.6
						C-2.9,0-3.4,0.5-4.3,0.5z"/>
				</g>
				<g id="Grupo_305" transform="translate(11.529)">
					<path id="Trazado_338" class="st0" d="M-0.1,0.5h-1.4c-0.7,0-1.4-0.7-1.4-1.4s0.7-1.4,1.4-1.4h1.4c0.9,0,1.4,0.5,1.6,1.4
						C1.5-0.2,1,0.5-0.1,0.5C0.1,0.5,0.1,0.5-0.1,0.5z"/>
				</g>
				<g id="Grupo_306" transform="translate(16.47)">
					<path id="Trazado_339" class="st0" d="M3.6,0.5H2.2c-0.7,0-1.4-0.7-1.4-1.4s0.7-1.4,1.4-1.4h1.4C4.5-2.2,5-1.5,5-0.7
						C5,0,4.5,0.5,3.6,0.5z"/>
				</g>
				<g id="Grupo_307" transform="translate(22.235)">
					<path id="Trazado_340" class="st0" d="M7.8,0.5H6.4C5.7,0.5,5-0.2,5-0.8s0.7-1.4,1.4-1.4h1.4c0.9,0,1.4,0.7,1.4,1.6
						C9.2,0,8.7,0.5,7.8,0.5z"/>
				</g>
				<g id="Grupo_308" transform="translate(28)">
					<path id="Trazado_341" class="st0" d="M12.1,0.5h-1.4c-0.7,0-1.4-0.7-1.4-1.4s0.7-1.4,1.4-1.4h1.4c0.9,0,1.4,0.7,1.4,1.6
						C13.5,0,12.9,0.5,12.1,0.5z"/>
				</g>
			</g>
			<g id="Grupo_316" transform="translate(0 4.941)">
				<g id="Grupo_310">
					<path id="Trazado_342" class="st0" d="M-8.5,4.2h-1.4c-0.7,0-1.4-0.7-1.4-1.4s0.7-1.4,1.4-1.4h1.4c0.9,0,1.4,0.7,1.4,1.6
						C-7.1,3.7-7.7,4.2-8.5,4.2z"/>
				</g>
				<g id="Grupo_311" transform="translate(5.765)">
					<path id="Trazado_343" class="st0" d="M-4.3,4.2h-1.4c-0.7,0-1.4-0.7-1.4-1.4s0.7-1.4,1.4-1.4h1.4c0.9,0,1.4,0.7,1.4,1.6
						C-2.9,3.7-3.4,4.2-4.3,4.2z"/>
				</g>
				<g id="Grupo_312" transform="translate(11.529)">
					<path id="Trazado_344" class="st0" d="M-0.1,4.2h-1.4c-0.7,0-1.4-0.7-1.4-1.4s0.7-1.4,1.4-1.4h1.4c0.9,0,1.4,0.5,1.6,1.4
						C1.5,3.5,1,4.2-0.1,4.2C0.1,4.2,0.1,4.2-0.1,4.2z"/>
				</g>
				<g id="Grupo_313" transform="translate(16.47)">
					<path id="Trazado_345" class="st0" d="M3.6,4.2H2.2c-0.7,0-1.4-0.7-1.4-1.4s0.7-1.4,1.4-1.4h1.4C4.5,1.4,5,2.1,5,3
						C5,3.7,4.5,4.2,3.6,4.2z"/>
				</g>
				<g id="Grupo_314" transform="translate(22.235)">
					<path id="Trazado_346" class="st0" d="M7.8,4.2H6.4C5.7,4.2,5,3.5,5,2.8s0.7-1.4,1.4-1.4h1.4c0.9,0,1.4,0.7,1.4,1.6
						C9.2,3.7,8.7,4.2,7.8,4.2z"/>
				</g>
				<g id="Grupo_315" transform="translate(28)">
					<path id="Trazado_347" class="st0" d="M12.1,4.2h-1.4c-0.7,0-1.4-0.7-1.4-1.4s0.7-1.4,1.4-1.4h1.4c0.9,0,1.4,0.7,1.4,1.6
						C13.5,3.7,12.9,4.2,12.1,4.2z"/>
				</g>
			</g>
			<g id="Grupo_321" transform="translate(0 14.823)">
				<g id="Grupo_317">
					<path id="Trazado_348" class="st0" d="M-8.5,11.4h-1.4c-0.7,0-1.4-0.7-1.4-1.4s0.7-1.4,1.4-1.4h1.4c0.9,0,1.4,0.7,1.4,1.6
						C-7.1,10.9-7.7,11.4-8.5,11.4z"/>
				</g>
				<g id="Grupo_318" transform="translate(5.765)">
					<path id="Trazado_349" class="st0" d="M-4.3,11.4h-1.4c-0.7,0-1.4-0.7-1.4-1.4s0.7-1.4,1.4-1.4h1.4c0.9,0,1.4,0.7,1.4,1.6
						C-2.9,10.9-3.4,11.4-4.3,11.4z"/>
				</g>
				<g id="Grupo_319" transform="translate(11.529)">
					<path id="Trazado_350" class="st0" d="M-0.1,11.4h-1.4c-0.7,0-1.4-0.7-1.4-1.4s0.7-1.4,1.4-1.4h1.4c0.9,0,1.4,0.5,1.6,1.4
						C1.5,10.8,1,11.4-0.1,11.4C0.1,11.4,0.1,11.4-0.1,11.4z"/>
				</g>
				<g id="Grupo_320" transform="translate(16.47)">
					<path id="Trazado_351" class="st0" d="M3.6,11.4H2.2c-0.7,0-1.4-0.7-1.4-1.4s0.7-1.4,1.4-1.4h1.4C4.5,8.7,5,9.4,5,10.2
						C5,10.9,4.5,11.4,3.6,11.4z"/>
				</g>
			</g>
			<g id="Grupo_328" transform="translate(0 9.882)">
				<g id="Grupo_322">
					<path id="Trazado_352" class="st0" d="M-8.5,7.8h-1.4c-0.7,0-1.4-0.7-1.4-1.4S-10.6,5-9.9,5h1.4c0.9,0,1.4,0.7,1.4,1.6
						C-7.1,7.3-7.7,7.8-8.5,7.8z"/>
				</g>
				<g id="Grupo_323" transform="translate(5.765)">
					<path id="Trazado_353" class="st0" d="M-4.3,7.8h-1.4c-0.7,0-1.4-0.7-1.4-1.4S-6.4,5-5.7,5h1.4c0.9,0,1.4,0.7,1.4,1.6
						C-2.9,7.3-3.4,7.8-4.3,7.8z"/>
				</g>
				<g id="Grupo_324" transform="translate(11.529)">
					<path id="Trazado_354" class="st0" d="M-0.1,7.8h-1.4c-0.7,0-1.4-0.7-1.4-1.4S-2.1,5-1.4,5h1.4c0.9,0,1.4,0.5,1.6,1.4
						C1.5,7.1,1,7.8-0.1,7.8C0.1,7.8,0.1,7.8-0.1,7.8z"/>
				</g>
				<g id="Grupo_325" transform="translate(16.47)">
					<path id="Trazado_355" class="st0" d="M3.6,7.8H2.2c-0.7,0-1.4-0.7-1.4-1.4S1.5,5,2.2,5h1.4C4.5,5,5,5.7,5,6.6
						C5,7.3,4.5,7.8,3.6,7.8z"/>
				</g>
				<g id="Grupo_326" transform="translate(22.235)">
					<path id="Trazado_356" class="st0" d="M7.8,7.8H6.4C5.7,7.8,5,7.1,5,6.4S5.7,5,6.4,5h1.4c0.9,0,1.4,0.7,1.4,1.6
						C9.2,7.3,8.7,7.8,7.8,7.8z"/>
				</g>
				<g id="Grupo_327" transform="translate(28)">
					<path id="Trazado_357" class="st0" d="M12.1,7.8h-1.4c-0.7,0-1.4-0.7-1.4-1.4S10,5,10.7,5h1.4c0.9,0,1.4,0.7,1.4,1.6
						C13.5,7.3,12.9,7.8,12.1,7.8z"/>
				</g>
			</g>
		</g>
		<path id="Trazado_358" class="st0" d="M206.2-3.9h-6.1v-2.8c0-3.6-3-6.6-6.6-6.6c-3.6,0-6.6,3-6.6,6.6v2.8h-13.4v-2.8
			c0-3.6-3-6.6-6.6-6.6c-3.6,0-6.6,3-6.6,6.6v2.8H147v-2.8c0-3.6-3-6.6-6.6-6.6c-3.6,0-6.6,3-6.6,6.6v2.8h-6.1c-3,0-5.2,2.3-5.2,5.2
			v69.1c0,3,2.3,5.2,5.2,5.2h78.4c3,0,5.2-2.3,5.2-5.2V1.3C211.4-1.6,209.2-3.9,206.2-3.9z M190.4-6.6c0-1.7,1.4-3.1,3.1-3.1
			c1.7,0,3.1,1.4,3.1,3.1v2.8h-6.2V-6.6z M163.9-6.6c0-1.7,1.4-3.1,3.1-3.1c1.7,0,3.1,1.4,3.1,3.1v2.8h-6.2V-6.6z M137.3-6.6
			c0-1.7,1.4-3.1,3.1-3.1c1.7,0,3.1,1.4,3.1,3.1v2.8h-6.2V-6.6z M208,70.4c0,1-0.7,1.7-1.7,1.7h-78.4c-1,0-1.7-0.7-1.7-1.7V1.3
			c0-1,0.7-1.7,1.7-1.7h6.1v1c0,3.6,3,6.6,6.6,6.6l0,0h0.3c1,0,1.7-0.7,1.7-1.7s-0.7-1.7-1.7-1.7h-0.3c-1.7,0-3.1-1.4-3.1-3.1l0,0
			v-1h23.1v1c0,3.6,3,6.6,6.6,6.6l0,0h0.3c1,0,1.7-0.7,1.7-1.7s-0.7-1.7-1.7-1.7H167c-1.7,0-3.1-1.4-3.1-3.1l0,0v-1H187v1
			c0,3.6,3,6.6,6.6,6.6l0,0h0.3c1,0,1.7-0.7,1.7-1.7s-0.7-1.7-1.7-1.7h-0.3c-1.7,0-3.1-1.4-3.1-3.1l0,0v-1h15.8c1,0,1.7,0.7,1.7,1.7
			V70.4z"/>
		<path id="Trazado_359" class="st0" d="M201.4,13.8h-47.9c-1,0-1.7,0.7-1.7,1.7s0.7,1.7,1.7,1.7h46.2v38.2h-13.7
			c-1,0-1.7,0.7-1.7,1.7s0.7,1.7,1.7,1.7h13.7v4.9h-65.3V17.3h5.2c1,0,1.7-0.7,1.7-1.7s-0.7-1.7-1.7-1.7h-6.9c-1,0-1.7,0.7-1.7,1.7
			v50c0,1,0.7,1.7,1.7,1.7h68.7c1,0,1.7-0.7,1.7-1.7v-50C203.1,14.5,202.4,13.8,201.4,13.8z"/>
		<path id="Trazado_360" class="st0" d="M146.5,17.3c1,0,1.7-0.7,1.7-1.7s-0.7-1.7-1.7-1.7c-1,0-1.7,0.7-1.7,1.7
			c0,0.5,0.2,0.9,0.5,1.2C145.7,17.1,146.2,17.3,146.5,17.3z"/>
	</g>
</g>
</svg>
