<svg xmlns="http://www.w3.org/2000/svg" width="65.531" height="60.767" viewBox="0 0 65.531 60.767">
  <path id="Trazado_148" data-name="Trazado 148" d="M65.036,2.225a1.184,1.184,0,0,0-1.074-.163L42.837,9.1,22.911,4.415a1.036,1.036,0,0,0-.149,0,1.211,1.211,0,0,0-.382,0L.933,9.179A1.192,1.192,0,0,0,0,10.342V61.575a1.193,1.193,0,0,0,1.191,1.191,1.271,1.271,0,0,0,.259-.027l21.217-4.715,20.019,3.533a1.109,1.109,0,0,0,.207.019,1.2,1.2,0,0,0,.419-.079l.012,0,21.447-8.34a1.2,1.2,0,0,0,.76-1.112V3.193A1.191,1.191,0,0,0,65.036,2.225ZM2.383,11.3,21.447,7.06V55.852L2.383,60.089ZM23.83,7.079l17.872,4.2V58.962L23.83,55.81ZM63.148,51.228,44.085,58.642V11.2L63.148,4.845Z" transform="translate(0 -2)" fill="#158a2f"/>
</svg>
