<svg width="39" height="39" viewBox="0 0 39 39" fill="none" xmlns="http://www.w3.org/2000/svg">
<path d="M39 18.9983C39 29.49 30.4286 37.9953 19.8529 37.9953C16.4968 37.9953 13.3442 37.1369 10.5998 35.6337L0 39L3.45528 28.8046C1.71301 25.9432 0.709623 22.5833 0.709623 18.997C0.710894 8.5053 9.27978 0 19.8554 0C30.4298 0.00254345 39 8.50657 39 18.9983ZM19.8516 3.02925C10.9763 3.02925 3.75668 10.1941 3.75668 19.0021C3.75668 22.4968 4.89614 25.7321 6.82281 28.3646L4.81348 34.2946L10.9966 32.3298C13.5401 33.9983 16.5833 34.9699 19.8516 34.9699C28.727 34.9699 35.9491 27.8063 35.9491 18.9983C35.9517 10.1941 28.7283 3.02925 19.8516 3.02925ZM29.5218 23.3743C29.4023 23.1823 29.0894 23.0653 28.6215 22.8313C28.1547 22.5973 25.844 21.4718 25.4154 21.3192C24.983 21.1628 24.6702 21.0839 24.3574 21.5507C24.0483 22.0174 23.1479 23.0653 22.872 23.3781C22.5986 23.6897 22.3251 23.7291 21.8559 23.4989C21.3866 23.2624 19.8733 22.7741 18.0801 21.1882C16.685 19.9521 15.7427 18.4298 15.4705 17.9631C15.1946 17.4977 15.4426 17.2459 15.6753 17.0144C15.8851 16.8046 16.1446 16.4701 16.3798 16.1967C16.6151 15.9258 16.6927 15.7338 16.8491 15.4222C17.003 15.1106 16.9254 14.8398 16.8097 14.6045C16.6927 14.3705 15.7554 12.0814 15.3624 11.1492C14.972 10.2183 14.5816 10.3722 14.3069 10.3722C14.0335 10.3722 13.7206 10.334 13.4078 10.334C13.095 10.334 12.5863 10.4472 12.1577 10.9139C11.7291 11.3807 10.5159 12.5061 10.5159 14.7978C10.5159 17.092 12.1958 19.3035 12.4311 19.6138C12.6677 19.9228 15.6791 24.7796 20.4493 26.6439C25.2221 28.507 25.2221 27.8851 26.0818 27.8063C26.944 27.7274 28.8593 26.6808 29.2484 25.5947C29.6401 24.5036 29.6401 23.5689 29.5218 23.3743Z" fill="white"/>
</svg>
