<svg id="Capa_1" data-name="Capa 1" xmlns="http://www.w3.org/2000/svg" viewBox="0 0 200 200"><defs><style>.cls-1{fill:#acd313;}</style></defs><title>iconos-final</title><path class="cls-1" d="M196.83,170.59h-3.17V42.71a19.79,19.79,0,0,0-19.77-19.77H26.17A19.79,19.79,0,0,0,6.41,42.71V170.59H3.24a3.24,3.24,0,1,0,0,6.47H16.05a3.24,3.24,0,0,0,0-6.47H12.88V53.42H38.07v90.52H36.64a3.24,3.24,0,1,0,0,6.47H84.69a3.24,3.24,0,1,0,0-6.47H83.26V53.42H116.8v90.52h-1.42a3.24,3.24,0,1,0,0,6.47h48.05a3.24,3.24,0,1,0,0-6.47H162V53.42h25.19V170.59H184a3.24,3.24,0,1,0,0,6.47h12.81a3.24,3.24,0,1,0,0-6.47Zm-120-45.68H44.54v-5.63H76.79Zm-32.25,19V131.38H76.79v12.56Zm32.25-31.13H44.54V53.42H76.79Zm78.74,12.1H123.28v-5.63h32.25Zm-32.25,19V131.38h32.25v12.56Zm32.25-31.13H123.28V53.42h32.25ZM162,47V43.78a3.24,3.24,0,1,0-6.47,0V47H123.28V43.78a3.24,3.24,0,1,0-6.48,0V47H83.26V43.78a3.24,3.24,0,1,0-6.47,0V47H44.54V43.78a3.24,3.24,0,1,0-6.47,0V47H12.88V42.71a13.31,13.31,0,0,1,13.29-13.3H173.89a13.32,13.32,0,0,1,13.3,13.3V47Z"/></svg>