<svg id="Capa_1" data-name="Capa 1" xmlns="http://www.w3.org/2000/svg" viewBox="0 0 200 200"><defs><style>.cls-1{fill:#acd313;}</style></defs><title>iconos-final</title><path class="cls-1" d="M167.52,193.53h-3.24V77.43A64,64,0,0,0,154.9,44l5.34-5.34a22.66,22.66,0,0,0,0-32,3.32,3.32,0,0,0-4.56,0L137.26,25.05A63.6,63.6,0,0,0,100,13.15,64.31,64.31,0,0,0,81.12,16L71.77,6.63a22.63,22.63,0,0,0-32,0,3.24,3.24,0,0,0,0,4.57L57.64,29.08A63.91,63.91,0,0,0,35.72,77.43V99.26a18.68,18.68,0,0,0,0,23.7v70.57H32.48a3.23,3.23,0,1,0,0,6.46H45.42a3.23,3.23,0,0,0,0-6.46H42.18V167.48H157.82v26.05h-3.24a3.23,3.23,0,0,0,0,6.46h12.94a3.23,3.23,0,0,0,0-6.46ZM122.89,66.88,100,89.77,88.55,78.32h0L77.11,66.88,88.55,55.43h0L100,44Zm-9.16,18.29,39.44,39.44a16.21,16.21,0,0,1-20.38-2L104.56,94.33ZM72.54,71.44l9.17,9.16L42,120.27l-.53-.52a12.22,12.22,0,0,1,0-17.28ZM42.18,128.05a3.21,3.21,0,0,0,2.14-.93L86.27,85.17l42,42a22.63,22.63,0,0,0,29.6,2.07V140.4H42.18ZM157.82,77.43v42.7L118.29,80.6l31.9-31.89A57.53,57.53,0,0,1,157.82,77.43Zm-.09-63.72a16.21,16.21,0,0,1-2,20.38l-7.18,7.18h0l-21,21-9.17-9.16ZM100,19.61a57.21,57.21,0,0,1,32.62,10.08L113.73,48.58,102.28,37.14h0L86.37,21.23A58.15,58.15,0,0,1,100,19.61ZM55.76,6.45A16.08,16.08,0,0,1,67.21,11.2L95.44,39.42l-9.17,9.16L46.83,9.14A16.05,16.05,0,0,1,55.76,6.45Zm6.47,27.22L81.71,53.15,70.26,64.59h0L42.18,92.68V77.43A57.43,57.43,0,0,1,62.23,33.67ZM42.18,161V146.85H157.82V161Z"/></svg>