<svg id="Capa_1" data-name="Capa 1" xmlns="http://www.w3.org/2000/svg" viewBox="0 0 200 200"><defs><style>.cls-1{fill:#acd313;}</style></defs><title>iconos-final</title><path class="cls-1" d="M3.24,92H14a26.22,26.22,0,0,0,4.86,7.12,18.44,18.44,0,0,0,10.5,5.51v20.16a3.23,3.23,0,1,0,6.45,0V104.58a18.48,18.48,0,0,0,10.51-5.5A26,26,0,0,0,51.17,92h18a16.29,16.29,0,0,0,7.47,3.43v17.38a3.23,3.23,0,1,0,6.45,0V95.38A16.23,16.23,0,0,0,90.57,92h103.5a3.23,3.23,0,0,0,0-6.46H179.46a16.26,16.26,0,0,0-14.7-23.25h-.62a18.1,18.1,0,0,0-25.28,3.38A15.76,15.76,0,0,0,116.17,85.5H95.86a27.85,27.85,0,0,0,3.35-14.34,30.28,30.28,0,0,0-2.5-9.62l-.51-1.36L82.9,24.57a3.23,3.23,0,0,0-6.05,0L63.55,60.18,63,61.55a30.41,30.41,0,0,0-2.49,9.61A27.84,27.84,0,0,0,63.89,85.5H53.39a30.17,30.17,0,0,0,.74-8.07c-.19-4-1.52-7.44-2.8-10.8-.2-.52-.4-1-.59-1.55L35.61,24.57a3.23,3.23,0,0,0-6.05,0L14.44,65.08c-.2.52-.4,1-.59,1.55C12.56,70,11.23,73.46,11,77.43a29.78,29.78,0,0,0,.75,8.07H3.24a3.23,3.23,0,1,0,0,6.46Zm120.47-6.58a9.32,9.32,0,0,1,13.63-12.72,3.23,3.23,0,0,0,5.28-.86A11.66,11.66,0,0,1,161,68a3.23,3.23,0,0,0,2.57.8,8.43,8.43,0,0,1,1.24-.08,9.82,9.82,0,0,1,7.09,16.63s-.08.11-.13.16H123.81ZM67,71.47a25.12,25.12,0,0,1,2.08-7.62c.18-.47.36-.94.53-1.41L79.88,34.92,90.15,62.44l.54,1.41a25.3,25.3,0,0,1,2.07,7.62C93,76.74,91,82.57,87.62,86a10.67,10.67,0,0,1-4.52,2.82V72a3.23,3.23,0,0,0-6.45,0V88.78A10.64,10.64,0,0,1,72.14,86C68.81,82.57,66.74,76.74,67,71.47Zm-49.5,6.27c.14-2.94,1.23-5.78,2.38-8.8.21-.53.41-1.06.61-1.6L32.59,34.92l12.1,32.42c.2.54.4,1.07.61,1.6,1.15,3,2.24,5.86,2.39,8.8.29,6.12-2.11,12.88-6,16.82A12.36,12.36,0,0,1,35.81,98V78.41a3.23,3.23,0,1,0-6.45,0V98a12.41,12.41,0,0,1-5.9-3.46C19.6,90.62,17.19,83.86,17.49,77.74Z"/><path class="cls-1" d="M198.35,163.67c-.59-.33-8.35-4.56-24-8.48l-1.83-18H174a3.23,3.23,0,0,0,0-6.46h-8.85V111.17a3.23,3.23,0,0,0-3.23-3.23H106.36a3.23,3.23,0,0,0-3.23,3.23V130.7H94.29a3.23,3.23,0,0,0,0,6.46h2.25l-1.19,11.73c-39.21,1.76-70.68,9.34-93.72,22.62a3.23,3.23,0,0,0,3.22,5.59C30,162.61,67.6,155,113.57,155c55.1,0,81.37,14.21,81.63,14.35a3.23,3.23,0,0,0,3.15-5.63ZM109.59,114.4h49.12v16.3H109.59Zm-7.73,34.26,1.17-11.5h63l1.68,16.5c-13.4-2.83-31.35-5.17-54.16-5.17C109.59,148.49,105.7,148.55,101.86,148.66Z"/></svg>