<svg id="Capa_1" data-name="Capa 1" xmlns="http://www.w3.org/2000/svg" viewBox="0 0 200 200"><defs><style>.cls-1{fill:#acd313;}</style></defs><title>iconos-final</title><path class="cls-1" d="M196.77,185c-29.06,0-52.23-11.56-68.87-34.35a105.53,105.53,0,0,1-16.48-34.53V49.41l.66.59a3.26,3.26,0,0,0,4.36-4.84L74.73,7.61a3.27,3.27,0,0,0-4.36,0L28.66,45.16A3.26,3.26,0,0,0,33,50l.65-.59v63.81H21.48A21.51,21.51,0,0,0,0,134.7V190a3.26,3.26,0,1,0,6.51,0V134.7a15,15,0,0,1,15-15H33.67V185h-3.6a3.26,3.26,0,1,0,0,6.51H43.78a3.26,3.26,0,1,0,0-6.51h-3.6V119.74h64.73V185h-3.6a3.26,3.26,0,1,0,0,6.51H115a3.26,3.26,0,0,0,0-6.51h-3.61v-49.7a111.94,111.94,0,0,0,11.07,19c12.34,17,35.24,37.22,74.28,37.22a3.26,3.26,0,0,0,0-6.51ZM67.19,113.22,83.42,88.38H95.75L79.53,113.22Zm-20.11,0L63.31,88.38H75.64L59.42,113.22Zm57.83-31.35H40.18V48.49h64.73ZM55.53,88.38,40.18,111.89V88.38Zm48,0h1.38v24.84H87.3Zm-31-74L103.18,42H41.92Z"/></svg>