<svg id="Capa_1" data-name="Capa 1" xmlns="http://www.w3.org/2000/svg" viewBox="0 0 200 200"><defs><style>.cls-1{fill:#acd313;}</style></defs><title>iconos-final</title><path class="cls-1" d="M196.76,173.4H117.87l-1.18-11.6h1.51a3.26,3.26,0,0,0,0-6.51h-9V135.47a3.25,3.25,0,0,0-3.25-3.26H49.6a3.26,3.26,0,0,0-3.25,3.26v19.82h-9a3.26,3.26,0,0,0,0,6.51h2.31l-1.18,11.6H3.26a3.26,3.26,0,1,0,0,6.51h193.5a3.26,3.26,0,1,0,0-6.51ZM52.86,138.72H102.7v16.57H52.86ZM46.21,161.8h63.93l1.18,11.6H45Z"/><path class="cls-1" d="M196.76,185.45H3.26a3.26,3.26,0,1,0,0,6.51h193.5a3.26,3.26,0,1,0,0-6.51Z"/><path class="cls-1" d="M196.76,68H193.6a28.23,28.23,0,0,0,0-3,22.27,22.27,0,0,0-.65-4.32h3.79a3.26,3.26,0,1,0,0-6.51h-6l-.51-1.34L175.41,13a3.25,3.25,0,0,0-6.1,0L158.72,41.34,147.07,10.16a3.25,3.25,0,0,0-6.1,0L127.76,45.53c-.16.45-.34.9-.51,1.35A38,38,0,0,0,125,54.15H54.62l-14.21-38a3.25,3.25,0,0,0-6.1,0l-14.2,38H3.26a3.26,3.26,0,1,0,0,6.51H17.68A26.91,26.91,0,0,0,16.1,68H3.26a3.26,3.26,0,1,0,0,6.51H16.53a28.71,28.71,0,0,0,7.28,14.91,18.24,18.24,0,0,0,10.3,5.43v19.75a3.26,3.26,0,0,0,6.51,0V94.87a18.23,18.23,0,0,0,10.3-5.42A28.71,28.71,0,0,0,58.2,74.54h72.5c.33.39.67.77,1,1.13a16.66,16.66,0,0,0,9,4.89V97.77a3.26,3.26,0,1,0,6.52,0V80.54a15.74,15.74,0,0,0,6.18-2.49,26.24,26.24,0,0,0,5.34,8.27,18.24,18.24,0,0,0,10.3,5.43V111.5a3.26,3.26,0,0,0,6.51,0V91.74a18.23,18.23,0,0,0,10.3-5.42,27.72,27.72,0,0,0,6.56-11.78h4.29a3.26,3.26,0,1,0,0-6.51ZM46.27,84.89a12,12,0,0,1-5.65,3.34V69.07a3.26,3.26,0,1,0-6.51,0V88.23a11.91,11.91,0,0,1-5.66-3.34C24.67,81,22.32,74.41,22.6,68.42c.14-2.88,1.21-5.67,2.34-8.63.21-.52.41-1,.6-1.57L37.36,26.56,49.18,58.22l.6,1.58c1.13,3,2.2,5.74,2.34,8.62C52.41,74.41,50.06,81,46.27,84.89ZM58.62,68A26.55,26.55,0,0,0,57,60.66h67.89a27.86,27.86,0,0,0,1.9,7.37Zm88.66,5.84V57.31a3.26,3.26,0,0,0-6.52,0V73.88a10.56,10.56,0,0,1-4.39-2.77c-3.3-3.36-5.34-9.13-5.09-14.36a25.15,25.15,0,0,1,2.05-7.54l.54-1.4L144,20.6l10.16,27.21c.17.46.35.93.53,1.4s.36,1,.53,1.44l-.81,2.16-.57,1.52c-1.27,3.31-2.58,6.72-2.77,10.65a29.11,29.11,0,0,0,.41,6.3A10.31,10.31,0,0,1,147.28,73.87Zm34,7.89a12.06,12.06,0,0,1-5.66,3.35V65.94a3.26,3.26,0,1,0-6.51,0V85.11a12,12,0,0,1-5.65-3.35c-3.79-3.86-6.14-10.48-5.85-16.47.14-2.88,1.21-5.67,2.34-8.63l.6-1.57,11.82-31.66,11.82,31.66c.19.53.39,1,.59,1.57,1.14,3,2.21,5.75,2.35,8.63C187.4,71.28,185.05,77.9,181.27,81.76Z"/><path class="cls-1" d="M55.55,120a3.26,3.26,0,0,0,3.26,3.26H144a3.26,3.26,0,0,0,0-6.52h-6a19.33,19.33,0,0,0-17.27-28c-.33,0-.67,0-1,0A21.6,21.6,0,0,0,89,93.19a18.7,18.7,0,0,0-27.29,23.59H58.81A3.26,3.26,0,0,0,55.55,120Zm10.89-11.31A12.21,12.21,0,0,1,78.63,96.54a12.06,12.06,0,0,1,8.88,3.84,3.25,3.25,0,0,0,5.33-.86,15.07,15.07,0,0,1,23.71-4.93,3.23,3.23,0,0,0,2.59.8,12.41,12.41,0,0,1,1.63-.1,12.81,12.81,0,0,1,9.42,21.49H69.48A12.14,12.14,0,0,1,66.44,108.73Z"/></svg>