<svg id="Capa_1" data-name="Capa 1" xmlns="http://www.w3.org/2000/svg" viewBox="0 0 200 200"><defs><style>.cls-1{fill:#acd313;}</style></defs><title>iconos-final</title><path class="cls-1" d="M196.73,161.63H3.27a3.27,3.27,0,1,0,0,6.53H196.73a3.27,3.27,0,1,0,0-6.53Z"/><path class="cls-1" d="M196.73,140.5H3.27a3.27,3.27,0,1,0,0,6.53H196.73a3.27,3.27,0,1,0,0-6.53Z"/><path class="cls-1" d="M196.73,53H3.27a3.27,3.27,0,1,0,0,6.53H196.73a3.27,3.27,0,1,0,0-6.53Z"/><path class="cls-1" d="M3.27,38.37H196.73a3.27,3.27,0,1,0,0-6.53H3.27a3.27,3.27,0,1,0,0,6.53Z"/><path class="cls-1" d="M29.28,73.69H96.14a3.27,3.27,0,0,0,0-6.53H29.28a3.27,3.27,0,1,0,0,6.53Z"/><path class="cls-1" d="M29.28,88.42H96.14a3.27,3.27,0,0,0,0-6.53H29.28a3.27,3.27,0,1,0,0,6.53Z"/><path class="cls-1" d="M29.28,103.16H96.14a3.27,3.27,0,0,0,0-6.53H29.28a3.27,3.27,0,1,0,0,6.53Z"/><path class="cls-1" d="M29.28,117.89H96.14a3.27,3.27,0,0,0,0-6.53H29.28a3.27,3.27,0,1,0,0,6.53Z"/><path class="cls-1" d="M29.28,132.63H96.14a3.27,3.27,0,0,0,0-6.53H29.28a3.27,3.27,0,1,0,0,6.53Z"/><path class="cls-1" d="M174.73,92.8a3.26,3.26,0,0,0,3.56-.71l4.63-4.62a3.26,3.26,0,0,0,0-4.62l-4.63-4.63a3.26,3.26,0,0,0-5.57,2.31v1.36H117.35a3.27,3.27,0,1,0,0,6.53h55.37v1.37A3.25,3.25,0,0,0,174.73,92.8Z"/><path class="cls-1" d="M115,116.94l4.63,4.63a3.27,3.27,0,0,0,5.57-2.31v-1.37h55.37a3.27,3.27,0,1,0,0-6.53H125.24V110a3.26,3.26,0,0,0-5.57-2.31L115,112.32A3.26,3.26,0,0,0,115,116.94Z"/></svg>