<svg id="Capa_1" data-name="Capa 1" xmlns="http://www.w3.org/2000/svg" viewBox="0 0 200 200"><defs><style>.cls-1{fill:#acd313;}</style></defs><title>iconos-final</title><path class="cls-1" d="M196.75,175.58l-31.86,0,.07-81.2,24.66,0a3.22,3.22,0,0,0,0-6.43l-24.66,0,0-52a17.85,17.85,0,0,0-17.83-17.85L50.49,18A17.86,17.86,0,0,0,32.64,35.82l0,52-25.77,0a3.22,3.22,0,0,0,0,6.43l25.77,0-.07,81.2-29.3,0a3.22,3.22,0,0,0,0,6.43l32.52,0,125.94.11,35.07,0a3.22,3.22,0,0,0,0-6.43ZM50.49,24.42l96.69.08a11.43,11.43,0,0,1,11.4,11.42v3.33L39.06,39.14V35.82A11.42,11.42,0,0,1,50.49,24.42Zm84.68,151.11-72.93-.07.07-79.05A30.21,30.21,0,0,1,92.5,66.26h12.59a30.2,30.2,0,0,1,30.14,30.2Zm6.43,0,.06-79.06A36.63,36.63,0,0,0,105.1,59.84H92.51A36.65,36.65,0,0,0,55.88,96.4l-.07,79.06-16.86,0,.11-129.87,119.51.11-.11,129.87Z"/></svg>