<svg id="Capa_1" data-name="Capa 1" xmlns="http://www.w3.org/2000/svg" viewBox="0 0 200 200"><defs><style>.cls-1{fill:#acd313;}</style></defs><title>iconos-final</title><path class="cls-1" d="M155.24,88.48V73.18l1.55.46a2.85,2.85,0,0,0,.58.12h.16l.22,0h.2l.2,0,.41-.08.15,0a2.66,2.66,0,0,0,.53-.21l.09-.06a2.49,2.49,0,0,0,.38-.25l.16-.13.27-.26.14-.16c.08-.11.15-.22.22-.33l.1-.16a3.5,3.5,0,0,0,.24-.56,3.24,3.24,0,0,0-2.12-4A177.21,177.21,0,0,0,125,60.72V43a3.22,3.22,0,0,0,.28-6.43A233.15,233.15,0,0,0,100,35.16c-53.86,0-96.08,17.51-96.32,39.9L0,123.05v.12s0,.08,0,.13c0,23.29,43.93,41.54,100,41.54s100-18.25,100-41.54C200,108.55,182.39,95.83,155.24,88.48Zm-6.46-1.61A222,222,0,0,0,100,81.76c-25.56,0-46.93,5.26-65.33,16.08l-.18.13A65.16,65.16,0,0,1,18.9,89.28C25.43,76.19,60.64,65.84,100,65.84c7.27,0,14.5.34,21.5,1a183.82,183.82,0,0,1,27.28,4.55ZM100,41.63c6.27,0,12.49.25,18.57.74V60.12c-6.09-.48-12.31-.74-18.57-.74-36.29,0-75.38,8.67-85.92,25.3-2.57-3.1-3.94-6.28-3.94-9.43C10.14,59,46.24,41.63,100,41.63ZM6.47,123.36,9.11,88.79a33.37,33.37,0,0,0,3.32,3.44,3,3,0,0,0,1,.92c14.51,12.37,43.79,21,78.89,22.07v21.1a3.23,3.23,0,0,0,3.23,3.23c17.71,0,37.06-1.92,51.48-5v19A215.66,215.66,0,0,1,100,158.37C44.12,158.37,6.56,140.28,6.47,123.36Zm147.07,28.55V133l.07,0a3.23,3.23,0,1,0-1.7-6.23c-13.43,3.66-33.95,6.09-53.09,6.34V115.33H100a3.24,3.24,0,0,0,0-6.47c-22.81,0-42.42-3.13-57.47-8C58.88,92.38,77.73,88.22,100,88.22c55.95,0,93.53,18.14,93.53,35.08C193.53,134,178.59,145.12,153.54,151.91Z"/></svg>