<svg id="Capa_1" data-name="Capa 1" xmlns="http://www.w3.org/2000/svg" viewBox="0 0 200 200"><defs><style>.cls-1{fill:#acd313;}</style></defs><title>iconos-final</title><path class="cls-1" d="M196.77,146.52H121.61V95.83h33.33a15.47,15.47,0,0,0,15.45-15.45v-65a3.25,3.25,0,0,0-3.25-3.26H16.87A16.92,16.92,0,0,0,0,29.06V184.58a3.26,3.26,0,0,0,3.26,3.26H118.35a3.26,3.26,0,0,0,3.26-3.26V168.44h75.16a3.25,3.25,0,0,0,3.26-3.25V149.77A3.26,3.26,0,0,0,196.77,146.52ZM121.61,27.62a8.94,8.94,0,1,1,17.88,0V80.38a15.37,15.37,0,0,0,2.87,8.94H121.61ZM146,18.68h17.88v61.7a8.94,8.94,0,0,1-17.88,0ZM115.1,181.32H6.49V29.06A10.38,10.38,0,0,1,16.87,18.68H115.1V146.52h-26a3.39,3.39,0,0,0-1.22.23l-19.19,7.71a3.26,3.26,0,0,0,0,6l19.19,7.71a3.39,3.39,0,0,0,1.22.23h26Zm78.41-19.39H89.76l-11.09-4.45L89.76,153H193.51Z"/><path class="cls-1" d="M21.3,60H102a3.26,3.26,0,0,0,3.26-3.26V33.61A3.26,3.26,0,0,0,102,30.36H21.3a3.25,3.25,0,0,0-3.25,3.25V56.75A3.25,3.25,0,0,0,21.3,60Zm3.26-23.14H98.73V53.5H24.56Z"/><path class="cls-1" d="M21.3,76.57H102a3.26,3.26,0,1,0,0-6.51H21.3a3.26,3.26,0,0,0,0,6.51Z"/><path class="cls-1" d="M21.3,95.83H102a3.26,3.26,0,1,0,0-6.51H21.3a3.26,3.26,0,0,0,0,6.51Z"/><path class="cls-1" d="M21.3,115.09H102a3.26,3.26,0,1,0,0-6.51H21.3a3.26,3.26,0,0,0,0,6.51Z"/><path class="cls-1" d="M105.25,131.09a3.26,3.26,0,0,0-3.26-3.26H21.3a3.26,3.26,0,0,0,0,6.52H102A3.26,3.26,0,0,0,105.25,131.09Z"/></svg>