<svg id="Capa_1" data-name="Capa 1" xmlns="http://www.w3.org/2000/svg" viewBox="0 0 200 200"><defs><style>.cls-1{fill:#acd313;}</style></defs><title>iconos-final</title><path class="cls-1" d="M190.75,85.1a3.06,3.06,0,0,0,.21-.29,2.2,2.2,0,0,0,.15-.26,2.71,2.71,0,0,0,.13-.3c0-.1.07-.2.1-.3s0-.2.07-.3,0-.23,0-.35,0-.14,0-.21,0,0,0-.07a2,2,0,0,0,0-.35,2.54,2.54,0,0,0,0-.29c0-.1-.06-.2-.09-.3s-.06-.2-.1-.3-.1-.17-.15-.26a2.54,2.54,0,0,0-.16-.28L190.7,81l-.24-.27s0,0-.05,0L102.53.84a3.23,3.23,0,0,0-4.34,0L9.6,80.57a3.23,3.23,0,0,0,2.58,5.61,2.58,2.58,0,0,0,.29,0H34.64V193.58H22.71a3.23,3.23,0,0,0,0,6.46H178a3.23,3.23,0,0,0,0-6.46H166.06V86.33h22.17a3.19,3.19,0,0,0,1.28-.27l.16-.08a3.18,3.18,0,0,0,.4-.23l.18-.15a2.89,2.89,0,0,0,.32-.29l.06,0ZM41.1,193.58V177.51H159.6v16.07ZM162.83,79.86a3.23,3.23,0,0,0-3.23,3.23V171H41.1V83a3.23,3.23,0,0,0-3.23-3.24H20.19L100.34,7.59l79.53,72.27Z"/><path class="cls-1" d="M131.05,52.56,103.44,72.71,96.9,60.29a3.23,3.23,0,0,0-5.72,3L99.46,79a3.22,3.22,0,0,0,2.13,1.64,3,3,0,0,0,.73.08,3.23,3.23,0,0,0,1.91-.62l30.63-22.36a3.23,3.23,0,1,0-3.81-5.22Z"/><path class="cls-1" d="M131.05,92l-27.61,20.15L96.9,99.77a3.23,3.23,0,1,0-5.72,3l8.28,15.73a3.2,3.2,0,0,0,2.13,1.65,3.63,3.63,0,0,0,.73.08,3.23,3.23,0,0,0,1.91-.62l30.63-22.36A3.23,3.23,0,1,0,131.05,92Z"/><path class="cls-1" d="M131.05,131.51l-27.61,20.16L96.9,139.25a3.23,3.23,0,1,0-5.72,3L99.46,158a3.22,3.22,0,0,0,2.13,1.64,3,3,0,0,0,.73.09,3.3,3.3,0,0,0,1.91-.62l30.63-22.36a3.24,3.24,0,0,0-3.81-5.23Z"/></svg>