<svg id="Capa_1" data-name="Capa 1" xmlns="http://www.w3.org/2000/svg" viewBox="0 0 200 200"><defs><style>.cls-1{fill:#acd313;}</style></defs><title>iconos-final</title><path class="cls-1" d="M196.76,172.08H174.27V156.26a18.23,18.23,0,0,0,10.3-5.42c5.06-5.15,8.08-13.52,7.71-21.33-.19-3.92-1.5-7.34-2.77-10.64l-.57-1.52L174.06,77.51a3.24,3.24,0,0,0-6.07,0l-5.86,15.71L90,27.64a3.24,3.24,0,0,0-4.35,0L11.31,95.05l-.05.06a1.86,1.86,0,0,0-.23.26,2,2,0,0,0-.19.22c-.06.09-.11.18-.16.27s-.11.18-.15.28a2.47,2.47,0,0,0-.1.29c0,.1-.07.2-.1.31a2.7,2.7,0,0,0,0,.28c0,.12,0,.24,0,.35s0,0,0,.08,0,.14,0,.21,0,.23,0,.35,0,.2.08.3,0,.2.09.3a2.75,2.75,0,0,0,.14.3c.05.09.09.18.14.26a3.15,3.15,0,0,0,.22.29,1.77,1.77,0,0,0,.12.17.12.12,0,0,1,.05.05l.27.24.22.18.28.16a2.34,2.34,0,0,0,.27.15l.29.1c.1,0,.2.07.3.09s.2,0,.3.05.22,0,.34,0H31.72v71.39H3.24a3.24,3.24,0,0,0,0,6.48H196.76a3.24,3.24,0,1,0,0-6.48Zm-92.8-.69H73.09V123.3H104Zm55.34-70.6-6.18,16.56c-.19.5-.38,1-.58,1.52-1.26,3.3-2.57,6.72-2.76,10.64-.37,7.81,2.65,16.18,7.71,21.33a18.21,18.21,0,0,0,10.3,5.41v15.83H143.85V100.79ZM171,87.91l11.84,31.7c.19.53.39,1,.59,1.58,1.14,3,2.21,5.75,2.35,8.63.28,6-2.07,12.62-5.86,16.48a12,12,0,0,1-5.68,3.37v-19.2a3.24,3.24,0,0,0-6.48,0v19.19a12,12,0,0,1-5.68-3.36c-3.79-3.86-6.15-10.49-5.86-16.48.14-2.88,1.21-5.68,2.34-8.63.21-.53.41-1,.6-1.58ZM21.88,94.21l65.9-59.8,65.9,59.88a3.17,3.17,0,0,0-.69-.08H21.88Zm115.49,6.48v70.7H110.44V120.06a3.24,3.24,0,0,0-3.24-3.24H69.85a3.24,3.24,0,0,0-3.24,3.24v51.33H38.2v-70.7Z"/><path class="cls-1" d="M150.56,62a5.67,5.67,0,1,0-5.67-5.67A5.68,5.68,0,0,0,150.56,62Z"/><path class="cls-1" d="M21.32,59.57a5.67,5.67,0,1,0-5.67-5.67A5.67,5.67,0,0,0,21.32,59.57Z"/><path class="cls-1" d="M46.58,32.79a5.68,5.68,0,1,0-5.67-5.67A5.68,5.68,0,0,0,46.58,32.79Z"/></svg>