<svg id="Capa_1" data-name="Capa 1" xmlns="http://www.w3.org/2000/svg" viewBox="0 0 200 200"><defs><style>.cls-1{fill:#acd313;}</style></defs><title>iconos-final</title><path class="cls-1" d="M196.82,184h-26V126.86a21.43,21.43,0,0,0-21.41-21.41h-7.45L151.11,92l6.2,3.79.73.45A56.48,56.48,0,0,0,164.9,100a13.32,13.32,0,0,0,5.42,1.14A13.57,13.57,0,0,0,177.73,99,13.71,13.71,0,0,0,184,87.46V64.1a7.52,7.52,0,0,0-7.51-7.51h-58.4a7,7,0,0,0-3.66,13L145.6,88.65l-11.49,16.8H99.28a58.44,58.44,0,0,0-27.83,7,3.58,3.58,0,0,0-.25-.42,73.41,73.41,0,0,1-14.14-43.5,74.67,74.67,0,0,1,.73-10.37l3.86,1.89a3.27,3.27,0,0,0,1.42.32A3.21,3.21,0,0,0,66,58.58l10.3-21a3.21,3.21,0,0,0-1.47-4.31L27.09,9.87a3.23,3.23,0,0,0-4.31,1.48l-4.37,8.93a16.72,16.72,0,0,0,7.64,22.34l10.52,5.15a97,97,0,0,0-2.25,20.77,96,96,0,0,0,18.79,57.28,3.14,3.14,0,0,0,1,.85,58.54,58.54,0,0,0-13.62,37.59V184H3.22a3.23,3.23,0,0,0,0,6.45h193.6a3.23,3.23,0,1,0,0-6.45ZM117.51,63.44a.49.49,0,0,1,.54-.4h58.4a1.06,1.06,0,0,1,1.07,1.06V87.46a7.28,7.28,0,0,1-3.32,6.11,7,7,0,0,1-6.71.57,52.24,52.24,0,0,1-6.07-3.37L117.76,64.06A.49.49,0,0,1,117.51,63.44ZM24.2,23.12l2.95-6L69.06,37.61,61.59,52.85l-32.7-16A10.26,10.26,0,0,1,24.2,23.12ZM40.77,68.54A90.93,90.93,0,0,1,42.54,50.7l9.2,4.5a81.42,81.42,0,0,0-1.13,13.34A79.83,79.83,0,0,0,66,115.82a58.81,58.81,0,0,0-7.63,6.26L58.3,122A89.49,89.49,0,0,1,40.77,68.54ZM46.91,184V164.26A52.42,52.42,0,0,1,99.28,111.9h50.09a15,15,0,0,1,15,15V184Z"/><path class="cls-1" d="M117,117.78A24.81,24.81,0,0,0,98,158.46l-6.18,6.69H76a3.23,3.23,0,0,0,0,6.45H93.19a3.21,3.21,0,0,0,2.36-1l7.15-7.72A24.81,24.81,0,1,0,117,117.78ZM117,161a18.23,18.23,0,0,1-9.9-2.92l12.27-13.26a3.23,3.23,0,0,0-4.74-4.38L102.4,153.66A18.35,18.35,0,1,1,117,161Z"/></svg>