<svg id="Capa_1" data-name="Capa 1" xmlns="http://www.w3.org/2000/svg" viewBox="0 0 200 200"><defs><style>.cls-1{fill:#acd313;}</style></defs><title>iconos-final</title><path class="cls-1" d="M196.75,46h-22.9a3.25,3.25,0,0,0-3.25,3.24v9.14H133.14V44.57a3.25,3.25,0,0,0-3.25-3.24H109.44V32h9.89a10.28,10.28,0,0,0,10.26-10.27V21.4a10.28,10.28,0,0,0-10.26-10.27H78.57A10.28,10.28,0,0,0,68.31,21.4v.33A10.28,10.28,0,0,0,78.57,32h9.89v9.33H68a3.25,3.25,0,0,0-3.25,3.24V58.42h-27C17,58.42,0,74.17,0,93.53V126a3.24,3.24,0,0,0,3.25,3.24H42.94A3.25,3.25,0,0,0,46.19,126V102.67c0-.61.68-1.13,1.49-1.13H64.89a32,32,0,0,0,31.87,29.27h4.38a32.06,32.06,0,0,0,31.3-25.33H170.6v4.19a3.26,3.26,0,0,0,3.25,3.25h22.9a3.25,3.25,0,0,0,3.25-3.25V49.28A3.24,3.24,0,0,0,196.75,46ZM193.51,82.3,177.1,90.93V74.64L193.51,66Zm-16.41,16,16.41-8.63v16.79H177.1Zm0-45.73h16.41v6.14L177.1,67.3V52.53ZM74.8,21.73V21.4a3.77,3.77,0,0,1,3.77-3.77h40.76a3.77,3.77,0,0,1,3.77,3.77v.33a3.77,3.77,0,0,1-3.77,3.77H78.57A3.77,3.77,0,0,1,74.8,21.73ZM95,32h8v9.33H95ZM39.69,102.67v20H6.49V93.53c0-15.78,14-28.62,31.29-28.62h27V95.05H47.68A7.83,7.83,0,0,0,39.69,102.67Zm61.45,21.65H96.76a25.53,25.53,0,0,1-25.5-25.5v-51h55.38v51A25.52,25.52,0,0,1,101.14,124.32Zm32-25.34V64.91H170.6V99Z"/><path class="cls-1" d="M24.83,137.69h0a3.23,3.23,0,0,0-2.71,1.45C8.68,159.34,8.62,172.45,8.65,173.73c0,8.35,7.28,15.14,16.19,15.14S41,182.07,41,173.72c0-1.22-.06-14.33-13.48-34.58A3.23,3.23,0,0,0,24.83,137.69Zm9.7,35.88v.11c0,4.79-4.35,8.69-9.69,8.69s-9.7-3.9-9.7-8.69v-.13c0-.11-.27-10,9.66-26.59C34.62,163.36,34.53,173.48,34.53,173.57Z"/></svg>