<svg id="Capa_1" data-name="Capa 1" xmlns="http://www.w3.org/2000/svg" viewBox="0 0 200 200"><defs><style>.cls-1{fill:#acd313;}</style></defs><title>iconos-final</title><path class="cls-1" d="M196.8,175.48H182.06A27.17,27.17,0,0,0,158.39,135c-.67,0-1.34,0-2,.07a30.53,30.53,0,0,0-44.85,7.16,26.24,26.24,0,0,0-39,33.28H46.71V145A27.4,27.4,0,0,0,64,136.59c7.8-8,12.46-20.9,11.88-33-.29-6-2.35-11.38-4.34-16.58l-.94-2.47-24-64.4a3.23,3.23,0,0,0-6.06,0L16.4,84.55c-.31.83-.62,1.65-.94,2.48-2,5.19-4.05,10.56-4.34,16.57-.58,12.09,4.09,25,11.89,33A27.39,27.39,0,0,0,40.24,145v30.47h-37a3.24,3.24,0,1,0,0,6.47H196.8a3.24,3.24,0,1,0,0-6.47ZM27.63,132.05c-6.5-6.61-10.53-17.92-10-28.14.24-5,2-9.63,3.91-14.57.33-.84.65-1.68,1-2.53l21-56.28,21,56.28c.31.84.64,1.69,1,2.53,1.89,4.93,3.68,9.59,3.92,14.57.49,10.22-3.55,21.53-10,28.14a20.8,20.8,0,0,1-12.62,6.44V105.06a3.24,3.24,0,1,0-6.47,0v33.43A20.88,20.88,0,0,1,27.63,132.05Zm48.25,31a19.79,19.79,0,0,1,19.76-19.77,19.58,19.58,0,0,1,14.41,6.23,3.24,3.24,0,0,0,5.29-.86,24.07,24.07,0,0,1,37.85-7.87,3.23,3.23,0,0,0,2.57.8,20.68,20.68,0,0,1,18.43,33.87H80.27A19.72,19.72,0,0,1,75.88,163.08Z"/><path class="cls-1" d="M111.23,109.55a5.83,5.83,0,1,0-5.83-5.83A5.84,5.84,0,0,0,111.23,109.55Z"/><path class="cls-1" d="M147.48,109.37a5.83,5.83,0,1,0-5.83-5.83A5.84,5.84,0,0,0,147.48,109.37Z"/><path class="cls-1" d="M128,77.2a5.83,5.83,0,1,0-5.82-5.82A5.83,5.83,0,0,0,128,77.2Z"/></svg>