<svg id="Capa_1" data-name="Capa 1" xmlns="http://www.w3.org/2000/svg" viewBox="0 0 200 200"><defs><style>.cls-1{fill:#acd313;}</style></defs><title>iconos-final</title><path class="cls-1" d="M107.79,126.46l-7.74-.24L103.61,115a3.18,3.18,0,1,0-6.07-1.93L92.7,128.31a3.18,3.18,0,0,0,2.93,4.15l7.52.23L98.9,144a3.19,3.19,0,0,0,1.86,4.1,3.2,3.2,0,0,0,4.1-1.86l5.82-15.47a3.19,3.19,0,0,0-2.89-4.3Z"/><path class="cls-1" d="M195.21,117.72a3.18,3.18,0,0,0,0-6.36H132a15.76,15.76,0,0,0-15.57-13.55H83.72a15.76,15.76,0,0,0-15.57,13.54H4.67a3.18,3.18,0,0,0,0,6.36H67.75v8.68h-55a3.19,3.19,0,0,0,0,6.37h55v8.68H4.67a3.19,3.19,0,0,0,0,6.37H68.15a15.76,15.76,0,0,0,15.57,13.54h32.67A15.76,15.76,0,0,0,132,147.82h63.25a3.19,3.19,0,0,0,0-6.37H132.13v-8.68h55a3.19,3.19,0,0,0,0-6.37h-55v-8.68Zm-69.45,27.9a9.38,9.38,0,0,1-9.37,9.37H83.72a9.38,9.38,0,0,1-9.37-9.37V113.55a9.38,9.38,0,0,1,9.37-9.37h32.67a9.38,9.38,0,0,1,9.37,9.37v32.07Z"/><path class="cls-1" d="M196.93,55.5H156.38V41.83a3.19,3.19,0,1,0-6.37,0V55.5H103.24V41.83a3.19,3.19,0,1,0-6.37,0V55.5H50.1V41.83a3.19,3.19,0,1,0-6.37,0V55.5H3.18a3.19,3.19,0,0,0,0,6.37H43.73V76.26l-5.85-5.85a3.19,3.19,0,1,0-4.5,4.51L44.67,86.2a3.19,3.19,0,0,0,4.5,0L60.45,74.92A3.19,3.19,0,1,0,56,70.41L50.1,76.26V61.87H96.87V76.26L91,70.41a3.19,3.19,0,1,0-4.5,4.51L97.8,86.2a3.2,3.2,0,0,0,4.51,0l11.28-11.28a3.19,3.19,0,1,0-4.5-4.51l-5.85,5.85V61.87H150V76.26l-5.85-5.85a3.19,3.19,0,1,0-4.5,4.51L150.94,86.2a3.2,3.2,0,0,0,4.51,0l11.28-11.28a3.19,3.19,0,1,0-4.5-4.51l-5.85,5.85V61.87h40.55a3.19,3.19,0,0,0,0-6.37Z"/></svg>