<svg id="Capa_1" data-name="Capa 1" xmlns="http://www.w3.org/2000/svg" viewBox="0 0 200 200"><defs><style>.cls-1{fill:#acd313;}</style></defs><title>iconos-final</title><path class="cls-1" d="M182.1,97.45h-7.27V12.38A12.39,12.39,0,0,0,162.45,0H37.55A12.39,12.39,0,0,0,25.17,12.38V97.45H17.9a3.27,3.27,0,1,0,0,6.53h7.27V187.6A12.39,12.39,0,0,0,37.55,200h124.9a12.39,12.39,0,0,0,12.38-12.38V104h7.27a3.27,3.27,0,1,0,0-6.53ZM147.62,6.53V29H57.35V6.53ZM31.7,12.38a5.86,5.86,0,0,1,5.85-5.85H50.81V32.28a3.27,3.27,0,0,0,3.27,3.26h96.81a3.27,3.27,0,0,0,3.27-3.26V6.53h8.29a5.86,5.86,0,0,1,5.85,5.85V97.45H121.83a22.07,22.07,0,0,0-43.66,0H31.7ZM84.81,97.45a15.53,15.53,0,0,1,30.38,0ZM115.19,104a15.54,15.54,0,0,1-30.38,0ZM57.35,193.45V171h90.27v22.48Zm111-5.85a5.85,5.85,0,0,1-5.85,5.85h-8.29V167.71a3.27,3.27,0,0,0-3.27-3.27H54.08a3.27,3.27,0,0,0-3.27,3.27v25.74H37.55a5.86,5.86,0,0,1-5.85-5.85V104H78.17a22.07,22.07,0,0,0,43.66,0H168.3Z"/></svg>