<svg id="Capa_1" data-name="Capa 1" xmlns="http://www.w3.org/2000/svg" viewBox="0 0 200 200"><defs><style>.cls-1{fill:#acd313;}</style></defs><title>iconos-final</title><path class="cls-1" d="M196.79,162.7h-8.27V91.48c0-33.43-27.43-60.64-61.13-60.64a3.23,3.23,0,0,0-3.23,3.23v5.15H74.24V34.07A3.23,3.23,0,0,0,71,30.84C37.3,30.84,9.88,58.05,9.88,91.48V162.7H3.23a3.23,3.23,0,0,0,0,6.46H196.79a3.23,3.23,0,1,0,0-6.46ZM130.62,37.4c28.65,1.66,51.44,25.28,51.44,54.08V162.7h-39.3V110.14a16.61,16.61,0,0,0-12.14-16Zm-25.94,114a3.23,3.23,0,0,0-3.23,3.23v8H63.73V110.14A10.15,10.15,0,0,1,73.87,100h52.28a10.16,10.16,0,0,1,10.15,10.14V162.7H107.91v-8A3.22,3.22,0,0,0,104.68,151.43ZM124.16,45.68V93.54H102.43V88A3.23,3.23,0,0,0,96,88v5.59H87.73v-12a3.23,3.23,0,0,0-6.46,0v12h-7V45.68ZM16.34,91.48c0-28.8,22.79-52.42,51.44-54.08V94.71a16.62,16.62,0,0,0-10.51,15.43V162.7H16.34Z"/><path class="cls-1" d="M74.47,109.54a3.23,3.23,0,0,0-3.23,3.23v14.42a3.23,3.23,0,1,0,6.46,0V112.77A3.23,3.23,0,0,0,74.47,109.54Z"/><path class="cls-1" d="M74.47,138.25a3.23,3.23,0,0,0-3.23,3.23v4.2a3.23,3.23,0,0,0,6.46,0v-4.2A3.23,3.23,0,0,0,74.47,138.25Z"/><path class="cls-1" d="M89.58,105.52a3.22,3.22,0,0,0-3.23,3.23v9.31a3.23,3.23,0,1,0,6.46,0v-9.31A3.23,3.23,0,0,0,89.58,105.52Z"/><path class="cls-1" d="M89.58,124a3.23,3.23,0,0,0-3.23,3.23v16.73a3.23,3.23,0,0,0,6.46,0V127.19A3.23,3.23,0,0,0,89.58,124Z"/><path class="cls-1" d="M89.58,150.29a3.23,3.23,0,0,0-3.23,3.23v4a3.23,3.23,0,0,0,6.46,0v-4A3.23,3.23,0,0,0,89.58,150.29Z"/><path class="cls-1" d="M104.68,121.29a3.23,3.23,0,0,0,3.23-3.23v-9.31a3.23,3.23,0,1,0-6.46,0v9.31A3.23,3.23,0,0,0,104.68,121.29Z"/><path class="cls-1" d="M107.91,129.74a3.23,3.23,0,1,0-6.46,0v10.68a3.23,3.23,0,0,0,6.46,0Z"/><path class="cls-1" d="M119.79,121.29a3.23,3.23,0,0,0,3.23-3.23v-9.31a3.23,3.23,0,1,0-6.46,0v9.31A3.23,3.23,0,0,0,119.79,121.29Z"/><path class="cls-1" d="M119.79,154.33A3.23,3.23,0,0,0,123,151.1V129.74a3.23,3.23,0,1,0-6.46,0V151.1A3.23,3.23,0,0,0,119.79,154.33Z"/><path class="cls-1" d="M84.5,70.31a3.23,3.23,0,0,0,3.23-3.23V55.75a3.23,3.23,0,0,0-6.46,0V67.08A3.22,3.22,0,0,0,84.5,70.31Z"/><path class="cls-1" d="M99.2,77.7a3.23,3.23,0,0,0,3.23-3.23V63.14a3.23,3.23,0,0,0-6.46,0V74.47A3.23,3.23,0,0,0,99.2,77.7Z"/><path class="cls-1" d="M112.66,72.74a3.23,3.23,0,0,0,3.23-3.23V53.33a3.23,3.23,0,0,0-6.46,0V69.51A3.23,3.23,0,0,0,112.66,72.74Z"/><path class="cls-1" d="M112.66,89.83a3.23,3.23,0,0,0,3.23-3.23V79.3a3.23,3.23,0,1,0-6.46,0v7.3A3.23,3.23,0,0,0,112.66,89.83Z"/></svg>