<svg id="Capa_1" data-name="Capa 1" xmlns="http://www.w3.org/2000/svg" viewBox="0 0 200 200"><defs><style>.cls-1{fill:#acd313;}</style></defs><title>iconos-final</title><path class="cls-1" d="M196.68,34.48H3.25A3.25,3.25,0,0,0,0,37.73V162.27a3.25,3.25,0,0,0,3.25,3.25H196.68a3.24,3.24,0,0,0,3.25-3.25V37.73A3.24,3.24,0,0,0,196.68,34.48ZM6.5,159V41H193.43V159Z"/><path class="cls-1" d="M180,49H19.57a3.24,3.24,0,0,0-3.25,3.25v15a3.25,3.25,0,0,0,6.5,0V55.53H176.7V67.31a3.25,3.25,0,0,0,6.5,0v-15A3.24,3.24,0,0,0,180,49Z"/><path class="cls-1" d="M180,129.44a3.26,3.26,0,0,0-3.25,3.25v11.79H22.82V132.69a3.25,3.25,0,0,0-6.5,0v15A3.25,3.25,0,0,0,19.57,151H180a3.26,3.26,0,0,0,2.3-1,3.23,3.23,0,0,0,.95-2.29v-15A3.25,3.25,0,0,0,180,129.44Z"/><path class="cls-1" d="M34.23,64.45a3.26,3.26,0,0,0-4.41,1.3L20.05,83.61a3.25,3.25,0,0,0,5.71,3.12l9.76-17.86A3.26,3.26,0,0,0,34.23,64.45Z"/><path class="cls-1" d="M53.2,64.45a3.26,3.26,0,0,0-4.41,1.3L21.93,114.86A3.25,3.25,0,0,0,27.64,118L54.5,68.87A3.26,3.26,0,0,0,53.2,64.45Z"/><path class="cls-1" d="M72.18,64.45a3.27,3.27,0,0,0-4.42,1.3L32.68,129.9A3.25,3.25,0,0,0,38.39,133L73.47,68.87A3.27,3.27,0,0,0,72.18,64.45Z"/><path class="cls-1" d="M91.15,64.45a3.26,3.26,0,0,0-4.41,1.3L51.65,129.9A3.25,3.25,0,0,0,57.36,133L92.44,68.87A3.27,3.27,0,0,0,91.15,64.45Z"/><path class="cls-1" d="M110.12,64.45a3.26,3.26,0,0,0-4.41,1.3L70.63,129.9a3.25,3.25,0,1,0,5.7,3.12l35.08-64.15A3.27,3.27,0,0,0,110.12,64.45Z"/><path class="cls-1" d="M129.09,64.45a3.26,3.26,0,0,0-4.41,1.3L89.6,129.9A3.25,3.25,0,1,0,95.3,133l35.08-64.15A3.25,3.25,0,0,0,129.09,64.45Z"/><path class="cls-1" d="M148.07,64.45a3.27,3.27,0,0,0-4.42,1.3L108.57,129.9a3.25,3.25,0,1,0,5.7,3.12l35.09-64.15A3.27,3.27,0,0,0,148.07,64.45Z"/><path class="cls-1" d="M167,64.45a3.26,3.26,0,0,0-4.41,1.3L127.54,129.9a3.25,3.25,0,0,0,5.71,3.12l35.08-64.15A3.27,3.27,0,0,0,167,64.45Z"/><path class="cls-1" d="M176.83,81.25a3.27,3.27,0,0,0-4.42,1.29L146.52,129.9a3.25,3.25,0,1,0,5.7,3.12l25.9-47.36A3.25,3.25,0,0,0,176.83,81.25Z"/><path class="cls-1" d="M173.63,115l-8.14,14.88a3.25,3.25,0,1,0,5.7,3.12l8.14-14.88a3.25,3.25,0,1,0-5.7-3.12Z"/></svg>