<?xml version="1.0" standalone="no"?>
<!DOCTYPE svg PUBLIC "-//W3C//DTD SVG 1.0//EN" "http://www.w3.org/TR/2001/REC-SVG-20010904/DTD/svg10.dtd">
<svg xmlns="http://www.w3.org/2000/svg" xmlns:xlink="http://www.w3.org/1999/xlink" id="body_1" width="200" height="200">

<g transform="matrix(1.219512 0 0 1.219512 0 0)">
    <path transform="matrix(1 0 0 1 0 0)"  d="M160.718 40.3399L160.71 40.3399C 162.724 37.6628 163.92 34.3363 163.92 30.7352C 163.92 21.9085 156.739 14.7271 147.912 14.7271C 139.085 14.7271 131.904 21.9082 131.904 30.7352C 131.904 34.3363 133.1 37.6628 135.114 40.3399L135.114 40.3399L135.106 40.3399C 133.338 40.3399 131.904 41.7733 131.904 43.5415L131.904 43.5415L131.904 54.9215C 128.277 52.6058 124.499 50.5488 120.592 48.7613L120.592 48.7613L120.592 43.5415C 120.592 41.7733 119.158 40.3399 117.39 40.3399C 115.622 40.3399 114.188 41.7733 114.188 43.5415L114.188 43.5415L114.188 46.1146C 113.11 45.7154 112.023 45.334 110.927 44.9742C 108.273 44.1024 105.586 43.3568 102.877 42.7296L102.877 42.7296L102.877 36.0597C 102.877 34.2915 101.443 32.8582 99.6751 32.8582C 97.9069 32.8582 96.4735 34.2915 96.4735 36.0597L96.4735 36.0597L96.4735 41.4806C 92.7341 40.8887 88.9581 40.5285 85.1617 40.3982L85.1617 40.3982L85.1617 30.7352C 85.1617 28.967 83.7281 27.5336 81.9602 27.5336C 80.1919 27.5336 78.7586 28.967 78.7586 30.7352L78.7586 30.7352L78.7586 40.3985C 74.9619 40.5288 71.1859 40.889 67.4465 41.481L67.4465 41.481L67.4465 36.0601C 67.4465 34.2918 66.0128 32.8585 64.2449 32.8585C 62.4767 32.8585 61.0434 34.2918 61.0434 36.0601L61.0434 36.0601L61.0434 42.7299C 58.3342 43.3571 55.6481 44.1024 52.994 44.9739C 51.8977 45.3337 50.8108 45.7154 49.7312 46.1146L49.7312 46.1146L49.7312 43.5415C 49.7312 41.7733 48.2979 40.3399 46.5297 40.3399C 44.7615 40.3399 43.3281 41.7733 43.3281 43.5415L43.3281 43.5415L43.3281 48.7613C 39.4206 50.5488 35.6431 52.6055 32.0157 54.9211L32.0157 54.9211L32.0157 43.5415C 32.0157 41.7733 30.5823 40.3399 28.8141 40.3399L28.8141 40.3399L28.8055 40.3399C 30.8202 37.6628 32.0157 34.3363 32.0157 30.7352C 32.0157 21.9085 24.8346 14.7274 16.0078 14.7274C 7.18112 14.7274 0 21.9085 0 30.7352C 0 34.3363 1.19547 37.6628 3.21021 40.3399L3.21021 40.3399L3.20157 40.3399C 1.43334 40.3399 0 41.7733 0 43.5415L0 43.5415L0 145.991C 0 147.76 1.43334 149.193 3.20157 149.193L3.20157 149.193L16.0078 149.193L28.8141 149.193L38.7495 149.193C 40.5175 149.193 41.9511 147.76 41.9511 145.991C 41.9511 144.223 40.5175 142.79 38.7495 142.79L38.7495 142.79L32.0157 142.79L32.0157 136.386L131.904 136.386L131.904 142.79L125.17 142.79C 123.402 142.79 121.969 144.223 121.969 145.991C 121.969 147.76 123.402 149.193 125.17 149.193L125.17 149.193L135.106 149.193L147.912 149.193L160.718 149.193C 162.486 149.193 163.92 147.76 163.92 145.991L163.92 145.991L163.92 43.5415C 163.92 41.7729 162.486 40.3399 160.718 40.3399zM25.6125 142.789L16.0078 142.789L6.40314 142.789L6.40314 46.7431L12.8063 46.7431L12.8063 60.157C 12.8063 61.9252 14.2396 63.3586 16.0078 63.3586C 17.7761 63.3586 19.2094 61.9252 19.2094 60.157L19.2094 60.157L19.2094 46.7431L25.6125 46.7431L25.6125 142.789zM16.0078 40.3399C 10.7115 40.3399 6.40314 36.0312 6.40314 30.7352C 6.40314 25.4392 10.7115 21.1305 16.0078 21.1305C 21.3042 21.1305 25.6125 25.4392 25.6125 30.7352C 25.6125 36.0312 21.3042 40.3399 16.0078 40.3399zM43.3281 129.983L32.0157 129.983L32.0157 62.6318C 35.6392 60.0641 39.4196 57.799 43.3281 55.8387L43.3281 55.8387L43.3281 129.983zM61.0434 129.984L49.7312 129.984L49.7312 52.9487C 53.4131 51.4663 57.1903 50.2437 61.0434 49.287L61.0434 49.287L61.0434 129.984zM78.7586 129.984L67.4465 129.984L67.4465 47.9552C 71.1648 47.3283 74.941 46.9409 78.7586 46.8029L78.7586 46.8029L78.7586 129.984zM96.4735 129.983L85.1617 129.983L85.1617 46.8029C 88.9793 46.9409 92.7549 47.3283 96.4735 47.9552L96.4735 47.9552L96.4735 129.983zM114.188 129.983L102.877 129.983L102.877 49.2873C 106.73 50.244 110.507 51.4667 114.188 52.9493L114.188 52.9493L114.188 129.983zM131.904 129.983L120.592 129.983L120.592 55.839C 124.5 57.7994 128.281 60.0651 131.904 62.6328L131.904 62.6328L131.904 129.983zM157.517 142.789L147.912 142.789L138.307 142.789L138.307 46.7431L144.711 46.7431L144.711 60.157C 144.711 61.9252 146.144 63.3586 147.912 63.3586C 149.68 63.3586 151.114 61.9252 151.114 60.157L151.114 60.157L151.114 46.7431L157.517 46.7431L157.517 142.789zM147.912 40.3399C 142.616 40.3399 138.307 36.0312 138.307 30.7352C 138.307 25.4389 142.616 21.1302 147.912 21.1302C 153.208 21.1302 157.517 25.4389 157.517 30.7352C 157.517 36.0309 153.208 40.3399 147.912 40.3399z" stroke="none" fill="#ACD313" fill-rule="nonzero" />
    <path transform="matrix(1 0 0 1 0 0)"  d="M48.0235 142.79L47.9479 142.79C 46.1797 142.79 44.7463 144.223 44.7463 145.991C 44.7463 147.759 46.1797 149.193 47.9479 149.193L47.9479 149.193L48.0235 149.193C 49.7917 149.193 51.225 147.759 51.225 145.991C 51.225 144.223 49.7917 142.79 48.0235 142.79z" stroke="none" fill="#ACD313" fill-rule="nonzero" />
    <path transform="matrix(1 0 0 1 0 0)"  d="M115.972 142.79L115.896 142.79C 114.128 142.79 112.694 144.223 112.694 145.991C 112.694 147.759 114.128 149.193 115.896 149.193L115.896 149.193L115.972 149.193C 117.74 149.193 119.173 147.759 119.173 145.991C 119.173 144.223 117.74 142.79 115.972 142.79z" stroke="none" fill="#ACD313" fill-rule="nonzero" />
    <path transform="matrix(1 0 0 1 0 0)"  d="M16.0078 66.1543C 14.2396 66.1543 12.8063 67.5876 12.8063 69.3559L12.8063 69.3559L12.8063 69.4311C 12.8063 71.1993 14.2396 72.6327 16.0078 72.6327C 17.7761 72.6327 19.2094 71.1993 19.2094 69.4311L19.2094 69.4311L19.2094 69.3559C 19.2094 67.5876 17.7761 66.1543 16.0078 66.1543z" stroke="none" fill="#ACD313" fill-rule="nonzero" />
    <path transform="matrix(1 0 0 1 0 0)"  d="M147.912 66.1543C 146.144 66.1543 144.711 67.5876 144.711 69.3559L144.711 69.3559L144.711 69.4311C 144.711 71.1993 146.144 72.6327 147.912 72.6327C 149.68 72.6327 151.114 71.1993 151.114 69.4311L151.114 69.4311L151.114 69.3559C 151.114 67.5876 149.68 66.1543 147.912 66.1543z" stroke="none" fill="#ACD313" fill-rule="nonzero" />
</g>
</svg>