<?xml version="1.0" encoding="utf-8"?>
<!-- Generator: Adobe Illustrator 23.0.4, SVG Export Plug-In . SVG Version: 6.00 Build 0)  -->
<svg version="1.1" id="Capa_1" xmlns="http://www.w3.org/2000/svg" xmlns:xlink="http://www.w3.org/1999/xlink" x="0px" y="0px"
	 viewBox="0 0 150 150" style="enable-background:new 0 0 150 150;" xml:space="preserve">
<style type="text/css">
	.st0{fill:#BED837;}
</style>
<g>
	<g>
		<g>
			<path class="st0" d="M44.4,129.6c-0.9-5.4-5.6-9.5-11.3-9.5c-4.5,0-8.4,2.6-10.3,6.4c-0.4-0.3-0.8-0.5-1.2-0.7V88.2
				c0-1.3-1-2.3-2.3-2.3c-1.3,0-2.3,1-2.3,2.3v36.5c-5,0-9.1,4.1-9.1,9.1c0,5,4.1,9.1,9.1,9.1h25.1c3.8,0,6.9-3.1,6.9-6.9
				C49.1,133.1,47.1,130.5,44.4,129.6z M42.2,138.4H17.1c-2.5,0-4.6-2-4.6-4.6c0-2.5,2-4.6,4.6-4.6c2.1,0,4,1.2,4.7,3.1
				c0.4,1,1.5,1.6,2.5,1.4c1.1-0.2,1.9-1.1,1.9-2.2c0-3.8,3.1-6.8,6.9-6.8c3.8,0,6.8,3.1,6.8,6.8c0,1.3,1,2.3,2.3,2.3
				c1.3,0,2.3,1,2.3,2.3S43.5,138.4,42.2,138.4z"/>
			<path class="st0" d="M142.7,24.3H99.3c-1.3,0-2.3,1-2.3,2.3c0,1.3,1,2.3,2.3,2.3h41.1v49.3L78.1,15.8c-0.4-0.4-1-0.7-1.6-0.7
				c-0.6,0-1.2,0.2-1.6,0.7L12.6,78.1V28.8h25.1c1.3,0,2.3-1,2.3-2.3v-9.1c0-1.3-1-2.3-2.3-2.3h-2.3v-4.6h13.7v4.6h-2.3
				c-1.3,0-2.3,1-2.3,2.3v9.1c0,1.3,1,2.3,2.3,2.3h6.9c1.3,0,2.3-1,2.3-2.3c0-1.3-1-2.3-2.3-2.3h-4.6v-4.6h2.3c1.3,0,2.3-1,2.3-2.3
				V8.3c0-1.3-1-2.3-2.3-2.3H33.1c-1.3,0-2.3,1-2.3,2.3v9.1c0,1.3,1,2.3,2.3,2.3h2.3v4.6H10.3c-0.6,0-1.2,0.2-1.6,0.7
				c-0.4,0.4-0.7,1-0.7,1.6l0,57.1c0,0.9,0.6,1.8,1.4,2.1c0.3,0.1,0.6,0.2,0.9,0.2c0.6,0,1.2-0.2,1.6-0.7l64.6-64.6l64.6,64.6
				c0.4,0.4,1,0.7,1.6,0.7c0.3,0,0.6-0.1,0.9-0.2c0.9-0.4,1.4-1.2,1.4-2.1V26.6C145,25.3,144,24.3,142.7,24.3z"/>
			<path class="st0" d="M135.9,124.7V88.2c0-1.3-1-2.3-2.3-2.3c-1.3,0-2.3,1-2.3,2.3v37.7c-0.4,0.2-0.8,0.4-1.2,0.7
				c-1.9-3.8-5.8-6.4-10.3-6.4c-5.6,0-10.3,4.1-11.3,9.5c-2.7,0.9-4.7,3.5-4.7,6.5c0,0.8,0.2,1.6,0.4,2.3H65.1c-1.3,0-2.3,1-2.3,2.3
				c0,1.3,1,2.3,2.3,2.3h45.7h9.1h16c5,0,9.1-4.1,9.1-9.1S140.9,124.7,135.9,124.7z M135.9,138.4h-16h-9.1c-1.3,0-2.3-1-2.3-2.3
				s1-2.3,2.3-2.3c1.3,0,2.3-1,2.3-2.3c0-3.8,3.1-6.9,6.8-6.9c3.8,0,6.9,3.1,6.9,6.9c0,1.1,0.8,2.1,1.9,2.2c1.1,0.2,2.2-0.4,2.5-1.4
				c0.7-1.8,2.6-3.1,4.7-3.1c2.5,0,4.6,2,4.6,4.6S138.4,138.4,135.9,138.4z"/>
			<path class="st0" d="M85.6,51.7c0-5-4.1-9.1-9.1-9.1c-5,0-9.1,4.1-9.1,9.1s4.1,9.1,9.1,9.1C81.5,60.8,85.6,56.7,85.6,51.7z
				 M71.9,51.7c0-2.5,2-4.6,4.6-4.6c2.5,0,4.6,2,4.6,4.6c0,2.5-2,4.6-4.6,4.6C74,56.2,71.9,54.2,71.9,51.7z"/>
			<path class="st0" d="M119.9,83.6h-18.3c-1.3,0-2.3,1-2.3,2.3V111H97c-1.3,0-2.3,1-2.3,2.3s1,2.3,2.3,2.3h27.4
				c1.3,0,2.3-1,2.3-2.3s-1-2.3-2.3-2.3h-2.3V85.9C122.2,84.7,121.1,83.6,119.9,83.6z M117.6,111h-13.7v-9.1h13.7V111z M117.6,97.3
				h-13.7v-9.1h13.7V97.3z"/>
			<path class="st0" d="M99.3,131.6c0-1.3-1-2.3-2.3-2.3h-6.8V85.9c0-1.3-1-2.3-2.3-2.3H65.1c-1.3,0-2.3,1-2.3,2.3v43.4H56
				c-1.3,0-2.3,1-2.3,2.3v9.1c0,1.3,1,2.3,2.3,2.3c1.3,0,2.3-1,2.3-2.3v-6.8H97C98.3,133.9,99.3,132.8,99.3,131.6z M85.6,106.5h-2.3
				c-1.3,0-2.3,1-2.3,2.3s1,2.3,2.3,2.3h2.3v18.3H67.4V88.2h18.3V106.5z"/>
			<path class="st0" d="M51.4,83.6H33.1c-1.3,0-2.3,1-2.3,2.3V111h-2.3c-1.3,0-2.3,1-2.3,2.3s1,2.3,2.3,2.3H56c1.3,0,2.3-1,2.3-2.3
				c0-1.3-1-2.3-2.3-2.3h-2.3V85.9C53.7,84.7,52.6,83.6,51.4,83.6z M49.1,111H35.4v-9.1h13.7V111z M49.1,97.3H35.4v-9.1h13.7V97.3z"
				/>
		</g>
	</g>
</g>
</svg>
