<?xml version="1.0" standalone="no"?>
<!DOCTYPE svg PUBLIC "-//W3C//DTD SVG 1.0//EN" "http://www.w3.org/TR/2001/REC-SVG-20010904/DTD/svg10.dtd">
<svg xmlns="http://www.w3.org/2000/svg" xmlns:xlink="http://www.w3.org/1999/xlink" id="body_1" width="200" height="200">

<g transform="matrix(1.219512 0 0 1.219512 0 0)">
    <path transform="matrix(1 0 0 1 0 0)"  d="M158.157 34.2566L148.553 34.2566L148.553 29.2004C 151.891 28.621 154.893 26.8177 156.973 24.1428C 159.053 21.4678 160.061 18.1135 159.799 14.7353C 159.538 11.357 158.027 8.19756 155.56 5.87429C 153.094 3.55101 149.85 2.23086 146.462 2.17178C 143.074 2.11271 139.786 3.31896 137.24 5.55483C 134.694 7.7907 133.073 10.8955 132.694 14.2626C 132.315 17.6297 133.205 21.0171 135.191 23.7629C 137.176 26.5088 140.114 28.4157 143.43 29.1111L143.43 29.1111L143.43 34.2566L134.306 34.2566C 132.891 34.2566 131.904 35.4937 131.904 36.9085L131.904 36.9085L131.904 40.8499L129.599 40.1696C 122.287 37.9421 114.828 36.2292 107.276 35.0436C 106.056 29.239 102.877 24.0307 98.2713 20.2927C 93.666 16.5547 87.9151 14.5145 81.9837 14.5145C 76.0523 14.5145 70.3014 16.5547 65.6961 20.2927C 61.0908 24.0307 57.9113 29.239 56.6914 35.0436C 49.125 36.2292 41.6508 37.942 34.3233 40.1696L34.3233 40.1696L32.0156 40.8499L32.0156 36.9085C 32.0156 35.4937 31.0276 34.2566 29.6145 34.2566L29.6145 34.2566L19.8497 34.2566L19.8497 29.2302C 23.1984 28.6933 26.2267 26.927 28.3426 24.2765C 30.4585 21.626 31.5101 18.2817 31.2918 14.8972C 31.0736 11.5128 29.6012 8.33129 27.1623 5.97451C 24.7235 3.61773 21.4935 2.25503 18.1035 2.1527C 14.7135 2.05036 11.4072 3.21575 8.83067 5.42112C 6.25411 7.6265 4.59247 10.7134 4.17045 14.0785C 3.74844 17.4437 4.59638 20.8453 6.54858 23.6186C 8.50078 26.3919 11.4169 28.3376 14.7272 29.0755L14.7272 29.0755L14.7272 34.2566L5.76282 34.2566C 5.07433 34.2772 4.42113 34.566 3.94262 35.0614C 3.46411 35.5569 3.19817 36.2197 3.20157 36.9085L3.20157 36.9085L3.20157 159.204C 3.20331 159.536 3.27139 159.864 3.4018 160.169C 3.53221 160.474 3.72233 160.75 3.96096 160.981C 4.1996 161.211 4.48194 161.392 4.79137 161.512C 5.10081 161.632 5.4311 161.688 5.76282 161.679L5.76282 161.679L29.6145 161.679C 29.9378 161.685 30.2591 161.625 30.5582 161.502C 30.8573 161.379 31.1278 161.195 31.353 160.963C 31.5782 160.731 31.7533 160.455 31.8673 160.152C 31.9813 159.85 32.0318 159.527 32.0156 159.204L32.0156 159.204L32.0156 87.8329L35.8175 86.6947C 65.8755 77.4793 98.0048 77.4793 128.063 86.6947L128.063 86.6947L131.905 87.8329L131.905 159.204C 131.889 159.527 131.939 159.85 132.053 160.152C 132.167 160.455 132.342 160.731 132.567 160.963C 132.793 161.195 133.063 161.379 133.362 161.502C 133.661 161.625 133.982 161.685 134.306 161.679L134.306 161.679L158.157 161.679C 158.489 161.688 158.819 161.632 159.129 161.512C 159.438 161.392 159.72 161.211 159.959 160.981C 160.198 160.75 160.388 160.474 160.518 160.169C 160.649 159.864 160.717 159.536 160.718 159.204L160.718 159.204L160.718 36.9085C 160.722 36.2197 160.456 35.5569 159.977 35.0614C 159.499 34.566 158.846 34.2772 158.157 34.2566zM137.731 15.7788C 137.731 14.0974 138.23 12.4538 139.164 11.0557C 140.098 9.65768 141.426 8.56803 142.979 7.92456C 144.532 7.28109 146.242 7.11271 147.891 7.44072C 149.54 7.76873 151.055 8.57839 152.244 9.76731C 153.432 10.9562 154.242 12.471 154.57 14.1201C 154.898 15.7692 154.73 17.4785 154.086 19.0319C 153.443 20.5853 152.353 21.913 150.955 22.847C 149.557 23.7811 147.913 24.2797 146.232 24.2796C 143.978 24.277 141.818 23.3805 140.224 21.7869C 138.63 20.1932 137.734 18.0326 137.731 15.7788zM9.18849 15.7788C 9.18843 14.0974 9.687 12.4537 10.6211 11.0556C 11.5553 9.65752 12.8831 8.56787 14.4365 7.92444C 15.99 7.28101 17.6994 7.1127 19.3485 7.44081C 20.9976 7.76892 22.5124 8.57871 23.7012 9.76776C 24.8901 10.9568 25.6997 12.4717 26.0275 14.1209C 26.3554 15.77 26.1868 17.4794 25.5432 19.0328C 24.8995 20.5861 23.8097 21.9137 22.4114 22.8477C 21.0132 23.7816 19.3694 24.2799 17.688 24.2796C 15.4345 24.2766 13.2741 23.38 11.6808 21.7864C 10.0874 20.1928 9.19112 18.0323 9.18849 15.7788zM81.96 19.6361C 86.0548 19.6361 90.0576 20.8503 93.4623 23.1252C 96.867 25.4002 99.5206 28.6336 101.088 32.4167C 102.655 36.1998 103.065 40.3626 102.266 44.3787C 101.467 48.3948 99.4951 52.0838 96.5996 54.9792C 93.7042 57.8747 90.0152 59.8465 85.9991 60.6453C 81.983 61.4442 77.8202 61.0342 74.0371 59.4672C 70.254 57.9002 67.0206 55.2466 64.7456 51.8419C 62.4707 48.4372 61.2565 44.4344 61.2565 40.3396C 61.2627 34.8506 63.446 29.5882 67.3273 25.7069C 71.2086 21.8256 76.471 19.6423 81.96 19.6361zM26.8931 156.556L8.32407 156.556L8.32407 39.3791L26.8931 39.3791L26.8931 156.556zM129.599 81.796C 98.5651 72.2809 65.3921 72.2809 34.3579 81.796L34.3579 81.796L32.0156 82.4763L32.0156 46.2068L35.8175 45.0683C 42.4654 43.042 49.2392 41.4545 56.0952 40.3162C 56.0952 40.3242 56.1144 40.3319 56.1144 40.3396C 56.1385 47.1753 58.8708 53.7227 63.7129 58.5478C 68.5549 63.3728 75.112 66.0821 81.9477 66.0821C 88.7834 66.0821 95.3404 63.3728 100.182 58.5478C 105.025 53.7227 107.757 47.1753 107.781 40.3396C 107.781 40.3319 107.783 40.3242 107.783 40.3166C 114.652 41.4546 121.44 43.0419 128.101 45.0683L128.101 45.0683L131.904 46.2068L131.904 82.4763L129.599 81.796zM155.596 156.556L137.027 156.556L137.027 39.3791L155.596 39.3791L155.596 156.556z" stroke="none" fill="#ACD313" fill-rule="nonzero" />
    <path transform="matrix(1 0 0 1 0 0)"  d="M73.7159 50.2647L79.3987 50.2647L79.3987 53.7224C 79.3987 54.4017 79.6685 55.0531 80.1489 55.5334C 80.6292 56.0138 81.2807 56.2836 81.96 56.2836C 82.6392 56.2836 83.2907 56.0138 83.771 55.5334C 84.2514 55.0531 84.5212 54.4017 84.5212 53.7224L84.5212 53.7224L84.5212 50.2647L90.204 50.2647C 90.6234 50.2574 91.0349 50.1489 91.4035 49.9484C 91.772 49.7479 92.0867 49.4614 92.3207 49.1132C 92.5547 48.765 92.7012 48.3654 92.7477 47.9484C 92.7941 47.5315 92.7392 47.1095 92.5875 46.7183L92.5875 46.7183L84.4572 25.9968C 84.2727 25.5147 83.9484 25.0986 83.5259 24.802C 83.1034 24.5054 82.6019 24.3417 82.0858 24.332L82.0858 24.332L82.0736 24.332C 81.5606 24.3385 81.0611 24.4972 80.6384 24.7878C 80.2156 25.0785 79.8887 25.4882 79.699 25.9648L79.699 25.9648L71.3429 46.6629C 71.1855 47.0587 71.1261 47.4867 71.1699 47.9104C 71.2136 48.3341 71.3592 48.7409 71.5943 49.0961C 71.8265 49.4485 72.141 49.739 72.5107 49.9426C 72.8803 50.1462 73.294 50.2567 73.7159 50.2647zM82.04 33.9386L86.4447 45.1422L77.5123 45.1422L82.04 33.9386z" stroke="none" fill="#ACD313" fill-rule="nonzero" />
</g>
</svg>