<?xml version="1.0" standalone="no"?>
<!DOCTYPE svg PUBLIC "-//W3C//DTD SVG 1.0//EN" "http://www.w3.org/TR/2001/REC-SVG-20010904/DTD/svg10.dtd">
<svg xmlns="http://www.w3.org/2000/svg" xmlns:xlink="http://www.w3.org/1999/xlink" id="body_1" width="200" height="200">

<g transform="matrix(1.219512 0 0 1.219512 0 0)">
    <path transform="matrix(1 0 0 1 0 0)"  d="M160.006 60.6145L160.034 60.5744C 159.38 60.1114 94.6346 14.1825 84.0578 0.971476C 83.52 0.353628 82.742 0 81.924 0C 81.1047 0 80.3267 0.353628 79.7889 0.971476C 69.2214 14.1825 4.47419 60.1114 3.81364 60.5744L3.81364 60.5744L3.84033 60.6145C 3.1184 61.1095 2.6847 61.9262 2.6767 62.8016L2.6767 62.8016L2.6767 161.188C 2.6767 162.697 3.90038 163.92 5.40964 163.92L5.40964 163.92L16.3414 163.92C 16.7578 163.88 17.1688 163.788 17.5624 163.647L17.5624 163.647L49.7812 147.523L111.994 147.523L111.994 161.188C 111.994 162.697 113.218 163.92 114.727 163.92L114.727 163.92L125.659 163.92C 126.075 163.88 126.486 163.788 126.88 163.647L126.88 163.647L159.675 147.249C 160.607 146.784 161.193 145.831 161.187 144.79L161.187 144.79L161.187 62.8016C 161.175 61.9236 160.735 61.1055 160.006 60.6145zM155.721 104.839L150.256 107.572L150.256 87.3981L152.988 87.3981C 153.921 87.3888 154.846 87.218 155.721 86.895L155.721 86.895L155.721 104.839zM8.14258 65.5346L155.721 65.5346L155.721 71.0004L8.14258 71.0004L8.14258 65.5346zM142.057 81.9322C 140.547 81.9322 139.324 80.7085 139.324 79.1993L139.324 79.1993L139.324 76.4663L155.721 76.4663L155.721 79.1993C 155.721 80.7085 154.498 81.9322 152.988 81.9322L152.988 81.9322L142.057 81.9322zM111.994 79.1993C 111.994 80.7085 110.771 81.9322 109.261 81.9322L109.261 81.9322L98.3297 81.9322C 96.8204 81.9322 95.5967 80.7085 95.5967 79.1993L95.5967 79.1993L95.5967 76.4663L111.994 76.4663L111.994 79.1993zM90.1308 79.1993C 90.1308 80.7085 88.9072 81.9322 87.3979 81.9322L87.3979 81.9322L76.4661 81.9322C 74.9569 81.9322 73.7332 80.7085 73.7332 79.1993L73.7332 79.1993L73.7332 76.4663L90.1308 76.4663L90.1308 79.1993zM46.4038 79.1993C 46.4038 80.7085 45.1801 81.9322 43.6708 81.9322L43.6708 81.9322L32.7391 81.9322C 31.2298 81.9322 30.0061 80.7085 30.0061 79.1993L30.0061 79.1993L30.0061 76.4663L46.4038 76.4663L46.4038 79.1993zM8.14258 76.4663L24.5402 76.4663L24.5402 79.1993C 24.5402 80.7085 23.3165 81.9322 21.8073 81.9322L21.8073 81.9322L10.8755 81.9322C 9.36627 81.9322 8.14258 80.7085 8.14258 79.1993L8.14258 79.1993L8.14258 76.4663zM19.0743 87.3981L21.8073 87.3981C 23.8303 87.3901 25.7786 86.6308 27.2732 85.2657C 28.7664 86.6308 30.7147 87.3901 32.7391 87.3981L32.7391 87.3981L43.6708 87.3981C 44.6036 87.3888 45.5284 87.218 46.4038 86.895L46.4038 86.895L46.4038 104.706L19.0743 116.094L19.0743 87.3981zM51.8697 76.4663L68.2673 76.4663L68.2673 79.1993C 68.2673 80.7085 67.0436 81.9322 65.5344 81.9322L65.5344 81.9322L54.6026 81.9322C 53.0933 81.9322 51.8697 80.7085 51.8697 79.1993L51.8697 79.1993L51.8697 76.4663zM62.8014 87.3981L65.5344 87.3981C 67.5574 87.3901 69.5057 86.6308 71.0002 85.2657C 72.4935 86.6308 74.4418 87.3901 76.4661 87.3981L76.4661 87.3981L87.3979 87.3981C 89.4209 87.3901 91.3692 86.6308 92.8638 85.2657C 94.357 86.6308 96.3053 87.3901 98.3297 87.3981L98.3297 87.3981L109.261 87.3981C 110.194 87.3888 111.119 87.218 111.994 86.895L111.994 86.895L111.994 101.063L62.8014 101.063L62.8014 87.3981zM117.46 76.4663L133.858 76.4663L133.858 79.1993C 133.858 80.7085 132.634 81.9322 131.125 81.9322L131.125 81.9322L120.193 81.9322C 118.684 81.9322 117.46 80.7085 117.46 79.1993L117.46 79.1993L117.46 76.4663zM131.125 87.3981C 133.148 87.3901 135.096 86.6308 136.591 85.2657C 138.084 86.6308 140.032 87.3901 142.057 87.3981L142.057 87.3981L144.79 87.3981L144.79 101.063L128.392 101.063L128.392 87.3981L131.125 87.3981zM128.392 106.529L144.79 106.529L144.79 110.305L128.392 118.504L128.392 106.529zM81.932 6.77631C 94.2983 19.6564 133.754 48.439 149.93 60.0687L149.93 60.0687L13.9341 60.0687C 30.1102 48.439 69.5657 19.6564 81.932 6.77631zM8.14258 86.895C 9.01798 87.218 9.94275 87.3888 10.8755 87.3981L10.8755 87.3981L13.6085 87.3981L13.6085 158.455L8.14258 158.455L8.14258 86.895zM19.0743 122.016L46.4038 110.628L46.4038 143.1L19.0743 156.765L19.0743 122.016zM51.8697 86.895C 52.745 87.218 53.6698 87.3888 54.6026 87.3981L54.6026 87.3981L57.3355 87.3981L57.3355 142.057L51.8697 142.057L51.8697 86.895zM62.8014 142.057L62.8014 136.591L73.7332 136.591L73.7332 131.125L62.8014 131.125L62.8014 106.529L111.994 106.529L111.994 142.057L62.8014 142.057zM117.46 86.895C 118.336 87.218 119.26 87.3888 120.193 87.3981L120.193 87.3981L122.926 87.3981L122.926 158.455L117.46 158.455L117.46 86.895zM128.392 124.609L155.721 110.944L155.721 143.1L128.392 156.765L128.392 124.609z" stroke="none" fill="#ACD313" fill-rule="nonzero" />
    <path transform="matrix(1 0 0 1 0 0)"  d="M79.199 131.125L84.6649 131.125L84.6649 136.591L79.199 136.591L79.199 131.125z" stroke="none" fill="#ACD313" fill-rule="nonzero" />
</g>
</svg>