<svg xmlns="http://www.w3.org/2000/svg" width="86.682" height="92.986" viewBox="0 0 86.682 92.986">
  <g id="Grupo_348" data-name="Grupo 348" transform="translate(84.7 -49.5)">
    <path id="Trazado_402" data-name="Trazado 402" d="M-1,49.5h-76A7.773,7.773,0,0,0-84.7,57.205v82.129a3.139,3.139,0,0,0,3.152,3.152h55.862a3.139,3.139,0,0,0,3.152-3.152v-3.152h-3.152v3.152H-81.723V57.205a4.708,4.708,0,0,1,4.728-4.728h52.71a7.683,7.683,0,0,0-1.576,4.728v63.567h3.152V92.929H-5.723a7.773,7.773,0,0,0,7.705-7.705V52.477A3.069,3.069,0,0,0-1,49.5ZM-22.709,89.776V57.205a4.667,4.667,0,0,1,1.576-3.5,4.968,4.968,0,0,1,2.977-1.226h.525a4.911,4.911,0,0,1,4.2,4.9V84.7a8.192,8.192,0,0,0,1.576,4.9H-22.709ZM-1,85.048a4.708,4.708,0,0,1-4.728,4.728h-.35a4.911,4.911,0,0,1-4.2-4.9V57.555a8.191,8.191,0,0,0-1.576-4.9H-1v32.4Z" transform="translate(0 0)" fill="#acd313"/>
    <path id="Trazado_403" data-name="Trazado 403" d="M-17.861,92H-67.419a.643.643,0,0,0-.525.175l-7.705,3.152a1.739,1.739,0,0,0-1.051,1.4,1.467,1.467,0,0,0,1.051,1.4l7.705,3.152c.175,0,.35.175.525.175h49.558a4.708,4.708,0,0,0,4.728-4.728A4.823,4.823,0,0,0-17.861,92Zm-46.581,2.977h41.852v3.152H-64.442ZM-71.1,96.553l3.5-1.4v2.8Zm53.235,1.576h-1.576V94.977h1.576a1.569,1.569,0,0,1,1.576,1.576A1.693,1.693,0,0,1-17.861,98.129Z" transform="translate(6.009 31.924)" fill="#acd313"/>
    <path id="Trazado_404" data-name="Trazado 404" d="M-36.071,58.076A1.569,1.569,0,0,0-37.648,56.5H-77.924A1.569,1.569,0,0,0-79.5,58.076V70.509a1.569,1.569,0,0,0,1.576,1.576h40.276a1.569,1.569,0,0,0,1.576-1.576V58.076Zm-2.977,10.857H-76.173V59.652h37.124v9.281Z" transform="translate(3.906 5.258)" fill="#acd313"/>
    <path id="Trazado_405" data-name="Trazado 405" d="M-79.4,68.9h6.129v3.152H-79.4Z" transform="translate(3.981 14.572)" fill="#acd313"/>
    <path id="Trazado_406" data-name="Trazado 406" d="M-74.1,68.9h34.147v3.152H-74.1Z" transform="translate(7.962 14.572)" fill="#acd313"/>
    <path id="Trazado_407" data-name="Trazado 407" d="M-79.4,74.3h43.429v2.977H-79.4Z" transform="translate(3.981 18.629)" fill="#acd313"/>
    <path id="Trazado_408" data-name="Trazado 408" d="M-79.4,79.6h43.429v3.152H-79.4Z" transform="translate(3.981 22.61)" fill="#acd313"/>
    <path id="Trazado_409" data-name="Trazado 409" d="M-79.4,84.9h43.429v3.152H-79.4Z" transform="translate(3.981 26.591)" fill="#acd313"/>
  </g>
</svg>
