<svg width="55" height="55" viewBox="0 0 55 55" fill="none" xmlns="http://www.w3.org/2000/svg">
<path d="M48.5 13C44.9157 13 42 10.0843 42 6.5C42 2.91569 44.9157 0 48.5 0C52.0843 0 55 2.91569 55 6.5C55 10.0843 52.0843 13 48.5 13ZM48.5 2.16667C46.1107 2.16667 44.1667 4.11074 44.1667 6.5C44.1667 8.88926 46.1107 10.8333 48.5 10.8333C50.8893 10.8333 52.8333 8.88926 52.8333 6.5C52.8333 4.11074 50.8893 2.16667 48.5 2.16667Z" fill="black"/>
<path d="M28.8814 12H1.07858C0.482831 12 0 11.513 0 10.913C0 7.15541 3.08953 4.10573 6.84011 4.22123C8.4209 1.59958 11.2159 0 14.2991 0C16.8254 0 19.2336 1.1172 20.8843 3.02251C21.4611 2.87813 22.0543 2.80552 22.6564 2.80552C26.7057 2.80552 30 6.12569 30 10.2064C30 10.4752 29.984 10.7533 29.9532 11.0331C29.8921 11.5839 29.4308 12 28.8814 12ZM2.28818 9.8259H27.8289C27.6347 7.12059 25.3891 4.97962 22.6564 4.97962C22.0417 4.97962 21.4405 5.08662 20.8696 5.29766C20.4171 5.46539 19.9086 5.30913 19.6254 4.91592C18.3893 3.19915 16.3981 2.1741 14.2991 2.1741C11.7889 2.1741 9.53276 3.58259 8.41036 5.84968C8.20265 6.26921 7.751 6.50701 7.29092 6.44034C7.07352 6.40849 6.85528 6.39236 6.64251 6.39236C4.54097 6.39236 2.77228 7.85648 2.28818 9.8259Z" fill="black"/>
<path d="M47.9988 50C47.934 50 47.8691 49.993 47.8039 49.9797C47.7398 49.968 47.677 49.9488 47.6172 49.9238C47.557 49.8988 47.4988 49.8679 47.4449 49.832C47.3898 49.7949 47.3391 49.7527 47.293 49.707C47.2461 49.6609 47.2051 49.6097 47.168 49.5546C47.132 49.5007 47.1012 49.4429 47.0762 49.3827C47.0512 49.3218 47.032 49.2589 47.0191 49.1956C47.0059 49.1307 47 49.0647 47 48.9999C47 48.9346 47.0059 48.8686 47.0191 48.8045C47.032 48.7408 47.0512 48.6775 47.0762 48.6178C47.1012 48.5568 47.132 48.4986 47.168 48.4447C47.2039 48.3896 47.2461 48.3388 47.2922 48.2927C47.3379 48.2466 47.3898 48.2044 47.4441 48.1685C47.4988 48.1325 47.557 48.1017 47.6172 48.0767C47.677 48.0517 47.7398 48.0325 47.8039 48.0196C47.9328 47.9935 48.066 47.9935 48.1949 48.0196C48.259 48.0325 48.3219 48.0517 48.382 48.0767C48.4422 48.1017 48.5 48.1325 48.5551 48.1685C48.609 48.2044 48.6609 48.2466 48.707 48.2927C48.7531 48.3388 48.7949 48.3896 48.8309 48.4447C48.8672 48.4986 48.898 48.5568 48.923 48.6178C48.948 48.6779 48.9672 48.7408 48.9801 48.8045C48.993 48.8686 49 48.9346 49 48.9999C49 49.0647 48.993 49.1307 48.9801 49.1956C48.9672 49.2589 48.948 49.3218 48.923 49.3827C48.898 49.4429 48.8672 49.5007 48.8309 49.5546C48.7949 49.6097 48.7531 49.6609 48.707 49.707C48.6609 49.7527 48.609 49.7949 48.5551 49.832C48.5 49.8679 48.4422 49.8988 48.382 49.9238C48.3219 49.9488 48.259 49.968 48.1949 49.9797C48.1301 49.993 48.0648 50 47.9988 50Z" fill="black"/>
<path d="M53.9258 43.4771H51.9355V31.4594L52.2574 31.6967C52.4454 31.8354 52.6686 31.9062 52.8935 31.9062C53.0589 31.9062 53.2254 31.8678 53.3786 31.7899C53.7399 31.6061 53.9677 31.2339 53.9677 30.8272V24.9189C53.9677 24.5754 53.8049 24.2525 53.5292 24.0489L38.8389 13.2093C38.4604 12.9302 37.9451 12.9302 37.5666 13.2093L31.1121 17.972L28.1361 15.7761C27.7576 15.4966 27.2424 15.4966 26.8639 15.7761L23.8875 17.972L17.433 13.2093C17.0549 12.9302 16.5396 12.9302 16.1611 13.2093L1.47034 24.0493C1.19507 24.2525 1.03226 24.5754 1.03226 24.9189V30.8272C1.03226 31.2339 1.26011 31.6065 1.6214 31.7899C1.77456 31.8678 1.94073 31.9062 2.10648 31.9062C2.33097 31.9062 2.55463 31.8358 2.7422 31.6971L3.06446 31.4594V43.4771H1.07422C0.480881 43.4771 0 43.9601 0 44.5561V53.921C0 54.517 0.480881 55 1.07422 55H53.9258C54.5191 55 55 54.517 55 53.921V44.5561C55 43.9601 54.5191 43.4771 53.9258 43.4771ZM49.7871 29.8742L49.7875 43.4771H41.2332L41.2328 34.0258L41.5551 34.2635C41.5605 34.2677 41.566 34.2715 41.5714 34.2758C41.5735 34.277 41.5752 34.2779 41.5769 34.2791C41.5807 34.2821 41.5844 34.2846 41.5886 34.2871C41.5907 34.2888 41.5928 34.2901 41.5949 34.2918C41.5983 34.2939 41.6016 34.2964 41.6054 34.2985C41.6075 34.3002 41.61 34.3019 41.6125 34.3032C41.6159 34.3057 41.6197 34.3078 41.6235 34.3103C41.6251 34.3116 41.6272 34.3128 41.6293 34.3137C41.6331 34.3162 41.6373 34.3187 41.6415 34.3213C41.6432 34.3221 41.6453 34.3234 41.647 34.3246C41.652 34.3272 41.6566 34.3301 41.6616 34.3331C41.6625 34.3335 41.6637 34.3343 41.6646 34.3348C41.6768 34.3415 41.6889 34.3482 41.7015 34.3546C41.7023 34.355 41.7028 34.355 41.7036 34.3554C41.7086 34.3584 41.7141 34.3609 41.7196 34.3634C41.7208 34.3643 41.7225 34.3651 41.7237 34.3655C41.7284 34.3681 41.7334 34.3702 41.7384 34.3723C41.7397 34.3731 41.741 34.3735 41.7422 34.3744C41.7477 34.3765 41.7527 34.379 41.7577 34.3815C41.759 34.382 41.7598 34.3824 41.7607 34.3828C42.0074 34.4911 42.2873 34.5025 42.5433 34.4132C42.5441 34.4127 42.5441 34.4127 42.5445 34.4127C42.563 34.406 42.581 34.3992 42.5991 34.3917C42.6007 34.3908 42.6024 34.3904 42.6041 34.3896C42.6075 34.3883 42.6108 34.387 42.6142 34.3853C42.6163 34.3845 42.6184 34.3837 42.6205 34.3828C42.6234 34.3815 42.6259 34.3803 42.6289 34.379C42.6318 34.3778 42.6343 34.3765 42.6373 34.3752C42.6398 34.3744 42.6423 34.3731 42.6448 34.3719C42.6477 34.3706 42.6511 34.3689 42.6545 34.3672C42.6566 34.3664 42.6582 34.3655 42.6603 34.3643C42.6658 34.3617 42.6708 34.3592 42.6759 34.3567C43.0371 34.1729 43.265 33.8007 43.265 33.394V27.4853C43.265 27.1418 43.1022 26.8189 42.8269 26.6157L36.9305 22.2652L38.2027 21.3266L49.7871 29.8742ZM29.9355 48.1594H25.0645V41.7229H29.9355V48.1594ZM31.0097 39.5649H23.9903C23.3974 39.5649 22.9161 40.0484 22.9161 40.6439V48.1594H15.9156V32.4406L27.5 23.893L39.0844 32.4406L39.0848 48.1594H32.0839V40.6439C32.0839 40.0484 31.6026 39.5649 31.0097 39.5649ZM38.2027 15.4178L51.8193 25.4651V28.6958L38.8389 19.1176C38.4902 18.8605 38.0248 18.8403 37.6581 19.0573C37.6266 19.0759 37.5964 19.0961 37.567 19.1176L35.116 20.9262L32.9269 19.3106L38.2027 15.4178ZM27.5 17.9842L41.1166 28.0315V31.2622L40.7947 31.0244L28.1361 21.6844C28.1063 21.6625 28.0761 21.6423 28.0451 21.6241C27.709 21.4252 27.291 21.4252 26.9553 21.6241C26.9239 21.6427 26.8937 21.6625 26.8639 21.6844L14.2053 31.0244L13.8834 31.2622V28.0315L27.5 17.9842ZM3.18069 25.4651L16.7973 15.4178L22.0731 19.3106L19.884 20.9262L17.433 19.118C17.0549 18.8386 16.5396 18.8386 16.1611 19.118L3.18069 28.6958V25.4651ZM5.2129 29.8742L16.7973 21.3262L18.0695 22.2652L12.1731 26.6157C12.1689 26.6187 12.1647 26.6221 12.1605 26.625C11.9394 26.7936 11.7933 27.0393 11.7493 27.3104C11.7476 27.3209 11.7459 27.3314 11.7447 27.342C11.7434 27.3525 11.7421 27.363 11.7409 27.3736C11.7371 27.4102 11.735 27.4478 11.735 27.4853V33.394C11.735 33.8007 11.9629 34.1729 12.3241 34.3567C12.3296 34.3592 12.3355 34.3622 12.3409 34.3651C12.463 34.4241 12.5923 34.4587 12.7232 34.4692C12.9762 34.4899 13.2335 34.4199 13.4454 34.2635L13.7672 34.0258V43.4771H5.21332L5.2129 29.8742ZM13.7672 45.6351V48.1594H2.14844V45.6351H13.7672ZM52.8516 52.842H2.14844V50.3173H43.7207C44.314 50.3173 44.7949 49.8343 44.7949 49.2383C44.7949 48.6428 44.314 48.1594 43.7207 48.1594H41.2332V45.6351H52.8516V52.842Z" fill="black"/>
<path d="M27.5 37C25.0189 37 23 34.9814 23 32.4998C23 30.0186 25.0189 28 27.5 28C29.9811 28 32 30.0186 32 32.4998C32 34.9814 29.9811 37 27.5 37ZM27.5 30.0795C26.1656 30.0795 25.0798 31.1653 25.0798 32.4998C25.0798 33.8343 26.1656 34.9201 27.5 34.9201C28.8344 34.9201 29.9202 33.8343 29.9202 32.4998C29.9202 31.1653 28.8344 30.0795 27.5 30.0795Z" fill="black"/>
</svg>
