<svg width="55" height="55" viewBox="0 0 55 55" fill="none" xmlns="http://www.w3.org/2000/svg">
<path d="M53.9258 43.0706C44.9544 43.0706 36.1492 46.7506 29.7677 53.167C29.3489 53.5878 29.351 54.268 29.7714 54.686C29.9812 54.8945 30.2548 54.9986 30.5293 54.9986C30.805 54.9986 31.0806 54.8933 31.2909 54.6822C37.2721 48.6682 45.5222 45.219 53.9258 45.219C54.5192 45.219 55.0001 44.7381 55.0001 44.1448C55.0001 43.5519 54.5192 43.0706 53.9258 43.0706Z" fill="black"/>
<path d="M31.525 42.0757C31.1926 41.5839 30.525 41.4546 30.0337 41.787C25.4401 44.8896 21.5608 48.7719 18.5026 53.3256C18.1719 53.8182 18.3029 54.4858 18.7955 54.8165C18.9797 54.9399 19.1874 54.999 19.3934 54.999C19.7392 54.999 20.0791 54.832 20.2864 54.5236C23.1893 50.2003 26.8731 46.514 31.2363 43.567C31.7277 43.2351 31.8569 42.5675 31.525 42.0757Z" fill="black"/>
<path d="M53.9257 34.4231C49.1232 34.4231 44.3698 35.2434 39.7976 36.8615C39.2383 37.0591 38.9454 37.673 39.1435 38.2324C39.2991 38.6734 39.7137 38.9487 40.156 38.9487C40.2747 38.9487 40.3956 38.9285 40.5143 38.8866C44.8557 37.3503 49.3678 36.5715 53.9257 36.5715C54.519 36.5715 54.9999 36.0907 54.9999 35.4973C54.9999 34.904 54.519 34.4231 53.9257 34.4231Z" fill="black"/>
<path d="M15.3911 47.6285C22.4583 38.4141 32.6886 32.0162 43.9771 29.6185C43.9792 29.6181 43.9813 29.6177 43.983 29.6173C47.227 28.9287 50.5575 28.5699 53.9258 28.5699C54.5187 28.5699 55 28.0886 55 27.4957C55 26.9024 54.5187 26.4215 53.9258 26.4215C50.8714 26.4215 47.8287 26.7009 44.8377 27.2477V24.9289C48.7204 21.642 50.8517 17.3351 50.8517 12.7487C50.8517 8.0066 48.5736 3.56328 44.4366 0.236978C44.0434 -0.0789928 43.4832 -0.0789928 43.09 0.236978C38.9534 3.56328 36.6749 8.0066 36.6749 12.7487C36.6749 17.3351 38.8066 21.642 42.6889 24.9289V27.687C40.6478 28.1516 38.6362 28.7436 36.6665 29.4566V23.1669C36.6665 22.8715 36.5474 22.6042 36.3543 22.4099V22.4095L30.3387 16.3582C30.1369 16.1556 29.8629 16.0414 29.5767 16.0414H17.2949C17.0092 16.0414 16.7347 16.1556 16.5333 16.3582L10.5177 22.4095V22.4099C10.3247 22.6042 10.2051 22.8715 10.2051 23.1673V27.2695C9.45648 27.1323 8.70453 27.0115 7.94922 26.9082V23.0788C10.8853 20.5531 12.4962 17.2591 12.4962 13.7499C12.4962 10.0837 10.7388 6.65208 7.54806 4.08612C7.15488 3.77015 6.59511 3.77015 6.20193 4.08612C3.01117 6.65166 1.25381 10.0837 1.25381 13.7499C1.25381 17.2587 2.86472 20.5527 5.80078 23.0784V26.6611C4.23435 26.5146 2.65743 26.4391 1.07422 26.4391C0.480881 26.4391 0 26.92 0 27.5133C0 28.1067 0.480881 28.5875 1.07422 28.5875C9.66377 28.5875 18.0653 30.8602 25.472 35.1717C23.6974 36.3777 22.0026 37.6949 20.398 39.1128C14.397 36.0555 7.72934 34.442 1.07422 34.442C0.4813 34.442 0 34.9229 0 35.5162C0 36.1096 0.4813 36.5905 1.07422 36.5905C7.12971 36.5905 13.1974 37.9987 18.7099 40.6729C17.0767 42.2528 15.5502 43.943 14.1415 45.7297C9.96296 43.9774 5.57125 43.0895 1.07422 43.0895C0.4813 43.0895 0 43.5704 0 44.1637C0 44.757 0.4813 45.2379 1.07422 45.2379C5.10254 45.2379 9.04106 46.0016 12.8033 47.5055C12.061 48.537 11.3557 49.5965 10.6923 50.6841L9.05533 53.3659C8.74607 53.872 8.90636 54.5333 9.41242 54.8421C9.5874 54.9491 9.78043 54.9999 9.97135 54.9999C10.3331 54.9999 10.6868 54.8165 10.8891 54.485L12.526 51.8032C13.3795 50.4047 14.3018 49.059 15.285 47.767C15.3236 47.7242 15.3596 47.6784 15.3911 47.6285ZM38.8238 12.7487C38.8238 8.9306 40.5706 5.31392 43.7635 2.47983C46.9564 5.31392 48.7032 8.9306 48.7032 12.7487C48.7032 16.1132 47.3453 19.322 44.8377 21.9761V13.7499C44.8377 13.1566 44.3568 12.6757 43.7635 12.6757C43.1702 12.6757 42.6893 13.1566 42.6893 13.7499V21.9761C40.1812 19.322 38.8238 16.1132 38.8238 12.7487ZM3.40225 13.7499C3.40225 11.0098 4.62879 8.40733 6.875 6.33946C9.12121 8.40691 10.3477 11.0098 10.3477 13.7499C10.3477 16.0146 9.50893 18.1857 7.94922 20.0387V12.8905C7.94922 12.2972 7.46834 11.8163 6.875 11.8163C6.28208 11.8163 5.80078 12.2972 5.80078 12.8905V20.0387C4.24107 18.1857 3.40225 16.0146 3.40225 13.7499ZM33.01 22.0927H23.7574L19.8777 18.1899H29.1302L33.01 22.0927ZM17.2949 18.6393L20.7282 22.0927H13.862L17.2949 18.6393ZM12.3535 24.2411H22.2363V31.0725C21.7382 30.8434 21.2372 30.6218 20.7324 30.4091V26.8012C20.7324 26.2083 20.2515 25.727 19.6582 25.727H14.9316C14.3387 25.727 13.8574 26.2083 13.8574 26.8012V28.0785C13.3581 27.9485 12.8571 27.8251 12.3535 27.7101V24.2411ZM18.584 29.5615C17.7322 29.2476 16.8728 28.9564 16.0059 28.6891V27.8754H18.584V29.5615ZM24.3848 32.1236V24.2411H34.5185V30.2903C32.6785 31.0528 30.8804 31.9231 29.1373 32.9016C28.5801 33.2142 28.0296 33.539 27.4853 33.8722C26.4698 33.252 25.4359 32.6687 24.3848 32.1236Z" fill="black"/>
<path d="M34.4392 39.2369C34.2399 39.4367 34.1245 39.7136 34.1245 39.996C34.1245 40.2797 34.2395 40.5558 34.4392 40.7555C34.6394 40.9557 34.9163 41.0703 35.1987 41.0703C35.4816 41.0703 35.7585 40.9557 35.9582 40.7555C36.158 40.5558 36.2729 40.2797 36.2729 39.996C36.2729 39.7136 36.158 39.4367 35.9582 39.2369C35.7585 39.0368 35.4816 38.9218 35.1987 38.9218C34.9163 38.9218 34.6394 39.0368 34.4392 39.2369Z" fill="black"/>
</svg>
