<svg width="74" height="49" viewBox="0 0 74 49" fill="none" xmlns="http://www.w3.org/2000/svg">
<path d="M72.7157 34.6619C69.5277 34.6619 67.914 35.2863 66.3533 35.8901C64.9146 36.4467 63.5554 36.9727 60.7711 36.9727C57.9867 36.9727 56.6277 36.4469 55.1888 35.8901C53.6283 35.2863 52.0145 34.6619 48.8264 34.6619C45.6404 34.6619 44.0276 35.2865 42.468 35.8902C41.0302 36.4469 39.6722 36.9727 36.8901 36.9727C34.1069 36.9727 32.7484 36.4469 31.3103 35.8902C29.7501 35.2863 28.137 34.6619 24.95 34.6619C21.7641 34.6619 20.1514 35.2865 18.5917 35.8902C17.154 36.4469 15.7961 36.9727 13.014 36.9727C10.2328 36.9727 8.8752 36.4469 7.4379 35.8902C5.87865 35.2863 4.26637 34.6619 1.08101 34.6619C0.484002 34.6619 0 35.1459 0 35.7429C0 36.3399 0.484002 36.8239 1.08101 36.8239C3.86222 36.8239 5.21967 37.3497 6.65712 37.9064C8.21637 38.5103 9.82865 39.1347 13.014 39.1347C16.2 39.1347 17.8127 38.5102 19.3723 37.9064C20.8101 37.3497 22.168 36.8239 24.95 36.8239C27.7331 36.8239 29.0916 37.3497 30.5298 37.9064C32.0899 38.5103 33.7032 39.1347 36.8901 39.1347C40.0762 39.1347 41.6889 38.5102 43.2486 37.9064C44.6863 37.3497 46.0444 36.8239 48.8264 36.8239C51.6107 36.8239 52.9699 37.3497 54.4086 37.9065C55.9693 38.5103 57.583 39.1347 60.7711 39.1347C63.9592 39.1347 65.5728 38.5103 67.1335 37.9065C68.5722 37.3499 69.9314 36.8239 72.7157 36.8239C73.3127 36.8239 73.7967 36.3399 73.7967 35.7429C73.7967 35.1459 73.3127 34.6619 72.7157 34.6619Z" fill="black"/>
<path d="M67.9475 41.0556C67.7327 40.4985 67.1067 40.2211 66.5499 40.4358L66.3529 40.5119C65.7021 40.7637 65.0874 41.0015 64.3559 41.1915C63.7781 41.3417 63.4313 41.9318 63.5813 42.5096C63.7078 42.9964 64.1464 43.3191 64.6269 43.3191C64.717 43.3191 64.8084 43.3077 64.8995 43.284C65.7516 43.0627 66.4538 42.791 67.1331 42.5281L67.3275 42.453C67.8846 42.2382 68.1622 41.6125 67.9475 41.0556Z" fill="black"/>
<path d="M60.0452 41.5817C57.7389 41.4985 56.5002 41.0193 55.1887 40.5118C53.6281 39.908 52.0143 39.2836 48.8264 39.2836C45.6403 39.2836 44.0276 39.9081 42.4679 40.5119C41.0302 41.0685 39.6721 41.5943 36.8901 41.5943C34.1068 41.5943 32.7485 41.0685 31.3102 40.5118C29.7501 39.908 28.1369 39.2834 24.95 39.2834C21.764 39.2834 20.1513 39.908 18.5917 40.5118C17.2833 41.0184 16.0475 41.4968 13.7506 41.5811C13.1539 41.603 12.6881 42.1044 12.71 42.701C12.7319 43.2977 13.2335 43.7623 13.8299 43.7417C16.4897 43.6441 17.9553 43.0766 19.3724 42.5279C20.8102 41.9713 22.1681 41.4455 24.9501 41.4455C27.7332 41.4455 29.0917 41.9713 30.5298 42.528C32.09 43.1318 33.7032 43.7564 36.8902 43.7564C40.0763 43.7564 41.689 43.1318 43.2487 42.528C44.6864 41.9714 46.0444 41.4456 48.8265 41.4456C51.6108 41.4456 52.9699 41.9714 54.4087 42.5282C55.8291 43.0778 57.2979 43.6461 59.9674 43.7424C60.5602 43.7636 61.0651 43.2977 61.0866 42.701C61.108 42.1043 60.6418 41.6031 60.0452 41.5817Z" fill="black"/>
<path d="M48.8265 43.9053C45.6404 43.9053 44.0277 44.5298 42.468 45.1336C41.0303 45.6902 39.6722 46.216 36.8902 46.216C34.1069 46.216 32.7486 45.6902 31.3103 45.1336C29.7502 44.5297 28.137 43.9053 24.9501 43.9053C24.3531 43.9053 23.8691 44.3893 23.8691 44.9863C23.8691 45.5833 24.3531 46.0673 24.9501 46.0673C27.7332 46.0673 29.0916 46.5931 30.5299 47.1497C32.0901 47.7537 33.7032 48.378 36.8902 48.378C40.0762 48.378 41.689 47.7535 43.2486 47.1497C44.6864 46.5931 46.0444 46.0673 48.8265 46.0673C49.4235 46.0673 49.9075 45.5833 49.9075 44.9863C49.9075 44.3893 49.4235 43.9053 48.8265 43.9053Z" fill="black"/>
<path d="M9.44237 41.1941C8.70657 41.0034 8.08982 40.7645 7.43689 40.5115C6.88024 40.2959 6.25398 40.5723 6.03836 41.129C5.82273 41.6858 6.09918 42.3119 6.65583 42.5275C7.33758 42.7916 8.04254 43.0647 8.89985 43.2869C8.9908 43.3106 9.08203 43.3218 9.17183 43.3218C9.65252 43.3218 10.0913 42.9987 10.2175 42.5118C10.3674 41.9338 10.0203 41.344 9.44237 41.1941Z" fill="black"/>
<path d="M51.0641 20.1081C47.8345 15.4752 42.539 12.7093 36.8985 12.7093C27.3831 12.7093 19.6418 20.4504 19.6418 29.9659C19.6417 30.3765 19.6563 30.7909 19.6851 31.1975C19.7253 31.7671 20.1999 32.2024 20.7623 32.2024C20.788 32.2024 20.8137 32.2016 20.8396 32.1997C21.4352 32.1576 21.8839 31.6407 21.8418 31.0452C21.8165 30.6889 21.8039 30.3258 21.8039 29.9659C21.8039 21.6427 28.5751 14.8713 36.8985 14.8713C41.8323 14.8713 46.4649 17.2912 49.2904 21.3445C49.6318 21.8341 50.3055 21.9543 50.7954 21.6132C51.2852 21.2717 51.4054 20.5979 51.0641 20.1081Z" fill="black"/>
<path d="M14.9459 28.8851H8.0135C7.4165 28.8851 6.9325 29.3691 6.9325 29.9661C6.9325 30.5631 7.4165 31.0471 8.0135 31.0471H14.9459C15.5429 31.0471 16.0269 30.5631 16.0269 29.9661C16.0269 29.3691 15.5429 28.8851 14.9459 28.8851Z" fill="black"/>
<path d="M36.8983 0C36.3013 0 35.8173 0.484002 35.8173 1.08101V8.01342C35.8173 8.61057 36.3013 9.09443 36.8983 9.09443C37.4953 9.09443 37.9793 8.61043 37.9793 8.01342V1.08101C37.9793 0.484002 37.4953 0 36.8983 0Z" fill="black"/>
<path d="M58.0875 8.77689C57.6653 8.35472 56.9808 8.35472 56.5588 8.77689L51.6568 13.6789C51.2346 14.1011 51.2346 14.7856 51.6568 15.2076C51.8678 15.4186 52.1444 15.5242 52.4211 15.5242C52.6977 15.5242 52.9744 15.4187 53.1855 15.2076L58.0875 10.3056C58.5096 9.88341 58.5096 9.19892 58.0875 8.77689Z" fill="black"/>
<path d="M29.4962 9.27084L28.612 7.13593C28.3835 6.58433 27.7512 6.32258 27.1996 6.55089C26.648 6.77934 26.3861 7.4118 26.6145 7.96326L27.4988 10.0982C27.6712 10.5144 28.0738 10.7658 28.4979 10.7658C28.6359 10.7658 28.776 10.7393 28.9112 10.6832C29.4628 10.4548 29.7247 9.8223 29.4962 9.27084Z" fill="black"/>
<path d="M60.3135 20.2673C60.0851 19.7158 59.4528 19.4538 58.9012 19.6822L56.7662 20.5665C56.2146 20.7948 55.9527 21.4272 56.1812 21.9788C56.3536 22.3951 56.7561 22.6465 57.1803 22.6465C57.3183 22.6465 57.4584 22.62 57.5936 22.5639L59.7285 21.6796C60.2801 21.4512 60.542 20.8187 60.3135 20.2673Z" fill="black"/>
<path d="M46.5972 6.55089C46.0457 6.32243 45.4132 6.58433 45.1848 7.13593L44.3005 9.27084C44.0721 9.8223 44.334 10.4546 44.8856 10.6832C45.0208 10.7393 45.161 10.7658 45.2988 10.7658C45.723 10.7658 46.1255 10.5144 46.2979 10.0982L47.1822 7.96326C47.4106 7.41166 47.1488 6.77934 46.5972 6.55089Z" fill="black"/>
<path d="M17.0305 20.5663L14.8956 19.6821C14.3438 19.4536 13.7117 19.7155 13.4832 20.2671C13.2547 20.8187 13.5166 21.451 14.0682 21.6795L16.2032 22.5637C16.3385 22.6198 16.4786 22.6463 16.6164 22.6463C17.0406 22.6463 17.4431 22.3949 17.6155 21.9787C17.844 21.4271 17.5821 20.7948 17.0305 20.5663Z" fill="black"/>
<path d="M16.8438 6.93256C15.2471 6.93256 13.7053 7.4647 12.4349 8.44323C11.8562 8.26205 11.2598 8.17038 10.6543 8.17038C7.32778 8.17038 4.62152 10.8766 4.62152 14.2031C4.62152 14.8001 5.10552 15.2841 5.70253 15.2841H23.0335C23.6305 15.2841 24.1145 14.8001 24.1145 14.2031C24.1145 10.1942 20.8529 6.93256 16.8438 6.93256ZM6.93718 13.122C7.40605 11.5121 8.89495 10.3324 10.6543 10.3324C11.1868 10.3324 11.7109 10.4445 12.2119 10.6658C12.6067 10.84 13.0672 10.7629 13.3836 10.4695C14.3398 9.58275 15.5688 9.09442 16.8439 9.09442C19.29 9.09442 21.3401 10.8226 21.8376 13.122H6.93718Z" fill="black"/>
<path d="M55.0547 25.0887C54.4492 25.0887 53.8527 25.1802 53.274 25.3616C52.0036 24.383 50.4617 23.8509 48.8651 23.8509C44.856 23.8509 41.5944 27.1125 41.5944 31.1214C41.5944 31.7184 42.0784 32.2025 42.6754 32.2025H60.0064C60.6034 32.2025 61.0874 31.7184 61.0874 31.1214C61.0874 27.795 58.3811 25.0887 55.0547 25.0887ZM43.8715 30.0404C44.3689 27.7411 46.419 26.0129 48.8651 26.0129C50.1403 26.0129 51.3692 26.5012 52.3255 27.3879C52.642 27.6813 53.1022 27.7582 53.497 27.5841C53.998 27.3629 54.5221 27.2507 55.0547 27.2507C56.814 27.2507 58.3029 28.4305 58.7719 30.0404H43.8715Z" fill="black"/>
</svg>
