<svg width="78" height="63" viewBox="0 0 78 63" fill="none" xmlns="http://www.w3.org/2000/svg">
<path d="M35.8856 47.8371C36.3501 47.8377 36.757 47.5264 36.8779 47.078C36.9989 46.6297 36.8036 46.156 36.4019 45.9231L35.9009 45.6324C35.5835 45.4484 35.1923 45.4475 34.8743 45.6303C34.5562 45.8129 34.3598 46.1514 34.3591 46.5182C34.3583 46.885 34.5533 47.2243 34.8705 47.4083L35.3715 47.6989C35.5276 47.7896 35.7051 47.8373 35.8856 47.8371Z" fill="black"/>
<path d="M33.8974 44.4689L33.3963 44.1782C33.079 43.9942 32.6878 43.9933 32.3698 44.1761C32.0517 44.3589 31.8553 44.6972 31.8546 45.0641C31.8538 45.4309 32.0488 45.7701 32.3659 45.9542L32.867 46.2448C33.3573 46.5294 33.9856 46.3624 34.2701 45.872C34.5547 45.3817 34.3877 44.7533 33.8974 44.4689Z" fill="black"/>
<path d="M31.3918 43.0147L30.8907 42.724C30.5736 42.54 30.1822 42.5391 29.8642 42.7219C29.5461 42.9046 29.3497 43.243 29.349 43.6099C29.3482 43.9767 29.5432 44.3159 29.8604 44.4999L30.3614 44.7906C30.8517 45.0752 31.48 44.9082 31.7645 44.4178C32.0491 43.9273 31.8823 43.2991 31.3918 43.0147Z" fill="black"/>
<path d="M28.8873 41.5605L28.3863 41.2699C27.896 40.9853 27.2677 41.1522 26.9832 41.6426C26.6986 42.133 26.8656 42.7612 27.3559 43.0458L27.857 43.3364C28.3473 43.621 28.9755 43.454 29.2601 42.9637C29.5447 42.4733 29.3777 41.8449 28.8873 41.5605Z" fill="black"/>
<path d="M26.3818 40.1063L25.8808 39.8157C25.5635 39.6317 25.1723 39.6308 24.8542 39.8136C24.5361 39.9962 24.3398 40.3347 24.339 40.7015C24.3382 41.0683 24.5332 41.4076 24.8504 41.5916L25.3514 41.8822C25.8418 42.1668 26.47 41.9999 26.7545 41.5095C27.0391 41.019 26.8722 40.3908 26.3818 40.1063Z" fill="black"/>
<path d="M23.8773 38.652L23.3762 38.3613C22.8859 38.0768 22.2577 38.2437 21.9731 38.7341C21.6885 39.2245 21.8555 39.8527 22.3459 40.1372L22.8469 40.4279C23.3372 40.7125 23.9655 40.5455 24.25 40.0551C24.5346 39.5648 24.3678 38.9366 23.8773 38.652Z" fill="black"/>
<path d="M21.3719 37.1978L20.8709 36.9072C20.3805 36.6226 19.7523 36.7896 19.4677 37.2799C19.1831 37.7703 19.3501 38.3985 19.8405 38.6831L20.3415 38.9737C20.8319 39.2583 21.4601 39.0913 21.7446 38.601C22.0292 38.1106 21.8622 37.4824 21.3719 37.1978Z" fill="black"/>
<path d="M18.8673 35.7447L18.3672 35.4541C17.8773 35.169 17.2493 35.3351 16.9641 35.8248C16.6791 36.3148 16.8451 36.9428 17.3349 37.228L17.835 37.5187C18.3249 37.8037 18.953 37.6376 19.2381 37.1479C19.5233 36.658 19.3573 36.0297 18.8673 35.7447Z" fill="black"/>
<path d="M16.3628 34.2916L15.8617 34C15.3718 33.715 14.7438 33.8811 14.4586 34.3708C14.1736 34.8607 14.3396 35.4888 14.8294 35.774L15.3304 36.0656C15.8203 36.3506 16.4484 36.1845 16.7336 35.6948C17.0187 35.2049 16.8527 34.5766 16.3628 34.2916Z" fill="black"/>
<path d="M13.8563 32.8374L11.853 31.6739C11.5361 31.4899 11.1451 31.4888 10.8273 31.6713C10.5095 31.8537 10.3132 32.1918 10.3121 32.5582C10.3112 32.9247 10.5057 33.2638 10.8227 33.4478L11.3218 33.7385L10.7125 34.1042C10.398 34.293 10.2082 34.635 10.2145 35.0016C10.2207 35.3683 10.4221 35.7036 10.7426 35.8815C11.0631 36.0594 11.4543 36.0527 11.7687 35.8641L13.8693 34.6043C14.1806 34.4176 14.37 34.0802 14.3674 33.7171C14.3648 33.354 14.1704 33.0195 13.8563 32.8374Z" fill="black"/>
<path d="M56.123 28.7424L56.6241 29.033C56.9414 29.2171 57.3326 29.218 57.6507 29.0352C57.9687 28.8525 58.1651 28.514 58.1658 28.1472C58.1666 27.7804 57.9716 27.4411 57.6545 27.2571L57.1534 26.9665C56.6631 26.6819 56.0348 26.8489 55.7503 27.3392C55.4657 27.8296 55.6327 28.4578 56.123 28.7424Z" fill="black"/>
<path d="M58.6275 30.1966L59.6297 30.7779C59.9469 30.9619 60.3382 30.9628 60.6563 30.78C60.9744 30.5972 61.1707 30.2589 61.1715 29.8921C61.1723 29.5252 60.9773 29.186 60.6601 29.002L59.6579 28.4207C59.1676 28.1361 58.5393 28.3031 58.2548 28.7934C57.9702 29.2839 58.1372 29.912 58.6275 30.1966Z" fill="black"/>
<path d="M63.1655 30.4561L62.6644 30.1655C62.1741 29.8809 61.5458 30.0479 61.2613 30.5382C60.9767 31.0286 61.1437 31.6568 61.634 31.9412L62.1351 32.2319C62.4524 32.4159 62.8436 32.4167 63.1616 32.234C63.4796 32.0514 63.6761 31.7129 63.6768 31.3461C63.6778 30.9794 63.4828 30.6402 63.1655 30.4561Z" fill="black"/>
<path d="M67.1733 32.7821L66.6732 32.4926L67.2836 32.1268C67.7696 31.8351 67.9271 31.2047 67.6354 30.7188C67.3436 30.2328 66.7133 30.0753 66.2273 30.367L64.1257 31.6278C63.8144 31.8147 63.625 32.1522 63.6276 32.5154C63.6302 32.8786 63.8247 33.2133 64.1387 33.3956L66.1431 34.5582C66.4603 34.7422 66.8516 34.7432 67.1697 34.5604C67.4878 34.3777 67.6841 34.0392 67.6849 33.6724C67.6855 33.3056 67.4905 32.9663 67.1733 32.7821Z" fill="black"/>
<path d="M61.5009 33.2032L60.9758 33.5179C60.6597 33.7054 60.4681 34.0477 60.4734 34.4152C60.4787 34.7827 60.6804 35.1193 61.0018 35.2973C61.3233 35.4754 61.7155 35.4679 62.0301 35.2777L62.5552 34.963C63.0387 34.6708 63.195 34.0425 62.9046 33.5578C62.6143 33.0731 61.9865 32.9147 61.5009 33.2032Z" fill="black"/>
<path d="M58.872 34.7786L58.3469 35.0944C57.8637 35.3878 57.7087 36.0166 58.0001 36.5012C58.2915 36.9858 58.9196 37.1435 59.4054 36.8543L59.9305 36.5387C60.4155 36.2461 60.5719 35.6159 60.2799 35.1304C59.9879 34.6449 59.358 34.4874 58.872 34.7786Z" fill="black"/>
<path d="M56.2483 36.355L55.7232 36.6697C55.4072 36.8574 55.2159 37.1995 55.2214 37.5669C55.2269 37.9342 55.4284 38.2707 55.7497 38.4488C56.071 38.6269 56.4631 38.6195 56.7775 38.4296L57.3026 38.1149C57.7861 37.8227 57.9424 37.1945 57.652 36.7097C57.3617 36.2252 56.7341 36.0664 56.2483 36.355Z" fill="black"/>
<path d="M53.6226 37.9295L53.0964 38.2442C52.6099 38.5353 52.4514 39.1658 52.7427 39.6522C53.0338 40.1388 53.6644 40.2972 54.1508 40.006L54.6769 39.6912C55.1635 39.4001 55.3219 38.7696 55.0307 38.2832C54.7395 37.7968 54.109 37.6384 53.6226 37.9295Z" fill="black"/>
<path d="M52.0213 39.4866C51.7 39.3089 51.3082 39.3163 50.9938 39.506L50.4687 39.8216C49.9837 40.1142 49.8272 40.7444 50.1192 41.2299C50.4113 41.7154 51.0412 41.8728 51.5271 41.5815L52.0522 41.2659C52.3672 41.0771 52.5573 40.7345 52.5509 40.3674C52.5445 40.0003 52.3426 39.6644 52.0213 39.4866Z" fill="black"/>
<path d="M49.3978 41.0631C49.0765 40.8851 48.6844 40.8924 48.37 41.0823L47.8449 41.3971C47.5289 41.5847 47.3376 41.9269 47.3431 42.2943C47.3486 42.6617 47.5501 42.9981 47.8714 43.1762C48.1927 43.3542 48.5848 43.3469 48.8992 43.157L49.4243 42.8423C49.7402 42.6546 49.9315 42.3124 49.926 41.945C49.9207 41.5777 49.7192 41.2414 49.3978 41.0631Z" fill="black"/>
<path d="M46.7711 42.6386C46.4498 42.4605 46.0577 42.4678 45.7433 42.6578L45.2182 42.9725C44.9022 43.1602 44.7109 43.5023 44.7164 43.8698C44.7218 44.237 44.9234 44.5735 45.2447 44.7516C45.5659 44.9297 45.958 44.9224 46.2725 44.7324L46.7976 44.4177C47.1135 44.23 47.3048 43.8879 47.2994 43.5205C47.2939 43.1532 47.0923 42.8168 46.7711 42.6386Z" fill="black"/>
<path d="M44.143 44.214C43.8218 44.0362 43.43 44.0437 43.1156 44.2334L42.5905 44.549C42.1054 44.8416 41.949 45.4718 42.241 45.9573C42.533 46.4428 43.1629 46.6002 43.6489 46.3089L44.174 45.9933C44.4888 45.8045 44.6791 45.4619 44.6727 45.0948C44.6662 44.7275 44.4643 44.3918 44.143 44.214Z" fill="black"/>
<path d="M40.4887 45.8088L39.9636 46.1245C39.4786 46.4171 39.3221 47.0473 39.6141 47.5328C39.9062 48.0183 40.5361 48.1756 41.022 47.8844L41.5471 47.5687C42.0321 47.2761 42.1886 46.6459 41.8966 46.1604C41.6047 45.6748 40.9746 45.5175 40.4887 45.8088Z" fill="black"/>
<path d="M21.2214 30.0232C21.4074 30.0232 21.5901 29.9726 21.7496 29.8768L22.2747 29.5612C22.5896 29.3724 22.7798 29.0298 22.7734 28.6627C22.767 28.2956 22.5652 27.9598 22.2438 27.7821C21.9225 27.6043 21.5307 27.6118 21.2163 27.8014L20.6912 28.1171C20.2956 28.3547 20.1073 28.8272 20.231 29.2719C20.3547 29.7166 20.76 30.0238 21.2214 30.0232Z" fill="black"/>
<path d="M18.0696 31.9132C18.255 31.9134 18.437 31.8628 18.5957 31.7668L19.6461 31.1374C19.962 30.9497 20.1533 30.6076 20.1479 30.2401C20.1424 29.8727 19.9408 29.5363 19.6196 29.3583C19.2983 29.1802 18.9062 29.1875 18.5918 29.3775L17.5414 30.0069C17.1457 30.2441 16.9571 30.7163 17.0803 31.161C17.2036 31.6058 17.6083 31.9135 18.0696 31.9132Z" fill="black"/>
<path d="M15.4439 33.4897C15.6299 33.4897 15.8126 33.4391 15.9721 33.3433L16.4972 33.0277C16.812 32.8389 17.0023 32.4963 16.9959 32.1292C16.9895 31.7621 16.7877 31.4263 16.4662 31.2486C16.145 31.0708 15.7532 31.0783 15.4387 31.2679L14.9136 31.5835C14.518 31.8212 14.3297 32.2937 14.4534 32.7384C14.5771 33.183 14.9823 33.4904 15.4439 33.4897Z" fill="black"/>
<path d="M40.9117 48.5397L38.9073 47.3771C38.5839 47.1902 38.1844 47.1932 37.8639 47.3852L35.7634 48.6459C35.2775 48.9376 35.12 49.568 35.4117 50.0539C35.7034 50.5398 36.3337 50.6974 36.8197 50.4056L38.4011 49.4566L39.8813 50.3155C40.3716 50.6 40.9999 50.4331 41.2844 49.9427C41.569 49.4525 41.402 48.8243 40.9117 48.5397Z" fill="black"/>
<path d="M77.9197 31.8413C77.9132 31.8247 77.9068 31.809 77.8993 31.7927C77.8138 31.5993 77.6705 31.4373 77.4889 31.329L55.7216 18.6948L45.3935 0.511427L45.3887 0.50579L45.3885 0.505333L45.3769 0.492232C45.3105 0.3792 45.2229 0.280031 45.119 0.200208C45.1047 0.18924 45.0863 0.186651 45.0713 0.176597C44.979 0.110788 44.8764 0.0608226 44.7676 0.0286802C44.7056 0.0181691 44.6427 0.0134471 44.5798 0.0143611C44.5135 0.0030884 44.4462 -0.00163389 44.379 0.000498781C44.2573 0.0174078 44.1397 0.0561002 44.0315 0.114596C44.0195 0.12069 44.0062 0.119928 43.9945 0.126783L43.9939 0.12724L43.9864 0.129678L31.5922 7.28526C31.5863 7.28861 31.5834 7.2947 31.5776 7.29821L31.5612 7.3043L18.8634 15.2388C18.3998 15.5288 18.2452 16.1313 18.5116 16.6089L20.9033 20.898L0.503159 33.133C0.441616 33.172 0.384186 33.2175 0.33224 33.2687C0.320358 33.2797 0.306191 33.2868 0.294918 33.2984C0.220275 33.3779 0.158884 33.469 0.113184 33.568C0.0956657 33.6048 0.0804323 33.6425 0.0676363 33.6811C0.0380835 33.7664 0.0202604 33.8552 0.0143194 33.9452C0.0124914 33.9697 0 33.9908 0 34.0159V40.1734C0.00624569 40.2278 0.0170614 40.2817 0.0324471 40.3343C0.0386928 40.3838 0.0484422 40.4328 0.0619999 40.4808C0.0891154 40.5623 0.126894 40.64 0.174118 40.7117C0.195901 40.7492 0.220123 40.7852 0.246629 40.8193C0.306191 40.8889 0.375198 40.95 0.451518 41.0009C0.475587 41.0179 0.490211 41.0432 0.516107 41.0583L37.5843 62.5785C37.607 62.5916 37.6321 62.5968 37.6556 62.6081C37.6891 62.6242 37.7234 62.6384 37.7584 62.6507C37.8562 62.6865 37.9589 62.7072 38.0629 62.7121C38.0765 62.7126 38.0877 62.7199 38.1015 62.7199C38.119 62.7199 38.1334 62.7109 38.1507 62.7098C38.248 62.7045 38.3441 62.6852 38.436 62.6524C38.4786 62.6375 38.5204 62.6196 38.5606 62.5991C38.5824 62.5881 38.6064 62.5832 38.6276 62.5704L77.5019 39.2544C77.541 39.2237 77.5779 39.1902 77.6119 39.154C77.7511 39.0368 77.8588 38.8868 77.9254 38.7174C77.9546 38.6328 77.9724 38.5446 77.9782 38.4554C77.9807 38.4266 77.995 38.4019 77.995 38.3725V32.2505C77.9954 32.2368 78.0002 32.2238 78 32.21C77.9965 32.0832 77.9692 31.9582 77.9197 31.8413ZM44.1194 2.42322L56.0115 23.3601L45.3972 29.4887L33.5011 8.55374L44.1194 2.42322ZM51.2985 28.4518V34.3174L40.9527 40.2908V33.0666L41.114 33.3405C41.2554 33.5804 41.4881 33.7525 41.759 33.8174C42.0298 33.8823 42.3155 33.8342 42.5501 33.6843L45.5431 31.7748L51.2985 28.4518ZM20.7796 16.4614L31.7417 9.6114L43.6417 30.5534L42.3429 31.3822L32.9894 15.5084C32.705 15.0261 32.0866 14.8607 31.5994 15.1366L22.8172 20.1165L20.7796 16.4614ZM34.4846 30.9071L30.5119 28.614C30.1943 28.4306 29.8031 28.4307 29.4856 28.614C29.1681 28.7972 28.9725 29.1362 28.9725 29.5029V34.5594L25.064 32.3029V21.2013L31.7336 17.4193L38.9381 29.647C38.9193 29.7081 38.9067 29.771 38.9003 29.8345V40.2904L34.9978 38.0375V31.7961C34.9978 31.4294 34.8022 31.0905 34.4846 30.9071ZM32.9453 32.3884V36.853L31.0251 35.7446V31.28L32.9453 32.3884ZM37.0753 59.9089L2.05239 39.5764V35.7929L37.0753 56.1253V59.9089ZM38.0916 54.3415L3.05064 33.9988L22.2043 22.5109C22.4504 22.5679 22.7087 22.5325 22.9302 22.4114L23.0114 22.3653V32.8953C23.0113 33.262 23.207 33.6009 23.5245 33.7844L29.4853 37.2257L29.4855 37.2259L29.7609 37.3849L39.4132 42.9574L39.417 42.959C39.4741 42.9893 39.534 43.014 39.5959 43.0327C39.6192 43.0408 39.6408 43.0542 39.6644 43.0606C39.7224 43.0732 39.7815 43.081 39.841 43.0836C39.8696 43.086 39.8976 43.0947 39.9263 43.0947H39.9273C40.1071 43.0949 40.2838 43.0475 40.4395 42.9574L52.8326 35.8017C52.86 35.7799 52.8864 35.7568 52.9114 35.7322C52.9804 35.6853 53.0431 35.6299 53.0983 35.5674C53.1767 35.4631 53.2404 35.3485 53.2875 35.2267C53.3018 35.1764 53.3122 35.1252 53.3184 35.0733C53.3336 35.0207 53.3446 34.9671 53.3508 34.9127V27.2664L53.4975 27.1817C53.5346 27.2204 53.5746 27.2559 53.6174 27.2879L54.1185 27.5786C54.5433 27.8263 55.0843 27.7372 55.4072 27.3661C55.7301 26.995 55.7436 26.4469 55.4395 26.0604L57.9219 24.6273C58.1577 24.4912 58.3299 24.267 58.4004 24.0041C58.4709 23.7411 58.4339 23.4608 58.2979 23.2252L58.29 23.2162L57.7332 22.2361L74.9544 32.231L38.0916 54.3415ZM75.9424 37.7964L39.1279 59.8773V56.113L75.9426 34.0321V37.7964H75.9424Z" fill="black"/>
</svg>
