<?xml version="1.0" encoding="utf-8"?>
<!-- Generator: Adobe Illustrator 23.0.1, SVG Export Plug-In . SVG Version: 6.00 Build 0)  -->
<svg version="1.1" id="Capa_1" xmlns="http://www.w3.org/2000/svg" xmlns:xlink="http://www.w3.org/1999/xlink" x="0px" y="0px"
	 viewBox="0 0 126.9 31" style="enable-background:new 0 0 126.9 31;" xml:space="preserve">
<style type="text/css">
	.st0{fill:#00652E;}
	.st1{clip-path:url(#SVGID_2_);}
	.st2{fill:#FFCB05;}
	.st3{fill:#03953F;}
</style>
<title>LOGO VSACH</title>
<g>
	<g>
		<g>
			<path class="st0" d="M50.1,5.4h1l-2.1,6h-1l-2.1-6h1l1.3,3.8c0.1,0.2,0.1,0.4,0.2,0.7c0.1,0.3,0.1,0.5,0.1,0.6
				c0-0.2,0.1-0.4,0.2-0.7c0.1-0.3,0.1-0.5,0.2-0.6L50.1,5.4z"/>
			<path class="st0" d="M51.7,5.6c0-0.2,0-0.3,0.1-0.4c0.1-0.1,0.2-0.1,0.4-0.1s0.3,0,0.4,0.1c0.1,0.1,0.1,0.2,0.1,0.4
				c0,0.2,0,0.3-0.1,0.4c-0.1,0.1-0.2,0.1-0.4,0.1S52,6.1,51.9,6C51.8,5.9,51.7,5.8,51.7,5.6z M52.8,11.4h-1V6.8h1V11.4z"/>
			<path class="st0" d="M55.1,11.4h-1V5h1V11.4z"/>
			<path class="st0" d="M57.5,11.4h-1V5h1V11.4z"/>
			<path class="st0" d="M61.8,11.4l-0.2-0.6h0c-0.2,0.3-0.4,0.5-0.7,0.6c-0.2,0.1-0.5,0.2-0.9,0.2c-0.4,0-0.8-0.1-1-0.4
				s-0.4-0.6-0.4-1c0-0.5,0.2-0.8,0.5-1.1c0.3-0.2,0.9-0.4,1.6-0.4l0.8,0V8.4c0-0.3-0.1-0.5-0.2-0.7c-0.1-0.1-0.3-0.2-0.6-0.2
				c-0.2,0-0.5,0-0.7,0.1c-0.2,0.1-0.4,0.2-0.6,0.3l-0.3-0.7c0.3-0.1,0.5-0.2,0.8-0.3c0.3-0.1,0.6-0.1,0.8-0.1c0.6,0,1,0.1,1.3,0.4
				c0.3,0.3,0.4,0.7,0.4,1.2v3.1L61.8,11.4L61.8,11.4z M60.3,10.8c0.3,0,0.6-0.1,0.9-0.3c0.2-0.2,0.3-0.5,0.3-0.8V9.2l-0.6,0
				c-0.5,0-0.8,0.1-1,0.2c-0.2,0.1-0.3,0.3-0.3,0.6c0,0.2,0.1,0.4,0.2,0.5C59.9,10.7,60.1,10.8,60.3,10.8z"/>
		</g>
	</g>
	<g>
		<g>
			<path class="st0" d="M52.8,19.9c0,0.6-0.1,1.1-0.4,1.5c-0.3,0.4-0.7,0.8-1.2,1c-0.5,0.3-1.2,0.4-1.9,0.4c-0.6,0-1.1,0-1.5-0.1
				c-0.4-0.1-0.8-0.2-1.3-0.4v-2.2c0.5,0.2,0.9,0.4,1.5,0.6c0.5,0.1,1,0.2,1.4,0.2c0.4,0,0.6-0.1,0.8-0.2c0.2-0.1,0.3-0.3,0.3-0.5
				c0-0.1,0-0.2-0.1-0.3c-0.1-0.1-0.2-0.2-0.3-0.3c-0.2-0.1-0.6-0.3-1.2-0.6c-0.6-0.3-1-0.5-1.3-0.8c-0.3-0.3-0.5-0.5-0.7-0.9
				c-0.1-0.3-0.2-0.7-0.2-1.2c0-0.8,0.3-1.5,0.9-2c0.6-0.5,1.5-0.7,2.5-0.7c0.9,0,1.9,0.2,2.9,0.7L52,16c-0.9-0.4-1.6-0.6-2.2-0.6
				c-0.3,0-0.5,0.1-0.7,0.2c-0.1,0.1-0.2,0.3-0.2,0.4c0,0.2,0.1,0.3,0.3,0.5c0.2,0.1,0.7,0.4,1.5,0.8c0.8,0.3,1.3,0.7,1.6,1.1
				C52.6,18.8,52.8,19.3,52.8,19.9z"/>
			<path class="st0" d="M58.6,22.7l-0.5-0.9h-0.1c-0.3,0.4-0.7,0.7-1,0.8c-0.3,0.2-0.8,0.2-1.3,0.2c-0.7,0-1.2-0.2-1.6-0.6
				c-0.4-0.4-0.6-0.9-0.6-1.7c0-0.8,0.3-1.3,0.8-1.7s1.3-0.6,2.3-0.6l1.2,0v-0.1c0-0.6-0.3-0.9-0.9-0.9c-0.5,0-1.2,0.2-2,0.5
				l-0.7-1.6c0.8-0.4,1.9-0.6,3.1-0.6c0.9,0,1.6,0.2,2.1,0.7c0.5,0.4,0.7,1.1,0.7,1.9v4.6L58.6,22.7L58.6,22.7z M56.8,21.1
				c0.3,0,0.5-0.1,0.8-0.3c0.2-0.2,0.3-0.4,0.3-0.7v-0.5l-0.6,0c-0.8,0-1.2,0.3-1.2,0.9C56.1,20.9,56.3,21.1,56.8,21.1z"/>
			<path class="st0" d="M66.4,22.7v-3.8c0-0.5-0.1-0.8-0.2-1.1c-0.1-0.2-0.3-0.3-0.6-0.3c-0.4,0-0.7,0.2-0.9,0.5
				c-0.2,0.3-0.3,0.9-0.3,1.7v3.1H62v-7h1.8l0.3,0.9h0.1c0.2-0.3,0.5-0.6,0.9-0.7c0.4-0.2,0.8-0.3,1.3-0.3c0.8,0,1.4,0.2,1.8,0.7
				c0.4,0.4,0.6,1.1,0.6,1.9v4.6L66.4,22.7L66.4,22.7z"/>
			<path class="st0" d="M79.5,22.7L79,21h-2.9l-0.5,1.7h-2.7l3-9.1h3.3l3,9.1H79.5z M78.5,19l-0.4-1.5c-0.1-0.3-0.2-0.8-0.3-1.3
				c-0.1-0.5-0.2-0.9-0.3-1.1c0,0.2-0.1,0.6-0.2,1c-0.1,0.5-0.3,1.4-0.7,2.9L78.5,19L78.5,19z"/>
			<path class="st0" d="M87.4,22.7v-3.8c0-0.5-0.1-0.8-0.2-1.1c-0.1-0.2-0.3-0.3-0.6-0.3c-0.4,0-0.7,0.2-0.9,0.5
				c-0.2,0.3-0.3,0.9-0.3,1.7v3.1H83v-7h1.8l0.3,0.9h0.1c0.2-0.3,0.5-0.6,0.9-0.7c0.4-0.2,0.8-0.3,1.3-0.3c0.8,0,1.4,0.2,1.8,0.7
				c0.4,0.4,0.6,1.1,0.6,1.9v4.6L87.4,22.7L87.4,22.7z"/>
			<path class="st0" d="M95,20.9c0.3,0,0.7-0.1,1.2-0.2v1.8c-0.3,0.1-0.6,0.2-0.9,0.3c-0.3,0.1-0.6,0.1-1,0.1
				c-0.8,0-1.4-0.2-1.8-0.6c-0.4-0.4-0.5-1-0.5-1.8v-2.9H91v-1l1.1-0.8l0.6-1.5h1.6v1.4H96v1.8h-1.7v2.7
				C94.3,20.7,94.5,20.9,95,20.9z"/>
			<path class="st0" d="M104.1,19.2c0,1.1-0.3,2.1-0.9,2.7c-0.6,0.6-1.5,1-2.6,1c-1.1,0-1.9-0.3-2.5-1c-0.6-0.7-0.9-1.6-0.9-2.7
				c0-1.1,0.3-2,0.9-2.7c0.6-0.6,1.5-0.9,2.6-0.9c0.7,0,1.3,0.2,1.8,0.4c0.5,0.3,0.9,0.7,1.2,1.3C103.9,17.8,104.1,18.4,104.1,19.2z
				 M99.5,19.2c0,0.6,0.1,1.1,0.2,1.4c0.2,0.3,0.4,0.5,0.8,0.5c0.4,0,0.6-0.2,0.8-0.5c0.2-0.3,0.2-0.8,0.2-1.4c0-0.6-0.1-1-0.2-1.4
				c-0.2-0.3-0.4-0.5-0.8-0.5c-0.4,0-0.6,0.2-0.8,0.5C99.6,18.1,99.5,18.6,99.5,19.2z"/>
			<path class="st0" d="M109.9,22.7v-3.8c0-0.5-0.1-0.8-0.2-1.1c-0.1-0.2-0.3-0.3-0.6-0.3c-0.4,0-0.7,0.2-0.9,0.5
				c-0.2,0.3-0.3,0.9-0.3,1.7v3.1h-2.4v-7h1.8l0.3,0.9h0.1c0.2-0.3,0.5-0.6,0.9-0.7c0.4-0.2,0.8-0.3,1.3-0.3c0.8,0,1.4,0.2,1.8,0.7
				c0.4,0.4,0.6,1.1,0.6,1.9v4.6L109.9,22.7L109.9,22.7z"/>
			<path class="st0" d="M113.9,13.9c0-0.4,0.1-0.6,0.3-0.8c0.2-0.2,0.5-0.3,1-0.3c0.4,0,0.8,0.1,1,0.3s0.3,0.4,0.3,0.8
				c0,0.7-0.4,1.1-1.3,1.1C114.4,15,113.9,14.6,113.9,13.9z M116.4,22.7H114v-7h2.4V22.7z"/>
			<path class="st0" d="M124.8,19.2c0,1.1-0.3,2.1-0.9,2.7c-0.6,0.6-1.5,1-2.6,1c-1.1,0-1.9-0.3-2.5-1c-0.6-0.7-0.9-1.6-0.9-2.7
				c0-1.1,0.3-2,0.9-2.7c0.6-0.6,1.5-0.9,2.6-0.9c0.7,0,1.3,0.2,1.8,0.4c0.5,0.3,0.9,0.7,1.2,1.3C124.7,17.8,124.8,18.4,124.8,19.2z
				 M120.3,19.2c0,0.6,0.1,1.1,0.2,1.4c0.2,0.3,0.4,0.5,0.8,0.5c0.4,0,0.6-0.2,0.8-0.5c0.2-0.3,0.2-0.8,0.2-1.4c0-0.6-0.1-1-0.2-1.4
				c-0.2-0.3-0.4-0.5-0.8-0.5c-0.4,0-0.6,0.2-0.8,0.5C120.4,18.1,120.3,18.6,120.3,19.2z"/>
		</g>
	</g>
	<g>
		<g>
			<path class="st0" d="M65.9,25.7c-0.4,0-0.7,0.1-0.9,0.4c-0.2,0.3-0.3,0.6-0.3,1.1c0,0.5,0.1,0.9,0.3,1.1c0.2,0.3,0.5,0.4,0.9,0.4
				c0.2,0,0.3,0,0.5-0.1c0.2,0,0.3-0.1,0.5-0.1V29c-0.3,0.1-0.7,0.2-1.1,0.2c-0.6,0-1-0.2-1.3-0.5S64,27.8,64,27.2
				c0-0.4,0.1-0.8,0.2-1.1c0.2-0.3,0.4-0.5,0.7-0.7c0.3-0.2,0.6-0.3,1-0.3c0.4,0,0.8,0.1,1.1,0.3l-0.2,0.5c-0.1-0.1-0.3-0.1-0.4-0.2
				C66.2,25.7,66,25.7,65.9,25.7z"/>
			<path class="st0" d="M73.1,29.2h-0.7v-1.8h-1.8v1.8h-0.7v-4h0.7v1.6h1.8v-1.6h0.7V29.2z"/>
			<path class="st0" d="M76.3,29.2v-4H77v4H76.3z"/>
			<path class="st0" d="M82,25.7c-0.4,0-0.7,0.1-0.9,0.4c-0.2,0.3-0.3,0.6-0.3,1.1c0,0.5,0.1,0.9,0.3,1.1c0.2,0.3,0.5,0.4,0.9,0.4
				c0.2,0,0.3,0,0.5-0.1c0.2,0,0.3-0.1,0.5-0.1V29c-0.3,0.1-0.7,0.2-1.1,0.2c-0.6,0-1-0.2-1.3-0.5c-0.3-0.3-0.5-0.9-0.5-1.5
				c0-0.4,0.1-0.8,0.2-1.1c0.2-0.3,0.4-0.5,0.7-0.7c0.3-0.2,0.6-0.3,1-0.3c0.4,0,0.8,0.1,1.1,0.3l-0.2,0.5c-0.1-0.1-0.3-0.1-0.4-0.2
				C82.3,25.7,82.1,25.7,82,25.7z"/>
			<path class="st0" d="M86,29.2v-4h0.7v3.4h1.7v0.6H86z"/>
			<path class="st0" d="M93.8,29.2l-0.4-1.1h-1.5l-0.4,1.1h-0.7l1.5-4H93l1.5,4H93.8z M93.2,27.5l-0.4-1.1c0-0.1-0.1-0.2-0.1-0.3
				c0-0.2-0.1-0.3-0.1-0.3c-0.1,0.2-0.1,0.5-0.2,0.7l-0.4,1L93.2,27.5L93.2,27.5z"/>
			<path class="st0" d="M98.3,27l0.9-1.8h0.7l-1.3,2.4v1.6H98v-1.5l-1.3-2.5h0.7L98.3,27z"/>
			<path class="st0" d="M106.3,27.2c0,0.6-0.2,1.1-0.5,1.5c-0.3,0.4-0.8,0.5-1.4,0.5c-0.6,0-1.1-0.2-1.4-0.5
				c-0.3-0.4-0.5-0.9-0.5-1.5c0-0.7,0.2-1.2,0.5-1.5c0.3-0.3,0.8-0.5,1.4-0.5c0.6,0,1,0.2,1.4,0.5C106.1,26,106.3,26.5,106.3,27.2z
				 M103.2,27.2c0,0.5,0.1,0.9,0.3,1.1c0.2,0.3,0.5,0.4,0.9,0.4c0.4,0,0.7-0.1,0.9-0.4c0.2-0.3,0.3-0.6,0.3-1.1
				c0-0.5-0.1-0.9-0.3-1.1c-0.2-0.3-0.5-0.4-0.9-0.4c-0.4,0-0.7,0.1-0.9,0.4C103.3,26.3,103.2,26.7,103.2,27.2z"/>
		</g>
	</g>
	<g>
		<g>
			<defs>
				<rect id="SVGID_1_" x="1" y="0.9" width="41.2" height="29.2"/>
			</defs>
			<clipPath id="SVGID_2_">
				<use xlink:href="#SVGID_1_"  style="overflow:visible;"/>
			</clipPath>
			<g class="st1">
				<g>
					<path class="st2" d="M23.6,16.9c0.7-8,7.8-14,15.8-13.3c8.1,0.7,14.1,7.7,13.4,15.8c-0.2,2.3-1.4,5.2-2.5,7.1
						c-0.5-0.4-9.2-3.6-9.9-3.9C32.5,19.4,32.3,19.4,23.6,16.9z"/>
				</g>
				<path class="st3" d="M48.7,28.2c0-0.1-0.1-0.3-0.2-0.5l0,0c0,0,0,0,0,0c-0.3-0.3-0.8-0.6-1.4-0.9c-5-3-12.5-5.5-17.7-7
					c-2-0.6-3.9-1.2-5.6-1.6c-0.1,0-0.2,0-0.2,0h0c-13.3-2.9-20.8,0.5-20.8,0.5l1.9,3.6c12.5-4.8,25.6-1,25.6-1
					c-13.7-2.3-23.4,1.4-23.4,1.4l2.6,4.8c9.2-4.9,25.1-3.8,32.6-1.2C49.4,29,48.7,28.2,48.7,28.2z"/>
			</g>
		</g>
	</g>
</g>
</svg>
