<?xml version="1.0" encoding="utf-8"?>
<!-- Generator: Adobe Illustrator 23.0.4, SVG Export Plug-In . SVG Version: 6.00 Build 0)  -->
<svg version="1.1" id="Capa_1" xmlns="http://www.w3.org/2000/svg" xmlns:xlink="http://www.w3.org/1999/xlink" x="0px" y="0px"
	 viewBox="0 0 300 122" style="enable-background:new 0 0 300 122;" xml:space="preserve">
<style type="text/css">
	.st0{fill:#528B3D;}
	.st1{fill:#005F2C;}
	.st2{fill:#538138;}
	.st3{fill:#E4D639;}
</style>
<g>
	<g>
		<g>
			<path class="st0" d="M13.3,90l0-25.2l27.2-19.9c1.4-1,3.2-1,4.6,0l5.8,4.3l8.1-6L46.7,34c-2.3-1.7-5.4-1.7-7.7,0L5.8,58.3
				c-1.4,1-2.2,2.6-2.2,4.3l0,27.4L13.3,90z"/>
		</g>
		<g>
			<path class="st0" d="M45.2,89.9l0-25.2L69,47.3c3.7-2.7,8.2-4.2,12.8-4.2l9.2,0L78.6,34c-2.3-1.7-5.4-1.7-7.7,0L37.7,58.2
				c-1.4,1-2.2,2.6-2.2,4.3l0,27.4L45.2,89.9z"/>
		</g>
	</g>
	<g>
		<path class="st1" d="M90.3,80c0,3-1.1,5.4-3.3,7.1c-2.2,1.7-5.2,2.6-9.1,2.6c-3.9,0-7-0.6-9.5-1.8l0-5.3c1.6,0.7,3.2,1.3,5,1.7
			c1.7,0.4,3.4,0.6,4.9,0.6c2.2,0,3.8-0.4,4.9-1.3c1-0.8,1.6-2,1.6-3.4c0-1.3-0.5-2.4-1.5-3.2c-1-0.9-3-1.9-6-3.1
			c-3.1-1.3-5.3-2.7-6.6-4.3s-1.9-3.6-1.9-5.8c0-2.8,1-5.1,3-6.7c2-1.6,4.7-2.5,8.1-2.5c3.3,0,6.5,0.7,9.7,2.1L88,61.4
			c-3-1.3-5.7-1.9-8.1-1.9c-1.8,0-3.2,0.4-4.1,1.2c-0.9,0.8-1.4,1.8-1.4,3.1c0,0.9,0.2,1.6,0.6,2.3c0.4,0.6,1,1.2,1.8,1.8
			c0.9,0.6,2.4,1.3,4.6,2.2c2.5,1,4.3,2,5.5,2.9c1.2,0.9,2,1.9,2.6,3.1S90.3,78.5,90.3,80z"/>
		<path class="st1" d="M108.8,89.3l-0.9-3l-0.2,0c-1,1.3-2.1,2.2-3.2,2.7c-1.1,0.5-2.4,0.7-4.1,0.7c-2.1,0-3.8-0.6-5-1.7
			c-1.2-1.1-1.8-2.8-1.8-4.9c0-2.2,0.8-3.9,2.5-5.1c1.7-1.1,4.2-1.8,7.6-1.9l3.7-0.1l0-1.2c0-1.4-0.3-2.4-1-3.1c-0.6-0.7-1.7-1-3-1
			c-1.1,0-2.2,0.2-3.2,0.5c-1,0.3-2,0.7-2.9,1.2l-1.5-3.3c1.2-0.6,2.5-1.1,3.9-1.4c1.4-0.3,2.7-0.5,4-0.5c2.8,0,4.8,0.6,6.2,1.8
			c1.4,1.2,2.1,3.1,2.1,5.7l0,14.6L108.8,89.3z M101.9,86.1c1.7,0,3-0.5,4-1.4c1-0.9,1.5-2.2,1.5-3.9l0-1.9l-2.8,0.1
			c-2.2,0.1-3.7,0.4-4.7,1.1c-1,0.6-1.5,1.6-1.5,3c0,1,0.3,1.7,0.9,2.2C99.9,85.9,100.8,86.1,101.9,86.1z"/>
		<path class="st1" d="M137.2,89.2l-4.6,0l0-13.3c0-1.7-0.3-2.9-1-3.7c-0.7-0.8-1.7-1.2-3.2-1.2c-1.9,0-3.4,0.6-4.3,1.7
			c-0.9,1.2-1.3,3.1-1.3,5.8l0,10.8l-4.6,0l0-21.7l3.6,0l0.7,2.8l0.2,0c0.7-1,1.6-1.8,2.8-2.4s2.5-0.8,4-0.8c5.2,0,7.8,2.6,7.8,7.9
			L137.2,89.2z"/>
		<path class="st1" d="M151.3,85.9c1.1,0,2.2-0.2,3.4-0.5l0,3.5c-0.5,0.2-1.2,0.4-2,0.6c-0.8,0.2-1.6,0.2-2.5,0.2
			c-4.4,0-6.6-2.3-6.6-6.9l0-11.7l-3,0l0-2l3.2-1.7l1.6-4.6l2.8,0l0,4.8l6.2,0l0,3.5l-6.2,0l0,11.6c0,1.1,0.3,1.9,0.8,2.5
			C149.7,85.6,150.4,85.9,151.3,85.9z"/>
		<path class="st1" d="M172.2,89.2l-0.9-3l-0.2,0c-1,1.3-2.1,2.2-3.2,2.7c-1.1,0.5-2.4,0.7-4.1,0.7c-2.1,0-3.8-0.6-5-1.7
			c-1.2-1.1-1.8-2.8-1.8-4.9c0-2.2,0.8-3.9,2.5-5.1c1.7-1.1,4.2-1.8,7.6-1.9l3.7-0.1l0-1.2c0-1.4-0.3-2.4-1-3.1c-0.6-0.7-1.7-1-3-1
			c-1.1,0-2.2,0.2-3.2,0.5c-1,0.3-2,0.7-2.9,1.2l-1.5-3.3c1.2-0.6,2.5-1.1,3.9-1.4c1.4-0.3,2.7-0.5,4-0.5c2.8,0,4.8,0.6,6.2,1.8
			c1.4,1.2,2.1,3.1,2.1,5.7l0,14.6L172.2,89.2z M165.3,86c1.7,0,3-0.5,4-1.4c1-0.9,1.5-2.2,1.5-3.9l0-1.9l-2.8,0.1
			c-2.2,0.1-3.7,0.4-4.7,1.1c-1,0.6-1.5,1.6-1.5,3c0,1,0.3,1.7,0.9,2.2S164.1,86,165.3,86z"/>
		<path class="st1" d="M205,89.1l-8.5-24.5l-0.2,0c0.2,3.6,0.4,7,0.4,10.2l0,14.3l-4.4,0l0-29.3l6.8,0l8.2,23.3l0.1,0l8.3-23.3
			l6.8,0l0,29.3l-4.6,0l0-14.5c0-1.5,0-3.4,0.1-5.7c0.1-2.3,0.1-3.8,0.2-4.3l-0.2,0l-8.8,24.5L205,89.1z"/>
		<path class="st1" d="M243.2,89.1l-0.9-3.1l-0.2,0c-1.1,1.4-2.1,2.3-3.2,2.8c-1.1,0.5-2.5,0.7-4.2,0.7c-2.2,0-3.9-0.6-5.1-1.8
			c-1.2-1.2-1.8-2.8-1.8-5c0-2.3,0.8-4,2.5-5.2c1.7-1.2,4.3-1.8,7.8-1.9l3.8-0.1l0-1.2c0-1.4-0.3-2.5-1-3.2c-0.7-0.7-1.7-1.1-3.1-1
			c-1.1,0-2.2,0.2-3.3,0.5c-1,0.3-2,0.7-3,1.2l-1.5-3.4c1.2-0.6,2.5-1.1,3.9-1.4c1.4-0.3,2.8-0.5,4-0.5c2.8,0,4.9,0.6,6.4,1.8
			c1.4,1.2,2.2,3.2,2.2,5.8l0,14.9L243.2,89.1z M236.1,85.9c1.7,0,3.1-0.5,4.1-1.4c1-1,1.6-2.3,1.5-4l0-1.9l-2.8,0.1
			c-2.2,0.1-3.8,0.5-4.8,1.1c-1,0.7-1.5,1.7-1.5,3c0,1,0.3,1.8,0.9,2.3C234.1,85.6,235,85.9,236.1,85.9z"/>
		<path class="st1" d="M263.9,66.5c0.9,0,1.7,0.1,2.3,0.2l-0.5,4.4c-0.7-0.2-1.4-0.2-2.1-0.2c-1.9,0-3.4,0.6-4.6,1.9
			c-1.2,1.2-1.8,2.8-1.7,4.8l0,11.6l-4.7,0l0-22.2l3.7,0l0.6,3.9l0.2,0c0.7-1.3,1.7-2.4,2.9-3.2C261.3,66.9,262.6,66.5,263.9,66.5z"
			/>
		<path class="st1" d="M269.7,64.2l0-0.5c0.8-0.9,1.5-2,2.4-3.1c0.8-1.2,1.4-2.1,1.9-3l5.5,0l0,0.4c-0.7,0.8-1.7,1.9-3.1,3.2
			c-1.4,1.3-2.5,2.3-3.5,3L269.7,64.2z M274.7,89l-4.7,0l0-22.2l4.7,0L274.7,89z"/>
		<path class="st1" d="M294.9,89l-0.9-3.1l-0.2,0c-1.1,1.4-2.1,2.3-3.2,2.8c-1.1,0.5-2.5,0.7-4.2,0.7c-2.2,0-3.9-0.6-5.1-1.8
			c-1.2-1.2-1.8-2.8-1.8-5c0-2.3,0.8-4,2.5-5.2c1.7-1.2,4.3-1.8,7.8-1.9l3.8-0.1l0-1.2c0-1.4-0.3-2.5-1-3.2c-0.7-0.7-1.7-1.1-3.1-1
			c-1.1,0-2.2,0.2-3.3,0.5c-1,0.3-2,0.7-3,1.2l-1.5-3.4c1.2-0.6,2.5-1.1,3.9-1.4c1.4-0.3,2.8-0.5,4-0.5c2.8,0,4.9,0.6,6.4,1.8
			c1.4,1.2,2.2,3.2,2.2,5.8l0,14.9L294.9,89z M287.9,85.8c1.7,0,3.1-0.5,4.1-1.4c1-1,1.6-2.3,1.5-4l0-1.9l-2.8,0.1
			c-2.2,0.1-3.8,0.5-4.8,1.1c-1,0.7-1.5,1.7-1.5,3c0,1,0.3,1.8,0.9,2.3C285.8,85.5,286.7,85.8,287.9,85.8z"/>
	</g>
	<g>
		<path class="st2" d="M268.2,111.6l0-14.5l2.4,0l0,14.5L268.2,111.6z"/>
		<path class="st2" d="M280.3,99c-1.4,0-2.4,0.5-3.2,1.4c-0.8,1-1.2,2.3-1.2,4c0,1.8,0.4,3.1,1.1,4c0.8,0.9,1.8,1.4,3.3,1.4
			c0.6,0,1.2-0.1,1.8-0.2c0.6-0.1,1.2-0.3,1.8-0.5l0,2c-1.1,0.4-2.4,0.6-3.9,0.6c-2.1,0-3.7-0.6-4.9-1.9s-1.7-3.1-1.7-5.5
			c0-1.5,0.3-2.8,0.8-3.9c0.5-1.1,1.3-2,2.4-2.6c1-0.6,2.3-0.9,3.7-0.9c1.5,0,2.8,0.3,4.1,0.9l-0.8,2c-0.5-0.2-1-0.4-1.5-0.6
			S280.9,99,280.3,99z"/>
		<path class="st2" d="M295.8,111.6l-1.5-4l-5.5,0l-1.4,4l-2.5,0l5.4-14.5l2.6,0l5.4,14.5L295.8,111.6z M293.7,105.5l-1.4-3.9
			c-0.1-0.3-0.2-0.7-0.4-1.2c-0.2-0.6-0.3-1-0.4-1.2c-0.2,0.8-0.4,1.7-0.8,2.7l-1.3,3.8L293.7,105.5z"/>
	</g>
	<g>
		<path class="st2" d="M109.5,30.4l2.7,0l-7.7,21.4l-2.5,0l-7.7-21.4l2.6,0l4.9,13.8c0.6,1.6,1,3.1,1.4,4.6c0.3-1.6,0.8-3.2,1.4-4.7
			L109.5,30.4z"/>
		<path class="st2" d="M113.9,31.4c0-0.6,0.1-1,0.4-1.2c0.3-0.3,0.6-0.4,1-0.4c0.4,0,0.7,0.1,1,0.4c0.3,0.3,0.4,0.7,0.4,1.2
			c0,0.5-0.1,1-0.4,1.2c-0.3,0.3-0.6,0.4-1,0.4c-0.4,0-0.8-0.1-1-0.4C114.1,32.3,113.9,31.9,113.9,31.4z M116.6,51.7l-2.4,0l0-16
			l2.4,0L116.6,51.7z"/>
		<path class="st2" d="M123.6,51.7l-2.4,0l0-22.7l2.4,0L123.6,51.7z"/>
		<path class="st2" d="M130.5,51.7l-2.4,0l0-22.7l2.4,0L130.5,51.7z"/>
		<path class="st2" d="M144.9,51.7l-0.5-2.3l-0.1,0c-0.8,1-1.6,1.7-2.4,2c-0.8,0.4-1.8,0.5-3,0.5c-1.6,0-2.8-0.4-3.7-1.2
			c-0.9-0.8-1.4-2-1.4-3.5c0-3.2,2.6-4.9,7.8-5.1l2.7-0.1l0-1c0-1.3-0.3-2.2-0.8-2.8c-0.5-0.6-1.4-0.9-2.6-0.9
			c-1.3,0-2.8,0.4-4.5,1.2l-0.7-1.9c0.8-0.4,1.7-0.8,2.6-1c0.9-0.2,1.9-0.4,2.8-0.4c1.9,0,3.3,0.4,4.2,1.3c0.9,0.8,1.4,2.2,1.4,4.1
			l0,10.9L144.9,51.7z M139.5,50c1.5,0,2.7-0.4,3.6-1.2c0.9-0.8,1.3-2,1.3-3.5l0-1.4l-2.4,0.1c-1.9,0.1-3.3,0.4-4.2,0.9
			c-0.9,0.5-1.3,1.4-1.3,2.5c0,0.9,0.3,1.5,0.8,2S138.5,50,139.5,50z"/>
	</g>
	<g>
		<path class="st3" d="M46.7,34l12.1,8.8l10.2-7.5c-0.3-1.9-0.9-3.9-1.7-5.7C61.6,16.1,46,9.8,32.5,15.5
			C19.2,21.1,12.9,36.1,18,49.4l20.9-15.3C41.2,32.4,44.3,32.4,46.7,34z"/>
	</g>
</g>
</svg>
