<?xml version="1.0" encoding="utf-8"?>
<!-- Generator: Adobe Illustrator 23.0.1, SVG Export Plug-In . SVG Version: 6.00 Build 0)  -->
<svg version="1.1" id="Capa_1" xmlns="http://www.w3.org/2000/svg" xmlns:xlink="http://www.w3.org/1999/xlink" x="0px" y="0px"
	 viewBox="0 0 154.1 41.2" style="enable-background:new 0 0 154.1 41.2;" xml:space="preserve">
<style type="text/css">
	.st0{fill:#568F37;}
	.st1{fill:#00602D;}
	.st2{fill:#F1CF00;}
</style>
<g>
	<g>
		<path class="st0" d="M56.9,30.1c-0.8,0-1.4,0.3-1.9,0.9c-0.5,0.6-0.7,1.4-0.7,2.4c0,1.1,0.2,1.9,0.7,2.4s1.1,0.8,1.9,0.8
			c0.4,0,0.7,0,1-0.1c0.3-0.1,0.7-0.2,1-0.3v1.2c-0.7,0.3-1.4,0.4-2.3,0.4c-1.2,0-2.2-0.4-2.8-1.2c-0.7-0.8-1-1.9-1-3.3
			c0-0.9,0.2-1.7,0.5-2.4c0.3-0.7,0.8-1.2,1.4-1.6c0.6-0.4,1.3-0.5,2.1-0.5c0.9,0,1.7,0.2,2.4,0.6l-0.5,1.2
			c-0.3-0.1-0.6-0.3-0.9-0.4S57.2,30.1,56.9,30.1z"/>
		<path class="st0" d="M69,37.7l-0.8-2.4h-3.2l-0.8,2.4h-1.5l3.2-8.7h1.5l3.2,8.7H69z M67.8,34.1L67,31.7c-0.1-0.2-0.1-0.4-0.2-0.7
			c-0.1-0.3-0.2-0.6-0.2-0.7c-0.1,0.5-0.3,1-0.5,1.6l-0.8,2.3H67.8z"/>
		<path class="st0" d="M75.9,34.3v3.5h-1.4V29h2.4c1.1,0,1.9,0.2,2.4,0.6c0.5,0.4,0.8,1.1,0.8,1.9c0,1.1-0.5,1.9-1.6,2.3l2.4,3.8
			h-1.6l-2-3.5H75.9z M75.9,33.1h1c0.6,0,1.1-0.1,1.4-0.4c0.3-0.2,0.4-0.6,0.4-1.1c0-0.5-0.2-0.8-0.5-1.1c-0.3-0.2-0.8-0.3-1.4-0.3
			h-0.9V33.1z"/>
		<path class="st0" d="M90.2,37.7l-0.8-2.4h-3.2l-0.8,2.4h-1.5l3.2-8.7h1.5l3.2,8.7H90.2z M89,34.1l-0.8-2.4
			c-0.1-0.2-0.1-0.4-0.2-0.7c-0.1-0.3-0.2-0.6-0.2-0.7c-0.1,0.5-0.3,1-0.5,1.6l-0.8,2.3H89z"/>
		<path class="st0" d="M95.8,29h2.5c1.2,0,2,0.2,2.5,0.5c0.5,0.3,0.8,0.9,0.8,1.7c0,0.5-0.1,0.9-0.4,1.3c-0.3,0.3-0.6,0.5-1.1,0.6
			v0.1c0.6,0.1,1,0.3,1.3,0.7c0.3,0.3,0.4,0.8,0.4,1.4c0,0.8-0.3,1.4-0.8,1.8c-0.5,0.4-1.3,0.7-2.2,0.7h-3V29z M97.2,32.6h1.3
			c0.6,0,1-0.1,1.3-0.3c0.3-0.2,0.4-0.5,0.4-1c0-0.4-0.1-0.7-0.4-0.9c-0.3-0.2-0.7-0.3-1.4-0.3h-1.2V32.6z M97.2,33.8v2.8h1.5
			c0.6,0,1-0.1,1.3-0.3c0.3-0.2,0.4-0.6,0.4-1.1c0-0.5-0.2-0.8-0.5-1c-0.3-0.2-0.8-0.3-1.4-0.3H97.2z"/>
		<path class="st0" d="M111.8,37.7l-0.8-2.4h-3.2l-0.8,2.4h-1.5l3.2-8.7h1.5l3.2,8.7H111.8z M110.6,34.1l-0.8-2.4
			c-0.1-0.2-0.1-0.4-0.2-0.7c-0.1-0.3-0.2-0.6-0.2-0.7c-0.1,0.5-0.3,1-0.5,1.6l-0.8,2.3H110.6z"/>
		<path class="st0" d="M119.7,33l2-4h1.5l-2.8,5.3v3.4H119v-3.3l-2.8-5.4h1.5L119.7,33z"/>
		<path class="st0" d="M127.2,37.7V29h1.4v7.5h3.6v1.2H127.2z"/>
		<path class="st0" d="M136.6,37.7V29h1.4v7.5h3.6v1.2H136.6z"/>
		<path class="st0" d="M153.4,33.4c0,1.4-0.3,2.5-1,3.3c-0.7,0.8-1.7,1.2-2.9,1.2c-1.3,0-2.3-0.4-2.9-1.2s-1-1.9-1-3.3
			s0.3-2.5,1-3.3s1.7-1.2,2.9-1.2c1.3,0,2.2,0.4,2.9,1.2S153.4,32,153.4,33.4z M147,33.4c0,1.1,0.2,1.9,0.6,2.4
			c0.4,0.6,1,0.8,1.9,0.8c0.8,0,1.4-0.3,1.9-0.8c0.4-0.5,0.6-1.4,0.6-2.4c0-1.1-0.2-1.9-0.6-2.4c-0.4-0.6-1-0.8-1.8-0.8
			c-0.8,0-1.5,0.3-1.9,0.8C147.2,31.5,147,32.3,147,33.4z"/>
	</g>
	<g>
		<path class="st1" d="M62.9,14.9c0,1.6-0.5,2.8-1.4,3.6c-0.9,0.9-2.2,1.3-3.9,1.3h-1.1v4.6h-3.8v-14h4.8c1.8,0,3.1,0.4,4,1.2
			C62.4,12.4,62.9,13.5,62.9,14.9z M56.5,16.7h0.7c0.6,0,1-0.2,1.4-0.5c0.3-0.3,0.5-0.8,0.5-1.3c0-0.9-0.5-1.4-1.6-1.4h-1V16.7z"/>
		<path class="st1" d="M75.2,19c0,1.8-0.5,3.2-1.4,4.1c-1,1-2.3,1.5-4,1.5c-1.6,0-3-0.5-3.9-1.5c-1-1-1.5-2.4-1.5-4.1
			c0-1.8,0.5-3.1,1.4-4.1c1-1,2.3-1.5,4-1.5c1.1,0,2,0.2,2.8,0.7c0.8,0.5,1.4,1.1,1.9,1.9S75.2,17.9,75.2,19z M68.2,19
			c0,0.9,0.1,1.6,0.4,2.1c0.2,0.5,0.7,0.7,1.3,0.7c0.6,0,1-0.2,1.2-0.7c0.2-0.5,0.4-1.2,0.4-2.1c0-0.9-0.1-1.6-0.4-2.1
			c-0.2-0.5-0.7-0.7-1.2-0.7c-0.6,0-1,0.2-1.2,0.7C68.3,17.4,68.2,18.1,68.2,19z"/>
		<path class="st1" d="M85.7,21.1c0,1.2-0.4,2-1.2,2.6s-1.9,0.9-3.4,0.9c-0.8,0-1.5,0-2.1-0.1c-0.6-0.1-1.2-0.2-1.8-0.5v-3
			c0.6,0.3,1.2,0.5,1.9,0.6c0.7,0.2,1.3,0.2,1.9,0.2c0.8,0,1.2-0.2,1.2-0.6c0-0.2-0.1-0.4-0.3-0.5c-0.2-0.1-0.9-0.4-2-0.9
			c-1-0.4-1.7-0.9-2.1-1.4s-0.6-1.2-0.6-2c0-1,0.4-1.8,1.2-2.4c0.8-0.6,1.9-0.8,3.3-0.8c0.7,0,1.4,0.1,2,0.2c0.6,0.2,1.3,0.4,2,0.7
			l-1,2.4c-0.5-0.2-1-0.4-1.6-0.6c-0.6-0.2-1-0.2-1.4-0.2c-0.6,0-0.9,0.1-0.9,0.4c0,0.2,0.1,0.3,0.3,0.5c0.2,0.1,0.8,0.4,1.9,0.8
			c0.8,0.3,1.3,0.6,1.7,0.9s0.6,0.7,0.8,1.1C85.7,20,85.7,20.5,85.7,21.1z"/>
		<path class="st1" d="M94.9,24.4L94.2,23h-0.1c-0.5,0.6-1,1.1-1.5,1.3c-0.5,0.2-1.2,0.3-2,0.3c-1,0-1.8-0.3-2.4-0.9
			c-0.6-0.6-0.9-1.5-0.9-2.6c0-1.2,0.4-2,1.2-2.6s2-0.9,3.5-1l1.8-0.1v-0.2c0-0.9-0.4-1.3-1.3-1.3c-0.8,0-1.8,0.3-3,0.8l-1.1-2.5
			c1.3-0.7,2.9-1,4.8-1c1.4,0,2.5,0.3,3.2,1c0.8,0.7,1.1,1.7,1.1,2.9v7.1H94.9z M92.1,22c0.5,0,0.8-0.1,1.2-0.4s0.5-0.7,0.5-1.1
			v-0.8l-0.9,0c-1.2,0-1.8,0.5-1.8,1.4C91.1,21.7,91.4,22,92.1,22z"/>
		<path class="st1" d="M103.4,24.6c-0.8,0-1.4-0.2-2-0.7c-0.6-0.4-1-1.1-1.3-1.9c-0.3-0.9-0.5-1.9-0.5-3c0-1.8,0.4-3.1,1.1-4.1
			c0.7-1,1.7-1.5,2.9-1.5c0.6,0,1.1,0.1,1.6,0.4c0.5,0.2,0.9,0.7,1.2,1.2h0.1c-0.1-0.8-0.2-1.7-0.2-2.5V9.5h3.8v14.9h-2.8l-0.8-1.4
			h-0.1C105.6,24.1,104.7,24.6,103.4,24.6z M104.9,21.7c0.6,0,1-0.2,1.3-0.6c0.2-0.4,0.4-1,0.4-1.7v-0.3c0-1-0.1-1.6-0.4-2
			s-0.7-0.6-1.3-0.6c-0.5,0-0.9,0.2-1.1,0.7c-0.3,0.5-0.4,1.1-0.4,2c0,0.8,0.1,1.5,0.4,1.9C104,21.4,104.4,21.7,104.9,21.7z"/>
		<path class="st1" d="M119.7,24.4L119,23h-0.1c-0.5,0.6-1,1.1-1.5,1.3c-0.5,0.2-1.2,0.3-2,0.3c-1,0-1.8-0.3-2.4-0.9
			c-0.6-0.6-0.9-1.5-0.9-2.6c0-1.2,0.4-2,1.2-2.6s2-0.9,3.5-1l1.8-0.1v-0.2c0-0.9-0.4-1.3-1.3-1.3c-0.8,0-1.8,0.3-3,0.8l-1.1-2.5
			c1.3-0.7,2.9-1,4.8-1c1.4,0,2.5,0.3,3.2,1c0.8,0.7,1.1,1.7,1.1,2.9v7.1H119.7z M116.9,22c0.5,0,0.8-0.1,1.2-0.4s0.5-0.7,0.5-1.1
			v-0.8l-0.9,0c-1.2,0-1.8,0.5-1.8,1.4C115.9,21.7,116.2,22,116.9,22z"/>
		<path class="st1" d="M133.3,24.6c-0.8,0-1.4-0.2-2-0.7c-0.6-0.4-1-1.1-1.3-1.9c-0.3-0.9-0.5-1.9-0.5-3c0-1.8,0.4-3.1,1.1-4.1
			c0.7-1,1.7-1.5,2.9-1.5c0.6,0,1.1,0.1,1.6,0.4c0.5,0.2,0.9,0.7,1.2,1.2h0.1c-0.1-0.8-0.2-1.7-0.2-2.5V9.5h3.8v14.9h-2.8l-0.8-1.4
			h-0.1C135.5,24.1,134.6,24.6,133.3,24.6z M134.8,21.7c0.6,0,1-0.2,1.3-0.6c0.2-0.4,0.4-1,0.4-1.7v-0.3c0-1-0.1-1.6-0.4-2
			s-0.7-0.6-1.3-0.6c-0.5,0-0.9,0.2-1.1,0.7c-0.3,0.5-0.4,1.1-0.4,2c0,0.8,0.1,1.5,0.4,1.9C133.9,21.4,134.3,21.7,134.8,21.7z"/>
		<path class="st1" d="M147.8,24.6c-1.8,0-3.2-0.5-4.2-1.4c-1-1-1.5-2.3-1.5-4.1c0-1.8,0.5-3.2,1.4-4.2c0.9-1,2.2-1.5,4-1.5
			c1.6,0,2.9,0.4,3.8,1.3c0.9,0.9,1.3,2.1,1.3,3.7V20h-6.7c0,0.6,0.2,1.1,0.7,1.4c0.4,0.3,1,0.5,1.7,0.5c0.7,0,1.3-0.1,1.8-0.2
			c0.6-0.1,1.1-0.3,1.8-0.6v2.7c-0.6,0.3-1.2,0.5-1.8,0.6S148.6,24.6,147.8,24.6z M147.6,15.9c-0.4,0-0.8,0.1-1.1,0.4
			c-0.3,0.3-0.5,0.7-0.5,1.3h3.2c0-0.5-0.2-0.9-0.4-1.3C148.4,16.1,148,15.9,147.6,15.9z"/>
	</g>
	<g>
		<g>
			<path class="st2" d="M34.6,22.2c2.3,1.3,4.4,2.7,6.5,4.2c2.6-2.7,4.1-6.4,4.1-10.5c0-8.5-6.9-15.4-15.4-15.4
				c-8.1,0-14.7,6.2-15.3,14.1c6.2,1.2,12.7,3.5,19,6.9C33.9,21.8,34.2,22,34.6,22.2z"/>
		</g>
	</g>
	<g>
		<path class="st1" d="M34.7,22.2c-0.4-0.2-0.8-0.4-1.1-0.6c-11.3-6.1-23-8.7-32.8-7.9l0,9.9c7.2-1,15.3-0.6,23.7,1.3
			c3.6,0.8,7,1.9,10.2,3.2c3.9,1.5,7.5,4,10.8,6.5v-5C42.1,26.9,38.6,24.4,34.7,22.2z"/>
		<g>
			<path class="st0" d="M35.5,31.8c-10-4.7-20.4-6.7-29-6.1v7.7c6.4-0.7,13.6-0.5,20.9,1c6.7,1.4,12.8,3.6,17.9,6.3v-3.1
				C42.3,35.4,39.1,33.5,35.5,31.8z"/>
		</g>
	</g>
</g>
</svg>
