<?xml version="1.0" encoding="utf-8"?>
<!-- Generator: Adobe Illustrator 23.0.1, SVG Export Plug-In . SVG Version: 6.00 Build 0)  -->
<svg version="1.1" xmlns="http://www.w3.org/2000/svg" xmlns:xlink="http://www.w3.org/1999/xlink" x="0px" y="0px"
	 viewBox="0 0 185.9 75.4" style="enable-background:new 0 0 185.9 75.4;" xml:space="preserve">
<style type="text/css">
	.st0{fill:#185F2E;}
	.st1{fill:#F1CA12;}
	.st2{fill:#528C3A;}
	.st3{display:none;}
	.st4{display:inline;}
	.st5{fill:#263A7C;}
	.st6{fill-rule:evenodd;clip-rule:evenodd;fill:#528C3A;}
	.st7{fill-rule:evenodd;clip-rule:evenodd;fill:#185F2E;}
	.st8{fill:#726552;}
	.st9{fill:#BCAC95;}
	.st10{fill:#275D34;}
	.st11{fill:#EAC017;}
	.st12{fill-rule:evenodd;clip-rule:evenodd;fill:#275D34;}
	.st13{fill-rule:evenodd;clip-rule:evenodd;fill:#428742;}
	.st14{fill:#9A774B;}
	.st15{fill:#FFEC00;}
	.st16{fill-rule:evenodd;clip-rule:evenodd;fill:#FFFFFF;}
</style>
<g id="Capa_1">
	<g>
		<path class="st0" d="M19.9,24.8c0.8-3.9,5.1-9,5.1-9L36.2,11l19.2-3.1l10.1,2.3l2.6,5.2l4.9,7l3.1,3.7l2.6,4.1v5.7L76.5,39
			l-8.3,4.7l-4.7,2.1H51.8l-15.9,1.7c0,0-8.6-0.4-8.8-1.2c-0.3-0.8-4.6-8.3-4.6-8.3S19.1,28.7,19.9,24.8z"/>
		<path class="st1" d="M22.5,19.2c0,0,5.3-1.1,14.3-5c0,0,14.8-6.5,26.6-3.3c0,0,2.2,0.7,0.9,1.3c-1.3,0.7-4.2,1.8-13.1,2.6
			c0,0-5.6,0.1-10-0.3c0,0,5.7-2,10.6-2.1c0,0,0.8,0,0.3-0.2c0,0-3-0.7-14.3,2.4c0,0-1.9,0.7-3.7,1.4c0,0,9.8-0.7,22.1,2.6
			c0,0,19.6,6,22.8,14.8c0,0,0.4,1.6-3.3,1c0,0-6.7-0.3-17.6-7.7l-8.9-6c0,0-0.5-0.5,0.4-0.3c0,0,13.7,5,17.3,6.9
			c0,0,0.8,0.3,0.4-0.2c0,0-4.8-3.1-14.2-6.4c0,0-4.1-1.7-13.3-3.7c0,0-2.3-0.4-1.2,0.1c0,0,11.3,6.7,15.1,13.5
			c0,0,5.6,8.3,5.2,12.8c0,0-0.1,0.9-1.2,0.5c0,0-2.8-1-7-9.2c0,0-3-6.6-3.5-8c0,0-0.4-1,0-0.9c0,0,0.1,0,0.6,0.7c0,0,3.5,4,5.6,7.5
			c0,0,0.5,0.5,0.3-0.1c0,0,0.2-0.8-5.8-8.5c0,0-2.9-3.2-4.8-4.5c0,0-0.7-0.3-0.4,0.3c0,0,1.1,3.5,0.5,6.1c0,0-0.2,0.7,0.2,0.8
			c0,0,3.3,1,3.2,5.3c0,0-0.1,7.2-6.2,11.9c0,0-2.1,1.7-3.9-0.9c0,0-2.6-3.9-1.5-10.4c0,0,1.1-6.6,5.9-6.6c0,0,1.3,0,1.4,0
			c0.1,0,0.5-0.3,0.1-3.8c0,0-0.3-1.8-1.6-3.9c0,0-0.9-1.2-4.4-1.9l-0.9,0c0,0,0.5,2-1.7,3.6c0,0,2.7,2.7,0.1,6.8
			c0,0-3.9,6.1-8.9,5.4c0,0-1.8-0.5-1.2-3.9c0,0,0.9-9.4,7-9.6c0,0,1.8,0.1,2.2,0.5c0,0,1.9-0.6,1.7-3.1c0,0-3.6-1.1-13.2,4.5
			c0,0-1.9,1.2-2.4,3.7c0,0-2.7,10.2,0.2,19.4c0,0,2.4,6,3.5,7.2c0,0,0.3,0.8,1.6,0.4c0,0,7.4-4.3,24-5.6c0,0,12.7-1.5,27.5,3.7
			c0,0,8.3-10.2,2.4-27.4c0,0-7.1-20.1-31.3-19.2C47,4.5,31.8,5.1,22.5,19.2z"/>
		<g>
			<g>
				<path class="st0" d="M79.4,58.8c-0.6,0-1.1-0.3-1.3-0.5c-28.3-12.8-58.7-1.3-59-1.2l-0.2,0.1l-0.2,0c-1.5,0-2-1.7-2.2-2.2
					c-6.2-13.2-4.2-23.9-1.5-30.6c2.9-7.3,7.3-11.4,7.5-11.6C37.5-2.4,57.6,2.5,57.8,2.5C70.4,6,77.1,13.1,80.5,18.3
					c3.6,5.5,4.4,10.2,4.5,10.7c3.7,16.2-4,28.5-4.3,29c-0.3,0.5-0.8,0.7-1.1,0.8C79.5,58.8,79.4,58.8,79.4,58.8z M45,50.6
					c9.7-0.3,21.9,0.8,33.8,6.2l0.1,0L79,57c0.1,0,0.1,0.1,0.2,0.1c0.2-0.3,7.6-12.4,4.1-27.7l0-0.1c0,0-0.7-4.7-4.3-10.2
					c-3.3-5-9.7-11.6-21.7-15C57.2,4.1,38-0.5,23.7,14c-0.1,0.1-4.3,4.1-7.1,11.1c-3.7,9.3-3.2,19.2,1.6,29.3l0.1,0.2
					c0.1,0.4,0.3,0.8,0.5,0.9c1.4-0.5,8.6-3.1,18.9-4.3C39.9,50.9,42.3,50.7,45,50.6z"/>
			</g>
		</g>
		<path class="st0" d="M21.1,58.7c0,0,31.3-11.1,57.7,2.1c0,0-2.5,3.5-4,5.1c0,0-20.9-13.6-52.2-6.5C22.6,59.5,19.6,60,21.1,58.7z"
			/>
		<path class="st0" d="M5.4,62.2c0,0,35.6-12.6,65.8,4c0,0-3.3,4.5-5.3,6.6c0,0-17.5-16.1-59.7-9.6c0,0-0.9,0.2-1.1-0.4
			C5,62.7,5.1,62.3,5.4,62.2z"/>
		<g>
			<path class="st0" d="M104,38.8h-8.5V24.5h8.5v3.1h-4.6v2.2h4.3v3.1h-4.3v2.7h4.6V38.8z"/>
			<path class="st0" d="M110.1,38.8h-3.8V23.6h3.8V38.8z"/>
			<path class="st0" d="M131.5,31.6c0,2.4-0.6,4.2-1.8,5.5c-1.2,1.2-2.9,1.9-5.2,1.9c-2.2,0-4-0.6-5.1-1.9c-1.2-1.3-1.8-3.1-1.8-5.5
				c0-2.4,0.6-4.2,1.8-5.4c1.2-1.3,2.9-1.9,5.2-1.9c2.3,0,4,0.6,5.2,1.9C130.9,27.4,131.5,29.2,131.5,31.6z M121.7,31.6
				c0,2.8,1,4.1,2.9,4.1c1,0,1.7-0.3,2.2-1c0.5-0.7,0.7-1.7,0.7-3.1c0-1.4-0.2-2.5-0.7-3.2c-0.5-0.7-1.2-1-2.1-1
				C122.6,27.5,121.7,28.8,121.7,31.6z"/>
			<path class="st0" d="M137.6,38.8h-3.8V23.6h3.8V38.8z"/>
			<path class="st0" d="M140.2,25c0-0.6,0.2-1,0.5-1.3c0.3-0.3,0.8-0.4,1.5-0.4c0.7,0,1.2,0.1,1.6,0.4c0.3,0.3,0.5,0.7,0.5,1.3
				c0,1.1-0.7,1.7-2,1.7C140.9,26.7,140.2,26.1,140.2,25z M144.1,38.8h-3.8V27.7h3.8V38.8z"/>
			<path class="st0" d="M149.7,38.8l-4.2-11.1h4l1.9,6.5c0,0,0,0.1,0,0.2c0,0.1,0,0.2,0.1,0.3c0,0.1,0,0.2,0.1,0.3
				c0,0.1,0,0.2,0,0.3h0.1c0-0.3,0.1-0.7,0.2-1.1l2-6.6h4l-4.2,11.1H149.7z"/>
			<path class="st0" d="M166.2,38.8l-0.7-1.5h-0.1c-0.5,0.6-1,1.1-1.6,1.3c-0.5,0.2-1.2,0.4-2.1,0.4c-1,0-1.9-0.3-2.5-0.9
				c-0.6-0.6-0.9-1.5-0.9-2.6c0-1.2,0.4-2.1,1.2-2.6c0.8-0.6,2-0.9,3.6-1l1.8-0.1v-0.2c0-0.9-0.4-1.4-1.3-1.4
				c-0.8,0-1.8,0.3-3.1,0.8l-1.1-2.5c1.3-0.7,2.9-1,4.9-1c1.4,0,2.5,0.4,3.3,1.1c0.8,0.7,1.2,1.7,1.2,2.9v7.3H166.2z M163.4,36.3
				c0.5,0,0.9-0.1,1.2-0.4c0.3-0.3,0.5-0.7,0.5-1.1v-0.9l-0.9,0c-1.3,0-1.9,0.5-1.9,1.4C162.3,35.9,162.7,36.3,163.4,36.3z"/>
			<path class="st0" d="M178.1,27.5c0.3,0,0.6,0,0.9,0.1l0.2,0l-0.3,3.6c-0.3-0.1-0.7-0.1-1.3-0.1c-0.8,0-1.4,0.2-1.8,0.6
				c-0.4,0.4-0.6,0.9-0.6,1.6v5.4h-3.8V27.7h2.8l0.6,1.8h0.2c0.3-0.6,0.8-1.1,1.3-1.4C177,27.7,177.6,27.5,178.1,27.5z"/>
		</g>
		<g>
			<g>
				<path class="st2" d="M102.5,48.5c0,1.6-0.4,2.8-1.3,3.6c-0.9,0.8-2.1,1.3-3.8,1.3h-2.7v-9.6h3c1.5,0,2.7,0.4,3.5,1.2
					C102.1,45.8,102.5,47,102.5,48.5z M100.9,48.5c0-2.3-1.1-3.4-3.2-3.4h-1.4V52h1.1C99.7,52,100.9,50.9,100.9,48.5z"/>
				<path class="st2" d="M114,53.3h-5.4v-9.6h5.4v1.3h-3.8v2.6h3.6V49h-3.6v3h3.8V53.3z"/>
				<path class="st2" d="M133.9,46.7c0,1-0.3,1.8-1,2.3c-0.7,0.5-1.6,0.8-2.8,0.8h-1v3.6h-1.6v-9.6h2.8c1.2,0,2.1,0.2,2.7,0.7
					C133.6,45,133.9,45.7,133.9,46.7z M129.1,48.5h0.8c0.8,0,1.4-0.1,1.8-0.4c0.4-0.3,0.6-0.7,0.6-1.3c0-0.5-0.2-1-0.5-1.2
					c-0.3-0.3-0.9-0.4-1.6-0.4h-1.1V48.5z"/>
				<path class="st2" d="M139.8,53.3v-9.6h1.6v9.6H139.8z"/>
				<path class="st2" d="M153.4,50.8c0,0.8-0.3,1.5-0.9,2c-0.6,0.5-1.5,0.7-2.5,0.7c-1.1,0-2-0.2-2.7-0.5v-1.5
					c0.4,0.2,0.9,0.4,1.4,0.5c0.5,0.1,0.9,0.2,1.4,0.2c0.6,0,1.1-0.1,1.4-0.4c0.3-0.2,0.4-0.6,0.4-0.9c0-0.4-0.1-0.7-0.4-0.9
					c-0.3-0.2-0.8-0.5-1.7-0.9c-0.9-0.4-1.5-0.8-1.8-1.2c-0.4-0.5-0.5-1-0.5-1.6c0-0.8,0.3-1.4,0.8-1.9c0.6-0.5,1.3-0.7,2.3-0.7
					c0.9,0,1.8,0.2,2.7,0.6l-0.5,1.3c-0.8-0.4-1.6-0.5-2.3-0.5c-0.5,0-0.9,0.1-1.1,0.3c-0.3,0.2-0.4,0.5-0.4,0.9
					c0,0.2,0.1,0.5,0.2,0.6c0.1,0.2,0.3,0.3,0.5,0.5c0.2,0.2,0.7,0.4,1.3,0.6c0.7,0.3,1.2,0.6,1.5,0.8c0.3,0.3,0.6,0.5,0.7,0.9
					C153.4,49.9,153.4,50.3,153.4,50.8z"/>
				<path class="st2" d="M163.4,45c-0.9,0-1.6,0.3-2.1,1c-0.5,0.6-0.8,1.5-0.8,2.6c0,1.2,0.2,2.1,0.7,2.7c0.5,0.6,1.2,0.9,2.1,0.9
					c0.4,0,0.8,0,1.2-0.1c0.4-0.1,0.8-0.2,1.2-0.3v1.3c-0.8,0.3-1.6,0.4-2.6,0.4c-1.4,0-2.5-0.4-3.2-1.3c-0.8-0.8-1.1-2.1-1.1-3.6
					c0-1,0.2-1.9,0.5-2.6c0.4-0.7,0.9-1.3,1.6-1.7c0.7-0.4,1.5-0.6,2.4-0.6c1,0,1.9,0.2,2.7,0.6l-0.6,1.3c-0.3-0.2-0.7-0.3-1-0.4
					C164.1,45.1,163.8,45,163.4,45z"/>
				<path class="st2" d="M180.3,48.6c0,1.6-0.4,2.8-1.2,3.6c-0.8,0.9-1.9,1.3-3.3,1.3c-1.4,0-2.6-0.4-3.3-1.3
					c-0.8-0.9-1.2-2.1-1.2-3.7c0-1.6,0.4-2.8,1.2-3.6c0.8-0.8,1.9-1.3,3.3-1.3c1.4,0,2.5,0.4,3.3,1.3
					C179.9,45.8,180.3,47,180.3,48.6z M173,48.6c0,1.2,0.2,2.1,0.7,2.7c0.5,0.6,1.2,0.9,2.1,0.9c0.9,0,1.6-0.3,2.1-0.9
					c0.5-0.6,0.7-1.5,0.7-2.7c0-1.2-0.2-2.1-0.7-2.7c-0.5-0.6-1.2-0.9-2.1-0.9c-0.9,0-1.6,0.3-2.1,0.9C173.2,46.5,173,47.4,173,48.6
					z"/>
			</g>
		</g>
	</g>
</g>
<g id="Capa_2" class="st3">
	<g class="st4">
		<g>
			<g>
				<path class="st5" d="M6.2,23.4v-22h3.6v18.9h9.3v3.1H6.2z"/>
				<path class="st5" d="M31.4,23.4l-0.7-2.3h-0.1c-0.8,1-1.6,1.7-2.4,2.1c-0.8,0.4-1.9,0.5-3.1,0.5c-1.6,0-2.9-0.4-3.8-1.3
					c-0.9-0.9-1.4-2.1-1.4-3.7c0-1.7,0.6-3,1.9-3.9c1.3-0.9,3.2-1.4,5.8-1.4l2.9-0.1v-0.9c0-1.1-0.2-1.9-0.7-2.4
					c-0.5-0.5-1.3-0.8-2.3-0.8c-0.9,0-1.7,0.1-2.5,0.4c-0.8,0.3-1.5,0.5-2.3,0.9l-1.1-2.5c0.9-0.5,1.9-0.8,3-1.1
					c1.1-0.2,2.1-0.4,3-0.4c2.1,0,3.7,0.5,4.8,1.4c1.1,0.9,1.6,2.4,1.6,4.3v11.2H31.4z M26.1,21c1.3,0,2.3-0.4,3.1-1.1
					c0.8-0.7,1.2-1.7,1.2-3v-1.4l-2.1,0.1c-1.7,0.1-2.9,0.3-3.6,0.8c-0.8,0.5-1.1,1.3-1.1,2.3c0,0.7,0.2,1.3,0.7,1.7
					C24.6,20.8,25.2,21,26.1,21z"/>
				<path class="st5" d="M48.5,18.7c0,1.6-0.6,2.9-1.8,3.7c-1.2,0.9-2.9,1.3-5.1,1.3c-2.2,0-4-0.3-5.3-1v-3.1c2,0.9,3.8,1.4,5.5,1.4
					c2.2,0,3.3-0.7,3.3-2c0-0.4-0.1-0.8-0.4-1.1c-0.2-0.3-0.6-0.6-1.2-0.9c-0.6-0.3-1.3-0.6-2.3-1c-1.9-0.7-3.2-1.5-3.9-2.2
					c-0.7-0.7-1-1.7-1-2.9c0-1.4,0.6-2.5,1.7-3.3c1.1-0.8,2.7-1.2,4.7-1.2c2,0,3.8,0.4,5.6,1.2l-1.1,2.7c-1.8-0.7-3.3-1.1-4.5-1.1
					c-1.9,0-2.8,0.5-2.8,1.6c0,0.5,0.2,1,0.7,1.3c0.5,0.4,1.5,0.9,3.2,1.5c1.4,0.5,2.4,1,3,1.5c0.6,0.4,1.1,1,1.4,1.5
					C48.3,17.2,48.5,17.9,48.5,18.7z"/>
				<path class="st5" d="M67,4.2c-2.1,0-3.7,0.7-4.9,2.2c-1.2,1.5-1.8,3.5-1.8,6.1c0,2.7,0.6,4.7,1.7,6.1c1.1,1.4,2.8,2.1,4.9,2.1
					c0.9,0,1.8-0.1,2.7-0.3c0.9-0.2,1.8-0.4,2.7-0.7v3.1c-1.7,0.7-3.7,1-5.9,1c-3.2,0-5.7-1-7.4-2.9c-1.7-2-2.6-4.7-2.6-8.4
					c0-2.3,0.4-4.3,1.3-6c0.8-1.7,2-3,3.6-3.9C63,1.6,64.9,1.1,67,1.1c2.2,0,4.3,0.5,6.2,1.4l-1.3,3c-0.7-0.3-1.5-0.7-2.4-0.9
					C68.7,4.3,67.9,4.2,67,4.2z"/>
				<path class="st5" d="M85.6,23.4l-0.7-2.3h-0.1c-0.8,1-1.6,1.7-2.4,2.1c-0.8,0.4-1.9,0.5-3.1,0.5c-1.6,0-2.9-0.4-3.8-1.3
					c-0.9-0.9-1.4-2.1-1.4-3.7c0-1.7,0.6-3,1.9-3.9c1.3-0.9,3.2-1.4,5.8-1.4l2.9-0.1v-0.9c0-1.1-0.2-1.9-0.7-2.4
					c-0.5-0.5-1.3-0.8-2.3-0.8c-0.9,0-1.7,0.1-2.5,0.4c-0.8,0.3-1.5,0.5-2.3,0.9l-1.1-2.5c0.9-0.5,1.9-0.8,3-1.1
					c1.1-0.2,2.1-0.4,3-0.4c2.1,0,3.7,0.5,4.8,1.4c1.1,0.9,1.6,2.4,1.6,4.3v11.2H85.6z M80.4,21c1.3,0,2.3-0.4,3.1-1.1
					c0.8-0.7,1.2-1.7,1.2-3v-1.4l-2.1,0.1c-1.7,0.1-2.9,0.3-3.6,0.8c-0.8,0.5-1.1,1.3-1.1,2.3c0,0.7,0.2,1.3,0.7,1.7
					C78.8,20.8,79.5,21,80.4,21z"/>
				<path class="st5" d="M102.7,18.7c0,1.6-0.6,2.9-1.8,3.7c-1.2,0.9-2.9,1.3-5.1,1.3c-2.2,0-4-0.3-5.3-1v-3.1
					c2,0.9,3.8,1.4,5.5,1.4c2.2,0,3.3-0.7,3.3-2c0-0.4-0.1-0.8-0.4-1.1c-0.2-0.3-0.6-0.6-1.2-0.9c-0.6-0.3-1.3-0.6-2.3-1
					c-1.9-0.7-3.2-1.5-3.9-2.2c-0.7-0.7-1-1.7-1-2.9c0-1.4,0.6-2.5,1.7-3.3c1.1-0.8,2.7-1.2,4.7-1.2c2,0,3.8,0.4,5.6,1.2l-1.1,2.7
					c-1.8-0.7-3.3-1.1-4.5-1.1c-1.9,0-2.8,0.5-2.8,1.6c0,0.5,0.2,1,0.7,1.3c0.5,0.4,1.5,0.9,3.2,1.5c1.4,0.5,2.4,1,3,1.5
					c0.6,0.4,1.1,1,1.4,1.5C102.6,17.2,102.7,17.9,102.7,18.7z"/>
				<path class="st5" d="M111.7,23.7c-2.5,0-4.4-0.7-5.7-2.2c-1.3-1.5-2-3.6-2-6.3c0-2.8,0.7-4.9,2.1-6.5c1.4-1.5,3.3-2.3,5.9-2.3
					c1.8,0,3.3,0.3,4.7,1l-1.1,2.8c-1.5-0.6-2.7-0.9-3.7-0.9c-2.9,0-4.3,1.9-4.3,5.7c0,1.9,0.4,3.3,1.1,4.2c0.7,0.9,1.8,1.4,3.2,1.4
					c1.6,0,3.1-0.4,4.5-1.2v3.1c-0.6,0.4-1.3,0.6-2,0.8C113.6,23.7,112.7,23.7,111.7,23.7z"/>
				<path class="st5" d="M129.1,23.4l-0.7-2.3h-0.1c-0.8,1-1.6,1.7-2.4,2.1c-0.8,0.4-1.9,0.5-3.1,0.5c-1.6,0-2.9-0.4-3.8-1.3
					c-0.9-0.9-1.4-2.1-1.4-3.7c0-1.7,0.6-3,1.9-3.9c1.3-0.9,3.2-1.4,5.8-1.4l2.9-0.1v-0.9c0-1.1-0.2-1.9-0.7-2.4
					c-0.5-0.5-1.3-0.8-2.3-0.8c-0.9,0-1.7,0.1-2.5,0.4c-0.8,0.3-1.5,0.5-2.3,0.9l-1.1-2.5c0.9-0.5,1.9-0.8,3-1.1
					c1.1-0.2,2.1-0.4,3-0.4c2.1,0,3.7,0.5,4.8,1.4c1.1,0.9,1.6,2.4,1.6,4.3v11.2H129.1z M123.9,21c1.3,0,2.3-0.4,3.1-1.1
					c0.8-0.7,1.2-1.7,1.2-3v-1.4l-2.1,0.1c-1.7,0.1-2.9,0.3-3.6,0.8c-0.8,0.5-1.1,1.3-1.1,2.3c0,0.7,0.2,1.3,0.7,1.7
					C122.3,20.8,123,21,123.9,21z"/>
				<path class="st5" d="M140.7,23.7c-2.1,0-3.7-0.8-4.9-2.3c-1.2-1.5-1.7-3.6-1.7-6.3c0-2.7,0.6-4.9,1.8-6.4
					c1.2-1.5,2.8-2.3,4.9-2.3c2.2,0,3.9,0.8,5,2.4h0.2c-0.2-1.2-0.3-2.1-0.3-2.8V0h3.6v23.4h-2.8l-0.6-2.2h-0.2
					C144.5,22.9,142.9,23.7,140.7,23.7z M141.6,20.9c1.5,0,2.5-0.4,3.2-1.2c0.7-0.8,1-2.1,1-4v-0.5c0-2.1-0.3-3.6-1-4.5
					c-0.7-0.9-1.8-1.3-3.2-1.3c-1.2,0-2.2,0.5-2.9,1.5c-0.7,1-1,2.4-1,4.3c0,1.8,0.3,3.3,1,4.2C139.3,20.4,140.3,20.9,141.6,20.9z"
					/>
				<path class="st5" d="M163.1,23.4l-0.7-2.3h-0.1c-0.8,1-1.6,1.7-2.4,2.1c-0.8,0.4-1.9,0.5-3.1,0.5c-1.6,0-2.9-0.4-3.8-1.3
					c-0.9-0.9-1.4-2.1-1.4-3.7c0-1.7,0.6-3,1.9-3.9c1.3-0.9,3.2-1.4,5.8-1.4l2.9-0.1v-0.9c0-1.1-0.2-1.9-0.7-2.4
					c-0.5-0.5-1.3-0.8-2.3-0.8c-0.9,0-1.7,0.1-2.5,0.4c-0.8,0.3-1.5,0.5-2.3,0.9l-1.1-2.5c0.9-0.5,1.9-0.8,3-1.1
					c1.1-0.2,2.1-0.4,3-0.4c2.1,0,3.7,0.5,4.8,1.4c1.1,0.9,1.6,2.4,1.6,4.3v11.2H163.1z M157.9,21c1.3,0,2.3-0.4,3.1-1.1
					c0.8-0.7,1.2-1.7,1.2-3v-1.4l-2.1,0.1c-1.7,0.1-2.9,0.3-3.6,0.8c-0.8,0.5-1.1,1.3-1.1,2.3c0,0.7,0.2,1.3,0.7,1.7
					C156.3,20.8,157,21,157.9,21z"/>
				<path class="st5" d="M180.2,18.7c0,1.6-0.6,2.9-1.8,3.7c-1.2,0.9-2.9,1.3-5.1,1.3c-2.2,0-4-0.3-5.3-1v-3.1
					c2,0.9,3.8,1.4,5.5,1.4c2.2,0,3.3-0.7,3.3-2c0-0.4-0.1-0.8-0.4-1.1c-0.2-0.3-0.6-0.6-1.2-0.9c-0.6-0.3-1.3-0.6-2.3-1
					c-1.9-0.7-3.2-1.5-3.9-2.2c-0.7-0.7-1-1.7-1-2.9c0-1.4,0.6-2.5,1.7-3.3c1.1-0.8,2.7-1.2,4.7-1.2c2,0,3.8,0.4,5.6,1.2l-1.1,2.7
					c-1.8-0.7-3.3-1.1-4.5-1.1c-1.9,0-2.8,0.5-2.8,1.6c0,0.5,0.2,1,0.7,1.3c0.5,0.4,1.5,0.9,3.2,1.5c1.4,0.5,2.4,1,3,1.5
					c0.6,0.4,1.1,1,1.4,1.5C180.1,17.2,180.2,17.9,180.2,18.7z"/>
			</g>
		</g>
		<g>
			<g>
				<path class="st5" d="M176.3,63.2c-0.2-8.5,4-16.8,4-24.5c-0.4-1.4-1-2.6-2-3.8c-5.8-5.9-18.1-7.3-25-7.5c4.1,1,8,2.6,10.7,4.9
					c7.2,7.3,2.2,17.7,5.1,27.4c1.8,8.3,7,15,8.9,14.7C177,71.3,176.3,67.4,176.3,63.2z"/>
				<path class="st5" d="M159.7,55.2c3.1,6.3,8.6,11.2,11.2,12.2c-1.1-2.2-2.2-4.7-2.9-7.3c-2.9-9.7,2-20-5.2-27.2
					c-1.6-1.4-3.6-2.5-5.8-3.4c-7-1.8-15.3-1.9-20.4-1.8c4.4,0.6,8.6,1.7,12,3.6C157.4,37,154.7,46.7,159.7,55.2z"/>
				<path class="st5" d="M128.8,30.2c16.9,3.7,14.3,14.2,20.9,21.6c4,5,9.7,8.7,12.8,9.8c-1.5-1.8-3-3.8-4.2-6.1
					c-5-8.5-2.3-18.1-11.3-23.9c-3.3-1.8-7.4-2.9-11.7-3.5c-5.6-0.3-63.1-0.2-66.7,0C73.1,28.4,124.9,29.4,128.8,30.2z"/>
			</g>
		</g>
		<g>
			<path class="st5" d="M11.6,35.3c0,1-0.3,1.8-0.8,2.3c-0.5,0.5-1.3,0.8-2.3,0.8H6.8v-6.1h1.9c0.9,0,1.7,0.3,2.2,0.8
				C11.4,33.7,11.6,34.4,11.6,35.3z M10.9,35.4c0-0.8-0.2-1.4-0.6-1.8c-0.4-0.4-1-0.6-1.8-0.6h-1v4.8h0.9c0.8,0,1.5-0.2,1.9-0.6
				C10.7,36.8,10.9,36.2,10.9,35.4z"/>
			<path class="st5" d="M16.2,38.4h-3.4v-6.1h3.4V33h-2.7v2H16v0.6h-2.5v2.2h2.7V38.4z"/>
			<path class="st5" d="M24.6,36.8c0,0.5-0.2,1-0.6,1.3c-0.4,0.3-0.9,0.4-1.6,0.4c-0.7,0-1.3-0.1-1.7-0.3v-0.7
				c0.2,0.1,0.5,0.2,0.8,0.2c0.3,0.1,0.6,0.1,0.9,0.1c0.5,0,0.8-0.1,1.1-0.3c0.2-0.2,0.4-0.4,0.4-0.7c0-0.2,0-0.4-0.1-0.5
				c-0.1-0.1-0.2-0.3-0.4-0.4c-0.2-0.1-0.5-0.2-0.9-0.4c-0.6-0.2-1-0.4-1.2-0.7c-0.2-0.3-0.4-0.6-0.4-1.1c0-0.5,0.2-0.8,0.5-1.1
				c0.4-0.3,0.8-0.4,1.4-0.4c0.6,0,1.2,0.1,1.7,0.3l-0.2,0.6c-0.5-0.2-1-0.3-1.5-0.3c-0.4,0-0.7,0.1-0.9,0.2
				c-0.2,0.2-0.3,0.4-0.3,0.7c0,0.2,0,0.4,0.1,0.5c0.1,0.1,0.2,0.3,0.4,0.4c0.2,0.1,0.5,0.2,0.8,0.4c0.6,0.2,1.1,0.5,1.3,0.7
				C24.5,36.1,24.6,36.4,24.6,36.8z"/>
			<path class="st5" d="M30.1,38.4l-0.8-1.9h-2.4l-0.7,1.9h-0.7l2.4-6.1h0.6l2.4,6.1H30.1z M29.1,35.9L28.4,34
				c-0.1-0.2-0.2-0.5-0.3-0.9C28,33.4,28,33.7,27.8,34l-0.7,1.9H29.1z"/>
			<path class="st5" d="M36.8,38.4H36l-3.3-5.1h0c0,0.6,0.1,1.1,0.1,1.6v3.4h-0.7v-6.1h0.8l3.3,5.1h0c0-0.1,0-0.3,0-0.7
				c0-0.4,0-0.7,0-0.9v-3.5h0.7V38.4z"/>
			<path class="st5" d="M45.9,38.4l-0.8-1.9h-2.4L42,38.4h-0.7l2.4-6.1h0.6l2.4,6.1H45.9z M44.9,35.9L44.2,34
				c-0.1-0.2-0.2-0.5-0.3-0.9c-0.1,0.3-0.1,0.6-0.3,0.9L43,35.9H44.9z"/>
			<path class="st5" d="M52.3,38.4h-0.8l-3.3-5.1h0c0,0.6,0.1,1.1,0.1,1.6v3.4h-0.7v-6.1h0.8l3.3,5.1h0c0-0.1,0-0.3,0-0.7
				c0-0.4,0-0.7,0-0.9v-3.5h0.7V38.4z"/>
			<path class="st5" d="M56.3,38.4h-0.7V33h-1.9v-0.6h4.5V33h-1.9V38.4z"/>
			<path class="st5" d="M64.8,35.4c0,1-0.2,1.7-0.7,2.3c-0.5,0.6-1.2,0.8-2,0.8c-0.9,0-1.6-0.3-2.1-0.8c-0.5-0.5-0.7-1.3-0.7-2.3
				c0-1,0.2-1.8,0.7-2.3c0.5-0.5,1.2-0.8,2.1-0.8c0.9,0,1.6,0.3,2,0.8C64.6,33.7,64.8,34.4,64.8,35.4z M60,35.4
				c0,0.8,0.2,1.4,0.5,1.9c0.3,0.4,0.9,0.6,1.5,0.6c0.7,0,1.2-0.2,1.5-0.6c0.3-0.4,0.5-1,0.5-1.9c0-0.8-0.2-1.4-0.5-1.9
				c-0.3-0.4-0.8-0.6-1.5-0.6c-0.7,0-1.2,0.2-1.5,0.6C60.1,34,60,34.6,60,35.4z"/>
			<path class="st5" d="M71,38.4h-0.8l-3.3-5.1h0c0,0.6,0.1,1.1,0.1,1.6v3.4h-0.7v-6.1h0.8l3.3,5.1h0c0-0.1,0-0.3,0-0.7
				c0-0.4,0-0.7,0-0.9v-3.5H71V38.4z"/>
			<path class="st5" d="M72.8,38.4v-6.1h0.7v6.1H72.8z"/>
			<path class="st5" d="M80.6,35.4c0,1-0.2,1.7-0.7,2.3c-0.5,0.6-1.2,0.8-2,0.8c-0.9,0-1.6-0.3-2.1-0.8c-0.5-0.5-0.7-1.3-0.7-2.3
				c0-1,0.2-1.8,0.7-2.3c0.5-0.5,1.2-0.8,2.1-0.8c0.9,0,1.6,0.3,2,0.8C80.3,33.7,80.6,34.4,80.6,35.4z M75.7,35.4
				c0,0.8,0.2,1.4,0.5,1.9c0.3,0.4,0.9,0.6,1.5,0.6c0.7,0,1.2-0.2,1.5-0.6c0.3-0.4,0.5-1,0.5-1.9c0-0.8-0.2-1.4-0.5-1.9
				c-0.3-0.4-0.8-0.6-1.5-0.6c-0.7,0-1.2,0.2-1.5,0.6C75.9,34,75.7,34.6,75.7,35.4z"/>
		</g>
	</g>
</g>
<g id="Capa_3" class="st3">
	<g class="st4">
		<g>
			<path class="st6" d="M25,48.1c44.4,28,58-13.9,104,13.3C72.9,51.8,70,86.1,25,48.1z"/>
			<path class="st7" d="M115.1,63.4C76.8,61.2,67.7,81,37.3,61C66.7,91.1,81,63.6,115.1,63.4z"/>
			<g>
				<path class="st2" d="M70.9,19.4L63.8,1h2.6l4.8,13.3c0.4,1.1,0.7,2.1,1,3c0.3-1,0.6-2,1-3l5-13.3h2.5l-7.2,18.3H70.9z"/>
				<path class="st2" d="M82,3.6V1h2.2v2.6H82z M82,19.4V6.1h2.2v13.3H82z"/>
				<path class="st2" d="M87.6,19.4V1h2.3v18.3H87.6z"/>
				<path class="st2" d="M93.3,19.4V1h2.3v18.3H93.3z"/>
				<path class="st2" d="M107.7,17.7c-0.8,0.7-1.6,1.2-2.4,1.5c-0.8,0.3-1.6,0.4-2.5,0.4c-1.5,0-2.6-0.4-3.4-1.1
					c-0.8-0.7-1.2-1.6-1.2-2.7c0-0.7,0.1-1.2,0.4-1.8c0.3-0.5,0.7-1,1.2-1.3c0.5-0.3,1-0.6,1.6-0.7c0.4-0.1,1.1-0.2,2-0.3
					c1.8-0.2,3.2-0.5,4-0.8c0-0.3,0-0.5,0-0.6c0-0.9-0.2-1.6-0.6-1.9c-0.6-0.5-1.4-0.8-2.6-0.8c-1.1,0-1.8,0.2-2.3,0.6
					c-0.5,0.4-0.9,1-1.1,2l-2.2-0.3c0.2-0.9,0.5-1.7,1-2.3c0.5-0.6,1.1-1,2-1.3c0.9-0.3,1.9-0.5,3-0.5c1.1,0,2.1,0.1,2.8,0.4
					c0.7,0.3,1.2,0.6,1.6,1c0.3,0.4,0.6,0.9,0.7,1.5c0.1,0.4,0.1,1.1,0.1,2.1v3c0,2.1,0.1,3.4,0.1,4c0.1,0.6,0.3,1.1,0.6,1.6h-2.4
					C107.9,18.9,107.8,18.4,107.7,17.7z M107.5,12.7c-0.8,0.3-2,0.6-3.7,0.9c-0.9,0.1-1.6,0.3-2,0.4c-0.4,0.2-0.7,0.4-0.9,0.7
					c-0.2,0.3-0.3,0.7-0.3,1.1c0,0.6,0.2,1.1,0.7,1.5c0.5,0.4,1.1,0.6,2,0.6c0.9,0,1.6-0.2,2.3-0.6c0.7-0.4,1.2-0.9,1.5-1.6
					c0.2-0.5,0.4-1.3,0.4-2.3V12.7z"/>
			</g>
			<g>
				<path class="st0" d="M45.5,36.6l3.5-0.3c0.2,1.4,0.5,2.5,1.1,3.4c0.6,0.9,1.5,1.6,2.8,2.2c1.3,0.5,2.7,0.8,4.3,0.8
					c1.4,0,2.6-0.2,3.7-0.6c1.1-0.4,1.9-1,2.4-1.7c0.5-0.7,0.8-1.5,0.8-2.4c0-0.9-0.3-1.6-0.8-2.3c-0.5-0.7-1.3-1.2-2.5-1.6
					c-0.7-0.3-2.4-0.7-5-1.4c-2.6-0.6-4.4-1.2-5.4-1.7c-1.3-0.7-2.3-1.6-3-2.6c-0.6-1-1-2.2-1-3.5c0-1.4,0.4-2.7,1.2-3.9
					c0.8-1.2,2-2.2,3.5-2.8c1.5-0.6,3.2-1,5.1-1c2.1,0,3.9,0.3,5.5,1c1.6,0.7,2.8,1.6,3.6,2.9c0.8,1.3,1.3,2.8,1.4,4.4l-3.5,0.3
					c-0.2-1.8-0.8-3.1-1.9-4c-1.1-0.9-2.7-1.3-4.9-1.3c-2.2,0-3.9,0.4-4.9,1.2c-1,0.8-1.5,1.8-1.5,3c0,1,0.4,1.8,1.1,2.5
					c0.7,0.6,2.6,1.3,5.6,2c3,0.7,5.1,1.3,6.2,1.8c1.6,0.7,2.8,1.7,3.6,2.8c0.8,1.1,1.2,2.5,1.2,4c0,1.5-0.4,2.9-1.3,4.2
					c-0.9,1.3-2.1,2.3-3.7,3.1c-1.6,0.7-3.4,1.1-5.4,1.1c-2.5,0-4.6-0.4-6.3-1.1c-1.7-0.7-3-1.8-4-3.3
					C46.1,40.1,45.6,38.4,45.5,36.6z"/>
				<path class="st0" d="M85.5,43c-1.3,1.1-2.5,1.8-3.7,2.3c-1.2,0.4-2.4,0.7-3.8,0.7c-2.2,0-3.9-0.5-5.1-1.6
					c-1.2-1.1-1.8-2.5-1.8-4.2c0-1,0.2-1.9,0.7-2.7c0.4-0.8,1-1.5,1.8-2c0.7-0.5,1.5-0.9,2.5-1.1c0.7-0.2,1.7-0.3,3-0.5
					c2.8-0.3,4.8-0.7,6.1-1.2c0-0.5,0-0.8,0-0.9c0-1.4-0.3-2.4-1-2.9c-0.9-0.8-2.2-1.2-3.9-1.2c-1.6,0-2.8,0.3-3.6,0.8
					c-0.8,0.6-1.3,1.6-1.7,3l-3.3-0.5c0.3-1.4,0.8-2.6,1.5-3.5c0.7-0.9,1.7-1.6,3-2c1.3-0.5,2.8-0.7,4.6-0.7c1.7,0,3.1,0.2,4.2,0.6
					c1.1,0.4,1.9,0.9,2.4,1.5c0.5,0.6,0.9,1.4,1.1,2.3c0.1,0.6,0.2,1.6,0.2,3.2V37c0,3.2,0.1,5.2,0.2,6c0.1,0.8,0.4,1.7,0.9,2.4
					h-3.6C85.8,44.8,85.6,44,85.5,43z M85.2,35.4c-1.2,0.5-3.1,0.9-5.6,1.3c-1.4,0.2-2.4,0.4-3,0.7c-0.6,0.3-1,0.6-1.3,1.1
					c-0.3,0.5-0.5,1-0.5,1.6c0,0.9,0.3,1.7,1,2.3c0.7,0.6,1.7,0.9,3,0.9c1.3,0,2.5-0.3,3.5-0.9c1-0.6,1.8-1.4,2.3-2.4
					c0.4-0.8,0.6-1.9,0.6-3.4V35.4z"/>
				<path class="st0" d="M93.9,45.5V25.3H97v3.1c0.8-1.4,1.5-2.4,2.2-2.8c0.7-0.5,1.4-0.7,2.2-0.7c1.2,0,2.3,0.4,3.5,1.1l-1.2,3.2
					c-0.8-0.5-1.7-0.7-2.5-0.7c-0.7,0-1.4,0.2-2,0.7c-0.6,0.5-1,1.1-1.3,1.9c-0.4,1.2-0.6,2.5-0.6,4v10.6H93.9z"/>
				<path class="st0" d="M120.1,43c-1.3,1.1-2.5,1.8-3.7,2.3c-1.2,0.4-2.4,0.7-3.8,0.7c-2.2,0-3.9-0.5-5.1-1.6
					c-1.2-1.1-1.8-2.5-1.8-4.2c0-1,0.2-1.9,0.7-2.7c0.5-0.8,1-1.5,1.8-2c0.7-0.5,1.5-0.9,2.5-1.1c0.7-0.2,1.7-0.3,3-0.5
					c2.8-0.3,4.8-0.7,6.1-1.2c0-0.5,0-0.8,0-0.9c0-1.4-0.3-2.4-1-2.9c-0.9-0.8-2.2-1.2-3.9-1.2c-1.6,0-2.8,0.3-3.6,0.8
					c-0.8,0.6-1.3,1.6-1.7,3l-3.3-0.5c0.3-1.4,0.8-2.6,1.5-3.5c0.7-0.9,1.7-1.6,3-2c1.3-0.5,2.8-0.7,4.6-0.7c1.7,0,3.1,0.2,4.2,0.6
					c1.1,0.4,1.9,0.9,2.4,1.5c0.5,0.6,0.9,1.4,1.1,2.3c0.1,0.6,0.2,1.6,0.2,3.2V37c0,3.2,0.1,5.2,0.2,6c0.1,0.8,0.4,1.7,0.9,2.4
					h-3.6C120.4,44.8,120.2,44,120.1,43z M119.8,35.4c-1.2,0.5-3.1,0.9-5.6,1.3c-1.4,0.2-2.4,0.4-3,0.7c-0.6,0.3-1,0.6-1.3,1.1
					c-0.3,0.5-0.5,1-0.5,1.6c0,0.9,0.3,1.7,1,2.3c0.7,0.6,1.7,0.9,3,0.9c1.3,0,2.5-0.3,3.5-0.9c1-0.6,1.8-1.4,2.3-2.4
					c0.4-0.8,0.5-1.9,0.5-3.4V35.4z"/>
				<path class="st0" d="M124.2,53.3l0.6-2.9c0.7,0.2,1.2,0.3,1.6,0.3c0.7,0,1.2-0.2,1.6-0.7c0.3-0.5,0.5-1.6,0.5-3.5V25.3h3.4v21.3
					c0,2.5-0.3,4.2-1,5.2c-0.8,1.3-2.2,1.9-4.1,1.9C126,53.7,125.1,53.6,124.2,53.3z"/>
				<path class="st0" d="M150.4,43c-1.3,1.1-2.5,1.8-3.7,2.3c-1.2,0.4-2.4,0.7-3.8,0.7c-2.2,0-3.9-0.5-5.1-1.6
					c-1.2-1.1-1.8-2.5-1.8-4.2c0-1,0.2-1.9,0.7-2.7c0.4-0.8,1-1.5,1.8-2c0.7-0.5,1.5-0.9,2.5-1.1c0.7-0.2,1.7-0.3,3-0.5
					c2.8-0.3,4.8-0.7,6.1-1.2c0-0.5,0-0.8,0-0.9c0-1.4-0.3-2.4-1-2.9c-0.9-0.8-2.2-1.2-3.9-1.2c-1.6,0-2.8,0.3-3.6,0.8
					c-0.8,0.6-1.3,1.6-1.7,3l-3.3-0.5c0.3-1.4,0.8-2.6,1.5-3.5c0.7-0.9,1.7-1.6,3-2c1.3-0.5,2.8-0.7,4.6-0.7c1.7,0,3.1,0.2,4.2,0.6
					c1.1,0.4,1.9,0.9,2.4,1.5c0.5,0.6,0.9,1.4,1.1,2.3c0.1,0.6,0.2,1.6,0.2,3.2V37c0,3.2,0.1,5.2,0.2,6c0.1,0.8,0.4,1.7,0.9,2.4
					h-3.6C150.7,44.8,150.5,44,150.4,43z M150.1,35.4c-1.2,0.5-3.1,0.9-5.6,1.3c-1.4,0.2-2.4,0.4-3,0.7c-0.6,0.3-1,0.6-1.3,1.1
					c-0.3,0.5-0.5,1-0.5,1.6c0,0.9,0.3,1.7,1,2.3c0.7,0.6,1.7,0.9,3,0.9c1.3,0,2.5-0.3,3.5-0.9c1-0.6,1.8-1.4,2.3-2.4
					c0.4-0.8,0.6-1.9,0.6-3.4V35.4z"/>
			</g>
			<path class="st8" d="M133,18.1c0,0,5.9-1.7,14.7,0c0,0,2.6,0.9,3.7,1c0,0,7.6-0.5,12.4-1.9c0,0-4.9-0.9-7.8-6.1
				c0,0-1.8-4.3-3.3-4.5c0,0-3.7-0.9-9.1,1.5C143.5,8,137.2,10.7,133,18.1z"/>
			<path class="st9" d="M115.1,18.6c0,0,7.5-2.1,18.6,0c0,0,3.2,0.5,4.6,0.6c0,0,9.1,0.9,16.7-0.5c0,0-7.1-3.3-10.8-9.1
				c0,0-2.8-5.2-4.2-5.7c0,0-4.6-1.2-11.6,1.9C128.4,5.8,120.5,9.2,115.1,18.6z"/>
			<path class="st8" d="M115.1,18.6c0,0,7.5-2.1,18.6,0c0,0-8.1-10,6.3-14.7c0,0-4.6-1.2-11.6,1.9C128.4,5.8,120.5,9.2,115.1,18.6z"
				/>
		</g>
		<g>
			<path class="st0" d="M135.5,54.6v10.1h-1.3V54.6H135.5z"/>
			<path class="st0" d="M144.8,64.3c-0.5,0.2-1.4,0.5-2.7,0.5c-2.8,0-5-1.8-5-5.1c0-3.2,2.1-5.3,5.3-5.3c1.3,0,2.1,0.3,2.4,0.4
				l-0.3,1.1c-0.5-0.2-1.2-0.4-2-0.4c-2.4,0-3.9,1.5-3.9,4.2c0,2.5,1.4,4.1,3.9,4.1c0.8,0,1.6-0.2,2.1-0.4L144.8,64.3z"/>
			<path class="st0" d="M148.1,61.5l-1,3.2h-1.3l3.4-10.1h1.6l3.4,10.1h-1.4l-1.1-3.2H148.1z M151.4,60.5l-1-2.9
				c-0.2-0.7-0.4-1.3-0.5-1.8h0c-0.2,0.6-0.3,1.2-0.5,1.8l-1,2.9H151.4z"/>
		</g>
	</g>
</g>
<g id="Capa_4" class="st3">
	<g class="st4">
		<path class="st10" d="M108.3,30c0.4,0,0.8-0.1,1.2-0.2c0.4-0.1,0.7-0.3,1.1-0.5c0.3-0.2,0.6-0.5,0.7-0.8c0.2-0.3,0.3-0.7,0.3-1.1
			c0-0.5-0.1-0.9-0.4-1.3c-0.3-0.4-0.6-0.7-1-1.1c-0.4-0.3-0.9-0.6-1.4-0.9c-0.5-0.3-1.1-0.6-1.6-0.9c-0.6-0.3-1.1-0.6-1.6-0.9
			c-0.5-0.3-1-0.7-1.4-1.1c-0.4-0.4-0.8-0.8-1-1.3c-0.3-0.5-0.4-1-0.4-1.7s0.1-1.2,0.4-1.7c0.2-0.5,0.6-1,1-1.4
			c0.5-0.4,1-0.7,1.7-0.9c0.7-0.2,1.4-0.3,2.3-0.3c1.5,0,2.8,0.3,3.7,1c0.9,0.6,1.5,1.6,1.9,2.8l-1.4,0.6c-0.2-0.5-0.4-1-0.6-1.4
			c-0.3-0.4-0.6-0.8-0.9-1.1c-0.4-0.3-0.8-0.5-1.2-0.7c-0.5-0.2-1-0.2-1.6-0.2c-0.5,0-1,0.1-1.4,0.2c-0.4,0.1-0.7,0.3-1,0.6
			c-0.3,0.2-0.4,0.5-0.6,0.8c-0.1,0.3-0.2,0.6-0.2,0.9c0,0.4,0.1,0.8,0.4,1.2c0.3,0.4,0.6,0.7,1,1c0.4,0.3,0.9,0.6,1.5,0.9
			c0.6,0.3,1.1,0.6,1.7,0.9c0.6,0.3,1.1,0.6,1.7,0.9c0.6,0.3,1,0.7,1.5,1.1c0.4,0.4,0.8,0.8,1,1.3c0.3,0.5,0.4,1,0.4,1.6
			c0,0.6-0.1,1.3-0.4,1.8c-0.2,0.6-0.6,1.1-1.1,1.5c-0.5,0.4-1.1,0.8-1.8,1c-0.7,0.2-1.6,0.4-2.5,0.4c-0.8,0-1.5-0.1-2.1-0.3
			c-0.6-0.2-1.2-0.4-1.6-0.7c-0.5-0.3-0.9-0.7-1.2-1.2c-0.3-0.5-0.6-1-0.8-1.6l1.5-0.6c0.2,0.5,0.4,1,0.7,1.4c0.3,0.4,0.6,0.8,1,1.1
			c0.4,0.3,0.8,0.5,1.3,0.7C107.3,29.9,107.8,30,108.3,30z"/>
		<path class="st10" d="M125.8,30.6h-2.5v-1.7c-0.3,0.2-0.6,0.5-0.9,0.7c-0.3,0.2-0.6,0.4-0.9,0.6c-0.3,0.2-0.7,0.4-1.1,0.5
			c-0.4,0.1-0.9,0.2-1.4,0.2c-0.5,0-0.9-0.1-1.3-0.2c-0.4-0.2-0.7-0.4-1-0.7c-0.3-0.3-0.5-0.6-0.6-1c-0.1-0.4-0.2-0.8-0.2-1.2
			c0-0.5,0.1-1,0.3-1.5c0.2-0.4,0.5-0.8,0.9-1.2c0.4-0.3,0.8-0.6,1.3-0.9c0.5-0.3,1-0.5,1.6-0.7c0.6-0.2,1.1-0.4,1.7-0.6
			c0.6-0.2,1.2-0.3,1.7-0.5v-0.8c0-0.6-0.1-1.1-0.2-1.4c-0.1-0.4-0.3-0.7-0.5-1c-0.2-0.2-0.5-0.4-0.8-0.5c-0.3-0.1-0.6-0.2-1-0.2
			c-0.4,0-0.8,0.1-1,0.2c-0.3,0.1-0.5,0.3-0.6,0.4c-0.2,0.2-0.3,0.4-0.3,0.6c-0.1,0.2-0.1,0.5-0.1,0.7c0,0.2,0,0.4-0.1,0.6
			c0,0.2-0.1,0.4-0.2,0.5c-0.1,0.2-0.2,0.3-0.4,0.4c-0.2,0.1-0.4,0.1-0.6,0.1c-0.2,0-0.4,0-0.5-0.1c-0.2-0.1-0.3-0.2-0.4-0.3
			c-0.1-0.1-0.2-0.3-0.3-0.5c-0.1-0.2-0.1-0.4-0.1-0.6c0-0.4,0.1-0.8,0.4-1.2c0.3-0.4,0.6-0.7,1.1-0.9c0.5-0.3,1-0.5,1.6-0.6
			c0.6-0.2,1.3-0.2,1.9-0.2c0.8,0,1.5,0.1,2.1,0.2c0.6,0.2,1,0.4,1.4,0.7c0.4,0.3,0.6,0.6,0.8,1.1c0.2,0.4,0.2,0.9,0.2,1.4V30.6z
			 M123.3,23.3c-0.4,0.1-0.7,0.3-1.1,0.4c-0.4,0.1-0.8,0.3-1.1,0.5c-0.4,0.2-0.7,0.4-1.1,0.6c-0.3,0.2-0.6,0.4-0.9,0.7
			c-0.3,0.2-0.5,0.5-0.6,0.8c-0.1,0.3-0.2,0.6-0.2,0.9c0,0.3,0.1,0.6,0.2,0.9c0.1,0.3,0.3,0.5,0.5,0.7c0.2,0.2,0.4,0.4,0.7,0.5
			c0.2,0.1,0.5,0.2,0.8,0.2c0.3,0,0.5,0,0.8-0.1c0.3-0.1,0.5-0.2,0.7-0.3c0.2-0.1,0.5-0.3,0.7-0.4c0.2-0.2,0.5-0.3,0.7-0.5V23.3z"/>
		<path class="st10" d="M129.1,18.1h2.5v2.3c0.8-0.9,1.5-1.5,2.4-1.9c0.8-0.4,1.7-0.6,2.5-0.6c0.4,0,0.8,0.1,1.2,0.3
			c0.4,0.2,0.7,0.5,1,0.8c0.3,0.3,0.5,0.7,0.7,1.2c0.2,0.5,0.3,1,0.3,1.5v9h-2.5V22c0-0.8-0.2-1.5-0.6-1.9c-0.4-0.4-0.9-0.6-1.4-0.6
			c-0.3,0-0.5,0-0.8,0.1c-0.3,0.1-0.6,0.2-0.9,0.4c-0.3,0.2-0.6,0.4-0.9,0.6c-0.3,0.2-0.6,0.5-0.9,0.7v9.3h-2.5V18.1z"/>
		<path class="st10" d="M109.1,33.9l7.6,16.4h-2.7l-2.5-5.4h-6.9l-2.5,5.4h-1.4l7.7-16.4H109.1z M105,43.9h5.9l-2.9-6.4L105,43.9z"
			/>
		<path class="st10" d="M118.1,38h2.5v2.3c0.7-0.8,1.5-1.5,2.3-1.9c0.8-0.4,1.6-0.6,2.5-0.6c0.4,0,0.8,0.1,1.2,0.3
			c0.4,0.2,0.7,0.5,1,0.8c0.3,0.3,0.5,0.7,0.7,1.2c0.2,0.5,0.2,0.9,0.2,1.5v8.9H126v-8.5c0-0.8-0.2-1.4-0.6-1.9
			c-0.4-0.4-0.8-0.6-1.4-0.6c-0.3,0-0.5,0-0.8,0.1c-0.3,0.1-0.6,0.2-0.9,0.4c-0.3,0.2-0.6,0.3-0.9,0.6c-0.3,0.2-0.6,0.5-0.9,0.7v9.2
			h-2.5V38z"/>
		<path class="st10" d="M137.9,48.8c-0.3,0.6-0.8,1-1.3,1.4c-0.5,0.3-1.2,0.5-2,0.5c-0.4,0-0.8-0.1-1.1-0.2
			c-0.3-0.1-0.6-0.3-0.8-0.6c-0.2-0.3-0.3-0.6-0.4-0.9c-0.1-0.4-0.1-0.7-0.1-1.2V39H130v-0.6c0.7,0,1.3-0.1,1.7-0.4
			c0.4-0.2,0.8-0.6,1.1-1c0.3-0.4,0.5-0.9,0.7-1.5c0.2-0.6,0.3-1.2,0.4-1.8h0.7V38h2.8v1h-2.8v8.7c0,0.2,0,0.4,0.1,0.5
			c0.1,0.2,0.2,0.3,0.3,0.4c0.1,0.1,0.3,0.2,0.4,0.3c0.2,0.1,0.3,0.1,0.5,0.1c0.3,0,0.5-0.1,0.8-0.2c0.2-0.1,0.4-0.3,0.6-0.5
			L137.9,48.8z"/>
		<path class="st10" d="M145.5,50.6c-0.9,0-1.8-0.2-2.6-0.5c-0.8-0.3-1.5-0.8-2.1-1.4c-0.6-0.6-1-1.2-1.4-2
			c-0.3-0.8-0.5-1.6-0.5-2.5c0-0.9,0.2-1.8,0.5-2.6c0.3-0.8,0.8-1.5,1.4-2.1c0.6-0.6,1.3-1.1,2.1-1.4c0.8-0.3,1.7-0.5,2.6-0.5
			c0.9,0,1.8,0.2,2.6,0.5c0.8,0.3,1.5,0.7,2.1,1.3c0.6,0.6,1,1.2,1.4,1.9c0.3,0.7,0.5,1.5,0.5,2.4c0,0.9-0.2,1.8-0.5,2.6
			c-0.3,0.8-0.8,1.6-1.4,2.2c-0.6,0.6-1.3,1.1-2.1,1.5C147.3,50.4,146.4,50.6,145.5,50.6z M145.9,49.7c0.5,0,0.9-0.1,1.3-0.4
			c0.4-0.2,0.8-0.6,1.1-1c0.3-0.4,0.5-0.9,0.7-1.5c0.2-0.6,0.2-1.2,0.2-1.8c0-0.9-0.1-1.7-0.2-2.5c-0.2-0.8-0.4-1.5-0.7-2
			c-0.3-0.6-0.8-1-1.4-1.4c-0.6-0.3-1.2-0.5-2-0.5c-0.4,0-0.8,0.1-1.2,0.4c-0.4,0.2-0.7,0.6-1,1c-0.3,0.4-0.5,0.9-0.7,1.5
			c-0.2,0.6-0.3,1.1-0.3,1.8c0,0.9,0.1,1.7,0.3,2.5c0.2,0.8,0.5,1.5,0.8,2.1c0.4,0.6,0.8,1.1,1.3,1.4
			C144.7,49.5,145.3,49.7,145.9,49.7z"/>
		<path class="st10" d="M154.4,38h2.5v2.3c0.7-0.8,1.5-1.5,2.3-1.9c0.8-0.4,1.6-0.6,2.5-0.6c0.4,0,0.8,0.1,1.2,0.3
			c0.4,0.2,0.7,0.5,1,0.8c0.3,0.3,0.5,0.7,0.7,1.2c0.2,0.5,0.2,0.9,0.2,1.5v8.9h-2.5v-8.5c0-0.8-0.2-1.4-0.6-1.9
			c-0.4-0.4-0.8-0.6-1.4-0.6c-0.3,0-0.5,0-0.8,0.1c-0.3,0.1-0.6,0.2-0.9,0.4c-0.3,0.2-0.6,0.3-0.9,0.6c-0.3,0.2-0.6,0.5-0.9,0.7v9.2
			h-2.5V38z"/>
		<path class="st10" d="M168.9,31.6c0.2,0,0.4,0,0.5,0.1c0.2,0.1,0.3,0.2,0.4,0.3c0.1,0.1,0.2,0.2,0.3,0.4c0.1,0.1,0.1,0.3,0.1,0.5
			c0,0.2,0,0.3-0.1,0.5c-0.1,0.1-0.2,0.3-0.3,0.4c-0.1,0.1-0.3,0.2-0.4,0.3c-0.2,0.1-0.4,0.1-0.5,0.1c-0.2,0-0.4,0-0.5-0.1
			c-0.2-0.1-0.3-0.2-0.4-0.3c-0.1-0.1-0.2-0.2-0.3-0.4c-0.1-0.2-0.1-0.3-0.1-0.5c0-0.2,0-0.3,0.1-0.5c0.1-0.2,0.2-0.3,0.3-0.4
			c0.1-0.1,0.3-0.2,0.4-0.3C168.5,31.6,168.7,31.6,168.9,31.6z M167.7,38.4l1.7-0.7h0.7v12.6h-2.4V38.4z"/>
		<path class="st10" d="M179.2,50.6c-0.9,0-1.8-0.2-2.6-0.5c-0.8-0.3-1.5-0.8-2.1-1.4c-0.6-0.6-1-1.2-1.4-2
			c-0.3-0.8-0.5-1.6-0.5-2.5c0-0.9,0.2-1.8,0.5-2.6c0.3-0.8,0.8-1.5,1.4-2.1c0.6-0.6,1.3-1.1,2.1-1.4c0.8-0.3,1.7-0.5,2.6-0.5
			c0.9,0,1.8,0.2,2.6,0.5c0.8,0.3,1.5,0.7,2.1,1.3c0.6,0.6,1,1.2,1.4,1.9c0.3,0.7,0.5,1.5,0.5,2.4c0,0.9-0.2,1.8-0.5,2.6
			c-0.3,0.8-0.8,1.6-1.4,2.2c-0.6,0.6-1.3,1.1-2.1,1.5C181,50.4,180.1,50.6,179.2,50.6z M179.7,49.7c0.5,0,0.9-0.1,1.3-0.4
			c0.4-0.2,0.8-0.6,1.1-1c0.3-0.4,0.5-0.9,0.7-1.5c0.2-0.6,0.2-1.2,0.2-1.8c0-0.9-0.1-1.7-0.2-2.5c-0.2-0.8-0.4-1.5-0.7-2
			c-0.3-0.6-0.8-1-1.4-1.4c-0.6-0.3-1.2-0.5-2-0.5c-0.4,0-0.8,0.1-1.2,0.4c-0.4,0.2-0.7,0.6-1,1c-0.3,0.4-0.5,0.9-0.7,1.5
			c-0.2,0.6-0.3,1.1-0.3,1.8c0,0.9,0.1,1.7,0.3,2.5c0.2,0.8,0.5,1.5,0.8,2.1c0.4,0.6,0.8,1.1,1.3,1.4
			C178.4,49.5,179,49.7,179.7,49.7z"/>
		<path class="st11" d="M31.1,49.2H5c0,0-5.6-0.4-4.9-6.7C0,42.5,5.4,9,41.1,7.6c0,0,23.3-0.2,36,20.4l1.1,16.2L56.9,50L31.1,49.2z"
			/>
		<g>
			<path class="st12" d="M65.4,37.8l-16,16.3l10.4,10.6c1.5,1.5,3.5,2.3,5.5,2.3c2.1,0,4.1-0.8,5.7-2.3l10.4-10.6L65.4,37.8z"/>
			<path class="st12" d="M81.4,54.1l-16-16.3l10.4-10.6c1.5-1.5,3.5-2.3,5.5-2.3c2.1,0,4.1,0.8,5.7,2.3l10.4,10.6L81.4,54.1z"/>
			<path class="st13" d="M33.3,37.8l-16,16.3l10.4,10.6c1.5,1.5,3.5,2.3,5.5,2.3c2.1,0,4.1-0.8,5.7-2.3l10.4-10.6L33.3,37.8z"/>
			<path class="st13" d="M49.3,54.1l-16-16.3l10.4-10.6c1.5-1.5,3.5-2.3,5.5-2.3c2.1,0,4.1,0.8,5.7,2.3l10.4,10.6L49.3,54.1z"/>
		</g>
		<g>
			<path class="st14" d="M108.6,59c0,1.2-0.4,2.1-1.2,2.7c-0.8,0.6-1.9,0.9-3.3,0.9h-2.4v-7.1h2.6c1.3,0,2.4,0.3,3.1,0.9
				C108.2,57,108.6,57.9,108.6,59z M107.1,59c0-1.7-0.9-2.6-2.8-2.6h-1.2v5.2h1C106.1,61.6,107.1,60.8,107.1,59z"/>
			<path class="st14" d="M116.3,62.6h-4.8v-7.1h4.8v1h-3.4v1.9h3.2v1h-3.2v2.2h3.4V62.6z"/>
			<path class="st14" d="M127.2,62.6l-2.4-5.9h0c0.1,0.9,0.1,1.7,0.1,2.5v3.5h-1.2v-7.1h1.9l2.3,5.7h0l2.4-5.7h1.9v7.1h-1.3v-3.5
				c0-0.4,0-0.8,0-1.4c0-0.6,0-0.9,0.1-1h0l-2.5,5.9H127.2z"/>
			<path class="st14" d="M140.8,62.6l-0.8-2h-3.2l-0.8,2h-1.4l3.1-7.1h1.5l3.1,7.1H140.8z M139.6,59.6l-0.8-1.9
				c-0.1-0.1-0.1-0.3-0.2-0.6c-0.1-0.3-0.2-0.5-0.2-0.6c-0.1,0.4-0.3,0.8-0.5,1.3l-0.8,1.9H139.6z"/>
			<path class="st14" d="M144.5,62.6v-7.1h1.4v6.1h3.6v1H144.5z"/>
			<path class="st14" d="M157.3,62.6l-0.8-2h-3.2l-0.8,2H151l3.1-7.1h1.5l3.1,7.1H157.3z M156.1,59.6l-0.8-1.9
				c-0.1-0.1-0.1-0.3-0.2-0.6c-0.1-0.3-0.2-0.5-0.2-0.6c-0.1,0.4-0.3,0.8-0.5,1.3l-0.8,1.9H156.1z"/>
		</g>
	</g>
</g>
<g id="Capa_5" class="st3">
	<g class="st4">
		<g>
			<g>
				<path class="st15" d="M109,9.5c0.2-0.2,0.3-0.3,0.5-0.5c-4.4-4.3-10.4-7-17.1-7c-7.1,0-13.4,3-17.9,7.8l17.1,17.1L109,9.5z"/>
			</g>
			<g>
				<g>
					<path class="st6" d="M128,9.5c-5.1-5.1-13.2-5.2-18.5-0.5c-0.2,0.2-0.3,0.3-0.5,0.5L91.9,26.6h53.2L128,9.5z"/>
				</g>
				<g>
					<path class="st6" d="M74.5,9.9l-0.4-0.4c-5.2-5.2-13.8-5.2-19,0L38.1,26.6h53.2L74.5,9.9z"/>
				</g>
				<g>
					<polygon class="st16" points="91.9,26.6 91.2,26.6 91.6,26.9 					"/>
				</g>
			</g>
			<g>
				<g>
					<path class="st2" d="M15.4,43.9c0,2.1-0.7,3.7-2.1,4.9c-1.4,1.1-3.3,1.7-5.9,1.7H5.3V58H2V37.8h5.8c2.5,0,4.4,0.5,5.7,1.5
						S15.4,41.9,15.4,43.9z M5.3,47.7h1.8c1.7,0,2.9-0.3,3.7-0.9c0.8-0.6,1.2-1.5,1.2-2.8c0-1.2-0.4-2-1.1-2.6
						c-0.7-0.6-1.8-0.9-3.3-0.9H5.3V47.7z"/>
				</g>
				<g>
					<path class="st2" d="M31.9,50.4c0,2.5-0.6,4.4-1.9,5.8c-1.3,1.4-3.1,2.1-5.3,2.1c-1.4,0-2.7-0.3-3.8-1
						c-1.1-0.6-1.9-1.6-2.5-2.8c-0.6-1.2-0.9-2.6-0.9-4.2c0-2.5,0.6-4.4,1.9-5.8c1.3-1.4,3.1-2.1,5.4-2.1c2.2,0,4,0.7,5.3,2.1
						C31.3,46,31.9,47.9,31.9,50.4z M20.8,50.4c0,3.5,1.3,5.3,3.9,5.3c2.6,0,3.9-1.8,3.9-5.3c0-3.5-1.3-5.2-3.9-5.2
						c-1.4,0-2.4,0.5-3,1.4C21.1,47.4,20.8,48.7,20.8,50.4z"/>
				</g>
				<g>
					<path class="st2" d="M45.2,53.7c0,1.5-0.5,2.6-1.6,3.4c-1.1,0.8-2.6,1.2-4.7,1.2c-2,0-3.7-0.3-4.9-0.9v-2.8
						c1.8,0.8,3.5,1.2,5,1.2c2,0,3-0.6,3-1.8c0-0.4-0.1-0.7-0.3-1c-0.2-0.3-0.6-0.5-1.1-0.8c-0.5-0.3-1.2-0.6-2.1-0.9
						c-1.8-0.7-3-1.4-3.6-2c-0.6-0.7-0.9-1.6-0.9-2.7c0-1.3,0.5-2.3,1.6-3c1.1-0.7,2.5-1.1,4.3-1.1c1.8,0,3.5,0.4,5.1,1.1L43.9,46
						c-1.6-0.7-3-1-4.2-1c-1.7,0-2.6,0.5-2.6,1.5c0,0.5,0.2,0.9,0.7,1.2c0.4,0.3,1.4,0.8,2.9,1.4c1.3,0.5,2.2,0.9,2.8,1.3
						c0.6,0.4,1,0.9,1.3,1.4C45.1,52.3,45.2,52.9,45.2,53.7z"/>
				</g>
				<g>
					<path class="st2" d="M57.6,58L57,55.9h-0.1c-0.7,0.9-1.5,1.6-2.2,1.9c-0.7,0.3-1.7,0.5-2.9,0.5c-1.5,0-2.7-0.4-3.5-1.2
						c-0.8-0.8-1.3-2-1.3-3.4c0-1.6,0.6-2.8,1.8-3.6c1.2-0.8,3-1.2,5.3-1.3l2.6-0.1v-0.8c0-1-0.2-1.7-0.7-2.2
						c-0.5-0.5-1.2-0.7-2.1-0.7c-0.8,0-1.5,0.1-2.3,0.3c-0.7,0.2-1.4,0.5-2.1,0.8l-1.1-2.3c0.8-0.4,1.7-0.8,2.7-1
						c1-0.2,1.9-0.3,2.8-0.3c1.9,0,3.4,0.4,4.4,1.3c1,0.8,1.5,2.2,1.5,4V58H57.6z M52.8,55.8c1.2,0,2.1-0.3,2.8-1
						c0.7-0.7,1.1-1.6,1.1-2.8v-1.3l-2,0.1c-1.5,0.1-2.6,0.3-3.3,0.8c-0.7,0.5-1,1.2-1,2.1c0,0.7,0.2,1.2,0.6,1.6
						C51.3,55.6,52,55.8,52.8,55.8z"/>
				</g>
				<g>
					<path class="st2" d="M68.9,58.3c-1.9,0-3.4-0.7-4.5-2.1c-1.1-1.4-1.6-3.3-1.6-5.8c0-2.5,0.5-4.5,1.6-5.9
						c1.1-1.4,2.6-2.1,4.5-2.1c2,0,3.5,0.7,4.6,2.2h0.2c-0.2-1.1-0.2-2-0.2-2.6v-5.6h3.3V58h-2.5l-0.6-2h-0.2
						C72.4,57.5,70.9,58.3,68.9,58.3z M69.8,55.7c1.3,0,2.3-0.4,2.9-1.1c0.6-0.8,0.9-2,0.9-3.7v-0.5c0-1.9-0.3-3.3-0.9-4.1
						c-0.6-0.8-1.6-1.2-2.9-1.2c-1.1,0-2,0.5-2.6,1.4c-0.6,0.9-0.9,2.2-0.9,4c0,1.7,0.3,3,0.9,3.9C67.7,55.2,68.6,55.7,69.8,55.7z"
						/>
				</g>
				<g>
					<path class="st2" d="M90.2,58l-0.7-2.1h-0.1c-0.7,0.9-1.5,1.6-2.2,1.9c-0.7,0.3-1.7,0.5-2.9,0.5c-1.5,0-2.7-0.4-3.5-1.2
						c-0.8-0.8-1.3-2-1.3-3.4c0-1.6,0.6-2.8,1.8-3.6c1.2-0.8,3-1.2,5.3-1.3l2.6-0.1v-0.8c0-1-0.2-1.7-0.7-2.2
						c-0.5-0.5-1.2-0.7-2.1-0.7c-0.8,0-1.5,0.1-2.3,0.3c-0.7,0.2-1.4,0.5-2.1,0.8l-1.1-2.3c0.8-0.4,1.7-0.8,2.7-1s1.9-0.3,2.8-0.3
						c1.9,0,3.4,0.4,4.4,1.3c1,0.8,1.5,2.2,1.5,4V58H90.2z M85.4,55.8c1.2,0,2.1-0.3,2.8-1c0.7-0.7,1.1-1.6,1.1-2.8v-1.3l-2,0.1
						c-1.5,0.1-2.6,0.3-3.3,0.8c-0.7,0.5-1,1.2-1,2.1c0,0.7,0.2,1.2,0.6,1.6C84,55.6,84.6,55.8,85.4,55.8z"/>
				</g>
				<g>
					<path class="st2" d="M108.2,58.3c-1.9,0-3.4-0.7-4.5-2.1c-1.1-1.4-1.6-3.3-1.6-5.8c0-2.5,0.5-4.5,1.6-5.9
						c1.1-1.4,2.6-2.1,4.5-2.1c2,0,3.5,0.7,4.6,2.2h0.2c-0.2-1.1-0.2-2-0.2-2.6v-5.6h3.3V58h-2.5l-0.6-2h-0.2
						C111.8,57.5,110.2,58.3,108.2,58.3z M109.1,55.7c1.3,0,2.3-0.4,2.9-1.1c0.6-0.8,0.9-2,0.9-3.7v-0.5c0-1.9-0.3-3.3-0.9-4.1
						c-0.6-0.8-1.6-1.2-2.9-1.2c-1.1,0-2,0.5-2.6,1.4c-0.6,0.9-0.9,2.2-0.9,4c0,1.7,0.3,3,0.9,3.9C107,55.2,107.9,55.7,109.1,55.7z"
						/>
				</g>
				<g>
					<path class="st2" d="M126.7,58.3c-2.4,0-4.2-0.7-5.6-2.1c-1.3-1.4-2-3.3-2-5.7c0-2.5,0.6-4.5,1.9-5.9c1.2-1.4,3-2.1,5.1-2.1
						c2,0,3.6,0.6,4.8,1.8c1.2,1.2,1.8,2.9,1.8,5.1v1.8h-10.2c0,1.5,0.4,2.6,1.2,3.4c0.8,0.8,1.8,1.2,3.2,1.2c0.9,0,1.7-0.1,2.5-0.3
						c0.8-0.2,1.6-0.5,2.5-0.9v2.6c-0.8,0.4-1.6,0.6-2.4,0.8C128.6,58.2,127.7,58.3,126.7,58.3z M126.1,44.9c-1,0-1.9,0.3-2.5,1
						c-0.6,0.7-1,1.6-1.1,2.9h6.9c0-1.3-0.3-2.2-0.9-2.9C127.9,45.3,127.1,44.9,126.1,44.9z"/>
				</g>
				<g>
					<path class="st2" d="M138.8,58h-3.2V36.5h3.2V58z"/>
				</g>
				<g>
					<path class="st2" d="M161.5,52.5c0,1.8-0.7,3.2-1.9,4.2c-1.3,1-3.1,1.5-5.4,1.5c-2.3,0-4.2-0.4-5.6-1.1v-3.1
						c0.9,0.4,1.9,0.8,2.9,1c1,0.2,2,0.4,2.9,0.4c1.3,0,2.3-0.2,2.9-0.7c0.6-0.5,0.9-1.2,0.9-2c0-0.8-0.3-1.4-0.9-1.9
						c-0.6-0.5-1.8-1.1-3.5-1.9c-1.8-0.7-3.1-1.6-3.9-2.6c-0.8-1-1.1-2.1-1.1-3.5c0-1.7,0.6-3,1.8-4c1.2-1,2.8-1.5,4.8-1.5
						c1.9,0,3.9,0.4,5.8,1.3l-1,2.7c-1.8-0.8-3.4-1.1-4.8-1.1c-1.1,0-1.9,0.2-2.4,0.7c-0.6,0.5-0.8,1.1-0.8,1.8c0,0.5,0.1,1,0.3,1.3
						c0.2,0.4,0.6,0.7,1.1,1.1c0.5,0.3,1.4,0.8,2.7,1.3c1.5,0.6,2.6,1.2,3.3,1.7c0.7,0.5,1.2,1.1,1.5,1.8
						C161.3,50.8,161.5,51.6,161.5,52.5z"/>
				</g>
				<g>
					<path class="st2" d="M177.9,50.4c0,2.5-0.6,4.4-1.9,5.8c-1.3,1.4-3.1,2.1-5.3,2.1c-1.4,0-2.7-0.3-3.8-1
						c-1.1-0.6-1.9-1.6-2.5-2.8c-0.6-1.2-0.9-2.6-0.9-4.2c0-2.5,0.6-4.4,1.9-5.8c1.3-1.4,3.1-2.1,5.4-2.1c2.2,0,4,0.7,5.3,2.1
						C177.3,46,177.9,47.9,177.9,50.4z M166.8,50.4c0,3.5,1.3,5.3,3.9,5.3c2.6,0,3.9-1.8,3.9-5.3c0-3.5-1.3-5.2-3.9-5.2
						c-1.4,0-2.4,0.5-3,1.4C167.1,47.4,166.8,48.7,166.8,50.4z"/>
				</g>
				<g>
					<path class="st2" d="M184.2,58H181V36.5h3.2V58z"/>
				</g>
			</g>
			<g>
				<g>
					<path class="st2" d="M81.5,73.2V63.1h1.2v10.1H81.5z"/>
					<path class="st2" d="M82.7,73.6h-1.2c-0.2,0-0.4-0.2-0.4-0.4V63.1c0-0.2,0.2-0.4,0.4-0.4h1.2c0.2,0,0.4,0.2,0.4,0.4v10.1
						C83.1,73.5,82.9,73.6,82.7,73.6z M81.9,72.8h0.4v-9.3h-0.4V72.8z"/>
				</g>
				<g>
					<path class="st2" d="M90.2,64c-1.1,0-2,0.4-2.6,1.1c-0.6,0.7-1,1.8-1,3c0,1.3,0.3,2.3,0.9,3.1c0.6,0.7,1.5,1.1,2.7,1.1
						c0.7,0,1.5-0.1,2.4-0.4v1c-0.7,0.3-1.6,0.4-2.6,0.4c-1.5,0-2.6-0.5-3.5-1.4c-0.8-0.9-1.2-2.2-1.2-3.9c0-1,0.2-2,0.6-2.7
						c0.4-0.8,1-1.4,1.7-1.8c0.7-0.4,1.6-0.6,2.6-0.6c1.1,0,2,0.2,2.8,0.6l-0.5,1C91.7,64.2,91,64,90.2,64z"/>
					<path class="st2" d="M90,73.8c-1.6,0-2.9-0.5-3.8-1.5c-0.9-1-1.3-2.4-1.3-4.1c0-1.1,0.2-2.1,0.6-2.9c0.4-0.9,1.1-1.5,1.9-2
						c0.8-0.5,1.7-0.7,2.8-0.7c1.1,0,2.1,0.2,3,0.6c0.1,0,0.2,0.1,0.2,0.2c0,0.1,0,0.2,0,0.3l-0.5,1c-0.1,0.2-0.3,0.3-0.5,0.2
						c-0.7-0.3-1.4-0.5-2.1-0.5c-1,0-1.8,0.3-2.3,1C87.3,66.1,87,67,87,68.2c0,1.2,0.3,2.2,0.8,2.8c0.9,1,2.5,1.2,4.7,0.6
						c0.1,0,0.3,0,0.4,0.1c0.1,0.1,0.2,0.2,0.2,0.3v1c0,0.2-0.1,0.3-0.3,0.4C92,73.6,91.1,73.8,90,73.8z M90.2,63.4
						c-0.9,0-1.7,0.2-2.4,0.6c-0.7,0.4-1.2,0.9-1.5,1.6c-0.4,0.7-0.5,1.6-0.5,2.6c0,1.6,0.4,2.8,1.1,3.6c0.7,0.8,1.8,1.2,3.1,1.2
						c0.8,0,1.6-0.1,2.2-0.3v-0.2c-2.3,0.5-3.9,0.2-5-1c-0.7-0.8-1-1.9-1-3.3c0-1.4,0.4-2.5,1.1-3.3c0.7-0.8,1.7-1.3,2.9-1.3
						c0.7,0,1.4,0.1,2.1,0.4l0.1-0.3C91.8,63.5,91,63.4,90.2,63.4z"/>
				</g>
				<g>
					<path class="st2" d="M101.5,73.2l-1.3-3.2h-4.1L95,73.2h-1.2l4-10.2h1l4,10.2H101.5z M99.9,69l-1.2-3.1
						c-0.2-0.4-0.3-0.9-0.5-1.5c-0.1,0.4-0.2,0.9-0.4,1.5L96.6,69H99.9z"/>
					<path class="st2" d="M102.8,73.6C102.8,73.6,102.7,73.6,102.8,73.6h-1.2c-0.2,0-0.3-0.1-0.4-0.3l-1.2-3h-3.5l-1.1,3
						c-0.1,0.2-0.2,0.3-0.4,0.3h-1.2c-0.1,0-0.3-0.1-0.3-0.2c-0.1-0.1-0.1-0.3,0-0.4l4-10.2c0.1-0.2,0.2-0.3,0.4-0.3h1
						c0.2,0,0.3,0.1,0.4,0.3l3.9,10.1c0.1,0.1,0.1,0.2,0.1,0.2C103.2,73.5,103,73.6,102.8,73.6z M101.8,72.8h0.3l-3.7-9.3H98
						l-3.7,9.3h0.3l1.1-3c0.1-0.2,0.2-0.3,0.4-0.3h4.1c0.2,0,0.3,0.1,0.4,0.3L101.8,72.8z M99.9,69.4h-3.3c-0.1,0-0.3-0.1-0.3-0.2
						c-0.1-0.1-0.1-0.3,0-0.4l1.2-3.1c0.2-0.5,0.3-1,0.4-1.4c0-0.2,0.2-0.3,0.4-0.3c0.2,0,0.4,0.1,0.4,0.3c0.2,0.6,0.3,1,0.5,1.4
						l1.2,3.1c0,0.1,0,0.3,0,0.4C100.2,69.3,100,69.4,99.9,69.4z M97.2,68.5h2.1l-1-2.6c0-0.1,0-0.1-0.1-0.2c0,0.1,0,0.1-0.1,0.2
						L97.2,68.5z"/>
				</g>
			</g>
		</g>
	</g>
</g>
<g id="Capa_6" class="st3">
	<g class="st4">
		<g>
			<g>
				<path class="st0" d="M52.8,44.3V26.5h2.9v15.3h7.5v2.5H52.8z"/>
				<path class="st0" d="M77.3,37.5c0,2.2-0.6,3.9-1.7,5.1c-1.1,1.2-2.7,1.8-4.7,1.8c-1.3,0-2.4-0.3-3.3-0.9c-1-0.6-1.7-1.4-2.2-2.4
					c-0.5-1.1-0.8-2.3-0.8-3.7c0-2.2,0.6-3.9,1.7-5.1c1.1-1.2,2.7-1.8,4.7-1.8c1.9,0,3.5,0.6,4.6,1.9C76.7,33.7,77.3,35.4,77.3,37.5
					z M67.5,37.5c0,3.1,1.1,4.7,3.4,4.7c2.3,0,3.4-1.6,3.4-4.7c0-3.1-1.1-4.6-3.4-4.6c-1.2,0-2.1,0.4-2.6,1.2
					C67.8,34.9,67.5,36,67.5,37.5z"/>
				<path class="st0" d="M89,40.4c0,1.3-0.5,2.3-1.4,3c-1,0.7-2.3,1.1-4.1,1.1c-1.8,0-3.2-0.3-4.3-0.8v-2.5c1.6,0.7,3.1,1.1,4.4,1.1
					c1.8,0,2.6-0.5,2.6-1.6c0-0.3-0.1-0.6-0.3-0.9c-0.2-0.2-0.5-0.5-1-0.7c-0.4-0.2-1.1-0.5-1.9-0.8c-1.5-0.6-2.6-1.2-3.1-1.8
					c-0.5-0.6-0.8-1.4-0.8-2.3c0-1.2,0.5-2,1.4-2.7c0.9-0.6,2.2-1,3.8-1c1.6,0,3.1,0.3,4.5,1l-0.9,2.2c-1.5-0.6-2.7-0.9-3.7-0.9
					c-1.5,0-2.3,0.4-2.3,1.3c0,0.4,0.2,0.8,0.6,1.1c0.4,0.3,1.3,0.7,2.6,1.2c1.1,0.4,1.9,0.8,2.4,1.2c0.5,0.4,0.9,0.8,1.1,1.2
					C88.9,39.2,89,39.8,89,40.4z"/>
				<path class="st0" d="M105.4,44.3l-5.2-14.8h-0.1c0.1,2.2,0.2,4.3,0.2,6.2v8.6h-2.6V26.5h4.1l4.9,14.1h0.1l5.1-14.1h4.1v17.8
					h-2.8v-8.8c0-0.9,0-2,0.1-3.5c0-1.4,0.1-2.3,0.1-2.6h-0.1l-5.3,14.8H105.4z"/>
				<path class="st0" d="M131.7,37.5c0,2.2-0.6,3.9-1.7,5.1c-1.1,1.2-2.7,1.8-4.7,1.8c-1.3,0-2.4-0.3-3.3-0.9
					c-1-0.6-1.7-1.4-2.2-2.4c-0.5-1.1-0.8-2.3-0.8-3.7c0-2.2,0.6-3.9,1.7-5.1c1.1-1.2,2.7-1.8,4.7-1.8c1.9,0,3.5,0.6,4.6,1.9
					C131.1,33.7,131.7,35.4,131.7,37.5z M121.9,37.5c0,3.1,1.1,4.7,3.4,4.7c2.3,0,3.4-1.6,3.4-4.7c0-3.1-1.1-4.6-3.4-4.6
					c-1.2,0-2.1,0.4-2.6,1.2C122.2,34.9,121.9,36,121.9,37.5z"/>
				<path class="st0" d="M137.2,44.3h-2.9V25.4h2.9V44.3z"/>
				<path class="st0" d="M140.5,27.3c0-0.5,0.1-0.9,0.4-1.2s0.7-0.4,1.2-0.4c0.5,0,0.9,0.1,1.2,0.4c0.3,0.3,0.4,0.7,0.4,1.2
					c0,0.5-0.1,0.9-0.4,1.1c-0.3,0.3-0.7,0.4-1.2,0.4c-0.5,0-0.9-0.1-1.2-0.4C140.7,28.1,140.5,27.7,140.5,27.3z M143.6,44.3h-2.9
					V30.8h2.9V44.3z"/>
				<path class="st0" d="M158.9,44.3H156V36c0-1-0.2-1.8-0.6-2.3c-0.4-0.5-1.1-0.8-2-0.8c-1.2,0-2.1,0.4-2.7,1.1
					c-0.6,0.7-0.8,1.9-0.8,3.6v6.7h-2.9V30.8h2.2l0.4,1.8h0.1c0.4-0.6,1-1.1,1.7-1.5c0.7-0.3,1.6-0.5,2.5-0.5c3.2,0,4.8,1.6,4.8,4.9
					V44.3z"/>
				<path class="st0" d="M174.2,37.5c0,2.2-0.6,3.9-1.7,5.1c-1.1,1.2-2.7,1.8-4.7,1.8c-1.3,0-2.4-0.3-3.3-0.9
					c-1-0.6-1.7-1.4-2.2-2.4c-0.5-1.1-0.8-2.3-0.8-3.7c0-2.2,0.6-3.9,1.7-5.1c1.1-1.2,2.7-1.8,4.7-1.8c1.9,0,3.5,0.6,4.6,1.9
					C173.6,33.7,174.2,35.4,174.2,37.5z M164.4,37.5c0,3.1,1.1,4.7,3.4,4.7c2.3,0,3.4-1.6,3.4-4.7c0-3.1-1.1-4.6-3.4-4.6
					c-1.2,0-2.1,0.4-2.6,1.2C164.7,34.9,164.4,36,164.4,37.5z"/>
				<path class="st0" d="M185.9,40.4c0,1.3-0.5,2.3-1.4,3c-1,0.7-2.3,1.1-4.1,1.1c-1.8,0-3.2-0.3-4.3-0.8v-2.5
					c1.6,0.7,3.1,1.1,4.4,1.1c1.8,0,2.6-0.5,2.6-1.6c0-0.3-0.1-0.6-0.3-0.9c-0.2-0.2-0.5-0.5-1-0.7c-0.4-0.2-1.1-0.5-1.9-0.8
					c-1.5-0.6-2.6-1.2-3.1-1.8c-0.5-0.6-0.8-1.4-0.8-2.3c0-1.2,0.5-2,1.4-2.7c0.9-0.6,2.2-1,3.8-1c1.6,0,3.1,0.3,4.5,1l-0.9,2.2
					c-1.5-0.6-2.7-0.9-3.7-0.9c-1.5,0-2.3,0.4-2.3,1.3c0,0.4,0.2,0.8,0.6,1.1c0.4,0.3,1.3,0.7,2.6,1.2c1.1,0.4,1.9,0.8,2.4,1.2
					c0.5,0.4,0.9,0.8,1.1,1.2C185.8,39.2,185.9,39.8,185.9,40.4z"/>
			</g>
			<g>
				<path class="st2" d="M89.4,49.9c-0.8,0-1.5,0.3-1.9,0.8c-0.5,0.5-0.7,1.3-0.7,2.2c0,1,0.2,1.7,0.7,2.3c0.5,0.5,1.1,0.8,2,0.8
					c0.5,0,1.1-0.1,1.8-0.3v0.8c-0.5,0.2-1.2,0.3-1.9,0.3c-1.1,0-1.9-0.3-2.5-1c-0.6-0.7-0.9-1.6-0.9-2.8c0-0.8,0.1-1.4,0.4-2
					c0.3-0.6,0.7-1,1.2-1.3c0.5-0.3,1.2-0.5,1.9-0.5c0.8,0,1.5,0.1,2,0.4l-0.4,0.7C90.6,50,90,49.9,89.4,49.9z"/>
				<path class="st2" d="M97.8,56.7l-0.9-2.4h-3l-0.9,2.4h-0.9l2.9-7.5h0.7l2.9,7.5H97.8z M96.6,53.5l-0.9-2.3
					c-0.1-0.3-0.2-0.7-0.3-1.1c-0.1,0.3-0.2,0.7-0.3,1.1l-0.9,2.3H96.6z"/>
				<path class="st2" d="M100.8,53.6v3.1h-0.9v-7.4h2c0.9,0,1.6,0.2,2,0.5c0.4,0.3,0.7,0.9,0.7,1.6c0,1-0.5,1.6-1.5,2l2,3.3h-1
					l-1.8-3.1H100.8z M100.8,52.8h1.2c0.6,0,1.1-0.1,1.3-0.4c0.3-0.2,0.4-0.6,0.4-1.1c0-0.5-0.1-0.8-0.4-1.1
					c-0.3-0.2-0.8-0.3-1.4-0.3h-1.1V52.8z"/>
				<path class="st2" d="M111.3,56.7l-0.9-2.4h-3l-0.9,2.4h-0.9l2.9-7.5h0.7l2.9,7.5H111.3z M110.1,53.5l-0.9-2.3
					c-0.1-0.3-0.2-0.7-0.3-1.1c-0.1,0.3-0.2,0.7-0.3,1.1l-0.9,2.3H110.1z"/>
				<path class="st2" d="M113.5,49.2h2.1c1,0,1.7,0.1,2.1,0.4c0.4,0.3,0.7,0.8,0.7,1.4c0,0.4-0.1,0.8-0.4,1.1
					c-0.2,0.3-0.6,0.5-1.1,0.6v0.1c1.1,0.2,1.7,0.8,1.7,1.8c0,0.7-0.2,1.2-0.7,1.6c-0.4,0.4-1.1,0.6-1.9,0.6h-2.6V49.2z M114.4,52.4
					h1.4c0.6,0,1-0.1,1.3-0.3c0.3-0.2,0.4-0.5,0.4-1c0-0.4-0.1-0.7-0.4-0.9c-0.3-0.2-0.8-0.3-1.4-0.3h-1.3V52.4z M114.4,53.1v2.8
					h1.6c0.6,0,1.1-0.1,1.4-0.3c0.3-0.2,0.5-0.6,0.5-1.1c0-0.5-0.2-0.8-0.5-1c-0.3-0.2-0.8-0.3-1.4-0.3H114.4z"/>
				<path class="st2" d="M125.2,56.7l-0.9-2.4h-3l-0.9,2.4h-0.9l2.9-7.5h0.7l2.9,7.5H125.2z M124,53.5l-0.9-2.3
					c-0.1-0.3-0.2-0.7-0.3-1.1c-0.1,0.3-0.2,0.7-0.3,1.1l-0.9,2.3H124z"/>
				<path class="st2" d="M129.3,52.9l2-3.7h0.9l-2.5,4.6v2.9h-0.9v-2.8l-2.5-4.6h0.9L129.3,52.9z"/>
				<path class="st2" d="M133.4,56.7v-7.4h0.9v6.7h3.3v0.8H133.4z"/>
				<path class="st2" d="M139.1,56.7v-7.4h0.9v6.7h3.3v0.8H139.1z"/>
				<path class="st2" d="M151.2,52.9c0,1.2-0.3,2.1-0.9,2.8c-0.6,0.7-1.4,1-2.5,1c-1.1,0-1.9-0.3-2.5-1c-0.6-0.7-0.9-1.6-0.9-2.8
					c0-1.2,0.3-2.1,0.9-2.8c0.6-0.7,1.4-1,2.5-1c1.1,0,1.9,0.3,2.5,1C150.9,50.8,151.2,51.7,151.2,52.9z M145.3,52.9
					c0,1,0.2,1.8,0.6,2.3c0.4,0.5,1.1,0.8,1.9,0.8c0.8,0,1.4-0.3,1.9-0.8c0.4-0.5,0.6-1.3,0.6-2.3c0-1-0.2-1.8-0.6-2.3
					c-0.4-0.5-1-0.8-1.9-0.8c-0.8,0-1.5,0.3-1.9,0.8C145.5,51.2,145.3,51.9,145.3,52.9z"/>
			</g>
			<g>
				<g>
					<path class="st7" d="M28.8,53c-0.8,0-1.5-0.6-2-1.4c-0.7-1.1-1.1-2.4-1.4-3.6c-0.5-1.9-0.7-3.9-1-5.7c-0.1-0.9-0.3-1.8-0.4-2.7
						L23.9,39c-0.1-0.6-0.2-1.1-0.3-1.7c-1.3,0.6-2.5,0.5-3.8,0c-0.4,0.6-0.8,1.2-1.3,1.8c-0.4,0.6-0.8,1.2-1.2,1.8
						c-2.3,3.3-4.6,6.5-6.9,9.8L9,52.6c0,2,0,3.9-0.1,5.9c-0.1,2,1,3.2,2.6,4c2,1,4.1,1.4,6.5,1.6c0-0.5,0-0.9,0-1.3
						c0-1.3,0-2.7,0.1-4c0.1-1.6,0.6-3,1.6-4.3c1.3-1.8,3.1-1.8,4.5,0c0.5,0.6,0.9,1.4,1.1,2.1c0.4,1.4,0.6,2.8,0.7,4.2
						c0.1,1,0,2,0,3.1c2.2-0.1,4.3-0.7,6.2-1.9c1.3-0.8,2-1.9,1.9-3.4c-0.1-2.1-0.2-4.3-0.3-6.4c0,0,0,0,0-0.4
						c-1.4,0.4-2.7,0.8-4,1.1C29.4,53,29.1,53,28.8,53z"/>
					<path class="st7" d="M15.3,35.4l0.7-0.1c0.3,0,0.6-0.1,0.9-0.1c-1.5-0.4-2.9-0.8-4.5-1.2c-0.1,0.7-0.3,1.3-0.4,2
						c0.3,0,0.7-0.1,1-0.1C13.7,35.7,14.5,35.6,15.3,35.4z"/>
					<path class="st7" d="M31.8,39.7c-0.4-2-0.8-3.8-1.1-5.7c-1.1,0.3-1.9,0.6-2.8,0.9c-0.7,0.2-1.4,0.4-2.2,0.6
						c0.6,0.4,1.3,0.9,1.9,1.3L31.8,39.7z"/>
					<path class="st6" d="M29.6,43.6C29.6,43.6,29.6,43.5,29.6,43.6C29.5,43.5,29.5,43.5,29.6,43.6L29.6,43.6z"/>
					<g>
						<path class="st7" d="M19.8,26.3l0.1,0.4c0.1,0.9,0.3,1.8,0.5,2.7c0.4-0.2,0.9-0.3,1.4-0.3c0.8,0,1.5,0.2,2.2,0.6
							c0.8-1.1,1.5-2.2,2.3-3.2c-1.5-1.6-3.1-3.2-4.4-4.5c-0.8,0.7-1.6,1.4-2.3,2.1l0,0c0,0.1,0,0.3,0.1,0.4
							C19.6,25.1,19.7,25.7,19.8,26.3z"/>
						<path class="st7" d="M30.5,30.9c-1,0.1-1.9,0.3-2.9,0.4c-0.7,0.1-1.3,0.2-1.9,0.4c0.2,0.5,0.3,1.1,0.3,1.6c0,0,0,0,0,0
							c0.1,0.4,0.1,0.8,0.2,1.2c2.1-0.3,4.1-0.8,6.2-1.9C31.7,32.1,31.1,31.5,30.5,30.9z"/>
					</g>
					<path class="st7" d="M17.4,33.5c0-0.5,0.1-0.9,0.2-1.3c0,0,0-0.1,0-0.1h0c0.1-0.3,0.2-0.6,0.4-0.9c-1.2-0.8-2.4-1.7-3.6-2.5
						c-0.1,0.1-0.2,0.3-0.4,0.4l-0.5,0.4l0,0c-1,1.1-2,2.1-3.1,3.3c2.4,0.9,4.5,1.7,7,1.8c0-0.2,0-0.5,0-0.7
						C17.4,33.7,17.4,33.6,17.4,33.5z"/>
				</g>
				<path class="st6" d="M24.5,33.4c0,1.6-1.2,2.8-2.8,2.8c-1.6,0-2.8-1.2-2.8-2.8c0-1.5,1.2-2.7,2.7-2.7
					C23.3,30.6,24.5,31.7,24.5,33.4"/>
				<path class="st6" d="M25.5,31.6c0.7-0.1,1.4-0.3,2.1-0.4c2.9-0.5,5.8-0.8,8.6-1.4c1.3-0.3,2.6-0.6,3.7-1.3
					c0.8-0.5,1.4-1.1,1.4-2.2c0-0.1-0.1-0.3-0.1-0.6c-0.8-2.9-1.6-5.9-2.4-8.8c-0.5-1.7-0.9-3.3-1.3-5c0-0.1,0-0.4-0.2-0.4
					c-0.2,0-0.3,0.2-0.3,0.3c-0.7,1-1.4,2-2.2,3c-3.5,5-7.1,10.1-10.6,15.1C24.7,30.3,25.2,30.9,25.5,31.6z"/>
				<path class="st6" d="M20.1,29.5c-0.2-1-0.4-2.1-0.5-3.2c-0.4-2.5-0.7-5-1.2-7.4c-0.3-1.3-0.6-2.6-1.4-3.7
					c-0.7-1-1.4-1.2-2.6-0.9c-2.6,0.7-5.2,1.3-7.7,2.1c-1.2,0.3-2.3,0.6-3.5,1c-1,0.3-2.1,0.6-3.2,0.8c0.1,0.3,0.2,0.3,0.4,0.4
					C1.5,19.3,2.7,20.1,4,21c4.7,3.3,9.5,6.7,14.3,10C18.7,30.4,19.3,29.9,20.1,29.5z"/>
				<path class="st6" d="M18.5,36.4c-0.3-0.3-0.5-0.7-0.7-1.1c-0.8,0.2-1.7,0.3-2.6,0.4c-2.6,0.4-5.2,0.7-7.7,1.3
					c-1.3,0.3-2.6,0.6-3.7,1.4c-0.7,0.5-1.2,1.1-1.2,2c0,0.2,0.1,0.4,0.1,0.6c0.8,3,1.6,6.1,2.4,9.1c0.4,1.6,0.8,3.2,1.3,4.8
					c0,0.1,0,0.3,0.2,0.3c0.1,0,0.2-0.1,0.3-0.2C7,55,7,54.9,7.1,54.8c3.3-4.7,6.6-9.4,10-14.2c0.8-1.2,1.7-2.4,2.5-3.5
					C19.2,36.9,18.8,36.7,18.5,36.4z"/>
				<path class="st6" d="M43.5,48.3c-4.9-3.5-9.9-7-14.8-10.5c-1.1-0.8-2.2-1.5-3.2-2.3c-0.2,0.3-0.4,0.7-0.7,1
					c-0.3,0.3-0.5,0.5-0.9,0.6c0.2,0.9,0.3,1.7,0.4,2.6c0.5,2.8,0.7,5.6,1.4,8.4c0.3,1.2,0.6,2.4,1.3,3.5c0.7,1,1.5,1.3,2.6,1
					c2.5-0.7,5-1.3,7.5-2c2.3-0.6,4.5-1.2,6.9-1.8C43.9,48.5,43.7,48.4,43.5,48.3z"/>
			</g>
		</g>
	</g>
</g>
<g id="Capa_7" class="st3">
	<g class="st4">
		<g>
			<path class="st0" d="M124.9,60.9V48.6h2.6v12.3H124.9z"/>
			<path class="st0" d="M135.9,50.6c-1,0-1.7,0.4-2.3,1.1c-0.5,0.7-0.8,1.8-0.8,3.1c0,2.7,1,4.1,3.1,4.1c0.9,0,1.9-0.2,3.1-0.6v2.2
				c-1,0.4-2.1,0.6-3.4,0.6c-1.8,0-3.2-0.5-4.1-1.6c-0.9-1.1-1.4-2.6-1.4-4.7c0-1.3,0.2-2.4,0.7-3.4c0.5-1,1.1-1.7,2-2.2
				c0.9-0.5,1.9-0.8,3.1-0.8c1.2,0,2.4,0.3,3.6,0.9l-0.8,2.1c-0.5-0.2-0.9-0.4-1.4-0.6C136.8,50.7,136.3,50.6,135.9,50.6z"/>
			<path class="st0" d="M149.2,60.9l-0.9-2.9h-4.5l-0.9,2.9h-2.8l4.3-12.3h3.2l4.4,12.3H149.2z M147.6,55.8
				c-0.8-2.7-1.3-4.2-1.4-4.5c-0.1-0.3-0.2-0.6-0.2-0.8c-0.2,0.7-0.7,2.5-1.6,5.3H147.6z"/>
		</g>
		<g>
			<g>
				<path class="st0" d="M12.6,40.2c0,1.4-0.5,2.6-1.6,3.4c-1,0.8-2.5,1.2-4.3,1.2c-1.7,0-3.2-0.3-4.5-1v-3.1c1.1,0.5,2,0.8,2.7,1
					C5.7,41.9,6.4,42,7,42c0.7,0,1.3-0.1,1.7-0.4c0.4-0.3,0.6-0.7,0.6-1.3c0-0.3-0.1-0.6-0.3-0.8c-0.2-0.2-0.4-0.5-0.8-0.7
					c-0.3-0.2-1-0.6-2.1-1.1c-1-0.5-1.7-0.9-2.2-1.3c-0.5-0.4-0.9-0.9-1.2-1.5c-0.3-0.6-0.4-1.2-0.4-2c0-1.4,0.5-2.5,1.4-3.3
					c1-0.8,2.3-1.2,4-1.2c0.8,0,1.6,0.1,2.4,0.3c0.8,0.2,1.5,0.5,2.4,0.8l-1.1,2.6c-0.9-0.3-1.6-0.6-2.1-0.7
					c-0.6-0.1-1.1-0.2-1.6-0.2c-0.6,0-1.1,0.1-1.5,0.4c-0.3,0.3-0.5,0.7-0.5,1.2c0,0.3,0.1,0.6,0.2,0.8c0.1,0.2,0.4,0.4,0.7,0.6
					c0.3,0.2,1,0.6,2.1,1.1c1.5,0.7,2.5,1.4,3.1,2.2C12.4,38.2,12.6,39.1,12.6,40.2z"/>
				<path class="st0" d="M25.3,44.6l-1.2-3.8h-5.8l-1.2,3.8h-3.7l5.6-16h4.1l5.7,16H25.3z M23.4,38c-1.1-3.4-1.7-5.4-1.8-5.8
					c-0.1-0.5-0.2-0.8-0.3-1.1C21,32,20.3,34.3,19.2,38H23.4z"/>
				<path class="st0" d="M45.2,44.6h-4.3l-7-12.1h-0.1c0.1,2.1,0.2,3.7,0.2,4.6v7.5h-3v-16h4.3l6.9,12h0.1c-0.1-2.1-0.2-3.5-0.2-4.4
					v-7.6h3V44.6z"/>
				<path class="st0" d="M55.4,44.6H52V31.4h-4.3v-2.8h12.1v2.8h-4.3V44.6z"/>
				<path class="st0" d="M71.9,44.6l-1.2-3.8h-5.8l-1.2,3.8h-3.7l5.6-16h4.1l5.7,16H71.9z M70,38c-1.1-3.4-1.7-5.4-1.8-5.8
					c-0.1-0.5-0.2-0.8-0.3-1.1c-0.2,0.9-0.9,3.2-2.1,6.9H70z"/>
				<path class="st0" d="M90.2,44.6l-3.8-12.5h-0.1c0.1,2.6,0.2,4.3,0.2,5.1v7.4h-3v-16H88l3.8,12.2h0.1l4-12.2h4.6v16h-3.2V37
					c0-0.4,0-0.8,0-1.2c0-0.5,0.1-1.7,0.1-3.7h-0.1l-4.1,12.5H90.2z"/>
				<path class="st0" d="M114.3,44.6l-1.2-3.8h-5.8l-1.2,3.8h-3.7l5.6-16h4.1l5.7,16H114.3z M112.3,38c-1.1-3.4-1.7-5.4-1.8-5.8
					c-0.1-0.5-0.2-0.8-0.3-1.1c-0.2,0.9-0.9,3.2-2.1,6.9H112.3z"/>
				<path class="st0" d="M123.4,38.5v6.1H120v-16h4.7c2.2,0,3.8,0.4,4.8,1.2c1,0.8,1.6,2,1.6,3.6c0,0.9-0.3,1.8-0.8,2.5
					c-0.5,0.7-1.3,1.3-2.2,1.7c2.4,3.6,4,5.9,4.7,7H129l-3.8-6.1H123.4z M123.4,35.7h1.1c1.1,0,1.9-0.2,2.4-0.5
					c0.5-0.4,0.8-0.9,0.8-1.7c0-0.8-0.3-1.3-0.8-1.6c-0.5-0.3-1.3-0.5-2.4-0.5h-1V35.7z"/>
				<path class="st0" d="M134.7,44.6v-16h3.4v16H134.7z"/>
				<path class="st0" d="M151.9,44.6l-1.2-3.8H145l-1.2,3.8h-3.7l5.6-16h4.1l5.7,16H151.9z M150,38c-1.1-3.4-1.7-5.4-1.8-5.8
					c-0.1-0.5-0.2-0.8-0.3-1.1c-0.2,0.9-0.9,3.2-2.1,6.9H150z"/>
			</g>
		</g>
		<g>
			<g>
				<path class="st0" d="M2.2,24.2V11.2h2.1v11.1h5.5v1.8H2.2z"/>
				<path class="st0" d="M17.9,24.2l-0.4-1.4h-0.1c-0.5,0.6-0.9,1-1.4,1.2c-0.5,0.2-1.1,0.3-1.8,0.3c-1,0-1.7-0.3-2.2-0.8
					c-0.5-0.5-0.8-1.2-0.8-2.2c0-1,0.4-1.8,1.1-2.3c0.7-0.5,1.9-0.8,3.4-0.8l1.7-0.1v-0.5c0-0.6-0.1-1.1-0.4-1.4
					c-0.3-0.3-0.7-0.5-1.4-0.5c-0.5,0-1,0.1-1.4,0.2c-0.5,0.1-0.9,0.3-1.3,0.5l-0.7-1.5c0.5-0.3,1.1-0.5,1.7-0.6
					c0.6-0.1,1.2-0.2,1.8-0.2c1.2,0,2.2,0.3,2.8,0.8c0.6,0.5,1,1.4,1,2.6v6.6H17.9z M14.8,22.8c0.8,0,1.4-0.2,1.8-0.6
					c0.5-0.4,0.7-1,0.7-1.8v-0.8L16,19.6c-1,0-1.7,0.2-2.1,0.5c-0.4,0.3-0.7,0.7-0.7,1.3c0,0.4,0.1,0.8,0.4,1
					C13.9,22.6,14.3,22.8,14.8,22.8z"/>
				<path class="st0" d="M34.5,24.2h-7.3V11.2h7.3V13h-5.2v3.5h4.9v1.8h-4.9v4.1h5.2V24.2z"/>
				<path class="st0" d="M43.6,21.4c0,1-0.3,1.7-1,2.2c-0.7,0.5-1.7,0.8-3,0.8c-1.3,0-2.3-0.2-3.1-0.6V22c1.1,0.5,2.2,0.8,3.2,0.8
					c1.3,0,1.9-0.4,1.9-1.2c0-0.2-0.1-0.5-0.2-0.6c-0.1-0.2-0.4-0.3-0.7-0.5c-0.3-0.2-0.8-0.4-1.4-0.6c-1.1-0.4-1.9-0.9-2.3-1.3
					c-0.4-0.4-0.6-1-0.6-1.7c0-0.8,0.3-1.5,1-1.9c0.7-0.5,1.6-0.7,2.8-0.7c1.2,0,2.2,0.2,3.3,0.7l-0.7,1.6c-1.1-0.4-1.9-0.7-2.7-0.7
					c-1.1,0-1.6,0.3-1.6,0.9c0,0.3,0.1,0.6,0.4,0.8c0.3,0.2,0.9,0.5,1.9,0.9c0.8,0.3,1.4,0.6,1.8,0.9c0.4,0.3,0.6,0.6,0.8,0.9
					C43.5,20.5,43.6,20.9,43.6,21.4z"/>
				<path class="st0" d="M49.5,22.7c0.5,0,1-0.1,1.5-0.2V24c-0.2,0.1-0.5,0.2-0.9,0.3c-0.4,0.1-0.7,0.1-1.1,0.1c-2,0-3-1-3-3.1V16
					h-1.3V15l1.4-0.8l0.7-2.1h1.3v2.2h2.8V16h-2.8v5.2c0,0.5,0.1,0.9,0.4,1.1C48.8,22.5,49.1,22.7,49.5,22.7z"/>
				<path class="st0" d="M59.1,24.2l-0.4-1.4h-0.1c-0.5,0.6-0.9,1-1.4,1.2c-0.5,0.2-1.1,0.3-1.8,0.3c-1,0-1.7-0.3-2.2-0.8
					c-0.5-0.5-0.8-1.2-0.8-2.2c0-1,0.4-1.8,1.1-2.3c0.7-0.5,1.9-0.8,3.4-0.8l1.7-0.1v-0.5c0-0.6-0.1-1.1-0.4-1.4
					c-0.3-0.3-0.7-0.5-1.4-0.5c-0.5,0-1,0.1-1.4,0.2c-0.5,0.1-0.9,0.3-1.3,0.5l-0.7-1.5c0.5-0.3,1.1-0.5,1.7-0.6
					c0.6-0.1,1.2-0.2,1.8-0.2c1.2,0,2.2,0.3,2.8,0.8c0.6,0.5,0.9,1.4,0.9,2.6v6.6H59.1z M56,22.8c0.8,0,1.4-0.2,1.8-0.6
					c0.5-0.4,0.7-1,0.7-1.8v-0.8l-1.3,0.1c-1,0-1.7,0.2-2.1,0.5c-0.4,0.3-0.7,0.7-0.7,1.3c0,0.4,0.1,0.8,0.4,1
					C55.1,22.6,55.5,22.8,56,22.8z"/>
				<path class="st0" d="M72.1,24.2H70v-6c0-0.8-0.2-1.3-0.5-1.7c-0.3-0.4-0.8-0.6-1.4-0.6c-0.9,0-1.5,0.3-1.9,0.8
					c-0.4,0.5-0.6,1.4-0.6,2.6v4.9h-2.1v-9.8h1.6l0.3,1.3h0.1c0.3-0.5,0.7-0.8,1.3-1.1c0.5-0.3,1.1-0.4,1.8-0.4
					c2.3,0,3.5,1.2,3.5,3.6V24.2z"/>
				<path class="st0" d="M78.9,24.3c-1.5,0-2.6-0.4-3.4-1.3c-0.8-0.9-1.2-2.1-1.2-3.7c0-1.6,0.4-2.9,1.2-3.8c0.8-0.9,2-1.3,3.5-1.3
					c1,0,2,0.2,2.8,0.6l-0.6,1.7c-0.9-0.3-1.6-0.5-2.2-0.5c-1.7,0-2.5,1.1-2.5,3.4c0,1.1,0.2,1.9,0.6,2.5c0.4,0.5,1,0.8,1.9,0.8
					c0.9,0,1.8-0.2,2.6-0.7v1.8c-0.4,0.2-0.8,0.4-1.2,0.5C80,24.3,79.5,24.3,78.9,24.3z"/>
				<path class="st0" d="M83.8,11.8c0-0.4,0.1-0.7,0.3-0.9c0.2-0.2,0.5-0.3,0.9-0.3c0.4,0,0.6,0.1,0.9,0.3c0.2,0.2,0.3,0.5,0.3,0.9
					c0,0.4-0.1,0.6-0.3,0.8c-0.2,0.2-0.5,0.3-0.9,0.3c-0.4,0-0.7-0.1-0.9-0.3C83.9,12.4,83.8,12.2,83.8,11.8z M86,24.2h-2.1v-9.8H86
					V24.2z"/>
				<path class="st0" d="M95.1,24.2l-0.4-1.4h-0.1c-0.5,0.6-0.9,1-1.4,1.2c-0.5,0.2-1.1,0.3-1.8,0.3c-1,0-1.7-0.3-2.2-0.8
					c-0.5-0.5-0.8-1.2-0.8-2.2c0-1,0.4-1.8,1.1-2.3c0.7-0.5,1.9-0.8,3.4-0.8l1.7-0.1v-0.5c0-0.6-0.1-1.1-0.4-1.4
					c-0.3-0.3-0.7-0.5-1.4-0.5c-0.5,0-1,0.1-1.4,0.2c-0.5,0.1-0.9,0.3-1.3,0.5l-0.7-1.5c0.5-0.3,1.1-0.5,1.7-0.6
					c0.6-0.1,1.2-0.2,1.8-0.2c1.2,0,2.2,0.3,2.8,0.8c0.6,0.5,0.9,1.4,0.9,2.6v6.6H95.1z M92,22.8c0.8,0,1.4-0.2,1.8-0.6
					c0.5-0.4,0.7-1,0.7-1.8v-0.8l-1.3,0.1c-1,0-1.7,0.2-2.1,0.5c-0.4,0.3-0.7,0.7-0.7,1.3c0,0.4,0.1,0.8,0.4,1
					C91.1,22.6,91.5,22.8,92,22.8z"/>
				<path class="st0" d="M107.5,24.3c-1.2,0-2.2-0.4-2.9-1.3c-0.7-0.9-1-2.1-1-3.7c0-1.6,0.3-2.8,1-3.7c0.7-0.9,1.7-1.3,2.9-1.3
					c1.3,0,2.3,0.5,2.9,1.4h0.1c-0.1-0.7-0.2-1.3-0.2-1.7v-3.6h2.1v13.8h-1.6l-0.4-1.3h-0.1C109.7,23.9,108.8,24.3,107.5,24.3z
					 M108,22.7c0.9,0,1.5-0.2,1.9-0.7c0.4-0.5,0.6-1.3,0.6-2.3v-0.3c0-1.2-0.2-2.1-0.6-2.6c-0.4-0.5-1-0.8-1.9-0.8
					c-0.7,0-1.3,0.3-1.7,0.9c-0.4,0.6-0.6,1.4-0.6,2.5c0,1.1,0.2,1.9,0.6,2.5C106.7,22.4,107.3,22.7,108,22.7z"/>
				<path class="st0" d="M119.7,24.3c-1.5,0-2.7-0.4-3.6-1.3c-0.9-0.9-1.3-2.1-1.3-3.7c0-1.6,0.4-2.9,1.2-3.8
					c0.8-0.9,1.9-1.4,3.3-1.4c1.3,0,2.3,0.4,3.1,1.2c0.7,0.8,1.1,1.9,1.1,3.2v1.1H117c0,0.9,0.3,1.7,0.8,2.2c0.5,0.5,1.2,0.8,2,0.8
					c0.6,0,1.1-0.1,1.6-0.2c0.5-0.1,1-0.3,1.6-0.5v1.7c-0.5,0.2-1,0.4-1.5,0.5C121,24.3,120.4,24.3,119.7,24.3z M119.4,15.8
					c-0.7,0-1.2,0.2-1.6,0.6c-0.4,0.4-0.6,1-0.7,1.8h4.4c0-0.8-0.2-1.4-0.6-1.8C120.5,16,120,15.8,119.4,15.8z"/>
			</g>
		</g>
		<g>
			<path class="st2" d="M152.7,21.9c0,0,12.3-6.2,16.5,4.2c4.2,10.3-4.7,13.4-7.4,13.3c-2.8,0-4.7-1.3-3.9-2.3c0.8-1,2.3-1,3.9-0.4
				c1.8,0.6,3.4,1.9,3.4,1.9l0.8-0.4l0.8-0.5c0,0-4.6-4.3-8.8-2.3c-3.4,1.7-1.4,4.9,1.5,5.4c3,0.5,6.3-1.3,6.3-1.3s2.7,4.6,1,9.2
				c-1.8,4.6-6.2,7.1-10.2,5c-3.5-1.9-4.2-4.9-4-6.6c0,0-2.1,4.3,3.6,7.9c5,3.2,11.4-0.1,13.6-5c2.1-4.9-2.3-11.4-2.3-11.4
				s3.6-1.8,5-6.6c1.4-4.7-2.3-12.5-7.4-13.6C160,17.5,155.3,19.4,152.7,21.9z"/>
			<path class="st2" d="M174.3,33.8c0.7-1.1,6.6-3.2,8.8,3.8c2.1,7-5.8,12.9-11.3,9.4c0,0,5.6,1.1,8.3-3.6
				C182.8,38.7,178.8,33,174.3,33.8z"/>
			<path class="st2" d="M165.2,56.6c-0.4,1.5,1.8,5.3,6.8,4.2c6.1-1.3,7-9,2.1-11.3c0,0,3.3,3.5,0.8,7.2
				C172.6,60.1,167.2,59.6,165.2,56.6z"/>
			<path class="st2" d="M169.1,63.4c0.6,1.3-0.5,5.3-4.9,5.3c-5.4,0-7.6-6.9-3.9-10.1c0,0-2.1,3.9,0.7,6.9
				C163.5,68.1,168,66.6,169.1,63.4z"/>
			<path class="st2" d="M152.6,18.5c0,0,1.9-3.8,5.6-6.5c3.8-2.7,7.5-2.8,7.5-2.8s-2.2,0.8-2.9,1.8c1.2-0.6,2.6-1,5-0.5
				c3.1,0.7,4.5,3,4.5,3s-1.9-0.9-2.8-0.7c1.5,1.2,2.9,2.9,3.3,7.9c0,0-2.3-4.3-7.6-5C158.8,14.9,152.6,18.5,152.6,18.5z"/>
		</g>
	</g>
</g>
<g id="Capa_8" class="st3">
</g>
</svg>
