<?xml version="1.0" encoding="utf-8"?>
<!-- Generator: Adobe Illustrator 23.0.1, SVG Export Plug-In . SVG Version: 6.00 Build 0)  -->
<svg version="1.1" xmlns="http://www.w3.org/2000/svg" xmlns:xlink="http://www.w3.org/1999/xlink" x="0px" y="0px"
	 viewBox="0 0 185.9 75.4" style="enable-background:new 0 0 185.9 75.4;" xml:space="preserve">
<style type="text/css">
	.st0{display:none;}
	.st1{display:inline;}
	.st2{fill:#FCCF00;}
	.st3{fill:#158A2F;}
	.st4{fill:#263A7C;}
</style>
<g id="Capa_1" class="st0">
	<g id="logo-elolivar" transform="translate(-0.076 0)" class="st1">
		<g id="Grupo_194" transform="translate(0.075 0)">
			<path id="Trazado_242" class="st2" d="M44.6,3c-9.1,0.8-17.4,5.1-23.4,12l0,0c-0.1,0.1-0.2,0.2-0.3,0.3c-0.8,1-1.6,2.1-2.5,3.3
				h0.1c5.2-1.3,10.2-3.1,15.1-5.3c0,0,15.7-6.9,28.3-3.5c0,0,2.3,0.7,0.9,1.4s-4.5,2-13.8,2.7c0,0-6,0.1-10.6-0.3
				c3.7-1.2,7.4-2,11.3-2.3c0,0,0.8,0,0.4-0.3c0,0-3.2-0.8-15.1,2.5c0,0-2,0.8-3.9,1.5c7.9-0.3,15.8,0.7,23.4,2.8
				c0,0,20,6.1,23.9,15.2v1.3c-0.3,0.4-1.2,0.6-3.3,0.3c0,0-7.1-0.4-18.6-8.2L47,20.1c0,0-0.6-0.5,0.4-0.3c0,0,14.5,5.3,18.4,7.3
				c0,0,0.9,0.4,0.4-0.2c0,0-5.1-3.3-15.1-6.9c0,0-4.3-1.8-14.2-3.9c0,0-2.5-0.4-1.3,0.1c0,0,12,7.1,16,14.3c0,0,6,8.7,5.5,13.5
				c-0.1,0.5-0.5,0.8-1,0.7c-0.1,0-0.2-0.1-0.3-0.1c0,0-3-1.1-7.5-9.8c0,0-3.2-7-3.7-8.5c0,0-0.4-1.1,0-0.9c0,0,0.1,0,0.6,0.8
				c2.2,2.5,4.2,5.1,5.9,7.9c0,0,0.5,0.6,0.3-0.1c0,0,0.2-0.8-6.2-9c-1.6-1.7-3.3-3.3-5.1-4.8c0,0-0.8-0.4-0.4,0.3
				c0,0,1.2,3.7,0.5,6.4c0,0-0.3,0.7,0.3,0.9c0,0,3.5,1.1,3.4,5.7c-0.3,5-2.7,9.6-6.6,12.7c0,0-2.2,1.8-4.2-0.9c0,0-2.8-4.2-1.6-11
				c0,0,1.1-7,6.2-7h1.5c0.1,0,0.5-0.3,0.1-4c-0.3-1.5-0.9-2.9-1.7-4.2c0,0-0.9-1.3-4.7-2h-0.9c0.3,1.5-0.4,3-1.8,3.8
				c0,0,2.8,2.9,0.1,7.2c0,0-4.1,6.5-9.4,5.8c0,0-1.9-0.6-1.3-4.2c0,0,0.9-10,7.4-10.1c0,0,1.9,0.1,2.3,0.6c1.3-0.6,2.1-1.9,1.8-3.3
				c0,0-3.8-1.2-14,4.8c-0.6,0.4-1.1,1-1.6,1.6c-0.5,0.7-0.9,1.5-1,2.4c0,0-2.9,10.8,0.2,20.6c0,0,2.6,6.4,3.7,7.7
				c0,0,0.3,0.9,1.7,0.4c0,0,7.8-4.5,25.5-5.9c9.9-0.7,19.8,0.6,29.2,3.9c0,0,8.8-10.8,2.5-29.1C77.8,23.3,70.3,2,44.6,3z"/>
			<path id="Trazado_243" class="st3" d="M84.8,29c-0.8-4.1-2.4-7.9-4.7-11.4C76.4,12,69.3,4.6,56,0.8c-0.2-0.1-21.6-5.2-37.4,10.9
				c-3.4,3.5-6.1,7.7-7.9,12.3c-2.8,7.1-4.9,18.5,1.6,32.5c0.1,0.5,0.7,2.3,2.3,2.3h0.2l0.2-0.1c0.3-0.1,32.5-12.3,62.6,1.3
				c0.4,0.3,0.9,0.5,1.4,0.5h0.2c0.5-0.1,0.9-0.4,1.2-0.8C85.6,50.4,87.2,39.4,84.8,29z M78.7,58.7c-0.1,0-0.2-0.1-0.3-0.1l-0.1-0.1
				l-0.1-0.1c-12.7-5.7-25.6-7-35.9-6.6c-2.8,0.1-5.4,0.3-7.8,0.6C27.7,53.2,21,54.7,14.5,57c-0.3-0.3-0.5-0.6-0.6-1l-0.1-0.2
				c-5-10.8-5.6-21.2-1.6-31.1c1.7-4.4,4.3-8.4,7.5-11.8C34.9-2.4,55.3,2.5,55.5,2.5c12.7,3.6,19.6,10.6,23,15.9
				c2.2,3.2,3.8,6.9,4.5,10.8v0.1C85.3,39.3,83.7,49.7,78.7,58.7z"/>
			<path id="Trazado_244" class="st3" d="M17.6,60.3c-5.8,0.8-11.6,2.1-17.2,3.8C0.2,64.3,0,64.6,0,64.9c0.2,0.6,1.1,0.4,1.1,0.4
				C46,58.4,64.5,75.4,64.5,75.4c2-2.2,3.9-4.6,5.7-7c-12.7-6.9-26.3-9.1-38.1-9.1C57.7,57.6,74,68.2,74,68.2c1.5-1.7,3-3.6,4.3-5.5
				C52.4,49.7,22,58.8,17.6,60.3z"/>
		</g>
		<path id="Trazado_245" class="st3" d="M105.1,39.3h-9V24.2h9v3.3h-4.9v2.4h4.5v3.3h-4.5V36h4.9V39.3z"/>
		<rect id="Rectángulo_1506" x="107.5" y="23.2" class="st3" width="4" height="16.1"/>
		<path id="Trazado_246" class="st3" d="M134.3,31.7c0.1,2.1-0.5,4.2-1.9,5.8c-3.2,2.7-7.8,2.7-11,0c-1.4-1.6-2-3.7-1.9-5.8
			c-0.1-2.1,0.5-4.2,1.9-5.8c3.2-2.7,7.8-2.7,11-0.1C133.7,27.5,134.4,29.6,134.3,31.7 M123.8,31.7c0,3,1,4.4,3.1,4.4
			c0.9,0,1.8-0.4,2.3-1.1c0.6-1,0.8-2.2,0.8-3.3c0.1-1.2-0.2-2.3-0.8-3.3c-0.5-0.7-1.4-1.1-2.3-1.1
			C124.8,27.2,123.8,28.8,123.8,31.7"/>
		<rect id="Rectángulo_1507" x="136.7" y="23.2" class="st3" width="4" height="16.1"/>
		<path id="Trazado_247" class="st3" d="M143.5,24.7c0-0.5,0.1-1,0.5-1.4c1-0.6,2.3-0.6,3.3,0c0.3,0.4,0.5,0.8,0.5,1.3
			c0,1.2-0.7,1.8-2.1,1.8C144.2,26.4,143.5,25.9,143.5,24.7 M147.7,39.3h-4V27.6h4V39.3z"/>
		<path id="Trazado_248" class="st3" d="M153.6,39.3l-4.5-11.7h4.2l2,6.9c0,0.1,0,0.1,0.1,0.2c0,0.1,0,0.2,0.1,0.3
			c0,0.1,0.1,0.3,0.1,0.4v0.4h0.1c0-0.4,0.1-0.8,0.2-1.2l2.1-7h4.2l-4.5,11.7H153.6L153.6,39.3z"/>
		<path id="Trazado_249" class="st3" d="M171.1,39.3l-0.8-1.6h-0.1c-0.4,0.6-1,1-1.6,1.4c-0.7,0.3-1.4,0.4-2.2,0.4
			c-1,0.1-1.9-0.3-2.6-1c-0.7-0.8-1-1.8-0.9-2.8c-0.1-1.1,0.4-2.1,1.3-2.8c1.1-0.7,2.4-1,3.8-1l2-0.1v-0.2c0.1-0.7-0.4-1.4-1.1-1.4
			c-0.1,0-0.2,0-0.3,0c-1.1,0.1-2.2,0.4-3.3,0.9l-1.2-2.6c1.6-0.8,3.4-1.1,5.2-1.1c1.3-0.1,2.5,0.3,3.5,1.1c0.9,0.8,1.3,2,1.3,3.1
			v7.7L171.1,39.3L171.1,39.3z M168.1,36.6c0.5,0,0.9-0.1,1.3-0.4c0.4-0.3,0.5-0.7,0.5-1.2v-0.9l-0.9,0.1c-1.3,0.1-2,0.6-2,1.4
			C166.9,36.3,167.3,36.6,168.1,36.6"/>
		<path id="Trazado_250" class="st3" d="M183.7,27.4c0.3,0,0.7,0,1,0.1l0.3,0.1l-0.4,3.8c-0.5-0.1-0.9-0.1-1.4-0.1
			c-0.7-0.1-1.4,0.2-2,0.6c-0.4,0.5-0.7,1.1-0.6,1.8v5.8h-4V27.6h3l0.6,1.9h0.2c0.3-0.6,0.8-1.1,1.4-1.5
			C182.4,27.6,183.1,27.4,183.7,27.4"/>
		<path id="Trazado_251" class="st3" d="M103.5,49.6c0.1,1.4-0.4,2.8-1.4,3.8c-1.1,0.9-2.6,1.4-4,1.3h-2.8V44.6h3.1
			c1.4-0.1,2.7,0.4,3.8,1.3C103.1,46.9,103.6,48.2,103.5,49.6 M101.7,49.7c0-2.5-1.1-3.7-3.4-3.7h-1.4v7.4h1.2
			C100.5,53.4,101.7,52.1,101.7,49.7"/>
		<path id="Trazado_252" class="st3" d="M115.7,54.8h-5.8V44.6h5.8V46h-4.1v2.8h3.8v1.4h-3.8v3.2h4.1L115.7,54.8z"/>
		<path id="Trazado_253" class="st3" d="M136.8,47.7c0,0.9-0.3,1.8-1.1,2.5c-0.9,0.6-1.9,0.9-3,0.8h-1.1v3.8h-1.6V44.6h2.9
			c1-0.1,2,0.2,2.8,0.8C136.5,45.9,136.8,46.8,136.8,47.7 M131.8,49.6h0.9c0.7,0.1,1.3-0.1,1.9-0.4c0.4-0.3,0.6-0.9,0.6-1.4
			c0-0.5-0.2-1-0.5-1.3c-0.5-0.3-1.1-0.5-1.6-0.4h-1.1L131.8,49.6L131.8,49.6z"/>
		<rect id="Rectángulo_1508" x="143.1" y="44.6" class="st3" width="1.6" height="10.1"/>
		<path id="Trazado_254" class="st3" d="M157.6,52c0,0.8-0.3,1.6-1,2.1c-0.8,0.5-1.7,0.8-2.7,0.8c-1,0-1.9-0.1-2.8-0.5v-1.6
			c0.5,0.2,1,0.4,1.4,0.5c0.5,0.1,1,0.2,1.4,0.2c0.5,0,1-0.1,1.4-0.4c0.3-0.2,0.5-0.6,0.4-1c0-0.4-0.1-0.7-0.4-0.9
			c-0.5-0.4-1.1-0.7-1.8-0.9c-0.7-0.3-1.4-0.7-2-1.3c-0.4-0.5-0.6-1.1-0.6-1.8c0-0.8,0.3-1.5,0.9-2c0.7-0.5,1.5-0.8,2.4-0.8
			c1,0,2,0.2,2.9,0.6l-0.5,1.3c-0.8-0.3-1.6-0.5-2.4-0.6c-0.4,0-0.9,0.1-1.2,0.4c-0.3,0.2-0.4,0.6-0.4,0.9c0,0.2,0.1,0.5,0.2,0.7
			c0.1,0.2,0.3,0.4,0.6,0.5c0.4,0.3,0.9,0.5,1.4,0.6c0.6,0.2,1.1,0.5,1.6,0.9c0.3,0.2,0.6,0.5,0.8,0.9
			C157.4,51.1,157.5,51.5,157.6,52"/>
		<path id="Trazado_255" class="st3" d="M168.1,45.9c-0.9,0-1.7,0.3-2.3,1c-0.6,0.8-0.9,1.8-0.8,2.8c-0.1,1,0.2,2,0.8,2.8
			c0.6,0.7,1.4,1,2.3,0.9c0.4,0,0.8-0.1,1.3-0.1c0.4-0.1,0.8-0.2,1.3-0.3v1.4c-0.9,0.3-1.8,0.5-2.7,0.4c-1.3,0.1-2.5-0.4-3.4-1.3
			c-0.9-1.1-1.3-2.5-1.2-3.8c0-1,0.2-1.9,0.6-2.8c0.4-0.8,1-1.4,1.7-1.8c0.8-0.4,1.7-0.7,2.6-0.6c1,0,2,0.2,2.9,0.6l-0.6,1.4
			c-0.3-0.2-0.7-0.3-1.1-0.4C169,46,168.5,45.9,168.1,45.9"/>
		<path id="Trazado_256" class="st3" d="M186,49.7c0.1,1.4-0.4,2.8-1.3,3.8c-2,1.8-5.1,1.8-7,0c-0.9-1.1-1.3-2.5-1.3-3.9
			c-0.1-1.4,0.4-2.8,1.3-3.8c0.9-0.9,2.2-1.4,3.5-1.3c1.3-0.1,2.6,0.4,3.5,1.4C185.6,46.9,186.1,48.3,186,49.7 M178.3,49.7
			c-0.1,1,0.2,2,0.8,2.8c0.6,0.7,1.4,1,2.3,0.9c0.8,0.1,1.7-0.3,2.2-0.9c1-1.8,1-3.9,0-5.7c-0.5-0.6-1.4-1-2.2-0.9
			c-0.9-0.1-1.7,0.3-2.3,0.9C178.5,47.7,178.2,48.7,178.3,49.7"/>
	</g>
</g>
<g id="Capa_2">
	<g>
		<g>
			<g>
				<path class="st4" d="M6.2,23.4v-22h3.6v18.9h9.3v3.1H6.2z"/>
				<path class="st4" d="M31.4,23.4l-0.7-2.3h-0.1c-0.8,1-1.6,1.7-2.4,2.1c-0.8,0.4-1.9,0.5-3.1,0.5c-1.6,0-2.9-0.4-3.8-1.3
					c-0.9-0.9-1.4-2.1-1.4-3.7c0-1.7,0.6-3,1.9-3.9c1.3-0.9,3.2-1.4,5.8-1.4l2.9-0.1v-0.9c0-1.1-0.2-1.9-0.7-2.4
					c-0.5-0.5-1.3-0.8-2.3-0.8c-0.9,0-1.7,0.1-2.5,0.4c-0.8,0.3-1.5,0.5-2.3,0.9l-1.1-2.5c0.9-0.5,1.9-0.8,3-1.1
					c1.1-0.2,2.1-0.4,3-0.4c2.1,0,3.7,0.5,4.8,1.4c1.1,0.9,1.6,2.4,1.6,4.3v11.2H31.4z M26.1,21c1.3,0,2.3-0.4,3.1-1.1
					c0.8-0.7,1.2-1.7,1.2-3v-1.4l-2.1,0.1c-1.7,0.1-2.9,0.3-3.6,0.8c-0.8,0.5-1.1,1.3-1.1,2.3c0,0.7,0.2,1.3,0.7,1.7
					C24.6,20.8,25.2,21,26.1,21z"/>
				<path class="st4" d="M48.5,18.7c0,1.6-0.6,2.9-1.8,3.7c-1.2,0.9-2.9,1.3-5.1,1.3c-2.2,0-4-0.3-5.3-1v-3.1c2,0.9,3.8,1.4,5.5,1.4
					c2.2,0,3.3-0.7,3.3-2c0-0.4-0.1-0.8-0.4-1.1c-0.2-0.3-0.6-0.6-1.2-0.9c-0.6-0.3-1.3-0.6-2.3-1c-1.9-0.7-3.2-1.5-3.9-2.2
					c-0.7-0.7-1-1.7-1-2.9c0-1.4,0.6-2.5,1.7-3.3c1.1-0.8,2.7-1.2,4.7-1.2c2,0,3.8,0.4,5.6,1.2l-1.1,2.7c-1.8-0.7-3.3-1.1-4.5-1.1
					c-1.9,0-2.8,0.5-2.8,1.6c0,0.5,0.2,1,0.7,1.3c0.5,0.4,1.5,0.9,3.2,1.5c1.4,0.5,2.4,1,3,1.5c0.6,0.4,1.1,1,1.4,1.5
					C48.3,17.2,48.5,17.9,48.5,18.7z"/>
				<path class="st4" d="M67,4.2c-2.1,0-3.7,0.7-4.9,2.2c-1.2,1.5-1.8,3.5-1.8,6.1c0,2.7,0.6,4.7,1.7,6.1c1.1,1.4,2.8,2.1,4.9,2.1
					c0.9,0,1.8-0.1,2.7-0.3c0.9-0.2,1.8-0.4,2.7-0.7v3.1c-1.7,0.7-3.7,1-5.9,1c-3.2,0-5.7-1-7.4-2.9c-1.7-2-2.6-4.7-2.6-8.4
					c0-2.3,0.4-4.3,1.3-6c0.8-1.7,2-3,3.6-3.9C63,1.6,64.9,1.1,67,1.1c2.2,0,4.3,0.5,6.2,1.4l-1.3,3c-0.7-0.3-1.5-0.7-2.4-0.9
					C68.7,4.3,67.9,4.2,67,4.2z"/>
				<path class="st4" d="M85.6,23.4l-0.7-2.3h-0.1c-0.8,1-1.6,1.7-2.4,2.1c-0.8,0.4-1.9,0.5-3.1,0.5c-1.6,0-2.9-0.4-3.8-1.3
					c-0.9-0.9-1.4-2.1-1.4-3.7c0-1.7,0.6-3,1.9-3.9c1.3-0.9,3.2-1.4,5.8-1.4l2.9-0.1v-0.9c0-1.1-0.2-1.9-0.7-2.4
					c-0.5-0.5-1.3-0.8-2.3-0.8c-0.9,0-1.7,0.1-2.5,0.4c-0.8,0.3-1.5,0.5-2.3,0.9l-1.1-2.5c0.9-0.5,1.9-0.8,3-1.1
					c1.1-0.2,2.1-0.4,3-0.4c2.1,0,3.7,0.5,4.8,1.4c1.1,0.9,1.6,2.4,1.6,4.3v11.2H85.6z M80.4,21c1.3,0,2.3-0.4,3.1-1.1
					c0.8-0.7,1.2-1.7,1.2-3v-1.4l-2.1,0.1c-1.7,0.1-2.9,0.3-3.6,0.8c-0.8,0.5-1.1,1.3-1.1,2.3c0,0.7,0.2,1.3,0.7,1.7
					C78.8,20.8,79.5,21,80.4,21z"/>
				<path class="st4" d="M102.7,18.7c0,1.6-0.6,2.9-1.8,3.7c-1.2,0.9-2.9,1.3-5.1,1.3c-2.2,0-4-0.3-5.3-1v-3.1
					c2,0.9,3.8,1.4,5.5,1.4c2.2,0,3.3-0.7,3.3-2c0-0.4-0.1-0.8-0.4-1.1c-0.2-0.3-0.6-0.6-1.2-0.9c-0.6-0.3-1.3-0.6-2.3-1
					c-1.9-0.7-3.2-1.5-3.9-2.2c-0.7-0.7-1-1.7-1-2.9c0-1.4,0.6-2.5,1.7-3.3c1.1-0.8,2.7-1.2,4.7-1.2c2,0,3.8,0.4,5.6,1.2l-1.1,2.7
					c-1.8-0.7-3.3-1.1-4.5-1.1c-1.9,0-2.8,0.5-2.8,1.6c0,0.5,0.2,1,0.7,1.3c0.5,0.4,1.5,0.9,3.2,1.5c1.4,0.5,2.4,1,3,1.5
					c0.6,0.4,1.1,1,1.4,1.5C102.6,17.2,102.7,17.9,102.7,18.7z"/>
				<path class="st4" d="M111.7,23.7c-2.5,0-4.4-0.7-5.7-2.2c-1.3-1.5-2-3.6-2-6.3c0-2.8,0.7-4.9,2.1-6.5c1.4-1.5,3.3-2.3,5.9-2.3
					c1.8,0,3.3,0.3,4.7,1l-1.1,2.8c-1.5-0.6-2.7-0.9-3.7-0.9c-2.9,0-4.3,1.9-4.3,5.7c0,1.9,0.4,3.3,1.1,4.2c0.7,0.9,1.8,1.4,3.2,1.4
					c1.6,0,3.1-0.4,4.5-1.2v3.1c-0.6,0.4-1.3,0.6-2,0.8C113.6,23.7,112.7,23.7,111.7,23.7z"/>
				<path class="st4" d="M129.1,23.4l-0.7-2.3h-0.1c-0.8,1-1.6,1.7-2.4,2.1c-0.8,0.4-1.9,0.5-3.1,0.5c-1.6,0-2.9-0.4-3.8-1.3
					c-0.9-0.9-1.4-2.1-1.4-3.7c0-1.7,0.6-3,1.9-3.9c1.3-0.9,3.2-1.4,5.8-1.4l2.9-0.1v-0.9c0-1.1-0.2-1.9-0.7-2.4
					c-0.5-0.5-1.3-0.8-2.3-0.8c-0.9,0-1.7,0.1-2.5,0.4c-0.8,0.3-1.5,0.5-2.3,0.9l-1.1-2.5c0.9-0.5,1.9-0.8,3-1.1
					c1.1-0.2,2.1-0.4,3-0.4c2.1,0,3.7,0.5,4.8,1.4c1.1,0.9,1.6,2.4,1.6,4.3v11.2H129.1z M123.9,21c1.3,0,2.3-0.4,3.1-1.1
					c0.8-0.7,1.2-1.7,1.2-3v-1.4l-2.1,0.1c-1.7,0.1-2.9,0.3-3.6,0.8c-0.8,0.5-1.1,1.3-1.1,2.3c0,0.7,0.2,1.3,0.7,1.7
					C122.3,20.8,123,21,123.9,21z"/>
				<path class="st4" d="M140.7,23.7c-2.1,0-3.7-0.8-4.9-2.3c-1.2-1.5-1.7-3.6-1.7-6.3c0-2.7,0.6-4.9,1.8-6.4
					c1.2-1.5,2.8-2.3,4.9-2.3c2.2,0,3.9,0.8,5,2.4h0.2c-0.2-1.2-0.3-2.1-0.3-2.8V0h3.6v23.4h-2.8l-0.6-2.2h-0.2
					C144.5,22.9,142.9,23.7,140.7,23.7z M141.6,20.9c1.5,0,2.5-0.4,3.2-1.2c0.7-0.8,1-2.1,1-4v-0.5c0-2.1-0.3-3.6-1-4.5
					c-0.7-0.9-1.8-1.3-3.2-1.3c-1.2,0-2.2,0.5-2.9,1.5c-0.7,1-1,2.4-1,4.3c0,1.8,0.3,3.3,1,4.2C139.3,20.4,140.3,20.9,141.6,20.9z"
					/>
				<path class="st4" d="M163.1,23.4l-0.7-2.3h-0.1c-0.8,1-1.6,1.7-2.4,2.1c-0.8,0.4-1.9,0.5-3.1,0.5c-1.6,0-2.9-0.4-3.8-1.3
					c-0.9-0.9-1.4-2.1-1.4-3.7c0-1.7,0.6-3,1.9-3.9c1.3-0.9,3.2-1.4,5.8-1.4l2.9-0.1v-0.9c0-1.1-0.2-1.9-0.7-2.4
					c-0.5-0.5-1.3-0.8-2.3-0.8c-0.9,0-1.7,0.1-2.5,0.4c-0.8,0.3-1.5,0.5-2.3,0.9l-1.1-2.5c0.9-0.5,1.9-0.8,3-1.1
					c1.1-0.2,2.1-0.4,3-0.4c2.1,0,3.7,0.5,4.8,1.4c1.1,0.9,1.6,2.4,1.6,4.3v11.2H163.1z M157.9,21c1.3,0,2.3-0.4,3.1-1.1
					c0.8-0.7,1.2-1.7,1.2-3v-1.4l-2.1,0.1c-1.7,0.1-2.9,0.3-3.6,0.8c-0.8,0.5-1.1,1.3-1.1,2.3c0,0.7,0.2,1.3,0.7,1.7
					C156.3,20.8,157,21,157.9,21z"/>
				<path class="st4" d="M180.2,18.7c0,1.6-0.6,2.9-1.8,3.7c-1.2,0.9-2.9,1.3-5.1,1.3c-2.2,0-4-0.3-5.3-1v-3.1
					c2,0.9,3.8,1.4,5.5,1.4c2.2,0,3.3-0.7,3.3-2c0-0.4-0.1-0.8-0.4-1.1c-0.2-0.3-0.6-0.6-1.2-0.9c-0.6-0.3-1.3-0.6-2.3-1
					c-1.9-0.7-3.2-1.5-3.9-2.2c-0.7-0.7-1-1.7-1-2.9c0-1.4,0.6-2.5,1.7-3.3c1.1-0.8,2.7-1.2,4.7-1.2c2,0,3.8,0.4,5.6,1.2l-1.1,2.7
					c-1.8-0.7-3.3-1.1-4.5-1.1c-1.9,0-2.8,0.5-2.8,1.6c0,0.5,0.2,1,0.7,1.3c0.5,0.4,1.5,0.9,3.2,1.5c1.4,0.5,2.4,1,3,1.5
					c0.6,0.4,1.1,1,1.4,1.5C180.1,17.2,180.2,17.9,180.2,18.7z"/>
			</g>
		</g>
		<g>
			<g>
				<path class="st4" d="M176.3,63.2c-0.2-8.5,4-16.8,4-24.5c-0.4-1.4-1-2.6-2-3.8c-5.8-5.9-18.1-7.3-25-7.5c4.1,1,8,2.6,10.7,4.9
					c7.2,7.3,2.2,17.7,5.1,27.4c1.8,8.3,7,15,8.9,14.7C177,71.3,176.3,67.4,176.3,63.2z"/>
				<path class="st4" d="M159.7,55.2c3.1,6.3,8.6,11.2,11.2,12.2c-1.1-2.2-2.2-4.7-2.9-7.3c-2.9-9.7,2-20-5.2-27.2
					c-1.6-1.4-3.6-2.5-5.8-3.4c-7-1.8-15.3-1.9-20.4-1.8c4.4,0.6,8.6,1.7,12,3.6C157.4,37,154.7,46.7,159.7,55.2z"/>
				<path class="st4" d="M128.8,30.2c16.9,3.7,14.3,14.2,20.9,21.6c4,5,9.7,8.7,12.8,9.8c-1.5-1.8-3-3.8-4.2-6.1
					c-5-8.5-2.3-18.1-11.3-23.9c-3.3-1.8-7.4-2.9-11.7-3.5c-5.6-0.3-63.1-0.2-66.7,0C73.1,28.4,124.9,29.4,128.8,30.2z"/>
			</g>
		</g>
		<g>
			<path class="st4" d="M11.6,35.3c0,1-0.3,1.8-0.8,2.3c-0.5,0.5-1.3,0.8-2.3,0.8H6.8v-6.1h1.9c0.9,0,1.7,0.3,2.2,0.8
				C11.4,33.7,11.6,34.4,11.6,35.3z M10.9,35.4c0-0.8-0.2-1.4-0.6-1.8c-0.4-0.4-1-0.6-1.8-0.6h-1v4.8h0.9c0.8,0,1.5-0.2,1.9-0.6
				C10.7,36.8,10.9,36.2,10.9,35.4z"/>
			<path class="st4" d="M16.2,38.4h-3.4v-6.1h3.4V33h-2.7v2H16v0.6h-2.5v2.2h2.7V38.4z"/>
			<path class="st4" d="M24.6,36.8c0,0.5-0.2,1-0.6,1.3c-0.4,0.3-0.9,0.4-1.6,0.4c-0.7,0-1.3-0.1-1.7-0.3v-0.7
				c0.2,0.1,0.5,0.2,0.8,0.2c0.3,0.1,0.6,0.1,0.9,0.1c0.5,0,0.8-0.1,1.1-0.3c0.2-0.2,0.4-0.4,0.4-0.7c0-0.2,0-0.4-0.1-0.5
				c-0.1-0.1-0.2-0.3-0.4-0.4c-0.2-0.1-0.5-0.2-0.9-0.4c-0.6-0.2-1-0.4-1.2-0.7c-0.2-0.3-0.4-0.6-0.4-1.1c0-0.5,0.2-0.8,0.5-1.1
				c0.4-0.3,0.8-0.4,1.4-0.4c0.6,0,1.2,0.1,1.7,0.3l-0.2,0.6c-0.5-0.2-1-0.3-1.5-0.3c-0.4,0-0.7,0.1-0.9,0.2
				c-0.2,0.2-0.3,0.4-0.3,0.7c0,0.2,0,0.4,0.1,0.5c0.1,0.1,0.2,0.3,0.4,0.4c0.2,0.1,0.5,0.2,0.8,0.4c0.6,0.2,1.1,0.5,1.3,0.7
				C24.5,36.1,24.6,36.4,24.6,36.8z"/>
			<path class="st4" d="M30.1,38.4l-0.8-1.9h-2.4l-0.7,1.9h-0.7l2.4-6.1h0.6l2.4,6.1H30.1z M29.1,35.9L28.4,34
				c-0.1-0.2-0.2-0.5-0.3-0.9C28,33.4,28,33.7,27.8,34l-0.7,1.9H29.1z"/>
			<path class="st4" d="M36.8,38.4H36l-3.3-5.1h0c0,0.6,0.1,1.1,0.1,1.6v3.4h-0.7v-6.1h0.8l3.3,5.1h0c0-0.1,0-0.3,0-0.7
				c0-0.4,0-0.7,0-0.9v-3.5h0.7V38.4z"/>
			<path class="st4" d="M45.9,38.4l-0.8-1.9h-2.4L42,38.4h-0.7l2.4-6.1h0.6l2.4,6.1H45.9z M44.9,35.9L44.2,34
				c-0.1-0.2-0.2-0.5-0.3-0.9c-0.1,0.3-0.1,0.6-0.3,0.9L43,35.9H44.9z"/>
			<path class="st4" d="M52.3,38.4h-0.8l-3.3-5.1h0c0,0.6,0.1,1.1,0.1,1.6v3.4h-0.7v-6.1h0.8l3.3,5.1h0c0-0.1,0-0.3,0-0.7
				c0-0.4,0-0.7,0-0.9v-3.5h0.7V38.4z"/>
			<path class="st4" d="M56.3,38.4h-0.7V33h-1.9v-0.6h4.5V33h-1.9V38.4z"/>
			<path class="st4" d="M64.8,35.4c0,1-0.2,1.7-0.7,2.3c-0.5,0.6-1.2,0.8-2,0.8c-0.9,0-1.6-0.3-2.1-0.8c-0.5-0.5-0.7-1.3-0.7-2.3
				c0-1,0.2-1.8,0.7-2.3c0.5-0.5,1.2-0.8,2.1-0.8c0.9,0,1.6,0.3,2,0.8C64.6,33.7,64.8,34.4,64.8,35.4z M60,35.4
				c0,0.8,0.2,1.4,0.5,1.9c0.3,0.4,0.9,0.6,1.5,0.6c0.7,0,1.2-0.2,1.5-0.6c0.3-0.4,0.5-1,0.5-1.9c0-0.8-0.2-1.4-0.5-1.9
				c-0.3-0.4-0.8-0.6-1.5-0.6c-0.7,0-1.2,0.2-1.5,0.6C60.1,34,60,34.6,60,35.4z"/>
			<path class="st4" d="M71,38.4h-0.8l-3.3-5.1h0c0,0.6,0.1,1.1,0.1,1.6v3.4h-0.7v-6.1h0.8l3.3,5.1h0c0-0.1,0-0.3,0-0.7
				c0-0.4,0-0.7,0-0.9v-3.5H71V38.4z"/>
			<path class="st4" d="M72.8,38.4v-6.1h0.7v6.1H72.8z"/>
			<path class="st4" d="M80.6,35.4c0,1-0.2,1.7-0.7,2.3c-0.5,0.6-1.2,0.8-2,0.8c-0.9,0-1.6-0.3-2.1-0.8c-0.5-0.5-0.7-1.3-0.7-2.3
				c0-1,0.2-1.8,0.7-2.3c0.5-0.5,1.2-0.8,2.1-0.8c0.9,0,1.6,0.3,2,0.8C80.3,33.7,80.6,34.4,80.6,35.4z M75.7,35.4
				c0,0.8,0.2,1.4,0.5,1.9c0.3,0.4,0.9,0.6,1.5,0.6c0.7,0,1.2-0.2,1.5-0.6c0.3-0.4,0.5-1,0.5-1.9c0-0.8-0.2-1.4-0.5-1.9
				c-0.3-0.4-0.8-0.6-1.5-0.6c-0.7,0-1.2,0.2-1.5,0.6C75.9,34,75.7,34.6,75.7,35.4z"/>
		</g>
	</g>
</g>
</svg>
