<svg id="Layer_1" data-name="Layer 1" xmlns="http://www.w3.org/2000/svg" viewBox="0 0 408 102.05"><defs><style>.cls-1{fill:#1d4581;}</style></defs><title>San Antonio</title><path class="cls-1" d="M61.45,114a13.37,13.37,0,0,1-5,11c-3.34,2.65-8,4-13.93,4A32,32,0,0,1,28,125.81V115.74A64.58,64.58,0,0,0,36.78,119a27.11,27.11,0,0,0,6.59.92,9.53,9.53,0,0,0,5.52-1.36,4.7,4.7,0,0,0,1.85-4.08,4.3,4.3,0,0,0-.8-2.66,9.06,9.06,0,0,0-2.49-2.31,55.66,55.66,0,0,0-6.64-3.42,32.46,32.46,0,0,1-7.05-4.26A16.25,16.25,0,0,1,30,97.07a13.39,13.39,0,0,1-1.4-6.29c0-4.52,1.53-8.13,4.6-10.69S40.54,76.18,46,76.18a31.62,31.62,0,0,1,7.62.94,53.09,53.09,0,0,1,7.64,2.68l-3.55,8.45a48,48,0,0,0-6.78-2.35,21,21,0,0,0-5.3-.66,7.08,7.08,0,0,0-4.71,1.42,4.75,4.75,0,0,0-1.65,3.77,4.35,4.35,0,0,0,.68,2.5A7.18,7.18,0,0,0,42,95a62.06,62.06,0,0,0,6.87,3.6c4.83,2.29,8.12,4.57,9.89,6.88A13.7,13.7,0,0,1,61.45,114Z" transform="translate(-28 -76.18)"/><path class="cls-1" d="M90.81,128.23l-2.61-8.54H75.09l-2.61,8.54H64.27L77,92.15h9.29L99,128.23Zm-4.46-15c-2.39-7.76-3.77-12.12-4-13.13a19.88,19.88,0,0,1-.64-2.41C81.1,99.84,79.58,105,77,113.27Z" transform="translate(-28 -76.18)"/><path class="cls-1" d="M135.4,128.23h-9.69L110.08,101h-.22c.29,4.84.45,8.23.45,10.27v16.93h-6.78V92.29h9.56l15.64,26.94h.19c-.28-4.68-.39-8-.39-9.92v-17h6.87Z" transform="translate(-28 -76.18)"/><path class="cls-1" d="M196.42,128.23,192.7,116H174l-3.7,12.25H158.56l18.13-51.5H190l18.18,51.5Zm-6.29-21.3c-3.47-11.13-5.38-17.37-5.83-18.8s-.73-2.63-.93-3.47c-.74,3-3,10.4-6.64,22.27Z" transform="translate(-28 -76.18)"/><path class="cls-1" d="M244.55,128.23H234.9L219.27,101H219c.3,4.84.48,8.23.48,10.27v16.93h-6.85V92.29h9.67l15.57,26.94h.18c-.24-4.68-.39-8-.39-9.92v-17h6.87Z" transform="translate(-28 -76.18)"/><path class="cls-1" d="M267.44,128.23h-7.61V98.62h-9.76V92.29h27.12v6.33h-9.75Z" transform="translate(-28 -76.18)"/><path class="cls-1" d="M315.35,110.22c0,6-1.52,10.49-4.46,13.73s-7.18,4.76-12.68,4.76-9.71-1.61-12.66-4.76-4.41-7.8-4.41-13.8,1.48-10.54,4.41-13.66,7.23-4.74,12.72-4.74,9.72,1.57,12.66,4.77S315.35,104.27,315.35,110.22Zm-26.23,0c0,4,.76,7,2.27,9.06a8,8,0,0,0,6.82,3c6.09,0,9.16-4,9.16-12.1s-3-12.14-9.1-12.14c-3,0-5.34,1-6.88,3.07S289.12,106.25,289.12,110.22Z" transform="translate(-28 -76.18)"/><path class="cls-1" d="M354.62,128.23H345L329.32,101h-.18c.27,4.84.42,8.23.42,10.27v16.93h-6.8V92.29h9.61L348,119.23h.16c-.25-4.68-.36-8-.36-9.92v-17h6.84Z" transform="translate(-28 -76.18)"/><path class="cls-1" d="M363.67,128.23V92.29h7.58v35.94Z" transform="translate(-28 -76.18)"/><path class="cls-1" d="M412.93,110.22c0,6-1.49,10.49-4.44,13.73s-7.17,4.76-12.67,4.76-9.72-1.61-12.64-4.76-4.44-7.8-4.44-13.8,1.45-10.54,4.44-13.66,7.17-4.74,12.71-4.74,9.75,1.57,12.65,4.77S412.93,104.27,412.93,110.22Zm-26.23,0c0,4,.76,7,2.3,9.06a8,8,0,0,0,6.82,3c6.1,0,9.13-4,9.13-12.1s-3-12.14-9.06-12.14c-3.06,0-5.34,1-6.87,3.07S386.7,106.25,386.7,110.22Z" transform="translate(-28 -76.18)"/><path class="cls-1" d="M199.6,169.51a7,7,0,0,1-5.92-2.77c-1.43-1.78-2.13-4.37-2.13-7.69s.7-6,2.13-7.82a7.22,7.22,0,0,1,6-2.81,7.09,7.09,0,0,1,6.13,3h.2a28.22,28.22,0,0,1-.34-3.46v-7.38H210v28.59h-3.36l-.79-2.69h-.23A6.79,6.79,0,0,1,199.6,169.51Zm1.16-3.49a4.77,4.77,0,0,0,3.88-1.48,7.86,7.86,0,0,0,1.25-4.89v-.6c0-2.56-.42-4.36-1.25-5.43a4.46,4.46,0,0,0-3.91-1.66,4,4,0,0,0-3.53,1.89,9.54,9.54,0,0,0-1.19,5.21,9,9,0,0,0,1.19,5.18A3.93,3.93,0,0,0,200.76,166Z" transform="translate(-28 -76.18)"/><path class="cls-1" d="M225.08,169.51c-3.18,0-5.64-.91-7.4-2.77a10.58,10.58,0,0,1-2.7-7.62c0-3.32.84-6,2.52-7.83a8.52,8.52,0,0,1,6.81-2.87,8.37,8.37,0,0,1,6.36,2.5,9.3,9.3,0,0,1,2.33,6.74V160H219.44a6.9,6.9,0,0,0,1.58,4.53,5.76,5.76,0,0,0,4.3,1.57,12.46,12.46,0,0,0,3.34-.35,18.07,18.07,0,0,0,3.35-1.1v3.5a12.27,12.27,0,0,1-3.19,1.08A19.34,19.34,0,0,1,225.08,169.51Zm-.77-17.77A4.26,4.26,0,0,0,221,153a6.15,6.15,0,0,0-1.48,3.81h9.22a5.74,5.74,0,0,0-1.24-3.81A4,4,0,0,0,224.31,151.74Z" transform="translate(-28 -76.18)"/><path class="cls-1" d="M259.57,145.65a7.34,7.34,0,0,0-6,2.68c-1.44,1.77-2.16,4.27-2.16,7.41,0,3.31.72,5.81,2.1,7.49a7.24,7.24,0,0,0,6,2.56,14.5,14.5,0,0,0,3.32-.37,31.27,31.27,0,0,0,3.34-.88v3.79a20.58,20.58,0,0,1-7.19,1.18q-5.9,0-9.05-3.56c-2.11-2.41-3.16-5.8-3.16-10.24a16.87,16.87,0,0,1,1.53-7.35,11.05,11.05,0,0,1,4.43-4.81,13.77,13.77,0,0,1,6.81-1.67,16.86,16.86,0,0,1,7.64,1.74l-1.57,3.66a20.16,20.16,0,0,0-2.9-1.1A8.85,8.85,0,0,0,259.57,145.65Z" transform="translate(-28 -76.18)"/><path class="cls-1" d="M284.28,169.16l-.88-2.83h-.14a8.73,8.73,0,0,1-3,2.54,9.91,9.91,0,0,1-3.82.64,6.42,6.42,0,0,1-4.68-1.6,6,6,0,0,1-1.67-4.57,5.27,5.27,0,0,1,2.33-4.75c1.57-1.07,3.94-1.63,7.1-1.79l3.52-.06v-1.07a4.09,4.09,0,0,0-.93-2.93,3.54,3.54,0,0,0-2.77-.94,9.93,9.93,0,0,0-3,.4c-1,.32-1.85.7-2.77,1.1l-1.4-3.1a12.81,12.81,0,0,1,3.65-1.27,16.27,16.27,0,0,1,3.72-.51,9,9,0,0,1,5.82,1.7c1.33,1.15,2,2.91,2,5.34v13.7Zm-6.44-2.94a5.36,5.36,0,0,0,3.81-1.32,4.85,4.85,0,0,0,1.39-3.68v-1.75l-2.61.09a9.09,9.09,0,0,0-4.44,1,3.12,3.12,0,0,0-1.4,2.79,2.6,2.6,0,0,0,.84,2.1A3.43,3.43,0,0,0,277.84,166.22Z" transform="translate(-28 -76.18)"/><path class="cls-1" d="M303.71,148.42a10.42,10.42,0,0,1,2.16.21l-.4,4a8.55,8.55,0,0,0-1.93-.23,5.38,5.38,0,0,0-4.2,1.73,6.07,6.07,0,0,0-1.63,4.37v10.63h-4.3V148.82h3.37l.6,3.61h.18a7.76,7.76,0,0,1,2.65-2.87A6.21,6.21,0,0,1,303.71,148.42Z" transform="translate(-28 -76.18)"/><path class="cls-1" d="M322.36,169.16l-.88-2.83h-.14a8.15,8.15,0,0,1-3,2.54,9.77,9.77,0,0,1-3.8.64,6.48,6.48,0,0,1-4.7-1.6,6.16,6.16,0,0,1-1.67-4.57,5.33,5.33,0,0,1,2.35-4.75c1.52-1.07,3.92-1.63,7.13-1.79l3.48-.06v-1.07a4.13,4.13,0,0,0-.88-2.93,3.69,3.69,0,0,0-2.83-.94,9.91,9.91,0,0,0-3,.4,29.18,29.18,0,0,0-2.75,1.1l-1.43-3.1a12.92,12.92,0,0,1,3.65-1.27,16.12,16.12,0,0,1,3.71-.51,9.21,9.21,0,0,1,5.86,1.7c1.31,1.15,2,2.91,2,5.34v13.7Zm-6.4-2.94a5.33,5.33,0,0,0,3.76-1.32,4.86,4.86,0,0,0,1.41-3.68v-1.75l-2.61.09a9.18,9.18,0,0,0-4.46,1,3.14,3.14,0,0,0-1.36,2.79,2.71,2.71,0,0,0,.79,2.1A3.65,3.65,0,0,0,316,166.22Z" transform="translate(-28 -76.18)"/><path class="cls-1" d="M341.87,148.42a7.05,7.05,0,0,1,5.93,2.79c1.42,1.82,2.12,4.42,2.12,7.75s-.7,5.94-2.14,7.75a7.82,7.82,0,0,1-12,0h-.31l-.79,2.42h-3.25V140.57h4.35v6.74c0,.54,0,1.31-.07,2.27s-.11,1.63-.12,1.9h.19A6.87,6.87,0,0,1,341.87,148.42ZM340.76,152a4.47,4.47,0,0,0-3.77,1.57c-.8,1-1.18,2.72-1.18,5.13v.3c0,2.46.38,4.24,1.18,5.39a4.44,4.44,0,0,0,3.84,1.67,4,4,0,0,0,3.49-1.85,10.31,10.31,0,0,0,1.19-5.28C345.51,154.31,343.9,152,340.76,152Z" transform="translate(-28 -76.18)"/><path class="cls-1" d="M367.67,169.16l-.86-2.83h-.15a9.22,9.22,0,0,1-3,2.54,10,10,0,0,1-3.83.64,6.46,6.46,0,0,1-4.69-1.6,6.08,6.08,0,0,1-1.67-4.57,5.33,5.33,0,0,1,2.35-4.75c1.54-1.07,3.92-1.63,7.11-1.79l3.49-.06v-1.07a4,4,0,0,0-.9-2.93,3.62,3.62,0,0,0-2.81-.94,9.69,9.69,0,0,0-3,.4,27.18,27.18,0,0,0-2.8,1.1l-1.41-3.1a13.28,13.28,0,0,1,3.67-1.27,15.81,15.81,0,0,1,3.69-.51,9.15,9.15,0,0,1,5.86,1.7c1.31,1.15,2,2.91,2,5.34v13.7Zm-6.43-2.94A5.31,5.31,0,0,0,365,164.9a4.82,4.82,0,0,0,1.4-3.68v-1.75l-2.58.09a9.21,9.21,0,0,0-4.46,1,3.12,3.12,0,0,0-1.37,2.79,2.74,2.74,0,0,0,.79,2.1A3.58,3.58,0,0,0,361.24,166.22Z" transform="translate(-28 -76.18)"/><path class="cls-1" d="M373.7,148.82h4.7l4.17,11.53a23.83,23.83,0,0,1,1.24,4.62h.13a18.44,18.44,0,0,1,.62-2.47c.27-.95,1.87-5.51,4.68-13.68h4.63l-8.7,23c-1.56,4.23-4.18,6.36-7.9,6.36a11.92,11.92,0,0,1-2.79-.36v-3.4a9.37,9.37,0,0,0,2.25.25c2.07,0,3.54-1.24,4.37-3.64l.78-1.91Z" transform="translate(-28 -76.18)"/><path class="cls-1" d="M401.3,169.16H397V140.57h4.3Z" transform="translate(-28 -76.18)"/><path class="cls-1" d="M411.8,169.16h-4.33V140.57h4.33Z" transform="translate(-28 -76.18)"/><path class="cls-1" d="M436,159c0,3.33-.86,5.91-2.56,7.75a9,9,0,0,1-7.09,2.8,9.94,9.94,0,0,1-5.07-1.27,8.67,8.67,0,0,1-3.35-3.7,12.62,12.62,0,0,1-1.17-5.58c0-3.29.86-5.9,2.55-7.73a9.15,9.15,0,0,1,7.13-2.81,8.93,8.93,0,0,1,7,2.87A11,11,0,0,1,436,159Zm-14.78,0c0,4.65,1.74,7.06,5.2,7.06s5.12-2.41,5.12-7.06-1.71-7-5.15-7a4.39,4.39,0,0,0-4,1.85A9.14,9.14,0,0,0,421.22,159Z" transform="translate(-28 -76.18)"/></svg>